<?xml version="1.0" encoding="UTF-8" standalone="no"?>
<!-- Created with Inkscape (http://www.inkscape.org/) -->

<svg
   xmlns:dc="http://purl.org/dc/elements/1.1/"
   xmlns:cc="http://creativecommons.org/ns#"
   xmlns:rdf="http://www.w3.org/1999/02/22-rdf-syntax-ns#"
   xmlns:svg="http://www.w3.org/2000/svg"
   xmlns="http://www.w3.org/2000/svg"
   xmlns:sodipodi="http://sodipodi.sourceforge.net/DTD/sodipodi-0.dtd"
   xmlns:inkscape="http://www.inkscape.org/namespaces/inkscape"
   id="svg15120"
   version="1.1"
   inkscape:version="0.48.2 r9819"
   width="720"
   height="540"
   xml:space="preserve"
   sodipodi:docname="am241io_se.eps"><sodipodi:namedview
     pagecolor="#ffffff"
     bordercolor="#666666"
     borderopacity="1"
     objecttolerance="10"
     gridtolerance="10"
     guidetolerance="10"
     inkscape:pageopacity="0"
     inkscape:pageshadow="2"
     inkscape:window-width="1438"
     inkscape:window-height="868"
     id="namedview15122"
     showgrid="false"
     inkscape:zoom="0.43703704"
     inkscape:cx="360"
     inkscape:cy="270"
     inkscape:window-x="0"
     inkscape:window-y="30"
     inkscape:window-maximized="0"
     inkscape:current-layer="g15128" /><metadata
     id="metadata15126"><rdf:RDF><cc:Work
         rdf:about=""><dc:format>image/svg+xml</dc:format><dc:type
           rdf:resource="http://purl.org/dc/dcmitype/StillImage" /><dc:title></dc:title></cc:Work></rdf:RDF></metadata><defs
     id="defs15124"><clipPath
       id="clipPath15144"
       clipPathUnits="userSpaceOnUse"><path
         id="path15146"
         d="m 720,432 4464,0 0,3456 -4464,0 0,-3456 z" /></clipPath></defs><g
     transform="matrix(1.25,0,0,-1.25,0,540)"
     inkscape:label="ink_ext_XXXXXX"
     inkscape:groupmode="layer"
     id="g15128"><g
       transform="scale(0.1,0.1)"
       id="g15130"><path
         id="path15132"
         style="fill:#ffffff;fill-opacity:1;fill-rule:nonzero;stroke:none"
         d="m 0,0 5760,0 0,4320 L 0,4320 0,0 z" /><path
         id="path15134"
         style="fill:none;stroke:#ffffff;stroke-opacity:1;stroke-width:10;stroke-linecap:square;stroke-linejoin:miter;stroke-miterlimit:10;stroke-dasharray:none"
         d="m 0,0 5760,0 0,4320 L 0,4320 0,0 z" /><path
         id="path15136"
         style="fill:#ffffff;fill-opacity:1;fill-rule:nonzero;stroke:none"
         d="m 720,432 4464,0 0,3456 -4464,0 0,-3456 z" /><path
         id="path15138"
         style="fill:none;stroke:#000000;stroke-opacity:1;stroke-width:10;stroke-linecap:square;stroke-linejoin:miter;stroke-miterlimit:10;stroke-dasharray:none"
         d="m 720,432 4464,0 0,3456 -4464,0 0,-3456 z" /><g
         id="g15140"><g
           clip-path="url(#clipPath15144)"
           id="g15142"><path
             id="path15148"
             style="fill:none;stroke:#000000;stroke-opacity:1;stroke-width:10;stroke-linecap:square;stroke-linejoin:miter;stroke-miterlimit:10;stroke-dasharray:none"
             d="m 720,808.402 496,2085.138 496,157.85 496,-61.82 496,-25.51 496,10.05 496,22.07 496,22.28 992,0" /><path
             id="path15150"
             style="fill:none;stroke:#ff0000;stroke-opacity:1;stroke-width:10;stroke-linecap:butt;stroke-linejoin:miter;stroke-miterlimit:10;stroke-dasharray:60,60;stroke-dashoffset:0"
             d="m 720,1213.09 496,334.57 496,-21.39 496,-11.82 496,18.75 496,29.28 496,27.48 496,20.55 992,0" /><path
             id="path15152"
             style="fill:none;stroke:#0000ff;stroke-opacity:1;stroke-width:10;stroke-linecap:square;stroke-linejoin:miter;stroke-miterlimit:10;stroke-dasharray:none"
             d="m 720,808.402 496,2316.558 496,195.52 496,-85.16 496,-39.54 496,17.71 496,41.08 496,45.43 496,38.96 496,30.6" /><path
             id="path15154"
             style="fill:#0000ff;fill-opacity:1;fill-rule:nonzero;stroke:none"
             d="m 750,808.402 -0.238,3.762 -0.703,3.699 -1.164,3.586 -1.606,3.406 -2.019,3.184 -2.403,2.902 -2.746,2.579 -3.047,2.214 -3.301,1.813 -3.503,1.391 -3.649,0.933 -3.738,0.473 -3.766,0 -3.738,-0.473 -3.649,-0.933 -3.503,-1.391 -3.301,-1.813 -3.047,-2.214 -2.746,-2.579 -2.403,-2.902 -2.019,-3.184 -1.606,-3.406 -1.164,-3.586 -0.703,-3.699 -0.238,-3.762 0.238,-3.757 0.703,-3.704 1.164,-3.582 1.606,-3.406 2.019,-3.183 2.403,-2.903 2.746,-2.578 3.047,-2.215 3.301,-1.816 3.503,-1.387 3.649,-0.937 3.738,-0.469 3.766,0 3.738,0.469 3.649,0.937 3.503,1.387 3.301,1.816 3.047,2.215 2.746,2.578 2.403,2.903 2.019,3.183 1.606,3.406 1.164,3.582 0.703,3.704" /><path
             id="path15156"
             style="fill:none;stroke:#000000;stroke-opacity:1;stroke-width:5;stroke-linecap:butt;stroke-linejoin:miter;stroke-miterlimit:10;stroke-dasharray:none"
             d="m 750,808.402 -0.238,3.762 -0.703,3.699 -1.164,3.586 -1.606,3.406 -2.019,3.184 -2.403,2.902 -2.746,2.579 -3.047,2.214 -3.301,1.813 -3.503,1.391 -3.649,0.933 -3.738,0.473 -3.766,0 -3.738,-0.473 -3.649,-0.933 -3.503,-1.391 -3.301,-1.813 -3.047,-2.214 -2.746,-2.579 -2.403,-2.902 -2.019,-3.184 -1.606,-3.406 -1.164,-3.586 -0.703,-3.699 -0.238,-3.762 0.238,-3.757 0.703,-3.704 1.164,-3.582 1.606,-3.406 2.019,-3.183 2.403,-2.903 2.746,-2.578 3.047,-2.215 3.301,-1.816 3.503,-1.387 3.649,-0.937 3.738,-0.469 3.766,0 3.738,0.469 3.649,0.937 3.503,1.387 3.301,1.816 3.047,2.215 2.746,2.578 2.403,2.903 2.019,3.183 1.606,3.406 1.164,3.582 0.703,3.704 0.238,3.757 z" /><path
             id="path15158"
             style="fill:#0000ff;fill-opacity:1;fill-rule:nonzero;stroke:none"
             d="m 1246,3124.96 -0.24,3.76 -0.7,3.7 -1.17,3.58 -1.6,3.41 -2.02,3.18 -2.4,2.91 -2.75,2.57 -3.05,2.22 -3.3,1.82 -3.5,1.38 -3.65,0.94 -3.74,0.47 -3.76,0 -3.74,-0.47 -3.65,-0.94 -3.5,-1.38 -3.3,-1.82 -3.05,-2.22 -2.75,-2.57 -2.4,-2.91 -2.02,-3.18 -1.6,-3.41 -1.17,-3.58 -0.7,-3.7 -0.24,-3.76 0.24,-3.76 0.7,-3.7 1.17,-3.58 1.6,-3.41 2.02,-3.18 2.4,-2.91 2.75,-2.58 3.05,-2.21 3.3,-1.81 3.5,-1.39 3.65,-0.94 3.74,-0.47 3.76,0 3.74,0.47 3.65,0.94 3.5,1.39 3.3,1.81 3.05,2.21 2.75,2.58 2.4,2.91 2.02,3.18 1.6,3.41 1.17,3.58 0.7,3.7" /><path
             id="path15160"
             style="fill:none;stroke:#000000;stroke-opacity:1;stroke-width:5;stroke-linecap:butt;stroke-linejoin:miter;stroke-miterlimit:10;stroke-dasharray:none"
             d="m 1246,3124.96 -0.24,3.76 -0.7,3.7 -1.17,3.58 -1.6,3.41 -2.02,3.18 -2.4,2.91 -2.75,2.57 -3.05,2.22 -3.3,1.82 -3.5,1.38 -3.65,0.94 -3.74,0.47 -3.76,0 -3.74,-0.47 -3.65,-0.94 -3.5,-1.38 -3.3,-1.82 -3.05,-2.22 -2.75,-2.57 -2.4,-2.91 -2.02,-3.18 -1.6,-3.41 -1.17,-3.58 -0.7,-3.7 -0.24,-3.76 0.24,-3.76 0.7,-3.7 1.17,-3.58 1.6,-3.41 2.02,-3.18 2.4,-2.91 2.75,-2.58 3.05,-2.21 3.3,-1.81 3.5,-1.39 3.65,-0.94 3.74,-0.47 3.76,0 3.74,0.47 3.65,0.94 3.5,1.39 3.3,1.81 3.05,2.21 2.75,2.58 2.4,2.91 2.02,3.18 1.6,3.41 1.17,3.58 0.7,3.7 0.24,3.76 z" /><path
             id="path15162"
             style="fill:#0000ff;fill-opacity:1;fill-rule:nonzero;stroke:none"
             d="m 1742,3320.48 -0.24,3.76 -0.7,3.7 -1.17,3.58 -1.6,3.41 -2.02,3.18 -2.4,2.91 -2.75,2.57 -3.05,2.22 -3.3,1.81 -3.5,1.39 -3.65,0.94 -3.74,0.47 -3.76,0 -3.74,-0.47 -3.65,-0.94 -3.5,-1.39 -3.3,-1.81 -3.05,-2.22 -2.75,-2.57 -2.4,-2.91 -2.02,-3.18 -1.6,-3.41 -1.17,-3.58 -0.7,-3.7 -0.24,-3.76 0.24,-3.76 0.7,-3.7 1.17,-3.58 1.6,-3.41 2.02,-3.18 2.4,-2.9 2.75,-2.59 3.05,-2.21 3.3,-1.81 3.5,-1.39 3.65,-0.94 3.74,-0.47 3.76,0 3.74,0.47 3.65,0.94 3.5,1.39 3.3,1.81 3.05,2.21 2.75,2.59 2.4,2.9 2.02,3.18 1.6,3.41 1.17,3.58 0.7,3.7" /><path
             id="path15164"
             style="fill:none;stroke:#000000;stroke-opacity:1;stroke-width:5;stroke-linecap:butt;stroke-linejoin:miter;stroke-miterlimit:10;stroke-dasharray:none"
             d="m 1742,3320.48 -0.24,3.76 -0.7,3.7 -1.17,3.58 -1.6,3.41 -2.02,3.18 -2.4,2.91 -2.75,2.57 -3.05,2.22 -3.3,1.81 -3.5,1.39 -3.65,0.94 -3.74,0.47 -3.76,0 -3.74,-0.47 -3.65,-0.94 -3.5,-1.39 -3.3,-1.81 -3.05,-2.22 -2.75,-2.57 -2.4,-2.91 -2.02,-3.18 -1.6,-3.41 -1.17,-3.58 -0.7,-3.7 -0.24,-3.76 0.24,-3.76 0.7,-3.7 1.17,-3.58 1.6,-3.41 2.02,-3.18 2.4,-2.9 2.75,-2.59 3.05,-2.21 3.3,-1.81 3.5,-1.39 3.65,-0.94 3.74,-0.47 3.76,0 3.74,0.47 3.65,0.94 3.5,1.39 3.3,1.81 3.05,2.21 2.75,2.59 2.4,2.9 2.02,3.18 1.6,3.41 1.17,3.58 0.7,3.7 0.24,3.76 z" /><path
             id="path15166"
             style="fill:#0000ff;fill-opacity:1;fill-rule:nonzero;stroke:none"
             d="m 2238,3235.32 -0.24,3.76 -0.7,3.7 -1.17,3.58 -1.6,3.41 -2.02,3.18 -2.4,2.91 -2.75,2.58 -3.05,2.21 -3.3,1.81 -3.5,1.39 -3.65,0.94 -3.74,0.47 -3.76,0 -3.74,-0.47 -3.65,-0.94 -3.5,-1.39 -3.3,-1.81 -3.05,-2.21 -2.75,-2.58 -2.4,-2.91 -2.02,-3.18 -1.6,-3.41 -1.17,-3.58 -0.7,-3.7 -0.24,-3.76 0.24,-3.76 0.7,-3.7 1.17,-3.58 1.6,-3.41 2.02,-3.18 2.4,-2.9 2.75,-2.59 3.05,-2.21 3.3,-1.81 3.5,-1.39 3.65,-0.94 3.74,-0.47 3.76,0 3.74,0.47 3.65,0.94 3.5,1.39 3.3,1.81 3.05,2.21 2.75,2.59 2.4,2.9 2.02,3.18 1.6,3.41 1.17,3.58 0.7,3.7" /><path
             id="path15168"
             style="fill:none;stroke:#000000;stroke-opacity:1;stroke-width:5;stroke-linecap:butt;stroke-linejoin:miter;stroke-miterlimit:10;stroke-dasharray:none"
             d="m 2238,3235.32 -0.24,3.76 -0.7,3.7 -1.17,3.58 -1.6,3.41 -2.02,3.18 -2.4,2.91 -2.75,2.58 -3.05,2.21 -3.3,1.81 -3.5,1.39 -3.65,0.94 -3.74,0.47 -3.76,0 -3.74,-0.47 -3.65,-0.94 -3.5,-1.39 -3.3,-1.81 -3.05,-2.21 -2.75,-2.58 -2.4,-2.91 -2.02,-3.18 -1.6,-3.41 -1.17,-3.58 -0.7,-3.7 -0.24,-3.76 0.24,-3.76 0.7,-3.7 1.17,-3.58 1.6,-3.41 2.02,-3.18 2.4,-2.9 2.75,-2.59 3.05,-2.21 3.3,-1.81 3.5,-1.39 3.65,-0.94 3.74,-0.47 3.76,0 3.74,0.47 3.65,0.94 3.5,1.39 3.3,1.81 3.05,2.21 2.75,2.59 2.4,2.9 2.02,3.18 1.6,3.41 1.17,3.58 0.7,3.7 0.24,3.76 z" /><path
             id="path15170"
             style="fill:#0000ff;fill-opacity:1;fill-rule:nonzero;stroke:none"
             d="m 2734,3195.78 -0.24,3.76 -0.7,3.7 -1.17,3.58 -1.6,3.41 -2.02,3.18 -2.4,2.91 -2.75,2.57 -3.05,2.22 -3.3,1.82 -3.5,1.38 -3.65,0.94 -3.74,0.47 -3.76,0 -3.74,-0.47 -3.65,-0.94 -3.5,-1.38 -3.3,-1.82 -3.05,-2.22 -2.75,-2.57 -2.4,-2.91 -2.02,-3.18 -1.6,-3.41 -1.17,-3.58 -0.7,-3.7 -0.24,-3.76 0.24,-3.76 0.7,-3.7 1.17,-3.58 1.6,-3.41 2.02,-3.18 2.4,-2.91 2.75,-2.58 3.05,-2.21 3.3,-1.81 3.5,-1.39 3.65,-0.94 3.74,-0.47 3.76,0 3.74,0.47 3.65,0.94 3.5,1.39 3.3,1.81 3.05,2.21 2.75,2.58 2.4,2.91 2.02,3.18 1.6,3.41 1.17,3.58 0.7,3.7" /><path
             id="path15172"
             style="fill:none;stroke:#000000;stroke-opacity:1;stroke-width:5;stroke-linecap:butt;stroke-linejoin:miter;stroke-miterlimit:10;stroke-dasharray:none"
             d="m 2734,3195.78 -0.24,3.76 -0.7,3.7 -1.17,3.58 -1.6,3.41 -2.02,3.18 -2.4,2.91 -2.75,2.57 -3.05,2.22 -3.3,1.82 -3.5,1.38 -3.65,0.94 -3.74,0.47 -3.76,0 -3.74,-0.47 -3.65,-0.94 -3.5,-1.38 -3.3,-1.82 -3.05,-2.22 -2.75,-2.57 -2.4,-2.91 -2.02,-3.18 -1.6,-3.41 -1.17,-3.58 -0.7,-3.7 -0.24,-3.76 0.24,-3.76 0.7,-3.7 1.17,-3.58 1.6,-3.41 2.02,-3.18 2.4,-2.91 2.75,-2.58 3.05,-2.21 3.3,-1.81 3.5,-1.39 3.65,-0.94 3.74,-0.47 3.76,0 3.74,0.47 3.65,0.94 3.5,1.39 3.3,1.81 3.05,2.21 2.75,2.58 2.4,2.91 2.02,3.18 1.6,3.41 1.17,3.58 0.7,3.7 0.24,3.76 z" /><path
             id="path15174"
             style="fill:#0000ff;fill-opacity:1;fill-rule:nonzero;stroke:none"
             d="m 3230,3213.49 -0.24,3.76 -0.7,3.7 -1.17,3.59 -1.6,3.4 -2.02,3.18 -2.4,2.91 -2.75,2.58 -3.05,2.21 -3.3,1.82 -3.5,1.38 -3.65,0.94 -3.74,0.47 -3.76,0 -3.74,-0.47 -3.65,-0.94 -3.5,-1.38 -3.3,-1.82 -3.05,-2.21 -2.75,-2.58 -2.4,-2.91 -2.02,-3.18 -1.6,-3.4 -1.17,-3.59 -0.7,-3.7 -0.24,-3.76 0.24,-3.76 0.7,-3.7 1.17,-3.58 1.6,-3.41 2.02,-3.18 2.4,-2.91 2.75,-2.57 3.05,-2.22 3.3,-1.82 3.5,-1.38 3.65,-0.94 3.74,-0.47 3.76,0 3.74,0.47 3.65,0.94 3.5,1.38 3.3,1.82 3.05,2.22 2.75,2.57 2.4,2.91 2.02,3.18 1.6,3.41 1.17,3.58 0.7,3.7" /><path
             id="path15176"
             style="fill:none;stroke:#000000;stroke-opacity:1;stroke-width:5;stroke-linecap:butt;stroke-linejoin:miter;stroke-miterlimit:10;stroke-dasharray:none"
             d="m 3230,3213.49 -0.24,3.76 -0.7,3.7 -1.17,3.59 -1.6,3.4 -2.02,3.18 -2.4,2.91 -2.75,2.58 -3.05,2.21 -3.3,1.82 -3.5,1.38 -3.65,0.94 -3.74,0.47 -3.76,0 -3.74,-0.47 -3.65,-0.94 -3.5,-1.38 -3.3,-1.82 -3.05,-2.21 -2.75,-2.58 -2.4,-2.91 -2.02,-3.18 -1.6,-3.4 -1.17,-3.59 -0.7,-3.7 -0.24,-3.76 0.24,-3.76 0.7,-3.7 1.17,-3.58 1.6,-3.41 2.02,-3.18 2.4,-2.91 2.75,-2.57 3.05,-2.22 3.3,-1.82 3.5,-1.38 3.65,-0.94 3.74,-0.47 3.76,0 3.74,0.47 3.65,0.94 3.5,1.38 3.3,1.82 3.05,2.22 2.75,2.57 2.4,2.91 2.02,3.18 1.6,3.41 1.17,3.58 0.7,3.7 0.24,3.76 z" /><path
             id="path15178"
             style="fill:#0000ff;fill-opacity:1;fill-rule:nonzero;stroke:none"
             d="m 3726,3254.57 -0.24,3.76 -0.7,3.7 -1.17,3.58 -1.6,3.41 -2.02,3.18 -2.4,2.91 -2.75,2.58 -3.05,2.21 -3.3,1.81 -3.5,1.39 -3.65,0.94 -3.74,0.47 -3.76,0 -3.74,-0.47 -3.65,-0.94 -3.5,-1.39 -3.3,-1.81 -3.05,-2.21 -2.75,-2.58 -2.4,-2.91 -2.02,-3.18 -1.6,-3.41 -1.17,-3.58 -0.7,-3.7 -0.24,-3.76 0.24,-3.76 0.7,-3.7 1.17,-3.58 1.6,-3.41 2.02,-3.18 2.4,-2.9 2.75,-2.59 3.05,-2.21 3.3,-1.81 3.5,-1.39 3.65,-0.94 3.74,-0.47 3.76,0 3.74,0.47 3.65,0.94 3.5,1.39 3.3,1.81 3.05,2.21 2.75,2.59 2.4,2.9 2.02,3.18 1.6,3.41 1.17,3.58 0.7,3.7" /><path
             id="path15180"
             style="fill:none;stroke:#000000;stroke-opacity:1;stroke-width:5;stroke-linecap:butt;stroke-linejoin:miter;stroke-miterlimit:10;stroke-dasharray:none"
             d="m 3726,3254.57 -0.24,3.76 -0.7,3.7 -1.17,3.58 -1.6,3.41 -2.02,3.18 -2.4,2.91 -2.75,2.58 -3.05,2.21 -3.3,1.81 -3.5,1.39 -3.65,0.94 -3.74,0.47 -3.76,0 -3.74,-0.47 -3.65,-0.94 -3.5,-1.39 -3.3,-1.81 -3.05,-2.21 -2.75,-2.58 -2.4,-2.91 -2.02,-3.18 -1.6,-3.41 -1.17,-3.58 -0.7,-3.7 -0.24,-3.76 0.24,-3.76 0.7,-3.7 1.17,-3.58 1.6,-3.41 2.02,-3.18 2.4,-2.9 2.75,-2.59 3.05,-2.21 3.3,-1.81 3.5,-1.39 3.65,-0.94 3.74,-0.47 3.76,0 3.74,0.47 3.65,0.94 3.5,1.39 3.3,1.81 3.05,2.21 2.75,2.59 2.4,2.9 2.02,3.18 1.6,3.41 1.17,3.58 0.7,3.7 0.24,3.76 z" /><path
             id="path15182"
             style="fill:#0000ff;fill-opacity:1;fill-rule:nonzero;stroke:none"
             d="m 4222,3300 -0.24,3.76 -0.7,3.7 -1.17,3.58 -1.6,3.41 -2.02,3.18 -2.4,2.91 -2.75,2.58 -3.05,2.21 -3.3,1.81 -3.5,1.39 -3.65,0.94 -3.74,0.47 -3.76,0 -3.74,-0.47 -3.65,-0.94 -3.5,-1.39 -3.3,-1.81 -3.05,-2.21 -2.75,-2.58 -2.4,-2.91 -2.02,-3.18 -1.6,-3.41 -1.17,-3.58 -0.7,-3.7 -0.24,-3.76 0.24,-3.76 0.7,-3.7 1.17,-3.58 1.6,-3.41 2.02,-3.18 2.4,-2.91 2.75,-2.58 3.05,-2.21 3.3,-1.81 3.5,-1.39 3.65,-0.94 3.74,-0.47 3.76,0 3.74,0.47 3.65,0.94 3.5,1.39 3.3,1.81 3.05,2.21 2.75,2.58 2.4,2.91 2.02,3.18 1.6,3.41 1.17,3.58 0.7,3.7" /><path
             id="path15184"
             style="fill:none;stroke:#000000;stroke-opacity:1;stroke-width:5;stroke-linecap:butt;stroke-linejoin:miter;stroke-miterlimit:10;stroke-dasharray:none"
             d="m 4222,3300 -0.24,3.76 -0.7,3.7 -1.17,3.58 -1.6,3.41 -2.02,3.18 -2.4,2.91 -2.75,2.58 -3.05,2.21 -3.3,1.81 -3.5,1.39 -3.65,0.94 -3.74,0.47 -3.76,0 -3.74,-0.47 -3.65,-0.94 -3.5,-1.39 -3.3,-1.81 -3.05,-2.21 -2.75,-2.58 -2.4,-2.91 -2.02,-3.18 -1.6,-3.41 -1.17,-3.58 -0.7,-3.7 -0.24,-3.76 0.24,-3.76 0.7,-3.7 1.17,-3.58 1.6,-3.41 2.02,-3.18 2.4,-2.91 2.75,-2.58 3.05,-2.21 3.3,-1.81 3.5,-1.39 3.65,-0.94 3.74,-0.47 3.76,0 3.74,0.47 3.65,0.94 3.5,1.39 3.3,1.81 3.05,2.21 2.75,2.58 2.4,2.91 2.02,3.18 1.6,3.41 1.17,3.58 0.7,3.7 0.24,3.76 z" /><path
             id="path15186"
             style="fill:#0000ff;fill-opacity:1;fill-rule:nonzero;stroke:none"
             d="m 4718,3338.96 -0.24,3.76 -0.7,3.7 -1.17,3.58 -1.6,3.41 -2.02,3.18 -2.4,2.91 -2.75,2.57 -3.05,2.22 -3.3,1.82 -3.5,1.38 -3.65,0.94 -3.74,0.47 -3.76,0 -3.74,-0.47 -3.65,-0.94 -3.5,-1.38 -3.3,-1.82 -3.05,-2.22 -2.75,-2.57 -2.4,-2.91 -2.02,-3.18 -1.6,-3.41 -1.17,-3.58 -0.7,-3.7 -0.24,-3.76 0.24,-3.76 0.7,-3.7 1.17,-3.58 1.6,-3.41 2.02,-3.18 2.4,-2.91 2.75,-2.58 3.05,-2.21 3.3,-1.81 3.5,-1.39 3.65,-0.94 3.74,-0.47 3.76,0 3.74,0.47 3.65,0.94 3.5,1.39 3.3,1.81 3.05,2.21 2.75,2.58 2.4,2.91 2.02,3.18 1.6,3.41 1.17,3.58 0.7,3.7" /><path
             id="path15188"
             style="fill:none;stroke:#000000;stroke-opacity:1;stroke-width:5;stroke-linecap:butt;stroke-linejoin:miter;stroke-miterlimit:10;stroke-dasharray:none"
             d="m 4718,3338.96 -0.24,3.76 -0.7,3.7 -1.17,3.58 -1.6,3.41 -2.02,3.18 -2.4,2.91 -2.75,2.57 -3.05,2.22 -3.3,1.82 -3.5,1.38 -3.65,0.94 -3.74,0.47 -3.76,0 -3.74,-0.47 -3.65,-0.94 -3.5,-1.38 -3.3,-1.82 -3.05,-2.22 -2.75,-2.57 -2.4,-2.91 -2.02,-3.18 -1.6,-3.41 -1.17,-3.58 -0.7,-3.7 -0.24,-3.76 0.24,-3.76 0.7,-3.7 1.17,-3.58 1.6,-3.41 2.02,-3.18 2.4,-2.91 2.75,-2.58 3.05,-2.21 3.3,-1.81 3.5,-1.39 3.65,-0.94 3.74,-0.47 3.76,0 3.74,0.47 3.65,0.94 3.5,1.39 3.3,1.81 3.05,2.21 2.75,2.58 2.4,2.91 2.02,3.18 1.6,3.41 1.17,3.58 0.7,3.7 0.24,3.76 z" /><path
             id="path15190"
             style="fill:#0000ff;fill-opacity:1;fill-rule:nonzero;stroke:none"
             d="m 5214,3369.56 -0.24,3.76 -0.7,3.7 -1.17,3.59 -1.6,3.4 -2.02,3.19 -2.4,2.9 -2.75,2.58 -3.05,2.21 -3.3,1.81 -3.5,1.39 -3.65,0.94 -3.74,0.47 -3.76,0 -3.74,-0.47 -3.65,-0.94 -3.5,-1.39 -3.3,-1.81 -3.05,-2.21 -2.75,-2.58 -2.4,-2.9 -2.02,-3.19 -1.6,-3.4 -1.17,-3.59 -0.7,-3.7 -0.24,-3.76 0.24,-3.76 0.7,-3.7 1.17,-3.58 1.6,-3.41 2.02,-3.18 2.4,-2.91 2.75,-2.57 3.05,-2.22 3.3,-1.82 3.5,-1.38 3.65,-0.94 3.74,-0.47 3.76,0 3.74,0.47 3.65,0.94 3.5,1.38 3.3,1.82 3.05,2.22 2.75,2.57 2.4,2.91 2.02,3.18 1.6,3.41 1.17,3.58 0.7,3.7" /><path
             id="path15192"
             style="fill:none;stroke:#000000;stroke-opacity:1;stroke-width:5;stroke-linecap:butt;stroke-linejoin:miter;stroke-miterlimit:10;stroke-dasharray:none"
             d="m 5214,3369.56 -0.24,3.76 -0.7,3.7 -1.17,3.59 -1.6,3.4 -2.02,3.19 -2.4,2.9 -2.75,2.58 -3.05,2.21 -3.3,1.81 -3.5,1.39 -3.65,0.94 -3.74,0.47 -3.76,0 -3.74,-0.47 -3.65,-0.94 -3.5,-1.39 -3.3,-1.81 -3.05,-2.21 -2.75,-2.58 -2.4,-2.9 -2.02,-3.19 -1.6,-3.4 -1.17,-3.59 -0.7,-3.7 -0.24,-3.76 0.24,-3.76 0.7,-3.7 1.17,-3.58 1.6,-3.41 2.02,-3.18 2.4,-2.91 2.75,-2.57 3.05,-2.22 3.3,-1.82 3.5,-1.38 3.65,-0.94 3.74,-0.47 3.76,0 3.74,0.47 3.65,0.94 3.5,1.38 3.3,1.82 3.05,2.22 2.75,2.57 2.4,2.91 2.02,3.18 1.6,3.41 1.17,3.58 0.7,3.7 0.24,3.76 z" /><path
             id="path15194"
             style="fill:none;stroke:#008000;stroke-opacity:1;stroke-width:10;stroke-linecap:square;stroke-linejoin:miter;stroke-miterlimit:10;stroke-dasharray:none"
             d="m 720,1213.09 496,372.12 496,-26.73 496,-15.87 496,29.84 496,47.71 496,50.84 496,43.3 496,33.85 496,24.48" /><path
             id="path15196"
             style="fill:#008000;fill-opacity:1;fill-rule:nonzero;stroke:none"
             d="m 690,1183.09 60,0 0,60 -60,0 0,-60 z" /><path
             id="path15198"
             style="fill:none;stroke:#000000;stroke-opacity:1;stroke-width:5;stroke-linecap:butt;stroke-linejoin:miter;stroke-miterlimit:10;stroke-dasharray:none"
             d="m 690,1183.09 60,0 0,60 -60,0 0,-60 z" /><path
             id="path15200"
             style="fill:#008000;fill-opacity:1;fill-rule:nonzero;stroke:none"
             d="m 1186,1555.21 60,0 0,60 -60,0 0,-60 z" /><path
             id="path15202"
             style="fill:none;stroke:#000000;stroke-opacity:1;stroke-width:5;stroke-linecap:butt;stroke-linejoin:miter;stroke-miterlimit:10;stroke-dasharray:none"
             d="m 1186,1555.21 60,0 0,60 -60,0 0,-60 z" /><path
             id="path15204"
             style="fill:#008000;fill-opacity:1;fill-rule:nonzero;stroke:none"
             d="m 1682,1528.48 60,0 0,60 -60,0 0,-60 z" /><path
             id="path15206"
             style="fill:none;stroke:#000000;stroke-opacity:1;stroke-width:5;stroke-linecap:butt;stroke-linejoin:miter;stroke-miterlimit:10;stroke-dasharray:none"
             d="m 1682,1528.48 60,0 0,60 -60,0 0,-60 z" /><path
             id="path15208"
             style="fill:#008000;fill-opacity:1;fill-rule:nonzero;stroke:none"
             d="m 2178,1512.61 60,0 0,60 -60,0 0,-60 z" /><path
             id="path15210"
             style="fill:none;stroke:#000000;stroke-opacity:1;stroke-width:5;stroke-linecap:butt;stroke-linejoin:miter;stroke-miterlimit:10;stroke-dasharray:none"
             d="m 2178,1512.61 60,0 0,60 -60,0 0,-60 z" /><path
             id="path15212"
             style="fill:#008000;fill-opacity:1;fill-rule:nonzero;stroke:none"
             d="m 2674,1542.45 60,0 0,60 -60,0 0,-60 z" /><path
             id="path15214"
             style="fill:none;stroke:#000000;stroke-opacity:1;stroke-width:5;stroke-linecap:butt;stroke-linejoin:miter;stroke-miterlimit:10;stroke-dasharray:none"
             d="m 2674,1542.45 60,0 0,60 -60,0 0,-60 z" /><path
             id="path15216"
             style="fill:#008000;fill-opacity:1;fill-rule:nonzero;stroke:none"
             d="m 3170,1590.16 60,0 0,60 -60,0 0,-60 z" /><path
             id="path15218"
             style="fill:none;stroke:#000000;stroke-opacity:1;stroke-width:5;stroke-linecap:butt;stroke-linejoin:miter;stroke-miterlimit:10;stroke-dasharray:none"
             d="m 3170,1590.16 60,0 0,60 -60,0 0,-60 z" /><path
             id="path15220"
             style="fill:#008000;fill-opacity:1;fill-rule:nonzero;stroke:none"
             d="m 3666,1641 60,0 0,60 -60,0 0,-60 z" /><path
             id="path15222"
             style="fill:none;stroke:#000000;stroke-opacity:1;stroke-width:5;stroke-linecap:butt;stroke-linejoin:miter;stroke-miterlimit:10;stroke-dasharray:none"
             d="m 3666,1641 60,0 0,60 -60,0 0,-60 z" /><path
             id="path15224"
             style="fill:#008000;fill-opacity:1;fill-rule:nonzero;stroke:none"
             d="m 4162,1684.3 60,0 0,60 -60,0 0,-60 z" /><path
             id="path15226"
             style="fill:none;stroke:#000000;stroke-opacity:1;stroke-width:5;stroke-linecap:butt;stroke-linejoin:miter;stroke-miterlimit:10;stroke-dasharray:none"
             d="m 4162,1684.3 60,0 0,60 -60,0 0,-60 z" /><path
             id="path15228"
             style="fill:#008000;fill-opacity:1;fill-rule:nonzero;stroke:none"
             d="m 4658,1718.15 60,0 0,60 -60,0 0,-60 z" /><path
             id="path15230"
             style="fill:none;stroke:#000000;stroke-opacity:1;stroke-width:5;stroke-linecap:butt;stroke-linejoin:miter;stroke-miterlimit:10;stroke-dasharray:none"
             d="m 4658,1718.15 60,0 0,60 -60,0 0,-60 z" /><path
             id="path15232"
             style="fill:#008000;fill-opacity:1;fill-rule:nonzero;stroke:none"
             d="m 5154,1742.63 60,0 0,60 -60,0 0,-60 z" /><path
             id="path15234"
             style="fill:none;stroke:#000000;stroke-opacity:1;stroke-width:5;stroke-linecap:butt;stroke-linejoin:miter;stroke-miterlimit:10;stroke-dasharray:none"
             d="m 5154,1742.63 60,0 0,60 -60,0 0,-60 z" /></g></g><g
         transform="scale(10,10)"
         id="g15236"><text
   id="text15238"
   transform="matrix(1,0,0,-1,69.391,30.45)"><tspan
     id="tspan15240"
     y="0"
     x="0"
     style="font-size:12;font-weight:normal;writing-mode:lr;fill-rule:nonzero;fill-opacity:1;stroke:none;-inkscape-font-specification:Serif;font-variant:normal;font-family:Serif;fill:#000000">1</tspan></text>

</g><path
         id="path15242"
         style="fill:none;stroke:#000000;stroke-opacity:1;stroke-width:5;stroke-linecap:butt;stroke-linejoin:miter;stroke-miterlimit:10;stroke-dasharray:none"
         d="m 1211,432 0,40 0,-40 z" /><path
         id="path15244"
         style="fill:none;stroke:#000000;stroke-opacity:1;stroke-width:5;stroke-linecap:butt;stroke-linejoin:miter;stroke-miterlimit:10;stroke-dasharray:none"
         d="m 1211,3848 0,40 0,-40 z" /><g
         transform="scale(10,10)"
         id="g15246"><text
   id="text15248"
   transform="matrix(1,0,0,-1,118.819,30.2941)"><tspan
     id="tspan15250"
     y="0"
     x="0"
     style="font-size:12;font-weight:normal;writing-mode:lr;fill-rule:nonzero;fill-opacity:1;stroke:none;-inkscape-font-specification:Serif;font-variant:normal;font-family:Serif;fill:#000000">2</tspan></text>

</g><path
         id="path15252"
         style="fill:none;stroke:#000000;stroke-opacity:1;stroke-width:5;stroke-linecap:butt;stroke-linejoin:miter;stroke-miterlimit:10;stroke-dasharray:none"
         d="m 1707,432 0,40 0,-40 z" /><path
         id="path15254"
         style="fill:none;stroke:#000000;stroke-opacity:1;stroke-width:5;stroke-linecap:butt;stroke-linejoin:miter;stroke-miterlimit:10;stroke-dasharray:none"
         d="m 1707,3848 0,40 0,-40 z" /><g
         transform="scale(10,10)"
         id="g15256"><text
   id="text15258"
   transform="matrix(1,0,0,-1,168.325,30.2941)"><tspan
     id="tspan15260"
     y="0"
     x="0"
     style="font-size:12;font-weight:normal;writing-mode:lr;fill-rule:nonzero;fill-opacity:1;stroke:none;-inkscape-font-specification:Serif;font-variant:normal;font-family:Serif;fill:#000000">3</tspan></text>

</g><path
         id="path15262"
         style="fill:none;stroke:#000000;stroke-opacity:1;stroke-width:5;stroke-linecap:butt;stroke-linejoin:miter;stroke-miterlimit:10;stroke-dasharray:none"
         d="m 2203,432 0,40 0,-40 z" /><path
         id="path15264"
         style="fill:none;stroke:#000000;stroke-opacity:1;stroke-width:5;stroke-linecap:butt;stroke-linejoin:miter;stroke-miterlimit:10;stroke-dasharray:none"
         d="m 2203,3848 0,40 0,-40 z" /><g
         transform="scale(10,10)"
         id="g15266"><text
   id="text15268"
   transform="matrix(1,0,0,-1,217.612,30.45)"><tspan
     id="tspan15270"
     y="0"
     x="0"
     style="font-size:12;font-weight:normal;writing-mode:lr;fill-rule:nonzero;fill-opacity:1;stroke:none;-inkscape-font-specification:Serif;font-variant:normal;font-family:Serif;fill:#000000">4</tspan></text>

</g><path
         id="path15272"
         style="fill:none;stroke:#000000;stroke-opacity:1;stroke-width:5;stroke-linecap:butt;stroke-linejoin:miter;stroke-miterlimit:10;stroke-dasharray:none"
         d="m 2699,432 0,40 0,-40 z" /><path
         id="path15274"
         style="fill:none;stroke:#000000;stroke-opacity:1;stroke-width:5;stroke-linecap:butt;stroke-linejoin:miter;stroke-miterlimit:10;stroke-dasharray:none"
         d="m 2699,3848 0,40 0,-40 z" /><g
         transform="scale(10,10)"
         id="g15276"><text
   id="text15278"
   transform="matrix(1,0,0,-1,267.564,30.45)"><tspan
     id="tspan15280"
     y="0"
     x="0"
     style="font-size:12;font-weight:normal;writing-mode:lr;fill-rule:nonzero;fill-opacity:1;stroke:none;-inkscape-font-specification:Serif;font-variant:normal;font-family:Serif;fill:#000000">5</tspan></text>

</g><path
         id="path15282"
         style="fill:none;stroke:#000000;stroke-opacity:1;stroke-width:5;stroke-linecap:butt;stroke-linejoin:miter;stroke-miterlimit:10;stroke-dasharray:none"
         d="m 3195,432 0,40 0,-40 z" /><path
         id="path15284"
         style="fill:none;stroke:#000000;stroke-opacity:1;stroke-width:5;stroke-linecap:butt;stroke-linejoin:miter;stroke-miterlimit:10;stroke-dasharray:none"
         d="m 3195,3848 0,40 0,-40 z" /><g
         transform="scale(10,10)"
         id="g15286"><text
   id="text15288"
   transform="matrix(1,0,0,-1,316.984,30.2941)"><tspan
     id="tspan15290"
     y="0"
     x="0"
     style="font-size:12;font-weight:normal;writing-mode:lr;fill-rule:nonzero;fill-opacity:1;stroke:none;-inkscape-font-specification:Serif;font-variant:normal;font-family:Serif;fill:#000000">6</tspan></text>

</g><path
         id="path15292"
         style="fill:none;stroke:#000000;stroke-opacity:1;stroke-width:5;stroke-linecap:butt;stroke-linejoin:miter;stroke-miterlimit:10;stroke-dasharray:none"
         d="m 3691,432 0,40 0,-40 z" /><path
         id="path15294"
         style="fill:none;stroke:#000000;stroke-opacity:1;stroke-width:5;stroke-linecap:butt;stroke-linejoin:miter;stroke-miterlimit:10;stroke-dasharray:none"
         d="m 3691,3848 0,40 0,-40 z" /><g
         transform="scale(10,10)"
         id="g15296"><text
   id="text15298"
   transform="matrix(1,0,0,-1,366.787,30.45)"><tspan
     id="tspan15300"
     y="0"
     x="0"
     style="font-size:12;font-weight:normal;writing-mode:lr;fill-rule:nonzero;fill-opacity:1;stroke:none;-inkscape-font-specification:Serif;font-variant:normal;font-family:Serif;fill:#000000">7</tspan></text>

</g><path
         id="path15302"
         style="fill:none;stroke:#000000;stroke-opacity:1;stroke-width:5;stroke-linecap:butt;stroke-linejoin:miter;stroke-miterlimit:10;stroke-dasharray:none"
         d="m 4187,432 0,40 0,-40 z" /><path
         id="path15304"
         style="fill:none;stroke:#000000;stroke-opacity:1;stroke-width:5;stroke-linecap:butt;stroke-linejoin:miter;stroke-miterlimit:10;stroke-dasharray:none"
         d="m 4187,3848 0,40 0,-40 z" /><g
         transform="scale(10,10)"
         id="g15306"><text
   id="text15308"
   transform="matrix(1,0,0,-1,416.2,30.2941)"><tspan
     id="tspan15310"
     y="0"
     x="0"
     style="font-size:12;font-weight:normal;writing-mode:lr;fill-rule:nonzero;fill-opacity:1;stroke:none;-inkscape-font-specification:Serif;font-variant:normal;font-family:Serif;fill:#000000">8</tspan></text>

</g><path
         id="path15312"
         style="fill:none;stroke:#000000;stroke-opacity:1;stroke-width:5;stroke-linecap:butt;stroke-linejoin:miter;stroke-miterlimit:10;stroke-dasharray:none"
         d="m 4683,432 0,40 0,-40 z" /><path
         id="path15314"
         style="fill:none;stroke:#000000;stroke-opacity:1;stroke-width:5;stroke-linecap:butt;stroke-linejoin:miter;stroke-miterlimit:10;stroke-dasharray:none"
         d="m 4683,3848 0,40 0,-40 z" /><g
         transform="scale(10,10)"
         id="g15316"><text
   id="text15318"
   transform="matrix(1,0,0,-1,465.777,30.2941)"><tspan
     id="tspan15320"
     sodipodi:role="line"
     y="0"
     x="0 46.03716 53.66916"
     style="font-size:12;font-weight:normal;writing-mode:lr;fill-rule:nonzero;fill-opacity:1;stroke:none;-inkscape-font-specification:Serif;font-variant:normal;font-family:Serif;fill:#000000">910</tspan><tspan
     id="tspan15322"
     sodipodi:role="line"
     y="14.2973"
     x="-212.999 -204.623 -197.519 -190.919 -187.583 -180.203 -176.387 -167.411 -159.803 -148.115 -140.495 -133.115"
     style="font-size:12;font-weight:normal;writing-mode:lr;fill-rule:nonzero;fill-opacity:1;stroke:none;-inkscape-font-specification:Serif;font-variant:normal;font-family:Serif;fill:#000000">Cycle Number</tspan><tspan
     id="tspan15324"
     sodipodi:role="line"
     y="-8.5386"
     x="-430.246 -422.614 -418.798 -411.166 -403.534"
     style="font-size:12;font-weight:normal;writing-mode:lr;fill-rule:nonzero;fill-opacity:1;stroke:none;-inkscape-font-specification:Serif;font-variant:normal;font-family:Serif;fill:#000000">0.011</tspan></text>

</g><path
         id="path15326"
         style="fill:none;stroke:#000000;stroke-opacity:1;stroke-width:5;stroke-linecap:butt;stroke-linejoin:miter;stroke-miterlimit:10;stroke-dasharray:none"
         d="m 720,1013 40,0 -40,0 z" /><path
         id="path15328"
         style="fill:none;stroke:#000000;stroke-opacity:1;stroke-width:5;stroke-linecap:butt;stroke-linejoin:miter;stroke-miterlimit:10;stroke-dasharray:none"
         d="m 5144,1013 40,0 -40,0 z" /><g
         transform="scale(10,10)"
         id="g15330"><text
   id="text15332"
   transform="matrix(1,0,0,-1,35.625,96.4328)"><tspan
     id="tspan15334"
     sodipodi:role="line"
     y="0"
     x="0 7.632 11.448 19.08 26.712"
     style="font-size:12;font-weight:normal;writing-mode:lr;fill-rule:nonzero;fill-opacity:1;stroke:none;-inkscape-font-specification:Serif;font-variant:normal;font-family:Serif;fill:#000000">0.012</tspan></text>

</g><path
         id="path15336"
         style="fill:none;stroke:#000000;stroke-opacity:1;stroke-width:5;stroke-linecap:butt;stroke-linejoin:miter;stroke-miterlimit:10;stroke-dasharray:none"
         d="m 720,1589 40,0 -40,0 z" /><path
         id="path15338"
         style="fill:none;stroke:#000000;stroke-opacity:1;stroke-width:5;stroke-linecap:butt;stroke-linejoin:miter;stroke-miterlimit:10;stroke-dasharray:none"
         d="m 5144,1589 40,0 -40,0 z" /><g
         transform="scale(10,10)"
         id="g15340"><text
   id="text15342"
   transform="matrix(1,0,0,-1,35.391,154.033)"><tspan
     id="tspan15344"
     sodipodi:role="line"
     y="0"
     x="0 7.632 11.448 19.08 26.712"
     style="font-size:12;font-weight:normal;writing-mode:lr;fill-rule:nonzero;fill-opacity:1;stroke:none;-inkscape-font-specification:Serif;font-variant:normal;font-family:Serif;fill:#000000">0.013</tspan></text>

</g><path
         id="path15346"
         style="fill:none;stroke:#000000;stroke-opacity:1;stroke-width:5;stroke-linecap:butt;stroke-linejoin:miter;stroke-miterlimit:10;stroke-dasharray:none"
         d="m 720,2165 40,0 -40,0 z" /><path
         id="path15348"
         style="fill:none;stroke:#000000;stroke-opacity:1;stroke-width:5;stroke-linecap:butt;stroke-linejoin:miter;stroke-miterlimit:10;stroke-dasharray:none"
         d="m 5144,2165 40,0 -40,0 z" /><g
         transform="scale(10,10)"
         id="g15350"><text
   id="text15352"
   transform="matrix(1,0,0,-1,35.0941,211.633)"><tspan
     id="tspan15354"
     sodipodi:role="line"
     y="0"
     x="0 7.632 11.448 19.08 26.712"
     style="font-size:12;font-weight:normal;writing-mode:lr;fill-rule:nonzero;fill-opacity:1;stroke:none;-inkscape-font-specification:Serif;font-variant:normal;font-family:Serif;fill:#000000">0.014</tspan></text>

</g><path
         id="path15356"
         style="fill:none;stroke:#000000;stroke-opacity:1;stroke-width:5;stroke-linecap:butt;stroke-linejoin:miter;stroke-miterlimit:10;stroke-dasharray:none"
         d="m 720,2741 40,0 -40,0 z" /><path
         id="path15358"
         style="fill:none;stroke:#000000;stroke-opacity:1;stroke-width:5;stroke-linecap:butt;stroke-linejoin:miter;stroke-miterlimit:10;stroke-dasharray:none"
         d="m 5144,2741 40,0 -40,0 z" /><g
         transform="scale(10,10)"
         id="g15360"><text
   id="text15362"
   transform="matrix(1,0,0,-1,35.4691,269.233)"><tspan
     id="tspan15364"
     sodipodi:role="line"
     y="0"
     x="0 7.632 11.448 19.08 26.712"
     style="font-size:12;font-weight:normal;writing-mode:lr;fill-rule:nonzero;fill-opacity:1;stroke:none;-inkscape-font-specification:Serif;font-variant:normal;font-family:Serif;fill:#000000">0.015</tspan></text>

</g><path
         id="path15366"
         style="fill:none;stroke:#000000;stroke-opacity:1;stroke-width:5;stroke-linecap:butt;stroke-linejoin:miter;stroke-miterlimit:10;stroke-dasharray:none"
         d="m 720,3317 40,0 -40,0 z" /><path
         id="path15368"
         style="fill:none;stroke:#000000;stroke-opacity:1;stroke-width:5;stroke-linecap:butt;stroke-linejoin:miter;stroke-miterlimit:10;stroke-dasharray:none"
         d="m 5144,3317 40,0 -40,0 z" /><g
         transform="scale(10,10)"
         id="g15370"><text
   id="text15372"
   transform="matrix(1,0,0,-1,35.1879,326.833)"><tspan
     id="tspan15374"
     sodipodi:role="line"
     y="0"
     x="0 7.632 11.448 19.08 26.712"
     style="font-size:12;font-weight:normal;writing-mode:lr;fill-rule:nonzero;fill-opacity:1;stroke:none;-inkscape-font-specification:Serif;font-variant:normal;font-family:Serif;fill:#000000">0.016</tspan><tspan
     id="tspan15376"
     sodipodi:role="line"
     y="-57.5996"
     x="0.265234 7.897234 11.713234 19.345234 26.977234"
     style="font-size:12;font-weight:normal;writing-mode:lr;fill-rule:nonzero;fill-opacity:1;stroke:none;-inkscape-font-specification:Serif;font-variant:normal;font-family:Serif;fill:#000000">0.017</tspan></text>

<text
   id="text15378"
   transform="matrix(0,1,1,0,27.5941,187.523)"><tspan
     id="tspan15380"
     sodipodi:role="line"
     y="0"
     x="0 10.356 17.712 23.964 30.216 34.032 38.712 45.66 53.28"
     style="font-size:12;font-weight:normal;writing-mode:lr;fill-rule:nonzero;fill-opacity:1;stroke:none;-inkscape-font-specification:Serif;font-variant:normal;font-family:Serif;fill:#000000">Mass [kg]</tspan></text>

</g><path
         id="path15382"
         style="fill:none;stroke:#000000;stroke-opacity:1;stroke-width:10;stroke-linecap:square;stroke-linejoin:miter;stroke-miterlimit:10;stroke-dasharray:none"
         d="m 720,432 4464,0 0,3456 -4464,0 0,-3456" /><path
         id="path15384"
         style="fill:#ffffff;fill-opacity:1;fill-rule:nonzero;stroke:none"
         d="m 2075.99,501.121 3018.73,0 0,848.32 -3018.73,0 0,-848.32 z" /><path
         id="path15386"
         style="fill:none;stroke:#000000;stroke-opacity:1;stroke-width:10;stroke-linecap:square;stroke-linejoin:miter;stroke-miterlimit:10;stroke-dasharray:none"
         d="m 2075.99,501.121 3018.73,0 0,848.32 -3018.73,0 0,-848.32 z" /><path
         id="path15388"
         style="fill:none;stroke:#000000;stroke-opacity:1;stroke-width:10;stroke-linecap:square;stroke-linejoin:miter;stroke-miterlimit:10;stroke-dasharray:none"
         d="m 2357.55,1211.01 223.2,0" /><path
         id="path15390"
         style="fill:none;stroke:#ff0000;stroke-opacity:1;stroke-width:10;stroke-linecap:butt;stroke-linejoin:miter;stroke-miterlimit:10;stroke-dasharray:60,60;stroke-dashoffset:0"
         d="m 2357.55,1020.52 223.2,0" /><path
         id="path15392"
         style="fill:none;stroke:#0000ff;stroke-opacity:1;stroke-width:10;stroke-linecap:square;stroke-linejoin:miter;stroke-miterlimit:10;stroke-dasharray:none"
         d="m 2357.55,830.035 223.2,0" /><path
         id="path15394"
         style="fill:#0000ff;fill-opacity:1;fill-rule:nonzero;stroke:none"
         d="m 2387.55,830.035 -0.24,3.762 -0.7,3.699 -1.16,3.582 -1.61,3.41 -2.02,3.18 -2.4,2.902 -2.75,2.582 -3.05,2.211 -3.3,1.817 -3.5,1.386 -3.65,0.938 -3.74,0.473 -3.76,0 -3.74,-0.473 -3.65,-0.938 -3.5,-1.386 -3.3,-1.817 -3.05,-2.211 -2.75,-2.582 -2.4,-2.902 -2.02,-3.18 -1.6,-3.41 -1.17,-3.582 -0.7,-3.699 -0.24,-3.762 0.24,-3.762 0.7,-3.699 1.17,-3.582 1.6,-3.41 2.02,-3.18 2.4,-2.902 2.75,-2.582 3.05,-2.211 3.3,-1.816 3.5,-1.387 3.65,-0.938 3.74,-0.472 3.76,0 3.74,0.472 3.65,0.938 3.5,1.387 3.3,1.816 3.05,2.211 2.75,2.582 2.4,2.902 2.02,3.18 1.61,3.41 1.16,3.582 0.7,3.699" /><path
         id="path15396"
         style="fill:none;stroke:#000000;stroke-opacity:1;stroke-width:5;stroke-linecap:butt;stroke-linejoin:miter;stroke-miterlimit:10;stroke-dasharray:none"
         d="m 2387.55,830.035 -0.24,3.762 -0.7,3.699 -1.16,3.582 -1.61,3.41 -2.02,3.18 -2.4,2.902 -2.75,2.582 -3.05,2.211 -3.3,1.817 -3.5,1.386 -3.65,0.938 -3.74,0.473 -3.76,0 -3.74,-0.473 -3.65,-0.938 -3.5,-1.386 -3.3,-1.817 -3.05,-2.211 -2.75,-2.582 -2.4,-2.902 -2.02,-3.18 -1.6,-3.41 -1.17,-3.582 -0.7,-3.699 -0.24,-3.762 0.24,-3.762 0.7,-3.699 1.17,-3.582 1.6,-3.41 2.02,-3.18 2.4,-2.902 2.75,-2.582 3.05,-2.211 3.3,-1.816 3.5,-1.387 3.65,-0.938 3.74,-0.472 3.76,0 3.74,0.472 3.65,0.938 3.5,1.387 3.3,1.816 3.05,2.211 2.75,2.582 2.4,2.902 2.02,3.18 1.61,3.41 1.16,3.582 0.7,3.699 0.24,3.762 z" /><path
         id="path15398"
         style="fill:#0000ff;fill-opacity:1;fill-rule:nonzero;stroke:none"
         d="m 2610.75,830.035 -0.24,3.762 -0.7,3.699 -1.17,3.582 -1.6,3.41 -2.02,3.18 -2.4,2.902 -2.75,2.582 -3.05,2.211 -3.3,1.817 -3.5,1.386 -3.65,0.938 -3.74,0.473 -3.76,0 -3.74,-0.473 -3.65,-0.938 -3.5,-1.386 -3.3,-1.817 -3.05,-2.211 -2.75,-2.582 -2.4,-2.902 -2.02,-3.18 -1.6,-3.41 -1.17,-3.582 -0.7,-3.699 -0.24,-3.762 0.24,-3.762 0.7,-3.699 1.17,-3.582 1.6,-3.41 2.02,-3.18 2.4,-2.902 2.75,-2.582 3.05,-2.211 3.3,-1.816 3.5,-1.387 3.65,-0.938 3.74,-0.472 3.76,0 3.74,0.472 3.65,0.938 3.5,1.387 3.3,1.816 3.05,2.211 2.75,2.582 2.4,2.902 2.02,3.18 1.6,3.41 1.17,3.582 0.7,3.699" /><path
         id="path15400"
         style="fill:none;stroke:#000000;stroke-opacity:1;stroke-width:5;stroke-linecap:butt;stroke-linejoin:miter;stroke-miterlimit:10;stroke-dasharray:none"
         d="m 2610.75,830.035 -0.24,3.762 -0.7,3.699 -1.17,3.582 -1.6,3.41 -2.02,3.18 -2.4,2.902 -2.75,2.582 -3.05,2.211 -3.3,1.817 -3.5,1.386 -3.65,0.938 -3.74,0.473 -3.76,0 -3.74,-0.473 -3.65,-0.938 -3.5,-1.386 -3.3,-1.817 -3.05,-2.211 -2.75,-2.582 -2.4,-2.902 -2.02,-3.18 -1.6,-3.41 -1.17,-3.582 -0.7,-3.699 -0.24,-3.762 0.24,-3.762 0.7,-3.699 1.17,-3.582 1.6,-3.41 2.02,-3.18 2.4,-2.902 2.75,-2.582 3.05,-2.211 3.3,-1.816 3.5,-1.387 3.65,-0.938 3.74,-0.472 3.76,0 3.74,0.472 3.65,0.938 3.5,1.387 3.3,1.816 3.05,2.211 2.75,2.582 2.4,2.902 2.02,3.18 1.6,3.41 1.17,3.582 0.7,3.699 0.24,3.762 z" /><path
         id="path15402"
         style="fill:none;stroke:#008000;stroke-opacity:1;stroke-width:10;stroke-linecap:square;stroke-linejoin:miter;stroke-miterlimit:10;stroke-dasharray:none"
         d="m 2357.55,639.547 223.2,0" /><path
         id="path15404"
         style="fill:#008000;fill-opacity:1;fill-rule:nonzero;stroke:none"
         d="m 2327.55,609.547 60,0 0,60 -60,0 0,-60 z" /><path
         id="path15406"
         style="fill:none;stroke:#000000;stroke-opacity:1;stroke-width:5;stroke-linecap:butt;stroke-linejoin:miter;stroke-miterlimit:10;stroke-dasharray:none"
         d="m 2327.55,609.547 60,0 0,60 -60,0 0,-60 z" /><path
         id="path15408"
         style="fill:#008000;fill-opacity:1;fill-rule:nonzero;stroke:none"
         d="m 2550.75,609.547 60,0 0,60 -60,0 0,-60 z" /><path
         id="path15410"
         style="fill:none;stroke:#000000;stroke-opacity:1;stroke-width:5;stroke-linecap:butt;stroke-linejoin:miter;stroke-miterlimit:10;stroke-dasharray:none"
         d="m 2550.75,609.547 60,0 0,60 -60,0 0,-60 z" /><g
         transform="scale(10,10)"
         id="g15412"><text
   id="text15414"
   transform="matrix(1,0,0,-1,267.003,117.234)"><tspan
     id="tspan15416"
     sodipodi:role="line"
     y="0"
     x="0 9.576 21.658 30.562 39.466 48.37 52.822 56.952 65.828 74.718 83.594 89.082 93.534 105.616 114.198 121.492 128.786 133.238 138.166 146.734 152.488 156.94 165.844 170.296"
     style="font-size:14;font-weight:normal;writing-mode:lr;fill-rule:nonzero;fill-opacity:1;stroke:none;-inkscape-font-specification:Serif;font-variant:normal;font-family:Serif;fill:#000000">AM241 Input Mass for 0.9</tspan><tspan
     id="tspan15418"
     sodipodi:role="line"
     y="19.0488"
     x="0 9.576 21.658 30.562 39.466 48.37 52.822 63.84 72.716 78.204 87.094 95.97 101.458 105.91 117.992 126.574 133.868 141.162 145.614 150.542 159.11 164.864 169.316 178.22 182.672"
     style="font-size:14;font-weight:normal;writing-mode:lr;fill-rule:nonzero;fill-opacity:1;stroke:none;-inkscape-font-specification:Serif;font-variant:normal;font-family:Serif;fill:#000000">AM241 Output Mass for 0.9</tspan><tspan
     id="tspan15420"
     sodipodi:role="line"
     y="38.0976"
     x="0 9.576 21.658 30.562 39.466 48.37 52.822 56.952 65.828 74.718 83.594 89.082 93.534 105.616 114.198 121.492 128.786 133.238 138.166 146.734 152.488 156.94 165.844 170.296 179.2 188.104 197.008"
     style="font-size:14;font-weight:normal;writing-mode:lr;fill-rule:nonzero;fill-opacity:1;stroke:none;-inkscape-font-specification:Serif;font-variant:normal;font-family:Serif;fill:#000000">AM241 Input Mass for 0.9999</tspan><tspan
     id="tspan15422"
     sodipodi:role="line"
     y="57.1464"
     x="0 9.576 21.658 30.562 39.466 48.37 52.822 63.84 72.716 78.204 87.094 95.97 101.458 105.91 117.992 126.574 133.868 141.162 145.614 150.542 159.11 164.864 169.316 178.22 182.672 191.576 200.48 209.384"
     style="font-size:14;font-weight:normal;writing-mode:lr;fill-rule:nonzero;fill-opacity:1;stroke:none;-inkscape-font-specification:Serif;font-variant:normal;font-family:Serif;fill:#000000">AM241 Output Mass for 0.9999</tspan></text>

</g></g></g></svg>