<?xml version="1.0" encoding="UTF-8" standalone="no"?>
<!-- Created with Inkscape (http://www.inkscape.org/) -->

<svg
   xmlns:dc="http://purl.org/dc/elements/1.1/"
   xmlns:cc="http://creativecommons.org/ns#"
   xmlns:rdf="http://www.w3.org/1999/02/22-rdf-syntax-ns#"
   xmlns:svg="http://www.w3.org/2000/svg"
   xmlns="http://www.w3.org/2000/svg"
   xmlns:sodipodi="http://sodipodi.sourceforge.net/DTD/sodipodi-0.dtd"
   xmlns:inkscape="http://www.inkscape.org/namespaces/inkscape"
   id="svg15764"
   version="1.1"
   inkscape:version="0.48.2 r9819"
   width="720"
   height="540"
   xml:space="preserve"
   sodipodi:docname="cm244io_se.eps"><sodipodi:namedview
     pagecolor="#ffffff"
     bordercolor="#666666"
     borderopacity="1"
     objecttolerance="10"
     gridtolerance="10"
     guidetolerance="10"
     inkscape:pageopacity="0"
     inkscape:pageshadow="2"
     inkscape:window-width="1438"
     inkscape:window-height="868"
     id="namedview15766"
     showgrid="false"
     inkscape:zoom="0.43703704"
     inkscape:cx="360"
     inkscape:cy="270"
     inkscape:window-x="0"
     inkscape:window-y="30"
     inkscape:window-maximized="0"
     inkscape:current-layer="g15772" /><metadata
     id="metadata15770"><rdf:RDF><cc:Work
         rdf:about=""><dc:format>image/svg+xml</dc:format><dc:type
           rdf:resource="http://purl.org/dc/dcmitype/StillImage" /><dc:title></dc:title></cc:Work></rdf:RDF></metadata><defs
     id="defs15768"><clipPath
       id="clipPath15788"
       clipPathUnits="userSpaceOnUse"><path
         id="path15790"
         d="m 720,432 4464,0 0,3456 -4464,0 0,-3456 z" /></clipPath></defs><g
     transform="matrix(1.25,0,0,-1.25,0,540)"
     inkscape:label="ink_ext_XXXXXX"
     inkscape:groupmode="layer"
     id="g15772"><g
       transform="scale(0.1,0.1)"
       id="g15774"><path
         id="path15776"
         style="fill:#ffffff;fill-opacity:1;fill-rule:nonzero;stroke:none"
         d="m 0,0 5760,0 0,4320 L 0,4320 0,0 z" /><path
         id="path15778"
         style="fill:none;stroke:#ffffff;stroke-opacity:1;stroke-width:10;stroke-linecap:square;stroke-linejoin:miter;stroke-miterlimit:10;stroke-dasharray:none"
         d="m 0,0 5760,0 0,4320 L 0,4320 0,0 z" /><path
         id="path15780"
         style="fill:#ffffff;fill-opacity:1;fill-rule:nonzero;stroke:none"
         d="m 720,432 4464,0 0,3456 -4464,0 0,-3456 z" /><path
         id="path15782"
         style="fill:none;stroke:#000000;stroke-opacity:1;stroke-width:10;stroke-linecap:square;stroke-linejoin:miter;stroke-miterlimit:10;stroke-dasharray:none"
         d="m 720,432 4464,0 0,3456 -4464,0 0,-3456 z" /><g
         id="g15784"><g
           clip-path="url(#clipPath15788)"
           id="g15786"><path
             id="path15792"
             style="fill:none;stroke:#000000;stroke-opacity:1;stroke-width:10;stroke-linecap:square;stroke-linejoin:miter;stroke-miterlimit:10;stroke-dasharray:none"
             d="m 720,665.926 496,684.134 496,497.76 496,358.17 496,251.85 496,174.01 496,119.01 496,81.15 992,0" /><path
             id="path15794"
             style="fill:none;stroke:#ff0000;stroke-opacity:1;stroke-width:10;stroke-linecap:butt;stroke-linejoin:miter;stroke-miterlimit:10;stroke-dasharray:60,60;stroke-dashoffset:0"
             d="m 720,990.25 496,589.35 496,408.75 496,283.59 496,195.07 496,133.32 496,90.8 496,62.11 992,0" /><path
             id="path15796"
             style="fill:none;stroke:#0000ff;stroke-opacity:1;stroke-width:10;stroke-linecap:square;stroke-linejoin:miter;stroke-miterlimit:10;stroke-dasharray:none"
             d="m 720,665.926 496,760.064 496,614.42 496,491.29 496,383.4 496,293.84 496,223.71 496,169.39 496,128.4 496,97.55" /><path
             id="path15798"
             style="fill:#0000ff;fill-opacity:1;fill-rule:nonzero;stroke:none"
             d="m 750,665.926 -0.238,3.762 -0.703,3.699 -1.164,3.586 -1.606,3.406 -2.019,3.183 -2.403,2.903 -2.746,2.578 -3.047,2.215 -3.301,1.812 -3.503,1.387 -3.649,0.938 -3.738,0.472 -3.766,0 -3.738,-0.472 -3.649,-0.938 -3.503,-1.387 -3.301,-1.812 -3.047,-2.215 -2.746,-2.578 -2.403,-2.903 -2.019,-3.183 -1.606,-3.406 -1.164,-3.586 -0.703,-3.699 -0.238,-3.762 0.238,-3.758 0.703,-3.703 1.164,-3.582 1.606,-3.41 2.019,-3.18 2.403,-2.902 2.746,-2.579 3.047,-2.214 3.301,-1.817 3.503,-1.386 3.649,-0.938 3.738,-0.473 3.766,0 3.738,0.473 3.649,0.938 3.503,1.386 3.301,1.817 3.047,2.214 2.746,2.579 2.403,2.902 2.019,3.18 1.606,3.41 1.164,3.582 0.703,3.703" /><path
             id="path15800"
             style="fill:none;stroke:#000000;stroke-opacity:1;stroke-width:5;stroke-linecap:butt;stroke-linejoin:miter;stroke-miterlimit:10;stroke-dasharray:none"
             d="m 750,665.926 -0.238,3.762 -0.703,3.699 -1.164,3.586 -1.606,3.406 -2.019,3.183 -2.403,2.903 -2.746,2.578 -3.047,2.215 -3.301,1.812 -3.503,1.387 -3.649,0.938 -3.738,0.472 -3.766,0 -3.738,-0.472 -3.649,-0.938 -3.503,-1.387 -3.301,-1.812 -3.047,-2.215 -2.746,-2.578 -2.403,-2.903 -2.019,-3.183 -1.606,-3.406 -1.164,-3.586 -0.703,-3.699 -0.238,-3.762 0.238,-3.758 0.703,-3.703 1.164,-3.582 1.606,-3.41 2.019,-3.18 2.403,-2.902 2.746,-2.579 3.047,-2.214 3.301,-1.817 3.503,-1.386 3.649,-0.938 3.738,-0.473 3.766,0 3.738,0.473 3.649,0.938 3.503,1.386 3.301,1.817 3.047,2.214 2.746,2.579 2.403,2.902 2.019,3.18 1.606,3.41 1.164,3.582 0.703,3.703 0.238,3.758 z" /><path
             id="path15802"
             style="fill:#0000ff;fill-opacity:1;fill-rule:nonzero;stroke:none"
             d="m 1246,1425.99 -0.24,3.76 -0.7,3.7 -1.17,3.59 -1.6,3.4 -2.02,3.18 -2.4,2.91 -2.75,2.58 -3.05,2.21 -3.3,1.82 -3.5,1.38 -3.65,0.94 -3.74,0.47 -3.76,0 -3.74,-0.47 -3.65,-0.94 -3.5,-1.38 -3.3,-1.82 -3.05,-2.21 -2.75,-2.58 -2.4,-2.91 -2.02,-3.18 -1.6,-3.4 -1.17,-3.59 -0.7,-3.7 -0.24,-3.76 0.24,-3.76 0.7,-3.7 1.17,-3.58 1.6,-3.41 2.02,-3.18 2.4,-2.91 2.75,-2.57 3.05,-2.22 3.3,-1.82 3.5,-1.38 3.65,-0.94 3.74,-0.47 3.76,0 3.74,0.47 3.65,0.94 3.5,1.38 3.3,1.82 3.05,2.22 2.75,2.57 2.4,2.91 2.02,3.18 1.6,3.41 1.17,3.58 0.7,3.7" /><path
             id="path15804"
             style="fill:none;stroke:#000000;stroke-opacity:1;stroke-width:5;stroke-linecap:butt;stroke-linejoin:miter;stroke-miterlimit:10;stroke-dasharray:none"
             d="m 1246,1425.99 -0.24,3.76 -0.7,3.7 -1.17,3.59 -1.6,3.4 -2.02,3.18 -2.4,2.91 -2.75,2.58 -3.05,2.21 -3.3,1.82 -3.5,1.38 -3.65,0.94 -3.74,0.47 -3.76,0 -3.74,-0.47 -3.65,-0.94 -3.5,-1.38 -3.3,-1.82 -3.05,-2.21 -2.75,-2.58 -2.4,-2.91 -2.02,-3.18 -1.6,-3.4 -1.17,-3.59 -0.7,-3.7 -0.24,-3.76 0.24,-3.76 0.7,-3.7 1.17,-3.58 1.6,-3.41 2.02,-3.18 2.4,-2.91 2.75,-2.57 3.05,-2.22 3.3,-1.82 3.5,-1.38 3.65,-0.94 3.74,-0.47 3.76,0 3.74,0.47 3.65,0.94 3.5,1.38 3.3,1.82 3.05,2.22 2.75,2.57 2.4,2.91 2.02,3.18 1.6,3.41 1.17,3.58 0.7,3.7 0.24,3.76 z" /><path
             id="path15806"
             style="fill:#0000ff;fill-opacity:1;fill-rule:nonzero;stroke:none"
             d="m 1742,2040.41 -0.24,3.76 -0.7,3.7 -1.17,3.58 -1.6,3.41 -2.02,3.18 -2.4,2.91 -2.75,2.58 -3.05,2.21 -3.3,1.81 -3.5,1.39 -3.65,0.94 -3.74,0.47 -3.76,0 -3.74,-0.47 -3.65,-0.94 -3.5,-1.39 -3.3,-1.81 -3.05,-2.21 -2.75,-2.58 -2.4,-2.91 -2.02,-3.18 -1.6,-3.41 -1.17,-3.58 -0.7,-3.7 -0.24,-3.76 0.24,-3.76 0.7,-3.7 1.17,-3.58 1.6,-3.41 2.02,-3.18 2.4,-2.9 2.75,-2.59 3.05,-2.21 3.3,-1.81 3.5,-1.39 3.65,-0.94 3.74,-0.47 3.76,0 3.74,0.47 3.65,0.94 3.5,1.39 3.3,1.81 3.05,2.21 2.75,2.59 2.4,2.9 2.02,3.18 1.6,3.41 1.17,3.58 0.7,3.7" /><path
             id="path15808"
             style="fill:none;stroke:#000000;stroke-opacity:1;stroke-width:5;stroke-linecap:butt;stroke-linejoin:miter;stroke-miterlimit:10;stroke-dasharray:none"
             d="m 1742,2040.41 -0.24,3.76 -0.7,3.7 -1.17,3.58 -1.6,3.41 -2.02,3.18 -2.4,2.91 -2.75,2.58 -3.05,2.21 -3.3,1.81 -3.5,1.39 -3.65,0.94 -3.74,0.47 -3.76,0 -3.74,-0.47 -3.65,-0.94 -3.5,-1.39 -3.3,-1.81 -3.05,-2.21 -2.75,-2.58 -2.4,-2.91 -2.02,-3.18 -1.6,-3.41 -1.17,-3.58 -0.7,-3.7 -0.24,-3.76 0.24,-3.76 0.7,-3.7 1.17,-3.58 1.6,-3.41 2.02,-3.18 2.4,-2.9 2.75,-2.59 3.05,-2.21 3.3,-1.81 3.5,-1.39 3.65,-0.94 3.74,-0.47 3.76,0 3.74,0.47 3.65,0.94 3.5,1.39 3.3,1.81 3.05,2.21 2.75,2.59 2.4,2.9 2.02,3.18 1.6,3.41 1.17,3.58 0.7,3.7 0.24,3.76 z" /><path
             id="path15810"
             style="fill:#0000ff;fill-opacity:1;fill-rule:nonzero;stroke:none"
             d="m 2238,2531.7 -0.24,3.76 -0.7,3.7 -1.17,3.58 -1.6,3.41 -2.02,3.18 -2.4,2.91 -2.75,2.58 -3.05,2.21 -3.3,1.81 -3.5,1.39 -3.65,0.94 -3.74,0.47 -3.76,0 -3.74,-0.47 -3.65,-0.94 -3.5,-1.39 -3.3,-1.81 -3.05,-2.21 -2.75,-2.58 -2.4,-2.91 -2.02,-3.18 -1.6,-3.41 -1.17,-3.58 -0.7,-3.7 -0.24,-3.76 0.24,-3.76 0.7,-3.7 1.17,-3.58 1.6,-3.41 2.02,-3.18 2.4,-2.91 2.75,-2.57 3.05,-2.22 3.3,-1.82 3.5,-1.38 3.65,-0.94 3.74,-0.47 3.76,0 3.74,0.47 3.65,0.94 3.5,1.38 3.3,1.82 3.05,2.22 2.75,2.57 2.4,2.91 2.02,3.18 1.6,3.41 1.17,3.58 0.7,3.7" /><path
             id="path15812"
             style="fill:none;stroke:#000000;stroke-opacity:1;stroke-width:5;stroke-linecap:butt;stroke-linejoin:miter;stroke-miterlimit:10;stroke-dasharray:none"
             d="m 2238,2531.7 -0.24,3.76 -0.7,3.7 -1.17,3.58 -1.6,3.41 -2.02,3.18 -2.4,2.91 -2.75,2.58 -3.05,2.21 -3.3,1.81 -3.5,1.39 -3.65,0.94 -3.74,0.47 -3.76,0 -3.74,-0.47 -3.65,-0.94 -3.5,-1.39 -3.3,-1.81 -3.05,-2.21 -2.75,-2.58 -2.4,-2.91 -2.02,-3.18 -1.6,-3.41 -1.17,-3.58 -0.7,-3.7 -0.24,-3.76 0.24,-3.76 0.7,-3.7 1.17,-3.58 1.6,-3.41 2.02,-3.18 2.4,-2.91 2.75,-2.57 3.05,-2.22 3.3,-1.82 3.5,-1.38 3.65,-0.94 3.74,-0.47 3.76,0 3.74,0.47 3.65,0.94 3.5,1.38 3.3,1.82 3.05,2.22 2.75,2.57 2.4,2.91 2.02,3.18 1.6,3.41 1.17,3.58 0.7,3.7 0.24,3.76 z" /><path
             id="path15814"
             style="fill:#0000ff;fill-opacity:1;fill-rule:nonzero;stroke:none"
             d="m 2734,2915.1 -0.24,3.76 -0.7,3.7 -1.17,3.58 -1.6,3.41 -2.02,3.18 -2.4,2.91 -2.75,2.57 -3.05,2.22 -3.3,1.82 -3.5,1.38 -3.65,0.94 -3.74,0.47 -3.76,0 -3.74,-0.47 -3.65,-0.94 -3.5,-1.38 -3.3,-1.82 -3.05,-2.22 -2.75,-2.57 -2.4,-2.91 -2.02,-3.18 -1.6,-3.41 -1.17,-3.58 -0.7,-3.7 -0.24,-3.76 0.24,-3.76 0.7,-3.7 1.17,-3.59 1.6,-3.4 2.02,-3.19 2.4,-2.9 2.75,-2.58 3.05,-2.21 3.3,-1.81 3.5,-1.39 3.65,-0.94 3.74,-0.47 3.76,0 3.74,0.47 3.65,0.94 3.5,1.39 3.3,1.81 3.05,2.21 2.75,2.58 2.4,2.9 2.02,3.19 1.6,3.4 1.17,3.59 0.7,3.7" /><path
             id="path15816"
             style="fill:none;stroke:#000000;stroke-opacity:1;stroke-width:5;stroke-linecap:butt;stroke-linejoin:miter;stroke-miterlimit:10;stroke-dasharray:none"
             d="m 2734,2915.1 -0.24,3.76 -0.7,3.7 -1.17,3.58 -1.6,3.41 -2.02,3.18 -2.4,2.91 -2.75,2.57 -3.05,2.22 -3.3,1.82 -3.5,1.38 -3.65,0.94 -3.74,0.47 -3.76,0 -3.74,-0.47 -3.65,-0.94 -3.5,-1.38 -3.3,-1.82 -3.05,-2.22 -2.75,-2.57 -2.4,-2.91 -2.02,-3.18 -1.6,-3.41 -1.17,-3.58 -0.7,-3.7 -0.24,-3.76 0.24,-3.76 0.7,-3.7 1.17,-3.59 1.6,-3.4 2.02,-3.19 2.4,-2.9 2.75,-2.58 3.05,-2.21 3.3,-1.81 3.5,-1.39 3.65,-0.94 3.74,-0.47 3.76,0 3.74,0.47 3.65,0.94 3.5,1.39 3.3,1.81 3.05,2.21 2.75,2.58 2.4,2.9 2.02,3.19 1.6,3.4 1.17,3.59 0.7,3.7 0.24,3.76 z" /><path
             id="path15818"
             style="fill:#0000ff;fill-opacity:1;fill-rule:nonzero;stroke:none"
             d="m 3230,3208.94 -0.24,3.76 -0.7,3.7 -1.17,3.58 -1.6,3.41 -2.02,3.18 -2.4,2.91 -2.75,2.57 -3.05,2.22 -3.3,1.82 -3.5,1.38 -3.65,0.94 -3.74,0.47 -3.76,0 -3.74,-0.47 -3.65,-0.94 -3.5,-1.38 -3.3,-1.82 -3.05,-2.22 -2.75,-2.57 -2.4,-2.91 -2.02,-3.18 -1.6,-3.41 -1.17,-3.58 -0.7,-3.7 -0.24,-3.76 0.24,-3.76 0.7,-3.7 1.17,-3.58 1.6,-3.41 2.02,-3.18 2.4,-2.91 2.75,-2.58 3.05,-2.21 3.3,-1.81 3.5,-1.39 3.65,-0.94 3.74,-0.47 3.76,0 3.74,0.47 3.65,0.94 3.5,1.39 3.3,1.81 3.05,2.21 2.75,2.58 2.4,2.91 2.02,3.18 1.6,3.41 1.17,3.58 0.7,3.7" /><path
             id="path15820"
             style="fill:none;stroke:#000000;stroke-opacity:1;stroke-width:5;stroke-linecap:butt;stroke-linejoin:miter;stroke-miterlimit:10;stroke-dasharray:none"
             d="m 3230,3208.94 -0.24,3.76 -0.7,3.7 -1.17,3.58 -1.6,3.41 -2.02,3.18 -2.4,2.91 -2.75,2.57 -3.05,2.22 -3.3,1.82 -3.5,1.38 -3.65,0.94 -3.74,0.47 -3.76,0 -3.74,-0.47 -3.65,-0.94 -3.5,-1.38 -3.3,-1.82 -3.05,-2.22 -2.75,-2.57 -2.4,-2.91 -2.02,-3.18 -1.6,-3.41 -1.17,-3.58 -0.7,-3.7 -0.24,-3.76 0.24,-3.76 0.7,-3.7 1.17,-3.58 1.6,-3.41 2.02,-3.18 2.4,-2.91 2.75,-2.58 3.05,-2.21 3.3,-1.81 3.5,-1.39 3.65,-0.94 3.74,-0.47 3.76,0 3.74,0.47 3.65,0.94 3.5,1.39 3.3,1.81 3.05,2.21 2.75,2.58 2.4,2.91 2.02,3.18 1.6,3.41 1.17,3.58 0.7,3.7 0.24,3.76 z" /><path
             id="path15822"
             style="fill:#0000ff;fill-opacity:1;fill-rule:nonzero;stroke:none"
             d="m 3726,3432.65 -0.24,3.76 -0.7,3.7 -1.17,3.59 -1.6,3.4 -2.02,3.19 -2.4,2.9 -2.75,2.58 -3.05,2.21 -3.3,1.82 -3.5,1.38 -3.65,0.94 -3.74,0.47 -3.76,0 -3.74,-0.47 -3.65,-0.94 -3.5,-1.38 -3.3,-1.82 -3.05,-2.21 -2.75,-2.58 -2.4,-2.9 -2.02,-3.19 -1.6,-3.4 -1.17,-3.59 -0.7,-3.7 -0.24,-3.76 0.24,-3.76 0.7,-3.7 1.17,-3.58 1.6,-3.41 2.02,-3.18 2.4,-2.91 2.75,-2.57 3.05,-2.22 3.3,-1.82 3.5,-1.38 3.65,-0.94 3.74,-0.47 3.76,0 3.74,0.47 3.65,0.94 3.5,1.38 3.3,1.82 3.05,2.22 2.75,2.57 2.4,2.91 2.02,3.18 1.6,3.41 1.17,3.58 0.7,3.7" /><path
             id="path15824"
             style="fill:none;stroke:#000000;stroke-opacity:1;stroke-width:5;stroke-linecap:butt;stroke-linejoin:miter;stroke-miterlimit:10;stroke-dasharray:none"
             d="m 3726,3432.65 -0.24,3.76 -0.7,3.7 -1.17,3.59 -1.6,3.4 -2.02,3.19 -2.4,2.9 -2.75,2.58 -3.05,2.21 -3.3,1.82 -3.5,1.38 -3.65,0.94 -3.74,0.47 -3.76,0 -3.74,-0.47 -3.65,-0.94 -3.5,-1.38 -3.3,-1.82 -3.05,-2.21 -2.75,-2.58 -2.4,-2.9 -2.02,-3.19 -1.6,-3.4 -1.17,-3.59 -0.7,-3.7 -0.24,-3.76 0.24,-3.76 0.7,-3.7 1.17,-3.58 1.6,-3.41 2.02,-3.18 2.4,-2.91 2.75,-2.57 3.05,-2.22 3.3,-1.82 3.5,-1.38 3.65,-0.94 3.74,-0.47 3.76,0 3.74,0.47 3.65,0.94 3.5,1.38 3.3,1.82 3.05,2.22 2.75,2.57 2.4,2.91 2.02,3.18 1.6,3.41 1.17,3.58 0.7,3.7 0.24,3.76 z" /><path
             id="path15826"
             style="fill:#0000ff;fill-opacity:1;fill-rule:nonzero;stroke:none"
             d="m 4222,3602.04 -0.24,3.76 -0.7,3.7 -1.17,3.58 -1.6,3.41 -2.02,3.18 -2.4,2.91 -2.75,2.58 -3.05,2.21 -3.3,1.81 -3.5,1.39 -3.65,0.94 -3.74,0.47 -3.76,0 -3.74,-0.47 -3.65,-0.94 -3.5,-1.39 -3.3,-1.81 -3.05,-2.21 -2.75,-2.58 -2.4,-2.91 -2.02,-3.18 -1.6,-3.41 -1.17,-3.58 -0.7,-3.7 -0.24,-3.76 0.24,-3.76 0.7,-3.7 1.17,-3.58 1.6,-3.41 2.02,-3.18 2.4,-2.91 2.75,-2.57 3.05,-2.22 3.3,-1.82 3.5,-1.38 3.65,-0.94 3.74,-0.47 3.76,0 3.74,0.47 3.65,0.94 3.5,1.38 3.3,1.82 3.05,2.22 2.75,2.57 2.4,2.91 2.02,3.18 1.6,3.41 1.17,3.58 0.7,3.7" /><path
             id="path15828"
             style="fill:none;stroke:#000000;stroke-opacity:1;stroke-width:5;stroke-linecap:butt;stroke-linejoin:miter;stroke-miterlimit:10;stroke-dasharray:none"
             d="m 4222,3602.04 -0.24,3.76 -0.7,3.7 -1.17,3.58 -1.6,3.41 -2.02,3.18 -2.4,2.91 -2.75,2.58 -3.05,2.21 -3.3,1.81 -3.5,1.39 -3.65,0.94 -3.74,0.47 -3.76,0 -3.74,-0.47 -3.65,-0.94 -3.5,-1.39 -3.3,-1.81 -3.05,-2.21 -2.75,-2.58 -2.4,-2.91 -2.02,-3.18 -1.6,-3.41 -1.17,-3.58 -0.7,-3.7 -0.24,-3.76 0.24,-3.76 0.7,-3.7 1.17,-3.58 1.6,-3.41 2.02,-3.18 2.4,-2.91 2.75,-2.57 3.05,-2.22 3.3,-1.82 3.5,-1.38 3.65,-0.94 3.74,-0.47 3.76,0 3.74,0.47 3.65,0.94 3.5,1.38 3.3,1.82 3.05,2.22 2.75,2.57 2.4,2.91 2.02,3.18 1.6,3.41 1.17,3.58 0.7,3.7 0.24,3.76 z" /><path
             id="path15830"
             style="fill:#0000ff;fill-opacity:1;fill-rule:nonzero;stroke:none"
             d="m 4718,3730.44 -0.24,3.76 -0.7,3.7 -1.17,3.58 -1.6,3.41 -2.02,3.18 -2.4,2.91 -2.75,2.57 -3.05,2.22 -3.3,1.82 -3.5,1.38 -3.65,0.94 -3.74,0.47 -3.76,0 -3.74,-0.47 -3.65,-0.94 -3.5,-1.38 -3.3,-1.82 -3.05,-2.22 -2.75,-2.57 -2.4,-2.91 -2.02,-3.18 -1.6,-3.41 -1.17,-3.58 -0.7,-3.7 -0.24,-3.76 0.24,-3.76 0.7,-3.7 1.17,-3.59 1.6,-3.4 2.02,-3.19 2.4,-2.9 2.75,-2.58 3.05,-2.21 3.3,-1.81 3.5,-1.39 3.65,-0.94 3.74,-0.47 3.76,0 3.74,0.47 3.65,0.94 3.5,1.39 3.3,1.81 3.05,2.21 2.75,2.58 2.4,2.9 2.02,3.19 1.6,3.4 1.17,3.59 0.7,3.7" /><path
             id="path15832"
             style="fill:none;stroke:#000000;stroke-opacity:1;stroke-width:5;stroke-linecap:butt;stroke-linejoin:miter;stroke-miterlimit:10;stroke-dasharray:none"
             d="m 4718,3730.44 -0.24,3.76 -0.7,3.7 -1.17,3.58 -1.6,3.41 -2.02,3.18 -2.4,2.91 -2.75,2.57 -3.05,2.22 -3.3,1.82 -3.5,1.38 -3.65,0.94 -3.74,0.47 -3.76,0 -3.74,-0.47 -3.65,-0.94 -3.5,-1.38 -3.3,-1.82 -3.05,-2.22 -2.75,-2.57 -2.4,-2.91 -2.02,-3.18 -1.6,-3.41 -1.17,-3.58 -0.7,-3.7 -0.24,-3.76 0.24,-3.76 0.7,-3.7 1.17,-3.59 1.6,-3.4 2.02,-3.19 2.4,-2.9 2.75,-2.58 3.05,-2.21 3.3,-1.81 3.5,-1.39 3.65,-0.94 3.74,-0.47 3.76,0 3.74,0.47 3.65,0.94 3.5,1.39 3.3,1.81 3.05,2.21 2.75,2.58 2.4,2.9 2.02,3.19 1.6,3.4 1.17,3.59 0.7,3.7 0.24,3.76 z" /><path
             id="path15834"
             style="fill:#0000ff;fill-opacity:1;fill-rule:nonzero;stroke:none"
             d="m 5214,3827.99 -0.24,3.76 -0.7,3.7 -1.17,3.59 -1.6,3.4 -2.02,3.18 -2.4,2.91 -2.75,2.58 -3.05,2.21 -3.3,1.82 -3.5,1.38 -3.65,0.94 -3.74,0.47 -3.76,0 -3.74,-0.47 -3.65,-0.94 -3.5,-1.38 -3.3,-1.82 -3.05,-2.21 -2.75,-2.58 -2.4,-2.91 -2.02,-3.18 -1.6,-3.4 -1.17,-3.59 -0.7,-3.7 -0.24,-3.76 0.24,-3.76 0.7,-3.7 1.17,-3.58 1.6,-3.41 2.02,-3.18 2.4,-2.91 2.75,-2.57 3.05,-2.22 3.3,-1.82 3.5,-1.38 3.65,-0.94 3.74,-0.47 3.76,0 3.74,0.47 3.65,0.94 3.5,1.38 3.3,1.82 3.05,2.22 2.75,2.57 2.4,2.91 2.02,3.18 1.6,3.41 1.17,3.58 0.7,3.7" /><path
             id="path15836"
             style="fill:none;stroke:#000000;stroke-opacity:1;stroke-width:5;stroke-linecap:butt;stroke-linejoin:miter;stroke-miterlimit:10;stroke-dasharray:none"
             d="m 5214,3827.99 -0.24,3.76 -0.7,3.7 -1.17,3.59 -1.6,3.4 -2.02,3.18 -2.4,2.91 -2.75,2.58 -3.05,2.21 -3.3,1.82 -3.5,1.38 -3.65,0.94 -3.74,0.47 -3.76,0 -3.74,-0.47 -3.65,-0.94 -3.5,-1.38 -3.3,-1.82 -3.05,-2.21 -2.75,-2.58 -2.4,-2.91 -2.02,-3.18 -1.6,-3.4 -1.17,-3.59 -0.7,-3.7 -0.24,-3.76 0.24,-3.76 0.7,-3.7 1.17,-3.58 1.6,-3.41 2.02,-3.18 2.4,-2.91 2.75,-2.57 3.05,-2.22 3.3,-1.82 3.5,-1.38 3.65,-0.94 3.74,-0.47 3.76,0 3.74,0.47 3.65,0.94 3.5,1.38 3.3,1.82 3.05,2.22 2.75,2.57 2.4,2.91 2.02,3.18 1.6,3.41 1.17,3.58 0.7,3.7 0.24,3.76 z" /><path
             id="path15838"
             style="fill:none;stroke:#008000;stroke-opacity:1;stroke-width:10;stroke-linecap:square;stroke-linejoin:miter;stroke-miterlimit:10;stroke-dasharray:none"
             d="m 720,990.25 496,654.73 496,504.66 496,388.83 496,296.64 496,225.23 496,170.65 496,129.39 496,98.31 496,74.98" /><path
             id="path15840"
             style="fill:#008000;fill-opacity:1;fill-rule:nonzero;stroke:none"
             d="m 690,960.25 60,0 0,60 -60,0 0,-60 z" /><path
             id="path15842"
             style="fill:none;stroke:#000000;stroke-opacity:1;stroke-width:5;stroke-linecap:butt;stroke-linejoin:miter;stroke-miterlimit:10;stroke-dasharray:none"
             d="m 690,960.25 60,0 0,60 -60,0 0,-60 z" /><path
             id="path15844"
             style="fill:#008000;fill-opacity:1;fill-rule:nonzero;stroke:none"
             d="m 1186,1614.98 60,0 0,60 -60,0 0,-60 z" /><path
             id="path15846"
             style="fill:none;stroke:#000000;stroke-opacity:1;stroke-width:5;stroke-linecap:butt;stroke-linejoin:miter;stroke-miterlimit:10;stroke-dasharray:none"
             d="m 1186,1614.98 60,0 0,60 -60,0 0,-60 z" /><path
             id="path15848"
             style="fill:#008000;fill-opacity:1;fill-rule:nonzero;stroke:none"
             d="m 1682,2119.64 60,0 0,60 -60,0 0,-60 z" /><path
             id="path15850"
             style="fill:none;stroke:#000000;stroke-opacity:1;stroke-width:5;stroke-linecap:butt;stroke-linejoin:miter;stroke-miterlimit:10;stroke-dasharray:none"
             d="m 1682,2119.64 60,0 0,60 -60,0 0,-60 z" /><path
             id="path15852"
             style="fill:#008000;fill-opacity:1;fill-rule:nonzero;stroke:none"
             d="m 2178,2508.47 60,0 0,60 -60,0 0,-60 z" /><path
             id="path15854"
             style="fill:none;stroke:#000000;stroke-opacity:1;stroke-width:5;stroke-linecap:butt;stroke-linejoin:miter;stroke-miterlimit:10;stroke-dasharray:none"
             d="m 2178,2508.47 60,0 0,60 -60,0 0,-60 z" /><path
             id="path15856"
             style="fill:#008000;fill-opacity:1;fill-rule:nonzero;stroke:none"
             d="m 2674,2805.11 60,0 0,60 -60,0 0,-60 z" /><path
             id="path15858"
             style="fill:none;stroke:#000000;stroke-opacity:1;stroke-width:5;stroke-linecap:butt;stroke-linejoin:miter;stroke-miterlimit:10;stroke-dasharray:none"
             d="m 2674,2805.11 60,0 0,60 -60,0 0,-60 z" /><path
             id="path15860"
             style="fill:#008000;fill-opacity:1;fill-rule:nonzero;stroke:none"
             d="m 3170,3030.34 60,0 0,60 -60,0 0,-60 z" /><path
             id="path15862"
             style="fill:none;stroke:#000000;stroke-opacity:1;stroke-width:5;stroke-linecap:butt;stroke-linejoin:miter;stroke-miterlimit:10;stroke-dasharray:none"
             d="m 3170,3030.34 60,0 0,60 -60,0 0,-60 z" /><path
             id="path15864"
             style="fill:#008000;fill-opacity:1;fill-rule:nonzero;stroke:none"
             d="m 3666,3200.99 60,0 0,60 -60,0 0,-60 z" /><path
             id="path15866"
             style="fill:none;stroke:#000000;stroke-opacity:1;stroke-width:5;stroke-linecap:butt;stroke-linejoin:miter;stroke-miterlimit:10;stroke-dasharray:none"
             d="m 3666,3200.99 60,0 0,60 -60,0 0,-60 z" /><path
             id="path15868"
             style="fill:#008000;fill-opacity:1;fill-rule:nonzero;stroke:none"
             d="m 4162,3330.38 60,0 0,60 -60,0 0,-60 z" /><path
             id="path15870"
             style="fill:none;stroke:#000000;stroke-opacity:1;stroke-width:5;stroke-linecap:butt;stroke-linejoin:miter;stroke-miterlimit:10;stroke-dasharray:none"
             d="m 4162,3330.38 60,0 0,60 -60,0 0,-60 z" /><path
             id="path15872"
             style="fill:#008000;fill-opacity:1;fill-rule:nonzero;stroke:none"
             d="m 4658,3428.69 60,0 0,60 -60,0 0,-60 z" /><path
             id="path15874"
             style="fill:none;stroke:#000000;stroke-opacity:1;stroke-width:5;stroke-linecap:butt;stroke-linejoin:miter;stroke-miterlimit:10;stroke-dasharray:none"
             d="m 4658,3428.69 60,0 0,60 -60,0 0,-60 z" /><path
             id="path15876"
             style="fill:#008000;fill-opacity:1;fill-rule:nonzero;stroke:none"
             d="m 5154,3503.67 60,0 0,60 -60,0 0,-60 z" /><path
             id="path15878"
             style="fill:none;stroke:#000000;stroke-opacity:1;stroke-width:5;stroke-linecap:butt;stroke-linejoin:miter;stroke-miterlimit:10;stroke-dasharray:none"
             d="m 5154,3503.67 60,0 0,60 -60,0 0,-60 z" /></g></g><g
         transform="scale(10,10)"
         id="g15880"><text
   id="text15882"
   transform="matrix(1,0,0,-1,69.391,30.45)"><tspan
     id="tspan15884"
     y="0"
     x="0"
     style="font-size:12;font-weight:normal;writing-mode:lr;fill-rule:nonzero;fill-opacity:1;stroke:none;-inkscape-font-specification:Serif;font-variant:normal;font-family:Serif;fill:#000000">1</tspan></text>

</g><path
         id="path15886"
         style="fill:none;stroke:#000000;stroke-opacity:1;stroke-width:5;stroke-linecap:butt;stroke-linejoin:miter;stroke-miterlimit:10;stroke-dasharray:none"
         d="m 1211,432 0,40 0,-40 z" /><path
         id="path15888"
         style="fill:none;stroke:#000000;stroke-opacity:1;stroke-width:5;stroke-linecap:butt;stroke-linejoin:miter;stroke-miterlimit:10;stroke-dasharray:none"
         d="m 1211,3848 0,40 0,-40 z" /><g
         transform="scale(10,10)"
         id="g15890"><text
   id="text15892"
   transform="matrix(1,0,0,-1,118.819,30.2941)"><tspan
     id="tspan15894"
     y="0"
     x="0"
     style="font-size:12;font-weight:normal;writing-mode:lr;fill-rule:nonzero;fill-opacity:1;stroke:none;-inkscape-font-specification:Serif;font-variant:normal;font-family:Serif;fill:#000000">2</tspan></text>

</g><path
         id="path15896"
         style="fill:none;stroke:#000000;stroke-opacity:1;stroke-width:5;stroke-linecap:butt;stroke-linejoin:miter;stroke-miterlimit:10;stroke-dasharray:none"
         d="m 1707,432 0,40 0,-40 z" /><path
         id="path15898"
         style="fill:none;stroke:#000000;stroke-opacity:1;stroke-width:5;stroke-linecap:butt;stroke-linejoin:miter;stroke-miterlimit:10;stroke-dasharray:none"
         d="m 1707,3848 0,40 0,-40 z" /><g
         transform="scale(10,10)"
         id="g15900"><text
   id="text15902"
   transform="matrix(1,0,0,-1,168.325,30.2941)"><tspan
     id="tspan15904"
     y="0"
     x="0"
     style="font-size:12;font-weight:normal;writing-mode:lr;fill-rule:nonzero;fill-opacity:1;stroke:none;-inkscape-font-specification:Serif;font-variant:normal;font-family:Serif;fill:#000000">3</tspan></text>

</g><path
         id="path15906"
         style="fill:none;stroke:#000000;stroke-opacity:1;stroke-width:5;stroke-linecap:butt;stroke-linejoin:miter;stroke-miterlimit:10;stroke-dasharray:none"
         d="m 2203,432 0,40 0,-40 z" /><path
         id="path15908"
         style="fill:none;stroke:#000000;stroke-opacity:1;stroke-width:5;stroke-linecap:butt;stroke-linejoin:miter;stroke-miterlimit:10;stroke-dasharray:none"
         d="m 2203,3848 0,40 0,-40 z" /><g
         transform="scale(10,10)"
         id="g15910"><text
   id="text15912"
   transform="matrix(1,0,0,-1,217.612,30.45)"><tspan
     id="tspan15914"
     y="0"
     x="0"
     style="font-size:12;font-weight:normal;writing-mode:lr;fill-rule:nonzero;fill-opacity:1;stroke:none;-inkscape-font-specification:Serif;font-variant:normal;font-family:Serif;fill:#000000">4</tspan></text>

</g><path
         id="path15916"
         style="fill:none;stroke:#000000;stroke-opacity:1;stroke-width:5;stroke-linecap:butt;stroke-linejoin:miter;stroke-miterlimit:10;stroke-dasharray:none"
         d="m 2699,432 0,40 0,-40 z" /><path
         id="path15918"
         style="fill:none;stroke:#000000;stroke-opacity:1;stroke-width:5;stroke-linecap:butt;stroke-linejoin:miter;stroke-miterlimit:10;stroke-dasharray:none"
         d="m 2699,3848 0,40 0,-40 z" /><g
         transform="scale(10,10)"
         id="g15920"><text
   id="text15922"
   transform="matrix(1,0,0,-1,267.564,30.45)"><tspan
     id="tspan15924"
     y="0"
     x="0"
     style="font-size:12;font-weight:normal;writing-mode:lr;fill-rule:nonzero;fill-opacity:1;stroke:none;-inkscape-font-specification:Serif;font-variant:normal;font-family:Serif;fill:#000000">5</tspan></text>

</g><path
         id="path15926"
         style="fill:none;stroke:#000000;stroke-opacity:1;stroke-width:5;stroke-linecap:butt;stroke-linejoin:miter;stroke-miterlimit:10;stroke-dasharray:none"
         d="m 3195,432 0,40 0,-40 z" /><path
         id="path15928"
         style="fill:none;stroke:#000000;stroke-opacity:1;stroke-width:5;stroke-linecap:butt;stroke-linejoin:miter;stroke-miterlimit:10;stroke-dasharray:none"
         d="m 3195,3848 0,40 0,-40 z" /><g
         transform="scale(10,10)"
         id="g15930"><text
   id="text15932"
   transform="matrix(1,0,0,-1,316.984,30.2941)"><tspan
     id="tspan15934"
     y="0"
     x="0"
     style="font-size:12;font-weight:normal;writing-mode:lr;fill-rule:nonzero;fill-opacity:1;stroke:none;-inkscape-font-specification:Serif;font-variant:normal;font-family:Serif;fill:#000000">6</tspan></text>

</g><path
         id="path15936"
         style="fill:none;stroke:#000000;stroke-opacity:1;stroke-width:5;stroke-linecap:butt;stroke-linejoin:miter;stroke-miterlimit:10;stroke-dasharray:none"
         d="m 3691,432 0,40 0,-40 z" /><path
         id="path15938"
         style="fill:none;stroke:#000000;stroke-opacity:1;stroke-width:5;stroke-linecap:butt;stroke-linejoin:miter;stroke-miterlimit:10;stroke-dasharray:none"
         d="m 3691,3848 0,40 0,-40 z" /><g
         transform="scale(10,10)"
         id="g15940"><text
   id="text15942"
   transform="matrix(1,0,0,-1,366.787,30.45)"><tspan
     id="tspan15944"
     y="0"
     x="0"
     style="font-size:12;font-weight:normal;writing-mode:lr;fill-rule:nonzero;fill-opacity:1;stroke:none;-inkscape-font-specification:Serif;font-variant:normal;font-family:Serif;fill:#000000">7</tspan></text>

</g><path
         id="path15946"
         style="fill:none;stroke:#000000;stroke-opacity:1;stroke-width:5;stroke-linecap:butt;stroke-linejoin:miter;stroke-miterlimit:10;stroke-dasharray:none"
         d="m 4187,432 0,40 0,-40 z" /><path
         id="path15948"
         style="fill:none;stroke:#000000;stroke-opacity:1;stroke-width:5;stroke-linecap:butt;stroke-linejoin:miter;stroke-miterlimit:10;stroke-dasharray:none"
         d="m 4187,3848 0,40 0,-40 z" /><g
         transform="scale(10,10)"
         id="g15950"><text
   id="text15952"
   transform="matrix(1,0,0,-1,416.2,30.2941)"><tspan
     id="tspan15954"
     y="0"
     x="0"
     style="font-size:12;font-weight:normal;writing-mode:lr;fill-rule:nonzero;fill-opacity:1;stroke:none;-inkscape-font-specification:Serif;font-variant:normal;font-family:Serif;fill:#000000">8</tspan></text>

</g><path
         id="path15956"
         style="fill:none;stroke:#000000;stroke-opacity:1;stroke-width:5;stroke-linecap:butt;stroke-linejoin:miter;stroke-miterlimit:10;stroke-dasharray:none"
         d="m 4683,432 0,40 0,-40 z" /><path
         id="path15958"
         style="fill:none;stroke:#000000;stroke-opacity:1;stroke-width:5;stroke-linecap:butt;stroke-linejoin:miter;stroke-miterlimit:10;stroke-dasharray:none"
         d="m 4683,3848 0,40 0,-40 z" /><g
         transform="scale(10,10)"
         id="g15960"><text
   id="text15962"
   transform="matrix(1,0,0,-1,465.777,30.2941)"><tspan
     id="tspan15964"
     sodipodi:role="line"
     y="0"
     x="0 46.03716 53.66916"
     style="font-size:12;font-weight:normal;writing-mode:lr;fill-rule:nonzero;fill-opacity:1;stroke:none;-inkscape-font-specification:Serif;font-variant:normal;font-family:Serif;fill:#000000">910</tspan><tspan
     id="tspan15966"
     sodipodi:role="line"
     y="14.2973"
     x="-212.999 -204.623 -197.519 -190.919 -187.583 -180.203 -176.387 -167.411 -159.803 -148.115 -140.495 -133.115"
     style="font-size:12;font-weight:normal;writing-mode:lr;fill-rule:nonzero;fill-opacity:1;stroke:none;-inkscape-font-specification:Serif;font-variant:normal;font-family:Serif;fill:#000000">Cycle Number</tspan><tspan
     id="tspan15968"
     sodipodi:role="line"
     y="-8.5386"
     x="-437.949 -430.317 -426.501 -418.869 -411.237 -403.605"
     style="font-size:12;font-weight:normal;writing-mode:lr;fill-rule:nonzero;fill-opacity:1;stroke:none;-inkscape-font-specification:Serif;font-variant:normal;font-family:Serif;fill:#000000">0.0015</tspan></text>

</g><path
         id="path15970"
         style="fill:none;stroke:#000000;stroke-opacity:1;stroke-width:5;stroke-linecap:butt;stroke-linejoin:miter;stroke-miterlimit:10;stroke-dasharray:none"
         d="m 720,869 40,0 -40,0 z" /><path
         id="path15972"
         style="fill:none;stroke:#000000;stroke-opacity:1;stroke-width:5;stroke-linecap:butt;stroke-linejoin:miter;stroke-miterlimit:10;stroke-dasharray:none"
         d="m 5144,869 40,0 -40,0 z" /><g
         transform="scale(10,10)"
         id="g15974"><text
   id="text15976"
   transform="matrix(1,0,0,-1,27.5781,82.0328)"><tspan
     id="tspan15978"
     sodipodi:role="line"
     y="0"
     x="0 7.632 11.448 19.08 26.712 34.344"
     style="font-size:12;font-weight:normal;writing-mode:lr;fill-rule:nonzero;fill-opacity:1;stroke:none;-inkscape-font-specification:Serif;font-variant:normal;font-family:Serif;fill:#000000">0.0020</tspan></text>

</g><path
         id="path15980"
         style="fill:none;stroke:#000000;stroke-opacity:1;stroke-width:5;stroke-linecap:butt;stroke-linejoin:miter;stroke-miterlimit:10;stroke-dasharray:none"
         d="m 720,1301 40,0 -40,0 z" /><path
         id="path15982"
         style="fill:none;stroke:#000000;stroke-opacity:1;stroke-width:5;stroke-linecap:butt;stroke-linejoin:miter;stroke-miterlimit:10;stroke-dasharray:none"
         d="m 5144,1301 40,0 -40,0 z" /><g
         transform="scale(10,10)"
         id="g15984"><text
   id="text15986"
   transform="matrix(1,0,0,-1,27.8281,125.233)"><tspan
     id="tspan15988"
     sodipodi:role="line"
     y="0"
     x="0 7.632 11.448 19.08 26.712 34.344"
     style="font-size:12;font-weight:normal;writing-mode:lr;fill-rule:nonzero;fill-opacity:1;stroke:none;-inkscape-font-specification:Serif;font-variant:normal;font-family:Serif;fill:#000000">0.0025</tspan></text>

</g><path
         id="path15990"
         style="fill:none;stroke:#000000;stroke-opacity:1;stroke-width:5;stroke-linecap:butt;stroke-linejoin:miter;stroke-miterlimit:10;stroke-dasharray:none"
         d="m 720,1733 40,0 -40,0 z" /><path
         id="path15992"
         style="fill:none;stroke:#000000;stroke-opacity:1;stroke-width:5;stroke-linecap:butt;stroke-linejoin:miter;stroke-miterlimit:10;stroke-dasharray:none"
         d="m 5144,1733 40,0 -40,0 z" /><g
         transform="scale(10,10)"
         id="g15994"><text
   id="text15996"
   transform="matrix(1,0,0,-1,27.5781,168.433)"><tspan
     id="tspan15998"
     sodipodi:role="line"
     y="0"
     x="0 7.632 11.448 19.08 26.712 34.344"
     style="font-size:12;font-weight:normal;writing-mode:lr;fill-rule:nonzero;fill-opacity:1;stroke:none;-inkscape-font-specification:Serif;font-variant:normal;font-family:Serif;fill:#000000">0.0030</tspan></text>

</g><path
         id="path16000"
         style="fill:none;stroke:#000000;stroke-opacity:1;stroke-width:5;stroke-linecap:butt;stroke-linejoin:miter;stroke-miterlimit:10;stroke-dasharray:none"
         d="m 720,2165 40,0 -40,0 z" /><path
         id="path16002"
         style="fill:none;stroke:#000000;stroke-opacity:1;stroke-width:5;stroke-linecap:butt;stroke-linejoin:miter;stroke-miterlimit:10;stroke-dasharray:none"
         d="m 5144,2165 40,0 -40,0 z" /><g
         transform="scale(10,10)"
         id="g16004"><text
   id="text16006"
   transform="matrix(1,0,0,-1,27.8281,211.633)"><tspan
     id="tspan16008"
     sodipodi:role="line"
     y="0"
     x="0 7.632 11.448 19.08 26.712 34.344"
     style="font-size:12;font-weight:normal;writing-mode:lr;fill-rule:nonzero;fill-opacity:1;stroke:none;-inkscape-font-specification:Serif;font-variant:normal;font-family:Serif;fill:#000000">0.0035</tspan></text>

</g><path
         id="path16010"
         style="fill:none;stroke:#000000;stroke-opacity:1;stroke-width:5;stroke-linecap:butt;stroke-linejoin:miter;stroke-miterlimit:10;stroke-dasharray:none"
         d="m 720,2597 40,0 -40,0 z" /><path
         id="path16012"
         style="fill:none;stroke:#000000;stroke-opacity:1;stroke-width:5;stroke-linecap:butt;stroke-linejoin:miter;stroke-miterlimit:10;stroke-dasharray:none"
         d="m 5144,2597 40,0 -40,0 z" /><g
         transform="scale(10,10)"
         id="g16014"><text
   id="text16016"
   transform="matrix(1,0,0,-1,27.5781,254.833)"><tspan
     id="tspan16018"
     sodipodi:role="line"
     y="0"
     x="0 7.632 11.448 19.08 26.712 34.344"
     style="font-size:12;font-weight:normal;writing-mode:lr;fill-rule:nonzero;fill-opacity:1;stroke:none;-inkscape-font-specification:Serif;font-variant:normal;font-family:Serif;fill:#000000">0.0040</tspan></text>

</g><path
         id="path16020"
         style="fill:none;stroke:#000000;stroke-opacity:1;stroke-width:5;stroke-linecap:butt;stroke-linejoin:miter;stroke-miterlimit:10;stroke-dasharray:none"
         d="m 720,3029 40,0 -40,0 z" /><path
         id="path16022"
         style="fill:none;stroke:#000000;stroke-opacity:1;stroke-width:5;stroke-linecap:butt;stroke-linejoin:miter;stroke-miterlimit:10;stroke-dasharray:none"
         d="m 5144,3029 40,0 -40,0 z" /><g
         transform="scale(10,10)"
         id="g16024"><text
   id="text16026"
   transform="matrix(1,0,0,-1,27.8281,298.033)"><tspan
     id="tspan16028"
     sodipodi:role="line"
     y="0"
     x="0 7.632 11.448 19.08 26.712 34.344"
     style="font-size:12;font-weight:normal;writing-mode:lr;fill-rule:nonzero;fill-opacity:1;stroke:none;-inkscape-font-specification:Serif;font-variant:normal;font-family:Serif;fill:#000000">0.0045</tspan></text>

</g><path
         id="path16030"
         style="fill:none;stroke:#000000;stroke-opacity:1;stroke-width:5;stroke-linecap:butt;stroke-linejoin:miter;stroke-miterlimit:10;stroke-dasharray:none"
         d="m 720,3461 40,0 -40,0 z" /><path
         id="path16032"
         style="fill:none;stroke:#000000;stroke-opacity:1;stroke-width:5;stroke-linecap:butt;stroke-linejoin:miter;stroke-miterlimit:10;stroke-dasharray:none"
         d="m 5144,3461 40,0 -40,0 z" /><g
         transform="scale(10,10)"
         id="g16034"><text
   id="text16036"
   transform="matrix(1,0,0,-1,27.5781,341.233)"><tspan
     id="tspan16038"
     sodipodi:role="line"
     y="0"
     x="0 7.632 11.448 19.08 26.712 34.344"
     style="font-size:12;font-weight:normal;writing-mode:lr;fill-rule:nonzero;fill-opacity:1;stroke:none;-inkscape-font-specification:Serif;font-variant:normal;font-family:Serif;fill:#000000">0.0050</tspan><tspan
     id="tspan16040"
     sodipodi:role="line"
     y="-43.1996"
     x="0.25 7.882 11.698 19.33 26.962 34.594"
     style="font-size:12;font-weight:normal;writing-mode:lr;fill-rule:nonzero;fill-opacity:1;stroke:none;-inkscape-font-specification:Serif;font-variant:normal;font-family:Serif;fill:#000000">0.0055</tspan></text>

<text
   id="text16042"
   transform="matrix(0,1,1,0,20.0781,187.523)"><tspan
     id="tspan16044"
     sodipodi:role="line"
     y="0"
     x="0 10.356 17.712 23.964 30.216 34.032 38.712 45.66 53.28"
     style="font-size:12;font-weight:normal;writing-mode:lr;fill-rule:nonzero;fill-opacity:1;stroke:none;-inkscape-font-specification:Serif;font-variant:normal;font-family:Serif;fill:#000000">Mass [kg]</tspan></text>

</g><path
         id="path16046"
         style="fill:none;stroke:#000000;stroke-opacity:1;stroke-width:10;stroke-linecap:square;stroke-linejoin:miter;stroke-miterlimit:10;stroke-dasharray:none"
         d="m 720,432 4464,0 0,3456 -4464,0 0,-3456" /><path
         id="path16048"
         style="fill:#ffffff;fill-opacity:1;fill-rule:nonzero;stroke:none"
         d="m 2073.56,501.121 3021.16,0 0,848.32 -3021.16,0 0,-848.32 z" /><path
         id="path16050"
         style="fill:none;stroke:#000000;stroke-opacity:1;stroke-width:10;stroke-linecap:square;stroke-linejoin:miter;stroke-miterlimit:10;stroke-dasharray:none"
         d="m 2073.56,501.121 3021.16,0 0,848.32 -3021.16,0 0,-848.32 z" /><path
         id="path16052"
         style="fill:none;stroke:#000000;stroke-opacity:1;stroke-width:10;stroke-linecap:square;stroke-linejoin:miter;stroke-miterlimit:10;stroke-dasharray:none"
         d="m 2355.32,1211.01 223.2,0" /><path
         id="path16054"
         style="fill:none;stroke:#ff0000;stroke-opacity:1;stroke-width:10;stroke-linecap:butt;stroke-linejoin:miter;stroke-miterlimit:10;stroke-dasharray:60,60;stroke-dashoffset:0"
         d="m 2355.32,1020.52 223.2,0" /><path
         id="path16056"
         style="fill:none;stroke:#0000ff;stroke-opacity:1;stroke-width:10;stroke-linecap:square;stroke-linejoin:miter;stroke-miterlimit:10;stroke-dasharray:none"
         d="m 2355.32,830.035 223.2,0" /><path
         id="path16058"
         style="fill:#0000ff;fill-opacity:1;fill-rule:nonzero;stroke:none"
         d="m 2385.32,830.035 -0.24,3.762 -0.7,3.699 -1.17,3.582 -1.6,3.41 -2.02,3.18 -2.4,2.902 -2.75,2.582 -3.05,2.211 -3.3,1.817 -3.5,1.386 -3.65,0.938 -3.74,0.473 -3.76,0 -3.74,-0.473 -3.65,-0.938 -3.5,-1.386 -3.3,-1.817 -3.05,-2.211 -2.75,-2.582 -2.4,-2.902 -2.02,-3.18 -1.6,-3.41 -1.17,-3.582 -0.7,-3.699 -0.24,-3.762 0.24,-3.762 0.7,-3.699 1.17,-3.582 1.6,-3.41 2.02,-3.18 2.4,-2.902 2.75,-2.582 3.05,-2.211 3.3,-1.816 3.5,-1.387 3.65,-0.938 3.74,-0.472 3.76,0 3.74,0.472 3.65,0.938 3.5,1.387 3.3,1.816 3.05,2.211 2.75,2.582 2.4,2.902 2.02,3.18 1.6,3.41 1.17,3.582 0.7,3.699" /><path
         id="path16060"
         style="fill:none;stroke:#000000;stroke-opacity:1;stroke-width:5;stroke-linecap:butt;stroke-linejoin:miter;stroke-miterlimit:10;stroke-dasharray:none"
         d="m 2385.32,830.035 -0.24,3.762 -0.7,3.699 -1.17,3.582 -1.6,3.41 -2.02,3.18 -2.4,2.902 -2.75,2.582 -3.05,2.211 -3.3,1.817 -3.5,1.386 -3.65,0.938 -3.74,0.473 -3.76,0 -3.74,-0.473 -3.65,-0.938 -3.5,-1.386 -3.3,-1.817 -3.05,-2.211 -2.75,-2.582 -2.4,-2.902 -2.02,-3.18 -1.6,-3.41 -1.17,-3.582 -0.7,-3.699 -0.24,-3.762 0.24,-3.762 0.7,-3.699 1.17,-3.582 1.6,-3.41 2.02,-3.18 2.4,-2.902 2.75,-2.582 3.05,-2.211 3.3,-1.816 3.5,-1.387 3.65,-0.938 3.74,-0.472 3.76,0 3.74,0.472 3.65,0.938 3.5,1.387 3.3,1.816 3.05,2.211 2.75,2.582 2.4,2.902 2.02,3.18 1.6,3.41 1.17,3.582 0.7,3.699 0.24,3.762 z" /><path
         id="path16062"
         style="fill:#0000ff;fill-opacity:1;fill-rule:nonzero;stroke:none"
         d="m 2608.52,830.035 -0.23,3.762 -0.71,3.699 -1.17,3.582 -1.6,3.41 -2.02,3.18 -2.4,2.902 -2.75,2.582 -3.05,2.211 -3.3,1.817 -3.5,1.386 -3.65,0.938 -3.74,0.473 -3.76,0 -3.74,-0.473 -3.65,-0.938 -3.5,-1.386 -3.3,-1.817 -3.05,-2.211 -2.75,-2.582 -2.4,-2.902 -2.02,-3.18 -1.61,-3.41 -1.16,-3.582 -0.7,-3.699 -0.24,-3.762 0.24,-3.762 0.7,-3.699 1.16,-3.582 1.61,-3.41 2.02,-3.18 2.4,-2.902 2.75,-2.582 3.05,-2.211 3.3,-1.816 3.5,-1.387 3.65,-0.938 3.74,-0.472 3.76,0 3.74,0.472 3.65,0.938 3.5,1.387 3.3,1.816 3.05,2.211 2.75,2.582 2.4,2.902 2.02,3.18 1.6,3.41 1.17,3.582 0.71,3.699" /><path
         id="path16064"
         style="fill:none;stroke:#000000;stroke-opacity:1;stroke-width:5;stroke-linecap:butt;stroke-linejoin:miter;stroke-miterlimit:10;stroke-dasharray:none"
         d="m 2608.52,830.035 -0.23,3.762 -0.71,3.699 -1.17,3.582 -1.6,3.41 -2.02,3.18 -2.4,2.902 -2.75,2.582 -3.05,2.211 -3.3,1.817 -3.5,1.386 -3.65,0.938 -3.74,0.473 -3.76,0 -3.74,-0.473 -3.65,-0.938 -3.5,-1.386 -3.3,-1.817 -3.05,-2.211 -2.75,-2.582 -2.4,-2.902 -2.02,-3.18 -1.61,-3.41 -1.16,-3.582 -0.7,-3.699 -0.24,-3.762 0.24,-3.762 0.7,-3.699 1.16,-3.582 1.61,-3.41 2.02,-3.18 2.4,-2.902 2.75,-2.582 3.05,-2.211 3.3,-1.816 3.5,-1.387 3.65,-0.938 3.74,-0.472 3.76,0 3.74,0.472 3.65,0.938 3.5,1.387 3.3,1.816 3.05,2.211 2.75,2.582 2.4,2.902 2.02,3.18 1.6,3.41 1.17,3.582 0.71,3.699 0.23,3.762 z" /><path
         id="path16066"
         style="fill:none;stroke:#008000;stroke-opacity:1;stroke-width:10;stroke-linecap:square;stroke-linejoin:miter;stroke-miterlimit:10;stroke-dasharray:none"
         d="m 2355.32,639.547 223.2,0" /><path
         id="path16068"
         style="fill:#008000;fill-opacity:1;fill-rule:nonzero;stroke:none"
         d="m 2325.32,609.547 60,0 0,60 -60,0 0,-60 z" /><path
         id="path16070"
         style="fill:none;stroke:#000000;stroke-opacity:1;stroke-width:5;stroke-linecap:butt;stroke-linejoin:miter;stroke-miterlimit:10;stroke-dasharray:none"
         d="m 2325.32,609.547 60,0 0,60 -60,0 0,-60 z" /><path
         id="path16072"
         style="fill:#008000;fill-opacity:1;fill-rule:nonzero;stroke:none"
         d="m 2548.52,609.547 60,0 0,60 -60,0 0,-60 z" /><path
         id="path16074"
         style="fill:none;stroke:#000000;stroke-opacity:1;stroke-width:5;stroke-linecap:butt;stroke-linejoin:miter;stroke-miterlimit:10;stroke-dasharray:none"
         d="m 2548.52,609.547 60,0 0,60 -60,0 0,-60 z" /><g
         transform="scale(10,10)"
         id="g16076"><text
   id="text16078"
   transform="matrix(1,0,0,-1,266.78,117.234)"><tspan
     id="tspan16080"
     sodipodi:role="line"
     y="0"
     x="0 9.772 21.854 30.758 39.662 48.566 53.018 57.148 66.024 74.914 83.79 89.278 93.73 105.812 114.394 121.688 128.982 133.434 138.362 146.93 152.684 157.136 166.04 170.492"
     style="font-size:14;font-weight:normal;writing-mode:lr;fill-rule:nonzero;fill-opacity:1;stroke:none;-inkscape-font-specification:Serif;font-variant:normal;font-family:Serif;fill:#000000">CM244 Input Mass for 0.9</tspan><tspan
     id="tspan16082"
     sodipodi:role="line"
     y="19.0488"
     x="0 9.772 21.854 30.758 39.662 48.566 53.018 64.036 72.912 78.4 87.29 96.166 101.654 106.106 118.188 126.77 134.064 141.358 145.81 150.738 159.306 165.06 169.512 178.416 182.868"
     style="font-size:14;font-weight:normal;writing-mode:lr;fill-rule:nonzero;fill-opacity:1;stroke:none;-inkscape-font-specification:Serif;font-variant:normal;font-family:Serif;fill:#000000">CM244 Output Mass for 0.9</tspan><tspan
     id="tspan16084"
     sodipodi:role="line"
     y="38.0976"
     x="0 9.772 21.854 30.758 39.662 48.566 53.018 57.148 66.024 74.914 83.79 89.278 93.73 105.812 114.394 121.688 128.982 133.434 138.362 146.93 152.684 157.136 166.04 170.492 179.396 188.3 197.204"
     style="font-size:14;font-weight:normal;writing-mode:lr;fill-rule:nonzero;fill-opacity:1;stroke:none;-inkscape-font-specification:Serif;font-variant:normal;font-family:Serif;fill:#000000">CM244 Input Mass for 0.9999</tspan><tspan
     id="tspan16086"
     sodipodi:role="line"
     y="57.1464"
     x="0 9.772 21.854 30.758 39.662 48.566 53.018 64.036 72.912 78.4 87.29 96.166 101.654 106.106 118.188 126.77 134.064 141.358 145.81 150.738 159.306 165.06 169.512 178.416 182.868 191.772 200.676 209.58"
     style="font-size:14;font-weight:normal;writing-mode:lr;fill-rule:nonzero;fill-opacity:1;stroke:none;-inkscape-font-specification:Serif;font-variant:normal;font-family:Serif;fill:#000000">CM244 Output Mass for 0.9999</tspan></text>

</g></g></g></svg>