<?xml version="1.0" encoding="UTF-8" standalone="no"?>
<!-- Created with Inkscape (http://www.inkscape.org/) -->

<svg
   xmlns:dc="http://purl.org/dc/elements/1.1/"
   xmlns:cc="http://creativecommons.org/ns#"
   xmlns:rdf="http://www.w3.org/1999/02/22-rdf-syntax-ns#"
   xmlns:svg="http://www.w3.org/2000/svg"
   xmlns="http://www.w3.org/2000/svg"
   xmlns:sodipodi="http://sodipodi.sourceforge.net/DTD/sodipodi-0.dtd"
   xmlns:inkscape="http://www.inkscape.org/namespaces/inkscape"
   id="svg7933"
   version="1.1"
   inkscape:version="0.48.2 r9819"
   width="720"
   height="540"
   xml:space="preserve"
   sodipodi:docname="CS137_Mass_Fraction_.eps"><metadata
     id="metadata7939"><rdf:RDF><cc:Work
         rdf:about=""><dc:format>image/svg+xml</dc:format><dc:type
           rdf:resource="http://purl.org/dc/dcmitype/StillImage" /><dc:title></dc:title></cc:Work></rdf:RDF></metadata><defs
     id="defs7937"><clipPath
       clipPathUnits="userSpaceOnUse"
       id="clipPath7955"><path
         d="m 720,432 4464,0 0,3456 -4464,0 0,-3456 z"
         id="path7957" /></clipPath><clipPath
       clipPathUnits="userSpaceOnUse"
       id="clipPath8047"><path
         d="M 0,0 0,0 0,0 0,0 z"
         id="path8049" /></clipPath></defs><sodipodi:namedview
     pagecolor="#ffffff"
     bordercolor="#666666"
     borderopacity="1"
     objecttolerance="10"
     gridtolerance="10"
     guidetolerance="10"
     inkscape:pageopacity="0"
     inkscape:pageshadow="2"
     inkscape:window-width="1438"
     inkscape:window-height="868"
     id="namedview7935"
     showgrid="false"
     inkscape:zoom="0.87407407"
     inkscape:cx="476.18025"
     inkscape:cy="155.3772"
     inkscape:window-x="0"
     inkscape:window-y="30"
     inkscape:window-maximized="0"
     inkscape:current-layer="g7941" /><g
     id="g7941"
     inkscape:groupmode="layer"
     inkscape:label="ink_ext_XXXXXX"
     transform="matrix(1.25,0,0,-1.25,0,540)"><g
       id="g7943"
       transform="scale(0.1,0.1)"><path
         d="m 0,0 5760,0 0,4320 L 0,4320 0,0 z"
         style="fill:#ffffff;fill-opacity:1;fill-rule:nonzero;stroke:none"
         id="path7945" /><path
         d="m 0,0 5760,0 0,4320 L 0,4320 0,0 z"
         style="fill:none;stroke:#ffffff;stroke-opacity:1;stroke-width:10;stroke-linecap:square;stroke-linejoin:round;stroke-miterlimit:10;stroke-dasharray:none"
         id="path7947" /><path
         d="m 720,432 4464,0 0,3456 -4464,0 0,-3456 z"
         style="fill:#ffffff;fill-opacity:1;fill-rule:nonzero;stroke:none"
         id="path7949" /><g
         id="g7951"><g
           id="g7953"
           clip-path="url(#clipPath7955)"><path
             d="m 720,432 452.6,358.754 452.6,358.516 452.6,357.88 452.6,357.19 452.6,356.52 452.6,355.8 452.6,355.12 452.6,354.41 452.6,353.66"
             style="fill:none;stroke:#000000;stroke-opacity:1;stroke-width:10;stroke-linecap:square;stroke-linejoin:round;stroke-miterlimit:10;stroke-dasharray:none"
             id="path7959" /><path
             d="m 720,432 452.6,345.812 452.6,345.678 452.6,345.25 452.6,344.74 452.6,344.04 452.6,343.53 452.6,342.89 452.6,341.74 452.6,341.17"
             style="fill:none;stroke:#ff0000;stroke-opacity:1;stroke-width:10;stroke-linecap:square;stroke-linejoin:round;stroke-miterlimit:10;stroke-dasharray:none"
             id="path7961" /></g></g><path
         d="m 720,432 0,40"
         style="fill:none;stroke:#000000;stroke-opacity:1;stroke-width:5;stroke-linecap:butt;stroke-linejoin:round;stroke-miterlimit:10;stroke-dasharray:none"
         id="path7963" /><path
         d="m 720,3888 0,-40"
         style="fill:none;stroke:#000000;stroke-opacity:1;stroke-width:5;stroke-linecap:butt;stroke-linejoin:round;stroke-miterlimit:10;stroke-dasharray:none"
         id="path7965" /><path
         d="m 1278,432 0,40"
         style="fill:none;stroke:#000000;stroke-opacity:1;stroke-width:5;stroke-linecap:butt;stroke-linejoin:round;stroke-miterlimit:10;stroke-dasharray:none"
         id="path7967" /><path
         d="m 1278,3888 0,-40"
         style="fill:none;stroke:#000000;stroke-opacity:1;stroke-width:5;stroke-linecap:butt;stroke-linejoin:round;stroke-miterlimit:10;stroke-dasharray:none"
         id="path7969" /><path
         d="m 1836,432 0,40"
         style="fill:none;stroke:#000000;stroke-opacity:1;stroke-width:5;stroke-linecap:butt;stroke-linejoin:round;stroke-miterlimit:10;stroke-dasharray:none"
         id="path7971" /><path
         d="m 1836,3888 0,-40"
         style="fill:none;stroke:#000000;stroke-opacity:1;stroke-width:5;stroke-linecap:butt;stroke-linejoin:round;stroke-miterlimit:10;stroke-dasharray:none"
         id="path7973" /><path
         d="m 2394,432 0,40"
         style="fill:none;stroke:#000000;stroke-opacity:1;stroke-width:5;stroke-linecap:butt;stroke-linejoin:round;stroke-miterlimit:10;stroke-dasharray:none"
         id="path7975" /><path
         d="m 2394,3888 0,-40"
         style="fill:none;stroke:#000000;stroke-opacity:1;stroke-width:5;stroke-linecap:butt;stroke-linejoin:round;stroke-miterlimit:10;stroke-dasharray:none"
         id="path7977" /><path
         d="m 2952,432 0,40"
         style="fill:none;stroke:#000000;stroke-opacity:1;stroke-width:5;stroke-linecap:butt;stroke-linejoin:round;stroke-miterlimit:10;stroke-dasharray:none"
         id="path7979" /><path
         d="m 2952,3888 0,-40"
         style="fill:none;stroke:#000000;stroke-opacity:1;stroke-width:5;stroke-linecap:butt;stroke-linejoin:round;stroke-miterlimit:10;stroke-dasharray:none"
         id="path7981" /><path
         d="m 3510,432 0,40"
         style="fill:none;stroke:#000000;stroke-opacity:1;stroke-width:5;stroke-linecap:butt;stroke-linejoin:round;stroke-miterlimit:10;stroke-dasharray:none"
         id="path7983" /><path
         d="m 3510,3888 0,-40"
         style="fill:none;stroke:#000000;stroke-opacity:1;stroke-width:5;stroke-linecap:butt;stroke-linejoin:round;stroke-miterlimit:10;stroke-dasharray:none"
         id="path7985" /><path
         d="m 4068,432 0,40"
         style="fill:none;stroke:#000000;stroke-opacity:1;stroke-width:5;stroke-linecap:butt;stroke-linejoin:round;stroke-miterlimit:10;stroke-dasharray:none"
         id="path7987" /><path
         d="m 4068,3888 0,-40"
         style="fill:none;stroke:#000000;stroke-opacity:1;stroke-width:5;stroke-linecap:butt;stroke-linejoin:round;stroke-miterlimit:10;stroke-dasharray:none"
         id="path7989" /><path
         d="m 4626,432 0,40"
         style="fill:none;stroke:#000000;stroke-opacity:1;stroke-width:5;stroke-linecap:butt;stroke-linejoin:round;stroke-miterlimit:10;stroke-dasharray:none"
         id="path7991" /><path
         d="m 4626,3888 0,-40"
         style="fill:none;stroke:#000000;stroke-opacity:1;stroke-width:5;stroke-linecap:butt;stroke-linejoin:round;stroke-miterlimit:10;stroke-dasharray:none"
         id="path7993" /><path
         d="m 5184,432 0,40"
         style="fill:none;stroke:#000000;stroke-opacity:1;stroke-width:5;stroke-linecap:butt;stroke-linejoin:round;stroke-miterlimit:10;stroke-dasharray:none"
         id="path7995" /><path
         d="m 5184,3888 0,-40"
         style="fill:none;stroke:#000000;stroke-opacity:1;stroke-width:5;stroke-linecap:butt;stroke-linejoin:round;stroke-miterlimit:10;stroke-dasharray:none"
         id="path7997" /><path
         d="m 720,432 40,0"
         style="fill:none;stroke:#000000;stroke-opacity:1;stroke-width:5;stroke-linecap:butt;stroke-linejoin:round;stroke-miterlimit:10;stroke-dasharray:none"
         id="path7999" /><path
         d="m 5184,432 -40,0"
         style="fill:none;stroke:#000000;stroke-opacity:1;stroke-width:5;stroke-linecap:butt;stroke-linejoin:round;stroke-miterlimit:10;stroke-dasharray:none"
         id="path8001" /><path
         d="m 720,1008 40,0"
         style="fill:none;stroke:#000000;stroke-opacity:1;stroke-width:5;stroke-linecap:butt;stroke-linejoin:round;stroke-miterlimit:10;stroke-dasharray:none"
         id="path8003" /><path
         d="m 5184,1008 -40,0"
         style="fill:none;stroke:#000000;stroke-opacity:1;stroke-width:5;stroke-linecap:butt;stroke-linejoin:round;stroke-miterlimit:10;stroke-dasharray:none"
         id="path8005" /><path
         d="m 720,1584 40,0"
         style="fill:none;stroke:#000000;stroke-opacity:1;stroke-width:5;stroke-linecap:butt;stroke-linejoin:round;stroke-miterlimit:10;stroke-dasharray:none"
         id="path8007" /><path
         d="m 5184,1584 -40,0"
         style="fill:none;stroke:#000000;stroke-opacity:1;stroke-width:5;stroke-linecap:butt;stroke-linejoin:round;stroke-miterlimit:10;stroke-dasharray:none"
         id="path8009" /><path
         d="m 720,2160 40,0"
         style="fill:none;stroke:#000000;stroke-opacity:1;stroke-width:5;stroke-linecap:butt;stroke-linejoin:round;stroke-miterlimit:10;stroke-dasharray:none"
         id="path8011" /><path
         d="m 5184,2160 -40,0"
         style="fill:none;stroke:#000000;stroke-opacity:1;stroke-width:5;stroke-linecap:butt;stroke-linejoin:round;stroke-miterlimit:10;stroke-dasharray:none"
         id="path8013" /><path
         d="m 720,2736 40,0"
         style="fill:none;stroke:#000000;stroke-opacity:1;stroke-width:5;stroke-linecap:butt;stroke-linejoin:round;stroke-miterlimit:10;stroke-dasharray:none"
         id="path8015" /><path
         d="m 5184,2736 -40,0"
         style="fill:none;stroke:#000000;stroke-opacity:1;stroke-width:5;stroke-linecap:butt;stroke-linejoin:round;stroke-miterlimit:10;stroke-dasharray:none"
         id="path8017" /><path
         d="m 720,3312 40,0"
         style="fill:none;stroke:#000000;stroke-opacity:1;stroke-width:5;stroke-linecap:butt;stroke-linejoin:round;stroke-miterlimit:10;stroke-dasharray:none"
         id="path8019" /><path
         d="m 5184,3312 -40,0"
         style="fill:none;stroke:#000000;stroke-opacity:1;stroke-width:5;stroke-linecap:butt;stroke-linejoin:round;stroke-miterlimit:10;stroke-dasharray:none"
         id="path8021" /><path
         d="m 720,3888 40,0"
         style="fill:none;stroke:#000000;stroke-opacity:1;stroke-width:5;stroke-linecap:butt;stroke-linejoin:round;stroke-miterlimit:10;stroke-dasharray:none"
         id="path8023" /><path
         d="m 5184,3888 -40,0"
         style="fill:none;stroke:#000000;stroke-opacity:1;stroke-width:5;stroke-linecap:butt;stroke-linejoin:round;stroke-miterlimit:10;stroke-dasharray:none"
         id="path8025" /><path
         d="m 720,3888 4464,0"
         style="fill:none;stroke:#000000;stroke-opacity:1;stroke-width:10;stroke-linecap:square;stroke-linejoin:round;stroke-miterlimit:10;stroke-dasharray:none"
         id="path8027" /><path
         d="m 5184,432 0,3456"
         style="fill:none;stroke:#000000;stroke-opacity:1;stroke-width:10;stroke-linecap:square;stroke-linejoin:round;stroke-miterlimit:10;stroke-dasharray:none"
         id="path8029" /><path
         d="m 720,432 4464,0"
         style="fill:none;stroke:#000000;stroke-opacity:1;stroke-width:10;stroke-linecap:square;stroke-linejoin:round;stroke-miterlimit:10;stroke-dasharray:none"
         id="path8031" /><path
         d="m 720,432 0,3456"
         style="fill:none;stroke:#000000;stroke-opacity:1;stroke-width:10;stroke-linecap:square;stroke-linejoin:round;stroke-miterlimit:10;stroke-dasharray:none"
         id="path8033" /><path
         d="m 792,3385.99 1041.75,0 0,430.012 -1041.75,0 0,-430.012 z"
         style="fill:#ffffff;fill-opacity:1;fill-rule:nonzero;stroke:none"
         id="path8035" /><path
         d="m 792,3385.99 1041.75,0 0,430.012 -1041.75,0 0,-430.012 z"
         style="fill:none;stroke:#000000;stroke-opacity:1;stroke-width:10;stroke-linecap:square;stroke-linejoin:round;stroke-miterlimit:10;stroke-dasharray:none"
         id="path8037" /><path
         d="m 892.801,3702.35 201.599,0"
         style="fill:none;stroke:#000000;stroke-opacity:1;stroke-width:10;stroke-linecap:square;stroke-linejoin:round;stroke-miterlimit:10;stroke-dasharray:none"
         id="path8039" /><path
         d="m 892.801,3496.66 201.599,0"
         style="fill:none;stroke:#ff0000;stroke-opacity:1;stroke-width:10;stroke-linecap:square;stroke-linejoin:round;stroke-miterlimit:10;stroke-dasharray:none"
         id="path8041" /><g
         id="g8043"><g
           id="g8045"
           clip-path="url(#clipPath8047)"><g
             id="g8051"
             transform="matrix(960,0,0,-4.8,-958.92,2426.28)"><rect
               x="0"
               y="0"
               width="1"
               height="1"
               transform="matrix(1,0,0,-1,0,1)"
               style="fill:#000000;fill-opacity:1;fill-rule:nonzero"
               id="rect8053" /></g></g></g><path
         d="m 744.242,353.277 c 0,9.93 -0.605,19.621 -4.902,28.715 -4.899,9.93 -13.492,12.57 -19.344,12.57 -6.926,0 -15.402,-3.476 -19.824,-13.406 -3.34,-7.539 -4.535,-14.953 -4.535,-27.875 0,-11.605 0.836,-20.34 5.133,-28.836 4.656,-9.09 12.898,-11.965 19.105,-11.965 10.391,0 16.359,6.223 19.824,13.165 4.297,8.968 4.543,20.695 4.543,27.632 z m -24.363,-38.394 c -3.813,0 -11.551,2.152 -13.813,15.187 -1.308,7.18 -1.308,16.27 -1.308,24.641 0,9.809 0,18.66 1.902,25.715 2.024,8.015 8.098,11.734 13.219,11.734 4.523,0 11.426,-2.762 13.691,-13.051 1.551,-6.816 1.551,-16.265 1.551,-24.398 0,-8.016 0,-17.106 -1.316,-24.402 -2.262,-13.157 -9.762,-15.43 -13.926,-15.43"
         style="fill:#000000;fill-opacity:1;fill-rule:nonzero;stroke:none"
         id="path8055" /><path
         d="m 1234.8,383.504 c 5.13,-1.664 9.31,-1.785 10.62,-1.785 13.48,0 22.08,9.961 22.08,11.644 0,0.481 -0.25,1.078 -0.96,1.078 -0.24,0 -0.48,0 -1.56,-0.48 -6.68,-2.879 -12.41,-3.238 -15.52,-3.238 -7.87,0 -13.48,2.398 -15.75,3.359 -0.84,0.359 -1.08,0.359 -1.19,0.359 -0.96,0 -0.96,-0.726 -0.96,-2.64 l 0,-35.551 c 0,-2.156 0,-2.871 1.39,-2.871 0.58,0 0.69,0.117 1.85,1.543 3.36,4.867 9,7.719 14.99,7.719 6.36,0 9.48,-5.852 10.44,-7.883 2.04,-4.656 2.16,-10.504 2.16,-15.043 0,-4.535 0,-11.34 -3.35,-16.711 -2.63,-4.297 -7.3,-7.281 -12.56,-7.281 -7.9,0 -15.68,5.379 -17.83,14.101 0.6,-0.285 1.31,-0.429 1.91,-0.429 2.04,0 5.27,1.199 5.27,5.281 0,3.359 -2.28,5.281 -5.27,5.281 -2.15,0 -5.26,-1.082 -5.26,-5.738 0,-10.153 8.14,-21.735 21.43,-21.735 13.53,0 25.39,11.344 25.39,26.512 0,14.215 -9.58,26.043 -22.14,26.043 -6.81,0 -12.07,-2.965 -15.18,-6.285"
         style="fill:#000000;fill-opacity:1;fill-rule:nonzero;stroke:none"
         id="path8057" /><path
         d="m 1331.76,353.277 c 0,9.93 -0.6,19.621 -4.9,28.715 -4.9,9.93 -13.5,12.57 -19.35,12.57 -6.92,0 -15.4,-3.476 -19.82,-13.406 -3.34,-7.539 -4.54,-14.953 -4.54,-27.875 0,-11.605 0.84,-20.34 5.14,-28.836 4.66,-9.09 12.89,-11.965 19.1,-11.965 10.39,0 16.36,6.223 19.82,13.165 4.31,8.968 4.55,20.695 4.55,27.632 z m -24.36,-38.394 c -3.81,0 -11.55,2.152 -13.81,15.187 -1.31,7.18 -1.31,16.27 -1.31,24.641 0,9.809 0,18.66 1.9,25.715 2.03,8.015 8.1,11.734 13.22,11.734 4.53,0 11.43,-2.762 13.69,-13.051 1.55,-6.816 1.55,-16.265 1.55,-24.398 0,-8.016 0,-17.106 -1.31,-24.402 -2.26,-13.157 -9.76,-15.43 -13.93,-15.43"
         style="fill:#000000;fill-opacity:1;fill-rule:nonzero;stroke:none"
         id="path8059" /><path
         d="m 1782.6,391.68 c 0,2.754 0,2.882 -2.39,2.882 -2.87,-3.242 -8.85,-7.683 -21.17,-7.683 l 0,-3.481 c 2.75,0 8.71,0 15.28,3.094 l 0,-62.273 c 0,-4.305 -0.36,-5.739 -10.86,-5.739 l -3.7,0 0,-3.48 c 3.23,0.238 14.83,0.238 18.77,0.238 3.94,0 15.42,0 18.65,-0.238 l 0,3.48 -3.71,0 c -10.51,0 -10.87,1.438 -10.87,5.743"
         style="fill:#000000;fill-opacity:1;fill-rule:nonzero;stroke:none"
         id="path8061" /><path
         d="m 1860.48,353.277 c 0,9.93 -0.6,19.621 -4.9,28.715 -4.9,9.93 -13.49,12.57 -19.35,12.57 -6.92,0 -15.4,-3.476 -19.82,-13.406 -3.34,-7.539 -4.53,-14.953 -4.53,-27.875 0,-11.605 0.83,-20.34 5.13,-28.836 4.65,-9.09 12.89,-11.965 19.1,-11.965 10.39,0 16.36,6.223 19.83,13.165 4.29,8.968 4.54,20.695 4.54,27.632 z m -24.36,-38.394 c -3.81,0 -11.55,2.152 -13.81,15.187 -1.31,7.18 -1.31,16.27 -1.31,24.641 0,9.809 0,18.66 1.91,25.715 2.02,8.015 8.09,11.734 13.21,11.734 4.52,0 11.43,-2.762 13.69,-13.051 1.55,-6.816 1.55,-16.265 1.55,-24.398 0,-8.016 0,-17.106 -1.31,-24.402 -2.26,-13.157 -9.76,-15.43 -13.93,-15.43"
         style="fill:#000000;fill-opacity:1;fill-rule:nonzero;stroke:none"
         id="path8063" /><path
         d="m 1919.28,353.277 c 0,9.93 -0.6,19.621 -4.9,28.715 -4.9,9.93 -13.5,12.57 -19.35,12.57 -6.92,0 -15.4,-3.476 -19.82,-13.406 -3.34,-7.539 -4.53,-14.953 -4.53,-27.875 0,-11.605 0.83,-20.34 5.13,-28.836 4.65,-9.09 12.89,-11.965 19.1,-11.965 10.39,0 16.36,6.223 19.82,13.165 4.31,8.968 4.55,20.695 4.55,27.632 z m -24.36,-38.394 c -3.81,0 -11.55,2.152 -13.81,15.187 -1.31,7.18 -1.31,16.27 -1.31,24.641 0,9.809 0,18.66 1.9,25.715 2.03,8.015 8.1,11.734 13.22,11.734 4.53,0 11.43,-2.762 13.69,-13.051 1.55,-6.816 1.55,-16.265 1.55,-24.398 0,-8.016 0,-17.106 -1.31,-24.402 -2.26,-13.157 -9.76,-15.43 -13.93,-15.43"
         style="fill:#000000;fill-opacity:1;fill-rule:nonzero;stroke:none"
         id="path8065" /><path
         d="m 2340.6,391.68 c 0,2.754 0,2.882 -2.39,2.882 -2.87,-3.242 -8.85,-7.683 -21.17,-7.683 l 0,-3.481 c 2.75,0 8.71,0 15.28,3.094 l 0,-62.273 c 0,-4.305 -0.36,-5.739 -10.86,-5.739 l -3.7,0 0,-3.48 c 3.23,0.238 14.83,0.238 18.77,0.238 3.94,0 15.42,0 18.65,-0.238 l 0,3.48 -3.71,0 c -10.51,0 -10.87,1.438 -10.87,5.743"
         style="fill:#000000;fill-opacity:1;fill-rule:nonzero;stroke:none"
         id="path8067" /><path
         d="m 2380.32,383.504 c 5.13,-1.664 9.31,-1.785 10.62,-1.785 13.48,0 22.08,9.961 22.08,11.644 0,0.481 -0.25,1.078 -0.97,1.078 -0.23,0 -0.47,0 -1.55,-0.48 -6.68,-2.879 -12.41,-3.238 -15.52,-3.238 -7.87,0 -13.48,2.398 -15.75,3.359 -0.84,0.359 -1.08,0.359 -1.19,0.359 -0.96,0 -0.96,-0.726 -0.96,-2.64 l 0,-35.551 c 0,-2.156 0,-2.871 1.39,-2.871 0.58,0 0.69,0.117 1.85,1.543 3.36,4.867 9,7.719 14.99,7.719 6.36,0 9.48,-5.852 10.44,-7.883 2.04,-4.656 2.16,-10.504 2.16,-15.043 0,-4.535 0,-11.34 -3.35,-16.711 -2.63,-4.297 -7.29,-7.281 -12.56,-7.281 -7.9,0 -15.68,5.379 -17.83,14.101 0.6,-0.285 1.31,-0.429 1.91,-0.429 2.04,0 5.27,1.199 5.27,5.281 0,3.359 -2.28,5.281 -5.27,5.281 -2.15,0 -5.26,-1.082 -5.26,-5.738 0,-10.153 8.14,-21.735 21.43,-21.735 13.53,0 25.39,11.344 25.39,26.512 0,14.215 -9.58,26.043 -22.14,26.043 -6.81,0 -12.07,-2.965 -15.18,-6.285"
         style="fill:#000000;fill-opacity:1;fill-rule:nonzero;stroke:none"
         id="path8069" /><path
         d="m 2477.28,353.277 c 0,9.93 -0.6,19.621 -4.9,28.715 -4.9,9.93 -13.5,12.57 -19.35,12.57 -6.92,0 -15.4,-3.476 -19.82,-13.406 -3.34,-7.539 -4.53,-14.953 -4.53,-27.875 0,-11.605 0.83,-20.34 5.13,-28.836 4.65,-9.09 12.89,-11.965 19.1,-11.965 10.39,0 16.36,6.223 19.82,13.165 4.31,8.968 4.55,20.695 4.55,27.632 z m -24.36,-38.394 c -3.81,0 -11.55,2.152 -13.81,15.187 -1.31,7.18 -1.31,16.27 -1.31,24.641 0,9.809 0,18.66 1.9,25.715 2.03,8.015 8.1,11.734 13.22,11.734 4.53,0 11.43,-2.762 13.69,-13.051 1.55,-6.816 1.55,-16.265 1.55,-24.398 0,-8.016 0,-17.106 -1.31,-24.402 -2.26,-13.157 -9.76,-15.43 -13.93,-15.43"
         style="fill:#000000;fill-opacity:1;fill-rule:nonzero;stroke:none"
         id="path8071" /><path
         d="m 2916.84,335.086 -2.64,0 c -0.36,-2.027 -1.31,-8.586 -2.51,-10.492 -0.84,-1.074 -7.67,-1.074 -11.26,-1.074 l -22.16,0 c 3.23,2.753 10.54,10.406 13.66,13.273 18.2,16.742 24.91,22.961 24.91,34.801 0,13.75 -10.9,22.968 -24.78,22.968 -13.88,0 -22.02,-11.882 -22.02,-22.207 0,-6.121 5.28,-6.121 5.64,-6.121 2.52,0 5.64,1.801 5.64,5.641 0,3.363 -2.29,5.645 -5.66,5.645 -1.09,0 -1.33,0 -1.7,0 2.28,8.085 8.74,13.558 16.52,13.558 10.17,0 16.4,-8.5 16.4,-19.504 0,-10.168 -5.86,-19.019 -12.68,-26.672 l -24.16,-27.031 0,-2.871 43.68,0"
         style="fill:#000000;fill-opacity:1;fill-rule:nonzero;stroke:none"
         id="path8073" /><path
         d="m 2976.48,353.277 c 0,9.93 -0.6,19.621 -4.9,28.715 -4.9,9.93 -13.49,12.57 -19.35,12.57 -6.92,0 -15.4,-3.476 -19.82,-13.406 -3.34,-7.539 -4.53,-14.953 -4.53,-27.875 0,-11.605 0.83,-20.34 5.13,-28.836 4.65,-9.09 12.89,-11.965 19.1,-11.965 10.39,0 16.36,6.223 19.83,13.165 4.29,8.968 4.54,20.695 4.54,27.632 z m -24.36,-38.394 c -3.81,0 -11.55,2.152 -13.81,15.187 -1.31,7.18 -1.31,16.27 -1.31,24.641 0,9.809 0,18.66 1.91,25.715 2.02,8.015 8.09,11.734 13.21,11.734 4.52,0 11.43,-2.762 13.69,-13.051 1.55,-6.816 1.55,-16.265 1.55,-24.398 0,-8.016 0,-17.106 -1.31,-24.402 -2.26,-13.157 -9.76,-15.43 -13.93,-15.43"
         style="fill:#000000;fill-opacity:1;fill-rule:nonzero;stroke:none"
         id="path8075" /><path
         d="m 3035.28,353.277 c 0,9.93 -0.6,19.621 -4.9,28.715 -4.9,9.93 -13.5,12.57 -19.35,12.57 -6.92,0 -15.4,-3.476 -19.82,-13.406 -3.34,-7.539 -4.53,-14.953 -4.53,-27.875 0,-11.605 0.83,-20.34 5.13,-28.836 4.65,-9.09 12.89,-11.965 19.1,-11.965 10.39,0 16.36,6.223 19.82,13.165 4.31,8.968 4.55,20.695 4.55,27.632 z m -24.36,-38.394 c -3.81,0 -11.55,2.152 -13.81,15.187 -1.31,7.18 -1.31,16.27 -1.31,24.641 0,9.809 0,18.66 1.9,25.715 2.03,8.015 8.1,11.734 13.22,11.734 4.53,0 11.43,-2.762 13.69,-13.051 1.55,-6.816 1.55,-16.265 1.55,-24.398 0,-8.016 0,-17.106 -1.31,-24.402 -2.26,-13.157 -9.76,-15.43 -13.93,-15.43"
         style="fill:#000000;fill-opacity:1;fill-rule:nonzero;stroke:none"
         id="path8077" /><path
         d="m 3474.84,335.086 -2.64,0 c -0.36,-2.027 -1.31,-8.586 -2.51,-10.492 -0.84,-1.074 -7.67,-1.074 -11.26,-1.074 l -22.16,0 c 3.23,2.753 10.54,10.406 13.66,13.273 18.2,16.742 24.91,22.961 24.91,34.801 0,13.75 -10.9,22.968 -24.78,22.968 -13.88,0 -22.02,-11.882 -22.02,-22.207 0,-6.121 5.28,-6.121 5.64,-6.121 2.52,0 5.64,1.801 5.64,5.641 0,3.363 -2.29,5.645 -5.66,5.645 -1.09,0 -1.33,0 -1.7,0 2.28,8.085 8.74,13.558 16.52,13.558 10.17,0 16.4,-8.5 16.4,-19.504 0,-10.168 -5.86,-19.019 -12.68,-26.672 l -24.16,-27.031 0,-2.871 43.68,0"
         style="fill:#000000;fill-opacity:1;fill-rule:nonzero;stroke:none"
         id="path8079" /><path
         d="m 3496.32,383.504 c 5.13,-1.664 9.31,-1.785 10.62,-1.785 13.48,0 22.08,9.961 22.08,11.644 0,0.481 -0.25,1.078 -0.97,1.078 -0.23,0 -0.47,0 -1.55,-0.48 -6.68,-2.879 -12.41,-3.238 -15.52,-3.238 -7.87,0 -13.48,2.398 -15.75,3.359 -0.84,0.359 -1.08,0.359 -1.19,0.359 -0.96,0 -0.96,-0.726 -0.96,-2.64 l 0,-35.551 c 0,-2.156 0,-2.871 1.39,-2.871 0.58,0 0.69,0.117 1.85,1.543 3.36,4.867 9,7.719 14.99,7.719 6.36,0 9.48,-5.852 10.44,-7.883 2.04,-4.656 2.16,-10.504 2.16,-15.043 0,-4.535 0,-11.34 -3.35,-16.711 -2.63,-4.297 -7.29,-7.281 -12.56,-7.281 -7.9,0 -15.68,5.379 -17.83,14.101 0.6,-0.285 1.31,-0.429 1.91,-0.429 2.04,0 5.27,1.199 5.27,5.281 0,3.359 -2.28,5.281 -5.27,5.281 -2.15,0 -5.26,-1.082 -5.26,-5.738 0,-10.153 8.14,-21.735 21.43,-21.735 13.53,0 25.39,11.344 25.39,26.512 0,14.215 -9.58,26.043 -22.14,26.043 -6.81,0 -12.07,-2.965 -15.18,-6.285"
         style="fill:#000000;fill-opacity:1;fill-rule:nonzero;stroke:none"
         id="path8081" /><path
         d="m 3593.28,353.277 c 0,9.93 -0.6,19.621 -4.9,28.715 -4.9,9.93 -13.5,12.57 -19.35,12.57 -6.92,0 -15.4,-3.476 -19.82,-13.406 -3.34,-7.539 -4.53,-14.953 -4.53,-27.875 0,-11.605 0.83,-20.34 5.13,-28.836 4.65,-9.09 12.89,-11.965 19.1,-11.965 10.39,0 16.36,6.223 19.82,13.165 4.31,8.968 4.55,20.695 4.55,27.632 z m -24.36,-38.394 c -3.81,0 -11.55,2.152 -13.81,15.187 -1.31,7.18 -1.31,16.27 -1.31,24.641 0,9.809 0,18.66 1.9,25.715 2.03,8.015 8.1,11.734 13.22,11.734 4.53,0 11.43,-2.762 13.69,-13.051 1.55,-6.816 1.55,-16.265 1.55,-24.398 0,-8.016 0,-17.106 -1.31,-24.402 -2.26,-13.157 -9.76,-15.43 -13.93,-15.43"
         style="fill:#000000;fill-opacity:1;fill-rule:nonzero;stroke:none"
         id="path8083" /><path
         d="m 4002.13,357.957 c -2.02,-0.117 -2.5,-0.238 -2.5,-1.316 0,-1.203 0.59,-1.203 2.74,-1.203 l 5.49,0 c 10.13,0 14.66,-8.379 14.66,-19.86 0,-15.668 -8.11,-19.855 -13.96,-19.855 -5.72,0 -15.51,2.726 -18.96,10.55 3.81,-0.515 7.27,1.633 7.27,5.922 0,3.457 -2.5,5.84 -5.84,5.84 -2.87,0 -5.97,-1.672 -5.97,-6.211 0,-10.625 10.63,-19.344 23.89,-19.344 14.21,0 24.73,10.887 24.73,22.973 0,11.004 -8.84,19.617 -20.3,21.652 10.39,2.993 17.07,11.727 17.07,21.055 0,9.453 -9.79,16.399 -21.36,16.399 -11.94,0 -20.77,-7.321 -20.77,-16.079 0,-4.8 3.72,-5.757 5.52,-5.757 2.52,0 5.4,1.797 5.4,5.398 0,3.84 -2.9,5.524 -5.56,5.524 -0.72,0 -0.96,0 -1.32,0 4.53,8.035 15.73,8.035 16.33,8.035 3.93,0 11.69,-1.801 11.69,-13.52 0,-2.269 -0.36,-8.965 -3.82,-14.105 -3.58,-5.258 -7.63,-5.617 -10.85,-5.739"
         style="fill:#000000;fill-opacity:1;fill-rule:nonzero;stroke:none"
         id="path8085" /><path
         d="m 4092.48,353.277 c 0,9.93 -0.6,19.621 -4.9,28.715 -4.9,9.93 -13.49,12.57 -19.35,12.57 -6.92,0 -15.4,-3.476 -19.82,-13.406 -3.34,-7.539 -4.53,-14.953 -4.53,-27.875 0,-11.605 0.83,-20.34 5.13,-28.836 4.65,-9.09 12.89,-11.965 19.1,-11.965 10.39,0 16.36,6.223 19.83,13.165 4.29,8.968 4.54,20.695 4.54,27.632 z m -24.36,-38.394 c -3.81,0 -11.55,2.152 -13.81,15.187 -1.31,7.18 -1.31,16.27 -1.31,24.641 0,9.809 0,18.66 1.91,25.715 2.02,8.015 8.09,11.734 13.21,11.734 4.52,0 11.43,-2.762 13.69,-13.051 1.55,-6.816 1.55,-16.265 1.55,-24.398 0,-8.016 0,-17.106 -1.31,-24.402 -2.26,-13.157 -9.76,-15.43 -13.93,-15.43"
         style="fill:#000000;fill-opacity:1;fill-rule:nonzero;stroke:none"
         id="path8087" /><path
         d="m 4151.28,353.277 c 0,9.93 -0.6,19.621 -4.9,28.715 -4.9,9.93 -13.5,12.57 -19.35,12.57 -6.92,0 -15.4,-3.476 -19.82,-13.406 -3.34,-7.539 -4.53,-14.953 -4.53,-27.875 0,-11.605 0.83,-20.34 5.13,-28.836 4.65,-9.09 12.89,-11.965 19.1,-11.965 10.39,0 16.36,6.223 19.82,13.165 4.31,8.968 4.55,20.695 4.55,27.632 z m -24.36,-38.394 c -3.81,0 -11.55,2.152 -13.81,15.187 -1.31,7.18 -1.31,16.27 -1.31,24.641 0,9.809 0,18.66 1.9,25.715 2.03,8.015 8.1,11.734 13.22,11.734 4.53,0 11.43,-2.762 13.69,-13.051 1.55,-6.816 1.55,-16.265 1.55,-24.398 0,-8.016 0,-17.106 -1.31,-24.402 -2.26,-13.157 -9.76,-15.43 -13.93,-15.43"
         style="fill:#000000;fill-opacity:1;fill-rule:nonzero;stroke:none"
         id="path8089" /><path
         d="m 4560.13,357.957 c -2.02,-0.117 -2.5,-0.238 -2.5,-1.316 0,-1.203 0.59,-1.203 2.74,-1.203 l 5.49,0 c 10.13,0 14.66,-8.379 14.66,-19.86 0,-15.668 -8.11,-19.855 -13.96,-19.855 -5.72,0 -15.51,2.726 -18.96,10.55 3.81,-0.515 7.27,1.633 7.27,5.922 0,3.457 -2.5,5.84 -5.84,5.84 -2.87,0 -5.97,-1.672 -5.97,-6.211 0,-10.625 10.63,-19.344 23.89,-19.344 14.21,0 24.73,10.887 24.73,22.973 0,11.004 -8.84,19.617 -20.3,21.652 10.39,2.993 17.07,11.727 17.07,21.055 0,9.453 -9.79,16.399 -21.36,16.399 -11.94,0 -20.77,-7.321 -20.77,-16.079 0,-4.8 3.72,-5.757 5.52,-5.757 2.52,0 5.4,1.797 5.4,5.398 0,3.84 -2.9,5.524 -5.56,5.524 -0.72,0 -0.96,0 -1.32,0 4.53,8.035 15.73,8.035 16.33,8.035 3.93,0 11.69,-1.801 11.69,-13.52 0,-2.269 -0.36,-8.965 -3.82,-14.105 -3.58,-5.258 -7.63,-5.617 -10.85,-5.739"
         style="fill:#000000;fill-opacity:1;fill-rule:nonzero;stroke:none"
         id="path8091" /><path
         d="m 4612.32,383.504 c 5.13,-1.664 9.31,-1.785 10.62,-1.785 13.48,0 22.08,9.961 22.08,11.644 0,0.481 -0.25,1.078 -0.96,1.078 -0.24,0 -0.48,0 -1.56,-0.48 -6.68,-2.879 -12.41,-3.238 -15.52,-3.238 -7.87,0 -13.48,2.398 -15.75,3.359 -0.84,0.359 -1.08,0.359 -1.19,0.359 -0.96,0 -0.96,-0.726 -0.96,-2.64 l 0,-35.551 c 0,-2.156 0,-2.871 1.39,-2.871 0.58,0 0.69,0.117 1.85,1.543 3.36,4.867 9,7.719 14.99,7.719 6.36,0 9.48,-5.852 10.44,-7.883 2.04,-4.656 2.16,-10.504 2.16,-15.043 0,-4.535 0,-11.34 -3.35,-16.711 -2.63,-4.297 -7.29,-7.281 -12.56,-7.281 -7.9,0 -15.68,5.379 -17.83,14.101 0.6,-0.285 1.31,-0.429 1.91,-0.429 2.04,0 5.27,1.199 5.27,5.281 0,3.359 -2.28,5.281 -5.27,5.281 -2.15,0 -5.26,-1.082 -5.26,-5.738 0,-10.153 8.14,-21.735 21.43,-21.735 13.53,0 25.39,11.344 25.39,26.512 0,14.215 -9.58,26.043 -22.14,26.043 -6.81,0 -12.07,-2.965 -15.18,-6.285"
         style="fill:#000000;fill-opacity:1;fill-rule:nonzero;stroke:none"
         id="path8093" /><path
         d="m 4709.28,353.277 c 0,9.93 -0.6,19.621 -4.9,28.715 -4.9,9.93 -13.5,12.57 -19.35,12.57 -6.92,0 -15.4,-3.476 -19.82,-13.406 -3.34,-7.539 -4.53,-14.953 -4.53,-27.875 0,-11.605 0.83,-20.34 5.13,-28.836 4.65,-9.09 12.89,-11.965 19.1,-11.965 10.39,0 16.36,6.223 19.82,13.165 4.31,8.968 4.55,20.695 4.55,27.632 z m -24.36,-38.394 c -3.81,0 -11.55,2.152 -13.81,15.187 -1.31,7.18 -1.31,16.27 -1.31,24.641 0,9.809 0,18.66 1.9,25.715 2.03,8.015 8.1,11.734 13.22,11.734 4.53,0 11.43,-2.762 13.69,-13.051 1.55,-6.816 1.55,-16.265 1.55,-24.398 0,-8.016 0,-17.106 -1.31,-24.402 -2.26,-13.157 -9.76,-15.43 -13.93,-15.43"
         style="fill:#000000;fill-opacity:1;fill-rule:nonzero;stroke:none"
         id="path8095" /><path
         d="m 5139.36,392.758 c 0,2.269 0,2.879 -1.68,2.879 -0.96,0 -1.32,0 -2.28,-1.446 l -36.01,-55.789 0,-3.48 31.45,0 0,-10.844 c 0,-4.406 -0.25,-5.598 -8.97,-5.598 l -2.39,0 0,-3.48 c 2.75,0.238 12.19,0.238 15.54,0.238 3.35,0 12.91,0 15.66,-0.238 l 0,3.48 -2.38,0 c -8.58,0 -8.94,1.192 -8.94,5.598 l 0,10.844 12.04,0 0,3.48 -12.04,0 0,54.356 z m -7.92,-9.254 0,-45.102 -29.06,0"
         style="fill:#000000;fill-opacity:1;fill-rule:nonzero;stroke:none"
         id="path8097" /><path
         d="m 5208.48,353.277 c 0,9.93 -0.6,19.621 -4.9,28.715 -4.9,9.93 -13.5,12.57 -19.35,12.57 -6.92,0 -15.4,-3.476 -19.82,-13.406 -3.34,-7.539 -4.53,-14.953 -4.53,-27.875 0,-11.605 0.83,-20.34 5.13,-28.836 4.65,-9.09 12.89,-11.965 19.1,-11.965 10.39,0 16.36,6.223 19.83,13.165 4.29,8.968 4.54,20.695 4.54,27.632 z m -24.36,-38.394 c -3.81,0 -11.55,2.152 -13.81,15.187 -1.31,7.18 -1.31,16.27 -1.31,24.641 0,9.809 0,18.66 1.91,25.715 2.02,8.015 8.09,11.734 13.21,11.734 4.52,0 11.43,-2.762 13.69,-13.051 1.55,-6.816 1.55,-16.265 1.55,-24.398 0,-8.016 0,-17.106 -1.31,-24.402 -2.26,-13.157 -9.76,-15.43 -13.93,-15.43"
         style="fill:#000000;fill-opacity:1;fill-rule:nonzero;stroke:none"
         id="path8099" /><path
         d="m 5267.28,353.277 c 0,9.93 -0.6,19.621 -4.9,28.715 -4.9,9.93 -13.5,12.57 -19.35,12.57 -6.92,0 -15.4,-3.476 -19.82,-13.406 -3.34,-7.539 -4.53,-14.953 -4.53,-27.875 0,-11.605 0.83,-20.34 5.13,-28.836 4.65,-9.09 12.89,-11.965 19.1,-11.965 10.39,0 16.36,6.223 19.82,13.165 4.31,8.968 4.55,20.695 4.55,27.632 z m -24.36,-38.394 c -3.81,0 -11.55,2.152 -13.81,15.187 -1.31,7.18 -1.31,16.27 -1.31,24.641 0,9.809 0,18.66 1.9,25.715 2.03,8.015 8.1,11.734 13.22,11.734 4.53,0 11.43,-2.762 13.69,-13.051 1.55,-6.816 1.55,-16.265 1.55,-24.398 0,-8.016 0,-17.106 -1.31,-24.402 -2.26,-13.157 -9.76,-15.43 -13.93,-15.43"
         style="fill:#000000;fill-opacity:1;fill-rule:nonzero;stroke:none"
         id="path8101" /><path
         d="m 2515.92,265.559 -20.65,-1.321 0,-5.16 4.21,0 c 4.44,0 5.16,-0.848 5.16,-5.984 l 0,-46.473 c 0,-16.008 -0.61,-23.773 -2.19,-30.824 l 4.54,0 5.86,9.336 c 4.9,-6.379 10.51,-9.336 17.92,-9.336 14.71,0 25.71,12.762 25.71,29.937 0,17.172 -10.02,29.227 -24.34,29.227 -7.27,0 -11.69,-2.504 -16.22,-9.301 l 0,39.899 z m 13.99,-36.719 c 8.95,0 13.97,-8.699 13.97,-24.301 0,-15.004 -4.9,-23.578 -13.61,-23.578 -9.42,0 -15.03,8.691 -15.03,23.34 0,15.84 5.13,24.539 14.67,24.539"
         style="fill:#000000;fill-opacity:1;fill-rule:nonzero;stroke:none"
         id="path8103" /><path
         d="m 2609.52,176.645 21.82,0.835 0,5.161 -3,0 c -6.58,0 -7.54,1.074 -7.54,8.718 l 0,41.801 -22.46,-1.32 0,-5.164 6.07,0 c 4.39,0 5.11,-0.84 5.11,-5.969 l 0,-14.68 c 0,-6.8 -0.72,-10.738 -2.51,-14.675 -2.51,-5.25 -7.28,-8.352 -13.13,-8.352 -3.71,0 -6.81,1.312 -8.36,3.703 -1.56,2.27 -1.79,3.461 -1.79,10.031 l 0,36.426 -20.89,-1.32 0,-5.164 4.5,0 c 4.39,0 5.11,-0.848 5.11,-5.981 l 0,-25.793 c 0,-6.09 0.47,-8.836 2.26,-11.582 3.23,-4.894 8.97,-7.64 16.15,-7.64 7.89,0 13.39,3.226 18.66,10.886"
         style="fill:#000000;fill-opacity:1;fill-rule:nonzero;stroke:none"
         id="path8105" /><path
         d="m 2657.2,233.16 -21.16,-1.32 0,-5.164 4.9,0 c 4.42,0 5.14,-0.836 5.14,-5.969 l 0,-33.297 c 0,-4.773 -1.32,-5.609 -9.09,-5.609 l -0.47,0 0,-4.321 31.91,0 0,4.321 -2.27,0 c -7.65,0 -8.96,0.836 -8.96,5.613 l 0,5.973 c 0,8.957 1.67,18.031 4.66,24.84 2.87,6.687 6.93,10.39 11.95,10.988 -1.67,-1.91 -2.15,-3.106 -2.15,-5.375 0,-3.82 2.75,-6.567 6.58,-6.567 4.3,0 7.29,3.223 7.29,8.122 0,5.73 -4.07,9.566 -10.4,9.566 -7.54,0 -14.11,-6.09 -17.93,-16.594"
         style="fill:#000000;fill-opacity:1;fill-rule:nonzero;stroke:none"
         id="path8107" /><path
         d="m 2710.2,233.16 -20.65,-1.32 0,-5.164 4.27,0 c 4.39,0 5.1,-0.836 5.1,-5.969 l 0,-33.297 c 0,-4.773 -1.31,-5.609 -8.9,-5.609 l -0.47,0 0,-4.321 30.24,0 0,4.321 -0.48,0 c -7.79,0 -9.11,0.836 -9.11,5.609 l 0,17.184 c 0,5.847 0.84,11.218 2.15,13.965 2.51,5.371 7.88,9.082 13.02,9.082 3.1,0 6.68,-1.801 8.48,-4.188 1.79,-2.508 2.63,-6.207 2.63,-11.933 l 0,-24.11 c 0,-4.773 -1.31,-5.609 -9.04,-5.609 l -0.48,0 0,-4.321 30.25,0 0,4.321 -0.48,0 c -7.66,0 -8.97,0.836 -8.97,5.613 l 0,23.527 c 0,8.602 -0.37,10.75 -2.52,14.813 -2.99,5.73 -9.09,9.207 -16.14,9.207 -7.66,0 -13.64,-3.578 -18.9,-11.453"
         style="fill:#000000;fill-opacity:1;fill-rule:nonzero;stroke:none"
         id="path8109" /><path
         d="m 2816.28,233.16 0,23.703 -4.9,0 c -1.19,-15.57 -6.44,-23.472 -16.11,-24.191 l 0,-4.672 9.73,0 0,-30.465 c 0,-8.359 0.24,-11.344 1.43,-14.094 1.92,-5.015 6.71,-7.761 13.66,-7.761 4.68,0 8.75,1.433 11.5,4.066 3.96,3.824 6.24,10.164 6.24,16.738 0,0.719 0,1.555 -0.13,2.754 l -5.02,0 c -0.36,-10.746 -3.47,-16.238 -9.34,-16.238 -2.75,0 -5.14,1.43 -5.98,3.461 -0.72,1.672 -1.08,4.656 -1.08,8.949 l 0,32.59 17.61,0 0,5.16"
         style="fill:#000000;fill-opacity:1;fill-rule:nonzero;stroke:none"
         id="path8111" /><path
         d="m 2864.52,233.16 -22.45,-1.32 0,-5.164 6.06,0 c 4.39,0 5.11,-0.836 5.11,-5.969 l 0,-33.297 c 0,-4.773 -1.31,-5.609 -8.9,-5.609 l -0.83,0 0,-4.321 30.96,0 0,4.321 -0.84,0 c -7.79,0 -9.11,0.836 -9.11,5.613 l 0,4.777 0,40.969 z m -5.64,29.883 c -3.84,0 -6.96,-3.121 -6.96,-6.965 0,-3.719 3.12,-6.961 6.84,-6.961 3.96,0 7.08,3.121 7.08,6.961 0,3.844 -3.12,6.965 -6.96,6.965"
         style="fill:#000000;fill-opacity:1;fill-rule:nonzero;stroke:none"
         id="path8113" /><path
         d="m 2901.12,233.16 -21.25,-1.32 0,-5.164 4.86,0 c 4.39,0 5.11,-0.836 5.11,-5.969 l 0,-33.176 c 0,-4.894 -1.3,-5.73 -8.9,-5.73 l -0.47,0 0,-4.321 30.12,0 0,4.321 -0.48,0 c -7.67,0 -8.99,0.836 -8.99,5.73 l 0,21.602 c 0,10.621 5.85,18.508 13.61,18.508 3.11,0 6.45,-1.684 7.88,-3.95 1.68,-2.265 2.39,-5.726 2.39,-10.621 l 0,-25.66 c 0,-4.773 -1.31,-5.609 -9.03,-5.609 l -0.47,0 0,-4.321 30.24,0 0,4.321 -0.48,0 c -7.66,0 -8.98,0.836 -8.98,5.609 l 0,20.645 c 0,11.937 5.37,19.586 13.73,19.586 3.94,0 7.16,-2.282 8.71,-5.981 1.07,-2.621 1.44,-5.25 1.44,-9.902 l 0,-24.348 c 0,-4.773 -1.31,-5.609 -9.04,-5.609 l -0.48,0 0,-4.321 30.25,0 0,4.321 -0.48,0 c -7.66,0 -8.97,0.836 -8.97,5.734 l 0,26.633 c 0,7.406 -0.73,9.914 -3.83,13.973 -3.47,4.418 -8.38,6.82 -14.11,6.82 -7.78,0 -13.52,-3.699 -18.66,-11.93 -2.03,7.157 -8.49,11.93 -16.5,11.93 -7.18,0 -12.56,-3.461 -17.22,-10.977"
         style="fill:#000000;fill-opacity:1;fill-rule:nonzero;stroke:none"
         id="path8115" /><path
         d="m 3039.52,204.359 c 0.12,17.926 -10.05,30.602 -24.63,30.602 -15.3,0 -26.78,-13.277 -26.78,-31.203 0,-16.727 10.88,-28.082 27.02,-28.082 11.35,0 19.48,5.621 24.39,16.98 l -4.19,2.278 c -4.9,-9.196 -9.92,-12.774 -17.93,-12.774 -6.1,0 -10.52,2.625 -13.63,7.875 -2.15,3.582 -3.11,7.758 -2.99,14.324 l 38.74,0 z m -38.62,5.161 c 0,3.699 0.48,6.32 1.67,9.664 2.52,7.156 6.34,10.617 12.08,10.617 7.29,0 12.07,-6.324 12.07,-15.867 0,-3.461 -1.07,-4.414 -4.9,-4.414"
         style="fill:#000000;fill-opacity:1;fill-rule:nonzero;stroke:none"
         id="path8117" /><path
         d="m 3095.04,168.836 0,90.48 16.78,0 0,4.442 -27.58,0 0,-99.242 27.58,0 0,4.32"
         style="fill:#000000;fill-opacity:1;fill-rule:nonzero;stroke:none"
         id="path8119" /><path
         d="m 3161.28,176.645 20.88,0.835 0,5.161 -2.16,0 c -6.48,0 -7.44,1.195 -7.44,8.722 l 0,74.196 -23.4,-1.321 0,-5.16 7.01,0 c 4.28,0 5.11,-0.844 5.11,-5.973 l 0,-26.964 c -4.42,6.078 -9.54,8.824 -16.46,8.824 -13.48,0 -23.73,-13.039 -23.73,-30.246 0,-16.969 9.89,-29.039 23.73,-29.039 7.51,0 12.64,3.23 16.46,10.41 l 0,-9.445 z m -13.98,51.835 c 4.9,0 9.56,-3.582 11.7,-9.074 1.44,-3.582 2.27,-8.594 2.27,-14.324 0,-13.848 -5.49,-22.922 -14.09,-22.922 -8.36,0 -13.5,7.879 -13.5,21.129 0,7.043 0.72,12.414 2.27,16.477 2.03,5.25 6.45,8.714 11.35,8.714"
         style="fill:#000000;fill-opacity:1;fill-rule:nonzero;stroke:none"
         id="path8121" /><path
         d="m 3238.32,215.973 c 0,7.523 -1.32,11.343 -4.78,14.211 -3.94,3.105 -9.79,4.777 -17.43,4.777 -13.36,0 -23.27,-6.332 -23.27,-14.93 0,-4.535 2.74,-7.402 6.91,-7.402 3.7,0 6.45,2.504 6.45,6.082 0,1.551 -0.58,3.219 -1.75,4.887 -0.7,0.836 -0.81,1.191 -0.81,1.55 0,2.504 4.87,4.653 10.57,4.653 3.68,0 7.84,-1.199 9.74,-2.989 2.25,-1.914 3.09,-4.781 3.09,-10.156 l 0,-4.66 c -12.52,-2.148 -16.34,-3.105 -22.18,-5.375 -10.25,-3.824 -15.26,-9.437 -15.26,-16.961 0,-8.484 6.83,-13.98 17.36,-13.98 8.25,0 15.68,3.351 20.83,9.453 1.91,-6.098 4.9,-8.488 10.53,-8.488 5.34,0 10.92,3.539 10.92,7.082 0,0.718 -0.6,1.316 -1.2,1.316 -0.49,0 -0.96,-0.121 -1.8,-0.481 -1.92,-0.714 -2.4,-0.835 -3.36,-0.835 -3.36,0 -4.56,2.269 -4.56,8.242 l 0,24.004 z m -11.28,-14.578 c 0,-7.168 -0.36,-8.84 -2.38,-11.946 -2.97,-4.422 -8.44,-7.406 -13.55,-7.406 -5.34,0 -9.38,3.941 -9.38,9.316 0,5.016 2.49,8.602 7.72,11.11 3.68,1.672 8.32,2.867 17.59,4.422"
         style="fill:#000000;fill-opacity:1;fill-rule:nonzero;stroke:none"
         id="path8123" /><path
         d="m 3284.99,192.664 -13.15,30.695 c -0.48,1.075 -0.72,1.911 -0.72,2.508 0,2.149 1.43,2.985 5.5,2.985 l 2.51,0 0,4.308 -28.45,0 0,-4.305 1.31,0 c 3.83,0 5.98,-1.671 8.13,-6.449 l 19.49,-44.062 -2.03,-4.176 c -4.29,-9.074 -9.9,-15.406 -13.71,-15.406 -1.07,0 -1.91,0.476 -1.91,1.191 0,0.238 0.12,0.594 0.23,1.07 0.34,1.071 0.56,2.141 0.56,3.094 0,3.094 -2.63,5.356 -6.09,5.356 -4.19,0 -7.18,-3.106 -7.18,-7.403 0,-5.25 4.66,-9.183 10.88,-9.183 6.34,0 11.72,3.105 16.5,9.551 3.71,5.019 6.1,9.792 11.35,23.05 l 13.63,33.684 c 2.99,7.285 5.5,9.672 10.05,9.672 l 0.72,0 0,4.32 -23.91,0 0,-4.312 1.91,0 c 4.54,0 6.45,-1.313 6.45,-4.418 0,-1.196 -0.35,-2.746 -1.19,-4.778"
         style="fill:#000000;fill-opacity:1;fill-rule:nonzero;stroke:none"
         id="path8125" /><path
         d="m 3359.34,234.477 -4.19,0 -3.46,-4.274 c -4.3,3.332 -8.6,4.758 -14.58,4.758 -10.51,0 -17.44,-6.934 -17.44,-17.328 0,-4.656 1.56,-8.602 4.19,-10.988 2.75,-2.512 5.5,-3.704 12.67,-5.375 l 6.34,-1.438 c 9.45,-2.27 12.8,-4.656 12.8,-9.434 0,-5.617 -4.9,-9.558 -11.96,-9.558 -10.06,0 -17.24,6.453 -20.11,18.398 l -4.79,0 0,-22.601 4.19,0 4.2,4.902 c 4.91,-3.949 10.41,-5.859 16.4,-5.859 11.73,0 19.51,7.285 19.51,18.394 0,5.258 -1.68,9.321 -5.03,12.067 -2.87,2.511 -5.26,3.464 -12.55,5.019 l -5.98,1.313 c -6.58,1.433 -6.58,1.433 -8.73,2.629 -2.63,1.195 -4.18,3.703 -4.18,6.332 0,4.777 4.53,8.246 11.09,8.246 4.54,0 8.24,-1.551 11.58,-4.766 2.63,-2.621 3.94,-5.004 5.85,-10.484 l 4.18,0"
         style="fill:#000000;fill-opacity:1;fill-rule:nonzero;stroke:none"
         id="path8127" /><path
         d="m 3388.92,259.438 0,-90.481 -16.69,0 0,-4.441 27.49,0 0,99.242 -27.49,0 0,-4.32"
         style="fill:#000000;fill-opacity:1;fill-rule:nonzero;stroke:none"
         id="path8129" /><path
         d="m 408.363,431.758 c 0,9.93 -0.605,19.621 -4.902,28.715 -4.899,9.929 -13.496,12.57 -19.348,12.57 -6.922,0 -15.402,-3.477 -19.82,-13.406 -3.344,-7.539 -4.535,-14.957 -4.535,-27.875 0,-11.606 0.832,-20.34 5.133,-28.836 4.656,-9.09 12.894,-11.965 19.105,-11.965 10.391,0 16.359,6.223 19.82,13.16 4.301,8.973 4.547,20.699 4.547,27.637 z m -24.367,-38.395 c -3.808,0 -11.547,2.153 -13.808,15.188 -1.309,7.179 -1.309,16.269 -1.309,24.64 0,9.809 0,18.661 1.902,25.715 2.024,8.016 8.098,11.735 13.215,11.735 4.527,0 11.43,-2.762 13.692,-13.051 1.55,-6.817 1.55,-16.266 1.55,-24.399 0,-8.015 0,-17.105 -1.312,-24.402 -2.262,-13.156 -9.762,-15.43 -13.93,-15.43"
         style="fill:#000000;fill-opacity:1;fill-rule:nonzero;stroke:none"
         id="path8131" /><path
         d="m 435.602,399.242 c 0,3.481 -2.883,5.879 -5.762,5.879 -3.481,0 -5.883,-2.879 -5.883,-5.762 0,-3.476 2.879,-5.879 5.762,-5.879 3.48,0 5.883,2.879 5.883,5.762"
         style="fill:#000000;fill-opacity:1;fill-rule:nonzero;stroke:none"
         id="path8133" /><path
         d="m 499.562,431.758 c 0,9.93 -0.605,19.621 -4.902,28.715 -4.898,9.929 -13.492,12.57 -19.344,12.57 -6.925,0 -15.406,-3.477 -19.824,-13.406 -3.34,-7.539 -4.535,-14.957 -4.535,-27.875 0,-11.606 0.836,-20.34 5.133,-28.836 4.656,-9.09 12.898,-11.965 19.105,-11.965 10.391,0 16.36,6.223 19.825,13.16 4.296,8.973 4.542,20.699 4.542,27.637 z m -24.363,-38.395 c -3.812,0 -11.551,2.153 -13.812,15.188 -1.309,7.179 -1.309,16.269 -1.309,24.64 0,9.809 0,18.661 1.902,25.715 2.024,8.016 8.098,11.735 13.219,11.735 4.524,0 11.426,-2.762 13.688,-13.051 1.554,-6.817 1.554,-16.266 1.554,-24.399 0,-8.015 0,-17.105 -1.316,-24.402 -2.262,-13.156 -9.762,-15.43 -13.926,-15.43"
         style="fill:#000000;fill-opacity:1;fill-rule:nonzero;stroke:none"
         id="path8135" /><path
         d="m 558.363,431.758 c 0,9.93 -0.605,19.621 -4.902,28.715 -4.899,9.929 -13.496,12.57 -19.348,12.57 -6.922,0 -15.402,-3.477 -19.82,-13.406 -3.344,-7.539 -4.535,-14.957 -4.535,-27.875 0,-11.606 0.832,-20.34 5.133,-28.836 4.656,-9.09 12.894,-11.965 19.105,-11.965 10.391,0 16.359,6.223 19.82,13.16 4.301,8.973 4.547,20.699 4.547,27.637 z m -24.367,-38.395 c -3.808,0 -11.547,2.153 -13.808,15.188 -1.309,7.179 -1.309,16.269 -1.309,24.64 0,9.809 0,18.661 1.902,25.715 2.024,8.016 8.098,11.735 13.215,11.735 4.527,0 11.43,-2.762 13.692,-13.051 1.55,-6.817 1.55,-16.266 1.55,-24.399 0,-8.015 0,-17.105 -1.312,-24.402 -2.262,-13.156 -9.762,-15.43 -13.93,-15.43"
         style="fill:#000000;fill-opacity:1;fill-rule:nonzero;stroke:none"
         id="path8137" /><path
         d="m 617.164,431.758 c 0,9.93 -0.605,19.621 -4.906,28.715 -4.895,9.929 -13.492,12.57 -19.344,12.57 -6.926,0 -15.402,-3.477 -19.82,-13.406 -3.344,-7.539 -4.539,-14.957 -4.539,-27.875 0,-11.606 0.836,-20.34 5.136,-28.836 4.657,-9.09 12.895,-11.965 19.106,-11.965 10.387,0 16.359,6.223 19.82,13.16 4.301,8.973 4.547,20.699 4.547,27.637 z m -24.367,-38.395 c -3.809,0 -11.547,2.153 -13.809,15.188 -1.312,7.179 -1.312,16.269 -1.312,24.64 0,9.809 0,18.661 1.906,25.715 2.023,8.016 8.094,11.735 13.215,11.735 4.523,0 11.43,-2.762 13.691,-13.051 1.551,-6.817 1.551,-16.266 1.551,-24.399 0,-8.015 0,-17.105 -1.312,-24.402 -2.262,-13.156 -9.766,-15.43 -13.93,-15.43"
         style="fill:#000000;fill-opacity:1;fill-rule:nonzero;stroke:none"
         id="path8139" /><path
         d="m 675.961,431.758 c 0,9.93 -0.602,19.621 -4.902,28.715 -4.895,9.929 -13.493,12.57 -19.344,12.57 -6.926,0 -15.403,-3.477 -19.82,-13.406 -3.344,-7.539 -4.54,-14.957 -4.54,-27.875 0,-11.606 0.836,-20.34 5.137,-28.836 4.656,-9.09 12.895,-11.965 19.106,-11.965 10.386,0 16.355,6.223 19.82,13.16 4.297,8.973 4.547,20.699 4.547,27.637 l -0.004,0 z m -24.363,-38.395 c -3.809,0 -11.551,2.153 -13.813,15.188 -1.308,7.179 -1.308,16.269 -1.308,24.64 0,9.809 0,18.661 1.906,25.715 2.023,8.016 8.094,11.735 13.215,11.735 4.523,0 11.429,-2.762 13.691,-13.051 1.551,-6.817 1.551,-16.266 1.551,-24.399 0,-8.015 0,-17.105 -1.313,-24.402 -2.261,-13.156 -9.765,-15.43 -13.929,-15.43"
         style="fill:#000000;fill-opacity:1;fill-rule:nonzero;stroke:none"
         id="path8141" /><path
         d="m 408.363,1007.76 c 0,9.93 -0.605,19.62 -4.902,28.71 -4.899,9.93 -13.496,12.57 -19.348,12.57 -6.922,0 -15.402,-3.47 -19.82,-13.4 -3.344,-7.54 -4.535,-14.96 -4.535,-27.88 0,-11.604 0.832,-20.338 5.133,-28.834 4.656,-9.09 12.894,-11.965 19.105,-11.965 10.391,0 16.359,6.223 19.82,13.16 4.301,8.973 4.547,20.699 4.547,27.639 z m -24.367,-38.397 c -3.808,0 -11.547,2.153 -13.808,15.188 -1.309,7.179 -1.309,16.269 -1.309,24.639 0,9.81 0,18.66 1.902,25.72 2.024,8.01 8.098,11.73 13.215,11.73 4.527,0 11.43,-2.76 13.692,-13.05 1.55,-6.82 1.55,-16.27 1.55,-24.4 0,-8.01 0,-17.104 -1.312,-24.401 -2.262,-13.156 -9.762,-15.43 -13.93,-15.43"
         style="fill:#000000;fill-opacity:1;fill-rule:nonzero;stroke:none"
         id="path8143" /><path
         d="m 435.602,975.242 c 0,3.481 -2.883,5.879 -5.762,5.879 -3.481,0 -5.883,-2.879 -5.883,-5.762 0,-3.476 2.879,-5.879 5.762,-5.879 3.48,0 5.883,2.879 5.883,5.762"
         style="fill:#000000;fill-opacity:1;fill-rule:nonzero;stroke:none"
         id="path8145" /><path
         d="m 499.562,1007.76 c 0,9.93 -0.605,19.62 -4.902,28.71 -4.898,9.93 -13.492,12.57 -19.344,12.57 -6.925,0 -15.406,-3.47 -19.824,-13.4 -3.34,-7.54 -4.535,-14.96 -4.535,-27.88 0,-11.604 0.836,-20.338 5.133,-28.834 4.656,-9.09 12.898,-11.965 19.105,-11.965 10.391,0 16.36,6.223 19.825,13.16 4.296,8.973 4.542,20.699 4.542,27.639 z m -24.363,-38.397 c -3.812,0 -11.551,2.153 -13.812,15.188 -1.309,7.179 -1.309,16.269 -1.309,24.639 0,9.81 0,18.66 1.902,25.72 2.024,8.01 8.098,11.73 13.219,11.73 4.524,0 11.426,-2.76 13.688,-13.05 1.554,-6.82 1.554,-16.27 1.554,-24.4 0,-8.01 0,-17.104 -1.316,-24.401 -2.262,-13.156 -9.762,-15.43 -13.926,-15.43"
         style="fill:#000000;fill-opacity:1;fill-rule:nonzero;stroke:none"
         id="path8147" /><path
         d="m 558.363,1007.76 c 0,9.93 -0.605,19.62 -4.902,28.71 -4.899,9.93 -13.496,12.57 -19.348,12.57 -6.922,0 -15.402,-3.47 -19.82,-13.4 -3.344,-7.54 -4.535,-14.96 -4.535,-27.88 0,-11.604 0.832,-20.338 5.133,-28.834 4.656,-9.09 12.894,-11.965 19.105,-11.965 10.391,0 16.359,6.223 19.82,13.16 4.301,8.973 4.547,20.699 4.547,27.639 z m -24.367,-38.397 c -3.808,0 -11.547,2.153 -13.808,15.188 -1.309,7.179 -1.309,16.269 -1.309,24.639 0,9.81 0,18.66 1.902,25.72 2.024,8.01 8.098,11.73 13.215,11.73 4.527,0 11.43,-2.76 13.692,-13.05 1.55,-6.82 1.55,-16.27 1.55,-24.4 0,-8.01 0,-17.104 -1.312,-24.401 -2.262,-13.156 -9.762,-15.43 -13.93,-15.43"
         style="fill:#000000;fill-opacity:1;fill-rule:nonzero;stroke:none"
         id="path8149" /><path
         d="m 617.164,1007.76 c 0,9.93 -0.605,19.62 -4.906,28.71 -4.895,9.93 -13.492,12.57 -19.344,12.57 -6.926,0 -15.402,-3.47 -19.82,-13.4 -3.344,-7.54 -4.539,-14.96 -4.539,-27.88 0,-11.604 0.836,-20.338 5.136,-28.834 4.657,-9.09 12.895,-11.965 19.106,-11.965 10.387,0 16.359,6.223 19.82,13.16 4.301,8.973 4.547,20.699 4.547,27.639 z m -24.367,-38.397 c -3.809,0 -11.547,2.153 -13.809,15.188 -1.312,7.179 -1.312,16.269 -1.312,24.639 0,9.81 0,18.66 1.906,25.72 2.023,8.01 8.094,11.73 13.215,11.73 4.523,0 11.43,-2.76 13.691,-13.05 1.551,-6.82 1.551,-16.27 1.551,-24.4 0,-8.01 0,-17.104 -1.312,-24.401 -2.262,-13.156 -9.766,-15.43 -13.93,-15.43"
         style="fill:#000000;fill-opacity:1;fill-rule:nonzero;stroke:none"
         id="path8151" /><path
         d="m 656.879,1046.16 c 0,2.75 0,2.88 -2.395,2.88 -2.871,-3.24 -8.847,-7.68 -21.164,-7.68 l 0,-3.48 c 2.742,0 8.711,0 15.278,3.09 l 0,-62.271 c 0,-4.304 -0.36,-5.738 -10.86,-5.738 l -3.703,0 0,-3.481 c 3.231,0.239 14.828,0.239 18.77,0.239 3.945,0 15.422,0 18.652,-0.239 l 0,3.481 -3.707,0 c -10.512,0 -10.871,1.434 -10.871,5.742"
         style="fill:#000000;fill-opacity:1;fill-rule:nonzero;stroke:none"
         id="path8153" /><path
         d="m 408.363,1583.76 c 0,9.93 -0.605,19.62 -4.902,28.71 -4.899,9.93 -13.496,12.57 -19.348,12.57 -6.922,0 -15.402,-3.47 -19.82,-13.4 -3.344,-7.54 -4.535,-14.96 -4.535,-27.88 0,-11.6 0.832,-20.34 5.133,-28.83 4.656,-9.09 12.894,-11.97 19.105,-11.97 10.391,0 16.359,6.22 19.82,13.16 4.301,8.98 4.547,20.7 4.547,27.64 z m -24.367,-38.4 c -3.808,0 -11.547,2.15 -13.808,15.19 -1.309,7.18 -1.309,16.27 -1.309,24.64 0,9.81 0,18.66 1.902,25.72 2.024,8.01 8.098,11.73 13.215,11.73 4.527,0 11.43,-2.76 13.692,-13.05 1.55,-6.82 1.55,-16.27 1.55,-24.4 0,-8.01 0,-17.11 -1.312,-24.4 -2.262,-13.16 -9.762,-15.43 -13.93,-15.43"
         style="fill:#000000;fill-opacity:1;fill-rule:nonzero;stroke:none"
         id="path8155" /><path
         d="m 435.602,1551.24 c 0,3.48 -2.883,5.88 -5.762,5.88 -3.481,0 -5.883,-2.88 -5.883,-5.76 0,-3.48 2.879,-5.88 5.762,-5.88 3.48,0 5.883,2.88 5.883,5.76"
         style="fill:#000000;fill-opacity:1;fill-rule:nonzero;stroke:none"
         id="path8157" /><path
         d="m 499.562,1583.76 c 0,9.93 -0.605,19.62 -4.902,28.71 -4.898,9.93 -13.492,12.57 -19.344,12.57 -6.925,0 -15.406,-3.47 -19.824,-13.4 -3.34,-7.54 -4.535,-14.96 -4.535,-27.88 0,-11.6 0.836,-20.34 5.133,-28.83 4.656,-9.09 12.898,-11.97 19.105,-11.97 10.391,0 16.36,6.22 19.825,13.16 4.296,8.98 4.542,20.7 4.542,27.64 z m -24.363,-38.4 c -3.812,0 -11.551,2.15 -13.812,15.19 -1.309,7.18 -1.309,16.27 -1.309,24.64 0,9.81 0,18.66 1.902,25.72 2.024,8.01 8.098,11.73 13.219,11.73 4.524,0 11.426,-2.76 13.688,-13.05 1.554,-6.82 1.554,-16.27 1.554,-24.4 0,-8.01 0,-17.11 -1.316,-24.4 -2.262,-13.16 -9.762,-15.43 -13.926,-15.43"
         style="fill:#000000;fill-opacity:1;fill-rule:nonzero;stroke:none"
         id="path8159" /><path
         d="m 558.363,1583.76 c 0,9.93 -0.605,19.62 -4.902,28.71 -4.899,9.93 -13.496,12.57 -19.348,12.57 -6.922,0 -15.402,-3.47 -19.82,-13.4 -3.344,-7.54 -4.535,-14.96 -4.535,-27.88 0,-11.6 0.832,-20.34 5.133,-28.83 4.656,-9.09 12.894,-11.97 19.105,-11.97 10.391,0 16.359,6.22 19.82,13.16 4.301,8.98 4.547,20.7 4.547,27.64 z m -24.367,-38.4 c -3.808,0 -11.547,2.15 -13.808,15.19 -1.309,7.18 -1.309,16.27 -1.309,24.64 0,9.81 0,18.66 1.902,25.72 2.024,8.01 8.098,11.73 13.215,11.73 4.527,0 11.43,-2.76 13.692,-13.05 1.55,-6.82 1.55,-16.27 1.55,-24.4 0,-8.01 0,-17.11 -1.312,-24.4 -2.262,-13.16 -9.762,-15.43 -13.93,-15.43"
         style="fill:#000000;fill-opacity:1;fill-rule:nonzero;stroke:none"
         id="path8161" /><path
         d="m 617.164,1583.76 c 0,9.93 -0.605,19.62 -4.906,28.71 -4.895,9.93 -13.492,12.57 -19.344,12.57 -6.926,0 -15.402,-3.47 -19.82,-13.4 -3.344,-7.54 -4.539,-14.96 -4.539,-27.88 0,-11.6 0.836,-20.34 5.136,-28.83 4.657,-9.09 12.895,-11.97 19.106,-11.97 10.387,0 16.359,6.22 19.82,13.16 4.301,8.98 4.547,20.7 4.547,27.64 z m -24.367,-38.4 c -3.809,0 -11.547,2.15 -13.809,15.19 -1.312,7.18 -1.312,16.27 -1.312,24.64 0,9.81 0,18.66 1.906,25.72 2.023,8.01 8.094,11.73 13.215,11.73 4.523,0 11.43,-2.76 13.691,-13.05 1.551,-6.82 1.551,-16.27 1.551,-24.4 0,-8.01 0,-17.11 -1.312,-24.4 -2.262,-13.16 -9.766,-15.43 -13.93,-15.43"
         style="fill:#000000;fill-opacity:1;fill-rule:nonzero;stroke:none"
         id="path8163" /><path
         d="m 675.117,1565.57 -2.633,0 c -0.363,-2.03 -1.32,-8.59 -2.515,-10.49 -0.84,-1.08 -7.668,-1.08 -11.262,-1.08 l -22.16,0 c 3.234,2.75 10.543,10.41 13.656,13.28 18.207,16.74 24.918,22.96 24.918,34.79 0,13.76 -10.898,22.97 -24.781,22.97 -13.883,0 -22.02,-11.88 -22.02,-22.2 0,-6.12 5.282,-6.12 5.641,-6.12 2.523,0 5.644,1.8 5.644,5.64 0,3.36 -2.296,5.64 -5.671,5.64 -1.086,0 -1.329,0 -1.688,0 2.274,8.09 8.734,13.56 16.512,13.56 10.172,0 16.402,-8.5 16.402,-19.5 0,-10.17 -5.867,-19.02 -12.683,-26.67 l -24.153,-27.04 0,-2.87 43.676,0"
         style="fill:#000000;fill-opacity:1;fill-rule:nonzero;stroke:none"
         id="path8165" /><path
         d="m 408.363,2159.76 c 0,9.93 -0.605,19.62 -4.902,28.71 -4.899,9.93 -13.496,12.57 -19.348,12.57 -6.922,0 -15.402,-3.47 -19.82,-13.4 -3.344,-7.54 -4.535,-14.96 -4.535,-27.88 0,-11.6 0.832,-20.34 5.133,-28.83 4.656,-9.09 12.894,-11.97 19.105,-11.97 10.391,0 16.359,6.22 19.82,13.16 4.301,8.98 4.547,20.7 4.547,27.64 z m -24.367,-38.4 c -3.808,0 -11.547,2.15 -13.808,15.19 -1.309,7.18 -1.309,16.27 -1.309,24.64 0,9.81 0,18.66 1.902,25.72 2.024,8.01 8.098,11.73 13.215,11.73 4.527,0 11.43,-2.76 13.692,-13.05 1.55,-6.82 1.55,-16.27 1.55,-24.4 0,-8.01 0,-17.11 -1.312,-24.4 -2.262,-13.16 -9.762,-15.43 -13.93,-15.43"
         style="fill:#000000;fill-opacity:1;fill-rule:nonzero;stroke:none"
         id="path8167" /><path
         d="m 435.602,2127.24 c 0,3.48 -2.883,5.88 -5.762,5.88 -3.481,0 -5.883,-2.88 -5.883,-5.76 0,-3.48 2.879,-5.88 5.762,-5.88 3.48,0 5.883,2.88 5.883,5.76"
         style="fill:#000000;fill-opacity:1;fill-rule:nonzero;stroke:none"
         id="path8169" /><path
         d="m 499.562,2159.76 c 0,9.93 -0.605,19.62 -4.902,28.71 -4.898,9.93 -13.492,12.57 -19.344,12.57 -6.925,0 -15.406,-3.47 -19.824,-13.4 -3.34,-7.54 -4.535,-14.96 -4.535,-27.88 0,-11.6 0.836,-20.34 5.133,-28.83 4.656,-9.09 12.898,-11.97 19.105,-11.97 10.391,0 16.36,6.22 19.825,13.16 4.296,8.98 4.542,20.7 4.542,27.64 z m -24.363,-38.4 c -3.812,0 -11.551,2.15 -13.812,15.19 -1.309,7.18 -1.309,16.27 -1.309,24.64 0,9.81 0,18.66 1.902,25.72 2.024,8.01 8.098,11.73 13.219,11.73 4.524,0 11.426,-2.76 13.688,-13.05 1.554,-6.82 1.554,-16.27 1.554,-24.4 0,-8.01 0,-17.11 -1.316,-24.4 -2.262,-13.16 -9.762,-15.43 -13.926,-15.43"
         style="fill:#000000;fill-opacity:1;fill-rule:nonzero;stroke:none"
         id="path8171" /><path
         d="m 558.363,2159.76 c 0,9.93 -0.605,19.62 -4.902,28.71 -4.899,9.93 -13.496,12.57 -19.348,12.57 -6.922,0 -15.402,-3.47 -19.82,-13.4 -3.344,-7.54 -4.535,-14.96 -4.535,-27.88 0,-11.6 0.832,-20.34 5.133,-28.83 4.656,-9.09 12.894,-11.97 19.105,-11.97 10.391,0 16.359,6.22 19.82,13.16 4.301,8.98 4.547,20.7 4.547,27.64 z m -24.367,-38.4 c -3.808,0 -11.547,2.15 -13.808,15.19 -1.309,7.18 -1.309,16.27 -1.309,24.64 0,9.81 0,18.66 1.902,25.72 2.024,8.01 8.098,11.73 13.215,11.73 4.527,0 11.43,-2.76 13.692,-13.05 1.55,-6.82 1.55,-16.27 1.55,-24.4 0,-8.01 0,-17.11 -1.312,-24.4 -2.262,-13.16 -9.762,-15.43 -13.93,-15.43"
         style="fill:#000000;fill-opacity:1;fill-rule:nonzero;stroke:none"
         id="path8173" /><path
         d="m 617.164,2159.76 c 0,9.93 -0.605,19.62 -4.906,28.71 -4.895,9.93 -13.492,12.57 -19.344,12.57 -6.926,0 -15.402,-3.47 -19.82,-13.4 -3.344,-7.54 -4.539,-14.96 -4.539,-27.88 0,-11.6 0.836,-20.34 5.136,-28.83 4.657,-9.09 12.895,-11.97 19.106,-11.97 10.387,0 16.359,6.22 19.82,13.16 4.301,8.98 4.547,20.7 4.547,27.64 z m -24.367,-38.4 c -3.809,0 -11.547,2.15 -13.809,15.19 -1.312,7.18 -1.312,16.27 -1.312,24.64 0,9.81 0,18.66 1.906,25.72 2.023,8.01 8.094,11.73 13.215,11.73 4.523,0 11.43,-2.76 13.691,-13.05 1.551,-6.82 1.551,-16.27 1.551,-24.4 0,-8.01 0,-17.11 -1.312,-24.4 -2.262,-13.16 -9.766,-15.43 -13.93,-15.43"
         style="fill:#000000;fill-opacity:1;fill-rule:nonzero;stroke:none"
         id="path8175" /><path
         d="m 644.41,2164.44 c -2.027,-0.12 -2.504,-0.24 -2.504,-1.32 0,-1.2 0.598,-1.2 2.742,-1.2 l 5.485,0 c 10.137,0 14.668,-8.38 14.668,-19.86 0,-15.67 -8.113,-19.86 -13.961,-19.86 -5.723,0 -15.504,2.73 -18.965,10.55 3.816,-0.51 7.277,1.64 7.277,5.93 0,3.45 -2.504,5.84 -5.847,5.84 -2.864,0 -5.961,-1.68 -5.961,-6.22 0,-10.62 10.629,-19.34 23.886,-19.34 14.211,0 24.731,10.89 24.731,22.97 0,11.01 -8.84,19.62 -20.297,21.66 10.383,2.99 17.066,11.72 17.066,21.05 0,9.45 -9.785,16.4 -21.363,16.4 -11.937,0 -20.765,-7.32 -20.765,-16.08 0,-4.8 3.718,-5.76 5.519,-5.76 2.52,0 5.399,1.8 5.399,5.41 0,3.84 -2.899,5.51 -5.559,5.51 -0.723,0 -0.965,0 -1.328,0 4.531,8.04 15.742,8.04 16.336,8.04 3.933,0 11.683,-1.8 11.683,-13.52 0,-2.27 -0.355,-8.96 -3.812,-14.1 -3.578,-5.26 -7.633,-5.62 -10.852,-5.74"
         style="fill:#000000;fill-opacity:1;fill-rule:nonzero;stroke:none"
         id="path8177" /><path
         d="m 408.363,2735.76 c 0,9.93 -0.605,19.62 -4.902,28.71 -4.899,9.93 -13.496,12.57 -19.348,12.57 -6.922,0 -15.402,-3.47 -19.82,-13.4 -3.344,-7.54 -4.535,-14.96 -4.535,-27.88 0,-11.6 0.832,-20.34 5.133,-28.83 4.656,-9.09 12.894,-11.97 19.105,-11.97 10.391,0 16.359,6.22 19.82,13.16 4.301,8.98 4.547,20.7 4.547,27.64 z m -24.367,-38.4 c -3.808,0 -11.547,2.15 -13.808,15.19 -1.309,7.18 -1.309,16.27 -1.309,24.64 0,9.81 0,18.66 1.902,25.72 2.024,8.01 8.098,11.73 13.215,11.73 4.527,0 11.43,-2.76 13.692,-13.05 1.55,-6.82 1.55,-16.27 1.55,-24.4 0,-8.01 0,-17.11 -1.312,-24.4 -2.262,-13.16 -9.762,-15.43 -13.93,-15.43"
         style="fill:#000000;fill-opacity:1;fill-rule:nonzero;stroke:none"
         id="path8179" /><path
         d="m 435.602,2703.24 c 0,3.48 -2.883,5.88 -5.762,5.88 -3.481,0 -5.883,-2.88 -5.883,-5.76 0,-3.48 2.879,-5.88 5.762,-5.88 3.48,0 5.883,2.88 5.883,5.76"
         style="fill:#000000;fill-opacity:1;fill-rule:nonzero;stroke:none"
         id="path8181" /><path
         d="m 499.562,2735.76 c 0,9.93 -0.605,19.62 -4.902,28.71 -4.898,9.93 -13.492,12.57 -19.344,12.57 -6.925,0 -15.406,-3.47 -19.824,-13.4 -3.34,-7.54 -4.535,-14.96 -4.535,-27.88 0,-11.6 0.836,-20.34 5.133,-28.83 4.656,-9.09 12.898,-11.97 19.105,-11.97 10.391,0 16.36,6.22 19.825,13.16 4.296,8.98 4.542,20.7 4.542,27.64 z m -24.363,-38.4 c -3.812,0 -11.551,2.15 -13.812,15.19 -1.309,7.18 -1.309,16.27 -1.309,24.64 0,9.81 0,18.66 1.902,25.72 2.024,8.01 8.098,11.73 13.219,11.73 4.524,0 11.426,-2.76 13.688,-13.05 1.554,-6.82 1.554,-16.27 1.554,-24.4 0,-8.01 0,-17.11 -1.316,-24.4 -2.262,-13.16 -9.762,-15.43 -13.926,-15.43"
         style="fill:#000000;fill-opacity:1;fill-rule:nonzero;stroke:none"
         id="path8183" /><path
         d="m 558.363,2735.76 c 0,9.93 -0.605,19.62 -4.902,28.71 -4.899,9.93 -13.496,12.57 -19.348,12.57 -6.922,0 -15.402,-3.47 -19.82,-13.4 -3.344,-7.54 -4.535,-14.96 -4.535,-27.88 0,-11.6 0.832,-20.34 5.133,-28.83 4.656,-9.09 12.894,-11.97 19.105,-11.97 10.391,0 16.359,6.22 19.82,13.16 4.301,8.98 4.547,20.7 4.547,27.64 z m -24.367,-38.4 c -3.808,0 -11.547,2.15 -13.808,15.19 -1.309,7.18 -1.309,16.27 -1.309,24.64 0,9.81 0,18.66 1.902,25.72 2.024,8.01 8.098,11.73 13.215,11.73 4.527,0 11.43,-2.76 13.692,-13.05 1.55,-6.82 1.55,-16.27 1.55,-24.4 0,-8.01 0,-17.11 -1.312,-24.4 -2.262,-13.16 -9.762,-15.43 -13.93,-15.43"
         style="fill:#000000;fill-opacity:1;fill-rule:nonzero;stroke:none"
         id="path8185" /><path
         d="m 617.164,2735.76 c 0,9.93 -0.605,19.62 -4.906,28.71 -4.895,9.93 -13.492,12.57 -19.344,12.57 -6.926,0 -15.402,-3.47 -19.82,-13.4 -3.344,-7.54 -4.539,-14.96 -4.539,-27.88 0,-11.6 0.836,-20.34 5.136,-28.83 4.657,-9.09 12.895,-11.97 19.106,-11.97 10.387,0 16.359,6.22 19.82,13.16 4.301,8.98 4.547,20.7 4.547,27.64 z m -24.367,-38.4 c -3.809,0 -11.547,2.15 -13.809,15.19 -1.312,7.18 -1.312,16.27 -1.312,24.64 0,9.81 0,18.66 1.906,25.72 2.023,8.01 8.094,11.73 13.215,11.73 4.523,0 11.43,-2.76 13.691,-13.05 1.551,-6.82 1.551,-16.27 1.551,-24.4 0,-8.01 0,-17.11 -1.312,-24.4 -2.262,-13.16 -9.766,-15.43 -13.93,-15.43"
         style="fill:#000000;fill-opacity:1;fill-rule:nonzero;stroke:none"
         id="path8187" /><path
         d="m 665.637,2775.24 c 0,2.27 0,2.88 -1.684,2.88 -0.957,0 -1.316,0 -2.273,-1.44 l -36.012,-55.79 0,-3.48 31.441,0 0,-10.85 c 0,-4.4 -0.238,-5.6 -8.964,-5.6 l -2.391,0 0,-3.48 c 2.746,0.24 12.191,0.24 15.539,0.24 3.348,0 12.914,0 15.664,-0.24 l 0,3.48 -2.383,0 c -8.578,0 -8.937,1.2 -8.937,5.6 l 0,10.85 12.035,0 0,3.48 -12.035,0 0,54.35 z m -7.922,-9.25 0,-45.1 -29.059,0"
         style="fill:#000000;fill-opacity:1;fill-rule:nonzero;stroke:none"
         id="path8189" /><path
         d="m 408.363,3311.76 c 0,9.93 -0.605,19.62 -4.902,28.71 -4.899,9.93 -13.496,12.57 -19.348,12.57 -6.922,0 -15.402,-3.47 -19.82,-13.4 -3.344,-7.54 -4.535,-14.96 -4.535,-27.88 0,-11.6 0.832,-20.34 5.133,-28.83 4.656,-9.09 12.894,-11.97 19.105,-11.97 10.391,0 16.359,6.22 19.82,13.16 4.301,8.98 4.547,20.7 4.547,27.64 z m -24.367,-38.4 c -3.808,0 -11.547,2.15 -13.808,15.19 -1.309,7.18 -1.309,16.27 -1.309,24.64 0,9.81 0,18.66 1.902,25.72 2.024,8.01 8.098,11.73 13.215,11.73 4.527,0 11.43,-2.76 13.692,-13.05 1.55,-6.82 1.55,-16.27 1.55,-24.4 0,-8.01 0,-17.11 -1.312,-24.4 -2.262,-13.16 -9.762,-15.43 -13.93,-15.43"
         style="fill:#000000;fill-opacity:1;fill-rule:nonzero;stroke:none"
         id="path8191" /><path
         d="m 435.602,3279.24 c 0,3.48 -2.883,5.88 -5.762,5.88 -3.481,0 -5.883,-2.88 -5.883,-5.76 0,-3.48 2.879,-5.88 5.762,-5.88 3.48,0 5.883,2.88 5.883,5.76"
         style="fill:#000000;fill-opacity:1;fill-rule:nonzero;stroke:none"
         id="path8193" /><path
         d="m 499.562,3311.76 c 0,9.93 -0.605,19.62 -4.902,28.71 -4.898,9.93 -13.492,12.57 -19.344,12.57 -6.925,0 -15.406,-3.47 -19.824,-13.4 -3.34,-7.54 -4.535,-14.96 -4.535,-27.88 0,-11.6 0.836,-20.34 5.133,-28.83 4.656,-9.09 12.898,-11.97 19.105,-11.97 10.391,0 16.36,6.22 19.825,13.16 4.296,8.98 4.542,20.7 4.542,27.64 z m -24.363,-38.4 c -3.812,0 -11.551,2.15 -13.812,15.19 -1.309,7.18 -1.309,16.27 -1.309,24.64 0,9.81 0,18.66 1.902,25.72 2.024,8.01 8.098,11.73 13.219,11.73 4.524,0 11.426,-2.76 13.688,-13.05 1.554,-6.82 1.554,-16.27 1.554,-24.4 0,-8.01 0,-17.11 -1.316,-24.4 -2.262,-13.16 -9.762,-15.43 -13.926,-15.43"
         style="fill:#000000;fill-opacity:1;fill-rule:nonzero;stroke:none"
         id="path8195" /><path
         d="m 558.363,3311.76 c 0,9.93 -0.605,19.62 -4.902,28.71 -4.899,9.93 -13.496,12.57 -19.348,12.57 -6.922,0 -15.402,-3.47 -19.82,-13.4 -3.344,-7.54 -4.535,-14.96 -4.535,-27.88 0,-11.6 0.832,-20.34 5.133,-28.83 4.656,-9.09 12.894,-11.97 19.105,-11.97 10.391,0 16.359,6.22 19.82,13.16 4.301,8.98 4.547,20.7 4.547,27.64 z m -24.367,-38.4 c -3.808,0 -11.547,2.15 -13.808,15.19 -1.309,7.18 -1.309,16.27 -1.309,24.64 0,9.81 0,18.66 1.902,25.72 2.024,8.01 8.098,11.73 13.215,11.73 4.527,0 11.43,-2.76 13.692,-13.05 1.55,-6.82 1.55,-16.27 1.55,-24.4 0,-8.01 0,-17.11 -1.312,-24.4 -2.262,-13.16 -9.762,-15.43 -13.93,-15.43"
         style="fill:#000000;fill-opacity:1;fill-rule:nonzero;stroke:none"
         id="path8197" /><path
         d="m 617.164,3311.76 c 0,9.93 -0.605,19.62 -4.906,28.71 -4.895,9.93 -13.492,12.57 -19.344,12.57 -6.926,0 -15.402,-3.47 -19.82,-13.4 -3.344,-7.54 -4.539,-14.96 -4.539,-27.88 0,-11.6 0.836,-20.34 5.136,-28.83 4.657,-9.09 12.895,-11.97 19.106,-11.97 10.387,0 16.359,6.22 19.82,13.16 4.301,8.98 4.547,20.7 4.547,27.64 z m -24.367,-38.4 c -3.809,0 -11.547,2.15 -13.809,15.19 -1.312,7.18 -1.312,16.27 -1.312,24.64 0,9.81 0,18.66 1.906,25.72 2.023,8.01 8.094,11.73 13.215,11.73 4.523,0 11.43,-2.76 13.691,-13.05 1.551,-6.82 1.551,-16.27 1.551,-24.4 0,-8.01 0,-17.11 -1.312,-24.4 -2.262,-13.16 -9.766,-15.43 -13.93,-15.43"
         style="fill:#000000;fill-opacity:1;fill-rule:nonzero;stroke:none"
         id="path8199" /><path
         d="m 637.801,3341.99 c 5.129,-1.67 9.304,-1.78 10.617,-1.78 13.484,0 22.082,9.96 22.082,11.64 0,0.48 -0.25,1.08 -0.965,1.08 -0.238,0 -0.476,0 -1.551,-0.48 -6.683,-2.88 -12.414,-3.24 -15.519,-3.24 -7.879,0 -13.488,2.4 -15.758,3.36 -0.836,0.36 -1.074,0.36 -1.191,0.36 -0.957,0 -0.957,-0.73 -0.957,-2.64 l 0,-35.56 c 0,-2.15 0,-2.87 1.386,-2.87 0.582,0 0.696,0.12 1.856,1.55 3.355,4.86 8.996,7.71 14.992,7.71 6.359,0 9.477,-5.85 10.437,-7.88 2.04,-4.65 2.165,-10.5 2.165,-15.04 0,-4.54 0,-11.34 -3.352,-16.71 -2.633,-4.3 -7.301,-7.28 -12.566,-7.28 -7.899,0 -15.676,5.38 -17.829,14.1 0.598,-0.29 1.317,-0.43 1.914,-0.43 2.036,0 5.266,1.2 5.266,5.28 0,3.36 -2.273,5.28 -5.266,5.28 -2.152,0 -5.265,-1.08 -5.265,-5.74 0,-10.15 8.141,-21.73 21.43,-21.73 13.531,0 25.39,11.34 25.39,26.51 0,14.22 -9.578,26.04 -22.133,26.04 -6.816,0 -12.078,-2.96 -15.183,-6.28"
         style="fill:#000000;fill-opacity:1;fill-rule:nonzero;stroke:none"
         id="path8201" /><path
         d="m 408.363,3887.76 c 0,9.93 -0.605,19.62 -4.902,28.71 -4.899,9.93 -13.496,12.57 -19.348,12.57 -6.922,0 -15.402,-3.47 -19.82,-13.4 -3.344,-7.54 -4.535,-14.96 -4.535,-27.88 0,-11.6 0.832,-20.34 5.133,-28.83 4.656,-9.09 12.894,-11.97 19.105,-11.97 10.391,0 16.359,6.22 19.82,13.16 4.301,8.98 4.547,20.7 4.547,27.64 z m -24.367,-38.4 c -3.808,0 -11.547,2.15 -13.808,15.19 -1.309,7.18 -1.309,16.27 -1.309,24.64 0,9.81 0,18.66 1.902,25.72 2.024,8.01 8.098,11.73 13.215,11.73 4.527,0 11.43,-2.76 13.692,-13.05 1.55,-6.82 1.55,-16.27 1.55,-24.4 0,-8.01 0,-17.11 -1.312,-24.4 -2.262,-13.16 -9.762,-15.43 -13.93,-15.43"
         style="fill:#000000;fill-opacity:1;fill-rule:nonzero;stroke:none"
         id="path8203" /><path
         d="m 435.602,3855.24 c 0,3.48 -2.883,5.88 -5.762,5.88 -3.481,0 -5.883,-2.88 -5.883,-5.76 0,-3.48 2.879,-5.88 5.762,-5.88 3.48,0 5.883,2.88 5.883,5.76"
         style="fill:#000000;fill-opacity:1;fill-rule:nonzero;stroke:none"
         id="path8205" /><path
         d="m 499.562,3887.76 c 0,9.93 -0.605,19.62 -4.902,28.71 -4.898,9.93 -13.492,12.57 -19.344,12.57 -6.925,0 -15.406,-3.47 -19.824,-13.4 -3.34,-7.54 -4.535,-14.96 -4.535,-27.88 0,-11.6 0.836,-20.34 5.133,-28.83 4.656,-9.09 12.898,-11.97 19.105,-11.97 10.391,0 16.36,6.22 19.825,13.16 4.296,8.98 4.542,20.7 4.542,27.64 z m -24.363,-38.4 c -3.812,0 -11.551,2.15 -13.812,15.19 -1.309,7.18 -1.309,16.27 -1.309,24.64 0,9.81 0,18.66 1.902,25.72 2.024,8.01 8.098,11.73 13.219,11.73 4.524,0 11.426,-2.76 13.688,-13.05 1.554,-6.82 1.554,-16.27 1.554,-24.4 0,-8.01 0,-17.11 -1.316,-24.4 -2.262,-13.16 -9.762,-15.43 -13.926,-15.43"
         style="fill:#000000;fill-opacity:1;fill-rule:nonzero;stroke:none"
         id="path8207" /><path
         d="m 558.363,3887.76 c 0,9.93 -0.605,19.62 -4.902,28.71 -4.899,9.93 -13.496,12.57 -19.348,12.57 -6.922,0 -15.402,-3.47 -19.82,-13.4 -3.344,-7.54 -4.535,-14.96 -4.535,-27.88 0,-11.6 0.832,-20.34 5.133,-28.83 4.656,-9.09 12.894,-11.97 19.105,-11.97 10.391,0 16.359,6.22 19.82,13.16 4.301,8.98 4.547,20.7 4.547,27.64 z m -24.367,-38.4 c -3.808,0 -11.547,2.15 -13.808,15.19 -1.309,7.18 -1.309,16.27 -1.309,24.64 0,9.81 0,18.66 1.902,25.72 2.024,8.01 8.098,11.73 13.215,11.73 4.527,0 11.43,-2.76 13.692,-13.05 1.55,-6.82 1.55,-16.27 1.55,-24.4 0,-8.01 0,-17.11 -1.312,-24.4 -2.262,-13.16 -9.762,-15.43 -13.93,-15.43"
         style="fill:#000000;fill-opacity:1;fill-rule:nonzero;stroke:none"
         id="path8209" /><path
         d="m 617.164,3887.76 c 0,9.93 -0.605,19.62 -4.906,28.71 -4.895,9.93 -13.492,12.57 -19.344,12.57 -6.926,0 -15.402,-3.47 -19.82,-13.4 -3.344,-7.54 -4.539,-14.96 -4.539,-27.88 0,-11.6 0.836,-20.34 5.136,-28.83 4.657,-9.09 12.895,-11.97 19.106,-11.97 10.387,0 16.359,6.22 19.82,13.16 4.301,8.98 4.547,20.7 4.547,27.64 z m -24.367,-38.4 c -3.809,0 -11.547,2.15 -13.809,15.19 -1.312,7.18 -1.312,16.27 -1.312,24.64 0,9.81 0,18.66 1.906,25.72 2.023,8.01 8.094,11.73 13.215,11.73 4.523,0 11.43,-2.76 13.691,-13.05 1.551,-6.82 1.551,-16.27 1.551,-24.4 0,-8.01 0,-17.11 -1.312,-24.4 -2.262,-13.16 -9.766,-15.43 -13.93,-15.43"
         style="fill:#000000;fill-opacity:1;fill-rule:nonzero;stroke:none"
         id="path8211" /><path
         d="m 637.199,3891.09 c 0,30.28 14.68,35.07 21.125,35.07 4.293,0 8.59,-1.32 10.86,-4.92 -1.434,0 -5.969,0 -5.969,-4.92 0,-2.64 1.789,-4.93 4.894,-4.93 2.981,0 5.02,1.81 5.02,5.29 0,6.23 -4.547,12.36 -14.945,12.36 -15.055,0 -30.829,-15.44 -30.829,-41.76 0,-32.9 14.329,-40.32 24.477,-40.32 13.016,0 24.129,11.34 24.129,26.87 0,15.88 -11.098,26.52 -23.023,26.52 -10.614,0 -14.551,-9.17 -15.743,-12.5 l 0.004,3.24 z m 14.61,-40.89 c -7.508,0 -11.086,6.69 -12.161,9.19 -1.074,3.11 -2.265,8.95 -2.265,17.31 0,9.43 4.293,21.25 15.023,21.25 6.559,0 10.016,-4.41 11.805,-8.47 1.91,-4.42 1.91,-10.39 1.91,-15.52 0,-6.09 0,-11.46 -2.269,-16 -2.981,-5.73 -7.274,-7.76 -12.043,-7.76"
         style="fill:#000000;fill-opacity:1;fill-rule:nonzero;stroke:none"
         id="path8213" /><path
         d="m 193.68,1304.82 0,-4.54 7.047,-4.78 c -6.207,-8.48 -8.008,-13.14 -8.008,-21.15 0,-11.59 4.683,-21.15 14.363,-29.28 9.078,-7.64 19.117,-11.23 31.426,-11.23 25.691,0 44.094,16.85 44.094,40.39 0,19.12 -11.239,31.31 -31.325,34.07 l -0.965,-5.63 c 6.336,-1.19 10.641,-2.63 14.223,-4.78 8.242,-4.91 12.426,-12.56 12.426,-22.25 0,-17.7 -12.305,-26.07 -37.981,-26.07 -13.496,0 -22.574,1.79 -29.738,5.86 -6.691,3.7 -10.883,11.12 -10.883,18.77 0,8.38 4.426,15.79 12.059,20.34 3.937,2.27 8.59,4.07 17.777,6.82 l 0,5.27"
         style="fill:#000000;fill-opacity:1;fill-rule:nonzero;stroke:none"
         id="path8215" /><path
         d="m 193.797,1380.11 0,-4.42 7.164,-4.78 c -5.371,-5.62 -8.242,-13.26 -8.242,-21.74 0,-15.65 10.054,-26.17 24.988,-26.17 13.02,0 19.473,6.45 24.012,24.02 l 2.867,11.34 c 2.269,8.84 2.508,9.68 4.422,12.19 2.746,3.58 6.687,5.5 11.347,5.5 4.778,0 8.719,-1.8 11.946,-5.39 3.465,-3.94 4.777,-7.89 4.777,-14.46 0,-8.84 -2.746,-15.18 -8.961,-20.8 -5.617,-5.02 -11.234,-7.52 -20.433,-9.32 l 0,-5.14 34.078,0.48 0,4.66 -8.129,5.38 c 6.574,8.02 8.965,14.71 8.965,25.11 0,17.58 -10.274,28.84 -26.282,28.84 -7.406,0 -13.738,-2.51 -18.277,-7.17 -3.105,-3.23 -5.137,-7.89 -7.527,-17.44 l -3.223,-12.78 c -2.75,-10.64 -7.41,-15.66 -14.695,-15.66 -8.364,0 -14.114,6.81 -14.114,16.96 0,8.35 3.582,15.16 10.383,19.93 4.895,3.46 9.903,5.61 15.985,7.16 l 0,5.14"
         style="fill:#000000;fill-opacity:1;fill-rule:nonzero;stroke:none"
         id="path8217" /><path
         d="m 196.637,1428.94 c 4.914,-4.07 8.621,-15.07 8.855,-26.06 l 5.141,0 0,10.51 c 0,6.93 0.476,7.41 7.527,7.41 l 51.383,0 c 5.016,0 5.613,-1.08 5.613,-10.64 l 0,-7.76 5.641,0 0,47.34 -5.641,0 0,-6.56 c 0,-6.32 -0.476,-8.95 -1.672,-9.9 -0.836,-0.84 -0.836,-0.84 -7.41,-0.84 l -49.347,0 c -5.856,0 -11.59,0.23 -20.094,0.8"
         style="fill:#000000;fill-opacity:1;fill-rule:nonzero;stroke:none"
         id="path8219" /><path
         d="m 236.836,1497.8 c -0.598,1.68 -0.598,1.91 -0.957,2.75 -3.465,8.36 -10.156,13.13 -18.641,13.13 -12.426,0 -20.558,-9.56 -20.558,-24.36 0,-13.97 8.25,-24.6 19.121,-24.6 4.898,0 8.363,3.34 8.363,7.87 0,4.18 -2.867,7.04 -7.16,7.04 -2.508,0 -4.18,-0.94 -6.09,-3.65 -0.836,-1.18 -1.43,-1.54 -2.148,-1.54 -3.34,0 -6.926,7.02 -6.926,13.68 0,8.56 5.363,13.08 15.488,13.08 11.078,0 16.914,-4.53 16.914,-13.11 0,-1.07 -0.101,-2.98 -0.203,-4.77 -0.105,-0.95 -0.105,-1.91 -0.105,-2.62 0,-2.5 1.078,-3.82 3.23,-3.82 2.031,0 2.988,1.32 2.988,3.7 0,0.36 0,1.31 -0.269,2.86 0,4.53 0,4.65 0,5.61 0,8.82 6.347,13.59 18.187,13.59 12.317,0 19.371,-6.07 19.371,-16.68 0,-7.5 -4.062,-15.6 -7.765,-15.6 -1.074,0 -1.317,0.24 -2.629,2.61 -2.031,3.33 -4.063,4.63 -7.047,4.63 -4.301,0 -7.531,-3.22 -7.531,-7.64 0,-5.02 4.304,-8.48 10.523,-8.48 11.598,0 19.61,10.63 19.61,25.92 0,17.21 -9.559,28.56 -24.258,28.56 -11.231,0 -18.043,-5.85 -21.508,-18.15"
         style="fill:#000000;fill-opacity:1;fill-rule:nonzero;stroke:none"
         id="path8221" /><path
         d="m 225.566,1529.5 0.836,5.25 -9.441,2.16 c -7.891,1.79 -9.086,2.63 -9.086,6.09 0,0.6 0,1.68 0.133,2.64 0.398,6.93 0.797,15.54 0.797,20.44 0,1.67 0,4.18 0,7.41 l 16.34,-8.13 c 17.761,-8.97 19.789,-9.92 27.062,-12.91 8.938,-3.59 16.449,-5.62 21.453,-5.62 5.363,0 8.82,2.87 8.82,7.53 0,5.74 -3.945,8.01 -14.226,7.89 -17.094,-0.59 -25.582,1.68 -53.559,14.35 l -11.238,5.38 c -0.238,0.12 -1.312,0.48 -2.867,1.19 l -3.473,0 c 0.641,-7.41 0.77,-11.35 0.77,-18.65 0,-10.16 -0.375,-18.29 -1.25,-31.32"
         style="fill:#000000;fill-opacity:1;fill-rule:nonzero;stroke:none"
         id="path8223" /><path
         d="m 194.52,1657.55 0,-30.85 5.644,0 0,2.26 c 0,9.64 0.606,10.71 5.621,10.71 l 49.195,0 c 16.239,0 19.704,-2.38 20.18,-13.8 l 5.641,0 0,34.07 -5.641,0 c -0.476,-11.39 -3.941,-13.79 -20.195,-13.79 l -52.828,0 78.664,28.44 0,4.78 -78.664,26.66 67.406,0 c 5.141,0 5.617,-1.07 5.617,-10.71 l 0,-2.15 5.641,0 0,39.22 -5.641,0 0,-2.16 c 0,-9.68 -0.476,-10.75 -5.613,-10.75 l -63.762,0 c -5.015,0 -5.621,1.07 -5.621,10.75 l 0,2.16 -5.644,0 0,-30.01 63.687,-21.88"
         style="fill:#000000;fill-opacity:1;fill-rule:nonzero;stroke:none"
         id="path8225" /><path
         d="m 242.309,1790.04 c -7.524,0 -11.348,-1.33 -14.211,-4.79 -3.106,-3.93 -4.782,-9.78 -4.782,-17.42 0,-13.37 6.336,-23.27 14.934,-23.27 4.535,0 7.402,2.74 7.402,6.92 0,3.69 -2.504,6.44 -6.082,6.44 -1.55,0 -3.218,-0.58 -4.886,-1.75 -0.836,-0.69 -1.192,-0.81 -1.551,-0.81 -2.504,0 -4.653,4.87 -4.653,10.57 0,3.68 1.2,7.84 2.989,9.74 1.914,2.25 4.781,3.09 10.156,3.09 l 4.66,0 c 2.149,-12.53 3.106,-16.34 5.375,-22.18 3.82,-10.25 9.438,-15.26 16.961,-15.26 8.484,0 13.981,6.82 13.981,17.36 0,8.26 -3.352,15.68 -9.454,20.82 6.098,1.92 8.489,4.91 8.489,10.54 0,5.34 -3.539,10.92 -7.082,10.92 -0.719,0 -1.317,-0.6 -1.317,-1.2 0,-0.48 0.121,-0.96 0.477,-1.8 0.719,-1.92 0.84,-2.4 0.84,-3.36 0,-3.36 -2.27,-4.56 -8.243,-4.56 l -24.003,0 z m 14.578,-11.28 c 7.168,0 8.84,-0.36 11.945,-2.38 4.422,-2.97 7.406,-8.44 7.406,-13.55 0,-5.34 -3.941,-9.38 -9.316,-9.38 -5.02,0 -8.602,2.49 -11.11,7.72 -1.675,3.69 -2.867,8.32 -4.421,17.59"
         style="fill:#000000;fill-opacity:1;fill-rule:nonzero;stroke:none"
         id="path8227" /><path
         d="m 223.805,1848.66 0,-4.19 4.273,-3.46 c -3.332,-4.3 -4.758,-8.6 -4.758,-14.58 0,-10.51 6.934,-17.44 17.325,-17.44 4.66,0 8.601,1.56 10.992,4.19 2.508,2.75 3.703,5.5 5.375,12.67 l 1.433,6.34 c 2.274,9.45 4.66,12.8 9.438,12.8 5.613,0 9.558,-4.9 9.558,-11.97 0,-10.05 -6.453,-17.23 -18.398,-20.1 l 0,-4.79 22.602,0 0,4.19 -4.903,4.2 c 3.946,4.9 5.86,10.41 5.86,16.4 0,11.73 -7.29,19.51 -18.399,19.51 -5.254,0 -9.316,-1.68 -12.066,-5.03 -2.508,-2.86 -3.465,-5.26 -5.016,-12.55 l -1.312,-5.98 c -1.438,-6.58 -1.438,-6.58 -2.629,-8.73 -1.196,-2.63 -3.703,-4.18 -6.332,-4.18 -4.778,0 -8.246,4.53 -8.246,11.09 0,4.54 1.546,8.24 4.765,11.58 2.621,2.63 5.004,3.94 10.481,5.85 l 0,4.18"
         style="fill:#000000;fill-opacity:1;fill-rule:nonzero;stroke:none"
         id="path8229" /><path
         d="m 223.805,1903.86 0,-4.19 4.273,-3.46 c -3.332,-4.3 -4.758,-8.6 -4.758,-14.58 0,-10.51 6.934,-17.44 17.325,-17.44 4.66,0 8.601,1.56 10.992,4.19 2.508,2.75 3.703,5.5 5.375,12.67 l 1.433,6.34 c 2.274,9.45 4.66,12.8 9.438,12.8 5.613,0 9.558,-4.9 9.558,-11.96 0,-10.06 -6.453,-17.24 -18.398,-20.11 l 0,-4.79 22.602,0 0,4.19 -4.903,4.19 c 3.946,4.91 5.86,10.42 5.86,16.41 0,11.73 -7.29,19.51 -18.399,19.51 -5.254,0 -9.316,-1.68 -12.066,-5.02 -2.508,-2.88 -3.465,-5.27 -5.016,-12.56 l -1.312,-5.98 c -1.438,-6.58 -1.438,-6.58 -2.629,-8.73 -1.196,-2.63 -3.703,-4.18 -6.332,-4.18 -4.778,0 -8.246,4.53 -8.246,11.09 0,4.54 1.546,8.24 4.765,11.58 2.621,2.63 5.004,3.94 10.481,5.85 l 0,4.18"
         style="fill:#000000;fill-opacity:1;fill-rule:nonzero;stroke:none"
         id="path8231" /><path
         d="m 194.52,2020.64 0,-71.13 5.644,0 0,2.14 c 0,9.64 0.606,10.71 5.621,10.71 l 63.762,0 c 5.015,0 5.613,-1.07 5.613,-10.71 l 0,-2.14 5.641,0 0,41.01 -5.641,0 0,-3.95 c 0,-9.69 -0.598,-10.77 -5.621,-10.77 l -30.617,0 0,2.4 c 0,7.41 0.723,10.28 3.238,12.79 3.113,2.99 6.945,4.19 14.012,4.43 l 0,5.62 -39.211,0 0,-5.62 c 11.676,-0.6 16.32,-5.38 16.32,-16.74 l 0,-2.88 -27.16,0 c -5.121,0 -5.957,1.08 -5.957,7.54 l 0,5.5 c 0,19.72 4.531,24.86 24.926,28.21 l 0,5.27"
         style="fill:#000000;fill-opacity:1;fill-rule:nonzero;stroke:none"
         id="path8233" /><path
         d="m 225.117,2047.71 1.324,-21.16 5.161,0 0,4.91 c 0,4.42 0.839,5.14 5.972,5.14 l 33.297,0 c 4.774,0 5.609,-1.32 5.609,-9.09 l 0,-0.47 4.321,0 0,31.91 -4.321,0 0,-2.27 c 0,-7.65 -0.835,-8.97 -5.613,-8.97 l -5.972,0 c -8.957,0 -18.036,1.68 -24.844,4.67 -6.688,2.87 -10.391,6.93 -10.989,11.95 1.915,-1.67 3.106,-2.15 5.376,-2.15 3.824,0 6.57,2.75 6.57,6.58 0,4.3 -3.227,7.29 -8.121,7.29 -5.735,0 -9.567,-4.07 -9.567,-10.4 0,-7.53 6.09,-14.11 16.594,-17.94"
         style="fill:#000000;fill-opacity:1;fill-rule:nonzero;stroke:none"
         id="path8235" /><path
         d="m 242.309,2130.84 c -7.524,0 -11.348,-1.32 -14.211,-4.79 -3.106,-3.93 -4.782,-9.78 -4.782,-17.42 0,-13.36 6.336,-23.27 14.934,-23.27 4.535,0 7.402,2.74 7.402,6.92 0,3.69 -2.504,6.44 -6.082,6.44 -1.55,0 -3.218,-0.58 -4.886,-1.75 -0.836,-0.7 -1.192,-0.81 -1.551,-0.81 -2.504,0 -4.653,4.87 -4.653,10.57 0,3.68 1.2,7.84 2.989,9.74 1.914,2.25 4.781,3.09 10.156,3.09 l 4.66,0 c 2.149,-12.52 3.106,-16.34 5.375,-22.18 3.82,-10.25 9.438,-15.26 16.961,-15.26 8.484,0 13.981,6.83 13.981,17.36 0,8.26 -3.352,15.68 -9.454,20.82 6.098,1.92 8.489,4.91 8.489,10.54 0,5.34 -3.539,10.92 -7.082,10.92 -0.719,0 -1.317,-0.6 -1.317,-1.21 0,-0.47 0.121,-0.95 0.477,-1.79 0.719,-1.92 0.84,-2.4 0.84,-3.36 0,-3.36 -2.27,-4.56 -8.243,-4.56 l -24.003,0 z m 14.578,-11.28 c 7.168,0 8.84,-0.36 11.945,-2.38 4.422,-2.97 7.406,-8.44 7.406,-13.55 0,-5.34 -3.941,-9.38 -9.316,-9.38 -5.02,0 -8.602,2.49 -11.11,7.72 -1.675,3.69 -2.867,8.32 -4.421,17.59"
         style="fill:#000000;fill-opacity:1;fill-rule:nonzero;stroke:none"
         id="path8237" /><path
         d="m 263.227,2189.11 c 8.593,-3.82 12.054,-7.87 12.054,-14.08 0,-9.54 -8.715,-15.51 -22.683,-15.51 -14.442,0 -24.118,5.85 -24.118,14.68 0,3.58 1.672,6.68 3.579,6.68 0.359,0 0.714,-0.24 1.433,-0.72 2.266,-1.93 3.457,-2.41 5.485,-2.41 3.933,0 6.675,3 6.675,7.2 0,4.21 -3.343,7.33 -8.121,7.33 -8,0 -14.211,-8.02 -14.211,-18.67 0,-15.56 12.801,-26.69 30.602,-26.69 16.969,0 28.68,10.16 28.68,24.97 0,10.64 -4.903,16.73 -17.579,21.88"
         style="fill:#000000;fill-opacity:1;fill-rule:nonzero;stroke:none"
         id="path8239" /><path
         d="m 225.117,2218.8 -23.699,0 0,-4.9 c 15.57,-1.19 23.473,-6.44 24.191,-16.11 l 4.672,0 0,9.73 30.465,0 c 8.359,0 11.344,0.24 14.094,1.44 5.015,1.91 7.762,6.7 7.762,13.65 0,4.68 -1.434,8.75 -4.067,11.51 -3.824,3.95 -10.164,6.23 -16.738,6.23 -0.719,0 -1.555,0 -2.754,-0.12 l 0,-5.03 c 10.746,-0.36 16.238,-3.47 16.238,-9.34 0,-2.75 -1.429,-5.15 -3.461,-5.98 -1.672,-0.72 -4.656,-1.08 -8.949,-1.08 l -32.59,0 0,17.61 -5.16,0"
         style="fill:#000000;fill-opacity:1;fill-rule:nonzero;stroke:none"
         id="path8241" /><path
         d="m 225.117,2267.04 1.324,-22.45 5.161,0 0,6.06 c 0,4.39 0.839,5.11 5.972,5.11 l 33.297,0 c 4.774,0 5.609,-1.31 5.609,-8.9 l 0,-0.83 4.321,0 0,30.96 -4.321,0 0,-0.84 c 0,-7.79 -0.835,-9.11 -5.613,-9.11 l -4.777,0 -40.973,0 z m -29.758,-5.64 c 0,-3.84 3.118,-6.96 6.961,-6.96 3.719,0 6.961,3.12 6.961,6.84 0,3.96 -3.121,7.08 -6.961,7.08 -3.84,0 -6.961,-3.12 -6.961,-6.96"
         style="fill:#000000;fill-opacity:1;fill-rule:nonzero;stroke:none"
         id="path8243" /><path
         d="m 223.316,2309.76 c 0,-14.57 13.039,-26.04 29.77,-26.04 16.371,0 29.516,11.47 29.516,25.8 0,14.33 -13.145,25.8 -29.633,25.8 -16.371,0 -29.649,-11.46 -29.649,-25.56 l -0.004,0 z m 5.164,0 c 0,8.32 8.719,12.97 24.481,12.97 15.883,0 24.48,-4.65 24.48,-13.21 0,-8.56 -8.597,-13.19 -24.359,-13.19 -16.238,0 -24.602,4.51 -24.602,13.43"
         style="fill:#000000;fill-opacity:1;fill-rule:nonzero;stroke:none"
         id="path8245" /><path
         d="m 225.117,2363.52 1.324,-20.65 5.161,0 0,4.27 c 0,4.39 0.839,5.1 5.972,5.1 l 33.297,0 c 4.774,0 5.609,-1.31 5.609,-8.9 l 0,-0.47 4.321,0 0,30.24 -4.321,0 0,-0.48 c 0,-7.79 -0.835,-9.11 -5.609,-9.11 l -17.187,0 c -5.848,0 -11.219,0.84 -13.961,2.15 -5.371,2.51 -9.082,7.88 -9.082,13.02 0,3.1 1.8,6.69 4.187,8.48 2.508,1.79 6.207,2.63 11.934,2.63 l 24.109,0 c 4.774,0 5.609,-1.31 5.609,-9.04 l 0,-0.47 4.321,0 0,30.24 -4.321,0 0,-0.48 c 0,-7.66 -0.835,-8.97 -5.613,-8.97 l -23.527,0 c -8.602,0 -10.75,-0.37 -14.813,-2.52 -5.73,-2.99 -9.207,-9.09 -9.207,-16.14 0,-7.66 3.578,-13.64 11.453,-18.9"
         style="fill:#000000;fill-opacity:1;fill-rule:nonzero;stroke:none"
         id="path8247" /><path
         d="m 289.445,2466.36 -90.484,0 0,16.78 -4.438,0 0,-27.58 99.243,0 0,27.58 -4.321,0"
         style="fill:#000000;fill-opacity:1;fill-rule:nonzero;stroke:none"
         id="path8249" /><path
         d="m 251.871,2511 -59.148,0 1.32,-22.09 5.16,0 0,5.7 c 0,4.39 0.84,5.11 5.973,5.11 l 65.691,0 c 4.778,0 5.613,-1.31 5.613,-8.9 l 0,-0.47 4.321,0 0,30.24 -4.321,0 0,-0.48 c 0,-7.79 -0.835,-9.11 -5.617,-9.11 l -11.586,0 -6.929,7.29 19.949,14.24 c 0.836,0.48 1.555,0.84 2.152,0.84 1.551,0 2.031,-1.32 2.031,-5.27 l 0,-2.27 4.317,0 0,31.58 -4.317,0 c -0.597,-6.7 -2.031,-9.09 -8.238,-14 l -23.16,-16.98 -5.25,5.38 c -6.805,6.94 -9.434,12.08 -10.394,20.21 l -4.321,0 0,-31.45 4.321,0 0,3.71 c 0,3.82 0.718,5.62 2.269,5.62 1.313,0 2.746,-0.84 4.652,-2.76"
         style="fill:#000000;fill-opacity:1;fill-rule:nonzero;stroke:none"
         id="path8251" /><path
         d="m 271.922,2581.51 c -0.121,-6.56 -0.242,-6.92 -1.074,-8.35 -0.481,-0.84 -1.793,-1.43 -3.106,-1.43 -3.582,0 -5.133,3.22 -5.371,11.21 -0.238,11.33 -0.476,13.11 -2.266,17.05 -3.222,7.15 -9.429,11.22 -17.304,11.22 -4.774,0 -7.758,-1.07 -11.696,-4.39 -2.148,2.03 -2.867,3.11 -2.867,4.07 0,0.59 0.36,0.95 1.664,1.19 2.852,0.48 4.395,2.39 4.395,5.38 0,2.99 -2.508,5.38 -5.735,5.38 -4.058,0 -6.921,-3.24 -6.921,-7.9 0,-3.82 1.199,-5.97 6.222,-11.47 -3.347,-5.01 -4.543,-8.84 -4.543,-14.81 0,-14.21 7.891,-23.54 19.84,-23.54 7.047,0 13.141,3.82 16.008,10.02 1.793,-8 5.375,-11.34 11.945,-11.34 5.258,0 8.364,2.37 10.274,7.93 2.629,-7.37 6.453,-10.93 11.347,-10.93 7.887,0 12.305,9.2 12.305,25.21 0,19.95 -6.336,29.99 -18.887,29.99 -5.98,0 -10.761,-2.74 -12.554,-7.16 -1.196,-3.1 -1.676,-6.92 -1.676,-15.16 l 0,-12.17 z m -43.442,7.01 c 0,7.48 5.25,11.64 14.446,11.64 9.312,0 14.922,-4.51 14.922,-12.12 0,-7.36 -5.61,-11.99 -14.567,-11.99 -9.429,0 -14.801,4.51 -14.801,12.47 z m 53.762,-1.07 c 0,9.9 0,10.61 0.238,12.4 0.477,4.77 3.102,7.76 6.915,7.76 6.793,0 10.726,-7.76 10.726,-21.11 0,-10.02 -2.98,-15.73 -8.344,-15.73 -3.933,0 -6.554,2.14 -9.535,7.86"
         style="fill:#000000;fill-opacity:1;fill-rule:nonzero;stroke:none"
         id="path8253" /><path
         d="m 192.84,2650.81 89.64,-31.92 0,6.94 -89.64,31.92"
         style="fill:#000000;fill-opacity:1;fill-rule:nonzero;stroke:none"
         id="path8255" /><path
         d="m 251.871,2679 -59.148,0 1.32,-22.09 5.16,0 0,5.7 c 0,4.39 0.84,5.11 5.973,5.11 l 65.691,0 c 4.778,0 5.613,-1.31 5.613,-8.9 l 0,-0.47 4.321,0 0,30.24 -4.321,0 0,-0.48 c 0,-7.79 -0.835,-9.11 -5.617,-9.11 l -11.586,0 -6.929,7.29 19.949,14.24 c 0.836,0.48 1.555,0.84 2.152,0.84 1.551,0 2.031,-1.32 2.031,-5.27 l 0,-2.27 4.317,0 0,31.58 -4.317,0 c -0.597,-6.7 -2.031,-9.09 -8.238,-14 l -23.16,-16.98 -5.25,5.38 c -6.805,6.94 -9.434,12.08 -10.394,20.21 l -4.321,0 0,-31.45 4.321,0 0,3.71 c 0,3.82 0.718,5.62 2.269,5.62 1.313,0 2.746,-0.84 4.652,-2.76"
         style="fill:#000000;fill-opacity:1;fill-rule:nonzero;stroke:none"
         id="path8257" /><path
         d="m 271.922,2749.51 c -0.121,-6.56 -0.242,-6.92 -1.074,-8.35 -0.481,-0.84 -1.793,-1.43 -3.106,-1.43 -3.582,0 -5.133,3.22 -5.371,11.21 -0.238,11.33 -0.476,13.11 -2.266,17.05 -3.222,7.15 -9.429,11.22 -17.304,11.22 -4.774,0 -7.758,-1.07 -11.696,-4.39 -2.148,2.03 -2.867,3.11 -2.867,4.07 0,0.59 0.36,0.95 1.664,1.19 2.852,0.48 4.395,2.39 4.395,5.38 0,2.99 -2.508,5.38 -5.735,5.38 -4.058,0 -6.921,-3.24 -6.921,-7.9 0,-3.82 1.199,-5.97 6.222,-11.47 -3.347,-5.01 -4.543,-8.84 -4.543,-14.81 0,-14.21 7.891,-23.54 19.84,-23.54 7.047,0 13.141,3.82 16.008,10.02 1.793,-8 5.375,-11.34 11.945,-11.34 5.258,0 8.364,2.37 10.274,7.93 2.629,-7.37 6.453,-10.93 11.347,-10.93 7.887,0 12.305,9.2 12.305,25.21 0,19.95 -6.336,29.99 -18.887,29.99 -5.98,0 -10.761,-2.74 -12.554,-7.16 -1.196,-3.1 -1.676,-6.92 -1.676,-15.16 l 0,-12.17 z m -43.442,7.01 c 0,7.48 5.25,11.64 14.446,11.64 9.312,0 14.922,-4.51 14.922,-12.12 0,-7.36 -5.61,-11.99 -14.567,-11.99 -9.429,0 -14.801,4.51 -14.801,12.47 z m 53.762,-1.07 c 0,9.9 0,10.61 0.238,12.4 0.477,4.77 3.102,7.76 6.915,7.76 6.793,0 10.726,-7.76 10.726,-21.11 0,-10.02 -2.98,-15.73 -8.344,-15.73 -3.933,0 -6.554,2.14 -9.535,7.86"
         style="fill:#000000;fill-opacity:1;fill-rule:nonzero;stroke:none"
         id="path8259" /><path
         d="m 209.246,2820.72 -3.461,0 c -5.015,0 -5.625,1.08 -5.625,10.64 l 0,2.39 -5.64,0 0,-39.57 5.64,0 0,2.38 c 0,9.64 0.61,10.72 5.625,10.72 l 63.762,0 c 5.015,0 5.613,-1.08 5.613,-10.72 l 0,-2.38 5.641,0 0,39.57 -5.641,0 0,-2.39 c 0,-9.56 -0.598,-10.64 -5.613,-10.64 l -3.465,0"
         style="fill:#000000;fill-opacity:1;fill-rule:nonzero;stroke:none"
         id="path8261" /><path
         d="m 239.277,2908.68 30.262,0 c 5.023,0 5.621,-1.08 5.621,-10.78 l 0,-2.15 5.641,0 0,39.21 -5.641,0 0,-2.14 c 0,-9.63 -0.598,-10.7 -5.613,-10.7 l -63.762,0 c -5.015,0 -5.625,1.07 -5.625,10.7 l 0,2.14 -5.64,0 0,-38.74 5.64,0 0,1.68 c 0,9.7 0.602,10.78 5.606,10.78 l 27.031,0 0,-40.08 -27.031,0 c -5.004,0 -5.606,1.08 -5.606,10.77 l 0,2.27 -5.64,0 0,-39.33 5.64,0 0,2.14 c 0,9.64 0.61,10.71 5.625,10.71 l 63.762,0 c 5.015,0 5.613,-1.07 5.613,-10.71 l 0,-2.14 5.641,0 0,39.33 -5.641,0 0,-2.27 c 0,-9.69 -0.598,-10.77 -5.621,-10.77 l -30.262,0"
         style="fill:#000000;fill-opacity:1;fill-rule:nonzero;stroke:none"
         id="path8263" /><path
         d="m 194.52,2972.75 0,-30.85 5.644,0 0,2.26 c 0,9.64 0.606,10.71 5.621,10.71 l 49.195,0 c 16.239,0 19.704,-2.38 20.18,-13.8 l 5.641,0 0,34.07 -5.641,0 c -0.476,-11.39 -3.941,-13.79 -20.195,-13.79 l -52.828,0 78.664,28.44 0,4.78 -78.664,26.66 67.406,0 c 5.141,0 5.617,-1.07 5.617,-10.71 l 0,-2.15 5.641,0 0,39.22 -5.641,0 0,-2.16 c 0,-9.68 -0.476,-10.75 -5.613,-10.75 l -63.762,0 c -5.015,0 -5.621,1.07 -5.621,10.75 l 0,2.16 -5.644,0 0,-30.01 63.687,-21.88"
         style="fill:#000000;fill-opacity:1;fill-rule:nonzero;stroke:none"
         id="path8265" /><path
         d="m 198.844,3072.24 90.48,0 0,-16.69 4.438,0 0,27.49 -99.242,0 0,-27.49 4.32,0"
         style="fill:#000000;fill-opacity:1;fill-rule:nonzero;stroke:none"
         id="path8267" /><path
         d="m 1331.12,3757.96 -5.31,0 -5.74,-8.61 c -6.74,6.45 -15.93,9.9 -26.12,9.9 -18.8,0 -31.43,-12.05 -31.43,-29.99 0,-15.64 7.75,-23.38 28.84,-28.83 l 13.63,-3.45 c 10.62,-2.72 11.62,-3.01 14.64,-5.3 4.3,-3.3 6.61,-8.04 6.61,-13.63 0,-5.74 -2.16,-10.48 -6.46,-14.35 -4.73,-4.16 -9.47,-5.74 -17.35,-5.74 -10.62,0 -18.22,3.3 -24.96,10.76 -6.02,6.75 -9.04,13.49 -11.19,24.55 l -6.17,0 0.58,-40.9 5.59,0 6.45,9.75 c 9.61,-7.88 17.63,-10.75 30.11,-10.75 21.07,0 34.55,12.34 34.55,31.58 0,8.89 -3.02,16.5 -8.61,21.96 -3.88,3.73 -9.48,6.16 -20.96,9.04 l -15.35,3.87 c -12.77,3.3 -18.8,8.9 -18.8,17.66 0,10.04 8.19,16.93 20.4,16.93 10.05,0 18.24,-4.31 23.98,-12.5 4.17,-5.88 6.76,-11.92 8.63,-19.24 l 6.17,0"
         style="fill:#000000;fill-opacity:1;fill-rule:nonzero;stroke:none"
         id="path8269" /><path
         d="m 1409.51,3685.81 c 0.14,21.51 -12.05,36.71 -29.56,36.71 -18.36,0 -32.13,-15.92 -32.13,-37.44 0,-20.09 13.06,-33.72 32.42,-33.72 13.63,0 23.38,6.75 29.27,20.38 l -5.02,2.73 c -5.88,-11.02 -11.91,-15.31 -21.52,-15.31 -7.32,0 -12.63,3.15 -16.36,9.45 -2.58,4.3 -3.73,9.32 -3.58,17.2 l 46.48,0 z m -46.33,6.11 c 0,4.46 0.57,7.63 2,11.66 3.02,8.64 7.61,12.81 14.5,12.81 8.75,0 14.48,-7.63 14.48,-19.14 0,-4.18 -1.28,-5.33 -5.88,-5.33"
         style="fill:#000000;fill-opacity:1;fill-rule:nonzero;stroke:none"
         id="path8271" /><path
         d="m 1443.2,3720.36 -25.39,-1.56 0,-6.12 5.88,0 c 5.31,0 6.17,-1.01 6.17,-7.18 l 0,-40.07 c 0,-5.74 -1.57,-6.75 -10.9,-6.75 l -0.58,0 0,-5.15 38.31,0 0,5.15 -2.73,0 c -9.18,0 -10.76,1.01 -10.76,6.75 l 0,7.16 c 0,10.76 2.01,21.66 5.6,29.84 3.44,8.03 8.32,12.48 14.34,13.19 -2,-2.29 -2.58,-3.73 -2.58,-6.45 0,-4.59 3.3,-7.89 7.89,-7.89 5.17,0 8.75,3.87 8.75,9.76 0,6.88 -4.87,11.48 -12.48,11.48 -9.04,0 -16.92,-7.31 -21.52,-19.93"
         style="fill:#000000;fill-opacity:1;fill-rule:nonzero;stroke:none"
         id="path8273" /><path
         d="m 1507.2,3720.36 -24.78,-1.56 0,-6.12 5.17,0 c 5.32,0 6.18,-1.02 6.18,-7.18 l 0,-69 c 0,-5.73 -1.58,-6.73 -10.78,-6.73 l -0.57,0 0,-5.16 37.3,0 0,5.16 -1.59,0 c -9.35,0 -10.93,1 -10.93,6.73 l 0,26.49 c 4.74,-8.33 10.2,-11.63 18.96,-11.63 16.67,0 29.03,15.35 29.03,35.87 0,19.8 -12.36,35.29 -28.16,35.29 -8.91,0 -14.8,-3.73 -19.83,-12.33 l 0,10.17 z m 17.29,-5.64 c 9.87,0 15.59,-9.89 15.59,-26.65 0,-18.46 -5.87,-28.92 -16.02,-28.92 -10.15,0 -16.86,10.6 -16.86,27.06 0,17.76 6.43,28.51 17.29,28.51"
         style="fill:#000000;fill-opacity:1;fill-rule:nonzero;stroke:none"
         id="path8275" /><path
         d="m 1627.91,3685.81 c 0.14,21.51 -12.05,36.71 -29.55,36.71 -18.37,0 -32.14,-15.92 -32.14,-37.44 0,-20.09 13.05,-33.72 32.42,-33.72 13.63,0 23.39,6.75 29.27,20.38 l -5.02,2.73 c -5.89,-11.02 -11.91,-15.31 -21.52,-15.31 -7.32,0 -12.63,3.15 -16.36,9.45 -2.58,4.3 -3.73,9.32 -3.58,17.2 l 46.48,0 z m -46.34,6.11 c 0,4.46 0.58,7.63 2.02,11.66 3.01,8.64 7.6,12.81 14.48,12.81 8.76,0 14.5,-7.63 14.5,-19.14 0,-4.18 -1.3,-5.33 -5.89,-5.33"
         style="fill:#000000;fill-opacity:1;fill-rule:nonzero;stroke:none"
         id="path8277" /><path
         d="m 1661.88,3720.36 -24.8,-1.56 0,-6.12 5.18,0 c 5.32,0 6.19,-1.01 6.19,-7.18 l 0,-40.07 c 0,-5.74 -1.59,-6.75 -10.79,-6.75 l -0.58,0 0,-5.15 36.3,0 0,5.15 -0.58,0 c -9.34,0 -10.92,1.01 -10.92,6.75 l 0,20.65 c 0,7.03 1,13.48 2.58,16.78 3.02,6.45 9.47,10.91 15.64,10.91 3.74,0 8.04,-2.16 10.19,-5.03 2.16,-3.01 3.16,-7.46 3.16,-14.35 l 0,-28.96 c 0,-5.74 -1.58,-6.75 -10.9,-6.75 l -0.57,0 0,-5.15 36.3,0 0,5.15 -0.58,0 c -9.23,0 -10.82,1.01 -10.82,6.75 l 0,28.25 c 0,10.33 -0.44,12.91 -3.02,17.78 -3.58,6.89 -10.89,11.06 -19.34,11.06 -9.17,0 -16.34,-4.3 -22.64,-13.76"
         style="fill:#000000;fill-opacity:1;fill-rule:nonzero;stroke:none"
         id="path8279" /><path
         d="m 1748.63,3720.36 0,28.43 -5.88,0 c -1.44,-18.64 -7.75,-28.1 -19.37,-28.96 l 0,-5.59 11.82,0 0,-36.61 c 0,-10.05 0.28,-13.64 1.71,-16.94 2.3,-6.03 8.03,-9.33 16.34,-9.33 5.58,0 10.45,1.72 13.75,4.88 4.73,4.59 7.45,12.2 7.45,20.09 0,0.86 0,1.87 -0.14,3.3 l -6.03,0 c -0.43,-12.92 -4.16,-19.51 -11.19,-19.51 -3.3,0 -6.17,1.72 -7.17,4.16 -0.86,2.01 -1.29,5.6 -1.29,10.77 l 0,39.19 21.09,0 0,6.12"
         style="fill:#000000;fill-opacity:1;fill-rule:nonzero;stroke:none"
         id="path8281" /><path
         d="m 1288.08,3496.32 8.32,0 c 5.6,0 11.33,-1.73 14.49,-4.31 4.16,-3.31 6.31,-8.48 7.32,-17.96 l 0.72,-7.33 c 1.72,-16.24 7.02,-22.84 18.36,-22.84 11.76,0 17.36,7.89 17.8,25.11 l -6.03,0 c -0.57,-9.9 -2.29,-14.2 -6.17,-14.2 -3.3,0 -4.73,2.44 -7.17,12.33 l -2.29,9.04 c -3.16,13.2 -8.76,19.22 -19.95,22.09 20.63,2.87 30.52,11.19 30.52,25.67 0,16.35 -13.79,25.68 -37.87,25.68 l -49.6,0 0,-6.71 2.58,0 c 11.61,0 12.9,-0.74 12.9,-6.77 l 0,-76.62 c 0,-6.03 -1.29,-6.75 -12.9,-6.75 l -2.58,0 0,-6.71 47.06,0 0,6.71 -2.59,0 c -11.62,0 -12.92,0.72 -12.92,6.76 l 0,4.03 0,32.78 z m 0,6.72 0,31.53 c 0,5.73 0.14,6.16 1.58,7.31 1.14,0.86 2.15,1.01 8.31,1.01 l 7.74,0 c 14.2,0 20.66,-6.03 20.66,-19.07 0,-7.31 -1.87,-12.9 -5.6,-15.91 -3.58,-3.01 -10.04,-4.87 -16.92,-4.87"
         style="fill:#000000;fill-opacity:1;fill-rule:nonzero;stroke:none"
         id="path8283" /><path
         d="m 1397.17,3549.6 -37.01,0 0,-6.71 2.72,0 c 11.62,0 12.92,-0.74 12.92,-6.77 l 0,-59.12 c 0,-19.51 -2.87,-23.67 -16.65,-24.25 l 0,-6.71 40.89,0 0,6.71 c -13.59,0.58 -16.45,4.74 -16.45,24.25 l 0,63.44 34.09,-94.4 5.73,0 31.96,94.4 0,-80.94 c 0,-6.17 -1.29,-6.75 -12.87,-6.75 l -2.58,0 0,-6.71 47.06,0 0,6.71 -2.59,0 c -11.66,0 -12.95,0.58 -12.95,6.75 l 0,76.62 c 0,6.03 1.29,6.77 12.95,6.77 l 2.59,0 0,6.71 -36.01,0 -26.26,-76.45"
         style="fill:#000000;fill-opacity:1;fill-rule:nonzero;stroke:none"
         id="path8285" /><path
         d="m 1584.84,3550.62 -5.45,0 -5.6,-8.75 c -9.32,7.46 -15.63,9.9 -26.11,9.9 -11.33,0 -20.22,-3.16 -29.26,-10.47 -14.21,-11.48 -20.8,-25.97 -20.8,-45.34 0,-14.63 4.3,-26.83 12.62,-36.15 8.9,-10.04 22.1,-15.92 35.87,-15.92 12.05,0 20.51,3.73 29.84,13.06 l 5.3,-13.06 6.03,0 0,31.65 c 0,7.77 0,7.91 0.86,8.92 1.29,1.44 4.31,2.02 12.05,2.02 l 2.17,0 0,6.77 -45.63,0 0,-6.76 2.73,0 c 12.05,0 13.06,-0.71 13.06,-8.61 0,-6.17 -1.15,-11.92 -2.88,-15.36 -3.58,-7.04 -12.76,-11.92 -22.09,-11.92 -9.18,0 -18.51,4.74 -23.38,11.92 -5.31,7.89 -7.61,18.08 -7.61,33.44 0,32 10.62,49.09 30.56,49.09 16.36,0 27.69,-11.76 33.57,-34.73 l 6.17,0"
         style="fill:#000000;fill-opacity:1;fill-rule:nonzero;stroke:none"
         id="path8287" /></g></g></svg>