<?xml version="1.0" encoding="UTF-8" standalone="no"?>
<!DOCTYPE svg PUBLIC "-//W3C//DTD SVG 1.0//EN" "http://www.w3.org/TR/2001/PR-SVG-20010719/DTD/svg10.dtd">
<svg width="13cm" height="10cm" viewBox="-2 263 256 183" xmlns="http://www.w3.org/2000/svg" xmlns:xlink="http://www.w3.org/1999/xlink">
  <g>
    <rect style="fill: #cab8e0" x="10" y="400" width="232.437" height="44.5778"/>
    <path style="fill: #cab8e0" d="M 10,400 A 10,10 0 0 0 0,410 L 10,410 z"/>
    <path style="fill: #cab8e0" d="M 252.437,410 A 10,10 0 0 0 242.437,400 L 242.437,410 z"/>
    <rect style="fill: #cab8e0" x="0" y="410" width="252.437" height="24.5778"/>
    <path style="fill: #cab8e0" d="M 0,434.578 A 10,10 0 0 0 10,444.578 L 10,434.578 z"/>
    <path style="fill: #cab8e0" d="M 242.437,444.578 A 10,10 0 0 0 252.437,434.578 L 242.437,434.578 z"/>
    <line style="fill: none; fill-opacity:0; stroke-width: 2; stroke: #000000" x1="10" y1="400" x2="242.437" y2="400"/>
    <line style="fill: none; fill-opacity:0; stroke-width: 2; stroke: #000000" x1="10" y1="444.578" x2="242.437" y2="444.578"/>
    <path style="fill: none; fill-opacity:0; stroke-width: 2; stroke: #000000" d="M 10,400 A 10,10 0 0 0 0,410"/>
    <path style="fill: none; fill-opacity:0; stroke-width: 2; stroke: #000000" d="M 252.437,410 A 10,10 0 0 0 242.437,400"/>
    <line style="fill: none; fill-opacity:0; stroke-width: 2; stroke: #000000" x1="0" y1="410" x2="0" y2="434.578"/>
    <line style="fill: none; fill-opacity:0; stroke-width: 2; stroke: #000000" x1="252.437" y1="410" x2="252.437" y2="434.578"/>
    <path style="fill: none; fill-opacity:0; stroke-width: 2; stroke: #000000" d="M 0,434.578 A 10,10 0 0 0 10,444.578"/>
    <path style="fill: none; fill-opacity:0; stroke-width: 2; stroke: #000000" d="M 242.437,444.578 A 10,10 0 0 0 252.437,434.578"/>
    <text style="fill: #000000;text-anchor:middle;font-size:18.0622;font-family:Times New Roman;font-style:normal;font-weight:normal" x="126.219" y="427.1">
      <tspan x="126.219" y="427.1">Fuel Cycle Components</tspan>
    </text>
  </g>
  <g>
    <rect style="fill: #1e90ff" x="10.7071" y="354.344" width="232.437" height="44.5778"/>
    <path style="fill: #1e90ff" d="M 10.7071,354.344 A 10,10 0 0 0 0.707106,364.344 L 10.7071,364.344 z"/>
    <path style="fill: #1e90ff" d="M 253.144,364.344 A 10,10 0 0 0 243.144,354.344 L 243.144,364.344 z"/>
    <rect style="fill: #1e90ff" x="0.707106" y="364.344" width="252.437" height="24.5778"/>
    <path style="fill: #1e90ff" d="M 0.707106,388.922 A 10,10 0 0 0 10.7071,398.922 L 10.7071,388.922 z"/>
    <path style="fill: #1e90ff" d="M 243.144,398.922 A 10,10 0 0 0 253.144,388.922 L 243.144,388.922 z"/>
    <line style="fill: none; fill-opacity:0; stroke-width: 2; stroke: #000000" x1="10.7071" y1="354.344" x2="243.144" y2="354.344"/>
    <line style="fill: none; fill-opacity:0; stroke-width: 2; stroke: #000000" x1="10.7071" y1="398.922" x2="243.144" y2="398.922"/>
    <path style="fill: none; fill-opacity:0; stroke-width: 2; stroke: #000000" d="M 10.7071,354.344 A 10,10 0 0 0 0.707106,364.344"/>
    <path style="fill: none; fill-opacity:0; stroke-width: 2; stroke: #000000" d="M 253.144,364.344 A 10,10 0 0 0 243.144,354.344"/>
    <line style="fill: none; fill-opacity:0; stroke-width: 2; stroke: #000000" x1="0.707106" y1="364.344" x2="0.707106" y2="388.922"/>
    <line style="fill: none; fill-opacity:0; stroke-width: 2; stroke: #000000" x1="253.144" y1="364.344" x2="253.144" y2="388.922"/>
    <path style="fill: none; fill-opacity:0; stroke-width: 2; stroke: #000000" d="M 0.707106,388.922 A 10,10 0 0 0 10.7071,398.922"/>
    <path style="fill: none; fill-opacity:0; stroke-width: 2; stroke: #000000" d="M 243.144,398.922 A 10,10 0 0 0 253.144,388.922"/>
    <text style="fill: #000000;text-anchor:middle;font-size:18.0622;font-family:Times New Roman;font-style:normal;font-weight:normal" x="126.926" y="381.444">
      <tspan x="126.926" y="381.444">Fuel Cycle Model</tspan>
    </text>
  </g>
  <g>
    <rect style="fill: #f8f89d" x="10.7071" y="309.192" width="232.437" height="44.5778"/>
    <path style="fill: #f8f89d" d="M 10.7071,309.192 A 10,10 0 0 0 0.707106,319.192 L 10.7071,319.192 z"/>
    <path style="fill: #f8f89d" d="M 253.144,319.192 A 10,10 0 0 0 243.144,309.192 L 243.144,319.192 z"/>
    <rect style="fill: #f8f89d" x="0.707106" y="319.192" width="252.437" height="24.5778"/>
    <path style="fill: #f8f89d" d="M 0.707106,343.77 A 10,10 0 0 0 10.7071,353.77 L 10.7071,343.77 z"/>
    <path style="fill: #f8f89d" d="M 243.144,353.77 A 10,10 0 0 0 253.144,343.77 L 243.144,343.77 z"/>
    <line style="fill: none; fill-opacity:0; stroke-width: 2; stroke: #000000" x1="10.7071" y1="309.192" x2="243.144" y2="309.192"/>
    <line style="fill: none; fill-opacity:0; stroke-width: 2; stroke: #000000" x1="10.7071" y1="353.77" x2="243.144" y2="353.77"/>
    <path style="fill: none; fill-opacity:0; stroke-width: 2; stroke: #000000" d="M 10.7071,309.192 A 10,10 0 0 0 0.707106,319.192"/>
    <path style="fill: none; fill-opacity:0; stroke-width: 2; stroke: #000000" d="M 253.144,319.192 A 10,10 0 0 0 243.144,309.192"/>
    <line style="fill: none; fill-opacity:0; stroke-width: 2; stroke: #000000" x1="0.707106" y1="319.192" x2="0.707106" y2="343.77"/>
    <line style="fill: none; fill-opacity:0; stroke-width: 2; stroke: #000000" x1="253.144" y1="319.192" x2="253.144" y2="343.77"/>
    <path style="fill: none; fill-opacity:0; stroke-width: 2; stroke: #000000" d="M 0.707106,343.77 A 10,10 0 0 0 10.7071,353.77"/>
    <path style="fill: none; fill-opacity:0; stroke-width: 2; stroke: #000000" d="M 243.144,353.77 A 10,10 0 0 0 253.144,343.77"/>
    <text style="fill: #000000;text-anchor:middle;font-size:18.0622;font-family:Times New Roman;font-style:normal;font-weight:normal" x="126.926" y="336.292">
      <tspan x="126.926" y="336.292">Stochastic Driver</tspan>
    </text>
  </g>
  <g>
    <rect style="fill: #d73131" x="11.4142" y="264.042" width="232.437" height="44.5778"/>
    <path style="fill: #d73131" d="M 11.4142,264.042 A 10,10 0 0 0 1.41421,274.042 L 11.4142,274.042 z"/>
    <path style="fill: #d73131" d="M 253.851,274.042 A 10,10 0 0 0 243.851,264.042 L 243.851,274.042 z"/>
    <rect style="fill: #d73131" x="1.41421" y="274.042" width="252.437" height="24.5778"/>
    <path style="fill: #d73131" d="M 1.41421,298.62 A 10,10 0 0 0 11.4142,308.62 L 11.4142,298.62 z"/>
    <path style="fill: #d73131" d="M 243.851,308.62 A 10,10 0 0 0 253.851,298.62 L 243.851,298.62 z"/>
    <line style="fill: none; fill-opacity:0; stroke-width: 2; stroke: #000000" x1="11.4142" y1="264.042" x2="243.851" y2="264.042"/>
    <line style="fill: none; fill-opacity:0; stroke-width: 2; stroke: #000000" x1="11.4142" y1="308.62" x2="243.851" y2="308.62"/>
    <path style="fill: none; fill-opacity:0; stroke-width: 2; stroke: #000000" d="M 11.4142,264.042 A 10,10 0 0 0 1.41421,274.042"/>
    <path style="fill: none; fill-opacity:0; stroke-width: 2; stroke: #000000" d="M 253.851,274.042 A 10,10 0 0 0 243.851,264.042"/>
    <line style="fill: none; fill-opacity:0; stroke-width: 2; stroke: #000000" x1="1.41421" y1="274.042" x2="1.41421" y2="298.62"/>
    <line style="fill: none; fill-opacity:0; stroke-width: 2; stroke: #000000" x1="253.851" y1="274.042" x2="253.851" y2="298.62"/>
    <path style="fill: none; fill-opacity:0; stroke-width: 2; stroke: #000000" d="M 1.41421,298.62 A 10,10 0 0 0 11.4142,308.62"/>
    <path style="fill: none; fill-opacity:0; stroke-width: 2; stroke: #000000" d="M 243.851,308.62 A 10,10 0 0 0 253.851,298.62"/>
    <text style="fill: #000000;text-anchor:middle;font-size:18.0622;font-family:Times New Roman;font-style:normal;font-weight:normal" x="127.633" y="291.142">
      <tspan x="127.633" y="291.142">Analysis Suite</tspan>
    </text>
  </g>
</svg>
