<?xml version="1.0" encoding="UTF-8" standalone="no"?>
<!DOCTYPE svg PUBLIC "-//W3C//DTD SVG 1.0//EN" "http://www.w3.org/TR/2001/PR-SVG-20010719/DTD/svg10.dtd">
<svg width="29cm" height="20cm" viewBox="2 2 569 389" xmlns="http://www.w3.org/2000/svg" xmlns:xlink="http://www.w3.org/1999/xlink">
  <g>
    <polyline style="fill: none; fill-opacity:0; stroke-width: 2; stroke: #000000" points="482.696,168.5 482.696,289.5 203,289.5 203,309 "/>
    <polygon style="fill: #000000" points="198,309 203,319 208,309 "/>
    <polygon style="fill: none; fill-opacity:0; stroke-width: 2; stroke: #000000" points="198,309 203,319 208,309 "/>
  </g>
  <line style="fill: none; fill-opacity:0; stroke-width: 2; stroke: #000000" x1="510" y1="167" x2="510" y2="247"/>
  <g>
    <line style="fill: none; fill-opacity:0; stroke-width: 2; stroke: #000000" x1="448" y1="224" x2="540" y2="224"/>
    <path style="fill: #000000" d="M 540 224 C 540,226.5 537.5,229 535,229 C 532.5,229 530,226.5 530,224 C 530,221.5 532.5,219 535,219 C 537.5,219 540,221.5 540,224z"/>
    <path style="fill: none; fill-opacity:0; stroke-width: 2; stroke: #000000" d="M 540 224 C 540,226.5 537.5,229 535,229 C 532.5,229 530,226.5 530,224 C 530,221.5 532.5,219 535,219 C 537.5,219 540,221.5 540,224"/>
  </g>
  <g>
    <line style="fill: none; fill-opacity:0; stroke-width: 2; stroke: #000000" x1="534.5" y1="170.5" x2="534.5" y2="308.764"/>
    <polygon style="fill: #000000" points="534.5,316.264 529.5,306.264 534.5,308.764 539.5,306.264 "/>
    <polygon style="fill: none; fill-opacity:0; stroke-width: 2; stroke: #000000" points="534.5,316.264 529.5,306.264 534.5,308.764 539.5,306.264 "/>
  </g>
  <g>
    <polyline style="fill: none; fill-opacity:0; stroke-width: 2; stroke: #f21007" points="377,212 377,172 217.736,172 "/>
    <polygon style="fill: #f21007" points="210.236,172 220.236,167 217.736,172 220.236,177 "/>
    <polygon style="fill: none; fill-opacity:0; stroke-width: 2; stroke: #f21007" points="210.236,172 220.236,167 217.736,172 220.236,177 "/>
  </g>
  <g>
    <polyline style="fill: none; fill-opacity:0; stroke-width: 2; stroke: #f21007" points="402,212 402,152 217.736,152 "/>
    <polygon style="fill: #f21007" points="210.236,152 220.236,147 217.736,152 220.236,157 "/>
    <polygon style="fill: none; fill-opacity:0; stroke-width: 2; stroke: #f21007" points="210.236,152 220.236,147 217.736,152 220.236,157 "/>
  </g>
  <g>
    <polyline style="fill: none; fill-opacity:0; stroke-width: 2; stroke: #f21007" points="427,212 427,132 217.736,132 "/>
    <polygon style="fill: #f21007" points="210.236,132 220.236,127 217.736,132 220.236,137 "/>
    <polygon style="fill: none; fill-opacity:0; stroke-width: 2; stroke: #f21007" points="210.236,132 220.236,127 217.736,132 220.236,137 "/>
  </g>
  <g>
    <line style="fill: none; fill-opacity:0; stroke-width: 2; stroke: #f21007" x1="204" y1="247" x2="226.264" y2="247"/>
    <polygon style="fill: #f21007" points="233.764,247 223.764,252 226.264,247 223.764,242 "/>
    <polygon style="fill: none; fill-opacity:0; stroke-width: 2; stroke: #f21007" points="233.764,247 223.764,252 226.264,247 223.764,242 "/>
  </g>
  <g>
    <line style="fill: none; fill-opacity:0; stroke-width: 2; stroke: #f21007" x1="162.975" y1="178" x2="163.056" y2="201.514"/>
    <polygon style="fill: #f21007" points="163.082,209.014 158.048,199.031 163.056,201.514 168.048,198.997 "/>
    <polygon style="fill: none; fill-opacity:0; stroke-width: 2; stroke: #f21007" points="163.082,209.014 158.048,199.031 163.056,201.514 168.048,198.997 "/>
  </g>
  <g>
    <line style="fill: none; fill-opacity:0; stroke-width: 2; stroke: #f21007" x1="462.928" y1="110.929" x2="212.758" y2="110.929"/>
    <polygon style="fill: #f21007" points="205.258,110.929 215.258,105.929 212.758,110.929 215.258,115.929 "/>
    <polygon style="fill: none; fill-opacity:0; stroke-width: 2; stroke: #f21007" points="205.258,110.929 215.258,105.929 212.758,110.929 215.258,115.929 "/>
  </g>
  <g>
    <line style="fill: none; fill-opacity:0; stroke-width: 2; stroke: #f21007" x1="163.322" y1="74.9993" x2="163.077" y2="98.2645"/>
    <polygon style="fill: #f21007" points="162.998,105.764 158.104,95.7121 163.077,98.2645 168.103,95.8171 "/>
    <polygon style="fill: none; fill-opacity:0; stroke-width: 2; stroke: #f21007" points="162.998,105.764 158.104,95.7121 163.077,98.2645 168.103,95.8171 "/>
  </g>
  <g>
    <line style="fill: none; fill-opacity:0; stroke-width: 2; stroke: #000000" x1="510" y1="74" x2="510" y2="98.2639"/>
    <polygon style="fill: #000000" points="510,105.764 505,95.7639 510,98.2639 515,95.7639 "/>
    <polygon style="fill: none; fill-opacity:0; stroke-width: 2; stroke: #000000" points="510,105.764 505,95.7639 510,98.2639 515,95.7639 "/>
  </g>
  <g>
    <line style="fill: none; fill-opacity:0; stroke-width: 2; stroke: #000000" x1="90.7" y1="39" x2="110.264" y2="39"/>
    <polygon style="fill: #000000" points="117.764,39 107.764,44 110.264,39 107.764,34 "/>
    <polygon style="fill: none; fill-opacity:0; stroke-width: 2; stroke: #000000" points="117.764,39 107.764,44 110.264,39 107.764,34 "/>
  </g>
  <g>
    <line style="fill: none; fill-opacity:0; stroke-width: 2; stroke: #000000" x1="207.4" y1="39" x2="226.264" y2="39"/>
    <polygon style="fill: #000000" points="233.764,39 223.764,44 226.264,39 223.764,34 "/>
    <polygon style="fill: none; fill-opacity:0; stroke-width: 2; stroke: #000000" points="233.764,39 223.764,44 226.264,39 223.764,34 "/>
  </g>
  <g>
    <line style="fill: none; fill-opacity:0; stroke-width: 2; stroke: #000000" x1="321.95" y1="39" x2="342.264" y2="39"/>
    <polygon style="fill: #000000" points="349.764,39 339.764,44 342.264,39 339.764,34 "/>
    <polygon style="fill: none; fill-opacity:0; stroke-width: 2; stroke: #000000" points="349.764,39 339.764,44 342.264,39 339.764,34 "/>
  </g>
  <g>
    <rect style="fill: #f7a058" x="245.978" y="4" width="65.9938" height="70"/>
    <path style="fill: #f7a058" d="M 245.978,4 A 10,10 0 0 0 235.978,14 L 245.978,14 z"/>
    <path style="fill: #f7a058" d="M 321.972,14 A 10,10 0 0 0 311.972,4 L 311.972,14 z"/>
    <rect style="fill: #f7a058" x="235.978" y="14" width="85.9938" height="50"/>
    <path style="fill: #f7a058" d="M 235.978,64 A 10,10 0 0 0 245.978,74 L 245.978,64 z"/>
    <path style="fill: #f7a058" d="M 311.972,74 A 10,10 0 0 0 321.972,64 L 311.972,64 z"/>
    <line style="fill: none; fill-opacity:0; stroke-width: 2; stroke: #df6c11" x1="245.978" y1="4" x2="311.972" y2="4"/>
    <line style="fill: none; fill-opacity:0; stroke-width: 2; stroke: #df6c11" x1="245.978" y1="74" x2="311.972" y2="74"/>
    <path style="fill: none; fill-opacity:0; stroke-width: 2; stroke: #df6c11" d="M 245.978,4 A 10,10 0 0 0 235.978,14"/>
    <path style="fill: none; fill-opacity:0; stroke-width: 2; stroke: #df6c11" d="M 321.972,14 A 10,10 0 0 0 311.972,4"/>
    <line style="fill: none; fill-opacity:0; stroke-width: 2; stroke: #df6c11" x1="235.978" y1="14" x2="235.978" y2="64"/>
    <line style="fill: none; fill-opacity:0; stroke-width: 2; stroke: #df6c11" x1="321.972" y1="14" x2="321.972" y2="64"/>
    <path style="fill: none; fill-opacity:0; stroke-width: 2; stroke: #df6c11" d="M 235.978,64 A 10,10 0 0 0 245.978,74"/>
    <path style="fill: none; fill-opacity:0; stroke-width: 2; stroke: #df6c11" d="M 311.972,74 A 10,10 0 0 0 321.972,64"/>
    <text style="fill: #000000;text-anchor:middle;font-size:12.8;font-family:Times New Roman;font-style:normal;font-weight:700" x="278.975" y="34.45">
      <tspan x="278.975" y="34.45">LWR Fuel</tspan>
      <tspan x="278.975" y="50.45">Fabrication</tspan>
    </text>
  </g>
  <g>
    <rect style="fill: #a3e65f" x="129.991" y="4" width="67.4188" height="70"/>
    <path style="fill: #a3e65f" d="M 129.991,4 A 10,10 0 0 0 119.991,14 L 129.991,14 z"/>
    <path style="fill: #a3e65f" d="M 207.409,14 A 10,10 0 0 0 197.409,4 L 197.409,14 z"/>
    <rect style="fill: #a3e65f" x="119.991" y="14" width="87.4188" height="50"/>
    <path style="fill: #a3e65f" d="M 119.991,64 A 10,10 0 0 0 129.991,74 L 129.991,64 z"/>
    <path style="fill: #a3e65f" d="M 197.409,74 A 10,10 0 0 0 207.409,64 L 197.409,64 z"/>
    <line style="fill: none; fill-opacity:0; stroke-width: 2; stroke: #006304" x1="129.991" y1="4" x2="197.409" y2="4"/>
    <line style="fill: none; fill-opacity:0; stroke-width: 2; stroke: #006304" x1="129.991" y1="74" x2="197.409" y2="74"/>
    <path style="fill: none; fill-opacity:0; stroke-width: 2; stroke: #006304" d="M 129.991,4 A 10,10 0 0 0 119.991,14"/>
    <path style="fill: none; fill-opacity:0; stroke-width: 2; stroke: #006304" d="M 207.409,14 A 10,10 0 0 0 197.409,4"/>
    <line style="fill: none; fill-opacity:0; stroke-width: 2; stroke: #006304" x1="119.991" y1="14" x2="119.991" y2="64"/>
    <line style="fill: none; fill-opacity:0; stroke-width: 2; stroke: #006304" x1="207.409" y1="14" x2="207.409" y2="64"/>
    <path style="fill: none; fill-opacity:0; stroke-width: 2; stroke: #006304" d="M 119.991,64 A 10,10 0 0 0 129.991,74"/>
    <path style="fill: none; fill-opacity:0; stroke-width: 2; stroke: #006304" d="M 197.409,74 A 10,10 0 0 0 207.409,64"/>
    <text style="fill: #000000;text-anchor:middle;font-size:12.8;font-family:Times New Roman;font-style:normal;font-weight:700" x="163.7" y="42.45">
      <tspan x="163.7" y="42.45">Enrichment</tspan>
    </text>
  </g>
  <g>
    <rect style="fill: #fdfd1f" x="362" y="4" width="64" height="70"/>
    <path style="fill: #fdfd1f" d="M 362,4 A 10,10 0 0 0 352,14 L 362,14 z"/>
    <path style="fill: #fdfd1f" d="M 436,14 A 10,10 0 0 0 426,4 L 426,14 z"/>
    <rect style="fill: #fdfd1f" x="352" y="14" width="84" height="50"/>
    <path style="fill: #fdfd1f" d="M 352,64 A 10,10 0 0 0 362,74 L 362,64 z"/>
    <path style="fill: #fdfd1f" d="M 426,74 A 10,10 0 0 0 436,64 L 426,64 z"/>
    <line style="fill: none; fill-opacity:0; stroke-width: 2; stroke: #df6c11" x1="362" y1="4" x2="426" y2="4"/>
    <line style="fill: none; fill-opacity:0; stroke-width: 2; stroke: #df6c11" x1="362" y1="74" x2="426" y2="74"/>
    <path style="fill: none; fill-opacity:0; stroke-width: 2; stroke: #df6c11" d="M 362,4 A 10,10 0 0 0 352,14"/>
    <path style="fill: none; fill-opacity:0; stroke-width: 2; stroke: #df6c11" d="M 436,14 A 10,10 0 0 0 426,4"/>
    <line style="fill: none; fill-opacity:0; stroke-width: 2; stroke: #df6c11" x1="352" y1="14" x2="352" y2="64"/>
    <line style="fill: none; fill-opacity:0; stroke-width: 2; stroke: #df6c11" x1="436" y1="14" x2="436" y2="64"/>
    <path style="fill: none; fill-opacity:0; stroke-width: 2; stroke: #df6c11" d="M 352,64 A 10,10 0 0 0 362,74"/>
    <path style="fill: none; fill-opacity:0; stroke-width: 2; stroke: #df6c11" d="M 426,74 A 10,10 0 0 0 436,64"/>
    <text style="fill: #000000;text-anchor:middle;font-size:12.8;font-family:Times New Roman;font-style:normal;font-weight:700" x="394" y="42.45">
      <tspan x="394" y="42.45">LWR</tspan>
    </text>
  </g>
  <g>
    <line style="fill: none; fill-opacity:0; stroke-width: 2; stroke: #000000" x1="436" y1="39" x2="458.264" y2="39"/>
    <polygon style="fill: #000000" points="465.764,39 455.764,44 458.264,39 455.764,34 "/>
    <polygon style="fill: none; fill-opacity:0; stroke-width: 2; stroke: #000000" points="465.764,39 455.764,44 458.264,39 455.764,34 "/>
  </g>
  <g>
    <rect style="fill: #cab8e0" x="478" y="4" width="64" height="70"/>
    <path style="fill: #cab8e0" d="M 478,4 A 10,10 0 0 0 468,14 L 478,14 z"/>
    <path style="fill: #cab8e0" d="M 552,14 A 10,10 0 0 0 542,4 L 542,14 z"/>
    <rect style="fill: #cab8e0" x="468" y="14" width="84" height="50"/>
    <path style="fill: #cab8e0" d="M 468,64 A 10,10 0 0 0 478,74 L 478,64 z"/>
    <path style="fill: #cab8e0" d="M 542,74 A 10,10 0 0 0 552,64 L 542,64 z"/>
    <line style="fill: none; fill-opacity:0; stroke-width: 2; stroke: #49577a" x1="478" y1="4" x2="542" y2="4"/>
    <line style="fill: none; fill-opacity:0; stroke-width: 2; stroke: #49577a" x1="478" y1="74" x2="542" y2="74"/>
    <path style="fill: none; fill-opacity:0; stroke-width: 2; stroke: #49577a" d="M 478,4 A 10,10 0 0 0 468,14"/>
    <path style="fill: none; fill-opacity:0; stroke-width: 2; stroke: #49577a" d="M 552,14 A 10,10 0 0 0 542,4"/>
    <line style="fill: none; fill-opacity:0; stroke-width: 2; stroke: #49577a" x1="468" y1="14" x2="468" y2="64"/>
    <line style="fill: none; fill-opacity:0; stroke-width: 2; stroke: #49577a" x1="552" y1="14" x2="552" y2="64"/>
    <path style="fill: none; fill-opacity:0; stroke-width: 2; stroke: #49577a" d="M 468,64 A 10,10 0 0 0 478,74"/>
    <path style="fill: none; fill-opacity:0; stroke-width: 2; stroke: #49577a" d="M 542,74 A 10,10 0 0 0 552,64"/>
    <text style="fill: #000000;text-anchor:middle;font-size:12.8;font-family:Times New Roman;font-style:normal;font-weight:700" x="510" y="34.45">
      <tspan x="510" y="34.45">LWR UF</tspan>
      <tspan x="510" y="50.45">Storage</tspan>
    </text>
  </g>
  <g>
    <rect style="fill: #aac4e0" x="470" y="108" width="80" height="70"/>
    <path style="fill: #aac4e0" d="M 470,108 A 10,10 0 0 0 460,118 L 470,118 z"/>
    <path style="fill: #aac4e0" d="M 560,118 A 10,10 0 0 0 550,108 L 550,118 z"/>
    <rect style="fill: #aac4e0" x="460" y="118" width="100" height="50"/>
    <path style="fill: #aac4e0" d="M 460,168 A 10,10 0 0 0 470,178 L 470,168 z"/>
    <path style="fill: #aac4e0" d="M 550,178 A 10,10 0 0 0 560,168 L 550,168 z"/>
    <line style="fill: none; fill-opacity:0; stroke-width: 2; stroke: #213567" x1="470" y1="108" x2="550" y2="108"/>
    <line style="fill: none; fill-opacity:0; stroke-width: 2; stroke: #213567" x1="470" y1="178" x2="550" y2="178"/>
    <path style="fill: none; fill-opacity:0; stroke-width: 2; stroke: #213567" d="M 470,108 A 10,10 0 0 0 460,118"/>
    <path style="fill: none; fill-opacity:0; stroke-width: 2; stroke: #213567" d="M 560,118 A 10,10 0 0 0 550,108"/>
    <line style="fill: none; fill-opacity:0; stroke-width: 2; stroke: #213567" x1="460" y1="118" x2="460" y2="168"/>
    <line style="fill: none; fill-opacity:0; stroke-width: 2; stroke: #213567" x1="560" y1="118" x2="560" y2="168"/>
    <path style="fill: none; fill-opacity:0; stroke-width: 2; stroke: #213567" d="M 460,168 A 10,10 0 0 0 470,178"/>
    <path style="fill: none; fill-opacity:0; stroke-width: 2; stroke: #213567" d="M 550,178 A 10,10 0 0 0 560,168"/>
    <text style="fill: #000000;text-anchor:middle;font-size:12.8;font-family:Times New Roman;font-style:normal;font-weight:700" x="510" y="130.45">
      <tspan x="510" y="130.45">LWR UF</tspan>
      <tspan x="510" y="146.45">Reprocessing</tspan>
      <tspan x="510" y="162.45">Facility</tspan>
    </text>
  </g>
  <text style="fill: #000000;text-anchor:start;font-size:12.8;font-family:Times New Roman;font-style:normal;font-weight:700" x="448" y="92">
    <tspan x="448" y="92">LWR-UF</tspan>
  </text>
  <g>
    <rect style="fill: #f9d6b0" x="13.9906" y="4" width="66.7188" height="70"/>
    <path style="fill: #f9d6b0" d="M 13.9906,4 A 10,10 0 0 0 3.99062,14 L 13.9906,14 z"/>
    <path style="fill: #f9d6b0" d="M 90.7094,14 A 10,10 0 0 0 80.7094,4 L 80.7094,14 z"/>
    <rect style="fill: #f9d6b0" x="3.99062" y="14" width="86.7188" height="50"/>
    <path style="fill: #f9d6b0" d="M 3.99062,64 A 10,10 0 0 0 13.9906,74 L 13.9906,64 z"/>
    <path style="fill: #f9d6b0" d="M 80.7094,74 A 10,10 0 0 0 90.7094,64 L 80.7094,64 z"/>
    <line style="fill: none; fill-opacity:0; stroke-width: 2; stroke: #9a3e13" x1="13.9906" y1="4" x2="80.7094" y2="4"/>
    <line style="fill: none; fill-opacity:0; stroke-width: 2; stroke: #9a3e13" x1="13.9906" y1="74" x2="80.7094" y2="74"/>
    <path style="fill: none; fill-opacity:0; stroke-width: 2; stroke: #9a3e13" d="M 13.9906,4 A 10,10 0 0 0 3.99062,14"/>
    <path style="fill: none; fill-opacity:0; stroke-width: 2; stroke: #9a3e13" d="M 90.7094,14 A 10,10 0 0 0 80.7094,4"/>
    <line style="fill: none; fill-opacity:0; stroke-width: 2; stroke: #9a3e13" x1="3.99062" y1="14" x2="3.99062" y2="64"/>
    <line style="fill: none; fill-opacity:0; stroke-width: 2; stroke: #9a3e13" x1="90.7094" y1="14" x2="90.7094" y2="64"/>
    <path style="fill: none; fill-opacity:0; stroke-width: 2; stroke: #9a3e13" d="M 3.99062,64 A 10,10 0 0 0 13.9906,74"/>
    <path style="fill: none; fill-opacity:0; stroke-width: 2; stroke: #9a3e13" d="M 80.7094,74 A 10,10 0 0 0 90.7094,64"/>
    <text style="fill: #000000;text-anchor:middle;font-size:12.8;font-family:Times New Roman;font-style:normal;font-weight:700" x="47.35" y="26.45">
      <tspan x="47.35" y="26.45">NU Mining,</tspan>
      <tspan x="47.35" y="42.45">Milling, &amp;</tspan>
      <tspan x="47.35" y="58.45">Conversion</tspan>
    </text>
  </g>
  <g>
    <rect style="fill: #f7a058" x="129.978" y="108" width="65.9938" height="70"/>
    <path style="fill: #f7a058" d="M 129.978,108 A 10,10 0 0 0 119.978,118 L 129.978,118 z"/>
    <path style="fill: #f7a058" d="M 205.972,118 A 10,10 0 0 0 195.972,108 L 195.972,118 z"/>
    <rect style="fill: #f7a058" x="119.978" y="118" width="85.9938" height="50"/>
    <path style="fill: #f7a058" d="M 119.978,168 A 10,10 0 0 0 129.978,178 L 129.978,168 z"/>
    <path style="fill: #f7a058" d="M 195.972,178 A 10,10 0 0 0 205.972,168 L 195.972,168 z"/>
    <line style="fill: none; fill-opacity:0; stroke-width: 2; stroke: #df6c11" x1="129.978" y1="108" x2="195.972" y2="108"/>
    <line style="fill: none; fill-opacity:0; stroke-width: 2; stroke: #df6c11" x1="129.978" y1="178" x2="195.972" y2="178"/>
    <path style="fill: none; fill-opacity:0; stroke-width: 2; stroke: #df6c11" d="M 129.978,108 A 10,10 0 0 0 119.978,118"/>
    <path style="fill: none; fill-opacity:0; stroke-width: 2; stroke: #df6c11" d="M 205.972,118 A 10,10 0 0 0 195.972,108"/>
    <line style="fill: none; fill-opacity:0; stroke-width: 2; stroke: #df6c11" x1="119.978" y1="118" x2="119.978" y2="168"/>
    <line style="fill: none; fill-opacity:0; stroke-width: 2; stroke: #df6c11" x1="205.972" y1="118" x2="205.972" y2="168"/>
    <path style="fill: none; fill-opacity:0; stroke-width: 2; stroke: #df6c11" d="M 119.978,168 A 10,10 0 0 0 129.978,178"/>
    <path style="fill: none; fill-opacity:0; stroke-width: 2; stroke: #df6c11" d="M 195.972,178 A 10,10 0 0 0 205.972,168"/>
    <text style="fill: #000000;text-anchor:middle;font-size:12.8;font-family:Times New Roman;font-style:normal;font-weight:700" x="162.975" y="138.45">
      <tspan x="162.975" y="138.45">FR Fuel</tspan>
      <tspan x="162.975" y="154.45">Fabrication</tspan>
    </text>
  </g>
  <text style="fill: #f21007;text-anchor:start;font-size:12.8;font-family:Times New Roman;font-style:normal;font-weight:700" x="140" y="92">
    <tspan x="140" y="92">DU</tspan>
  </text>
  <text style="fill: #f21007;text-anchor:start;font-size:12.8;font-family:Times New Roman;font-style:normal;font-weight:700" x="248" y="108">
    <tspan x="248" y="108">LWR-TRU</tspan>
  </text>
  <g>
    <rect style="fill: #fdfd1f" x="130" y="212" width="64" height="70"/>
    <path style="fill: #fdfd1f" d="M 130,212 A 10,10 0 0 0 120,222 L 130,222 z"/>
    <path style="fill: #fdfd1f" d="M 204,222 A 10,10 0 0 0 194,212 L 194,222 z"/>
    <rect style="fill: #fdfd1f" x="120" y="222" width="84" height="50"/>
    <path style="fill: #fdfd1f" d="M 120,272 A 10,10 0 0 0 130,282 L 130,272 z"/>
    <path style="fill: #fdfd1f" d="M 194,282 A 10,10 0 0 0 204,272 L 194,272 z"/>
    <line style="fill: none; fill-opacity:0; stroke-width: 2; stroke: #df6c11" x1="130" y1="212" x2="194" y2="212"/>
    <line style="fill: none; fill-opacity:0; stroke-width: 2; stroke: #df6c11" x1="130" y1="282" x2="194" y2="282"/>
    <path style="fill: none; fill-opacity:0; stroke-width: 2; stroke: #df6c11" d="M 130,212 A 10,10 0 0 0 120,222"/>
    <path style="fill: none; fill-opacity:0; stroke-width: 2; stroke: #df6c11" d="M 204,222 A 10,10 0 0 0 194,212"/>
    <line style="fill: none; fill-opacity:0; stroke-width: 2; stroke: #df6c11" x1="120" y1="222" x2="120" y2="272"/>
    <line style="fill: none; fill-opacity:0; stroke-width: 2; stroke: #df6c11" x1="204" y1="222" x2="204" y2="272"/>
    <path style="fill: none; fill-opacity:0; stroke-width: 2; stroke: #df6c11" d="M 120,272 A 10,10 0 0 0 130,282"/>
    <path style="fill: none; fill-opacity:0; stroke-width: 2; stroke: #df6c11" d="M 194,282 A 10,10 0 0 0 204,272"/>
    <text style="fill: #000000;text-anchor:middle;font-size:12.8;font-family:Times New Roman;font-style:normal;font-weight:700" x="162" y="250.45">
      <tspan x="162" y="250.45">FR</tspan>
    </text>
  </g>
  <g>
    <rect style="fill: #cab8e0" x="246" y="212" width="64" height="70"/>
    <path style="fill: #cab8e0" d="M 246,212 A 10,10 0 0 0 236,222 L 246,222 z"/>
    <path style="fill: #cab8e0" d="M 320,222 A 10,10 0 0 0 310,212 L 310,222 z"/>
    <rect style="fill: #cab8e0" x="236" y="222" width="84" height="50"/>
    <path style="fill: #cab8e0" d="M 236,272 A 10,10 0 0 0 246,282 L 246,272 z"/>
    <path style="fill: #cab8e0" d="M 310,282 A 10,10 0 0 0 320,272 L 310,272 z"/>
    <line style="fill: none; fill-opacity:0; stroke-width: 2; stroke: #49577a" x1="246" y1="212" x2="310" y2="212"/>
    <line style="fill: none; fill-opacity:0; stroke-width: 2; stroke: #49577a" x1="246" y1="282" x2="310" y2="282"/>
    <path style="fill: none; fill-opacity:0; stroke-width: 2; stroke: #49577a" d="M 246,212 A 10,10 0 0 0 236,222"/>
    <path style="fill: none; fill-opacity:0; stroke-width: 2; stroke: #49577a" d="M 320,222 A 10,10 0 0 0 310,212"/>
    <line style="fill: none; fill-opacity:0; stroke-width: 2; stroke: #49577a" x1="236" y1="222" x2="236" y2="272"/>
    <line style="fill: none; fill-opacity:0; stroke-width: 2; stroke: #49577a" x1="320" y1="222" x2="320" y2="272"/>
    <path style="fill: none; fill-opacity:0; stroke-width: 2; stroke: #49577a" d="M 236,272 A 10,10 0 0 0 246,282"/>
    <path style="fill: none; fill-opacity:0; stroke-width: 2; stroke: #49577a" d="M 310,282 A 10,10 0 0 0 320,272"/>
    <text style="fill: #000000;text-anchor:middle;font-size:12.8;font-family:Times New Roman;font-style:normal;font-weight:700" x="278" y="242.45">
      <tspan x="278" y="242.45">FR UF</tspan>
      <tspan x="278" y="258.45">Storage</tspan>
    </text>
  </g>
  <g>
    <rect style="fill: #aac4e0" x="362" y="212" width="80" height="70"/>
    <path style="fill: #aac4e0" d="M 362,212 A 10,10 0 0 0 352,222 L 362,222 z"/>
    <path style="fill: #aac4e0" d="M 452,222 A 10,10 0 0 0 442,212 L 442,222 z"/>
    <rect style="fill: #aac4e0" x="352" y="222" width="100" height="50"/>
    <path style="fill: #aac4e0" d="M 352,272 A 10,10 0 0 0 362,282 L 362,272 z"/>
    <path style="fill: #aac4e0" d="M 442,282 A 10,10 0 0 0 452,272 L 442,272 z"/>
    <line style="fill: none; fill-opacity:0; stroke-width: 2; stroke: #213567" x1="362" y1="212" x2="442" y2="212"/>
    <line style="fill: none; fill-opacity:0; stroke-width: 2; stroke: #213567" x1="362" y1="282" x2="442" y2="282"/>
    <path style="fill: none; fill-opacity:0; stroke-width: 2; stroke: #213567" d="M 362,212 A 10,10 0 0 0 352,222"/>
    <path style="fill: none; fill-opacity:0; stroke-width: 2; stroke: #213567" d="M 452,222 A 10,10 0 0 0 442,212"/>
    <line style="fill: none; fill-opacity:0; stroke-width: 2; stroke: #213567" x1="352" y1="222" x2="352" y2="272"/>
    <line style="fill: none; fill-opacity:0; stroke-width: 2; stroke: #213567" x1="452" y1="222" x2="452" y2="272"/>
    <path style="fill: none; fill-opacity:0; stroke-width: 2; stroke: #213567" d="M 352,272 A 10,10 0 0 0 362,282"/>
    <path style="fill: none; fill-opacity:0; stroke-width: 2; stroke: #213567" d="M 442,282 A 10,10 0 0 0 452,272"/>
    <text style="fill: #000000;text-anchor:middle;font-size:12.8;font-family:Times New Roman;font-style:normal;font-weight:700" x="402" y="234.45">
      <tspan x="402" y="234.45">FR UF</tspan>
      <tspan x="402" y="250.45">Reprocessing</tspan>
      <tspan x="402" y="266.45">Facility</tspan>
    </text>
  </g>
  <g>
    <line style="fill: none; fill-opacity:0; stroke-width: 2; stroke: #f21007" x1="320" y1="247" x2="342.264" y2="247"/>
    <polygon style="fill: #f21007" points="349.764,247 339.764,252 342.264,247 339.764,242 "/>
    <polygon style="fill: none; fill-opacity:0; stroke-width: 2; stroke: #f21007" points="349.764,247 339.764,252 342.264,247 339.764,242 "/>
  </g>
  <text style="fill: #f21007;text-anchor:start;font-size:12.8;font-family:Times New Roman;font-style:normal;font-weight:700" x="248" y="148">
    <tspan x="248" y="148">FR-TRU</tspan>
  </text>
  <text style="fill: #f21007;text-anchor:start;font-size:12.8;font-family:Times New Roman;font-style:normal;font-weight:700" x="248" y="128">
    <tspan x="248" y="128">FR-U</tspan>
  </text>
  <text style="fill: #f21007;text-anchor:start;font-size:12.8;font-family:Times New Roman;font-style:normal;font-weight:700" x="248" y="168">
    <tspan x="248" y="168">FR-LAN</tspan>
  </text>
  <g>
    <rect style="fill: #cab8e0" x="150" y="320" width="64" height="70"/>
    <path style="fill: #cab8e0" d="M 150,320 A 10,10 0 0 0 140,330 L 150,330 z"/>
    <path style="fill: #cab8e0" d="M 224,330 A 10,10 0 0 0 214,320 L 214,330 z"/>
    <rect style="fill: #cab8e0" x="140" y="330" width="84" height="50"/>
    <path style="fill: #cab8e0" d="M 140,380 A 10,10 0 0 0 150,390 L 150,380 z"/>
    <path style="fill: #cab8e0" d="M 214,390 A 10,10 0 0 0 224,380 L 214,380 z"/>
    <line style="fill: none; fill-opacity:0; stroke-width: 2; stroke: #49577a" x1="150" y1="320" x2="214" y2="320"/>
    <line style="fill: none; fill-opacity:0; stroke-width: 2; stroke: #49577a" x1="150" y1="390" x2="214" y2="390"/>
    <path style="fill: none; fill-opacity:0; stroke-width: 2; stroke: #49577a" d="M 150,320 A 10,10 0 0 0 140,330"/>
    <path style="fill: none; fill-opacity:0; stroke-width: 2; stroke: #49577a" d="M 224,330 A 10,10 0 0 0 214,320"/>
    <line style="fill: none; fill-opacity:0; stroke-width: 2; stroke: #49577a" x1="140" y1="330" x2="140" y2="380"/>
    <line style="fill: none; fill-opacity:0; stroke-width: 2; stroke: #49577a" x1="224" y1="330" x2="224" y2="380"/>
    <path style="fill: none; fill-opacity:0; stroke-width: 2; stroke: #49577a" d="M 140,380 A 10,10 0 0 0 150,390"/>
    <path style="fill: none; fill-opacity:0; stroke-width: 2; stroke: #49577a" d="M 214,390 A 10,10 0 0 0 224,380"/>
    <text style="fill: #000000;text-anchor:middle;font-size:12.8;font-family:Times New Roman;font-style:normal;font-weight:700" x="182" y="350.45">
      <tspan x="182" y="350.45">LLW</tspan>
      <tspan x="182" y="366.45">Disposal</tspan>
    </text>
  </g>
  <text style="fill: #000000;text-anchor:start;font-size:12.8;font-family:Times New Roman;font-style:normal;font-weight:700" x="540" y="270">
    <tspan x="540" y="270">FP &amp; </tspan>
    <tspan x="540" y="286">TRU </tspan>
    <tspan x="540" y="302">Loss</tspan>
  </text>
  <g>
    <rect style="fill: #cab8e0" x="260" y="320" width="64" height="70"/>
    <path style="fill: #cab8e0" d="M 260,320 A 10,10 0 0 0 250,330 L 260,330 z"/>
    <path style="fill: #cab8e0" d="M 334,330 A 10,10 0 0 0 324,320 L 324,330 z"/>
    <rect style="fill: #cab8e0" x="250" y="330" width="84" height="50"/>
    <path style="fill: #cab8e0" d="M 250,380 A 10,10 0 0 0 260,390 L 260,380 z"/>
    <path style="fill: #cab8e0" d="M 324,390 A 10,10 0 0 0 334,380 L 324,380 z"/>
    <line style="fill: none; fill-opacity:0; stroke-width: 2; stroke: #49577a" x1="260" y1="320" x2="324" y2="320"/>
    <line style="fill: none; fill-opacity:0; stroke-width: 2; stroke: #49577a" x1="260" y1="390" x2="324" y2="390"/>
    <path style="fill: none; fill-opacity:0; stroke-width: 2; stroke: #49577a" d="M 260,320 A 10,10 0 0 0 250,330"/>
    <path style="fill: none; fill-opacity:0; stroke-width: 2; stroke: #49577a" d="M 334,330 A 10,10 0 0 0 324,320"/>
    <line style="fill: none; fill-opacity:0; stroke-width: 2; stroke: #49577a" x1="250" y1="330" x2="250" y2="380"/>
    <line style="fill: none; fill-opacity:0; stroke-width: 2; stroke: #49577a" x1="334" y1="330" x2="334" y2="380"/>
    <path style="fill: none; fill-opacity:0; stroke-width: 2; stroke: #49577a" d="M 250,380 A 10,10 0 0 0 260,390"/>
    <path style="fill: none; fill-opacity:0; stroke-width: 2; stroke: #49577a" d="M 324,390 A 10,10 0 0 0 334,380"/>
    <text style="fill: #000000;text-anchor:middle;font-size:12.8;font-family:Times New Roman;font-style:normal;font-weight:700" x="292" y="350.45">
      <tspan x="292" y="350.45">Cs/Sr</tspan>
      <tspan x="292" y="366.45">Storage</tspan>
    </text>
  </g>
  <g>
    <rect style="fill: #cab8e0" x="370" y="320" width="64" height="70"/>
    <path style="fill: #cab8e0" d="M 370,320 A 10,10 0 0 0 360,330 L 370,330 z"/>
    <path style="fill: #cab8e0" d="M 444,330 A 10,10 0 0 0 434,320 L 434,330 z"/>
    <rect style="fill: #cab8e0" x="360" y="330" width="84" height="50"/>
    <path style="fill: #cab8e0" d="M 360,380 A 10,10 0 0 0 370,390 L 370,380 z"/>
    <path style="fill: #cab8e0" d="M 434,390 A 10,10 0 0 0 444,380 L 434,380 z"/>
    <line style="fill: none; fill-opacity:0; stroke-width: 2; stroke: #49577a" x1="370" y1="320" x2="434" y2="320"/>
    <line style="fill: none; fill-opacity:0; stroke-width: 2; stroke: #49577a" x1="370" y1="390" x2="434" y2="390"/>
    <path style="fill: none; fill-opacity:0; stroke-width: 2; stroke: #49577a" d="M 370,320 A 10,10 0 0 0 360,330"/>
    <path style="fill: none; fill-opacity:0; stroke-width: 2; stroke: #49577a" d="M 444,330 A 10,10 0 0 0 434,320"/>
    <line style="fill: none; fill-opacity:0; stroke-width: 2; stroke: #49577a" x1="360" y1="330" x2="360" y2="380"/>
    <line style="fill: none; fill-opacity:0; stroke-width: 2; stroke: #49577a" x1="444" y1="330" x2="444" y2="380"/>
    <path style="fill: none; fill-opacity:0; stroke-width: 2; stroke: #49577a" d="M 360,380 A 10,10 0 0 0 370,390"/>
    <path style="fill: none; fill-opacity:0; stroke-width: 2; stroke: #49577a" d="M 434,390 A 10,10 0 0 0 444,380"/>
    <text style="fill: #000000;text-anchor:middle;font-size:12.8;font-family:Times New Roman;font-style:normal;font-weight:700" x="402" y="350.45">
      <tspan x="402" y="350.45">HLW</tspan>
      <tspan x="402" y="366.45">Disposal</tspan>
    </text>
  </g>
  <g>
    <line style="fill: none; fill-opacity:0; stroke-width: 2; stroke: #000000" x1="452" y1="247" x2="515.196" y2="247"/>
    <path style="fill: #000000" d="M 515.196 247 C 515.196,249.5 512.696,252 510.196,252 C 507.696,252 505.196,249.5 505.196,247 C 505.196,244.5 507.696,242 510.196,242 C 512.696,242 515.196,244.5 515.196,247z"/>
    <path style="fill: none; fill-opacity:0; stroke-width: 2; stroke: #000000" d="M 515.196 247 C 515.196,249.5 512.696,252 510.196,252 C 507.696,252 505.196,249.5 505.196,247 C 505.196,244.5 507.696,242 510.196,242 C 512.696,242 515.196,244.5 515.196,247"/>
  </g>
  <g>
    <polyline style="fill: none; fill-opacity:0; stroke-width: 2; stroke: #000000" points="510.696,251 510.696,300 313,300 313,309 "/>
    <polygon style="fill: #000000" points="308,309 313,319 318,309 "/>
    <polygon style="fill: none; fill-opacity:0; stroke-width: 2; stroke: #000000" points="308,309 313,319 318,309 "/>
  </g>
  <text style="fill: #000000;text-anchor:start;font-size:12.8;font-family:Times New Roman;font-style:normal;font-weight:700" x="326" y="312">
    <tspan x="326" y="312">Cs/Sr</tspan>
  </text>
  <text style="fill: #000000;text-anchor:start;font-size:12.8;font-family:Times New Roman;font-style:normal;font-weight:700" x="215.5" y="304.5">
    <tspan x="215.5" y="304.5">BU</tspan>
  </text>
  <g>
    <polyline style="fill: none; fill-opacity:0; stroke-width: 2; stroke: #000000" points="122.929,71.071 104,71.071 104,355 129,355 "/>
    <polygon style="fill: #000000" points="129,360 139,355 129,350 "/>
    <polygon style="fill: none; fill-opacity:0; stroke-width: 2; stroke: #000000" points="129,360 139,355 129,350 "/>
  </g>
  <text style="fill: #000000;text-anchor:start;font-size:12.8;font-family:Times New Roman;font-style:normal;font-weight:700" x="50" y="370">
    <tspan x="50" y="370">Leftover DU</tspan>
  </text>
  <g>
    <rect style="fill: #cab8e0" x="480" y="320" width="64" height="70"/>
    <path style="fill: #cab8e0" d="M 480,320 A 10,10 0 0 0 470,330 L 480,330 z"/>
    <path style="fill: #cab8e0" d="M 554,330 A 10,10 0 0 0 544,320 L 544,330 z"/>
    <rect style="fill: #cab8e0" x="470" y="330" width="84" height="50"/>
    <path style="fill: #cab8e0" d="M 470,380 A 10,10 0 0 0 480,390 L 480,380 z"/>
    <path style="fill: #cab8e0" d="M 544,390 A 10,10 0 0 0 554,380 L 544,380 z"/>
    <line style="fill: none; fill-opacity:0; stroke-width: 2; stroke: #49577a" x1="480" y1="320" x2="544" y2="320"/>
    <line style="fill: none; fill-opacity:0; stroke-width: 2; stroke: #49577a" x1="480" y1="390" x2="544" y2="390"/>
    <path style="fill: none; fill-opacity:0; stroke-width: 2; stroke: #49577a" d="M 480,320 A 10,10 0 0 0 470,330"/>
    <path style="fill: none; fill-opacity:0; stroke-width: 2; stroke: #49577a" d="M 554,330 A 10,10 0 0 0 544,320"/>
    <line style="fill: none; fill-opacity:0; stroke-width: 2; stroke: #49577a" x1="470" y1="330" x2="470" y2="380"/>
    <line style="fill: none; fill-opacity:0; stroke-width: 2; stroke: #49577a" x1="554" y1="330" x2="554" y2="380"/>
    <path style="fill: none; fill-opacity:0; stroke-width: 2; stroke: #49577a" d="M 470,380 A 10,10 0 0 0 480,390"/>
    <path style="fill: none; fill-opacity:0; stroke-width: 2; stroke: #49577a" d="M 544,390 A 10,10 0 0 0 554,380"/>
    <text style="fill: #000000;text-anchor:middle;font-size:12.8;font-family:Times New Roman;font-style:normal;font-weight:700" x="512" y="350.45">
      <tspan x="512" y="350.45">HLW</tspan>
      <tspan x="512" y="366.45">Storage</tspan>
    </text>
  </g>
  <g>
    <line style="fill: none; fill-opacity:0; stroke-width: 2; stroke: #000000" x1="468.994" y1="355" x2="455" y2="355"/>
    <polygon style="fill: #000000" points="455,350 445,355 455,360 "/>
    <polygon style="fill: none; fill-opacity:0; stroke-width: 2; stroke: #000000" points="455,350 445,355 455,360 "/>
  </g>
</svg>
