<?xml version="1.0" encoding="UTF-8" standalone="no"?>
<!-- Created with Inkscape (http://www.inkscape.org/) -->

<svg
   xmlns:dc="http://purl.org/dc/elements/1.1/"
   xmlns:cc="http://creativecommons.org/ns#"
   xmlns:rdf="http://www.w3.org/1999/02/22-rdf-syntax-ns#"
   xmlns:svg="http://www.w3.org/2000/svg"
   xmlns="http://www.w3.org/2000/svg"
   xmlns:sodipodi="http://sodipodi.sourceforge.net/DTD/sodipodi-0.dtd"
   xmlns:inkscape="http://www.inkscape.org/namespaces/inkscape"
   id="svg12293"
   version="1.1"
   inkscape:version="0.48.2 r9819"
   width="720"
   height="540"
   xml:space="preserve"
   sodipodi:docname="mass_streams.eps"><sodipodi:namedview
     pagecolor="#ffffff"
     bordercolor="#666666"
     borderopacity="1"
     objecttolerance="10"
     gridtolerance="10"
     guidetolerance="10"
     inkscape:pageopacity="0"
     inkscape:pageshadow="2"
     inkscape:window-width="1438"
     inkscape:window-height="868"
     id="namedview12295"
     showgrid="false"
     inkscape:zoom="0.43703704"
     inkscape:cx="360"
     inkscape:cy="270"
     inkscape:window-x="0"
     inkscape:window-y="30"
     inkscape:window-maximized="0"
     inkscape:current-layer="g12301" /><metadata
     id="metadata12299"><rdf:RDF><cc:Work
         rdf:about=""><dc:format>image/svg+xml</dc:format><dc:type
           rdf:resource="http://purl.org/dc/dcmitype/StillImage" /><dc:title></dc:title></cc:Work></rdf:RDF></metadata><defs
     id="defs12297"><clipPath
       id="clipPath12317"
       clipPathUnits="userSpaceOnUse"><path
         id="path12319"
         d="m 720,432 4464,0 0,3456 -4464,0 0,-3456 z" /></clipPath></defs><g
     transform="matrix(1.25,0,0,-1.25,0,540)"
     inkscape:label="ink_ext_XXXXXX"
     inkscape:groupmode="layer"
     id="g12301"><g
       transform="scale(0.1,0.1)"
       id="g12303"><path
         id="path12305"
         style="fill:#ffffff;fill-opacity:1;fill-rule:nonzero;stroke:none"
         d="m 0,0 5760,0 0,4320 L 0,4320 0,0 z" /><path
         id="path12307"
         style="fill:none;stroke:#ffffff;stroke-opacity:1;stroke-width:10;stroke-linecap:square;stroke-linejoin:miter;stroke-miterlimit:10;stroke-dasharray:none"
         d="m 0,0 5760,0 0,4320 L 0,4320 0,0 z" /><path
         id="path12309"
         style="fill:#ffffff;fill-opacity:1;fill-rule:nonzero;stroke:none"
         d="m 720,432 4464,0 0,3456 -4464,0 0,-3456 z" /><path
         id="path12311"
         style="fill:none;stroke:#000000;stroke-opacity:1;stroke-width:10;stroke-linecap:square;stroke-linejoin:miter;stroke-miterlimit:10;stroke-dasharray:none"
         d="m 720,432 4464,0 0,3456 -4464,0 0,-3456 z" /><g
         id="g12313"><g
           clip-path="url(#clipPath12317)"
           id="g12315"><path
             id="path12321"
             style="fill:none;stroke:#000000;stroke-opacity:1;stroke-width:10;stroke-linecap:square;stroke-linejoin:miter;stroke-miterlimit:10;stroke-dasharray:none"
             d="m 720,3839.68 496,-3138.348 496,40.223 496,13.179 496,5.43 496,2.809 496,1.414 496,1.199 496,1.062 496,0.637" /><path
             id="path12323"
             style="fill:none;stroke:#ff0000;stroke-opacity:1;stroke-width:10;stroke-linecap:butt;stroke-linejoin:miter;stroke-miterlimit:10;stroke-dasharray:60,60;stroke-dashoffset:0"
             d="m 720,1961.47 496,-1092.661 496,-40.137 496,-13.363 496,-5.286 496,-2.582 496,-1.734 496,-1.254 496,-0.961 496,-0.719" /><path
             id="path12325"
             style="fill:none;stroke:#0000ff;stroke-opacity:1;stroke-width:10;stroke-linecap:square;stroke-linejoin:miter;stroke-miterlimit:10;stroke-dasharray:none"
             d="m 720,432 496,3047.17 496,-78.33 496,-34.22 496,-19.8 496,-13.65 496,-9.97 496,-7.82 496,-6.12 496,-4.54" /><path
             id="path12327"
             style="fill:#0000ff;fill-opacity:1;fill-rule:nonzero;stroke:none"
             d="m 750,432 -0.238,3.762 -0.703,3.699 -1.164,3.582 -1.606,3.41 -2.019,3.18 -2.403,2.902 -2.746,2.582 -3.047,2.211 -3.301,1.817 -3.503,1.386 -3.649,0.938 -3.738,0.472 -3.766,0 -3.738,-0.472 -3.649,-0.938 -3.503,-1.386 -3.301,-1.817 -3.047,-2.211 -2.746,-2.582 -2.403,-2.902 -2.019,-3.18 -1.606,-3.41 -1.164,-3.582 -0.703,-3.699 L 690,432 l 0.238,-3.762 0.703,-3.699 1.164,-3.582 1.606,-3.41 2.019,-3.18 2.403,-2.902 2.746,-2.582 3.047,-2.211 3.301,-1.817 3.503,-1.386 3.649,-0.938 3.738,-0.472 3.766,0 3.738,0.472 3.649,0.938 3.503,1.386 3.301,1.817 3.047,2.211 2.746,2.582 2.403,2.902 2.019,3.18 1.606,3.41 1.164,3.582 0.703,3.699" /><path
             id="path12329"
             style="fill:none;stroke:#000000;stroke-opacity:1;stroke-width:5;stroke-linecap:butt;stroke-linejoin:miter;stroke-miterlimit:10;stroke-dasharray:none"
             d="m 750,432 -0.238,3.762 -0.703,3.699 -1.164,3.582 -1.606,3.41 -2.019,3.18 -2.403,2.902 -2.746,2.582 -3.047,2.211 -3.301,1.817 -3.503,1.386 -3.649,0.938 -3.738,0.472 -3.766,0 -3.738,-0.472 -3.649,-0.938 -3.503,-1.386 -3.301,-1.817 -3.047,-2.211 -2.746,-2.582 -2.403,-2.902 -2.019,-3.18 -1.606,-3.41 -1.164,-3.582 -0.703,-3.699 L 690,432 l 0.238,-3.762 0.703,-3.699 1.164,-3.582 1.606,-3.41 2.019,-3.18 2.403,-2.902 2.746,-2.582 3.047,-2.211 3.301,-1.817 3.503,-1.386 3.649,-0.938 3.738,-0.472 3.766,0 3.738,0.472 3.649,0.938 3.503,1.386 3.301,1.817 3.047,2.211 2.746,2.582 2.403,2.902 2.019,3.18 1.606,3.41 1.164,3.582 0.703,3.699 L 750,432 z" /><path
             id="path12331"
             style="fill:#0000ff;fill-opacity:1;fill-rule:nonzero;stroke:none"
             d="m 1246,3479.17 -0.24,3.76 -0.7,3.7 -1.17,3.58 -1.6,3.41 -2.02,3.18 -2.4,2.91 -2.75,2.58 -3.05,2.21 -3.3,1.82 -3.5,1.38 -3.65,0.94 -3.74,0.47 -3.76,0 -3.74,-0.47 -3.65,-0.94 -3.5,-1.38 -3.3,-1.82 -3.05,-2.21 -2.75,-2.58 -2.4,-2.91 -2.02,-3.18 -1.6,-3.41 -1.17,-3.58 -0.7,-3.7 -0.24,-3.76 0.24,-3.76 0.7,-3.7 1.17,-3.59 1.6,-3.4 2.02,-3.18 2.4,-2.91 2.75,-2.58 3.05,-2.21 3.3,-1.82 3.5,-1.38 3.65,-0.94 3.74,-0.47 3.76,0 3.74,0.47 3.65,0.94 3.5,1.38 3.3,1.82 3.05,2.21 2.75,2.58 2.4,2.91 2.02,3.18 1.6,3.4 1.17,3.59 0.7,3.7" /><path
             id="path12333"
             style="fill:none;stroke:#000000;stroke-opacity:1;stroke-width:5;stroke-linecap:butt;stroke-linejoin:miter;stroke-miterlimit:10;stroke-dasharray:none"
             d="m 1246,3479.17 -0.24,3.76 -0.7,3.7 -1.17,3.58 -1.6,3.41 -2.02,3.18 -2.4,2.91 -2.75,2.58 -3.05,2.21 -3.3,1.82 -3.5,1.38 -3.65,0.94 -3.74,0.47 -3.76,0 -3.74,-0.47 -3.65,-0.94 -3.5,-1.38 -3.3,-1.82 -3.05,-2.21 -2.75,-2.58 -2.4,-2.91 -2.02,-3.18 -1.6,-3.41 -1.17,-3.58 -0.7,-3.7 -0.24,-3.76 0.24,-3.76 0.7,-3.7 1.17,-3.59 1.6,-3.4 2.02,-3.18 2.4,-2.91 2.75,-2.58 3.05,-2.21 3.3,-1.82 3.5,-1.38 3.65,-0.94 3.74,-0.47 3.76,0 3.74,0.47 3.65,0.94 3.5,1.38 3.3,1.82 3.05,2.21 2.75,2.58 2.4,2.91 2.02,3.18 1.6,3.4 1.17,3.59 0.7,3.7 0.24,3.76 z" /><path
             id="path12335"
             style="fill:#0000ff;fill-opacity:1;fill-rule:nonzero;stroke:none"
             d="m 1742,3400.84 -0.24,3.76 -0.7,3.7 -1.17,3.58 -1.6,3.41 -2.02,3.18 -2.4,2.91 -2.75,2.58 -3.05,2.21 -3.3,1.81 -3.5,1.39 -3.65,0.94 -3.74,0.47 -3.76,0 -3.74,-0.47 -3.65,-0.94 -3.5,-1.39 -3.3,-1.81 -3.05,-2.21 -2.75,-2.58 -2.4,-2.91 -2.02,-3.18 -1.6,-3.41 -1.17,-3.58 -0.7,-3.7 -0.24,-3.76 0.24,-3.76 0.7,-3.7 1.17,-3.58 1.6,-3.41 2.02,-3.18 2.4,-2.91 2.75,-2.57 3.05,-2.22 3.3,-1.81 3.5,-1.39 3.65,-0.94 3.74,-0.47 3.76,0 3.74,0.47 3.65,0.94 3.5,1.39 3.3,1.81 3.05,2.22 2.75,2.57 2.4,2.91 2.02,3.18 1.6,3.41 1.17,3.58 0.7,3.7" /><path
             id="path12337"
             style="fill:none;stroke:#000000;stroke-opacity:1;stroke-width:5;stroke-linecap:butt;stroke-linejoin:miter;stroke-miterlimit:10;stroke-dasharray:none"
             d="m 1742,3400.84 -0.24,3.76 -0.7,3.7 -1.17,3.58 -1.6,3.41 -2.02,3.18 -2.4,2.91 -2.75,2.58 -3.05,2.21 -3.3,1.81 -3.5,1.39 -3.65,0.94 -3.74,0.47 -3.76,0 -3.74,-0.47 -3.65,-0.94 -3.5,-1.39 -3.3,-1.81 -3.05,-2.21 -2.75,-2.58 -2.4,-2.91 -2.02,-3.18 -1.6,-3.41 -1.17,-3.58 -0.7,-3.7 -0.24,-3.76 0.24,-3.76 0.7,-3.7 1.17,-3.58 1.6,-3.41 2.02,-3.18 2.4,-2.91 2.75,-2.57 3.05,-2.22 3.3,-1.81 3.5,-1.39 3.65,-0.94 3.74,-0.47 3.76,0 3.74,0.47 3.65,0.94 3.5,1.39 3.3,1.81 3.05,2.22 2.75,2.57 2.4,2.91 2.02,3.18 1.6,3.41 1.17,3.58 0.7,3.7 0.24,3.76 z" /><path
             id="path12339"
             style="fill:#0000ff;fill-opacity:1;fill-rule:nonzero;stroke:none"
             d="m 2238,3366.62 -0.24,3.76 -0.7,3.7 -1.17,3.58 -1.6,3.41 -2.02,3.18 -2.4,2.91 -2.75,2.57 -3.05,2.22 -3.3,1.82 -3.5,1.38 -3.65,0.94 -3.74,0.47 -3.76,0 -3.74,-0.47 -3.65,-0.94 -3.5,-1.38 -3.3,-1.82 -3.05,-2.22 -2.75,-2.57 -2.4,-2.91 -2.02,-3.18 -1.6,-3.41 -1.17,-3.58 -0.7,-3.7 -0.24,-3.76 0.24,-3.76 0.7,-3.7 1.17,-3.58 1.6,-3.41 2.02,-3.18 2.4,-2.91 2.75,-2.58 3.05,-2.21 3.3,-1.81 3.5,-1.39 3.65,-0.94 3.74,-0.47 3.76,0 3.74,0.47 3.65,0.94 3.5,1.39 3.3,1.81 3.05,2.21 2.75,2.58 2.4,2.91 2.02,3.18 1.6,3.41 1.17,3.58 0.7,3.7" /><path
             id="path12341"
             style="fill:none;stroke:#000000;stroke-opacity:1;stroke-width:5;stroke-linecap:butt;stroke-linejoin:miter;stroke-miterlimit:10;stroke-dasharray:none"
             d="m 2238,3366.62 -0.24,3.76 -0.7,3.7 -1.17,3.58 -1.6,3.41 -2.02,3.18 -2.4,2.91 -2.75,2.57 -3.05,2.22 -3.3,1.82 -3.5,1.38 -3.65,0.94 -3.74,0.47 -3.76,0 -3.74,-0.47 -3.65,-0.94 -3.5,-1.38 -3.3,-1.82 -3.05,-2.22 -2.75,-2.57 -2.4,-2.91 -2.02,-3.18 -1.6,-3.41 -1.17,-3.58 -0.7,-3.7 -0.24,-3.76 0.24,-3.76 0.7,-3.7 1.17,-3.58 1.6,-3.41 2.02,-3.18 2.4,-2.91 2.75,-2.58 3.05,-2.21 3.3,-1.81 3.5,-1.39 3.65,-0.94 3.74,-0.47 3.76,0 3.74,0.47 3.65,0.94 3.5,1.39 3.3,1.81 3.05,2.21 2.75,2.58 2.4,2.91 2.02,3.18 1.6,3.41 1.17,3.58 0.7,3.7 0.24,3.76 z" /><path
             id="path12343"
             style="fill:#0000ff;fill-opacity:1;fill-rule:nonzero;stroke:none"
             d="m 2734,3346.82 -0.24,3.76 -0.7,3.7 -1.17,3.58 -1.6,3.41 -2.02,3.18 -2.4,2.91 -2.75,2.58 -3.05,2.21 -3.3,1.81 -3.5,1.39 -3.65,0.94 -3.74,0.47 -3.76,0 -3.74,-0.47 -3.65,-0.94 -3.5,-1.39 -3.3,-1.81 -3.05,-2.21 -2.75,-2.58 -2.4,-2.91 -2.02,-3.18 -1.6,-3.41 -1.17,-3.58 -0.7,-3.7 -0.24,-3.76 0.24,-3.76 0.7,-3.7 1.17,-3.58 1.6,-3.41 2.02,-3.18 2.4,-2.9 2.75,-2.59 3.05,-2.21 3.3,-1.81 3.5,-1.39 3.65,-0.94 3.74,-0.47 3.76,0 3.74,0.47 3.65,0.94 3.5,1.39 3.3,1.81 3.05,2.21 2.75,2.59 2.4,2.9 2.02,3.18 1.6,3.41 1.17,3.58 0.7,3.7" /><path
             id="path12345"
             style="fill:none;stroke:#000000;stroke-opacity:1;stroke-width:5;stroke-linecap:butt;stroke-linejoin:miter;stroke-miterlimit:10;stroke-dasharray:none"
             d="m 2734,3346.82 -0.24,3.76 -0.7,3.7 -1.17,3.58 -1.6,3.41 -2.02,3.18 -2.4,2.91 -2.75,2.58 -3.05,2.21 -3.3,1.81 -3.5,1.39 -3.65,0.94 -3.74,0.47 -3.76,0 -3.74,-0.47 -3.65,-0.94 -3.5,-1.39 -3.3,-1.81 -3.05,-2.21 -2.75,-2.58 -2.4,-2.91 -2.02,-3.18 -1.6,-3.41 -1.17,-3.58 -0.7,-3.7 -0.24,-3.76 0.24,-3.76 0.7,-3.7 1.17,-3.58 1.6,-3.41 2.02,-3.18 2.4,-2.9 2.75,-2.59 3.05,-2.21 3.3,-1.81 3.5,-1.39 3.65,-0.94 3.74,-0.47 3.76,0 3.74,0.47 3.65,0.94 3.5,1.39 3.3,1.81 3.05,2.21 2.75,2.59 2.4,2.9 2.02,3.18 1.6,3.41 1.17,3.58 0.7,3.7 0.24,3.76 z" /><path
             id="path12347"
             style="fill:#0000ff;fill-opacity:1;fill-rule:nonzero;stroke:none"
             d="m 3230,3333.17 -0.24,3.76 -0.7,3.7 -1.17,3.58 -1.6,3.41 -2.02,3.18 -2.4,2.91 -2.75,2.58 -3.05,2.21 -3.3,1.82 -3.5,1.38 -3.65,0.94 -3.74,0.47 -3.76,0 -3.74,-0.47 -3.65,-0.94 -3.5,-1.38 -3.3,-1.82 -3.05,-2.21 -2.75,-2.58 -2.4,-2.91 -2.02,-3.18 -1.6,-3.41 -1.17,-3.58 -0.7,-3.7 -0.24,-3.76 0.24,-3.76 0.7,-3.7 1.17,-3.59 1.6,-3.4 2.02,-3.18 2.4,-2.91 2.75,-2.58 3.05,-2.21 3.3,-1.82 3.5,-1.38 3.65,-0.94 3.74,-0.47 3.76,0 3.74,0.47 3.65,0.94 3.5,1.38 3.3,1.82 3.05,2.21 2.75,2.58 2.4,2.91 2.02,3.18 1.6,3.4 1.17,3.59 0.7,3.7" /><path
             id="path12349"
             style="fill:none;stroke:#000000;stroke-opacity:1;stroke-width:5;stroke-linecap:butt;stroke-linejoin:miter;stroke-miterlimit:10;stroke-dasharray:none"
             d="m 3230,3333.17 -0.24,3.76 -0.7,3.7 -1.17,3.58 -1.6,3.41 -2.02,3.18 -2.4,2.91 -2.75,2.58 -3.05,2.21 -3.3,1.82 -3.5,1.38 -3.65,0.94 -3.74,0.47 -3.76,0 -3.74,-0.47 -3.65,-0.94 -3.5,-1.38 -3.3,-1.82 -3.05,-2.21 -2.75,-2.58 -2.4,-2.91 -2.02,-3.18 -1.6,-3.41 -1.17,-3.58 -0.7,-3.7 -0.24,-3.76 0.24,-3.76 0.7,-3.7 1.17,-3.59 1.6,-3.4 2.02,-3.18 2.4,-2.91 2.75,-2.58 3.05,-2.21 3.3,-1.82 3.5,-1.38 3.65,-0.94 3.74,-0.47 3.76,0 3.74,0.47 3.65,0.94 3.5,1.38 3.3,1.82 3.05,2.21 2.75,2.58 2.4,2.91 2.02,3.18 1.6,3.4 1.17,3.59 0.7,3.7 0.24,3.76 z" /><path
             id="path12351"
             style="fill:#0000ff;fill-opacity:1;fill-rule:nonzero;stroke:none"
             d="m 3726,3323.2 -0.24,3.76 -0.7,3.7 -1.17,3.58 -1.6,3.41 -2.02,3.18 -2.4,2.91 -2.75,2.58 -3.05,2.21 -3.3,1.81 -3.5,1.39 -3.65,0.94 -3.74,0.47 -3.76,0 -3.74,-0.47 -3.65,-0.94 -3.5,-1.39 -3.3,-1.81 -3.05,-2.21 -2.75,-2.58 -2.4,-2.91 -2.02,-3.18 -1.6,-3.41 -1.17,-3.58 -0.7,-3.7 -0.24,-3.76 0.24,-3.76 0.7,-3.7 1.17,-3.58 1.6,-3.41 2.02,-3.18 2.4,-2.91 2.75,-2.57 3.05,-2.22 3.3,-1.82 3.5,-1.38 3.65,-0.94 3.74,-0.47 3.76,0 3.74,0.47 3.65,0.94 3.5,1.38 3.3,1.82 3.05,2.22 2.75,2.57 2.4,2.91 2.02,3.18 1.6,3.41 1.17,3.58 0.7,3.7" /><path
             id="path12353"
             style="fill:none;stroke:#000000;stroke-opacity:1;stroke-width:5;stroke-linecap:butt;stroke-linejoin:miter;stroke-miterlimit:10;stroke-dasharray:none"
             d="m 3726,3323.2 -0.24,3.76 -0.7,3.7 -1.17,3.58 -1.6,3.41 -2.02,3.18 -2.4,2.91 -2.75,2.58 -3.05,2.21 -3.3,1.81 -3.5,1.39 -3.65,0.94 -3.74,0.47 -3.76,0 -3.74,-0.47 -3.65,-0.94 -3.5,-1.39 -3.3,-1.81 -3.05,-2.21 -2.75,-2.58 -2.4,-2.91 -2.02,-3.18 -1.6,-3.41 -1.17,-3.58 -0.7,-3.7 -0.24,-3.76 0.24,-3.76 0.7,-3.7 1.17,-3.58 1.6,-3.41 2.02,-3.18 2.4,-2.91 2.75,-2.57 3.05,-2.22 3.3,-1.82 3.5,-1.38 3.65,-0.94 3.74,-0.47 3.76,0 3.74,0.47 3.65,0.94 3.5,1.38 3.3,1.82 3.05,2.22 2.75,2.57 2.4,2.91 2.02,3.18 1.6,3.41 1.17,3.58 0.7,3.7 0.24,3.76 z" /><path
             id="path12355"
             style="fill:#0000ff;fill-opacity:1;fill-rule:nonzero;stroke:none"
             d="m 4222,3315.38 -0.24,3.76 -0.7,3.7 -1.17,3.58 -1.6,3.41 -2.02,3.18 -2.4,2.91 -2.75,2.58 -3.05,2.21 -3.3,1.81 -3.5,1.39 -3.65,0.94 -3.74,0.47 -3.76,0 -3.74,-0.47 -3.65,-0.94 -3.5,-1.39 -3.3,-1.81 -3.05,-2.21 -2.75,-2.58 -2.4,-2.91 -2.02,-3.18 -1.6,-3.41 -1.17,-3.58 -0.7,-3.7 -0.24,-3.76 0.24,-3.76 0.7,-3.7 1.17,-3.58 1.6,-3.41 2.02,-3.18 2.4,-2.91 2.75,-2.57 3.05,-2.22 3.3,-1.82 3.5,-1.38 3.65,-0.94 3.74,-0.47 3.76,0 3.74,0.47 3.65,0.94 3.5,1.38 3.3,1.82 3.05,2.22 2.75,2.57 2.4,2.91 2.02,3.18 1.6,3.41 1.17,3.58 0.7,3.7" /><path
             id="path12357"
             style="fill:none;stroke:#000000;stroke-opacity:1;stroke-width:5;stroke-linecap:butt;stroke-linejoin:miter;stroke-miterlimit:10;stroke-dasharray:none"
             d="m 4222,3315.38 -0.24,3.76 -0.7,3.7 -1.17,3.58 -1.6,3.41 -2.02,3.18 -2.4,2.91 -2.75,2.58 -3.05,2.21 -3.3,1.81 -3.5,1.39 -3.65,0.94 -3.74,0.47 -3.76,0 -3.74,-0.47 -3.65,-0.94 -3.5,-1.39 -3.3,-1.81 -3.05,-2.21 -2.75,-2.58 -2.4,-2.91 -2.02,-3.18 -1.6,-3.41 -1.17,-3.58 -0.7,-3.7 -0.24,-3.76 0.24,-3.76 0.7,-3.7 1.17,-3.58 1.6,-3.41 2.02,-3.18 2.4,-2.91 2.75,-2.57 3.05,-2.22 3.3,-1.82 3.5,-1.38 3.65,-0.94 3.74,-0.47 3.76,0 3.74,0.47 3.65,0.94 3.5,1.38 3.3,1.82 3.05,2.22 2.75,2.57 2.4,2.91 2.02,3.18 1.6,3.41 1.17,3.58 0.7,3.7 0.24,3.76 z" /><path
             id="path12359"
             style="fill:#0000ff;fill-opacity:1;fill-rule:nonzero;stroke:none"
             d="m 4718,3309.26 -0.24,3.76 -0.7,3.7 -1.17,3.58 -1.6,3.41 -2.02,3.18 -2.4,2.91 -2.75,2.58 -3.05,2.21 -3.3,1.82 -3.5,1.38 -3.65,0.94 -3.74,0.47 -3.76,0 -3.74,-0.47 -3.65,-0.94 -3.5,-1.38 -3.3,-1.82 -3.05,-2.21 -2.75,-2.58 -2.4,-2.91 -2.02,-3.18 -1.6,-3.41 -1.17,-3.58 -0.7,-3.7 -0.24,-3.76 0.24,-3.76 0.7,-3.7 1.17,-3.59 1.6,-3.4 2.02,-3.19 2.4,-2.9 2.75,-2.58 3.05,-2.21 3.3,-1.81 3.5,-1.39 3.65,-0.94 3.74,-0.47 3.76,0 3.74,0.47 3.65,0.94 3.5,1.39 3.3,1.81 3.05,2.21 2.75,2.58 2.4,2.9 2.02,3.19 1.6,3.4 1.17,3.59 0.7,3.7" /><path
             id="path12361"
             style="fill:none;stroke:#000000;stroke-opacity:1;stroke-width:5;stroke-linecap:butt;stroke-linejoin:miter;stroke-miterlimit:10;stroke-dasharray:none"
             d="m 4718,3309.26 -0.24,3.76 -0.7,3.7 -1.17,3.58 -1.6,3.41 -2.02,3.18 -2.4,2.91 -2.75,2.58 -3.05,2.21 -3.3,1.82 -3.5,1.38 -3.65,0.94 -3.74,0.47 -3.76,0 -3.74,-0.47 -3.65,-0.94 -3.5,-1.38 -3.3,-1.82 -3.05,-2.21 -2.75,-2.58 -2.4,-2.91 -2.02,-3.18 -1.6,-3.41 -1.17,-3.58 -0.7,-3.7 -0.24,-3.76 0.24,-3.76 0.7,-3.7 1.17,-3.59 1.6,-3.4 2.02,-3.19 2.4,-2.9 2.75,-2.58 3.05,-2.21 3.3,-1.81 3.5,-1.39 3.65,-0.94 3.74,-0.47 3.76,0 3.74,0.47 3.65,0.94 3.5,1.39 3.3,1.81 3.05,2.21 2.75,2.58 2.4,2.9 2.02,3.19 1.6,3.4 1.17,3.59 0.7,3.7 0.24,3.76 z" /><path
             id="path12363"
             style="fill:#0000ff;fill-opacity:1;fill-rule:nonzero;stroke:none"
             d="m 5214,3304.72 -0.24,3.76 -0.7,3.7 -1.17,3.58 -1.6,3.41 -2.02,3.18 -2.4,2.91 -2.75,2.58 -3.05,2.21 -3.3,1.81 -3.5,1.39 -3.65,0.94 -3.74,0.47 -3.76,0 -3.74,-0.47 -3.65,-0.94 -3.5,-1.39 -3.3,-1.81 -3.05,-2.21 -2.75,-2.58 -2.4,-2.91 -2.02,-3.18 -1.6,-3.41 -1.17,-3.58 -0.7,-3.7 -0.24,-3.76 0.24,-3.76 0.7,-3.7 1.17,-3.58 1.6,-3.41 2.02,-3.18 2.4,-2.91 2.75,-2.57 3.05,-2.22 3.3,-1.82 3.5,-1.38 3.65,-0.94 3.74,-0.47 3.76,0 3.74,0.47 3.65,0.94 3.5,1.38 3.3,1.82 3.05,2.22 2.75,2.57 2.4,2.91 2.02,3.18 1.6,3.41 1.17,3.58 0.7,3.7" /><path
             id="path12365"
             style="fill:none;stroke:#000000;stroke-opacity:1;stroke-width:5;stroke-linecap:butt;stroke-linejoin:miter;stroke-miterlimit:10;stroke-dasharray:none"
             d="m 5214,3304.72 -0.24,3.76 -0.7,3.7 -1.17,3.58 -1.6,3.41 -2.02,3.18 -2.4,2.91 -2.75,2.58 -3.05,2.21 -3.3,1.81 -3.5,1.39 -3.65,0.94 -3.74,0.47 -3.76,0 -3.74,-0.47 -3.65,-0.94 -3.5,-1.39 -3.3,-1.81 -3.05,-2.21 -2.75,-2.58 -2.4,-2.91 -2.02,-3.18 -1.6,-3.41 -1.17,-3.58 -0.7,-3.7 -0.24,-3.76 0.24,-3.76 0.7,-3.7 1.17,-3.58 1.6,-3.41 2.02,-3.18 2.4,-2.91 2.75,-2.57 3.05,-2.22 3.3,-1.82 3.5,-1.38 3.65,-0.94 3.74,-0.47 3.76,0 3.74,0.47 3.65,0.94 3.5,1.38 3.3,1.82 3.05,2.22 2.75,2.57 2.4,2.91 2.02,3.18 1.6,3.41 1.17,3.58 0.7,3.7 0.24,3.76 z" /><path
             id="path12367"
             style="fill:none;stroke:#008000;stroke-opacity:1;stroke-width:10;stroke-linecap:square;stroke-linejoin:miter;stroke-miterlimit:10;stroke-dasharray:none"
             d="m 720,432 496,1183.83 496,78.25 496,34.39 496,19.67 496,13.42 496,10.29 496,7.88 496,6.01 496,4.62" /><path
             id="path12369"
             style="fill:#008000;fill-opacity:1;fill-rule:nonzero;stroke:none"
             d="m 690,402 60,0 0,60 -60,0 0,-60 z" /><path
             id="path12371"
             style="fill:none;stroke:#000000;stroke-opacity:1;stroke-width:5;stroke-linecap:butt;stroke-linejoin:miter;stroke-miterlimit:10;stroke-dasharray:none"
             d="m 690,402 60,0 0,60 -60,0 0,-60 z" /><path
             id="path12373"
             style="fill:#008000;fill-opacity:1;fill-rule:nonzero;stroke:none"
             d="m 1186,1585.83 60,0 0,60 -60,0 0,-60 z" /><path
             id="path12375"
             style="fill:none;stroke:#000000;stroke-opacity:1;stroke-width:5;stroke-linecap:butt;stroke-linejoin:miter;stroke-miterlimit:10;stroke-dasharray:none"
             d="m 1186,1585.83 60,0 0,60 -60,0 0,-60 z" /><path
             id="path12377"
             style="fill:#008000;fill-opacity:1;fill-rule:nonzero;stroke:none"
             d="m 1682,1664.08 60,0 0,60 -60,0 0,-60 z" /><path
             id="path12379"
             style="fill:none;stroke:#000000;stroke-opacity:1;stroke-width:5;stroke-linecap:butt;stroke-linejoin:miter;stroke-miterlimit:10;stroke-dasharray:none"
             d="m 1682,1664.08 60,0 0,60 -60,0 0,-60 z" /><path
             id="path12381"
             style="fill:#008000;fill-opacity:1;fill-rule:nonzero;stroke:none"
             d="m 2178,1698.47 60,0 0,60 -60,0 0,-60 z" /><path
             id="path12383"
             style="fill:none;stroke:#000000;stroke-opacity:1;stroke-width:5;stroke-linecap:butt;stroke-linejoin:miter;stroke-miterlimit:10;stroke-dasharray:none"
             d="m 2178,1698.47 60,0 0,60 -60,0 0,-60 z" /><path
             id="path12385"
             style="fill:#008000;fill-opacity:1;fill-rule:nonzero;stroke:none"
             d="m 2674,1718.14 60,0 0,60 -60,0 0,-60 z" /><path
             id="path12387"
             style="fill:none;stroke:#000000;stroke-opacity:1;stroke-width:5;stroke-linecap:butt;stroke-linejoin:miter;stroke-miterlimit:10;stroke-dasharray:none"
             d="m 2674,1718.14 60,0 0,60 -60,0 0,-60 z" /><path
             id="path12389"
             style="fill:#008000;fill-opacity:1;fill-rule:nonzero;stroke:none"
             d="m 3170,1731.56 60,0 0,60 -60,0 0,-60 z" /><path
             id="path12391"
             style="fill:none;stroke:#000000;stroke-opacity:1;stroke-width:5;stroke-linecap:butt;stroke-linejoin:miter;stroke-miterlimit:10;stroke-dasharray:none"
             d="m 3170,1731.56 60,0 0,60 -60,0 0,-60 z" /><path
             id="path12393"
             style="fill:#008000;fill-opacity:1;fill-rule:nonzero;stroke:none"
             d="m 3666,1741.85 60,0 0,60 -60,0 0,-60 z" /><path
             id="path12395"
             style="fill:none;stroke:#000000;stroke-opacity:1;stroke-width:5;stroke-linecap:butt;stroke-linejoin:miter;stroke-miterlimit:10;stroke-dasharray:none"
             d="m 3666,1741.85 60,0 0,60 -60,0 0,-60 z" /><path
             id="path12397"
             style="fill:#008000;fill-opacity:1;fill-rule:nonzero;stroke:none"
             d="m 4162,1749.73 60,0 0,60 -60,0 0,-60 z" /><path
             id="path12399"
             style="fill:none;stroke:#000000;stroke-opacity:1;stroke-width:5;stroke-linecap:butt;stroke-linejoin:miter;stroke-miterlimit:10;stroke-dasharray:none"
             d="m 4162,1749.73 60,0 0,60 -60,0 0,-60 z" /><path
             id="path12401"
             style="fill:#008000;fill-opacity:1;fill-rule:nonzero;stroke:none"
             d="m 4658,1755.74 60,0 0,60 -60,0 0,-60 z" /><path
             id="path12403"
             style="fill:none;stroke:#000000;stroke-opacity:1;stroke-width:5;stroke-linecap:butt;stroke-linejoin:miter;stroke-miterlimit:10;stroke-dasharray:none"
             d="m 4658,1755.74 60,0 0,60 -60,0 0,-60 z" /><path
             id="path12405"
             style="fill:#008000;fill-opacity:1;fill-rule:nonzero;stroke:none"
             d="m 5154,1760.36 60,0 0,60 -60,0 0,-60 z" /><path
             id="path12407"
             style="fill:none;stroke:#000000;stroke-opacity:1;stroke-width:5;stroke-linecap:butt;stroke-linejoin:miter;stroke-miterlimit:10;stroke-dasharray:none"
             d="m 5154,1760.36 60,0 0,60 -60,0 0,-60 z" /></g></g><g
         transform="scale(10,10)"
         id="g12409"><text
   id="text12411"
   transform="matrix(1,0,0,-1,69.391,30.45)"><tspan
     id="tspan12413"
     y="0"
     x="0"
     style="font-size:12;font-weight:normal;writing-mode:lr;fill-rule:nonzero;fill-opacity:1;stroke:none;-inkscape-font-specification:Serif;font-variant:normal;font-family:Serif;fill:#000000">1</tspan></text>

</g><path
         id="path12415"
         style="fill:none;stroke:#000000;stroke-opacity:1;stroke-width:5;stroke-linecap:butt;stroke-linejoin:miter;stroke-miterlimit:10;stroke-dasharray:none"
         d="m 1211,432 0,40 0,-40 z" /><path
         id="path12417"
         style="fill:none;stroke:#000000;stroke-opacity:1;stroke-width:5;stroke-linecap:butt;stroke-linejoin:miter;stroke-miterlimit:10;stroke-dasharray:none"
         d="m 1211,3848 0,40 0,-40 z" /><g
         transform="scale(10,10)"
         id="g12419"><text
   id="text12421"
   transform="matrix(1,0,0,-1,118.819,30.2941)"><tspan
     id="tspan12423"
     y="0"
     x="0"
     style="font-size:12;font-weight:normal;writing-mode:lr;fill-rule:nonzero;fill-opacity:1;stroke:none;-inkscape-font-specification:Serif;font-variant:normal;font-family:Serif;fill:#000000">2</tspan></text>

</g><path
         id="path12425"
         style="fill:none;stroke:#000000;stroke-opacity:1;stroke-width:5;stroke-linecap:butt;stroke-linejoin:miter;stroke-miterlimit:10;stroke-dasharray:none"
         d="m 1707,432 0,40 0,-40 z" /><path
         id="path12427"
         style="fill:none;stroke:#000000;stroke-opacity:1;stroke-width:5;stroke-linecap:butt;stroke-linejoin:miter;stroke-miterlimit:10;stroke-dasharray:none"
         d="m 1707,3848 0,40 0,-40 z" /><g
         transform="scale(10,10)"
         id="g12429"><text
   id="text12431"
   transform="matrix(1,0,0,-1,168.325,30.2941)"><tspan
     id="tspan12433"
     y="0"
     x="0"
     style="font-size:12;font-weight:normal;writing-mode:lr;fill-rule:nonzero;fill-opacity:1;stroke:none;-inkscape-font-specification:Serif;font-variant:normal;font-family:Serif;fill:#000000">3</tspan></text>

</g><path
         id="path12435"
         style="fill:none;stroke:#000000;stroke-opacity:1;stroke-width:5;stroke-linecap:butt;stroke-linejoin:miter;stroke-miterlimit:10;stroke-dasharray:none"
         d="m 2203,432 0,40 0,-40 z" /><path
         id="path12437"
         style="fill:none;stroke:#000000;stroke-opacity:1;stroke-width:5;stroke-linecap:butt;stroke-linejoin:miter;stroke-miterlimit:10;stroke-dasharray:none"
         d="m 2203,3848 0,40 0,-40 z" /><g
         transform="scale(10,10)"
         id="g12439"><text
   id="text12441"
   transform="matrix(1,0,0,-1,217.612,30.45)"><tspan
     id="tspan12443"
     y="0"
     x="0"
     style="font-size:12;font-weight:normal;writing-mode:lr;fill-rule:nonzero;fill-opacity:1;stroke:none;-inkscape-font-specification:Serif;font-variant:normal;font-family:Serif;fill:#000000">4</tspan></text>

</g><path
         id="path12445"
         style="fill:none;stroke:#000000;stroke-opacity:1;stroke-width:5;stroke-linecap:butt;stroke-linejoin:miter;stroke-miterlimit:10;stroke-dasharray:none"
         d="m 2699,432 0,40 0,-40 z" /><path
         id="path12447"
         style="fill:none;stroke:#000000;stroke-opacity:1;stroke-width:5;stroke-linecap:butt;stroke-linejoin:miter;stroke-miterlimit:10;stroke-dasharray:none"
         d="m 2699,3848 0,40 0,-40 z" /><g
         transform="scale(10,10)"
         id="g12449"><text
   id="text12451"
   transform="matrix(1,0,0,-1,267.564,30.45)"><tspan
     id="tspan12453"
     y="0"
     x="0"
     style="font-size:12;font-weight:normal;writing-mode:lr;fill-rule:nonzero;fill-opacity:1;stroke:none;-inkscape-font-specification:Serif;font-variant:normal;font-family:Serif;fill:#000000">5</tspan></text>

</g><path
         id="path12455"
         style="fill:none;stroke:#000000;stroke-opacity:1;stroke-width:5;stroke-linecap:butt;stroke-linejoin:miter;stroke-miterlimit:10;stroke-dasharray:none"
         d="m 3195,432 0,40 0,-40 z" /><path
         id="path12457"
         style="fill:none;stroke:#000000;stroke-opacity:1;stroke-width:5;stroke-linecap:butt;stroke-linejoin:miter;stroke-miterlimit:10;stroke-dasharray:none"
         d="m 3195,3848 0,40 0,-40 z" /><g
         transform="scale(10,10)"
         id="g12459"><text
   id="text12461"
   transform="matrix(1,0,0,-1,316.984,30.2941)"><tspan
     id="tspan12463"
     y="0"
     x="0"
     style="font-size:12;font-weight:normal;writing-mode:lr;fill-rule:nonzero;fill-opacity:1;stroke:none;-inkscape-font-specification:Serif;font-variant:normal;font-family:Serif;fill:#000000">6</tspan></text>

</g><path
         id="path12465"
         style="fill:none;stroke:#000000;stroke-opacity:1;stroke-width:5;stroke-linecap:butt;stroke-linejoin:miter;stroke-miterlimit:10;stroke-dasharray:none"
         d="m 3691,432 0,40 0,-40 z" /><path
         id="path12467"
         style="fill:none;stroke:#000000;stroke-opacity:1;stroke-width:5;stroke-linecap:butt;stroke-linejoin:miter;stroke-miterlimit:10;stroke-dasharray:none"
         d="m 3691,3848 0,40 0,-40 z" /><g
         transform="scale(10,10)"
         id="g12469"><text
   id="text12471"
   transform="matrix(1,0,0,-1,366.787,30.45)"><tspan
     id="tspan12473"
     y="0"
     x="0"
     style="font-size:12;font-weight:normal;writing-mode:lr;fill-rule:nonzero;fill-opacity:1;stroke:none;-inkscape-font-specification:Serif;font-variant:normal;font-family:Serif;fill:#000000">7</tspan></text>

</g><path
         id="path12475"
         style="fill:none;stroke:#000000;stroke-opacity:1;stroke-width:5;stroke-linecap:butt;stroke-linejoin:miter;stroke-miterlimit:10;stroke-dasharray:none"
         d="m 4187,432 0,40 0,-40 z" /><path
         id="path12477"
         style="fill:none;stroke:#000000;stroke-opacity:1;stroke-width:5;stroke-linecap:butt;stroke-linejoin:miter;stroke-miterlimit:10;stroke-dasharray:none"
         d="m 4187,3848 0,40 0,-40 z" /><g
         transform="scale(10,10)"
         id="g12479"><text
   id="text12481"
   transform="matrix(1,0,0,-1,416.2,30.2941)"><tspan
     id="tspan12483"
     y="0"
     x="0"
     style="font-size:12;font-weight:normal;writing-mode:lr;fill-rule:nonzero;fill-opacity:1;stroke:none;-inkscape-font-specification:Serif;font-variant:normal;font-family:Serif;fill:#000000">8</tspan></text>

</g><path
         id="path12485"
         style="fill:none;stroke:#000000;stroke-opacity:1;stroke-width:5;stroke-linecap:butt;stroke-linejoin:miter;stroke-miterlimit:10;stroke-dasharray:none"
         d="m 4683,432 0,40 0,-40 z" /><path
         id="path12487"
         style="fill:none;stroke:#000000;stroke-opacity:1;stroke-width:5;stroke-linecap:butt;stroke-linejoin:miter;stroke-miterlimit:10;stroke-dasharray:none"
         d="m 4683,3848 0,40 0,-40 z" /><g
         transform="scale(10,10)"
         id="g12489"><text
   id="text12491"
   transform="matrix(1,0,0,-1,465.777,30.2941)"><tspan
     id="tspan12493"
     sodipodi:role="line"
     y="0"
     x="0 46.03716 53.66916"
     style="font-size:12;font-weight:normal;writing-mode:lr;fill-rule:nonzero;fill-opacity:1;stroke:none;-inkscape-font-specification:Serif;font-variant:normal;font-family:Serif;fill:#000000">910</tspan><tspan
     id="tspan12495"
     sodipodi:role="line"
     y="14.2973"
     x="-212.999 -204.623 -197.519 -190.919 -187.583 -180.203 -176.387 -167.411 -159.803 -148.115 -140.495 -133.115"
     style="font-size:12;font-weight:normal;writing-mode:lr;fill-rule:nonzero;fill-opacity:1;stroke:none;-inkscape-font-specification:Serif;font-variant:normal;font-family:Serif;fill:#000000">Cycle Number</tspan><tspan
     id="tspan12497"
     sodipodi:role="line"
     y="-8.5386"
     x="-415.277 -407.645 -403.829"
     style="font-size:12;font-weight:normal;writing-mode:lr;fill-rule:nonzero;fill-opacity:1;stroke:none;-inkscape-font-specification:Serif;font-variant:normal;font-family:Serif;fill:#000000">0.0</tspan></text>

</g><path
         id="path12499"
         style="fill:none;stroke:#000000;stroke-opacity:1;stroke-width:5;stroke-linecap:butt;stroke-linejoin:miter;stroke-miterlimit:10;stroke-dasharray:none"
         d="m 720,930.715 40,0 -40,0 z" /><path
         id="path12501"
         style="fill:none;stroke:#000000;stroke-opacity:1;stroke-width:5;stroke-linecap:butt;stroke-linejoin:miter;stroke-miterlimit:10;stroke-dasharray:none"
         d="m 5144,930.715 40,0 -40,0 z" /><g
         transform="scale(10,10)"
         id="g12503"><text
   id="text12505"
   transform="matrix(1,0,0,-1,50.8121,88.2039)"><tspan
     id="tspan12507"
     sodipodi:role="line"
     y="0"
     x="0 7.632 11.448"
     style="font-size:12;font-weight:normal;writing-mode:lr;fill-rule:nonzero;fill-opacity:1;stroke:none;-inkscape-font-specification:Serif;font-variant:normal;font-family:Serif;fill:#000000">0.1</tspan></text>

</g><path
         id="path12509"
         style="fill:none;stroke:#000000;stroke-opacity:1;stroke-width:5;stroke-linecap:butt;stroke-linejoin:miter;stroke-miterlimit:10;stroke-dasharray:none"
         d="m 720,1424.43 40,0 -40,0 z" /><path
         id="path12511"
         style="fill:none;stroke:#000000;stroke-opacity:1;stroke-width:5;stroke-linecap:butt;stroke-linejoin:miter;stroke-miterlimit:10;stroke-dasharray:none"
         d="m 5144,1424.43 40,0 -40,0 z" /><g
         transform="scale(10,10)"
         id="g12513"><text
   id="text12515"
   transform="matrix(1,0,0,-1,50.9059,137.576)"><tspan
     id="tspan12517"
     sodipodi:role="line"
     y="0"
     x="0 7.632 11.448"
     style="font-size:12;font-weight:normal;writing-mode:lr;fill-rule:nonzero;fill-opacity:1;stroke:none;-inkscape-font-specification:Serif;font-variant:normal;font-family:Serif;fill:#000000">0.2</tspan></text>

</g><path
         id="path12519"
         style="fill:none;stroke:#000000;stroke-opacity:1;stroke-width:5;stroke-linecap:butt;stroke-linejoin:miter;stroke-miterlimit:10;stroke-dasharray:none"
         d="m 720,1918.14 40,0 -40,0 z" /><path
         id="path12521"
         style="fill:none;stroke:#000000;stroke-opacity:1;stroke-width:5;stroke-linecap:butt;stroke-linejoin:miter;stroke-miterlimit:10;stroke-dasharray:none"
         d="m 5144,1918.14 40,0 -40,0 z" /><g
         transform="scale(10,10)"
         id="g12523"><text
   id="text12525"
   transform="matrix(1,0,0,-1,50.6719,186.947)"><tspan
     id="tspan12527"
     sodipodi:role="line"
     y="0"
     x="0 7.632 11.448"
     style="font-size:12;font-weight:normal;writing-mode:lr;fill-rule:nonzero;fill-opacity:1;stroke:none;-inkscape-font-specification:Serif;font-variant:normal;font-family:Serif;fill:#000000">0.3</tspan></text>

</g><path
         id="path12529"
         style="fill:none;stroke:#000000;stroke-opacity:1;stroke-width:5;stroke-linecap:butt;stroke-linejoin:miter;stroke-miterlimit:10;stroke-dasharray:none"
         d="m 720,2411.86 40,0 -40,0 z" /><path
         id="path12531"
         style="fill:none;stroke:#000000;stroke-opacity:1;stroke-width:5;stroke-linecap:butt;stroke-linejoin:miter;stroke-miterlimit:10;stroke-dasharray:none"
         d="m 5144,2411.86 40,0 -40,0 z" /><g
         transform="scale(10,10)"
         id="g12533"><text
   id="text12535"
   transform="matrix(1,0,0,-1,50.375,236.319)"><tspan
     id="tspan12537"
     sodipodi:role="line"
     y="0"
     x="0 7.632 11.448"
     style="font-size:12;font-weight:normal;writing-mode:lr;fill-rule:nonzero;fill-opacity:1;stroke:none;-inkscape-font-specification:Serif;font-variant:normal;font-family:Serif;fill:#000000">0.4</tspan></text>

</g><path
         id="path12539"
         style="fill:none;stroke:#000000;stroke-opacity:1;stroke-width:5;stroke-linecap:butt;stroke-linejoin:miter;stroke-miterlimit:10;stroke-dasharray:none"
         d="m 720,2905.57 40,0 -40,0 z" /><path
         id="path12541"
         style="fill:none;stroke:#000000;stroke-opacity:1;stroke-width:5;stroke-linecap:butt;stroke-linejoin:miter;stroke-miterlimit:10;stroke-dasharray:none"
         d="m 5144,2905.57 40,0 -40,0 z" /><g
         transform="scale(10,10)"
         id="g12543"><text
   id="text12545"
   transform="matrix(1,0,0,-1,50.75,285.69)"><tspan
     id="tspan12547"
     sodipodi:role="line"
     y="0"
     x="0 7.632 11.448"
     style="font-size:12;font-weight:normal;writing-mode:lr;fill-rule:nonzero;fill-opacity:1;stroke:none;-inkscape-font-specification:Serif;font-variant:normal;font-family:Serif;fill:#000000">0.5</tspan></text>

</g><path
         id="path12549"
         style="fill:none;stroke:#000000;stroke-opacity:1;stroke-width:5;stroke-linecap:butt;stroke-linejoin:miter;stroke-miterlimit:10;stroke-dasharray:none"
         d="m 720,3399.29 40,0 -40,0 z" /><path
         id="path12551"
         style="fill:none;stroke:#000000;stroke-opacity:1;stroke-width:5;stroke-linecap:butt;stroke-linejoin:miter;stroke-miterlimit:10;stroke-dasharray:none"
         d="m 5144,3399.29 40,0 -40,0 z" /><g
         transform="scale(10,10)"
         id="g12553"><text
   id="text12555"
   transform="matrix(1,0,0,-1,50.4691,335.062)"><tspan
     id="tspan12557"
     sodipodi:role="line"
     y="0"
     x="0 7.632 11.448"
     style="font-size:12;font-weight:normal;writing-mode:lr;fill-rule:nonzero;fill-opacity:1;stroke:none;-inkscape-font-specification:Serif;font-variant:normal;font-family:Serif;fill:#000000">0.6</tspan><tspan
     id="tspan12559"
     sodipodi:role="line"
     y="-49.3707"
     x="0.264844 7.896844 11.712844"
     style="font-size:12;font-weight:normal;writing-mode:lr;fill-rule:nonzero;fill-opacity:1;stroke:none;-inkscape-font-specification:Serif;font-variant:normal;font-family:Serif;fill:#000000">0.7</tspan></text>

</g><path
         id="path12561"
         style="fill:none;stroke:#000000;stroke-opacity:1;stroke-width:10;stroke-linecap:square;stroke-linejoin:miter;stroke-miterlimit:10;stroke-dasharray:none"
         d="m 720,432 4464,0 0,3456 -4464,0 0,-3456" /><path
         id="path12563"
         style="fill:#ffffff;fill-opacity:1;fill-rule:nonzero;stroke:none"
         d="m 2985.18,2993.14 2109.54,0 0,825.738 -2109.54,0 0,-825.738 z" /><path
         id="path12565"
         style="fill:none;stroke:#000000;stroke-opacity:1;stroke-width:10;stroke-linecap:square;stroke-linejoin:miter;stroke-miterlimit:10;stroke-dasharray:none"
         d="m 2985.18,2993.14 2109.54,0 0,825.738 -2109.54,0 0,-825.738 z" /><path
         id="path12567"
         style="fill:none;stroke:#000000;stroke-opacity:1;stroke-width:10;stroke-linecap:square;stroke-linejoin:miter;stroke-miterlimit:10;stroke-dasharray:none"
         d="m 3190.98,3684.52 223.2,0" /><path
         id="path12569"
         style="fill:none;stroke:#ff0000;stroke-opacity:1;stroke-width:10;stroke-linecap:butt;stroke-linejoin:miter;stroke-miterlimit:10;stroke-dasharray:60,60;stroke-dashoffset:0"
         d="m 3190.98,3498.85 223.2,0" /><path
         id="path12571"
         style="fill:none;stroke:#0000ff;stroke-opacity:1;stroke-width:10;stroke-linecap:square;stroke-linejoin:miter;stroke-miterlimit:10;stroke-dasharray:none"
         d="m 3190.98,3313.17 223.2,0" /><path
         id="path12573"
         style="fill:#0000ff;fill-opacity:1;fill-rule:nonzero;stroke:none"
         d="m 3220.98,3313.17 -0.24,3.76 -0.7,3.7 -1.16,3.58 -1.61,3.41 -2.02,3.18 -2.4,2.91 -2.75,2.58 -3.05,2.21 -3.3,1.82 -3.5,1.38 -3.65,0.94 -3.74,0.47 -3.76,0 -3.74,-0.47 -3.65,-0.94 -3.5,-1.38 -3.3,-1.82 -3.05,-2.21 -2.75,-2.58 -2.4,-2.91 -2.02,-3.18 -1.6,-3.41 -1.17,-3.58 -0.71,-3.7 -0.23,-3.76 0.23,-3.76 0.71,-3.7 1.17,-3.59 1.6,-3.4 2.02,-3.18 2.4,-2.91 2.75,-2.58 3.05,-2.21 3.3,-1.82 3.5,-1.38 3.65,-0.94 3.74,-0.47 3.76,0 3.74,0.47 3.65,0.94 3.5,1.38 3.3,1.82 3.05,2.21 2.75,2.58 2.4,2.91 2.02,3.18 1.61,3.4 1.16,3.59 0.7,3.7" /><path
         id="path12575"
         style="fill:none;stroke:#000000;stroke-opacity:1;stroke-width:5;stroke-linecap:butt;stroke-linejoin:miter;stroke-miterlimit:10;stroke-dasharray:none"
         d="m 3220.98,3313.17 -0.24,3.76 -0.7,3.7 -1.16,3.58 -1.61,3.41 -2.02,3.18 -2.4,2.91 -2.75,2.58 -3.05,2.21 -3.3,1.82 -3.5,1.38 -3.65,0.94 -3.74,0.47 -3.76,0 -3.74,-0.47 -3.65,-0.94 -3.5,-1.38 -3.3,-1.82 -3.05,-2.21 -2.75,-2.58 -2.4,-2.91 -2.02,-3.18 -1.6,-3.41 -1.17,-3.58 -0.71,-3.7 -0.23,-3.76 0.23,-3.76 0.71,-3.7 1.17,-3.59 1.6,-3.4 2.02,-3.18 2.4,-2.91 2.75,-2.58 3.05,-2.21 3.3,-1.82 3.5,-1.38 3.65,-0.94 3.74,-0.47 3.76,0 3.74,0.47 3.65,0.94 3.5,1.38 3.3,1.82 3.05,2.21 2.75,2.58 2.4,2.91 2.02,3.18 1.61,3.4 1.16,3.59 0.7,3.7 0.24,3.76 z" /><path
         id="path12577"
         style="fill:#0000ff;fill-opacity:1;fill-rule:nonzero;stroke:none"
         d="m 3444.18,3313.17 -0.23,3.76 -0.71,3.7 -1.17,3.58 -1.6,3.41 -2.02,3.18 -2.4,2.91 -2.75,2.58 -3.05,2.21 -3.3,1.82 -3.5,1.38 -3.65,0.94 -3.74,0.47 -3.76,0 -3.74,-0.47 -3.65,-0.94 -3.5,-1.38 -3.3,-1.82 -3.05,-2.21 -2.75,-2.58 -2.4,-2.91 -2.02,-3.18 -1.6,-3.41 -1.17,-3.58 -0.7,-3.7 -0.24,-3.76 0.24,-3.76 0.7,-3.7 1.17,-3.59 1.6,-3.4 2.02,-3.18 2.4,-2.91 2.75,-2.58 3.05,-2.21 3.3,-1.82 3.5,-1.38 3.65,-0.94 3.74,-0.47 3.76,0 3.74,0.47 3.65,0.94 3.5,1.38 3.3,1.82 3.05,2.21 2.75,2.58 2.4,2.91 2.02,3.18 1.6,3.4 1.17,3.59 0.71,3.7" /><path
         id="path12579"
         style="fill:none;stroke:#000000;stroke-opacity:1;stroke-width:5;stroke-linecap:butt;stroke-linejoin:miter;stroke-miterlimit:10;stroke-dasharray:none"
         d="m 3444.18,3313.17 -0.23,3.76 -0.71,3.7 -1.17,3.58 -1.6,3.41 -2.02,3.18 -2.4,2.91 -2.75,2.58 -3.05,2.21 -3.3,1.82 -3.5,1.38 -3.65,0.94 -3.74,0.47 -3.76,0 -3.74,-0.47 -3.65,-0.94 -3.5,-1.38 -3.3,-1.82 -3.05,-2.21 -2.75,-2.58 -2.4,-2.91 -2.02,-3.18 -1.6,-3.41 -1.17,-3.58 -0.7,-3.7 -0.24,-3.76 0.24,-3.76 0.7,-3.7 1.17,-3.59 1.6,-3.4 2.02,-3.18 2.4,-2.91 2.75,-2.58 3.05,-2.21 3.3,-1.82 3.5,-1.38 3.65,-0.94 3.74,-0.47 3.76,0 3.74,0.47 3.65,0.94 3.5,1.38 3.3,1.82 3.05,2.21 2.75,2.58 2.4,2.91 2.02,3.18 1.6,3.4 1.17,3.59 0.71,3.7 0.23,3.76 z" /><path
         id="path12581"
         style="fill:none;stroke:#008000;stroke-opacity:1;stroke-width:10;stroke-linecap:square;stroke-linejoin:miter;stroke-miterlimit:10;stroke-dasharray:none"
         d="m 3190.98,3127.5 223.2,0" /><path
         id="path12583"
         style="fill:#008000;fill-opacity:1;fill-rule:nonzero;stroke:none"
         d="m 3160.98,3097.5 60,0 0,60 -60,0 0,-60 z" /><path
         id="path12585"
         style="fill:none;stroke:#000000;stroke-opacity:1;stroke-width:5;stroke-linecap:butt;stroke-linejoin:miter;stroke-miterlimit:10;stroke-dasharray:none"
         d="m 3160.98,3097.5 60,0 0,60 -60,0 0,-60 z" /><path
         id="path12587"
         style="fill:#008000;fill-opacity:1;fill-rule:nonzero;stroke:none"
         d="m 3384.18,3097.5 60,0 0,60 -60,0 0,-60 z" /><path
         id="path12589"
         style="fill:none;stroke:#000000;stroke-opacity:1;stroke-width:5;stroke-linecap:butt;stroke-linejoin:miter;stroke-miterlimit:10;stroke-dasharray:none"
         d="m 3384.18,3097.5 60,0 0,60 -60,0 0,-60 z" /><g
         transform="scale(10,10)"
         id="g12591"><text
   id="text12593"
   transform="matrix(1,0,0,-1,350.346,364.803)"><tspan
     id="tspan12595"
     sodipodi:role="line"
     y="0"
     x="0 10.78 21.028 25.48 29.61 38.486 47.376 56.252 61.74 66.192 78.274 86.856 94.15"
     style="font-size:14;font-weight:normal;writing-mode:lr;fill-rule:nonzero;fill-opacity:1;stroke:none;-inkscape-font-specification:Serif;font-variant:normal;font-family:Serif;fill:#000000">DU Input Mass</tspan><tspan
     id="tspan12597"
     sodipodi:role="line"
     y="18.5672"
     x="0 7.798 21.644 31.374 36.428 44.982 54.712 64.96 69.412 73.542 82.418 91.308 100.184 105.672 110.124 122.206 130.788 138.082"
     style="font-size:14;font-weight:normal;writing-mode:lr;fill-rule:nonzero;fill-opacity:1;stroke:none;-inkscape-font-specification:Serif;font-variant:normal;font-family:Serif;fill:#000000">LWR-TRU Input Mass</tspan><tspan
     id="tspan12599"
     sodipodi:role="line"
     y="37.1352"
     x="0 8.05 17.78 22.834 33.082 37.534 41.664 50.54 59.43 68.306 73.794 78.246 90.328 98.91 106.204"
     style="font-size:14;font-weight:normal;writing-mode:lr;fill-rule:nonzero;fill-opacity:1;stroke:none;-inkscape-font-specification:Serif;font-variant:normal;font-family:Serif;fill:#000000">FR-U Input Mass</tspan><tspan
     id="tspan12601"
     sodipodi:role="line"
     y="55.702"
     x="0 8.05 17.78 22.834 31.388 41.118 51.366 55.818 59.948 68.824 77.714 86.59 92.078 96.53 108.612 117.194 124.488"
     style="font-size:14;font-weight:normal;writing-mode:lr;fill-rule:nonzero;fill-opacity:1;stroke:none;-inkscape-font-specification:Serif;font-variant:normal;font-family:Serif;fill:#000000">FR-TRU Input Mass</tspan></text>

</g></g></g></svg>