<?xml version="1.0" encoding="UTF-8" standalone="no"?>
<!-- Created with Inkscape (http://www.inkscape.org/) -->

<svg
   xmlns:dc="http://purl.org/dc/elements/1.1/"
   xmlns:cc="http://creativecommons.org/ns#"
   xmlns:rdf="http://www.w3.org/1999/02/22-rdf-syntax-ns#"
   xmlns:svg="http://www.w3.org/2000/svg"
   xmlns="http://www.w3.org/2000/svg"
   xmlns:sodipodi="http://sodipodi.sourceforge.net/DTD/sodipodi-0.dtd"
   xmlns:inkscape="http://www.inkscape.org/namespaces/inkscape"
   id="svg13797"
   version="1.1"
   inkscape:version="0.48.2 r9819"
   width="720"
   height="540"
   xml:space="preserve"
   sodipodi:docname="np237io_se.eps"><sodipodi:namedview
     pagecolor="#ffffff"
     bordercolor="#666666"
     borderopacity="1"
     objecttolerance="10"
     gridtolerance="10"
     guidetolerance="10"
     inkscape:pageopacity="0"
     inkscape:pageshadow="2"
     inkscape:window-width="1438"
     inkscape:window-height="868"
     id="namedview13799"
     showgrid="false"
     inkscape:zoom="0.43703704"
     inkscape:cx="360"
     inkscape:cy="270"
     inkscape:window-x="0"
     inkscape:window-y="30"
     inkscape:window-maximized="0"
     inkscape:current-layer="g13805" /><metadata
     id="metadata13803"><rdf:RDF><cc:Work
         rdf:about=""><dc:format>image/svg+xml</dc:format><dc:type
           rdf:resource="http://purl.org/dc/dcmitype/StillImage" /><dc:title></dc:title></cc:Work></rdf:RDF></metadata><defs
     id="defs13801"><clipPath
       id="clipPath13821"
       clipPathUnits="userSpaceOnUse"><path
         id="path13823"
         d="m 720,432 4464,0 0,3456 -4464,0 0,-3456 z" /></clipPath></defs><g
     transform="matrix(1.25,0,0,-1.25,0,540)"
     inkscape:label="ink_ext_XXXXXX"
     inkscape:groupmode="layer"
     id="g13805"><g
       transform="scale(0.1,0.1)"
       id="g13807"><path
         id="path13809"
         style="fill:#ffffff;fill-opacity:1;fill-rule:nonzero;stroke:none"
         d="m 0,0 5760,0 0,4320 L 0,4320 0,0 z" /><path
         id="path13811"
         style="fill:none;stroke:#ffffff;stroke-opacity:1;stroke-width:10;stroke-linecap:square;stroke-linejoin:miter;stroke-miterlimit:10;stroke-dasharray:none"
         d="m 0,0 5760,0 0,4320 L 0,4320 0,0 z" /><path
         id="path13813"
         style="fill:#ffffff;fill-opacity:1;fill-rule:nonzero;stroke:none"
         d="m 720,432 4464,0 0,3456 -4464,0 0,-3456 z" /><path
         id="path13815"
         style="fill:none;stroke:#000000;stroke-opacity:1;stroke-width:10;stroke-linecap:square;stroke-linejoin:miter;stroke-miterlimit:10;stroke-dasharray:none"
         d="m 720,432 4464,0 0,3456 -4464,0 0,-3456 z" /><g
         id="g13817"><g
           clip-path="url(#clipPath13821)"
           id="g13819"><path
             id="path13825"
             style="fill:none;stroke:#000000;stroke-opacity:1;stroke-width:10;stroke-linecap:square;stroke-linejoin:miter;stroke-miterlimit:10;stroke-dasharray:none"
             d="m 720,3572.57 496,-633.76 496,-390.06 496,-214.26 496,-111.92 496,-57.07 496,-28.87 496,-14.02 992,0" /><path
             id="path13827"
             style="fill:none;stroke:#ff0000;stroke-opacity:1;stroke-width:10;stroke-linecap:butt;stroke-linejoin:miter;stroke-miterlimit:10;stroke-dasharray:60,60;stroke-dashoffset:0"
             d="m 720,1551.83 496,-323.81 496,-205.5 496,-112.969 496,-58.196 496,-28.804 496,-13.699 496,-6.547 992,0" /><path
             id="path13829"
             style="fill:none;stroke:#0000ff;stroke-opacity:1;stroke-width:10;stroke-linecap:square;stroke-linejoin:miter;stroke-miterlimit:10;stroke-dasharray:none"
             d="m 720,3572.57 496,-704.13 496,-481.19 496,-293.94 496,-170.86 496,-96.32 496,-53.82 496,-29.58 496,-16.34 496,-8.66" /><path
             id="path13831"
             style="fill:#0000ff;fill-opacity:1;fill-rule:nonzero;stroke:none"
             d="m 750,3572.57 -0.238,3.76 -0.703,3.7 -1.164,3.58 -1.606,3.41 -2.019,3.18 -2.403,2.91 -2.746,2.57 -3.047,2.22 -3.301,1.81 -3.503,1.39 -3.649,0.94 -3.738,0.47 -3.766,0 -3.738,-0.47 -3.649,-0.94 -3.503,-1.39 -3.301,-1.81 -3.047,-2.22 -2.746,-2.57 -2.403,-2.91 -2.019,-3.18 -1.606,-3.41 -1.164,-3.58 -0.703,-3.7 -0.238,-3.76 0.238,-3.76 0.703,-3.7 1.164,-3.58 1.606,-3.41 2.019,-3.18 2.403,-2.9 2.746,-2.59 3.047,-2.21 3.301,-1.81 3.503,-1.39 3.649,-0.94 3.738,-0.47 3.766,0 3.738,0.47 3.649,0.94 3.503,1.39 3.301,1.81 3.047,2.21 2.746,2.59 2.403,2.9 2.019,3.18 1.606,3.41 1.164,3.58 0.703,3.7" /><path
             id="path13833"
             style="fill:none;stroke:#000000;stroke-opacity:1;stroke-width:5;stroke-linecap:butt;stroke-linejoin:miter;stroke-miterlimit:10;stroke-dasharray:none"
             d="m 750,3572.57 -0.238,3.76 -0.703,3.7 -1.164,3.58 -1.606,3.41 -2.019,3.18 -2.403,2.91 -2.746,2.57 -3.047,2.22 -3.301,1.81 -3.503,1.39 -3.649,0.94 -3.738,0.47 -3.766,0 -3.738,-0.47 -3.649,-0.94 -3.503,-1.39 -3.301,-1.81 -3.047,-2.22 -2.746,-2.57 -2.403,-2.91 -2.019,-3.18 -1.606,-3.41 -1.164,-3.58 -0.703,-3.7 -0.238,-3.76 0.238,-3.76 0.703,-3.7 1.164,-3.58 1.606,-3.41 2.019,-3.18 2.403,-2.9 2.746,-2.59 3.047,-2.21 3.301,-1.81 3.503,-1.39 3.649,-0.94 3.738,-0.47 3.766,0 3.738,0.47 3.649,0.94 3.503,1.39 3.301,1.81 3.047,2.21 2.746,2.59 2.403,2.9 2.019,3.18 1.606,3.41 1.164,3.58 0.703,3.7 0.238,3.76 z" /><path
             id="path13835"
             style="fill:#0000ff;fill-opacity:1;fill-rule:nonzero;stroke:none"
             d="m 1246,2868.44 -0.24,3.76 -0.7,3.7 -1.17,3.58 -1.6,3.41 -2.02,3.18 -2.4,2.91 -2.75,2.57 -3.05,2.22 -3.3,1.82 -3.5,1.38 -3.65,0.94 -3.74,0.47 -3.76,0 -3.74,-0.47 -3.65,-0.94 -3.5,-1.38 -3.3,-1.82 -3.05,-2.22 -2.75,-2.57 -2.4,-2.91 -2.02,-3.18 -1.6,-3.41 -1.17,-3.58 -0.7,-3.7 -0.24,-3.76 0.24,-3.76 0.7,-3.7 1.17,-3.59 1.6,-3.4 2.02,-3.19 2.4,-2.9 2.75,-2.58 3.05,-2.21 3.3,-1.81 3.5,-1.39 3.65,-0.94 3.74,-0.47 3.76,0 3.74,0.47 3.65,0.94 3.5,1.39 3.3,1.81 3.05,2.21 2.75,2.58 2.4,2.9 2.02,3.19 1.6,3.4 1.17,3.59 0.7,3.7" /><path
             id="path13837"
             style="fill:none;stroke:#000000;stroke-opacity:1;stroke-width:5;stroke-linecap:butt;stroke-linejoin:miter;stroke-miterlimit:10;stroke-dasharray:none"
             d="m 1246,2868.44 -0.24,3.76 -0.7,3.7 -1.17,3.58 -1.6,3.41 -2.02,3.18 -2.4,2.91 -2.75,2.57 -3.05,2.22 -3.3,1.82 -3.5,1.38 -3.65,0.94 -3.74,0.47 -3.76,0 -3.74,-0.47 -3.65,-0.94 -3.5,-1.38 -3.3,-1.82 -3.05,-2.22 -2.75,-2.57 -2.4,-2.91 -2.02,-3.18 -1.6,-3.41 -1.17,-3.58 -0.7,-3.7 -0.24,-3.76 0.24,-3.76 0.7,-3.7 1.17,-3.59 1.6,-3.4 2.02,-3.19 2.4,-2.9 2.75,-2.58 3.05,-2.21 3.3,-1.81 3.5,-1.39 3.65,-0.94 3.74,-0.47 3.76,0 3.74,0.47 3.65,0.94 3.5,1.39 3.3,1.81 3.05,2.21 2.75,2.58 2.4,2.9 2.02,3.19 1.6,3.4 1.17,3.59 0.7,3.7 0.24,3.76 z" /><path
             id="path13839"
             style="fill:#0000ff;fill-opacity:1;fill-rule:nonzero;stroke:none"
             d="m 1742,2387.25 -0.24,3.76 -0.7,3.7 -1.17,3.58 -1.6,3.41 -2.02,3.18 -2.4,2.91 -2.75,2.58 -3.05,2.21 -3.3,1.81 -3.5,1.39 -3.65,0.94 -3.74,0.47 -3.76,0 -3.74,-0.47 -3.65,-0.94 -3.5,-1.39 -3.3,-1.81 -3.05,-2.21 -2.75,-2.58 -2.4,-2.91 -2.02,-3.18 -1.6,-3.41 -1.17,-3.58 -0.7,-3.7 -0.24,-3.76 0.24,-3.76 0.7,-3.7 1.17,-3.58 1.6,-3.41 2.02,-3.18 2.4,-2.91 2.75,-2.58 3.05,-2.21 3.3,-1.81 3.5,-1.39 3.65,-0.94 3.74,-0.47 3.76,0 3.74,0.47 3.65,0.94 3.5,1.39 3.3,1.81 3.05,2.21 2.75,2.58 2.4,2.91 2.02,3.18 1.6,3.41 1.17,3.58 0.7,3.7" /><path
             id="path13841"
             style="fill:none;stroke:#000000;stroke-opacity:1;stroke-width:5;stroke-linecap:butt;stroke-linejoin:miter;stroke-miterlimit:10;stroke-dasharray:none"
             d="m 1742,2387.25 -0.24,3.76 -0.7,3.7 -1.17,3.58 -1.6,3.41 -2.02,3.18 -2.4,2.91 -2.75,2.58 -3.05,2.21 -3.3,1.81 -3.5,1.39 -3.65,0.94 -3.74,0.47 -3.76,0 -3.74,-0.47 -3.65,-0.94 -3.5,-1.39 -3.3,-1.81 -3.05,-2.21 -2.75,-2.58 -2.4,-2.91 -2.02,-3.18 -1.6,-3.41 -1.17,-3.58 -0.7,-3.7 -0.24,-3.76 0.24,-3.76 0.7,-3.7 1.17,-3.58 1.6,-3.41 2.02,-3.18 2.4,-2.91 2.75,-2.58 3.05,-2.21 3.3,-1.81 3.5,-1.39 3.65,-0.94 3.74,-0.47 3.76,0 3.74,0.47 3.65,0.94 3.5,1.39 3.3,1.81 3.05,2.21 2.75,2.58 2.4,2.91 2.02,3.18 1.6,3.41 1.17,3.58 0.7,3.7 0.24,3.76 z" /><path
             id="path13843"
             style="fill:#0000ff;fill-opacity:1;fill-rule:nonzero;stroke:none"
             d="m 2238,2093.31 -0.24,3.76 -0.7,3.7 -1.17,3.59 -1.6,3.4 -2.02,3.19 -2.4,2.9 -2.75,2.58 -3.05,2.21 -3.3,1.81 -3.5,1.39 -3.65,0.94 -3.74,0.47 -3.76,0 -3.74,-0.47 -3.65,-0.94 -3.5,-1.39 -3.3,-1.81 -3.05,-2.21 -2.75,-2.58 -2.4,-2.9 -2.02,-3.19 -1.6,-3.4 -1.17,-3.59 -0.7,-3.7 -0.24,-3.76 0.24,-3.76 0.7,-3.7 1.17,-3.58 1.6,-3.41 2.02,-3.18 2.4,-2.91 2.75,-2.57 3.05,-2.22 3.3,-1.82 3.5,-1.38 3.65,-0.94 3.74,-0.47 3.76,0 3.74,0.47 3.65,0.94 3.5,1.38 3.3,1.82 3.05,2.22 2.75,2.57 2.4,2.91 2.02,3.18 1.6,3.41 1.17,3.58 0.7,3.7" /><path
             id="path13845"
             style="fill:none;stroke:#000000;stroke-opacity:1;stroke-width:5;stroke-linecap:butt;stroke-linejoin:miter;stroke-miterlimit:10;stroke-dasharray:none"
             d="m 2238,2093.31 -0.24,3.76 -0.7,3.7 -1.17,3.59 -1.6,3.4 -2.02,3.19 -2.4,2.9 -2.75,2.58 -3.05,2.21 -3.3,1.81 -3.5,1.39 -3.65,0.94 -3.74,0.47 -3.76,0 -3.74,-0.47 -3.65,-0.94 -3.5,-1.39 -3.3,-1.81 -3.05,-2.21 -2.75,-2.58 -2.4,-2.9 -2.02,-3.19 -1.6,-3.4 -1.17,-3.59 -0.7,-3.7 -0.24,-3.76 0.24,-3.76 0.7,-3.7 1.17,-3.58 1.6,-3.41 2.02,-3.18 2.4,-2.91 2.75,-2.57 3.05,-2.22 3.3,-1.82 3.5,-1.38 3.65,-0.94 3.74,-0.47 3.76,0 3.74,0.47 3.65,0.94 3.5,1.38 3.3,1.82 3.05,2.22 2.75,2.57 2.4,2.91 2.02,3.18 1.6,3.41 1.17,3.58 0.7,3.7 0.24,3.76 z" /><path
             id="path13847"
             style="fill:#0000ff;fill-opacity:1;fill-rule:nonzero;stroke:none"
             d="m 2734,1922.45 -0.24,3.76 -0.7,3.7 -1.17,3.58 -1.6,3.41 -2.02,3.18 -2.4,2.91 -2.75,2.58 -3.05,2.21 -3.3,1.81 -3.5,1.39 -3.65,0.94 -3.74,0.47 -3.76,0 -3.74,-0.47 -3.65,-0.94 -3.5,-1.39 -3.3,-1.81 -3.05,-2.21 -2.75,-2.58 -2.4,-2.91 -2.02,-3.18 -1.6,-3.41 -1.17,-3.58 -0.7,-3.7 -0.24,-3.76 0.24,-3.76 0.7,-3.7 1.17,-3.58 1.6,-3.41 2.02,-3.18 2.4,-2.91 2.75,-2.57 3.05,-2.22 3.3,-1.82 3.5,-1.38 3.65,-0.94 3.74,-0.47 3.76,0 3.74,0.47 3.65,0.94 3.5,1.38 3.3,1.82 3.05,2.22 2.75,2.57 2.4,2.91 2.02,3.18 1.6,3.41 1.17,3.58 0.7,3.7" /><path
             id="path13849"
             style="fill:none;stroke:#000000;stroke-opacity:1;stroke-width:5;stroke-linecap:butt;stroke-linejoin:miter;stroke-miterlimit:10;stroke-dasharray:none"
             d="m 2734,1922.45 -0.24,3.76 -0.7,3.7 -1.17,3.58 -1.6,3.41 -2.02,3.18 -2.4,2.91 -2.75,2.58 -3.05,2.21 -3.3,1.81 -3.5,1.39 -3.65,0.94 -3.74,0.47 -3.76,0 -3.74,-0.47 -3.65,-0.94 -3.5,-1.39 -3.3,-1.81 -3.05,-2.21 -2.75,-2.58 -2.4,-2.91 -2.02,-3.18 -1.6,-3.41 -1.17,-3.58 -0.7,-3.7 -0.24,-3.76 0.24,-3.76 0.7,-3.7 1.17,-3.58 1.6,-3.41 2.02,-3.18 2.4,-2.91 2.75,-2.57 3.05,-2.22 3.3,-1.82 3.5,-1.38 3.65,-0.94 3.74,-0.47 3.76,0 3.74,0.47 3.65,0.94 3.5,1.38 3.3,1.82 3.05,2.22 2.75,2.57 2.4,2.91 2.02,3.18 1.6,3.41 1.17,3.58 0.7,3.7 0.24,3.76 z" /><path
             id="path13851"
             style="fill:#0000ff;fill-opacity:1;fill-rule:nonzero;stroke:none"
             d="m 3230,1826.13 -0.24,3.76 -0.7,3.7 -1.17,3.59 -1.6,3.4 -2.02,3.19 -2.4,2.9 -2.75,2.58 -3.05,2.21 -3.3,1.81 -3.5,1.39 -3.65,0.94 -3.74,0.47 -3.76,0 -3.74,-0.47 -3.65,-0.94 -3.5,-1.39 -3.3,-1.81 -3.05,-2.21 -2.75,-2.58 -2.4,-2.9 -2.02,-3.19 -1.6,-3.4 -1.17,-3.59 -0.7,-3.7 -0.24,-3.76 0.24,-3.76 0.7,-3.7 1.17,-3.58 1.6,-3.41 2.02,-3.18 2.4,-2.91 2.75,-2.57 3.05,-2.22 3.3,-1.82 3.5,-1.38 3.65,-0.94 3.74,-0.47 3.76,0 3.74,0.47 3.65,0.94 3.5,1.38 3.3,1.82 3.05,2.22 2.75,2.57 2.4,2.91 2.02,3.18 1.6,3.41 1.17,3.58 0.7,3.7" /><path
             id="path13853"
             style="fill:none;stroke:#000000;stroke-opacity:1;stroke-width:5;stroke-linecap:butt;stroke-linejoin:miter;stroke-miterlimit:10;stroke-dasharray:none"
             d="m 3230,1826.13 -0.24,3.76 -0.7,3.7 -1.17,3.59 -1.6,3.4 -2.02,3.19 -2.4,2.9 -2.75,2.58 -3.05,2.21 -3.3,1.81 -3.5,1.39 -3.65,0.94 -3.74,0.47 -3.76,0 -3.74,-0.47 -3.65,-0.94 -3.5,-1.39 -3.3,-1.81 -3.05,-2.21 -2.75,-2.58 -2.4,-2.9 -2.02,-3.19 -1.6,-3.4 -1.17,-3.59 -0.7,-3.7 -0.24,-3.76 0.24,-3.76 0.7,-3.7 1.17,-3.58 1.6,-3.41 2.02,-3.18 2.4,-2.91 2.75,-2.57 3.05,-2.22 3.3,-1.82 3.5,-1.38 3.65,-0.94 3.74,-0.47 3.76,0 3.74,0.47 3.65,0.94 3.5,1.38 3.3,1.82 3.05,2.22 2.75,2.57 2.4,2.91 2.02,3.18 1.6,3.41 1.17,3.58 0.7,3.7 0.24,3.76 z" /><path
             id="path13855"
             style="fill:#0000ff;fill-opacity:1;fill-rule:nonzero;stroke:none"
             d="m 3726,1772.31 -0.24,3.76 -0.7,3.7 -1.17,3.59 -1.6,3.4 -2.02,3.19 -2.4,2.9 -2.75,2.58 -3.05,2.21 -3.3,1.81 -3.5,1.39 -3.65,0.94 -3.74,0.47 -3.76,0 -3.74,-0.47 -3.65,-0.94 -3.5,-1.39 -3.3,-1.81 -3.05,-2.21 -2.75,-2.58 -2.4,-2.9 -2.02,-3.19 -1.6,-3.4 -1.17,-3.59 -0.7,-3.7 -0.24,-3.76 0.24,-3.76 0.7,-3.7 1.17,-3.58 1.6,-3.41 2.02,-3.18 2.4,-2.91 2.75,-2.57 3.05,-2.22 3.3,-1.82 3.5,-1.38 3.65,-0.94 3.74,-0.47 3.76,0 3.74,0.47 3.65,0.94 3.5,1.38 3.3,1.82 3.05,2.22 2.75,2.57 2.4,2.91 2.02,3.18 1.6,3.41 1.17,3.58 0.7,3.7" /><path
             id="path13857"
             style="fill:none;stroke:#000000;stroke-opacity:1;stroke-width:5;stroke-linecap:butt;stroke-linejoin:miter;stroke-miterlimit:10;stroke-dasharray:none"
             d="m 3726,1772.31 -0.24,3.76 -0.7,3.7 -1.17,3.59 -1.6,3.4 -2.02,3.19 -2.4,2.9 -2.75,2.58 -3.05,2.21 -3.3,1.81 -3.5,1.39 -3.65,0.94 -3.74,0.47 -3.76,0 -3.74,-0.47 -3.65,-0.94 -3.5,-1.39 -3.3,-1.81 -3.05,-2.21 -2.75,-2.58 -2.4,-2.9 -2.02,-3.19 -1.6,-3.4 -1.17,-3.59 -0.7,-3.7 -0.24,-3.76 0.24,-3.76 0.7,-3.7 1.17,-3.58 1.6,-3.41 2.02,-3.18 2.4,-2.91 2.75,-2.57 3.05,-2.22 3.3,-1.82 3.5,-1.38 3.65,-0.94 3.74,-0.47 3.76,0 3.74,0.47 3.65,0.94 3.5,1.38 3.3,1.82 3.05,2.22 2.75,2.57 2.4,2.91 2.02,3.18 1.6,3.41 1.17,3.58 0.7,3.7 0.24,3.76 z" /><path
             id="path13859"
             style="fill:#0000ff;fill-opacity:1;fill-rule:nonzero;stroke:none"
             d="m 4222,1742.73 -0.24,3.76 -0.7,3.7 -1.17,3.58 -1.6,3.41 -2.02,3.18 -2.4,2.91 -2.75,2.57 -3.05,2.22 -3.3,1.82 -3.5,1.38 -3.65,0.94 -3.74,0.47 -3.76,0 -3.74,-0.47 -3.65,-0.94 -3.5,-1.38 -3.3,-1.82 -3.05,-2.22 -2.75,-2.57 -2.4,-2.91 -2.02,-3.18 -1.6,-3.41 -1.17,-3.58 -0.7,-3.7 -0.24,-3.76 0.24,-3.76 0.7,-3.7 1.17,-3.58 1.6,-3.41 2.02,-3.18 2.4,-2.9 2.75,-2.59 3.05,-2.21 3.3,-1.81 3.5,-1.39 3.65,-0.94 3.74,-0.47 3.76,0 3.74,0.47 3.65,0.94 3.5,1.39 3.3,1.81 3.05,2.21 2.75,2.59 2.4,2.9 2.02,3.18 1.6,3.41 1.17,3.58 0.7,3.7" /><path
             id="path13861"
             style="fill:none;stroke:#000000;stroke-opacity:1;stroke-width:5;stroke-linecap:butt;stroke-linejoin:miter;stroke-miterlimit:10;stroke-dasharray:none"
             d="m 4222,1742.73 -0.24,3.76 -0.7,3.7 -1.17,3.58 -1.6,3.41 -2.02,3.18 -2.4,2.91 -2.75,2.57 -3.05,2.22 -3.3,1.82 -3.5,1.38 -3.65,0.94 -3.74,0.47 -3.76,0 -3.74,-0.47 -3.65,-0.94 -3.5,-1.38 -3.3,-1.82 -3.05,-2.22 -2.75,-2.57 -2.4,-2.91 -2.02,-3.18 -1.6,-3.41 -1.17,-3.58 -0.7,-3.7 -0.24,-3.76 0.24,-3.76 0.7,-3.7 1.17,-3.58 1.6,-3.41 2.02,-3.18 2.4,-2.9 2.75,-2.59 3.05,-2.21 3.3,-1.81 3.5,-1.39 3.65,-0.94 3.74,-0.47 3.76,0 3.74,0.47 3.65,0.94 3.5,1.39 3.3,1.81 3.05,2.21 2.75,2.59 2.4,2.9 2.02,3.18 1.6,3.41 1.17,3.58 0.7,3.7 0.24,3.76 z" /><path
             id="path13863"
             style="fill:#0000ff;fill-opacity:1;fill-rule:nonzero;stroke:none"
             d="m 4718,1726.39 -0.24,3.76 -0.7,3.7 -1.17,3.58 -1.6,3.41 -2.02,3.18 -2.4,2.91 -2.75,2.57 -3.05,2.22 -3.3,1.82 -3.5,1.38 -3.65,0.94 -3.74,0.47 -3.76,0 -3.74,-0.47 -3.65,-0.94 -3.5,-1.38 -3.3,-1.82 -3.05,-2.22 -2.75,-2.57 -2.4,-2.91 -2.02,-3.18 -1.6,-3.41 -1.17,-3.58 -0.7,-3.7 -0.24,-3.76 0.24,-3.76 0.7,-3.7 1.17,-3.58 1.6,-3.41 2.02,-3.18 2.4,-2.9 2.75,-2.59 3.05,-2.21 3.3,-1.81 3.5,-1.39 3.65,-0.94 3.74,-0.47 3.76,0 3.74,0.47 3.65,0.94 3.5,1.39 3.3,1.81 3.05,2.21 2.75,2.59 2.4,2.9 2.02,3.18 1.6,3.41 1.17,3.58 0.7,3.7" /><path
             id="path13865"
             style="fill:none;stroke:#000000;stroke-opacity:1;stroke-width:5;stroke-linecap:butt;stroke-linejoin:miter;stroke-miterlimit:10;stroke-dasharray:none"
             d="m 4718,1726.39 -0.24,3.76 -0.7,3.7 -1.17,3.58 -1.6,3.41 -2.02,3.18 -2.4,2.91 -2.75,2.57 -3.05,2.22 -3.3,1.82 -3.5,1.38 -3.65,0.94 -3.74,0.47 -3.76,0 -3.74,-0.47 -3.65,-0.94 -3.5,-1.38 -3.3,-1.82 -3.05,-2.22 -2.75,-2.57 -2.4,-2.91 -2.02,-3.18 -1.6,-3.41 -1.17,-3.58 -0.7,-3.7 -0.24,-3.76 0.24,-3.76 0.7,-3.7 1.17,-3.58 1.6,-3.41 2.02,-3.18 2.4,-2.9 2.75,-2.59 3.05,-2.21 3.3,-1.81 3.5,-1.39 3.65,-0.94 3.74,-0.47 3.76,0 3.74,0.47 3.65,0.94 3.5,1.39 3.3,1.81 3.05,2.21 2.75,2.59 2.4,2.9 2.02,3.18 1.6,3.41 1.17,3.58 0.7,3.7 0.24,3.76 z" /><path
             id="path13867"
             style="fill:#0000ff;fill-opacity:1;fill-rule:nonzero;stroke:none"
             d="m 5214,1717.73 -0.24,3.76 -0.7,3.7 -1.17,3.58 -1.6,3.41 -2.02,3.18 -2.4,2.91 -2.75,2.57 -3.05,2.22 -3.3,1.82 -3.5,1.38 -3.65,0.94 -3.74,0.47 -3.76,0 -3.74,-0.47 -3.65,-0.94 -3.5,-1.38 -3.3,-1.82 -3.05,-2.22 -2.75,-2.57 -2.4,-2.91 -2.02,-3.18 -1.6,-3.41 -1.17,-3.58 -0.7,-3.7 -0.24,-3.76 0.24,-3.76 0.7,-3.7 1.17,-3.58 1.6,-3.41 2.02,-3.18 2.4,-2.9 2.75,-2.59 3.05,-2.21 3.3,-1.81 3.5,-1.39 3.65,-0.94 3.74,-0.47 3.76,0 3.74,0.47 3.65,0.94 3.5,1.39 3.3,1.81 3.05,2.21 2.75,2.59 2.4,2.9 2.02,3.18 1.6,3.41 1.17,3.58 0.7,3.7" /><path
             id="path13869"
             style="fill:none;stroke:#000000;stroke-opacity:1;stroke-width:5;stroke-linecap:butt;stroke-linejoin:miter;stroke-miterlimit:10;stroke-dasharray:none"
             d="m 5214,1717.73 -0.24,3.76 -0.7,3.7 -1.17,3.58 -1.6,3.41 -2.02,3.18 -2.4,2.91 -2.75,2.57 -3.05,2.22 -3.3,1.82 -3.5,1.38 -3.65,0.94 -3.74,0.47 -3.76,0 -3.74,-0.47 -3.65,-0.94 -3.5,-1.38 -3.3,-1.82 -3.05,-2.22 -2.75,-2.57 -2.4,-2.91 -2.02,-3.18 -1.6,-3.41 -1.17,-3.58 -0.7,-3.7 -0.24,-3.76 0.24,-3.76 0.7,-3.7 1.17,-3.58 1.6,-3.41 2.02,-3.18 2.4,-2.9 2.75,-2.59 3.05,-2.21 3.3,-1.81 3.5,-1.39 3.65,-0.94 3.74,-0.47 3.76,0 3.74,0.47 3.65,0.94 3.5,1.39 3.3,1.81 3.05,2.21 2.75,2.59 2.4,2.9 2.02,3.18 1.6,3.41 1.17,3.58 0.7,3.7 0.24,3.76 z" /><path
             id="path13871"
             style="fill:none;stroke:#008000;stroke-opacity:1;stroke-width:10;stroke-linecap:square;stroke-linejoin:miter;stroke-miterlimit:10;stroke-dasharray:none"
             d="m 720,1551.83 496,-359.66 496,-253.729 496,-154.586 496,-87.98 496,-49.262 496,-25.847 496,-13.368 496,-6.425 496,-2.883" /><path
             id="path13873"
             style="fill:#008000;fill-opacity:1;fill-rule:nonzero;stroke:none"
             d="m 690,1521.83 60,0 0,60 -60,0 0,-60 z" /><path
             id="path13875"
             style="fill:none;stroke:#000000;stroke-opacity:1;stroke-width:5;stroke-linecap:butt;stroke-linejoin:miter;stroke-miterlimit:10;stroke-dasharray:none"
             d="m 690,1521.83 60,0 0,60 -60,0 0,-60 z" /><path
             id="path13877"
             style="fill:#008000;fill-opacity:1;fill-rule:nonzero;stroke:none"
             d="m 1186,1162.17 60,0 0,60 -60,0 0,-60 z" /><path
             id="path13879"
             style="fill:none;stroke:#000000;stroke-opacity:1;stroke-width:5;stroke-linecap:butt;stroke-linejoin:miter;stroke-miterlimit:10;stroke-dasharray:none"
             d="m 1186,1162.17 60,0 0,60 -60,0 0,-60 z" /><path
             id="path13881"
             style="fill:#008000;fill-opacity:1;fill-rule:nonzero;stroke:none"
             d="m 1682,908.441 60,0 0,60 -60,0 0,-60 z" /><path
             id="path13883"
             style="fill:none;stroke:#000000;stroke-opacity:1;stroke-width:5;stroke-linecap:butt;stroke-linejoin:miter;stroke-miterlimit:10;stroke-dasharray:none"
             d="m 1682,908.441 60,0 0,60 -60,0 0,-60 z" /><path
             id="path13885"
             style="fill:#008000;fill-opacity:1;fill-rule:nonzero;stroke:none"
             d="m 2178,753.855 60,0 0,60 -60,0 0,-60 z" /><path
             id="path13887"
             style="fill:none;stroke:#000000;stroke-opacity:1;stroke-width:5;stroke-linecap:butt;stroke-linejoin:miter;stroke-miterlimit:10;stroke-dasharray:none"
             d="m 2178,753.855 60,0 0,60 -60,0 0,-60 z" /><path
             id="path13889"
             style="fill:#008000;fill-opacity:1;fill-rule:nonzero;stroke:none"
             d="m 2674,665.875 60,0 0,60 -60,0 0,-60 z" /><path
             id="path13891"
             style="fill:none;stroke:#000000;stroke-opacity:1;stroke-width:5;stroke-linecap:butt;stroke-linejoin:miter;stroke-miterlimit:10;stroke-dasharray:none"
             d="m 2674,665.875 60,0 0,60 -60,0 0,-60 z" /><path
             id="path13893"
             style="fill:#008000;fill-opacity:1;fill-rule:nonzero;stroke:none"
             d="m 3170,616.613 60,0 0,60 -60,0 0,-60 z" /><path
             id="path13895"
             style="fill:none;stroke:#000000;stroke-opacity:1;stroke-width:5;stroke-linecap:butt;stroke-linejoin:miter;stroke-miterlimit:10;stroke-dasharray:none"
             d="m 3170,616.613 60,0 0,60 -60,0 0,-60 z" /><path
             id="path13897"
             style="fill:#008000;fill-opacity:1;fill-rule:nonzero;stroke:none"
             d="m 3666,590.766 60,0 0,60 -60,0 0,-60 z" /><path
             id="path13899"
             style="fill:none;stroke:#000000;stroke-opacity:1;stroke-width:5;stroke-linecap:butt;stroke-linejoin:miter;stroke-miterlimit:10;stroke-dasharray:none"
             d="m 3666,590.766 60,0 0,60 -60,0 0,-60 z" /><path
             id="path13901"
             style="fill:#008000;fill-opacity:1;fill-rule:nonzero;stroke:none"
             d="m 4162,577.398 60,0 0,60 -60,0 0,-60 z" /><path
             id="path13903"
             style="fill:none;stroke:#000000;stroke-opacity:1;stroke-width:5;stroke-linecap:butt;stroke-linejoin:miter;stroke-miterlimit:10;stroke-dasharray:none"
             d="m 4162,577.398 60,0 0,60 -60,0 0,-60 z" /><path
             id="path13905"
             style="fill:#008000;fill-opacity:1;fill-rule:nonzero;stroke:none"
             d="m 4658,570.973 60,0 0,60 -60,0 0,-60 z" /><path
             id="path13907"
             style="fill:none;stroke:#000000;stroke-opacity:1;stroke-width:5;stroke-linecap:butt;stroke-linejoin:miter;stroke-miterlimit:10;stroke-dasharray:none"
             d="m 4658,570.973 60,0 0,60 -60,0 0,-60 z" /><path
             id="path13909"
             style="fill:#008000;fill-opacity:1;fill-rule:nonzero;stroke:none"
             d="m 5154,568.09 60,0 0,60 -60,0 0,-60 z" /><path
             id="path13911"
             style="fill:none;stroke:#000000;stroke-opacity:1;stroke-width:5;stroke-linecap:butt;stroke-linejoin:miter;stroke-miterlimit:10;stroke-dasharray:none"
             d="m 5154,568.09 60,0 0,60 -60,0 0,-60 z" /></g></g><g
         transform="scale(10,10)"
         id="g13913"><text
   id="text13915"
   transform="matrix(1,0,0,-1,69.391,30.45)"><tspan
     id="tspan13917"
     y="0"
     x="0"
     style="font-size:12;font-weight:normal;writing-mode:lr;fill-rule:nonzero;fill-opacity:1;stroke:none;-inkscape-font-specification:Serif;font-variant:normal;font-family:Serif;fill:#000000">1</tspan></text>

</g><path
         id="path13919"
         style="fill:none;stroke:#000000;stroke-opacity:1;stroke-width:5;stroke-linecap:butt;stroke-linejoin:miter;stroke-miterlimit:10;stroke-dasharray:none"
         d="m 1211,432 0,40 0,-40 z" /><path
         id="path13921"
         style="fill:none;stroke:#000000;stroke-opacity:1;stroke-width:5;stroke-linecap:butt;stroke-linejoin:miter;stroke-miterlimit:10;stroke-dasharray:none"
         d="m 1211,3848 0,40 0,-40 z" /><g
         transform="scale(10,10)"
         id="g13923"><text
   id="text13925"
   transform="matrix(1,0,0,-1,118.819,30.2941)"><tspan
     id="tspan13927"
     y="0"
     x="0"
     style="font-size:12;font-weight:normal;writing-mode:lr;fill-rule:nonzero;fill-opacity:1;stroke:none;-inkscape-font-specification:Serif;font-variant:normal;font-family:Serif;fill:#000000">2</tspan></text>

</g><path
         id="path13929"
         style="fill:none;stroke:#000000;stroke-opacity:1;stroke-width:5;stroke-linecap:butt;stroke-linejoin:miter;stroke-miterlimit:10;stroke-dasharray:none"
         d="m 1707,432 0,40 0,-40 z" /><path
         id="path13931"
         style="fill:none;stroke:#000000;stroke-opacity:1;stroke-width:5;stroke-linecap:butt;stroke-linejoin:miter;stroke-miterlimit:10;stroke-dasharray:none"
         d="m 1707,3848 0,40 0,-40 z" /><g
         transform="scale(10,10)"
         id="g13933"><text
   id="text13935"
   transform="matrix(1,0,0,-1,168.325,30.2941)"><tspan
     id="tspan13937"
     y="0"
     x="0"
     style="font-size:12;font-weight:normal;writing-mode:lr;fill-rule:nonzero;fill-opacity:1;stroke:none;-inkscape-font-specification:Serif;font-variant:normal;font-family:Serif;fill:#000000">3</tspan></text>

</g><path
         id="path13939"
         style="fill:none;stroke:#000000;stroke-opacity:1;stroke-width:5;stroke-linecap:butt;stroke-linejoin:miter;stroke-miterlimit:10;stroke-dasharray:none"
         d="m 2203,432 0,40 0,-40 z" /><path
         id="path13941"
         style="fill:none;stroke:#000000;stroke-opacity:1;stroke-width:5;stroke-linecap:butt;stroke-linejoin:miter;stroke-miterlimit:10;stroke-dasharray:none"
         d="m 2203,3848 0,40 0,-40 z" /><g
         transform="scale(10,10)"
         id="g13943"><text
   id="text13945"
   transform="matrix(1,0,0,-1,217.612,30.45)"><tspan
     id="tspan13947"
     y="0"
     x="0"
     style="font-size:12;font-weight:normal;writing-mode:lr;fill-rule:nonzero;fill-opacity:1;stroke:none;-inkscape-font-specification:Serif;font-variant:normal;font-family:Serif;fill:#000000">4</tspan></text>

</g><path
         id="path13949"
         style="fill:none;stroke:#000000;stroke-opacity:1;stroke-width:5;stroke-linecap:butt;stroke-linejoin:miter;stroke-miterlimit:10;stroke-dasharray:none"
         d="m 2699,432 0,40 0,-40 z" /><path
         id="path13951"
         style="fill:none;stroke:#000000;stroke-opacity:1;stroke-width:5;stroke-linecap:butt;stroke-linejoin:miter;stroke-miterlimit:10;stroke-dasharray:none"
         d="m 2699,3848 0,40 0,-40 z" /><g
         transform="scale(10,10)"
         id="g13953"><text
   id="text13955"
   transform="matrix(1,0,0,-1,267.564,30.45)"><tspan
     id="tspan13957"
     y="0"
     x="0"
     style="font-size:12;font-weight:normal;writing-mode:lr;fill-rule:nonzero;fill-opacity:1;stroke:none;-inkscape-font-specification:Serif;font-variant:normal;font-family:Serif;fill:#000000">5</tspan></text>

</g><path
         id="path13959"
         style="fill:none;stroke:#000000;stroke-opacity:1;stroke-width:5;stroke-linecap:butt;stroke-linejoin:miter;stroke-miterlimit:10;stroke-dasharray:none"
         d="m 3195,432 0,40 0,-40 z" /><path
         id="path13961"
         style="fill:none;stroke:#000000;stroke-opacity:1;stroke-width:5;stroke-linecap:butt;stroke-linejoin:miter;stroke-miterlimit:10;stroke-dasharray:none"
         d="m 3195,3848 0,40 0,-40 z" /><g
         transform="scale(10,10)"
         id="g13963"><text
   id="text13965"
   transform="matrix(1,0,0,-1,316.984,30.2941)"><tspan
     id="tspan13967"
     y="0"
     x="0"
     style="font-size:12;font-weight:normal;writing-mode:lr;fill-rule:nonzero;fill-opacity:1;stroke:none;-inkscape-font-specification:Serif;font-variant:normal;font-family:Serif;fill:#000000">6</tspan></text>

</g><path
         id="path13969"
         style="fill:none;stroke:#000000;stroke-opacity:1;stroke-width:5;stroke-linecap:butt;stroke-linejoin:miter;stroke-miterlimit:10;stroke-dasharray:none"
         d="m 3691,432 0,40 0,-40 z" /><path
         id="path13971"
         style="fill:none;stroke:#000000;stroke-opacity:1;stroke-width:5;stroke-linecap:butt;stroke-linejoin:miter;stroke-miterlimit:10;stroke-dasharray:none"
         d="m 3691,3848 0,40 0,-40 z" /><g
         transform="scale(10,10)"
         id="g13973"><text
   id="text13975"
   transform="matrix(1,0,0,-1,366.787,30.45)"><tspan
     id="tspan13977"
     y="0"
     x="0"
     style="font-size:12;font-weight:normal;writing-mode:lr;fill-rule:nonzero;fill-opacity:1;stroke:none;-inkscape-font-specification:Serif;font-variant:normal;font-family:Serif;fill:#000000">7</tspan></text>

</g><path
         id="path13979"
         style="fill:none;stroke:#000000;stroke-opacity:1;stroke-width:5;stroke-linecap:butt;stroke-linejoin:miter;stroke-miterlimit:10;stroke-dasharray:none"
         d="m 4187,432 0,40 0,-40 z" /><path
         id="path13981"
         style="fill:none;stroke:#000000;stroke-opacity:1;stroke-width:5;stroke-linecap:butt;stroke-linejoin:miter;stroke-miterlimit:10;stroke-dasharray:none"
         d="m 4187,3848 0,40 0,-40 z" /><g
         transform="scale(10,10)"
         id="g13983"><text
   id="text13985"
   transform="matrix(1,0,0,-1,416.2,30.2941)"><tspan
     id="tspan13987"
     y="0"
     x="0"
     style="font-size:12;font-weight:normal;writing-mode:lr;fill-rule:nonzero;fill-opacity:1;stroke:none;-inkscape-font-specification:Serif;font-variant:normal;font-family:Serif;fill:#000000">8</tspan></text>

</g><path
         id="path13989"
         style="fill:none;stroke:#000000;stroke-opacity:1;stroke-width:5;stroke-linecap:butt;stroke-linejoin:miter;stroke-miterlimit:10;stroke-dasharray:none"
         d="m 4683,432 0,40 0,-40 z" /><path
         id="path13991"
         style="fill:none;stroke:#000000;stroke-opacity:1;stroke-width:5;stroke-linecap:butt;stroke-linejoin:miter;stroke-miterlimit:10;stroke-dasharray:none"
         d="m 4683,3848 0,40 0,-40 z" /><g
         transform="scale(10,10)"
         id="g13993"><text
   id="text13995"
   transform="matrix(1,0,0,-1,465.777,30.2941)"><tspan
     id="tspan13997"
     sodipodi:role="line"
     y="0"
     x="0 46.03716 53.66916"
     style="font-size:12;font-weight:normal;writing-mode:lr;fill-rule:nonzero;fill-opacity:1;stroke:none;-inkscape-font-specification:Serif;font-variant:normal;font-family:Serif;fill:#000000">910</tspan><tspan
     id="tspan13999"
     sodipodi:role="line"
     y="14.2973"
     x="-212.999 -204.623 -197.519 -190.919 -187.583 -180.203 -176.387 -167.411 -159.803 -148.115 -140.495 -133.115"
     style="font-size:12;font-weight:normal;writing-mode:lr;fill-rule:nonzero;fill-opacity:1;stroke:none;-inkscape-font-specification:Serif;font-variant:normal;font-family:Serif;fill:#000000">Cycle Number</tspan><tspan
     id="tspan14001"
     sodipodi:role="line"
     y="-8.5386"
     x="-430.589 -422.957 -419.141 -411.509 -403.877"
     style="font-size:12;font-weight:normal;writing-mode:lr;fill-rule:nonzero;fill-opacity:1;stroke:none;-inkscape-font-specification:Serif;font-variant:normal;font-family:Serif;fill:#000000">0.006</tspan></text>

</g><path
         id="path14003"
         style="fill:none;stroke:#000000;stroke-opacity:1;stroke-width:5;stroke-linecap:butt;stroke-linejoin:miter;stroke-miterlimit:10;stroke-dasharray:none"
         d="m 720,930.715 40,0 -40,0 z" /><path
         id="path14005"
         style="fill:none;stroke:#000000;stroke-opacity:1;stroke-width:5;stroke-linecap:butt;stroke-linejoin:miter;stroke-miterlimit:10;stroke-dasharray:none"
         d="m 5144,930.715 40,0 -40,0 z" /><g
         transform="scale(10,10)"
         id="g14007"><text
   id="text14009"
   transform="matrix(1,0,0,-1,35.25,88.2039)"><tspan
     id="tspan14011"
     sodipodi:role="line"
     y="0"
     x="0 7.632 11.448 19.08 26.712"
     style="font-size:12;font-weight:normal;writing-mode:lr;fill-rule:nonzero;fill-opacity:1;stroke:none;-inkscape-font-specification:Serif;font-variant:normal;font-family:Serif;fill:#000000">0.008</tspan></text>

</g><path
         id="path14013"
         style="fill:none;stroke:#000000;stroke-opacity:1;stroke-width:5;stroke-linecap:butt;stroke-linejoin:miter;stroke-miterlimit:10;stroke-dasharray:none"
         d="m 720,1424.43 40,0 -40,0 z" /><path
         id="path14015"
         style="fill:none;stroke:#000000;stroke-opacity:1;stroke-width:5;stroke-linecap:butt;stroke-linejoin:miter;stroke-miterlimit:10;stroke-dasharray:none"
         d="m 5144,1424.43 40,0 -40,0 z" /><g
         transform="scale(10,10)"
         id="g14017"><text
   id="text14019"
   transform="matrix(1,0,0,-1,35.2191,137.576)"><tspan
     id="tspan14021"
     sodipodi:role="line"
     y="0"
     x="0 7.632 11.448 19.08 26.712"
     style="font-size:12;font-weight:normal;writing-mode:lr;fill-rule:nonzero;fill-opacity:1;stroke:none;-inkscape-font-specification:Serif;font-variant:normal;font-family:Serif;fill:#000000">0.010</tspan></text>

</g><path
         id="path14023"
         style="fill:none;stroke:#000000;stroke-opacity:1;stroke-width:5;stroke-linecap:butt;stroke-linejoin:miter;stroke-miterlimit:10;stroke-dasharray:none"
         d="m 720,1918.14 40,0 -40,0 z" /><path
         id="path14025"
         style="fill:none;stroke:#000000;stroke-opacity:1;stroke-width:5;stroke-linecap:butt;stroke-linejoin:miter;stroke-miterlimit:10;stroke-dasharray:none"
         d="m 5144,1918.14 40,0 -40,0 z" /><g
         transform="scale(10,10)"
         id="g14027"><text
   id="text14029"
   transform="matrix(1,0,0,-1,35.625,186.947)"><tspan
     id="tspan14031"
     sodipodi:role="line"
     y="0"
     x="0 7.632 11.448 19.08 26.712"
     style="font-size:12;font-weight:normal;writing-mode:lr;fill-rule:nonzero;fill-opacity:1;stroke:none;-inkscape-font-specification:Serif;font-variant:normal;font-family:Serif;fill:#000000">0.012</tspan></text>

</g><path
         id="path14033"
         style="fill:none;stroke:#000000;stroke-opacity:1;stroke-width:5;stroke-linecap:butt;stroke-linejoin:miter;stroke-miterlimit:10;stroke-dasharray:none"
         d="m 720,2411.86 40,0 -40,0 z" /><path
         id="path14035"
         style="fill:none;stroke:#000000;stroke-opacity:1;stroke-width:5;stroke-linecap:butt;stroke-linejoin:miter;stroke-miterlimit:10;stroke-dasharray:none"
         d="m 5144,2411.86 40,0 -40,0 z" /><g
         transform="scale(10,10)"
         id="g14037"><text
   id="text14039"
   transform="matrix(1,0,0,-1,35.0941,236.319)"><tspan
     id="tspan14041"
     sodipodi:role="line"
     y="0"
     x="0 7.632 11.448 19.08 26.712"
     style="font-size:12;font-weight:normal;writing-mode:lr;fill-rule:nonzero;fill-opacity:1;stroke:none;-inkscape-font-specification:Serif;font-variant:normal;font-family:Serif;fill:#000000">0.014</tspan></text>

</g><path
         id="path14043"
         style="fill:none;stroke:#000000;stroke-opacity:1;stroke-width:5;stroke-linecap:butt;stroke-linejoin:miter;stroke-miterlimit:10;stroke-dasharray:none"
         d="m 720,2905.57 40,0 -40,0 z" /><path
         id="path14045"
         style="fill:none;stroke:#000000;stroke-opacity:1;stroke-width:5;stroke-linecap:butt;stroke-linejoin:miter;stroke-miterlimit:10;stroke-dasharray:none"
         d="m 5144,2905.57 40,0 -40,0 z" /><g
         transform="scale(10,10)"
         id="g14047"><text
   id="text14049"
   transform="matrix(1,0,0,-1,35.1879,285.69)"><tspan
     id="tspan14051"
     sodipodi:role="line"
     y="0"
     x="0 7.632 11.448 19.08 26.712"
     style="font-size:12;font-weight:normal;writing-mode:lr;fill-rule:nonzero;fill-opacity:1;stroke:none;-inkscape-font-specification:Serif;font-variant:normal;font-family:Serif;fill:#000000">0.016</tspan></text>

</g><path
         id="path14053"
         style="fill:none;stroke:#000000;stroke-opacity:1;stroke-width:5;stroke-linecap:butt;stroke-linejoin:miter;stroke-miterlimit:10;stroke-dasharray:none"
         d="m 720,3399.29 40,0 -40,0 z" /><path
         id="path14055"
         style="fill:none;stroke:#000000;stroke-opacity:1;stroke-width:5;stroke-linecap:butt;stroke-linejoin:miter;stroke-miterlimit:10;stroke-dasharray:none"
         d="m 5144,3399.29 40,0 -40,0 z" /><g
         transform="scale(10,10)"
         id="g14057"><text
   id="text14059"
   transform="matrix(1,0,0,-1,35.25,335.062)"><tspan
     id="tspan14061"
     sodipodi:role="line"
     y="0"
     x="0 7.632 11.448 19.08 26.712"
     style="font-size:12;font-weight:normal;writing-mode:lr;fill-rule:nonzero;fill-opacity:1;stroke:none;-inkscape-font-specification:Serif;font-variant:normal;font-family:Serif;fill:#000000">0.018</tspan><tspan
     id="tspan14063"
     sodipodi:role="line"
     y="-49.3707"
     x="-0.0308594 7.6011406 11.4171406 19.0491406 26.6811406"
     style="font-size:12;font-weight:normal;writing-mode:lr;fill-rule:nonzero;fill-opacity:1;stroke:none;-inkscape-font-specification:Serif;font-variant:normal;font-family:Serif;fill:#000000">0.020</tspan></text>

<text
   id="text14065"
   transform="matrix(0,1,1,0,27.5941,187.523)"><tspan
     id="tspan14067"
     sodipodi:role="line"
     y="0"
     x="0 10.356 17.712 23.964 30.216 34.032 38.712 45.66 53.28"
     style="font-size:12;font-weight:normal;writing-mode:lr;fill-rule:nonzero;fill-opacity:1;stroke:none;-inkscape-font-specification:Serif;font-variant:normal;font-family:Serif;fill:#000000">Mass [kg]</tspan></text>

</g><path
         id="path14069"
         style="fill:none;stroke:#000000;stroke-opacity:1;stroke-width:10;stroke-linecap:square;stroke-linejoin:miter;stroke-miterlimit:10;stroke-dasharray:none"
         d="m 720,432 4464,0 0,3456 -4464,0 0,-3456" /><path
         id="path14071"
         style="fill:#ffffff;fill-opacity:1;fill-rule:nonzero;stroke:none"
         d="m 2108.99,2970.56 2985.73,0 0,848.32 -2985.73,0 0,-848.32 z" /><path
         id="path14073"
         style="fill:none;stroke:#000000;stroke-opacity:1;stroke-width:10;stroke-linecap:square;stroke-linejoin:miter;stroke-miterlimit:10;stroke-dasharray:none"
         d="m 2108.99,2970.56 2985.73,0 0,848.32 -2985.73,0 0,-848.32 z" /><path
         id="path14075"
         style="fill:none;stroke:#000000;stroke-opacity:1;stroke-width:10;stroke-linecap:square;stroke-linejoin:miter;stroke-miterlimit:10;stroke-dasharray:none"
         d="m 2387.8,3680.45 223.2,0" /><path
         id="path14077"
         style="fill:none;stroke:#ff0000;stroke-opacity:1;stroke-width:10;stroke-linecap:butt;stroke-linejoin:miter;stroke-miterlimit:10;stroke-dasharray:60,60;stroke-dashoffset:0"
         d="m 2387.8,3489.96 223.2,0" /><path
         id="path14079"
         style="fill:none;stroke:#0000ff;stroke-opacity:1;stroke-width:10;stroke-linecap:square;stroke-linejoin:miter;stroke-miterlimit:10;stroke-dasharray:none"
         d="m 2387.8,3299.48 223.2,0" /><path
         id="path14081"
         style="fill:#0000ff;fill-opacity:1;fill-rule:nonzero;stroke:none"
         d="m 2417.8,3299.48 -0.24,3.76 -0.7,3.7 -1.16,3.58 -1.61,3.41 -2.02,3.18 -2.4,2.91 -2.75,2.57 -3.04,2.22 -3.31,1.81 -3.5,1.39 -3.65,0.94 -3.74,0.47 -3.76,0 -3.74,-0.47 -3.65,-0.94 -3.5,-1.39 -3.3,-1.81 -3.05,-2.22 -2.75,-2.57 -2.4,-2.91 -2.02,-3.18 -1.6,-3.41 -1.17,-3.58 -0.7,-3.7 -0.24,-3.76 0.24,-3.76 0.7,-3.7 1.17,-3.58 1.6,-3.41 2.02,-3.18 2.4,-2.9 2.75,-2.59 3.05,-2.21 3.3,-1.81 3.5,-1.39 3.65,-0.94 3.74,-0.47 3.76,0 3.74,0.47 3.65,0.94 3.5,1.39 3.31,1.81 3.04,2.21 2.75,2.59 2.4,2.9 2.02,3.18 1.61,3.41 1.16,3.58 0.7,3.7" /><path
         id="path14083"
         style="fill:none;stroke:#000000;stroke-opacity:1;stroke-width:5;stroke-linecap:butt;stroke-linejoin:miter;stroke-miterlimit:10;stroke-dasharray:none"
         d="m 2417.8,3299.48 -0.24,3.76 -0.7,3.7 -1.16,3.58 -1.61,3.41 -2.02,3.18 -2.4,2.91 -2.75,2.57 -3.04,2.22 -3.31,1.81 -3.5,1.39 -3.65,0.94 -3.74,0.47 -3.76,0 -3.74,-0.47 -3.65,-0.94 -3.5,-1.39 -3.3,-1.81 -3.05,-2.22 -2.75,-2.57 -2.4,-2.91 -2.02,-3.18 -1.6,-3.41 -1.17,-3.58 -0.7,-3.7 -0.24,-3.76 0.24,-3.76 0.7,-3.7 1.17,-3.58 1.6,-3.41 2.02,-3.18 2.4,-2.9 2.75,-2.59 3.05,-2.21 3.3,-1.81 3.5,-1.39 3.65,-0.94 3.74,-0.47 3.76,0 3.74,0.47 3.65,0.94 3.5,1.39 3.31,1.81 3.04,2.21 2.75,2.59 2.4,2.9 2.02,3.18 1.61,3.41 1.16,3.58 0.7,3.7 0.24,3.76 z" /><path
         id="path14085"
         style="fill:#0000ff;fill-opacity:1;fill-rule:nonzero;stroke:none"
         d="m 2641,3299.48 -0.24,3.76 -0.7,3.7 -1.17,3.58 -1.6,3.41 -2.02,3.18 -2.4,2.91 -2.75,2.57 -3.05,2.22 -3.3,1.81 -3.5,1.39 -3.65,0.94 -3.74,0.47 -3.76,0 -3.74,-0.47 -3.65,-0.94 -3.5,-1.39 -3.3,-1.81 -3.05,-2.22 -2.75,-2.57 -2.4,-2.91 -2.02,-3.18 -1.6,-3.41 -1.17,-3.58 -0.7,-3.7 -0.24,-3.76 0.24,-3.76 0.7,-3.7 1.17,-3.58 1.6,-3.41 2.02,-3.18 2.4,-2.9 2.75,-2.59 3.05,-2.21 3.3,-1.81 3.5,-1.39 3.65,-0.94 3.74,-0.47 3.76,0 3.74,0.47 3.65,0.94 3.5,1.39 3.3,1.81 3.05,2.21 2.75,2.59 2.4,2.9 2.02,3.18 1.6,3.41 1.17,3.58 0.7,3.7" /><path
         id="path14087"
         style="fill:none;stroke:#000000;stroke-opacity:1;stroke-width:5;stroke-linecap:butt;stroke-linejoin:miter;stroke-miterlimit:10;stroke-dasharray:none"
         d="m 2641,3299.48 -0.24,3.76 -0.7,3.7 -1.17,3.58 -1.6,3.41 -2.02,3.18 -2.4,2.91 -2.75,2.57 -3.05,2.22 -3.3,1.81 -3.5,1.39 -3.65,0.94 -3.74,0.47 -3.76,0 -3.74,-0.47 -3.65,-0.94 -3.5,-1.39 -3.3,-1.81 -3.05,-2.22 -2.75,-2.57 -2.4,-2.91 -2.02,-3.18 -1.6,-3.41 -1.17,-3.58 -0.7,-3.7 -0.24,-3.76 0.24,-3.76 0.7,-3.7 1.17,-3.58 1.6,-3.41 2.02,-3.18 2.4,-2.9 2.75,-2.59 3.05,-2.21 3.3,-1.81 3.5,-1.39 3.65,-0.94 3.74,-0.47 3.76,0 3.74,0.47 3.65,0.94 3.5,1.39 3.3,1.81 3.05,2.21 2.75,2.59 2.4,2.9 2.02,3.18 1.6,3.41 1.17,3.58 0.7,3.7 0.24,3.76 z" /><path
         id="path14089"
         style="fill:none;stroke:#008000;stroke-opacity:1;stroke-width:10;stroke-linecap:square;stroke-linejoin:miter;stroke-miterlimit:10;stroke-dasharray:none"
         d="m 2387.8,3108.99 223.2,0" /><path
         id="path14091"
         style="fill:#008000;fill-opacity:1;fill-rule:nonzero;stroke:none"
         d="m 2357.8,3078.99 60,0 0,60 -60,0 0,-60 z" /><path
         id="path14093"
         style="fill:none;stroke:#000000;stroke-opacity:1;stroke-width:5;stroke-linecap:butt;stroke-linejoin:miter;stroke-miterlimit:10;stroke-dasharray:none"
         d="m 2357.8,3078.99 60,0 0,60 -60,0 0,-60 z" /><path
         id="path14095"
         style="fill:#008000;fill-opacity:1;fill-rule:nonzero;stroke:none"
         d="m 2581,3078.99 60,0 0,60 -60,0 0,-60 z" /><path
         id="path14097"
         style="fill:none;stroke:#000000;stroke-opacity:1;stroke-width:5;stroke-linecap:butt;stroke-linejoin:miter;stroke-miterlimit:10;stroke-dasharray:none"
         d="m 2581,3078.99 60,0 0,60 -60,0 0,-60 z" /><g
         transform="scale(10,10)"
         id="g14099"><text
   id="text14101"
   transform="matrix(1,0,0,-1,270.028,364.178)"><tspan
     id="tspan14103"
     sodipodi:role="line"
     y="0"
     x="0 10.472 18.914 27.818 36.722 45.626 50.078 54.208 63.084 71.974 80.85 86.338 90.79 102.872 111.454 118.748 126.042 130.494 135.422 143.99 149.744 154.196 163.1 167.552"
     style="font-size:14;font-weight:normal;writing-mode:lr;fill-rule:nonzero;fill-opacity:1;stroke:none;-inkscape-font-specification:Serif;font-variant:normal;font-family:Serif;fill:#000000">NP237 Input Mass for 0.9</tspan><tspan
     id="tspan14105"
     sodipodi:role="line"
     y="19.0492"
     x="0 10.472 18.914 27.818 36.722 45.626 50.078 61.096 69.972 75.46 84.35 93.226 98.714 103.166 115.248 123.83 131.124 138.418 142.87 147.798 156.366 162.12 166.572 175.476 179.928"
     style="font-size:14;font-weight:normal;writing-mode:lr;fill-rule:nonzero;fill-opacity:1;stroke:none;-inkscape-font-specification:Serif;font-variant:normal;font-family:Serif;fill:#000000">NP237 Output Mass for 0.9</tspan><tspan
     id="tspan14107"
     sodipodi:role="line"
     y="38.0984"
     x="0 10.472 18.914 27.818 36.722 45.626 50.078 54.208 63.084 71.974 80.85 86.338 90.79 102.872 111.454 118.748 126.042 130.494 135.422 143.99 149.744 154.196 163.1 167.552 176.456 185.36 194.264"
     style="font-size:14;font-weight:normal;writing-mode:lr;fill-rule:nonzero;fill-opacity:1;stroke:none;-inkscape-font-specification:Serif;font-variant:normal;font-family:Serif;fill:#000000">NP237 Input Mass for 0.9999</tspan><tspan
     id="tspan14109"
     sodipodi:role="line"
     y="57.1464"
     x="0 10.472 18.914 27.818 36.722 45.626 50.078 61.096 69.972 75.46 84.35 93.226 98.714 103.166 115.248 123.83 131.124 138.418 142.87 147.798 156.366 162.12 166.572 175.476 179.928 188.832 197.736 206.64"
     style="font-size:14;font-weight:normal;writing-mode:lr;fill-rule:nonzero;fill-opacity:1;stroke:none;-inkscape-font-specification:Serif;font-variant:normal;font-family:Serif;fill:#000000">NP237 Output Mass for 0.9999</tspan></text>

</g></g></g></svg>