<?xml version="1.0" encoding="UTF-8" standalone="no"?>
<!-- Created with Inkscape (http://www.inkscape.org/) -->

<svg
   xmlns:dc="http://purl.org/dc/elements/1.1/"
   xmlns:cc="http://creativecommons.org/ns#"
   xmlns:rdf="http://www.w3.org/1999/02/22-rdf-syntax-ns#"
   xmlns:svg="http://www.w3.org/2000/svg"
   xmlns="http://www.w3.org/2000/svg"
   xmlns:sodipodi="http://sodipodi.sourceforge.net/DTD/sodipodi-0.dtd"
   xmlns:inkscape="http://www.inkscape.org/namespaces/inkscape"
   id="svg14523"
   version="1.1"
   inkscape:version="0.48.2 r9819"
   width="1107.5"
   height="181.25"
   xml:space="preserve"
   sodipodi:docname="piston.eps"><metadata
     id="metadata14529"><rdf:RDF><cc:Work
         rdf:about=""><dc:format>image/svg+xml</dc:format><dc:type
           rdf:resource="http://purl.org/dc/dcmitype/StillImage" /><dc:title></dc:title></cc:Work></rdf:RDF></metadata><defs
     id="defs14527" /><sodipodi:namedview
     pagecolor="#ffffff"
     bordercolor="#666666"
     borderopacity="1"
     objecttolerance="10"
     gridtolerance="10"
     guidetolerance="10"
     inkscape:pageopacity="0"
     inkscape:pageshadow="2"
     inkscape:window-width="1438"
     inkscape:window-height="868"
     id="namedview14525"
     showgrid="false"
     inkscape:zoom="0.35846501"
     inkscape:cx="553.75"
     inkscape:cy="90.625"
     inkscape:window-x="0"
     inkscape:window-y="30"
     inkscape:window-maximized="0"
     inkscape:current-layer="g14531" /><g
     id="g14531"
     inkscape:groupmode="layer"
     inkscape:label="ink_ext_XXXXXX"
     transform="matrix(1.25,0,0,-1.25,0,181.25)"><g
       id="g14533"
       transform="scale(0.1,0.1)"><path
         d="m 14.1719,1431.47 7369.9581,0"
         style="fill:none;stroke:#000000;stroke-opacity:1;stroke-width:28.346;stroke-linecap:butt;stroke-linejoin:miter;stroke-miterlimit:10;stroke-dasharray:none"
         id="path14535" /><path
         d="m 14.1719,14.1719 7369.9581,0"
         style="fill:none;stroke:#000000;stroke-opacity:1;stroke-width:28.346;stroke-linecap:butt;stroke-linejoin:miter;stroke-miterlimit:10;stroke-dasharray:none"
         id="path14537" /><path
         d="m 14.1719,1431.47 0,-1417.2981"
         style="fill:none;stroke:#000000;stroke-opacity:1;stroke-width:28.346;stroke-linecap:butt;stroke-linejoin:miter;stroke-miterlimit:10;stroke-dasharray:none"
         id="path14539" /><path
         d="m 5622.63,1431.47 404.94,0 c 60.75,-283.46 80.99,-425.19 80.99,-708.646 0,-283.461 -20.24,-425.191 -80.99,-708.6521 l -404.94,0 c -60.74,283.4611 -80.99,425.1911 -80.99,708.6521 0,283.456 20.25,425.186 80.99,708.646"
         style="fill:none;stroke:#000000;stroke-opacity:1;stroke-width:28.346;stroke-linecap:butt;stroke-linejoin:miter;stroke-miterlimit:10;stroke-dasharray:none"
         id="path14541" /><path
         d="m 6027.57,1431.47 c -60.74,-283.46 -80.98,-425.19 -80.98,-708.646 0,-283.461 20.24,-425.191 80.98,-708.6521"
         style="fill:none;stroke:#000000;stroke-opacity:1;stroke-width:28.346;stroke-linecap:butt;stroke-linejoin:miter;stroke-miterlimit:10;stroke-dasharray:none"
         id="path14543" /><path
         d="m 6009.35,864.555 1889.74,0 c 521.83,0 944.86,-69.801 944.86,-155.907 0,-86.101 -423.03,-155.902 -944.86,-155.902 l -1889.74,0 0,311.809"
         style="fill:#ffffff;fill-opacity:1;fill-rule:evenodd;stroke:none"
         id="path14545" /><path
         d="m 6009.35,864.555 1889.74,0 c 521.83,0 944.86,-69.801 944.86,-155.907 0,-86.101 -423.03,-155.902 -944.86,-155.902 l -1889.74,0 0,311.809"
         style="fill:none;stroke:#000000;stroke-opacity:1;stroke-width:28.346;stroke-linecap:butt;stroke-linejoin:miter;stroke-miterlimit:10;stroke-dasharray:none"
         id="path14547" /><path
         d="m 6392.02,1148.01 411.02,0"
         style="fill:none;stroke:#000000;stroke-opacity:1;stroke-width:28.346;stroke-linecap:butt;stroke-linejoin:miter;stroke-miterlimit:10;stroke-dasharray:none"
         id="path14549" /><path
         d="m 6803.04,1077.15 141.73,70.86 -141.73,70.87"
         style="fill:#000000;fill-opacity:1;fill-rule:evenodd;stroke:none"
         id="path14551" /><path
         d="m 6803.04,1077.15 141.73,70.86 -141.73,70.87 0,-141.73 z"
         style="fill:none;stroke:#000000;stroke-opacity:1;stroke-width:28.346;stroke-linecap:butt;stroke-linejoin:miter;stroke-miterlimit:10;stroke-dasharray:none"
         id="path14553" /><path
         d="m 244.824,1243.68 c 0,-25.44 -20.625,-46.06 -46.062,-46.06 -25.438,0 -46.063,20.62 -46.063,46.06 0,25.44 20.625,46.06 46.063,46.06 25.437,0 46.062,-20.62 46.062,-46.06"
         style="fill:#f8f830;fill-opacity:1;fill-rule:nonzero;stroke:none"
         id="path14555" /><path
         d="m 244.824,1243.68 c 0,-25.44 -20.625,-46.06 -46.062,-46.06 -25.438,0 -46.063,20.62 -46.063,46.06 0,25.44 20.625,46.06 46.063,46.06 25.437,0 46.062,-20.62 46.062,-46.06 z"
         style="fill:none;stroke:none"
         id="path14557" /><path
         d="m 244.824,1243.68 c 0,-25.44 -20.625,-46.06 -46.062,-46.06 -25.438,0 -46.063,20.62 -46.063,46.06 0,25.44 20.625,46.06 46.063,46.06 25.437,0 46.062,-20.62 46.062,-46.06 z"
         style="fill:none;stroke:none"
         id="path14559" /><path
         d="m 211.207,646.289 c 0,-39.137 -31.73,-70.863 -70.867,-70.863 -39.137,0 -70.8634,31.726 -70.8634,70.863 0,39.137 31.7264,70.863 70.8634,70.863 39.137,0 70.867,-31.726 70.867,-70.863"
         style="fill:#f8f830;fill-opacity:1;fill-rule:nonzero;stroke:none"
         id="path14561" /><path
         d="m 211.207,646.289 c 0,-39.137 -31.73,-70.863 -70.867,-70.863 -39.137,0 -70.8634,31.726 -70.8634,70.863 0,39.137 31.7264,70.863 70.8634,70.863 39.137,0 70.867,-31.726 70.867,-70.863 z"
         style="fill:none;stroke:none"
         id="path14563" /><path
         d="m 211.207,646.289 c 0,-39.137 -31.73,-70.863 -70.867,-70.863 -39.137,0 -70.8634,31.726 -70.8634,70.863 0,39.137 31.7264,70.863 70.8634,70.863 39.137,0 70.867,-31.726 70.867,-70.863 z"
         style="fill:none;stroke:none"
         id="path14565" /><path
         d="m 1613.62,799.355 c 0,-39.136 -31.73,-70.863 -70.86,-70.863 -39.14,0 -70.87,31.727 -70.87,70.863 0,39.137 31.73,70.868 70.87,70.868 39.13,0 70.86,-31.731 70.86,-70.868"
         style="fill:#f8f830;fill-opacity:1;fill-rule:nonzero;stroke:none"
         id="path14567" /><path
         d="m 1613.62,799.355 c 0,-39.136 -31.73,-70.863 -70.86,-70.863 -39.14,0 -70.87,31.727 -70.87,70.863 0,39.137 31.73,70.868 70.87,70.868 39.13,0 70.86,-31.731 70.86,-70.868 z"
         style="fill:none;stroke:none"
         id="path14569" /><path
         d="m 1613.62,799.355 c 0,-39.136 -31.73,-70.863 -70.86,-70.863 -39.14,0 -70.87,31.727 -70.87,70.863 0,39.137 31.73,70.868 70.87,70.868 39.13,0 70.86,-31.731 70.86,-70.868 z"
         style="fill:none;stroke:none"
         id="path14571" /><path
         d="m 769.621,874.473 c 0,-39.137 -31.726,-70.864 -70.863,-70.864 -39.137,0 -70.867,31.727 -70.867,70.864 0,39.136 31.73,70.867 70.867,70.867 39.137,0 70.863,-31.731 70.863,-70.867"
         style="fill:#f8f830;fill-opacity:1;fill-rule:nonzero;stroke:none"
         id="path14573" /><path
         d="m 769.621,874.473 c 0,-39.137 -31.726,-70.864 -70.863,-70.864 -39.137,0 -70.867,31.727 -70.867,70.864 0,39.136 31.73,70.867 70.867,70.867 39.137,0 70.863,-31.731 70.863,-70.867 z"
         style="fill:none;stroke:none"
         id="path14575" /><path
         d="m 769.621,874.473 c 0,-39.137 -31.726,-70.864 -70.863,-70.864 -39.137,0 -70.867,31.727 -70.867,70.864 0,39.136 31.73,70.867 70.867,70.867 39.137,0 70.863,-31.731 70.863,-70.867 z"
         style="fill:none;stroke:none"
         id="path14577" /><path
         d="m 357.898,276.375 c 0,-39.137 -31.73,-70.867 -70.867,-70.867 -39.136,0 -70.863,31.73 -70.863,70.867 0,39.137 31.727,70.863 70.863,70.863 39.137,0 70.867,-31.726 70.867,-70.863"
         style="fill:#f8f830;fill-opacity:1;fill-rule:nonzero;stroke:none"
         id="path14579" /><path
         d="m 357.898,276.375 c 0,-39.137 -31.73,-70.867 -70.867,-70.867 -39.136,0 -70.863,31.73 -70.863,70.867 0,39.137 31.727,70.863 70.863,70.863 39.137,0 70.867,-31.726 70.867,-70.863 z"
         style="fill:none;stroke:none"
         id="path14581" /><path
         d="m 357.898,276.375 c 0,-39.137 -31.73,-70.867 -70.867,-70.867 -39.136,0 -70.863,31.73 -70.863,70.867 0,39.137 31.727,70.863 70.863,70.863 39.137,0 70.867,-31.726 70.867,-70.863 z"
         style="fill:none;stroke:none"
         id="path14583" /><path
         d="m 442.227,953.844 c 0,-39.137 -31.731,-70.867 -70.868,-70.867 -39.136,0 -70.863,31.73 -70.863,70.867 0,39.136 31.727,70.866 70.863,70.866 39.137,0 70.868,-31.73 70.868,-70.866"
         style="fill:#f8f830;fill-opacity:1;fill-rule:nonzero;stroke:none"
         id="path14585" /><path
         d="m 442.227,953.844 c 0,-39.137 -31.731,-70.867 -70.868,-70.867 -39.136,0 -70.863,31.73 -70.863,70.867 0,39.136 31.727,70.866 70.863,70.866 39.137,0 70.868,-31.73 70.868,-70.866 z"
         style="fill:none;stroke:none"
         id="path14587" /><path
         d="m 442.227,953.844 c 0,-39.137 -31.731,-70.867 -70.868,-70.867 -39.136,0 -70.863,31.73 -70.863,70.867 0,39.136 31.727,70.866 70.863,70.866 39.137,0 70.868,-31.73 70.868,-70.866 z"
         style="fill:none;stroke:none"
         id="path14589" /><path
         d="m 434.43,547.078 c 0,-39.137 -31.727,-70.863 -70.864,-70.863 -39.136,0 -70.867,31.726 -70.867,70.863 0,39.137 31.731,70.863 70.867,70.863 39.137,0 70.864,-31.726 70.864,-70.863"
         style="fill:#f8f830;fill-opacity:1;fill-rule:nonzero;stroke:none"
         id="path14591" /><path
         d="m 434.43,547.078 c 0,-39.137 -31.727,-70.863 -70.864,-70.863 -39.136,0 -70.867,31.726 -70.867,70.863 0,39.137 31.731,70.863 70.867,70.863 39.137,0 70.864,-31.726 70.864,-70.863 z"
         style="fill:none;stroke:none"
         id="path14593" /><path
         d="m 434.43,547.078 c 0,-39.137 -31.727,-70.863 -70.864,-70.863 -39.136,0 -70.867,31.726 -70.867,70.863 0,39.137 31.731,70.863 70.867,70.863 39.137,0 70.864,-31.726 70.864,-70.863 z"
         style="fill:none;stroke:none"
         id="path14595" /><path
         d="m 617.973,1182.03 c 0,-39.14 -31.731,-70.87 -70.868,-70.87 -39.136,0 -70.863,31.73 -70.863,70.87 0,39.13 31.727,70.86 70.863,70.86 39.137,0 70.868,-31.73 70.868,-70.86"
         style="fill:#f8f830;fill-opacity:1;fill-rule:nonzero;stroke:none"
         id="path14597" /><path
         d="m 617.973,1182.03 c 0,-39.14 -31.731,-70.87 -70.868,-70.87 -39.136,0 -70.863,31.73 -70.863,70.87 0,39.13 31.727,70.86 70.863,70.86 39.137,0 70.868,-31.73 70.868,-70.86 z"
         style="fill:none;stroke:none"
         id="path14599" /><path
         d="m 617.973,1182.03 c 0,-39.14 -31.731,-70.87 -70.868,-70.87 -39.136,0 -70.863,31.73 -70.863,70.87 0,39.13 31.727,70.86 70.863,70.86 39.137,0 70.868,-31.73 70.868,-70.86 z"
         style="fill:none;stroke:none"
         id="path14601" /><path
         d="m 588.918,378.418 c 0,-39.137 -31.73,-70.863 -70.867,-70.863 -39.137,0 -70.863,31.726 -70.863,70.863 0,39.137 31.726,70.867 70.863,70.867 39.137,0 70.867,-31.73 70.867,-70.867"
         style="fill:#f8f830;fill-opacity:1;fill-rule:nonzero;stroke:none"
         id="path14603" /><path
         d="m 588.918,378.418 c 0,-39.137 -31.73,-70.863 -70.867,-70.863 -39.137,0 -70.863,31.726 -70.863,70.863 0,39.137 31.726,70.867 70.863,70.867 39.137,0 70.867,-31.73 70.867,-70.867 z"
         style="fill:none;stroke:none"
         id="path14605" /><path
         d="m 588.918,378.418 c 0,-39.137 -31.73,-70.863 -70.867,-70.863 -39.137,0 -70.863,31.726 -70.863,70.863 0,39.137 31.726,70.867 70.863,70.867 39.137,0 70.867,-31.73 70.867,-70.867 z"
         style="fill:none;stroke:none"
         id="path14607" /><path
         d="m 699.902,1328.24 c 0,-25.44 -20.625,-46.06 -46.062,-46.06 -25.438,0 -46.063,20.62 -46.063,46.06 0,25.44 20.625,46.06 46.063,46.06 25.437,0 46.062,-20.62 46.062,-46.06"
         style="fill:#f8f830;fill-opacity:1;fill-rule:nonzero;stroke:none"
         id="path14609" /><path
         d="m 699.902,1328.24 c 0,-25.44 -20.625,-46.06 -46.062,-46.06 -25.438,0 -46.063,20.62 -46.063,46.06 0,25.44 20.625,46.06 46.063,46.06 25.437,0 46.062,-20.62 46.062,-46.06 z"
         style="fill:none;stroke:none"
         id="path14611" /><path
         d="m 699.902,1328.24 c 0,-25.44 -20.625,-46.06 -46.062,-46.06 -25.438,0 -46.063,20.62 -46.063,46.06 0,25.44 20.625,46.06 46.063,46.06 25.437,0 46.062,-20.62 46.062,-46.06 z"
         style="fill:none;stroke:none"
         id="path14613" /><path
         d="m 1436,905.32 c 0,-25.437 -20.62,-46.062 -46.06,-46.062 -25.44,0 -46.06,20.625 -46.06,46.062 0,25.438 20.62,46.063 46.06,46.063 25.44,0 46.06,-20.625 46.06,-46.063"
         style="fill:#f8f830;fill-opacity:1;fill-rule:nonzero;stroke:none"
         id="path14615" /><path
         d="m 1436,905.32 c 0,-25.437 -20.62,-46.062 -46.06,-46.062 -25.44,0 -46.06,20.625 -46.06,46.062 0,25.438 20.62,46.063 46.06,46.063 25.44,0 46.06,-20.625 46.06,-46.063 z"
         style="fill:none;stroke:none"
         id="path14617" /><path
         d="m 1436,905.32 c 0,-25.437 -20.62,-46.062 -46.06,-46.062 -25.44,0 -46.06,20.625 -46.06,46.062 0,25.438 20.62,46.063 46.06,46.063 25.44,0 46.06,-20.625 46.06,-46.063 z"
         style="fill:none;stroke:none"
         id="path14619" /><path
         d="m 2182.13,432.289 c 0,-25.437 -20.63,-46.062 -46.06,-46.062 -25.44,0 -46.07,20.625 -46.07,46.062 0,25.438 20.63,46.063 46.07,46.063 25.43,0 46.06,-20.625 46.06,-46.063"
         style="fill:#f8f830;fill-opacity:1;fill-rule:nonzero;stroke:none"
         id="path14621" /><path
         d="m 2182.13,432.289 c 0,-25.437 -20.63,-46.062 -46.06,-46.062 -25.44,0 -46.07,20.625 -46.07,46.062 0,25.438 20.63,46.063 46.07,46.063 25.43,0 46.06,-20.625 46.06,-46.063 z"
         style="fill:none;stroke:none"
         id="path14623" /><path
         d="m 2182.13,432.289 c 0,-25.437 -20.63,-46.062 -46.06,-46.062 -25.44,0 -46.07,20.625 -46.07,46.062 0,25.438 20.63,46.063 46.07,46.063 25.43,0 46.06,-20.625 46.06,-46.063 z"
         style="fill:none;stroke:none"
         id="path14625" /><path
         d="m 3324.12,1242.05 c 0,-25.44 -20.63,-46.06 -46.07,-46.06 -25.43,0 -46.06,20.62 -46.06,46.06 0,25.44 20.63,46.06 46.06,46.06 25.44,0 46.07,-20.62 46.07,-46.06"
         style="fill:#f8f830;fill-opacity:1;fill-rule:nonzero;stroke:none"
         id="path14627" /><path
         d="m 3324.12,1242.05 c 0,-25.44 -20.63,-46.06 -46.07,-46.06 -25.43,0 -46.06,20.62 -46.06,46.06 0,25.44 20.63,46.06 46.06,46.06 25.44,0 46.07,-20.62 46.07,-46.06 z"
         style="fill:none;stroke:none"
         id="path14629" /><path
         d="m 3324.12,1242.05 c 0,-25.44 -20.63,-46.06 -46.07,-46.06 -25.43,0 -46.06,20.62 -46.06,46.06 0,25.44 20.63,46.06 46.06,46.06 25.44,0 46.07,-20.62 46.07,-46.06 z"
         style="fill:none;stroke:none"
         id="path14631" /><path
         d="m 522.516,683.836 c 0,-25.438 -20.625,-46.063 -46.063,-46.063 -25.437,0 -46.062,20.625 -46.062,46.063 0,25.437 20.625,46.062 46.062,46.062 25.438,0 46.063,-20.625 46.063,-46.062"
         style="fill:#f8f830;fill-opacity:1;fill-rule:nonzero;stroke:none"
         id="path14633" /><path
         d="m 522.516,683.836 c 0,-25.438 -20.625,-46.063 -46.063,-46.063 -25.437,0 -46.062,20.625 -46.062,46.063 0,25.437 20.625,46.062 46.062,46.062 25.438,0 46.063,-20.625 46.063,-46.062 z"
         style="fill:none;stroke:none"
         id="path14635" /><path
         d="m 522.516,683.836 c 0,-25.438 -20.625,-46.063 -46.063,-46.063 -25.437,0 -46.062,20.625 -46.062,46.063 0,25.437 20.625,46.062 46.062,46.062 25.438,0 46.063,-20.625 46.063,-46.062 z"
         style="fill:none;stroke:none"
         id="path14637" /><path
         d="m 527.023,130.633 c 0,-25.438 -20.625,-46.0627 -46.062,-46.0627 -25.438,0 -46.063,20.6247 -46.063,46.0627 0,25.437 20.625,46.062 46.063,46.062 25.437,0 46.062,-20.625 46.062,-46.062"
         style="fill:#f8f830;fill-opacity:1;fill-rule:nonzero;stroke:none"
         id="path14639" /><path
         d="m 527.023,130.633 c 0,-25.438 -20.625,-46.0627 -46.062,-46.0627 -25.438,0 -46.063,20.6247 -46.063,46.0627 0,25.437 20.625,46.062 46.063,46.062 25.437,0 46.062,-20.625 46.062,-46.062 z"
         style="fill:none;stroke:none"
         id="path14641" /><path
         d="m 527.023,130.633 c 0,-25.438 -20.625,-46.0627 -46.062,-46.0627 -25.438,0 -46.063,20.6247 -46.063,46.0627 0,25.437 20.625,46.062 46.063,46.062 25.437,0 46.062,-20.625 46.062,-46.062 z"
         style="fill:none;stroke:none"
         id="path14643" /><path
         d="m 406.262,1291.16 c 0,-25.44 -20.625,-46.06 -46.063,-46.06 -25.437,0 -46.062,20.62 -46.062,46.06 0,25.44 20.625,46.06 46.062,46.06 25.438,0 46.063,-20.62 46.063,-46.06"
         style="fill:#f8f830;fill-opacity:1;fill-rule:nonzero;stroke:none"
         id="path14645" /><path
         d="m 406.262,1291.16 c 0,-25.44 -20.625,-46.06 -46.063,-46.06 -25.437,0 -46.062,20.62 -46.062,46.06 0,25.44 20.625,46.06 46.062,46.06 25.438,0 46.063,-20.62 46.063,-46.06 z"
         style="fill:none;stroke:none"
         id="path14647" /><path
         d="m 406.262,1291.16 c 0,-25.44 -20.625,-46.06 -46.063,-46.06 -25.437,0 -46.062,20.62 -46.062,46.06 0,25.44 20.625,46.06 46.062,46.06 25.438,0 46.063,-20.62 46.063,-46.06 z"
         style="fill:none;stroke:none"
         id="path14649" /><path
         d="m 806.633,281.961 c 0,-25.438 -20.625,-46.063 -46.063,-46.063 -25.437,0 -46.062,20.625 -46.062,46.063 0,25.437 20.625,46.062 46.062,46.062 25.438,0 46.063,-20.625 46.063,-46.062"
         style="fill:#f8f830;fill-opacity:1;fill-rule:nonzero;stroke:none"
         id="path14651" /><path
         d="m 806.633,281.961 c 0,-25.438 -20.625,-46.063 -46.063,-46.063 -25.437,0 -46.062,20.625 -46.062,46.063 0,25.437 20.625,46.062 46.062,46.062 25.438,0 46.063,-20.625 46.063,-46.062 z"
         style="fill:none;stroke:none"
         id="path14653" /><path
         d="m 806.633,281.961 c 0,-25.438 -20.625,-46.063 -46.063,-46.063 -25.437,0 -46.062,20.625 -46.062,46.063 0,25.437 20.625,46.062 46.062,46.062 25.438,0 46.063,-20.625 46.063,-46.062 z"
         style="fill:none;stroke:none"
         id="path14655" /><path
         d="m 1202,1206.98 c 0,-25.44 -20.63,-46.07 -46.07,-46.07 -25.43,0 -46.06,20.63 -46.06,46.07 0,25.43 20.63,46.06 46.06,46.06 25.44,0 46.07,-20.63 46.07,-46.06"
         style="fill:#f8f830;fill-opacity:1;fill-rule:nonzero;stroke:none"
         id="path14657" /><path
         d="m 1202,1206.98 c 0,-25.44 -20.63,-46.07 -46.07,-46.07 -25.43,0 -46.06,20.63 -46.06,46.07 0,25.43 20.63,46.06 46.06,46.06 25.44,0 46.07,-20.63 46.07,-46.06 z"
         style="fill:none;stroke:none"
         id="path14659" /><path
         d="m 1202,1206.98 c 0,-25.44 -20.63,-46.07 -46.07,-46.07 -25.43,0 -46.06,20.63 -46.06,46.07 0,25.43 20.63,46.06 46.06,46.06 25.44,0 46.07,-20.63 46.07,-46.06 z"
         style="fill:none;stroke:none"
         id="path14661" /><path
         d="m 1000.05,1163.13 c 0,-39.13 -31.726,-70.86 -70.862,-70.86 -39.137,0 -70.864,31.73 -70.864,70.86 0,39.14 31.727,70.87 70.864,70.87 39.136,0 70.862,-31.73 70.862,-70.87"
         style="fill:#f8f830;fill-opacity:1;fill-rule:nonzero;stroke:none"
         id="path14663" /><path
         d="m 1000.05,1163.13 c 0,-39.13 -31.726,-70.86 -70.862,-70.86 -39.137,0 -70.864,31.73 -70.864,70.86 0,39.14 31.727,70.87 70.864,70.87 39.136,0 70.862,-31.73 70.862,-70.87 z"
         style="fill:none;stroke:none"
         id="path14665" /><path
         d="m 1000.05,1163.13 c 0,-39.13 -31.726,-70.86 -70.862,-70.86 -39.137,0 -70.864,31.73 -70.864,70.86 0,39.14 31.727,70.87 70.864,70.87 39.136,0 70.862,-31.73 70.862,-70.87 z"
         style="fill:none;stroke:none"
         id="path14667" /><path
         d="m 1475.59,464.609 c 0,-39.136 -31.73,-70.863 -70.87,-70.863 -39.13,0 -70.86,31.727 -70.86,70.863 0,39.137 31.73,70.868 70.86,70.868 39.14,0 70.87,-31.731 70.87,-70.868"
         style="fill:#f8f830;fill-opacity:1;fill-rule:nonzero;stroke:none"
         id="path14669" /><path
         d="m 1475.59,464.609 c 0,-39.136 -31.73,-70.863 -70.87,-70.863 -39.13,0 -70.86,31.727 -70.86,70.863 0,39.137 31.73,70.868 70.86,70.868 39.14,0 70.87,-31.731 70.87,-70.868 z"
         style="fill:none;stroke:none"
         id="path14671" /><path
         d="m 1475.59,464.609 c 0,-39.136 -31.73,-70.863 -70.87,-70.863 -39.13,0 -70.86,31.727 -70.86,70.863 0,39.137 31.73,70.868 70.86,70.868 39.14,0 70.87,-31.731 70.87,-70.868 z"
         style="fill:none;stroke:none"
         id="path14673" /><path
         d="m 768.547,512.715 c 0,-39.137 -31.727,-70.863 -70.863,-70.863 -39.137,0 -70.868,31.726 -70.868,70.863 0,39.137 31.731,70.867 70.868,70.867 39.136,0 70.863,-31.73 70.863,-70.867"
         style="fill:#f8f830;fill-opacity:1;fill-rule:nonzero;stroke:none"
         id="path14675" /><path
         d="m 768.547,512.715 c 0,-39.137 -31.727,-70.863 -70.863,-70.863 -39.137,0 -70.868,31.726 -70.868,70.863 0,39.137 31.731,70.867 70.868,70.867 39.136,0 70.863,-31.73 70.863,-70.867 z"
         style="fill:none;stroke:none"
         id="path14677" /><path
         d="m 768.547,512.715 c 0,-39.137 -31.727,-70.863 -70.863,-70.863 -39.137,0 -70.868,31.726 -70.868,70.863 0,39.137 31.731,70.867 70.868,70.867 39.136,0 70.863,-31.73 70.863,-70.867 z"
         style="fill:none;stroke:none"
         id="path14679" /><path
         d="m 1955.63,976.727 c 0,-39.137 -31.72,-70.868 -70.86,-70.868 -39.14,0 -70.87,31.731 -70.87,70.868 0,39.133 31.73,70.863 70.87,70.863 39.14,0 70.86,-31.73 70.86,-70.863"
         style="fill:#f8f830;fill-opacity:1;fill-rule:nonzero;stroke:none"
         id="path14681" /><path
         d="m 1955.63,976.727 c 0,-39.137 -31.72,-70.868 -70.86,-70.868 -39.14,0 -70.87,31.731 -70.87,70.868 0,39.133 31.73,70.863 70.87,70.863 39.14,0 70.86,-31.73 70.86,-70.863 z"
         style="fill:none;stroke:none"
         id="path14683" /><path
         d="m 1955.63,976.727 c 0,-39.137 -31.72,-70.868 -70.86,-70.868 -39.14,0 -70.87,31.731 -70.87,70.868 0,39.133 31.73,70.863 70.87,70.863 39.14,0 70.86,-31.73 70.86,-70.863 z"
         style="fill:none;stroke:none"
         id="path14685" /><path
         d="m 1083.23,659.035 c 0,-39.137 -31.73,-70.867 -70.86,-70.867 -39.14,0 -70.866,31.73 -70.866,70.867 0,39.137 31.726,70.863 70.866,70.863 39.13,0 70.86,-31.726 70.86,-70.863"
         style="fill:#f8f830;fill-opacity:1;fill-rule:nonzero;stroke:none"
         id="path14687" /><path
         d="m 1083.23,659.035 c 0,-39.137 -31.73,-70.867 -70.86,-70.867 -39.14,0 -70.866,31.73 -70.866,70.867 0,39.137 31.726,70.863 70.866,70.863 39.13,0 70.86,-31.726 70.86,-70.863 z"
         style="fill:none;stroke:none"
         id="path14689" /><path
         d="m 1083.23,659.035 c 0,-39.137 -31.73,-70.867 -70.86,-70.867 -39.14,0 -70.866,31.73 -70.866,70.867 0,39.137 31.726,70.863 70.866,70.863 39.13,0 70.86,-31.726 70.86,-70.863 z"
         style="fill:none;stroke:none"
         id="path14691" /><path
         d="m 2848.77,1431.47 0,-1417.2981"
         style="fill:none;stroke:#0000ff;stroke-opacity:1;stroke-width:28.346;stroke-linecap:butt;stroke-linejoin:miter;stroke-miterlimit:10;stroke-dasharray:56.692;stroke-dashoffset:0"
         id="path14693" /><path
         d="m 1148.01,1431.47 0,-1417.2981"
         style="fill:none;stroke:#ff0000;stroke-opacity:1;stroke-width:28.346;stroke-linecap:butt;stroke-linejoin:miter;stroke-miterlimit:10;stroke-dasharray:56.692;stroke-dashoffset:0"
         id="path14695" /><path
         d="m 2281.85,1431.47 0,-1417.2981"
         style="fill:none;stroke:#ff0000;stroke-opacity:1;stroke-width:28.346;stroke-linecap:butt;stroke-linejoin:miter;stroke-miterlimit:10;stroke-dasharray:56.692;stroke-dashoffset:0"
         id="path14697" /><path
         d="m 3415.7,1431.47 0,-1417.2981"
         style="fill:none;stroke:#ff0000;stroke-opacity:1;stroke-width:28.346;stroke-linecap:butt;stroke-linejoin:miter;stroke-miterlimit:10;stroke-dasharray:56.692;stroke-dashoffset:0"
         id="path14699" /><path
         d="m 4492.84,1431.47 0,-1417.2981"
         style="fill:none;stroke:#ff0000;stroke-opacity:1;stroke-width:28.346;stroke-linecap:butt;stroke-linejoin:miter;stroke-miterlimit:10;stroke-dasharray:56.692;stroke-dashoffset:0"
         id="path14701" /></g></g></svg>