<?xml version="1.0" encoding="UTF-8" standalone="no"?>
<!-- Created with Inkscape (http://www.inkscape.org/) -->

<svg
   xmlns:dc="http://purl.org/dc/elements/1.1/"
   xmlns:cc="http://creativecommons.org/ns#"
   xmlns:rdf="http://www.w3.org/1999/02/22-rdf-syntax-ns#"
   xmlns:svg="http://www.w3.org/2000/svg"
   xmlns="http://www.w3.org/2000/svg"
   xmlns:sodipodi="http://sodipodi.sourceforge.net/DTD/sodipodi-0.dtd"
   xmlns:inkscape="http://www.inkscape.org/namespaces/inkscape"
   id="svg3378"
   version="1.1"
   inkscape:version="0.48.2 r9819"
   width="720"
   height="540"
   xml:space="preserve"
   sodipodi:docname="Fig01.eps"><sodipodi:namedview
     pagecolor="#ffffff"
     bordercolor="#666666"
     borderopacity="1"
     objecttolerance="10"
     gridtolerance="10"
     guidetolerance="10"
     inkscape:pageopacity="0"
     inkscape:pageshadow="2"
     inkscape:window-width="1438"
     inkscape:window-height="868"
     id="namedview3380"
     showgrid="false"
     inkscape:zoom="1.2409339"
     inkscape:cx="360"
     inkscape:cy="270"
     inkscape:window-x="0"
     inkscape:window-y="30"
     inkscape:window-maximized="0"
     inkscape:current-layer="g3386" /><metadata
     id="metadata3384"><rdf:RDF><cc:Work
         rdf:about=""><dc:format>image/svg+xml</dc:format><dc:type
           rdf:resource="http://purl.org/dc/dcmitype/StillImage" /><dc:title></dc:title></cc:Work></rdf:RDF></metadata><defs
     id="defs3382"><clipPath
       clipPathUnits="userSpaceOnUse"
       id="clipPath3402"><path
         d="m 720,432 4464,0 0,3456 -4464,0 0,-3456 z"
         id="path3404" /></clipPath></defs><g
     id="g3386"
     inkscape:groupmode="layer"
     inkscape:label="ink_ext_XXXXXX"
     transform="matrix(1.25,0,0,-1.25,0,540)"><g
       id="g3388"
       transform="scale(0.1,0.1)"><path
         d="m 0,0 5760,0 0,4320 L 0,4320 0,0 z"
         style="fill:#ffffff;fill-opacity:1;fill-rule:nonzero;stroke:none"
         id="path3390" /><path
         d="m 0,0 5760,0 0,4320 L 0,4320 0,0 z"
         style="fill:none;stroke:#ffffff;stroke-opacity:1;stroke-width:10;stroke-linecap:square;stroke-linejoin:miter;stroke-miterlimit:10;stroke-dasharray:none"
         id="path3392" /><path
         d="m 720,432 4464,0 0,3456 -4464,0 0,-3456 z"
         style="fill:#ffffff;fill-opacity:1;fill-rule:nonzero;stroke:none"
         id="path3394" /><path
         d="m 720,432 4464,0 0,3456 -4464,0 0,-3456 z"
         style="fill:none;stroke:#000000;stroke-opacity:1;stroke-width:10;stroke-linecap:square;stroke-linejoin:miter;stroke-miterlimit:10;stroke-dasharray:none"
         id="path3396" /><g
         id="g3398"><g
           id="g3400"
           clip-path="url(#clipPath3402)"><path
             d="m 749.891,908.664 29.89,263.756 29.891,152.11 29.89,106.99 29.891,82.32 29.895,66.94 29.89,56.18 29.891,48.32 29.891,42.57 29.89,37.69 29.89,34.05 29.89,30.86 29.89,28.25 29.89,25.97 29.89,24.14 29.9,22.4 29.89,20.95 29.89,19.59 29.89,18.5 29.89,17.46 29.89,16.52 29.89,15.62 29.89,14.89 29.89,14.19 29.89,13.53 29.89,12.92 29.9,12.36 29.89,11.85 29.89,11.4 29.89,10.95 29.89,10.52 29.89,10.16 29.89,9.93 29.89,9.31 29.89,9.1 29.89,8.87 29.89,8.35 29.9,8.48 29.89,7.98 29.89,7.51 29.89,7.66 29.89,7.21 29.89,7.07 29.89,6.95 29.89,6.81 29.89,6.42 29.89,6.31 29.9,6.21 29.89,6.11 29.89,6 29.89,5.66 29.89,5.58 29.89,5.49 29.89,5.17 29.89,5.34 29.89,5.02 29.89,4.97 29.89,4.89 29.9,4.61 29.89,4.77 29.89,4.49 29.89,4.44 29.89,4.38 29.89,4.12 29.89,4.29 29.89,4.03 29.89,3.99 29.89,3.94 29.9,3.91 29.89,3.66 29.89,3.82 29.89,3.59 29.89,3.56 29.89,3.52 29.89,3.29 29.89,3.46 29.89,3.24 29.89,3.21 29.89,3.18 29.9,3.16 29.89,3.13 29.89,2.92 29.89,3.08 29.89,2.87 29.89,2.86 29.89,2.83 29.89,2.81 29.89,2.61 29.89,2.77 29.89,2.58 29.9,2.57 29.89,2.54 29.89,2.53 29.89,2.51 29.89,2.32 29.89,2.48 29.89,2.3 29.89,2.28 29.89,2.27 29.89,2.26 29.9,2.24 29.89,2.23 29.89,2.06 29.89,2.21 29.89,2.03 29.89,2.03 29.89,2.01 29.89,2 29.89,1.99 29.89,1.99 29.89,1.82 29.9,1.96 29.89,1.8 29.89,1.79 29.89,1.79 29.89,1.77 29.89,1.77 29.89,1.76 29.89,1.75 29.89,1.6 29.89,1.74 29.9,1.58 29.89,1.58 29.89,1.71 29.89,1.57 29.89,1.55 29.89,1.41 29.89,1.55 29.89,1.54 29.89,1.39 29.89,1.53 29.89,1.38 29.9,1.51 29.89,1.38 29.89,1.36 29.89,1.37 29.89,1.35 29.89,1.22 29.89,1.35 29.89,1.34 29.89,1.21 29.89,1.33 29.89,1.2"
             style="fill:none;stroke:#000000;stroke-opacity:1;stroke-width:10;stroke-linecap:butt;stroke-linejoin:miter;stroke-miterlimit:10;stroke-dasharray:60,60;stroke-dashoffset:0"
             id="path3406" /><path
             d="m 749.891,867.746 29.89,257.854 29.891,149.89 29.89,105.74 29.891,81.39 29.895,66.24 29.89,55.59 29.891,47.79 29.891,41.98 29.89,37.25 29.89,33.55 29.89,30.48 29.89,27.7 29.89,25.62 29.89,23.63 29.9,22 29.89,20.55 29.89,19.27 29.89,18.05 29.89,17.02 29.89,16.09 29.89,15.26 29.89,14.48 29.89,13.77 29.89,13.07 29.89,12.53 29.9,11.97 29.89,11.45 29.89,11.02 29.89,10.51 29.89,10.14 29.89,9.7 29.89,9.41 29.89,9.01 29.89,8.71 29.89,8.4 29.89,8.1 29.9,7.85 29.89,7.57 29.89,7.21 29.89,7.32 29.89,6.82 29.89,6.71 29.89,6.58 29.89,6.14 29.89,6.04 29.89,5.94 29.9,5.84 29.89,5.44 29.89,5.68 29.89,5.28 29.89,5.21 29.89,4.84 29.89,5.07 29.89,4.72 29.89,4.65 29.89,4.6 29.89,4.26 29.9,4.21 29.89,4.44 29.89,4.11 29.89,3.8 29.89,4.04 29.89,3.72 29.89,3.68 29.89,3.66 29.89,3.61 29.89,3.58 29.9,3.3 29.89,3.26 29.89,3.24 29.89,3.21 29.89,3.18 29.89,2.92 29.89,3.13 29.89,2.87 29.89,2.84 29.89,2.83 29.89,2.57 29.9,2.79 29.89,2.53 29.89,2.52 29.89,2.5 29.89,2.48 29.89,2.47 29.89,2.23 29.89,2.44 29.89,2.2 29.89,2.19 29.89,2.17 29.9,2.17 29.89,2.15 29.89,1.93 29.89,1.91 29.89,2.12 29.89,1.9 29.89,1.88 29.89,1.88 29.89,1.66 29.89,1.86 29.9,1.64 29.89,1.84 29.89,1.63 29.89,1.63 29.89,1.61 29.89,1.41 29.89,1.6 29.89,1.6 29.89,1.39 29.89,1.39 29.89,1.57 29.9,1.38 29.89,1.37 29.89,1.36 29.89,1.17 29.89,1.35 29.89,1.16 29.89,1.35 29.89,1.15 29.89,1.15 29.89,1.33 29.9,1.14 29.89,0.95 29.89,1.13 29.89,1.13 29.89,0.94 29.89,1.12 29.89,0.93 29.89,1.12 29.89,0.93 29.89,0.93 29.89,0.92 29.9,0.92 29.89,0.92 29.89,0.92 29.89,0.73 29.89,0.91 29.89,0.73 29.89,0.91 29.89,0.73 29.89,0.72 29.89,0.73 29.89,0.72"
             style="fill:none;stroke:#ff0000;stroke-opacity:1;stroke-width:10;stroke-linecap:butt;stroke-linejoin:miter;stroke-miterlimit:10;stroke-dasharray:60,60;stroke-dashoffset:0"
             id="path3408" /><path
             d="m 720,3888 29.891,-3.96 29.89,-3.93 29.891,-3.96 29.89,-3.98 29.891,-3.93 29.895,-3.94 29.89,-3.97 29.891,-3.94 29.891,-3.94 29.89,-3.98 29.89,-3.94 29.89,-3.94 29.89,-3.98 29.89,-3.94 29.89,-3.93 29.9,-3.98 29.89,-3.93 29.89,-3.97 29.89,-3.97 29.89,-3.91 29.89,-3.96 29.89,-3.95 29.89,-3.95 29.89,-3.99 29.89,-3.93 29.89,-3.93 29.9,-3.97 29.89,-3.96 29.89,-3.95 29.89,-3.94 29.89,-3.93 29.89,-3.98 29.89,-3.96 29.89,-3.95 29.89,-3.94 29.89,-3.98 29.89,-3.92 29.9,-3.95 29.89,-3.94 29.89,-3.98 29.89,-3.97 29.89,-3.95 29.89,-3.93 29.89,-3.98 29.89,-3.95 29.89,-3.94 29.89,-3.92 29.9,-3.96 29.89,-3.94 29.89,-3.98 29.89,-3.96 29.89,-3.94 29.89,-3.98 29.89,-3.89 29.89,-3.99 29.89,-3.98 29.89,-3.94 29.89,-3.92 29.9,-3.96 29.89,-3.93 29.89,-3.98 29.89,-3.94 29.89,-3.99 29.89,-3.95 29.89,-3.93 29.89,-3.96 29.89,-3.93 29.89,-3.97 29.9,-3.94 29.89,-3.98 29.89,-3.94 29.89,-3.91 29.89,-3.94 29.89,-3.99 29.89,-3.95 29.89,-3.99 29.89,-3.94 29.89,-3.91 29.89,-3.94 29.9,-3.99 29.89,-3.94 29.89,-3.99 29.89,-3.93 29.89,-3.89 29.89,-4.02 29.89,-3.88 29.89,-4.01 29.89,-3.96 29.89,-3.91 29.89,-3.95 29.9,-3.99 29.89,-3.93 29.89,-3.98 29.89,-3.91 29.89,-3.96 29.89,-4 29.89,-3.94 29.89,-3.88 29.89,-4.02 29.89,-3.96 29.9,-3.9 29.89,-3.93 29.89,-3.98 29.89,-3.9 29.89,-4.06 29.89,-3.88 29.89,-3.91 29.89,-3.96 29.89,-4 29.89,-3.92 29.89,-3.97 29.9,-4 29.89,-3.93 29.89,-3.97 29.89,-3.88 29.89,-3.93 29.89,-3.96 29.89,-4.01 29.89,-3.92 29.89,-3.97 29.89,-4 29.9,-3.91 29.89,-3.96 29.89,-3.99 29.89,-3.9 29.89,-3.94 29.89,-3.98 29.89,-3.88 29.89,-4.07 29.89,-3.81 29.89,-4.01 29.89,-3.89 29.9,-4.09 29.89,-3.83 29.89,-4.02 29.89,-3.91 29.89,-3.95 29.89,-3.99 29.89,-3.87 29.89,-4.08 29.89,-3.95 29.89,-3.83 29.89,-4.04"
             style="fill:none;stroke:#000000;stroke-opacity:1;stroke-width:10;stroke-linecap:square;stroke-linejoin:miter;stroke-miterlimit:10;stroke-dasharray:none"
             id="path3410" /><path
             d="m 749.891,1480.25 29.89,257.44 29.891,149.32 29.89,105.12 29.891,80.98 29.895,65.62 29.89,54.98 29.891,47.31 29.891,41.46 29.89,36.85 29.89,32.87 29.89,30.02 29.89,27.21 29.89,25.02 29.89,23.1 29.9,21.45 29.89,19.99 29.89,18.68 29.89,17.52 29.89,16.48 29.89,15.53 29.89,14.66 29.89,13.89 29.89,13.15 29.89,12.61 29.89,11.98 29.9,11.4 29.89,10.87 29.89,10.37 29.89,9.99 29.89,9.55 29.89,9.14 29.89,8.82 29.89,8.46 29.89,8.09 29.89,7.85 29.89,7.52 29.9,7.29 29.89,7 29.89,6.72 29.89,6.52 29.89,6.34 29.89,6.09 29.89,5.85 29.89,5.69 29.89,5.53 29.89,5.32 29.9,5.17 29.89,5.04 29.89,4.83 29.89,4.65 29.89,4.59 29.89,4.41 29.89,4.29 29.89,4.18 29.89,4.02 29.89,3.91 29.89,3.81 29.9,3.71 29.89,3.56 29.89,3.46 29.89,3.38 29.89,3.29 29.89,3.2 29.89,3.12 29.89,2.98 29.89,2.96 29.89,2.83 29.9,2.8 29.89,2.68 29.89,2.6 29.89,2.53 29.89,2.51 29.89,2.39 29.89,2.32 29.89,2.26 29.89,2.24 29.89,2.13 29.89,2.06 29.9,2.05 29.89,1.94 29.89,1.93 29.89,1.86 29.89,1.76 29.89,1.75 29.89,1.74 29.89,1.64 29.89,1.58 29.89,1.57 29.89,1.52 29.9,1.46 29.89,1.41 29.89,1.35 29.89,1.35 29.89,1.3 29.89,1.24 29.89,1.2 29.89,1.18 29.89,1.14 29.89,1.09 29.9,1.08 29.89,0.99 29.89,1.03 29.89,0.94 29.89,0.93 29.89,0.88 29.89,0.84 29.89,0.83 29.89,0.84 29.89,0.73 29.89,0.74 29.9,0.69 29.89,0.69 29.89,0.64 29.89,0.64 29.89,0.59 29.89,0.55 29.89,0.54 29.89,0.55 29.89,0.45 29.89,0.5 29.9,0.41 29.89,0.45 29.89,0.36 29.89,0.41 29.89,0.31 29.89,0.32 29.89,0.31 29.89,0.27 29.89,0.27 29.89,0.23 29.89,0.22 29.9,0.22 29.89,0.18 29.89,0.14 29.89,0.13 29.89,0.14 29.89,0.09 29.89,0.09 29.89,0.04 29.89,0.05 29.89,0.04 29.89,0"
             style="fill:none;stroke:#ff0000;stroke-opacity:1;stroke-width:10;stroke-linecap:square;stroke-linejoin:miter;stroke-miterlimit:10;stroke-dasharray:none"
             id="path3412" /><path
             d="m 749.891,662.633 29.89,286.722 29.891,159.195 29.89,110.28 29.891,84.23 29.895,67.86 29.89,57.19 29.891,48.68 29.891,42.88 29.89,37.92 29.89,34.09 29.89,30.94 29.89,28.15 29.89,26.04 29.89,23.97 29.9,22.29 29.89,20.81 29.89,19.5 29.89,18.24 29.89,17.28 29.89,16.34 29.89,15.39 29.89,14.69 29.89,13.97 29.89,13.31 29.89,12.7 29.9,12.13 29.89,11.6 29.89,11.11 29.89,10.66 29.89,10.29 29.89,9.89 29.89,9.51 29.89,9.14 29.89,8.87 29.89,8.55 29.89,8.24 29.9,7.94 29.89,7.73 29.89,7.46 29.89,7.26 29.89,7.02 29.89,6.79 29.89,6.61 29.89,6.4 29.89,6.2 29.89,6.09 29.9,5.86 29.89,5.71 29.89,5.59 29.89,5.41 29.89,5.29 29.89,5.13 29.89,5.02 29.89,4.9 29.89,4.76 29.89,4.61 29.89,4.56 29.9,4.42 29.89,4.33 29.89,4.2 29.89,4.11 29.89,4.03 29.89,3.95 29.89,3.83 29.89,3.75 29.89,3.68 29.89,3.57 29.9,3.35 29.89,3.68 29.89,3.29 29.89,3.26 29.89,3.23 29.89,3.2 29.89,3.18 29.89,2.8 29.89,3.12 29.89,2.76 29.89,3.07 29.9,2.72 29.89,2.69 29.89,2.68 29.89,2.66 29.89,2.63 29.89,2.3 29.89,2.6 29.89,2.26 29.89,2.57 29.89,2.24 29.89,2.22 29.9,2.21 29.89,2.19 29.89,2.19 29.89,2.16 29.89,2.16 29.89,1.84 29.89,2.14 29.89,1.82 29.89,2.11 29.89,1.8 29.9,1.79 29.89,2.08 29.89,1.78 29.89,1.76 29.89,1.47 29.89,1.75 29.89,1.74 29.89,1.74 29.89,1.43 29.89,1.72 29.89,1.43 29.9,1.42 29.89,1.7 29.89,1.41 29.89,1.41 29.89,1.4 29.89,1.39 29.89,1.39 29.89,1.39 29.89,1.1 29.89,1.37 29.9,1.37 29.89,1.1 29.89,1.36 29.89,1.08 29.89,1.35 29.89,1.08 29.89,1.08 29.89,1.07 29.89,1.07 29.89,1.07 29.89,1.06 29.9,1.06 29.89,1.06 29.89,1.05 29.89,1.05 29.89,0.79 29.89,1.04 29.89,1.05 29.89,0.78 29.89,1.03 29.89,0.78 29.89,0.78"
             style="fill:none;stroke:#000000;stroke-opacity:1;stroke-width:10;stroke-linecap:butt;stroke-linejoin:miter;stroke-miterlimit:10;stroke-dasharray:10,30;stroke-dashoffset:0"
             id="path3414" /></g></g><g
         id="g3416"
         transform="scale(10,10)"><text
   transform="matrix(1,0,0,-1,68.977,30.2941)"
   id="text3418"><tspan
     style="font-size:12;-inkscape-font-specification:Serif;writing-mode:lr;font-family:Serif;fill-opacity:1;fill-rule:nonzero;stroke:none;font-variant:normal;font-weight:normal;fill:#000000"
     x="0"
     y="0"
     id="tspan3420">0</tspan></text>


</g><path
         d="m 1273,432 0,40 0,-40 z"
         style="fill:none;stroke:#000000;stroke-opacity:1;stroke-width:5;stroke-linecap:butt;stroke-linejoin:miter;stroke-miterlimit:10;stroke-dasharray:none"
         id="path3422" /><path
         d="m 1273,3848 0,40 0,-40 z"
         style="fill:none;stroke:#000000;stroke-opacity:1;stroke-width:5;stroke-linecap:butt;stroke-linejoin:miter;stroke-miterlimit:10;stroke-dasharray:none"
         id="path3424" /><g
         id="g3426"
         transform="scale(10,10)"><text
   transform="matrix(1,0,0,-1,117.394,30.2941)"
   id="text3428"><tspan
     style="font-size:12;-inkscape-font-specification:Serif;writing-mode:lr;font-family:Serif;fill-opacity:1;fill-rule:nonzero;stroke:none;font-variant:normal;font-weight:normal;fill:#000000"
     x="0 7.632 15.264"
     y="0"
     sodipodi:role="line"
     id="tspan3430">100</tspan></text>


</g><path
         d="m 1831,432 0,40 0,-40 z"
         style="fill:none;stroke:#000000;stroke-opacity:1;stroke-width:5;stroke-linecap:butt;stroke-linejoin:miter;stroke-miterlimit:10;stroke-dasharray:none"
         id="path3432" /><path
         d="m 1831,3848 0,40 0,-40 z"
         style="fill:none;stroke:#000000;stroke-opacity:1;stroke-width:5;stroke-linecap:butt;stroke-linejoin:miter;stroke-miterlimit:10;stroke-dasharray:none"
         id="path3434" /><g
         id="g3436"
         transform="scale(10,10)"><text
   transform="matrix(1,0,0,-1,172.975,30.2941)"
   id="text3438"><tspan
     style="font-size:12;-inkscape-font-specification:Serif;writing-mode:lr;font-family:Serif;fill-opacity:1;fill-rule:nonzero;stroke:none;font-variant:normal;font-weight:normal;fill:#000000"
     x="0 7.632 15.264"
     y="0"
     sodipodi:role="line"
     id="tspan3440">200</tspan></text>


</g><path
         d="m 2389,432 0,40 0,-40 z"
         style="fill:none;stroke:#000000;stroke-opacity:1;stroke-width:5;stroke-linecap:butt;stroke-linejoin:miter;stroke-miterlimit:10;stroke-dasharray:none"
         id="path3442" /><path
         d="m 2389,3848 0,40 0,-40 z"
         style="fill:none;stroke:#000000;stroke-opacity:1;stroke-width:5;stroke-linecap:butt;stroke-linejoin:miter;stroke-miterlimit:10;stroke-dasharray:none"
         id="path3444" /><g
         id="g3446"
         transform="scale(10,10)"><text
   transform="matrix(1,0,0,-1,228.798,30.2941)"
   id="text3448"><tspan
     style="font-size:12;-inkscape-font-specification:Serif;writing-mode:lr;font-family:Serif;fill-opacity:1;fill-rule:nonzero;stroke:none;font-variant:normal;font-weight:normal;fill:#000000"
     x="0 7.632 15.264"
     y="0"
     sodipodi:role="line"
     id="tspan3450">300</tspan></text>


</g><path
         d="m 2947,432 0,40 0,-40 z"
         style="fill:none;stroke:#000000;stroke-opacity:1;stroke-width:5;stroke-linecap:butt;stroke-linejoin:miter;stroke-miterlimit:10;stroke-dasharray:none"
         id="path3452" /><path
         d="m 2947,3848 0,40 0,-40 z"
         style="fill:none;stroke:#000000;stroke-opacity:1;stroke-width:5;stroke-linecap:butt;stroke-linejoin:miter;stroke-miterlimit:10;stroke-dasharray:none"
         id="path3454" /><g
         id="g3456"
         transform="scale(10,10)"><text
   transform="matrix(1,0,0,-1,284.434,30.2941)"
   id="text3458"><tspan
     style="font-size:12;-inkscape-font-specification:Serif;writing-mode:lr;font-family:Serif;fill-opacity:1;fill-rule:nonzero;stroke:none;font-variant:normal;font-weight:normal;fill:#000000"
     x="0 7.632 15.264"
     y="0"
     sodipodi:role="line"
     id="tspan3460">400</tspan></text>


</g><path
         d="m 3505,432 0,40 0,-40 z"
         style="fill:none;stroke:#000000;stroke-opacity:1;stroke-width:5;stroke-linecap:butt;stroke-linejoin:miter;stroke-miterlimit:10;stroke-dasharray:none"
         id="path3462" /><path
         d="m 3505,3848 0,40 0,-40 z"
         style="fill:none;stroke:#000000;stroke-opacity:1;stroke-width:5;stroke-linecap:butt;stroke-linejoin:miter;stroke-miterlimit:10;stroke-dasharray:none"
         id="path3464" /><g
         id="g3466"
         transform="scale(10,10)"><text
   transform="matrix(1,0,0,-1,340.398,30.2941)"
   id="text3468"><tspan
     style="font-size:12;-inkscape-font-specification:Serif;writing-mode:lr;font-family:Serif;fill-opacity:1;fill-rule:nonzero;stroke:none;font-variant:normal;font-weight:normal;fill:#000000"
     x="0 7.632 15.264"
     y="0"
     sodipodi:role="line"
     id="tspan3470">500</tspan></text>


</g><path
         d="m 4063,432 0,40 0,-40 z"
         style="fill:none;stroke:#000000;stroke-opacity:1;stroke-width:5;stroke-linecap:butt;stroke-linejoin:miter;stroke-miterlimit:10;stroke-dasharray:none"
         id="path3472" /><path
         d="m 4063,3848 0,40 0,-40 z"
         style="fill:none;stroke:#000000;stroke-opacity:1;stroke-width:5;stroke-linecap:butt;stroke-linejoin:miter;stroke-miterlimit:10;stroke-dasharray:none"
         id="path3474" /><g
         id="g3476"
         transform="scale(10,10)"><text
   transform="matrix(1,0,0,-1,396.159,30.2941)"
   id="text3478"><tspan
     style="font-size:12;-inkscape-font-specification:Serif;writing-mode:lr;font-family:Serif;fill-opacity:1;fill-rule:nonzero;stroke:none;font-variant:normal;font-weight:normal;fill:#000000"
     x="0 7.632 15.264"
     y="0"
     sodipodi:role="line"
     id="tspan3480">600</tspan></text>


</g><path
         d="m 4621,432 0,40 0,-40 z"
         style="fill:none;stroke:#000000;stroke-opacity:1;stroke-width:5;stroke-linecap:butt;stroke-linejoin:miter;stroke-miterlimit:10;stroke-dasharray:none"
         id="path3482" /><path
         d="m 4621,3848 0,40 0,-40 z"
         style="fill:none;stroke:#000000;stroke-opacity:1;stroke-width:5;stroke-linecap:butt;stroke-linejoin:miter;stroke-miterlimit:10;stroke-dasharray:none"
         id="path3484" /><g
         id="g3486"
         transform="scale(10,10)"><text
   transform="matrix(1,0,0,-1,452.03,30.2941)"
   id="text3488"><tspan
     style="font-size:12;-inkscape-font-specification:Serif;writing-mode:lr;font-family:Serif;fill-opacity:1;fill-rule:nonzero;stroke:none;font-variant:normal;font-weight:normal;fill:#000000"
     x="0 7.632 15.264 55.71408 63.34608 70.97808"
     y="0"
     sodipodi:role="line"
     id="tspan3490">700800</tspan><tspan
     style="font-size:12;-inkscape-font-specification:Serif;writing-mode:lr;font-family:Serif;fill-opacity:1;fill-rule:nonzero;stroke:none;font-variant:normal;font-weight:normal;fill:#000000"
     x="-199.439 -192.539 -189.203 -181.595 -174.215 -166.607 -160.007 -152.627 -148.811 -144.131 -136.523 -132.479 -125.531 -117.911"
     y="14.2973"
     sodipodi:role="line"
     id="tspan3492">Fluence [n/kb]</tspan><tspan
     style="font-size:12;-inkscape-font-specification:Serif;writing-mode:lr;font-family:Serif;fill-opacity:1;fill-rule:nonzero;stroke:none;font-variant:normal;font-weight:normal;fill:#000000"
     x="-412.03 -404.3952351"
     y="-4.5308"
     sodipodi:role="line"
     id="tspan3494">10</tspan></text>


<text
   transform="matrix(1,0,0,-1,55.2695,47.0749)"
   id="text3496"><tspan
     style="font-size:8.4;-inkscape-font-specification:Serif;writing-mode:lr;font-family:Serif;fill-opacity:1;fill-rule:nonzero;stroke:none;font-variant:normal;font-weight:normal;fill:#000000"
     x="0 3.03125253"
     y="0"
     sodipodi:role="line"
     id="tspan3498">-4</tspan></text>


</g><path
         d="m 720,1301 40,0 -40,0 z"
         style="fill:none;stroke:#000000;stroke-opacity:1;stroke-width:5;stroke-linecap:butt;stroke-linejoin:miter;stroke-miterlimit:10;stroke-dasharray:none"
         id="path3500" /><path
         d="m 5144,1301 40,0 -40,0 z"
         style="fill:none;stroke:#000000;stroke-opacity:1;stroke-width:5;stroke-linecap:butt;stroke-linejoin:miter;stroke-miterlimit:10;stroke-dasharray:none"
         id="path3502" /><g
         id="g3504"
         transform="scale(10,10)"><text
   transform="matrix(1,0,0,-1,40,121.116)"
   id="text3506"><tspan
     style="font-size:12;-inkscape-font-specification:Serif;writing-mode:lr;font-family:Serif;fill-opacity:1;fill-rule:nonzero;stroke:none;font-variant:normal;font-weight:normal;fill:#000000"
     x="0 7.6347649"
     y="0"
     sodipodi:role="line"
     id="tspan3508">10</tspan></text>


<text
   transform="matrix(1,0,0,-1,55.2695,133.366)"
   id="text3510"><tspan
     style="font-size:8.4;-inkscape-font-specification:Serif;writing-mode:lr;font-family:Serif;fill-opacity:1;fill-rule:nonzero;stroke:none;font-variant:normal;font-weight:normal;fill:#000000"
     x="0 3.03125253"
     y="0"
     sodipodi:role="line"
     id="tspan3512">-3</tspan></text>


</g><path
         d="m 720,2165 40,0 -40,0 z"
         style="fill:none;stroke:#000000;stroke-opacity:1;stroke-width:5;stroke-linecap:butt;stroke-linejoin:miter;stroke-miterlimit:10;stroke-dasharray:none"
         id="path3514" /><path
         d="m 5144,2165 40,0 -40,0 z"
         style="fill:none;stroke:#000000;stroke-opacity:1;stroke-width:5;stroke-linecap:butt;stroke-linejoin:miter;stroke-miterlimit:10;stroke-dasharray:none"
         id="path3516" /><g
         id="g3518"
         transform="scale(10,10)"><text
   transform="matrix(1,0,0,-1,40,207.516)"
   id="text3520"><tspan
     style="font-size:12;-inkscape-font-specification:Serif;writing-mode:lr;font-family:Serif;fill-opacity:1;fill-rule:nonzero;stroke:none;font-variant:normal;font-weight:normal;fill:#000000"
     x="0 7.6347649"
     y="0"
     sodipodi:role="line"
     id="tspan3522">10</tspan></text>


<text
   transform="matrix(1,0,0,-1,55.2695,219.766)"
   id="text3524"><tspan
     style="font-size:8.4;-inkscape-font-specification:Serif;writing-mode:lr;font-family:Serif;fill-opacity:1;fill-rule:nonzero;stroke:none;font-variant:normal;font-weight:normal;fill:#000000"
     x="0 3.03125253"
     y="0"
     sodipodi:role="line"
     id="tspan3526">-2</tspan></text>


</g><path
         d="m 720,3029 40,0 -40,0 z"
         style="fill:none;stroke:#000000;stroke-opacity:1;stroke-width:5;stroke-linecap:butt;stroke-linejoin:miter;stroke-miterlimit:10;stroke-dasharray:none"
         id="path3528" /><path
         d="m 5144,3029 40,0 -40,0 z"
         style="fill:none;stroke:#000000;stroke-opacity:1;stroke-width:5;stroke-linecap:butt;stroke-linejoin:miter;stroke-miterlimit:10;stroke-dasharray:none"
         id="path3530" /><g
         id="g3532"
         transform="scale(10,10)"><text
   transform="matrix(1,0,0,-1,40,294.025)"
   id="text3534"><tspan
     style="font-size:12;-inkscape-font-specification:Serif;writing-mode:lr;font-family:Serif;fill-opacity:1;fill-rule:nonzero;stroke:none;font-variant:normal;font-weight:normal;fill:#000000"
     x="0 7.6347649"
     y="0"
     sodipodi:role="line"
     id="tspan3536">10</tspan></text>


<text
   transform="matrix(1,0,0,-1,55.2695,306.275)"
   id="text3538"><tspan
     style="font-size:8.4;-inkscape-font-specification:Serif;writing-mode:lr;font-family:Serif;fill-opacity:1;fill-rule:nonzero;stroke:none;font-variant:normal;font-weight:normal;fill:#000000"
     x="0 3.03125253"
     y="0"
     sodipodi:role="line"
     id="tspan3540">-1</tspan></text>


<text
   transform="matrix(1,0,0,-1,43,380.3156)"
   id="text3542"><tspan
     style="font-size:12;-inkscape-font-specification:Serif;writing-mode:lr;font-family:Serif;fill-opacity:1;fill-rule:nonzero;stroke:none;font-variant:normal;font-weight:normal;fill:#000000"
     x="0 7.6347649"
     y="0"
     sodipodi:role="line"
     id="tspan3544">10</tspan></text>


<text
   transform="matrix(1,0,0,-1,58.2695,392.5656)"
   id="text3546"><tspan
     style="font-size:8.4;-inkscape-font-specification:Serif;writing-mode:lr;font-family:Serif;fill-opacity:1;fill-rule:nonzero;stroke:none;font-variant:normal;font-weight:normal;fill:#000000"
     x="0"
     y="0"
     id="tspan3548">0</tspan></text>


</g><path
         d="m 720,697.09 20,0 -20,0 z"
         style="fill:none;stroke:#000000;stroke-opacity:1;stroke-width:5;stroke-linecap:butt;stroke-linejoin:miter;stroke-miterlimit:10;stroke-dasharray:none"
         id="path3550" /><path
         d="m 5164,697.09 20,0 -20,0 z"
         style="fill:none;stroke:#000000;stroke-opacity:1;stroke-width:5;stroke-linecap:butt;stroke-linejoin:miter;stroke-miterlimit:10;stroke-dasharray:none"
         id="path3552" /><path
         d="m 720,849.234 20,0 -20,0 z"
         style="fill:none;stroke:#000000;stroke-opacity:1;stroke-width:5;stroke-linecap:butt;stroke-linejoin:miter;stroke-miterlimit:10;stroke-dasharray:none"
         id="path3554" /><path
         d="m 5164,849.234 20,0 -20,0 z"
         style="fill:none;stroke:#000000;stroke-opacity:1;stroke-width:5;stroke-linecap:butt;stroke-linejoin:miter;stroke-miterlimit:10;stroke-dasharray:none"
         id="path3556" /><path
         d="m 720,957.18 20,0 -20,0 z"
         style="fill:none;stroke:#000000;stroke-opacity:1;stroke-width:5;stroke-linecap:butt;stroke-linejoin:miter;stroke-miterlimit:10;stroke-dasharray:none"
         id="path3558" /><path
         d="m 5164,957.18 20,0 -20,0 z"
         style="fill:none;stroke:#000000;stroke-opacity:1;stroke-width:5;stroke-linecap:butt;stroke-linejoin:miter;stroke-miterlimit:10;stroke-dasharray:none"
         id="path3560" /><path
         d="m 720,1040.91 20,0 -20,0 z"
         style="fill:none;stroke:#000000;stroke-opacity:1;stroke-width:5;stroke-linecap:butt;stroke-linejoin:miter;stroke-miterlimit:10;stroke-dasharray:none"
         id="path3562" /><path
         d="m 5164,1040.91 20,0 -20,0 z"
         style="fill:none;stroke:#000000;stroke-opacity:1;stroke-width:5;stroke-linecap:butt;stroke-linejoin:miter;stroke-miterlimit:10;stroke-dasharray:none"
         id="path3564" /><path
         d="m 720,1109.32 20,0 -20,0 z"
         style="fill:none;stroke:#000000;stroke-opacity:1;stroke-width:5;stroke-linecap:butt;stroke-linejoin:miter;stroke-miterlimit:10;stroke-dasharray:none"
         id="path3566" /><path
         d="m 5164,1109.32 20,0 -20,0 z"
         style="fill:none;stroke:#000000;stroke-opacity:1;stroke-width:5;stroke-linecap:butt;stroke-linejoin:miter;stroke-miterlimit:10;stroke-dasharray:none"
         id="path3568" /><path
         d="m 720,1167.16 20,0 -20,0 z"
         style="fill:none;stroke:#000000;stroke-opacity:1;stroke-width:5;stroke-linecap:butt;stroke-linejoin:miter;stroke-miterlimit:10;stroke-dasharray:none"
         id="path3570" /><path
         d="m 5164,1167.16 20,0 -20,0 z"
         style="fill:none;stroke:#000000;stroke-opacity:1;stroke-width:5;stroke-linecap:butt;stroke-linejoin:miter;stroke-miterlimit:10;stroke-dasharray:none"
         id="path3572" /><path
         d="m 720,1217.27 20,0 -20,0 z"
         style="fill:none;stroke:#000000;stroke-opacity:1;stroke-width:5;stroke-linecap:butt;stroke-linejoin:miter;stroke-miterlimit:10;stroke-dasharray:none"
         id="path3574" /><path
         d="m 5164,1217.27 20,0 -20,0 z"
         style="fill:none;stroke:#000000;stroke-opacity:1;stroke-width:5;stroke-linecap:butt;stroke-linejoin:miter;stroke-miterlimit:10;stroke-dasharray:none"
         id="path3576" /><path
         d="m 720,1261.47 20,0 -20,0 z"
         style="fill:none;stroke:#000000;stroke-opacity:1;stroke-width:5;stroke-linecap:butt;stroke-linejoin:miter;stroke-miterlimit:10;stroke-dasharray:none"
         id="path3578" /><path
         d="m 5164,1261.47 20,0 -20,0 z"
         style="fill:none;stroke:#000000;stroke-opacity:1;stroke-width:5;stroke-linecap:butt;stroke-linejoin:miter;stroke-miterlimit:10;stroke-dasharray:none"
         id="path3580" /><path
         d="m 720,1561.09 20,0 -20,0 z"
         style="fill:none;stroke:#000000;stroke-opacity:1;stroke-width:5;stroke-linecap:butt;stroke-linejoin:miter;stroke-miterlimit:10;stroke-dasharray:none"
         id="path3582" /><path
         d="m 5164,1561.09 20,0 -20,0 z"
         style="fill:none;stroke:#000000;stroke-opacity:1;stroke-width:5;stroke-linecap:butt;stroke-linejoin:miter;stroke-miterlimit:10;stroke-dasharray:none"
         id="path3584" /><path
         d="m 720,1713.23 20,0 -20,0 z"
         style="fill:none;stroke:#000000;stroke-opacity:1;stroke-width:5;stroke-linecap:butt;stroke-linejoin:miter;stroke-miterlimit:10;stroke-dasharray:none"
         id="path3586" /><path
         d="m 5164,1713.23 20,0 -20,0 z"
         style="fill:none;stroke:#000000;stroke-opacity:1;stroke-width:5;stroke-linecap:butt;stroke-linejoin:miter;stroke-miterlimit:10;stroke-dasharray:none"
         id="path3588" /><path
         d="m 720,1821.18 20,0 -20,0 z"
         style="fill:none;stroke:#000000;stroke-opacity:1;stroke-width:5;stroke-linecap:butt;stroke-linejoin:miter;stroke-miterlimit:10;stroke-dasharray:none"
         id="path3590" /><path
         d="m 5164,1821.18 20,0 -20,0 z"
         style="fill:none;stroke:#000000;stroke-opacity:1;stroke-width:5;stroke-linecap:butt;stroke-linejoin:miter;stroke-miterlimit:10;stroke-dasharray:none"
         id="path3592" /><path
         d="m 720,1904.91 20,0 -20,0 z"
         style="fill:none;stroke:#000000;stroke-opacity:1;stroke-width:5;stroke-linecap:butt;stroke-linejoin:miter;stroke-miterlimit:10;stroke-dasharray:none"
         id="path3594" /><path
         d="m 5164,1904.91 20,0 -20,0 z"
         style="fill:none;stroke:#000000;stroke-opacity:1;stroke-width:5;stroke-linecap:butt;stroke-linejoin:miter;stroke-miterlimit:10;stroke-dasharray:none"
         id="path3596" /><path
         d="m 720,1973.32 20,0 -20,0 z"
         style="fill:none;stroke:#000000;stroke-opacity:1;stroke-width:5;stroke-linecap:butt;stroke-linejoin:miter;stroke-miterlimit:10;stroke-dasharray:none"
         id="path3598" /><path
         d="m 5164,1973.32 20,0 -20,0 z"
         style="fill:none;stroke:#000000;stroke-opacity:1;stroke-width:5;stroke-linecap:butt;stroke-linejoin:miter;stroke-miterlimit:10;stroke-dasharray:none"
         id="path3600" /><path
         d="m 720,2031.16 20,0 -20,0 z"
         style="fill:none;stroke:#000000;stroke-opacity:1;stroke-width:5;stroke-linecap:butt;stroke-linejoin:miter;stroke-miterlimit:10;stroke-dasharray:none"
         id="path3602" /><path
         d="m 5164,2031.16 20,0 -20,0 z"
         style="fill:none;stroke:#000000;stroke-opacity:1;stroke-width:5;stroke-linecap:butt;stroke-linejoin:miter;stroke-miterlimit:10;stroke-dasharray:none"
         id="path3604" /><path
         d="m 720,2081.27 20,0 -20,0 z"
         style="fill:none;stroke:#000000;stroke-opacity:1;stroke-width:5;stroke-linecap:butt;stroke-linejoin:miter;stroke-miterlimit:10;stroke-dasharray:none"
         id="path3606" /><path
         d="m 5164,2081.27 20,0 -20,0 z"
         style="fill:none;stroke:#000000;stroke-opacity:1;stroke-width:5;stroke-linecap:butt;stroke-linejoin:miter;stroke-miterlimit:10;stroke-dasharray:none"
         id="path3608" /><path
         d="m 720,2125.47 20,0 -20,0 z"
         style="fill:none;stroke:#000000;stroke-opacity:1;stroke-width:5;stroke-linecap:butt;stroke-linejoin:miter;stroke-miterlimit:10;stroke-dasharray:none"
         id="path3610" /><path
         d="m 5164,2125.47 20,0 -20,0 z"
         style="fill:none;stroke:#000000;stroke-opacity:1;stroke-width:5;stroke-linecap:butt;stroke-linejoin:miter;stroke-miterlimit:10;stroke-dasharray:none"
         id="path3612" /><path
         d="m 720,2425.09 20,0 -20,0 z"
         style="fill:none;stroke:#000000;stroke-opacity:1;stroke-width:5;stroke-linecap:butt;stroke-linejoin:miter;stroke-miterlimit:10;stroke-dasharray:none"
         id="path3614" /><path
         d="m 5164,2425.09 20,0 -20,0 z"
         style="fill:none;stroke:#000000;stroke-opacity:1;stroke-width:5;stroke-linecap:butt;stroke-linejoin:miter;stroke-miterlimit:10;stroke-dasharray:none"
         id="path3616" /><path
         d="m 720,2577.23 20,0 -20,0 z"
         style="fill:none;stroke:#000000;stroke-opacity:1;stroke-width:5;stroke-linecap:butt;stroke-linejoin:miter;stroke-miterlimit:10;stroke-dasharray:none"
         id="path3618" /><path
         d="m 5164,2577.23 20,0 -20,0 z"
         style="fill:none;stroke:#000000;stroke-opacity:1;stroke-width:5;stroke-linecap:butt;stroke-linejoin:miter;stroke-miterlimit:10;stroke-dasharray:none"
         id="path3620" /><path
         d="m 720,2685.18 20,0 -20,0 z"
         style="fill:none;stroke:#000000;stroke-opacity:1;stroke-width:5;stroke-linecap:butt;stroke-linejoin:miter;stroke-miterlimit:10;stroke-dasharray:none"
         id="path3622" /><path
         d="m 5164,2685.18 20,0 -20,0 z"
         style="fill:none;stroke:#000000;stroke-opacity:1;stroke-width:5;stroke-linecap:butt;stroke-linejoin:miter;stroke-miterlimit:10;stroke-dasharray:none"
         id="path3624" /><path
         d="m 720,2768.91 20,0 -20,0 z"
         style="fill:none;stroke:#000000;stroke-opacity:1;stroke-width:5;stroke-linecap:butt;stroke-linejoin:miter;stroke-miterlimit:10;stroke-dasharray:none"
         id="path3626" /><path
         d="m 5164,2768.91 20,0 -20,0 z"
         style="fill:none;stroke:#000000;stroke-opacity:1;stroke-width:5;stroke-linecap:butt;stroke-linejoin:miter;stroke-miterlimit:10;stroke-dasharray:none"
         id="path3628" /><path
         d="m 720,2837.32 20,0 -20,0 z"
         style="fill:none;stroke:#000000;stroke-opacity:1;stroke-width:5;stroke-linecap:butt;stroke-linejoin:miter;stroke-miterlimit:10;stroke-dasharray:none"
         id="path3630" /><path
         d="m 5164,2837.32 20,0 -20,0 z"
         style="fill:none;stroke:#000000;stroke-opacity:1;stroke-width:5;stroke-linecap:butt;stroke-linejoin:miter;stroke-miterlimit:10;stroke-dasharray:none"
         id="path3632" /><path
         d="m 720,2895.16 20,0 -20,0 z"
         style="fill:none;stroke:#000000;stroke-opacity:1;stroke-width:5;stroke-linecap:butt;stroke-linejoin:miter;stroke-miterlimit:10;stroke-dasharray:none"
         id="path3634" /><path
         d="m 5164,2895.16 20,0 -20,0 z"
         style="fill:none;stroke:#000000;stroke-opacity:1;stroke-width:5;stroke-linecap:butt;stroke-linejoin:miter;stroke-miterlimit:10;stroke-dasharray:none"
         id="path3636" /><path
         d="m 720,2945.27 20,0 -20,0 z"
         style="fill:none;stroke:#000000;stroke-opacity:1;stroke-width:5;stroke-linecap:butt;stroke-linejoin:miter;stroke-miterlimit:10;stroke-dasharray:none"
         id="path3638" /><path
         d="m 5164,2945.27 20,0 -20,0 z"
         style="fill:none;stroke:#000000;stroke-opacity:1;stroke-width:5;stroke-linecap:butt;stroke-linejoin:miter;stroke-miterlimit:10;stroke-dasharray:none"
         id="path3640" /><path
         d="m 720,2989.47 20,0 -20,0 z"
         style="fill:none;stroke:#000000;stroke-opacity:1;stroke-width:5;stroke-linecap:butt;stroke-linejoin:miter;stroke-miterlimit:10;stroke-dasharray:none"
         id="path3642" /><path
         d="m 5164,2989.47 20,0 -20,0 z"
         style="fill:none;stroke:#000000;stroke-opacity:1;stroke-width:5;stroke-linecap:butt;stroke-linejoin:miter;stroke-miterlimit:10;stroke-dasharray:none"
         id="path3644" /><path
         d="m 720,3289.09 20,0 -20,0 z"
         style="fill:none;stroke:#000000;stroke-opacity:1;stroke-width:5;stroke-linecap:butt;stroke-linejoin:miter;stroke-miterlimit:10;stroke-dasharray:none"
         id="path3646" /><path
         d="m 5164,3289.09 20,0 -20,0 z"
         style="fill:none;stroke:#000000;stroke-opacity:1;stroke-width:5;stroke-linecap:butt;stroke-linejoin:miter;stroke-miterlimit:10;stroke-dasharray:none"
         id="path3648" /><path
         d="m 720,3441.23 20,0 -20,0 z"
         style="fill:none;stroke:#000000;stroke-opacity:1;stroke-width:5;stroke-linecap:butt;stroke-linejoin:miter;stroke-miterlimit:10;stroke-dasharray:none"
         id="path3650" /><path
         d="m 5164,3441.23 20,0 -20,0 z"
         style="fill:none;stroke:#000000;stroke-opacity:1;stroke-width:5;stroke-linecap:butt;stroke-linejoin:miter;stroke-miterlimit:10;stroke-dasharray:none"
         id="path3652" /><path
         d="m 720,3549.18 20,0 -20,0 z"
         style="fill:none;stroke:#000000;stroke-opacity:1;stroke-width:5;stroke-linecap:butt;stroke-linejoin:miter;stroke-miterlimit:10;stroke-dasharray:none"
         id="path3654" /><path
         d="m 5164,3549.18 20,0 -20,0 z"
         style="fill:none;stroke:#000000;stroke-opacity:1;stroke-width:5;stroke-linecap:butt;stroke-linejoin:miter;stroke-miterlimit:10;stroke-dasharray:none"
         id="path3656" /><path
         d="m 720,3632.91 20,0 -20,0 z"
         style="fill:none;stroke:#000000;stroke-opacity:1;stroke-width:5;stroke-linecap:butt;stroke-linejoin:miter;stroke-miterlimit:10;stroke-dasharray:none"
         id="path3658" /><path
         d="m 5164,3632.91 20,0 -20,0 z"
         style="fill:none;stroke:#000000;stroke-opacity:1;stroke-width:5;stroke-linecap:butt;stroke-linejoin:miter;stroke-miterlimit:10;stroke-dasharray:none"
         id="path3660" /><path
         d="m 720,3701.32 20,0 -20,0 z"
         style="fill:none;stroke:#000000;stroke-opacity:1;stroke-width:5;stroke-linecap:butt;stroke-linejoin:miter;stroke-miterlimit:10;stroke-dasharray:none"
         id="path3662" /><path
         d="m 5164,3701.32 20,0 -20,0 z"
         style="fill:none;stroke:#000000;stroke-opacity:1;stroke-width:5;stroke-linecap:butt;stroke-linejoin:miter;stroke-miterlimit:10;stroke-dasharray:none"
         id="path3664" /><path
         d="m 720,3759.16 20,0 -20,0 z"
         style="fill:none;stroke:#000000;stroke-opacity:1;stroke-width:5;stroke-linecap:butt;stroke-linejoin:miter;stroke-miterlimit:10;stroke-dasharray:none"
         id="path3666" /><path
         d="m 5164,3759.16 20,0 -20,0 z"
         style="fill:none;stroke:#000000;stroke-opacity:1;stroke-width:5;stroke-linecap:butt;stroke-linejoin:miter;stroke-miterlimit:10;stroke-dasharray:none"
         id="path3668" /><path
         d="m 720,3809.27 20,0 -20,0 z"
         style="fill:none;stroke:#000000;stroke-opacity:1;stroke-width:5;stroke-linecap:butt;stroke-linejoin:miter;stroke-miterlimit:10;stroke-dasharray:none"
         id="path3670" /><path
         d="m 5164,3809.27 20,0 -20,0 z"
         style="fill:none;stroke:#000000;stroke-opacity:1;stroke-width:5;stroke-linecap:butt;stroke-linejoin:miter;stroke-miterlimit:10;stroke-dasharray:none"
         id="path3672" /><path
         d="m 720,3853.47 20,0 -20,0 z"
         style="fill:none;stroke:#000000;stroke-opacity:1;stroke-width:5;stroke-linecap:butt;stroke-linejoin:miter;stroke-miterlimit:10;stroke-dasharray:none"
         id="path3674" /><path
         d="m 5164,3853.47 20,0 -20,0 z"
         style="fill:none;stroke:#000000;stroke-opacity:1;stroke-width:5;stroke-linecap:butt;stroke-linejoin:miter;stroke-miterlimit:10;stroke-dasharray:none"
         id="path3676" /><g
         id="g3678"
         transform="scale(10,10)"><text
   transform="matrix(0,1,1,0,32.5,187.523)"
   id="text3680"><tspan
     style="font-size:12;-inkscape-font-specification:Serif;writing-mode:lr;font-family:Serif;fill-opacity:1;fill-rule:nonzero;stroke:none;font-variant:normal;font-weight:normal;fill:#000000"
     x="0 10.356 17.712 23.964 30.216 34.032 38.712 45.66 53.28"
     y="0"
     sodipodi:role="line"
     id="tspan3682">Mass [kg]</tspan></text>


</g><path
         d="m 720,432 4464,0 0,3456 -4464,0 0,-3456"
         style="fill:none;stroke:#000000;stroke-opacity:1;stroke-width:10;stroke-linecap:square;stroke-linejoin:miter;stroke-miterlimit:10;stroke-dasharray:none"
         id="path3684" /><path
         d="m 4162.68,501.121 932.039,0 0,885.539 -932.039,0 0,-885.539 z"
         style="fill:#ffffff;fill-opacity:1;fill-rule:nonzero;stroke:none"
         id="path3686" /><path
         d="m 4162.68,501.121 932.039,0 0,885.539 -932.039,0 0,-885.539 z"
         style="fill:none;stroke:#000000;stroke-opacity:1;stroke-width:10;stroke-linecap:square;stroke-linejoin:miter;stroke-miterlimit:10;stroke-dasharray:none"
         id="path3688" /><path
         d="m 4270.35,1259.9 223.2,0"
         style="fill:none;stroke:#000000;stroke-opacity:1;stroke-width:10;stroke-linecap:butt;stroke-linejoin:miter;stroke-miterlimit:10;stroke-dasharray:60,60;stroke-dashoffset:0"
         id="path3690" /><path
         d="m 4270.35,1101.89 223.2,0"
         style="fill:none;stroke:#ff0000;stroke-opacity:1;stroke-width:10;stroke-linecap:butt;stroke-linejoin:miter;stroke-miterlimit:10;stroke-dasharray:60,60;stroke-dashoffset:0"
         id="path3692" /><path
         d="m 4270.35,943.891 223.2,0"
         style="fill:none;stroke:#000000;stroke-opacity:1;stroke-width:10;stroke-linecap:square;stroke-linejoin:miter;stroke-miterlimit:10;stroke-dasharray:none"
         id="path3694" /><path
         d="m 4270.35,785.887 223.2,0"
         style="fill:none;stroke:#ff0000;stroke-opacity:1;stroke-width:10;stroke-linecap:square;stroke-linejoin:miter;stroke-miterlimit:10;stroke-dasharray:none"
         id="path3696" /><path
         d="m 4270.35,627.883 223.2,0"
         style="fill:none;stroke:#000000;stroke-opacity:1;stroke-width:10;stroke-linecap:butt;stroke-linejoin:miter;stroke-miterlimit:10;stroke-dasharray:10,30;stroke-dashoffset:0"
         id="path3698" /><g
         id="g3700"
         transform="scale(10,10)"><text
   transform="matrix(1,0,0,-1,458.283,120.896)"
   id="text3702"><tspan
     style="font-size:14;-inkscape-font-specification:Serif;writing-mode:lr;font-family:Serif;fill-opacity:1;fill-rule:nonzero;stroke:none;font-variant:normal;font-weight:normal;fill:#000000"
     x="0 9.772 18.662 27.566 36.47"
     y="0"
     sodipodi:role="line"
     id="tspan3704">CS135</tspan><tspan
     style="font-size:14;-inkscape-font-specification:Serif;writing-mode:lr;font-family:Serif;fill-opacity:1;fill-rule:nonzero;stroke:none;font-variant:normal;font-weight:normal;fill:#000000"
     x="0 9.772 18.662 27.566 36.47"
     y="15.8012"
     sodipodi:role="line"
     id="tspan3706">CS137</tspan><tspan
     style="font-size:14;-inkscape-font-specification:Serif;writing-mode:lr;font-family:Serif;fill-opacity:1;fill-rule:nonzero;stroke:none;font-variant:normal;font-weight:normal;fill:#000000"
     x="0 8.442 18.69 27.594 36.498"
     y="31.6012"
     sodipodi:role="line"
     id="tspan3708">PU239</tspan><tspan
     style="font-size:14;-inkscape-font-specification:Serif;writing-mode:lr;font-family:Serif;fill-opacity:1;fill-rule:nonzero;stroke:none;font-variant:normal;font-weight:normal;fill:#000000"
     x="0 8.442 18.69 27.594 36.498"
     y="47.4012"
     sodipodi:role="line"
     id="tspan3710">PU240</tspan><tspan
     style="font-size:14;-inkscape-font-specification:Serif;writing-mode:lr;font-family:Serif;fill-opacity:1;fill-rule:nonzero;stroke:none;font-variant:normal;font-weight:normal;fill:#000000"
     x="0 8.554 18.326 27.23"
     y="63.2012"
     sodipodi:role="line"
     id="tspan3712">TC99</tspan></text>


</g></g></g></svg>