<?xml version="1.0" encoding="UTF-8" standalone="no"?>
<!-- Created with Inkscape (http://www.inkscape.org/) -->

<svg
   xmlns:dc="http://purl.org/dc/elements/1.1/"
   xmlns:cc="http://creativecommons.org/ns#"
   xmlns:rdf="http://www.w3.org/1999/02/22-rdf-syntax-ns#"
   xmlns:svg="http://www.w3.org/2000/svg"
   xmlns="http://www.w3.org/2000/svg"
   xmlns:sodipodi="http://sodipodi.sourceforge.net/DTD/sodipodi-0.dtd"
   xmlns:inkscape="http://www.inkscape.org/namespaces/inkscape"
   id="svg3004"
   version="1.1"
   inkscape:version="0.48.2 r9819"
   width="720"
   height="540"
   xml:space="preserve"
   sodipodi:docname="pu239_fr_prod_des.eps"><sodipodi:namedview
     pagecolor="#ffffff"
     bordercolor="#666666"
     borderopacity="1"
     objecttolerance="10"
     gridtolerance="10"
     guidetolerance="10"
     inkscape:pageopacity="0"
     inkscape:pageshadow="2"
     inkscape:window-width="1438"
     inkscape:window-height="868"
     id="namedview3006"
     showgrid="false"
     inkscape:zoom="1.2333333"
     inkscape:cx="360"
     inkscape:cy="270"
     inkscape:window-x="0"
     inkscape:window-y="30"
     inkscape:window-maximized="0"
     inkscape:current-layer="g3012" /><metadata
     id="metadata3010"><rdf:RDF><cc:Work
         rdf:about=""><dc:format>image/svg+xml</dc:format><dc:type
           rdf:resource="http://purl.org/dc/dcmitype/StillImage" /><dc:title></dc:title></cc:Work></rdf:RDF></metadata><defs
     id="defs3008"><clipPath
       id="clipPath3028"
       clipPathUnits="userSpaceOnUse"><path
         id="path3030"
         d="m 720,432 4464,0 0,3456 -4464,0 0,-3456 z" /></clipPath></defs><g
     transform="matrix(1.25,0,0,-1.25,0,540)"
     inkscape:label="ink_ext_XXXXXX"
     inkscape:groupmode="layer"
     id="g3012"><g
       transform="scale(0.1,0.1)"
       id="g3014"><path
         id="path3016"
         style="fill:#ffffff;fill-opacity:1;fill-rule:nonzero;stroke:none"
         d="m 0,0 5760,0 0,4320 L 0,4320 0,0 z" /><path
         id="path3018"
         style="fill:none;stroke:#ffffff;stroke-opacity:1;stroke-width:10;stroke-linecap:square;stroke-linejoin:miter;stroke-miterlimit:10;stroke-dasharray:none"
         d="m 0,0 5760,0 0,4320 L 0,4320 0,0 z" /><path
         id="path3020"
         style="fill:#ffffff;fill-opacity:1;fill-rule:nonzero;stroke:none"
         d="m 720,432 4464,0 0,3456 -4464,0 0,-3456 z" /><path
         id="path3022"
         style="fill:none;stroke:#000000;stroke-opacity:1;stroke-width:10;stroke-linecap:square;stroke-linejoin:miter;stroke-miterlimit:10;stroke-dasharray:none"
         d="m 720,432 4464,0 0,3456 -4464,0 0,-3456 z" /><g
         id="g3024"><g
           clip-path="url(#clipPath3028)"
           id="g3026"><path
             id="path3032"
             style="fill:none;stroke:#000000;stroke-opacity:1;stroke-width:10;stroke-linecap:square;stroke-linejoin:miter;stroke-miterlimit:10;stroke-dasharray:none"
             d="m 749.891,3859.2 29.89,-28.8 29.891,-28.8 29.89,-57.6 29.891,-28.8 29.895,-28.8 29.89,-28.8 29.891,-28.8 29.891,-28.8 29.89,-28.8 29.89,-28.8 29.89,-28.8 29.89,-28.8 29.89,-28.8 29.89,-57.6 29.9,-28.8 29.89,-28.8 29.89,-28.8 29.89,-17.28 29.89,-25.92 29.89,-28.8 29.89,-28.8 29.89,-25.92 29.89,-28.8 29.89,-25.92 29.89,-25.92 29.9,-25.92 29.89,-25.92 29.89,-25.92 29.89,-25.92 29.89,-25.92 29.89,-23.04 29.89,-25.92 29.89,-23.04 29.89,-25.92 29.89,-23.04 29.89,-23.04 29.9,-23.04 29.89,-23.04 29.89,-23.04 29.89,-23.04 29.89,-23.04 29.89,-23.04 29.89,-20.16 29.89,-23.04 29.89,-20.16 29.89,-23.04 29.9,-20.16 29.89,-20.16 29.89,-20.16 29.89,-20.16 29.89,-20.16 29.89,-20.16 29.89,-20.16 29.89,-20.16 29.89,-20.16 29.89,-17.28 29.89,-20.16 29.9,-17.28 29.89,-20.16 29.89,-17.28 29.89,-20.16 29.89,-17.28 29.89,-17.28 29.89,-17.28 29.89,-17.28 29.89,-17.28 29.89,-17.28 29.9,-17.28 29.89,-17.28 29.89,-14.4 29.89,-17.28 29.89,-17.28 29.89,-14.4 29.89,-17.28 29.89,-14.4 29.89,-17.28 29.89,-14.4 29.89,-14.4 29.9,-17.28 29.89,-14.4 29.89,-14.4 29.89,-14.4 29.89,-14.4 29.89,-14.4 29.89,-14.4 29.89,-14.4 29.89,-14.4 29.89,-11.52 29.89,-14.4 29.9,-14.4 29.89,-11.52 29.89,-14.4 29.89,-11.52 29.89,-14.4 29.89,-11.52 29.89,-14.4 29.89,-11.52 29.89,-11.52 29.89,-14.4 29.9,-11.52 29.89,-11.52 29.89,-11.52 29.89,-11.52 29.89,-11.52 29.89,-11.52 29.89,-11.52 29.89,-11.52 29.89,-11.52 29.89,-11.52 29.89,-11.52 29.9,-8.64 29.89,-11.52 29.89,-11.52 29.89,-11.52 29.89,-8.64 29.89,-11.52 29.89,-8.64 29.89,-11.52 29.89,-8.64 29.89,-11.52 29.9,-8.64 29.89,-11.52 29.89,-8.64 29.89,-8.64 29.89,-8.64 29.89,-11.52 29.89,-8.64 29.89,-8.64 29.89,-8.64 29.89,-8.64 29.89,-8.64 29.9,-8.64 29.89,-8.64 29.89,-8.64 29.89,-8.64 29.89,-8.64 29.89,-8.64 29.89,-8.64 29.89,-8.64 29.89,-8.64 29.89,-5.76 29.89,-8.64" /><path
             id="path3034"
             style="fill:none;stroke:#ff0000;stroke-opacity:1;stroke-width:10;stroke-linecap:square;stroke-linejoin:miter;stroke-miterlimit:10;stroke-dasharray:none"
             d="m 749.891,1846.08 29.89,-11.52 29.891,-8.64 29.89,-11.52 29.891,-11.52 29.895,-11.52 29.89,-11.52 29.891,-8.64 29.891,-11.52 29.89,-11.52 29.89,-8.64 29.89,-11.52 29.89,-8.64 29.89,-11.52 29.89,-8.64 29.9,-8.64 29.89,-11.52 29.89,-8.64 29.89,-8.64 29.89,-11.52 29.89,-8.64 29.89,-8.64 29.89,-8.64 29.89,-8.64 29.89,-11.52 29.89,-8.64 29.9,-8.64 29.89,-8.64 29.89,-8.64 29.89,-8.64 29.89,-8.64 29.89,-5.76 29.89,-8.64 29.89,-8.64 29.89,-8.64 29.89,-8.64 29.89,-8.64 29.9,-5.76 29.89,-8.64 29.89,-8.64 29.89,-5.76 29.89,-8.64 29.89,-8.64 29.89,-5.76 29.89,-8.64 29.89,-5.76 29.89,-8.64 29.9,-5.76 29.89,-8.64 29.89,-5.76 29.89,-5.76 29.89,-8.64 29.89,-5.76 29.89,-5.76 29.89,-8.64 29.89,-5.76 29.89,-5.76 29.89,-5.76 29.9,-8.64 29.89,-5.76 29.89,-5.76 29.89,-5.76 29.89,-5.76 29.89,-5.76 29.89,-8.64 29.89,-5.76 29.89,-5.76 29.89,-5.76 29.9,-5.76 29.89,-5.76 29.89,-5.76 29.89,-5.76 29.89,-2.88 29.89,-5.76 29.89,-5.76 29.89,-5.76 29.89,-5.76 29.89,-5.76 29.89,-5.76 29.9,-2.88 29.89,-5.76 29.89,-5.76 29.89,-5.76 29.89,-2.88 29.89,-5.76 29.89,-5.76 29.89,-2.88 29.89,-5.76 29.89,-5.76 29.89,-2.88 29.9,-5.76 29.89,-5.76 29.89,-2.88 29.89,-5.76 29.89,-2.88 29.89,-5.76 29.89,-2.88 29.89,-5.76 29.89,-2.88 29.89,-5.76 29.9,-2.88 29.89,-5.76 29.89,-2.88 29.89,-5.76 29.89,-2.88 29.89,-2.88 29.89,-5.76 29.89,-2.88 29.89,-2.88 29.89,-5.76 29.89,-2.88 29.9,-2.88 29.89,-5.76 29.89,-2.88 29.89,-2.88 29.89,-5.76 29.89,-2.88 29.89,-2.88 29.89,-2.88 29.89,-2.88 29.89,-5.76 29.9,-2.88 29.89,-2.88 29.89,-2.88 29.89,-2.88 29.89,-2.88 29.89,-5.76 29.89,-2.88 29.89,-2.88 29.89,-2.88 29.89,-2.88 29.89,-2.88 29.9,-2.88 29.89,-2.88 29.89,-2.88 29.89,-2.88 29.89,-2.88 29.89,-2.88 29.89,-2.881 29.89,-2.879 29.89,-2.878 29.89,-2.883 29.89,-2.879" /></g></g><g
         transform="scale(10,10)"
         id="g3036"><text
   id="text3038"
   transform="matrix(1,0,0,-1,68.977,30.2941)"><tspan
     id="tspan3040"
     y="0"
     x="0"
     style="font-size:12;font-weight:normal;writing-mode:lr;fill-rule:nonzero;fill-opacity:1;stroke:none;-inkscape-font-specification:Serif;font-variant:normal;font-family:Serif;fill:#000000">0</tspan></text>

</g><path
         id="path3042"
         style="fill:none;stroke:#000000;stroke-opacity:1;stroke-width:5;stroke-linecap:butt;stroke-linejoin:miter;stroke-miterlimit:10;stroke-dasharray:none"
         d="m 1273,432 0,40 0,-40 z" /><path
         id="path3044"
         style="fill:none;stroke:#000000;stroke-opacity:1;stroke-width:5;stroke-linecap:butt;stroke-linejoin:miter;stroke-miterlimit:10;stroke-dasharray:none"
         d="m 1273,3848 0,40 0,-40 z" /><g
         transform="scale(10,10)"
         id="g3046"><text
   id="text3048"
   transform="matrix(1,0,0,-1,117.394,30.2941)"><tspan
     id="tspan3050"
     sodipodi:role="line"
     y="0"
     x="0 7.632 15.264"
     style="font-size:12;font-weight:normal;writing-mode:lr;fill-rule:nonzero;fill-opacity:1;stroke:none;-inkscape-font-specification:Serif;font-variant:normal;font-family:Serif;fill:#000000">100</tspan></text>

</g><path
         id="path3052"
         style="fill:none;stroke:#000000;stroke-opacity:1;stroke-width:5;stroke-linecap:butt;stroke-linejoin:miter;stroke-miterlimit:10;stroke-dasharray:none"
         d="m 1831,432 0,40 0,-40 z" /><path
         id="path3054"
         style="fill:none;stroke:#000000;stroke-opacity:1;stroke-width:5;stroke-linecap:butt;stroke-linejoin:miter;stroke-miterlimit:10;stroke-dasharray:none"
         d="m 1831,3848 0,40 0,-40 z" /><g
         transform="scale(10,10)"
         id="g3056"><text
   id="text3058"
   transform="matrix(1,0,0,-1,172.975,30.2941)"><tspan
     id="tspan3060"
     sodipodi:role="line"
     y="0"
     x="0 7.632 15.264"
     style="font-size:12;font-weight:normal;writing-mode:lr;fill-rule:nonzero;fill-opacity:1;stroke:none;-inkscape-font-specification:Serif;font-variant:normal;font-family:Serif;fill:#000000">200</tspan></text>

</g><path
         id="path3062"
         style="fill:none;stroke:#000000;stroke-opacity:1;stroke-width:5;stroke-linecap:butt;stroke-linejoin:miter;stroke-miterlimit:10;stroke-dasharray:none"
         d="m 2389,432 0,40 0,-40 z" /><path
         id="path3064"
         style="fill:none;stroke:#000000;stroke-opacity:1;stroke-width:5;stroke-linecap:butt;stroke-linejoin:miter;stroke-miterlimit:10;stroke-dasharray:none"
         d="m 2389,3848 0,40 0,-40 z" /><g
         transform="scale(10,10)"
         id="g3066"><text
   id="text3068"
   transform="matrix(1,0,0,-1,228.798,30.2941)"><tspan
     id="tspan3070"
     sodipodi:role="line"
     y="0"
     x="0 7.632 15.264"
     style="font-size:12;font-weight:normal;writing-mode:lr;fill-rule:nonzero;fill-opacity:1;stroke:none;-inkscape-font-specification:Serif;font-variant:normal;font-family:Serif;fill:#000000">300</tspan></text>

</g><path
         id="path3072"
         style="fill:none;stroke:#000000;stroke-opacity:1;stroke-width:5;stroke-linecap:butt;stroke-linejoin:miter;stroke-miterlimit:10;stroke-dasharray:none"
         d="m 2947,432 0,40 0,-40 z" /><path
         id="path3074"
         style="fill:none;stroke:#000000;stroke-opacity:1;stroke-width:5;stroke-linecap:butt;stroke-linejoin:miter;stroke-miterlimit:10;stroke-dasharray:none"
         d="m 2947,3848 0,40 0,-40 z" /><g
         transform="scale(10,10)"
         id="g3076"><text
   id="text3078"
   transform="matrix(1,0,0,-1,284.434,30.2941)"><tspan
     id="tspan3080"
     sodipodi:role="line"
     y="0"
     x="0 7.632 15.264"
     style="font-size:12;font-weight:normal;writing-mode:lr;fill-rule:nonzero;fill-opacity:1;stroke:none;-inkscape-font-specification:Serif;font-variant:normal;font-family:Serif;fill:#000000">400</tspan></text>

</g><path
         id="path3082"
         style="fill:none;stroke:#000000;stroke-opacity:1;stroke-width:5;stroke-linecap:butt;stroke-linejoin:miter;stroke-miterlimit:10;stroke-dasharray:none"
         d="m 3505,432 0,40 0,-40 z" /><path
         id="path3084"
         style="fill:none;stroke:#000000;stroke-opacity:1;stroke-width:5;stroke-linecap:butt;stroke-linejoin:miter;stroke-miterlimit:10;stroke-dasharray:none"
         d="m 3505,3848 0,40 0,-40 z" /><g
         transform="scale(10,10)"
         id="g3086"><text
   id="text3088"
   transform="matrix(1,0,0,-1,340.398,30.2941)"><tspan
     id="tspan3090"
     sodipodi:role="line"
     y="0"
     x="0 7.632 15.264"
     style="font-size:12;font-weight:normal;writing-mode:lr;fill-rule:nonzero;fill-opacity:1;stroke:none;-inkscape-font-specification:Serif;font-variant:normal;font-family:Serif;fill:#000000">500</tspan></text>

</g><path
         id="path3092"
         style="fill:none;stroke:#000000;stroke-opacity:1;stroke-width:5;stroke-linecap:butt;stroke-linejoin:miter;stroke-miterlimit:10;stroke-dasharray:none"
         d="m 4063,432 0,40 0,-40 z" /><path
         id="path3094"
         style="fill:none;stroke:#000000;stroke-opacity:1;stroke-width:5;stroke-linecap:butt;stroke-linejoin:miter;stroke-miterlimit:10;stroke-dasharray:none"
         d="m 4063,3848 0,40 0,-40 z" /><g
         transform="scale(10,10)"
         id="g3096"><text
   id="text3098"
   transform="matrix(1,0,0,-1,396.159,30.2941)"><tspan
     id="tspan3100"
     sodipodi:role="line"
     y="0"
     x="0 7.632 15.264"
     style="font-size:12;font-weight:normal;writing-mode:lr;fill-rule:nonzero;fill-opacity:1;stroke:none;-inkscape-font-specification:Serif;font-variant:normal;font-family:Serif;fill:#000000">600</tspan></text>

</g><path
         id="path3102"
         style="fill:none;stroke:#000000;stroke-opacity:1;stroke-width:5;stroke-linecap:butt;stroke-linejoin:miter;stroke-miterlimit:10;stroke-dasharray:none"
         d="m 4621,432 0,40 0,-40 z" /><path
         id="path3104"
         style="fill:none;stroke:#000000;stroke-opacity:1;stroke-width:5;stroke-linecap:butt;stroke-linejoin:miter;stroke-miterlimit:10;stroke-dasharray:none"
         d="m 4621,3848 0,40 0,-40 z" /><g
         transform="scale(10,10)"
         id="g3106"><text
   id="text3108"
   transform="matrix(1,0,0,-1,452.03,30.2941)"><tspan
     id="tspan3110"
     sodipodi:role="line"
     y="0"
     x="0 7.632 15.264 55.71408 63.34608 70.97808"
     style="font-size:12;font-weight:normal;writing-mode:lr;fill-rule:nonzero;fill-opacity:1;stroke:none;-inkscape-font-specification:Serif;font-variant:normal;font-family:Serif;fill:#000000">700800</tspan><tspan
     id="tspan3112"
     sodipodi:role="line"
     y="14.2973"
     x="-199.439 -192.539 -189.203 -181.595 -174.215 -166.607 -160.007 -152.627 -148.811 -144.131 -136.523 -132.479 -125.531 -117.911"
     style="font-size:12;font-weight:normal;writing-mode:lr;fill-rule:nonzero;fill-opacity:1;stroke:none;-inkscape-font-specification:Serif;font-variant:normal;font-family:Serif;fill:#000000">Fluence [n/kb]</tspan><tspan
     id="tspan3114"
     y="-8.5386"
     x="-390.077"
     style="font-size:12;font-weight:normal;writing-mode:lr;fill-rule:nonzero;fill-opacity:1;stroke:none;-inkscape-font-specification:Serif;font-variant:normal;font-family:Serif;fill:#000000">0</tspan></text>

</g><path
         id="path3116"
         style="fill:none;stroke:#000000;stroke-opacity:1;stroke-width:5;stroke-linecap:butt;stroke-linejoin:miter;stroke-miterlimit:10;stroke-dasharray:none"
         d="m 720,1013 40,0 -40,0 z" /><path
         id="path3118"
         style="fill:none;stroke:#000000;stroke-opacity:1;stroke-width:5;stroke-linecap:butt;stroke-linejoin:miter;stroke-miterlimit:10;stroke-dasharray:none"
         d="m 5144,1013 40,0 -40,0 z" /><g
         transform="scale(10,10)"
         id="g3120"><text
   id="text3122"
   transform="matrix(1,0,0,-1,62.4379,96.3469)"><tspan
     id="tspan3124"
     y="0"
     x="0"
     style="font-size:12;font-weight:normal;writing-mode:lr;fill-rule:nonzero;fill-opacity:1;stroke:none;-inkscape-font-specification:Serif;font-variant:normal;font-family:Serif;fill:#000000">2</tspan></text>

</g><path
         id="path3126"
         style="fill:none;stroke:#000000;stroke-opacity:1;stroke-width:5;stroke-linecap:butt;stroke-linejoin:miter;stroke-miterlimit:10;stroke-dasharray:none"
         d="m 720,1589 40,0 -40,0 z" /><path
         id="path3128"
         style="fill:none;stroke:#000000;stroke-opacity:1;stroke-width:5;stroke-linecap:butt;stroke-linejoin:miter;stroke-miterlimit:10;stroke-dasharray:none"
         d="m 5144,1589 40,0 -40,0 z" /><g
         transform="scale(10,10)"
         id="g3130"><text
   id="text3132"
   transform="matrix(1,0,0,-1,61.625,154.025)"><tspan
     id="tspan3134"
     y="0"
     x="0"
     style="font-size:12;font-weight:normal;writing-mode:lr;fill-rule:nonzero;fill-opacity:1;stroke:none;-inkscape-font-specification:Serif;font-variant:normal;font-family:Serif;fill:#000000">4</tspan></text>

</g><path
         id="path3136"
         style="fill:none;stroke:#000000;stroke-opacity:1;stroke-width:5;stroke-linecap:butt;stroke-linejoin:miter;stroke-miterlimit:10;stroke-dasharray:none"
         d="m 720,2165 40,0 -40,0 z" /><path
         id="path3138"
         style="fill:none;stroke:#000000;stroke-opacity:1;stroke-width:5;stroke-linecap:butt;stroke-linejoin:miter;stroke-miterlimit:10;stroke-dasharray:none"
         d="m 5144,2165 40,0 -40,0 z" /><g
         transform="scale(10,10)"
         id="g3140"><text
   id="text3142"
   transform="matrix(1,0,0,-1,61.9691,211.633)"><tspan
     id="tspan3144"
     y="0"
     x="0"
     style="font-size:12;font-weight:normal;writing-mode:lr;fill-rule:nonzero;fill-opacity:1;stroke:none;-inkscape-font-specification:Serif;font-variant:normal;font-family:Serif;fill:#000000">6</tspan></text>

</g><path
         id="path3146"
         style="fill:none;stroke:#000000;stroke-opacity:1;stroke-width:5;stroke-linecap:butt;stroke-linejoin:miter;stroke-miterlimit:10;stroke-dasharray:none"
         d="m 720,2741 40,0 -40,0 z" /><path
         id="path3148"
         style="fill:none;stroke:#000000;stroke-opacity:1;stroke-width:5;stroke-linecap:butt;stroke-linejoin:miter;stroke-miterlimit:10;stroke-dasharray:none"
         d="m 5144,2741 40,0 -40,0 z" /><g
         transform="scale(10,10)"
         id="g3150"><text
   id="text3152"
   transform="matrix(1,0,0,-1,62,269.233)"><tspan
     id="tspan3154"
     y="0"
     x="0"
     style="font-size:12;font-weight:normal;writing-mode:lr;fill-rule:nonzero;fill-opacity:1;stroke:none;-inkscape-font-specification:Serif;font-variant:normal;font-family:Serif;fill:#000000">8</tspan></text>

</g><path
         id="path3156"
         style="fill:none;stroke:#000000;stroke-opacity:1;stroke-width:5;stroke-linecap:butt;stroke-linejoin:miter;stroke-miterlimit:10;stroke-dasharray:none"
         d="m 720,3317 40,0 -40,0 z" /><path
         id="path3158"
         style="fill:none;stroke:#000000;stroke-opacity:1;stroke-width:5;stroke-linecap:butt;stroke-linejoin:miter;stroke-miterlimit:10;stroke-dasharray:none"
         d="m 5144,3317 40,0 -40,0 z" /><g
         transform="scale(10,10)"
         id="g3160"><text
   id="text3162"
   transform="matrix(1,0,0,-1,54.8281,326.833)"><tspan
     id="tspan3164"
     sodipodi:role="line"
     y="0"
     x="0 7.632"
     style="font-size:12;font-weight:normal;writing-mode:lr;fill-rule:nonzero;fill-opacity:1;stroke:none;-inkscape-font-specification:Serif;font-variant:normal;font-family:Serif;fill:#000000">10</tspan><tspan
     id="tspan3166"
     sodipodi:role="line"
     y="-57.5137"
     x="0.405859 8.037859"
     style="font-size:12;font-weight:normal;writing-mode:lr;fill-rule:nonzero;fill-opacity:1;stroke:none;-inkscape-font-specification:Serif;font-variant:normal;font-family:Serif;fill:#000000">12</tspan></text>

<text
   id="text3168"
   transform="matrix(0,1,1,0,47.3281,130.258)"><tspan
     id="tspan3170"
     sodipodi:role="line"
     y="0"
     x="0 3.54 11.148 15.852 23.232 28.164 35.52 42.12 46.824 50.16 57.504 65.112 68.928 77.268 84.624 89.328 96.708 100.524 105.204 112.812 116.856 123.108 127.152 131.376 134.712 142.32 149.424 153.468 160.416 168.036"
     style="font-size:12;font-weight:normal;writing-mode:lr;fill-rule:nonzero;fill-opacity:1;stroke:none;-inkscape-font-specification:Serif;font-variant:normal;font-family:Serif;fill:#000000">Interaction Rate [n/s/flux/kg]</tspan></text>

</g><path
         id="path3172"
         style="fill:none;stroke:#000000;stroke-opacity:1;stroke-width:10;stroke-linecap:square;stroke-linejoin:miter;stroke-miterlimit:10;stroke-dasharray:none"
         d="m 720,432 4464,0 0,3456 -4464,0 0,-3456" /><path
         id="path3174"
         style="fill:#ffffff;fill-opacity:1;fill-rule:nonzero;stroke:none"
         d="m 3277.49,3495.85 1817.23,0 0,323.027 -1817.23,0 0,-323.027 z" /><path
         id="path3176"
         style="fill:none;stroke:#000000;stroke-opacity:1;stroke-width:10;stroke-linecap:square;stroke-linejoin:miter;stroke-miterlimit:10;stroke-dasharray:none"
         d="m 3277.49,3495.85 1817.23,0 0,323.027 -1817.23,0 0,-323.027 z" /><path
         id="path3178"
         style="fill:none;stroke:#000000;stroke-opacity:1;stroke-width:10;stroke-linecap:square;stroke-linejoin:miter;stroke-miterlimit:10;stroke-dasharray:none"
         d="m 3458.93,3737.74 223.2,0" /><path
         id="path3180"
         style="fill:none;stroke:#ff0000;stroke-opacity:1;stroke-width:10;stroke-linecap:square;stroke-linejoin:miter;stroke-miterlimit:10;stroke-dasharray:none"
         d="m 3458.93,3576.99 223.2,0" /><g
         transform="scale(10,10)"
         id="g3182"><text
   id="text3184"
   transform="matrix(1,0,0,-1,377.141,368.555)"><tspan
     id="tspan3186"
     sodipodi:role="line"
     y="0"
     x="0 8.442 14.196 22.764 31.654 40.53 48.23 53.718 57.61 66.178 75.054 79.506 89.236 97.818 103.306"
     style="font-size:14;font-weight:normal;writing-mode:lr;fill-rule:nonzero;fill-opacity:1;stroke:none;-inkscape-font-specification:Serif;font-variant:normal;font-family:Serif;fill:#000000">Production Rate</tspan><tspan
     id="tspan3188"
     sodipodi:role="line"
     y="16.075"
     x="0 10.78 19.39 26.684 32.172 37.926 46.802 54.502 59.99 63.882 72.45 81.326 85.778 95.508 104.09 109.578"
     style="font-size:14;font-weight:normal;writing-mode:lr;fill-rule:nonzero;fill-opacity:1;stroke:none;-inkscape-font-specification:Serif;font-variant:normal;font-family:Serif;fill:#000000">Destruction Rate</tspan></text>

</g></g></g></svg>