<?xml version="1.0" encoding="UTF-8" standalone="no"?>
<!-- Created with Inkscape (http://www.inkscape.org/) -->

<svg
   xmlns:dc="http://purl.org/dc/elements/1.1/"
   xmlns:cc="http://creativecommons.org/ns#"
   xmlns:rdf="http://www.w3.org/1999/02/22-rdf-syntax-ns#"
   xmlns:svg="http://www.w3.org/2000/svg"
   xmlns="http://www.w3.org/2000/svg"
   xmlns:sodipodi="http://sodipodi.sourceforge.net/DTD/sodipodi-0.dtd"
   xmlns:inkscape="http://www.inkscape.org/namespaces/inkscape"
   id="svg14480"
   version="1.1"
   inkscape:version="0.48.2 r9819"
   width="720"
   height="540"
   xml:space="preserve"
   sodipodi:docname="pu239io_se.eps"><sodipodi:namedview
     pagecolor="#ffffff"
     bordercolor="#666666"
     borderopacity="1"
     objecttolerance="10"
     gridtolerance="10"
     guidetolerance="10"
     inkscape:pageopacity="0"
     inkscape:pageshadow="2"
     inkscape:window-width="1438"
     inkscape:window-height="868"
     id="namedview14482"
     showgrid="false"
     inkscape:zoom="0.43703704"
     inkscape:cx="360"
     inkscape:cy="270"
     inkscape:window-x="0"
     inkscape:window-y="30"
     inkscape:window-maximized="0"
     inkscape:current-layer="g14488" /><metadata
     id="metadata14486"><rdf:RDF><cc:Work
         rdf:about=""><dc:format>image/svg+xml</dc:format><dc:type
           rdf:resource="http://purl.org/dc/dcmitype/StillImage" /><dc:title></dc:title></cc:Work></rdf:RDF></metadata><defs
     id="defs14484"><clipPath
       id="clipPath14504"
       clipPathUnits="userSpaceOnUse"><path
         id="path14506"
         d="m 720,432 4464,0 0,3456 -4464,0 0,-3456 z" /></clipPath></defs><g
     transform="matrix(1.25,0,0,-1.25,0,540)"
     inkscape:label="ink_ext_XXXXXX"
     inkscape:groupmode="layer"
     id="g14488"><g
       transform="scale(0.1,0.1)"
       id="g14490"><path
         id="path14492"
         style="fill:#ffffff;fill-opacity:1;fill-rule:nonzero;stroke:none"
         d="m 0,0 5760,0 0,4320 L 0,4320 0,0 z" /><path
         id="path14494"
         style="fill:none;stroke:#ffffff;stroke-opacity:1;stroke-width:10;stroke-linecap:square;stroke-linejoin:miter;stroke-miterlimit:10;stroke-dasharray:none"
         d="m 0,0 5760,0 0,4320 L 0,4320 0,0 z" /><path
         id="path14496"
         style="fill:#ffffff;fill-opacity:1;fill-rule:nonzero;stroke:none"
         d="m 720,432 4464,0 0,3456 -4464,0 0,-3456 z" /><path
         id="path14498"
         style="fill:none;stroke:#000000;stroke-opacity:1;stroke-width:10;stroke-linecap:square;stroke-linejoin:miter;stroke-miterlimit:10;stroke-dasharray:none"
         d="m 720,432 4464,0 0,3456 -4464,0 0,-3456 z" /><g
         id="g14500"><g
           clip-path="url(#clipPath14504)"
           id="g14502"><path
             id="path14508"
             style="fill:none;stroke:#000000;stroke-opacity:1;stroke-width:10;stroke-linecap:square;stroke-linejoin:miter;stroke-miterlimit:10;stroke-dasharray:none"
             d="m 720,3576.59 496,47.82 496,-176.24 496,-136.07 496,-83.74 496,-50.09 496,-30.83 496,-18.59 992,0" /><path
             id="path14510"
             style="fill:none;stroke:#ff0000;stroke-opacity:1;stroke-width:10;stroke-linecap:butt;stroke-linejoin:miter;stroke-miterlimit:10;stroke-dasharray:60,60;stroke-dashoffset:0"
             d="m 720,1257.19 496,1.68 496,-92.5 496,-72.53 496,-46.26 496,-28.35 496,-17.26 496,-11.286 992,0" /><path
             id="path14512"
             style="fill:none;stroke:#0000ff;stroke-opacity:1;stroke-width:10;stroke-linecap:square;stroke-linejoin:miter;stroke-miterlimit:10;stroke-dasharray:none"
             d="m 720,3576.59 496,53.09 496,-217 496,-186.92 496,-128.59 496,-84.59 496,-57.28 496,-39.43 496,-28.38 496,-20.17" /><path
             id="path14514"
             style="fill:#0000ff;fill-opacity:1;fill-rule:nonzero;stroke:none"
             d="m 750,3576.59 -0.238,3.76 -0.703,3.7 -1.164,3.58 -1.606,3.41 -2.019,3.18 -2.403,2.9 -2.746,2.59 -3.047,2.21 -3.301,1.81 -3.503,1.39 -3.649,0.94 -3.738,0.47 -3.766,0 -3.738,-0.47 -3.649,-0.94 -3.503,-1.39 -3.301,-1.81 -3.047,-2.21 -2.746,-2.59 -2.403,-2.9 -2.019,-3.18 -1.606,-3.41 -1.164,-3.58 -0.703,-3.7 -0.238,-3.76 0.238,-3.76 0.703,-3.7 1.164,-3.58 1.606,-3.41 2.019,-3.18 2.403,-2.91 2.746,-2.58 3.047,-2.21 3.301,-1.81 3.503,-1.39 3.649,-0.94 3.738,-0.47 3.766,0 3.738,0.47 3.649,0.94 3.503,1.39 3.301,1.81 3.047,2.21 2.746,2.58 2.403,2.91 2.019,3.18 1.606,3.41 1.164,3.58 0.703,3.7" /><path
             id="path14516"
             style="fill:none;stroke:#000000;stroke-opacity:1;stroke-width:5;stroke-linecap:butt;stroke-linejoin:miter;stroke-miterlimit:10;stroke-dasharray:none"
             d="m 750,3576.59 -0.238,3.76 -0.703,3.7 -1.164,3.58 -1.606,3.41 -2.019,3.18 -2.403,2.9 -2.746,2.59 -3.047,2.21 -3.301,1.81 -3.503,1.39 -3.649,0.94 -3.738,0.47 -3.766,0 -3.738,-0.47 -3.649,-0.94 -3.503,-1.39 -3.301,-1.81 -3.047,-2.21 -2.746,-2.59 -2.403,-2.9 -2.019,-3.18 -1.606,-3.41 -1.164,-3.58 -0.703,-3.7 -0.238,-3.76 0.238,-3.76 0.703,-3.7 1.164,-3.58 1.606,-3.41 2.019,-3.18 2.403,-2.91 2.746,-2.58 3.047,-2.21 3.301,-1.81 3.503,-1.39 3.649,-0.94 3.738,-0.47 3.766,0 3.738,0.47 3.649,0.94 3.503,1.39 3.301,1.81 3.047,2.21 2.746,2.58 2.403,2.91 2.019,3.18 1.606,3.41 1.164,3.58 0.703,3.7 0.238,3.76 z" /><path
             id="path14518"
             style="fill:#0000ff;fill-opacity:1;fill-rule:nonzero;stroke:none"
             d="m 1246,3629.68 -0.24,3.76 -0.7,3.7 -1.17,3.58 -1.6,3.41 -2.02,3.18 -2.4,2.9 -2.75,2.59 -3.05,2.21 -3.3,1.81 -3.5,1.39 -3.65,0.94 -3.74,0.47 -3.76,0 -3.74,-0.47 -3.65,-0.94 -3.5,-1.39 -3.3,-1.81 -3.05,-2.21 -2.75,-2.59 -2.4,-2.9 -2.02,-3.18 -1.6,-3.41 -1.17,-3.58 -0.7,-3.7 -0.24,-3.76 0.24,-3.76 0.7,-3.7 1.17,-3.58 1.6,-3.41 2.02,-3.18 2.4,-2.91 2.75,-2.57 3.05,-2.22 3.3,-1.81 3.5,-1.39 3.65,-0.94 3.74,-0.47 3.76,0 3.74,0.47 3.65,0.94 3.5,1.39 3.3,1.81 3.05,2.22 2.75,2.57 2.4,2.91 2.02,3.18 1.6,3.41 1.17,3.58 0.7,3.7" /><path
             id="path14520"
             style="fill:none;stroke:#000000;stroke-opacity:1;stroke-width:5;stroke-linecap:butt;stroke-linejoin:miter;stroke-miterlimit:10;stroke-dasharray:none"
             d="m 1246,3629.68 -0.24,3.76 -0.7,3.7 -1.17,3.58 -1.6,3.41 -2.02,3.18 -2.4,2.9 -2.75,2.59 -3.05,2.21 -3.3,1.81 -3.5,1.39 -3.65,0.94 -3.74,0.47 -3.76,0 -3.74,-0.47 -3.65,-0.94 -3.5,-1.39 -3.3,-1.81 -3.05,-2.21 -2.75,-2.59 -2.4,-2.9 -2.02,-3.18 -1.6,-3.41 -1.17,-3.58 -0.7,-3.7 -0.24,-3.76 0.24,-3.76 0.7,-3.7 1.17,-3.58 1.6,-3.41 2.02,-3.18 2.4,-2.91 2.75,-2.57 3.05,-2.22 3.3,-1.81 3.5,-1.39 3.65,-0.94 3.74,-0.47 3.76,0 3.74,0.47 3.65,0.94 3.5,1.39 3.3,1.81 3.05,2.22 2.75,2.57 2.4,2.91 2.02,3.18 1.6,3.41 1.17,3.58 0.7,3.7 0.24,3.76 z" /><path
             id="path14522"
             style="fill:#0000ff;fill-opacity:1;fill-rule:nonzero;stroke:none"
             d="m 1742,3412.68 -0.24,3.76 -0.7,3.7 -1.17,3.58 -1.6,3.41 -2.02,3.18 -2.4,2.9 -2.75,2.59 -3.05,2.21 -3.3,1.81 -3.5,1.39 -3.65,0.94 -3.74,0.47 -3.76,0 -3.74,-0.47 -3.65,-0.94 -3.5,-1.39 -3.3,-1.81 -3.05,-2.21 -2.75,-2.59 -2.4,-2.9 -2.02,-3.18 -1.6,-3.41 -1.17,-3.58 -0.7,-3.7 -0.24,-3.76 0.24,-3.76 0.7,-3.7 1.17,-3.58 1.6,-3.41 2.02,-3.18 2.4,-2.91 2.75,-2.57 3.05,-2.22 3.3,-1.81 3.5,-1.39 3.65,-0.94 3.74,-0.47 3.76,0 3.74,0.47 3.65,0.94 3.5,1.39 3.3,1.81 3.05,2.22 2.75,2.57 2.4,2.91 2.02,3.18 1.6,3.41 1.17,3.58 0.7,3.7" /><path
             id="path14524"
             style="fill:none;stroke:#000000;stroke-opacity:1;stroke-width:5;stroke-linecap:butt;stroke-linejoin:miter;stroke-miterlimit:10;stroke-dasharray:none"
             d="m 1742,3412.68 -0.24,3.76 -0.7,3.7 -1.17,3.58 -1.6,3.41 -2.02,3.18 -2.4,2.9 -2.75,2.59 -3.05,2.21 -3.3,1.81 -3.5,1.39 -3.65,0.94 -3.74,0.47 -3.76,0 -3.74,-0.47 -3.65,-0.94 -3.5,-1.39 -3.3,-1.81 -3.05,-2.21 -2.75,-2.59 -2.4,-2.9 -2.02,-3.18 -1.6,-3.41 -1.17,-3.58 -0.7,-3.7 -0.24,-3.76 0.24,-3.76 0.7,-3.7 1.17,-3.58 1.6,-3.41 2.02,-3.18 2.4,-2.91 2.75,-2.57 3.05,-2.22 3.3,-1.81 3.5,-1.39 3.65,-0.94 3.74,-0.47 3.76,0 3.74,0.47 3.65,0.94 3.5,1.39 3.3,1.81 3.05,2.22 2.75,2.57 2.4,2.91 2.02,3.18 1.6,3.41 1.17,3.58 0.7,3.7 0.24,3.76 z" /><path
             id="path14526"
             style="fill:#0000ff;fill-opacity:1;fill-rule:nonzero;stroke:none"
             d="m 2238,3225.76 -0.24,3.76 -0.7,3.7 -1.17,3.58 -1.6,3.41 -2.02,3.18 -2.4,2.91 -2.75,2.58 -3.05,2.21 -3.3,1.82 -3.5,1.38 -3.65,0.94 -3.74,0.47 -3.76,0 -3.74,-0.47 -3.65,-0.94 -3.5,-1.38 -3.3,-1.82 -3.05,-2.21 -2.75,-2.58 -2.4,-2.91 -2.02,-3.18 -1.6,-3.41 -1.17,-3.58 -0.7,-3.7 -0.24,-3.76 0.24,-3.76 0.7,-3.7 1.17,-3.59 1.6,-3.4 2.02,-3.19 2.4,-2.9 2.75,-2.58 3.05,-2.21 3.3,-1.82 3.5,-1.38 3.65,-0.94 3.74,-0.47 3.76,0 3.74,0.47 3.65,0.94 3.5,1.38 3.3,1.82 3.05,2.21 2.75,2.58 2.4,2.9 2.02,3.19 1.6,3.4 1.17,3.59 0.7,3.7" /><path
             id="path14528"
             style="fill:none;stroke:#000000;stroke-opacity:1;stroke-width:5;stroke-linecap:butt;stroke-linejoin:miter;stroke-miterlimit:10;stroke-dasharray:none"
             d="m 2238,3225.76 -0.24,3.76 -0.7,3.7 -1.17,3.58 -1.6,3.41 -2.02,3.18 -2.4,2.91 -2.75,2.58 -3.05,2.21 -3.3,1.82 -3.5,1.38 -3.65,0.94 -3.74,0.47 -3.76,0 -3.74,-0.47 -3.65,-0.94 -3.5,-1.38 -3.3,-1.82 -3.05,-2.21 -2.75,-2.58 -2.4,-2.91 -2.02,-3.18 -1.6,-3.41 -1.17,-3.58 -0.7,-3.7 -0.24,-3.76 0.24,-3.76 0.7,-3.7 1.17,-3.59 1.6,-3.4 2.02,-3.19 2.4,-2.9 2.75,-2.58 3.05,-2.21 3.3,-1.82 3.5,-1.38 3.65,-0.94 3.74,-0.47 3.76,0 3.74,0.47 3.65,0.94 3.5,1.38 3.3,1.82 3.05,2.21 2.75,2.58 2.4,2.9 2.02,3.19 1.6,3.4 1.17,3.59 0.7,3.7 0.24,3.76 z" /><path
             id="path14530"
             style="fill:#0000ff;fill-opacity:1;fill-rule:nonzero;stroke:none"
             d="m 2734,3097.17 -0.24,3.76 -0.7,3.7 -1.17,3.58 -1.6,3.41 -2.02,3.18 -2.4,2.91 -2.75,2.58 -3.05,2.21 -3.3,1.82 -3.5,1.38 -3.65,0.94 -3.74,0.47 -3.76,0 -3.74,-0.47 -3.65,-0.94 -3.5,-1.38 -3.3,-1.82 -3.05,-2.21 -2.75,-2.58 -2.4,-2.91 -2.02,-3.18 -1.6,-3.41 -1.17,-3.58 -0.7,-3.7 -0.24,-3.76 0.24,-3.76 0.7,-3.7 1.17,-3.59 1.6,-3.4 2.02,-3.18 2.4,-2.91 2.75,-2.58 3.05,-2.21 3.3,-1.81 3.5,-1.39 3.65,-0.94 3.74,-0.47 3.76,0 3.74,0.47 3.65,0.94 3.5,1.39 3.3,1.81 3.05,2.21 2.75,2.58 2.4,2.91 2.02,3.18 1.6,3.4 1.17,3.59 0.7,3.7" /><path
             id="path14532"
             style="fill:none;stroke:#000000;stroke-opacity:1;stroke-width:5;stroke-linecap:butt;stroke-linejoin:miter;stroke-miterlimit:10;stroke-dasharray:none"
             d="m 2734,3097.17 -0.24,3.76 -0.7,3.7 -1.17,3.58 -1.6,3.41 -2.02,3.18 -2.4,2.91 -2.75,2.58 -3.05,2.21 -3.3,1.82 -3.5,1.38 -3.65,0.94 -3.74,0.47 -3.76,0 -3.74,-0.47 -3.65,-0.94 -3.5,-1.38 -3.3,-1.82 -3.05,-2.21 -2.75,-2.58 -2.4,-2.91 -2.02,-3.18 -1.6,-3.41 -1.17,-3.58 -0.7,-3.7 -0.24,-3.76 0.24,-3.76 0.7,-3.7 1.17,-3.59 1.6,-3.4 2.02,-3.18 2.4,-2.91 2.75,-2.58 3.05,-2.21 3.3,-1.81 3.5,-1.39 3.65,-0.94 3.74,-0.47 3.76,0 3.74,0.47 3.65,0.94 3.5,1.39 3.3,1.81 3.05,2.21 2.75,2.58 2.4,2.91 2.02,3.18 1.6,3.4 1.17,3.59 0.7,3.7 0.24,3.76 z" /><path
             id="path14534"
             style="fill:#0000ff;fill-opacity:1;fill-rule:nonzero;stroke:none"
             d="m 3230,3012.58 -0.24,3.76 -0.7,3.7 -1.17,3.58 -1.6,3.41 -2.02,3.18 -2.4,2.91 -2.75,2.58 -3.05,2.21 -3.3,1.82 -3.5,1.38 -3.65,0.94 -3.74,0.47 -3.76,0 -3.74,-0.47 -3.65,-0.94 -3.5,-1.38 -3.3,-1.82 -3.05,-2.21 -2.75,-2.58 -2.4,-2.91 -2.02,-3.18 -1.6,-3.41 -1.17,-3.58 -0.7,-3.7 -0.24,-3.76 0.24,-3.76 0.7,-3.7 1.17,-3.58 1.6,-3.41 2.02,-3.18 2.4,-2.91 2.75,-2.58 3.05,-2.21 3.3,-1.82 3.5,-1.38 3.65,-0.94 3.74,-0.47 3.76,0 3.74,0.47 3.65,0.94 3.5,1.38 3.3,1.82 3.05,2.21 2.75,2.58 2.4,2.91 2.02,3.18 1.6,3.41 1.17,3.58 0.7,3.7" /><path
             id="path14536"
             style="fill:none;stroke:#000000;stroke-opacity:1;stroke-width:5;stroke-linecap:butt;stroke-linejoin:miter;stroke-miterlimit:10;stroke-dasharray:none"
             d="m 3230,3012.58 -0.24,3.76 -0.7,3.7 -1.17,3.58 -1.6,3.41 -2.02,3.18 -2.4,2.91 -2.75,2.58 -3.05,2.21 -3.3,1.82 -3.5,1.38 -3.65,0.94 -3.74,0.47 -3.76,0 -3.74,-0.47 -3.65,-0.94 -3.5,-1.38 -3.3,-1.82 -3.05,-2.21 -2.75,-2.58 -2.4,-2.91 -2.02,-3.18 -1.6,-3.41 -1.17,-3.58 -0.7,-3.7 -0.24,-3.76 0.24,-3.76 0.7,-3.7 1.17,-3.58 1.6,-3.41 2.02,-3.18 2.4,-2.91 2.75,-2.58 3.05,-2.21 3.3,-1.82 3.5,-1.38 3.65,-0.94 3.74,-0.47 3.76,0 3.74,0.47 3.65,0.94 3.5,1.38 3.3,1.82 3.05,2.21 2.75,2.58 2.4,2.91 2.02,3.18 1.6,3.41 1.17,3.58 0.7,3.7 0.24,3.76 z" /><path
             id="path14538"
             style="fill:#0000ff;fill-opacity:1;fill-rule:nonzero;stroke:none"
             d="m 3726,2955.3 -0.24,3.76 -0.7,3.7 -1.17,3.58 -1.6,3.41 -2.02,3.18 -2.4,2.91 -2.75,2.57 -3.05,2.22 -3.3,1.82 -3.5,1.38 -3.65,0.94 -3.74,0.47 -3.76,0 -3.74,-0.47 -3.65,-0.94 -3.5,-1.38 -3.3,-1.82 -3.05,-2.22 -2.75,-2.57 -2.4,-2.91 -2.02,-3.18 -1.6,-3.41 -1.17,-3.58 -0.7,-3.7 -0.24,-3.76 0.24,-3.76 0.7,-3.7 1.17,-3.58 1.6,-3.41 2.02,-3.18 2.4,-2.9 2.75,-2.59 3.05,-2.21 3.3,-1.81 3.5,-1.39 3.65,-0.94 3.74,-0.47 3.76,0 3.74,0.47 3.65,0.94 3.5,1.39 3.3,1.81 3.05,2.21 2.75,2.59 2.4,2.9 2.02,3.18 1.6,3.41 1.17,3.58 0.7,3.7" /><path
             id="path14540"
             style="fill:none;stroke:#000000;stroke-opacity:1;stroke-width:5;stroke-linecap:butt;stroke-linejoin:miter;stroke-miterlimit:10;stroke-dasharray:none"
             d="m 3726,2955.3 -0.24,3.76 -0.7,3.7 -1.17,3.58 -1.6,3.41 -2.02,3.18 -2.4,2.91 -2.75,2.57 -3.05,2.22 -3.3,1.82 -3.5,1.38 -3.65,0.94 -3.74,0.47 -3.76,0 -3.74,-0.47 -3.65,-0.94 -3.5,-1.38 -3.3,-1.82 -3.05,-2.22 -2.75,-2.57 -2.4,-2.91 -2.02,-3.18 -1.6,-3.41 -1.17,-3.58 -0.7,-3.7 -0.24,-3.76 0.24,-3.76 0.7,-3.7 1.17,-3.58 1.6,-3.41 2.02,-3.18 2.4,-2.9 2.75,-2.59 3.05,-2.21 3.3,-1.81 3.5,-1.39 3.65,-0.94 3.74,-0.47 3.76,0 3.74,0.47 3.65,0.94 3.5,1.39 3.3,1.81 3.05,2.21 2.75,2.59 2.4,2.9 2.02,3.18 1.6,3.41 1.17,3.58 0.7,3.7 0.24,3.76 z" /><path
             id="path14542"
             style="fill:#0000ff;fill-opacity:1;fill-rule:nonzero;stroke:none"
             d="m 4222,2915.87 -0.24,3.76 -0.7,3.7 -1.17,3.58 -1.6,3.41 -2.02,3.18 -2.4,2.91 -2.75,2.57 -3.05,2.22 -3.3,1.82 -3.5,1.38 -3.65,0.94 -3.74,0.47 -3.76,0 -3.74,-0.47 -3.65,-0.94 -3.5,-1.38 -3.3,-1.82 -3.05,-2.22 -2.75,-2.57 -2.4,-2.91 -2.02,-3.18 -1.6,-3.41 -1.17,-3.58 -0.7,-3.7 -0.24,-3.76 0.24,-3.76 0.7,-3.7 1.17,-3.58 1.6,-3.41 2.02,-3.18 2.4,-2.91 2.75,-2.58 3.05,-2.21 3.3,-1.81 3.5,-1.39 3.65,-0.94 3.74,-0.47 3.76,0 3.74,0.47 3.65,0.94 3.5,1.39 3.3,1.81 3.05,2.21 2.75,2.58 2.4,2.91 2.02,3.18 1.6,3.41 1.17,3.58 0.7,3.7" /><path
             id="path14544"
             style="fill:none;stroke:#000000;stroke-opacity:1;stroke-width:5;stroke-linecap:butt;stroke-linejoin:miter;stroke-miterlimit:10;stroke-dasharray:none"
             d="m 4222,2915.87 -0.24,3.76 -0.7,3.7 -1.17,3.58 -1.6,3.41 -2.02,3.18 -2.4,2.91 -2.75,2.57 -3.05,2.22 -3.3,1.82 -3.5,1.38 -3.65,0.94 -3.74,0.47 -3.76,0 -3.74,-0.47 -3.65,-0.94 -3.5,-1.38 -3.3,-1.82 -3.05,-2.22 -2.75,-2.57 -2.4,-2.91 -2.02,-3.18 -1.6,-3.41 -1.17,-3.58 -0.7,-3.7 -0.24,-3.76 0.24,-3.76 0.7,-3.7 1.17,-3.58 1.6,-3.41 2.02,-3.18 2.4,-2.91 2.75,-2.58 3.05,-2.21 3.3,-1.81 3.5,-1.39 3.65,-0.94 3.74,-0.47 3.76,0 3.74,0.47 3.65,0.94 3.5,1.39 3.3,1.81 3.05,2.21 2.75,2.58 2.4,2.91 2.02,3.18 1.6,3.41 1.17,3.58 0.7,3.7 0.24,3.76 z" /><path
             id="path14546"
             style="fill:#0000ff;fill-opacity:1;fill-rule:nonzero;stroke:none"
             d="m 4718,2887.49 -0.24,3.76 -0.7,3.7 -1.17,3.59 -1.6,3.4 -2.02,3.18 -2.4,2.91 -2.75,2.58 -3.05,2.21 -3.3,1.82 -3.5,1.38 -3.65,0.94 -3.74,0.47 -3.76,0 -3.74,-0.47 -3.65,-0.94 -3.5,-1.38 -3.3,-1.82 -3.05,-2.21 -2.75,-2.58 -2.4,-2.91 -2.02,-3.18 -1.6,-3.4 -1.17,-3.59 -0.7,-3.7 -0.24,-3.76 0.24,-3.76 0.7,-3.7 1.17,-3.58 1.6,-3.41 2.02,-3.18 2.4,-2.91 2.75,-2.57 3.05,-2.22 3.3,-1.82 3.5,-1.38 3.65,-0.94 3.74,-0.47 3.76,0 3.74,0.47 3.65,0.94 3.5,1.38 3.3,1.82 3.05,2.22 2.75,2.57 2.4,2.91 2.02,3.18 1.6,3.41 1.17,3.58 0.7,3.7" /><path
             id="path14548"
             style="fill:none;stroke:#000000;stroke-opacity:1;stroke-width:5;stroke-linecap:butt;stroke-linejoin:miter;stroke-miterlimit:10;stroke-dasharray:none"
             d="m 4718,2887.49 -0.24,3.76 -0.7,3.7 -1.17,3.59 -1.6,3.4 -2.02,3.18 -2.4,2.91 -2.75,2.58 -3.05,2.21 -3.3,1.82 -3.5,1.38 -3.65,0.94 -3.74,0.47 -3.76,0 -3.74,-0.47 -3.65,-0.94 -3.5,-1.38 -3.3,-1.82 -3.05,-2.21 -2.75,-2.58 -2.4,-2.91 -2.02,-3.18 -1.6,-3.4 -1.17,-3.59 -0.7,-3.7 -0.24,-3.76 0.24,-3.76 0.7,-3.7 1.17,-3.58 1.6,-3.41 2.02,-3.18 2.4,-2.91 2.75,-2.57 3.05,-2.22 3.3,-1.82 3.5,-1.38 3.65,-0.94 3.74,-0.47 3.76,0 3.74,0.47 3.65,0.94 3.5,1.38 3.3,1.82 3.05,2.22 2.75,2.57 2.4,2.91 2.02,3.18 1.6,3.41 1.17,3.58 0.7,3.7 0.24,3.76 z" /><path
             id="path14550"
             style="fill:#0000ff;fill-opacity:1;fill-rule:nonzero;stroke:none"
             d="m 5214,2867.32 -0.24,3.76 -0.7,3.7 -1.17,3.58 -1.6,3.41 -2.02,3.18 -2.4,2.91 -2.75,2.57 -3.05,2.22 -3.3,1.81 -3.5,1.39 -3.65,0.94 -3.74,0.47 -3.76,0 -3.74,-0.47 -3.65,-0.94 -3.5,-1.39 -3.3,-1.81 -3.05,-2.22 -2.75,-2.57 -2.4,-2.91 -2.02,-3.18 -1.6,-3.41 -1.17,-3.58 -0.7,-3.7 -0.24,-3.76 0.24,-3.76 0.7,-3.7 1.17,-3.58 1.6,-3.41 2.02,-3.18 2.4,-2.9 2.75,-2.59 3.05,-2.21 3.3,-1.81 3.5,-1.39 3.65,-0.94 3.74,-0.47 3.76,0 3.74,0.47 3.65,0.94 3.5,1.39 3.3,1.81 3.05,2.21 2.75,2.59 2.4,2.9 2.02,3.18 1.6,3.41 1.17,3.58 0.7,3.7" /><path
             id="path14552"
             style="fill:none;stroke:#000000;stroke-opacity:1;stroke-width:5;stroke-linecap:butt;stroke-linejoin:miter;stroke-miterlimit:10;stroke-dasharray:none"
             d="m 5214,2867.32 -0.24,3.76 -0.7,3.7 -1.17,3.58 -1.6,3.41 -2.02,3.18 -2.4,2.91 -2.75,2.57 -3.05,2.22 -3.3,1.81 -3.5,1.39 -3.65,0.94 -3.74,0.47 -3.76,0 -3.74,-0.47 -3.65,-0.94 -3.5,-1.39 -3.3,-1.81 -3.05,-2.22 -2.75,-2.57 -2.4,-2.91 -2.02,-3.18 -1.6,-3.41 -1.17,-3.58 -0.7,-3.7 -0.24,-3.76 0.24,-3.76 0.7,-3.7 1.17,-3.58 1.6,-3.41 2.02,-3.18 2.4,-2.9 2.75,-2.59 3.05,-2.21 3.3,-1.81 3.5,-1.39 3.65,-0.94 3.74,-0.47 3.76,0 3.74,0.47 3.65,0.94 3.5,1.39 3.3,1.81 3.05,2.21 2.75,2.59 2.4,2.9 2.02,3.18 1.6,3.41 1.17,3.58 0.7,3.7 0.24,3.76 z" /><path
             id="path14554"
             style="fill:none;stroke:#008000;stroke-opacity:1;stroke-width:10;stroke-linecap:square;stroke-linejoin:miter;stroke-miterlimit:10;stroke-dasharray:none"
             d="m 720,1257.19 496,2.08 496,-114.43 496,-99.23 496,-69.559 496,-49.055 496,-32.719 496,-23.011 496,-16.141 496,-11.82" /><path
             id="path14556"
             style="fill:#008000;fill-opacity:1;fill-rule:nonzero;stroke:none"
             d="m 690,1227.19 60,0 0,60 -60,0 0,-60 z" /><path
             id="path14558"
             style="fill:none;stroke:#000000;stroke-opacity:1;stroke-width:5;stroke-linecap:butt;stroke-linejoin:miter;stroke-miterlimit:10;stroke-dasharray:none"
             d="m 690,1227.19 60,0 0,60 -60,0 0,-60 z" /><path
             id="path14560"
             style="fill:#008000;fill-opacity:1;fill-rule:nonzero;stroke:none"
             d="m 1186,1229.27 60,0 0,60 -60,0 0,-60 z" /><path
             id="path14562"
             style="fill:none;stroke:#000000;stroke-opacity:1;stroke-width:5;stroke-linecap:butt;stroke-linejoin:miter;stroke-miterlimit:10;stroke-dasharray:none"
             d="m 1186,1229.27 60,0 0,60 -60,0 0,-60 z" /><path
             id="path14564"
             style="fill:#008000;fill-opacity:1;fill-rule:nonzero;stroke:none"
             d="m 1682,1114.84 60,0 0,60 -60,0 0,-60 z" /><path
             id="path14566"
             style="fill:none;stroke:#000000;stroke-opacity:1;stroke-width:5;stroke-linecap:butt;stroke-linejoin:miter;stroke-miterlimit:10;stroke-dasharray:none"
             d="m 1682,1114.84 60,0 0,60 -60,0 0,-60 z" /><path
             id="path14568"
             style="fill:#008000;fill-opacity:1;fill-rule:nonzero;stroke:none"
             d="m 2178,1015.61 60,0 0,60 -60,0 0,-60 z" /><path
             id="path14570"
             style="fill:none;stroke:#000000;stroke-opacity:1;stroke-width:5;stroke-linecap:butt;stroke-linejoin:miter;stroke-miterlimit:10;stroke-dasharray:none"
             d="m 2178,1015.61 60,0 0,60 -60,0 0,-60 z" /><path
             id="path14572"
             style="fill:#008000;fill-opacity:1;fill-rule:nonzero;stroke:none"
             d="m 2674,946.051 60,0 0,60 -60,0 0,-60 z" /><path
             id="path14574"
             style="fill:none;stroke:#000000;stroke-opacity:1;stroke-width:5;stroke-linecap:butt;stroke-linejoin:miter;stroke-miterlimit:10;stroke-dasharray:none"
             d="m 2674,946.051 60,0 0,60 -60,0 0,-60 z" /><path
             id="path14576"
             style="fill:#008000;fill-opacity:1;fill-rule:nonzero;stroke:none"
             d="m 3170,896.996 60,0 0,60 -60,0 0,-60 z" /><path
             id="path14578"
             style="fill:none;stroke:#000000;stroke-opacity:1;stroke-width:5;stroke-linecap:butt;stroke-linejoin:miter;stroke-miterlimit:10;stroke-dasharray:none"
             d="m 3170,896.996 60,0 0,60 -60,0 0,-60 z" /><path
             id="path14580"
             style="fill:#008000;fill-opacity:1;fill-rule:nonzero;stroke:none"
             d="m 3666,864.277 60,0 0,60 -60,0 0,-60 z" /><path
             id="path14582"
             style="fill:none;stroke:#000000;stroke-opacity:1;stroke-width:5;stroke-linecap:butt;stroke-linejoin:miter;stroke-miterlimit:10;stroke-dasharray:none"
             d="m 3666,864.277 60,0 0,60 -60,0 0,-60 z" /><path
             id="path14584"
             style="fill:#008000;fill-opacity:1;fill-rule:nonzero;stroke:none"
             d="m 4162,841.266 60,0 0,60 -60,0 0,-60 z" /><path
             id="path14586"
             style="fill:none;stroke:#000000;stroke-opacity:1;stroke-width:5;stroke-linecap:butt;stroke-linejoin:miter;stroke-miterlimit:10;stroke-dasharray:none"
             d="m 4162,841.266 60,0 0,60 -60,0 0,-60 z" /><path
             id="path14588"
             style="fill:#008000;fill-opacity:1;fill-rule:nonzero;stroke:none"
             d="m 4658,825.125 60,0 0,60 -60,0 0,-60 z" /><path
             id="path14590"
             style="fill:none;stroke:#000000;stroke-opacity:1;stroke-width:5;stroke-linecap:butt;stroke-linejoin:miter;stroke-miterlimit:10;stroke-dasharray:none"
             d="m 4658,825.125 60,0 0,60 -60,0 0,-60 z" /><path
             id="path14592"
             style="fill:#008000;fill-opacity:1;fill-rule:nonzero;stroke:none"
             d="m 5154,813.305 60,0 0,60 -60,0 0,-60 z" /><path
             id="path14594"
             style="fill:none;stroke:#000000;stroke-opacity:1;stroke-width:5;stroke-linecap:butt;stroke-linejoin:miter;stroke-miterlimit:10;stroke-dasharray:none"
             d="m 5154,813.305 60,0 0,60 -60,0 0,-60 z" /></g></g><g
         transform="scale(10,10)"
         id="g14596"><text
   id="text14598"
   transform="matrix(1,0,0,-1,69.391,30.45)"><tspan
     id="tspan14600"
     y="0"
     x="0"
     style="font-size:12;font-weight:normal;writing-mode:lr;fill-rule:nonzero;fill-opacity:1;stroke:none;-inkscape-font-specification:Serif;font-variant:normal;font-family:Serif;fill:#000000">1</tspan></text>

</g><path
         id="path14602"
         style="fill:none;stroke:#000000;stroke-opacity:1;stroke-width:5;stroke-linecap:butt;stroke-linejoin:miter;stroke-miterlimit:10;stroke-dasharray:none"
         d="m 1211,432 0,40 0,-40 z" /><path
         id="path14604"
         style="fill:none;stroke:#000000;stroke-opacity:1;stroke-width:5;stroke-linecap:butt;stroke-linejoin:miter;stroke-miterlimit:10;stroke-dasharray:none"
         d="m 1211,3848 0,40 0,-40 z" /><g
         transform="scale(10,10)"
         id="g14606"><text
   id="text14608"
   transform="matrix(1,0,0,-1,118.819,30.2941)"><tspan
     id="tspan14610"
     y="0"
     x="0"
     style="font-size:12;font-weight:normal;writing-mode:lr;fill-rule:nonzero;fill-opacity:1;stroke:none;-inkscape-font-specification:Serif;font-variant:normal;font-family:Serif;fill:#000000">2</tspan></text>

</g><path
         id="path14612"
         style="fill:none;stroke:#000000;stroke-opacity:1;stroke-width:5;stroke-linecap:butt;stroke-linejoin:miter;stroke-miterlimit:10;stroke-dasharray:none"
         d="m 1707,432 0,40 0,-40 z" /><path
         id="path14614"
         style="fill:none;stroke:#000000;stroke-opacity:1;stroke-width:5;stroke-linecap:butt;stroke-linejoin:miter;stroke-miterlimit:10;stroke-dasharray:none"
         d="m 1707,3848 0,40 0,-40 z" /><g
         transform="scale(10,10)"
         id="g14616"><text
   id="text14618"
   transform="matrix(1,0,0,-1,168.325,30.2941)"><tspan
     id="tspan14620"
     y="0"
     x="0"
     style="font-size:12;font-weight:normal;writing-mode:lr;fill-rule:nonzero;fill-opacity:1;stroke:none;-inkscape-font-specification:Serif;font-variant:normal;font-family:Serif;fill:#000000">3</tspan></text>

</g><path
         id="path14622"
         style="fill:none;stroke:#000000;stroke-opacity:1;stroke-width:5;stroke-linecap:butt;stroke-linejoin:miter;stroke-miterlimit:10;stroke-dasharray:none"
         d="m 2203,432 0,40 0,-40 z" /><path
         id="path14624"
         style="fill:none;stroke:#000000;stroke-opacity:1;stroke-width:5;stroke-linecap:butt;stroke-linejoin:miter;stroke-miterlimit:10;stroke-dasharray:none"
         d="m 2203,3848 0,40 0,-40 z" /><g
         transform="scale(10,10)"
         id="g14626"><text
   id="text14628"
   transform="matrix(1,0,0,-1,217.612,30.45)"><tspan
     id="tspan14630"
     y="0"
     x="0"
     style="font-size:12;font-weight:normal;writing-mode:lr;fill-rule:nonzero;fill-opacity:1;stroke:none;-inkscape-font-specification:Serif;font-variant:normal;font-family:Serif;fill:#000000">4</tspan></text>

</g><path
         id="path14632"
         style="fill:none;stroke:#000000;stroke-opacity:1;stroke-width:5;stroke-linecap:butt;stroke-linejoin:miter;stroke-miterlimit:10;stroke-dasharray:none"
         d="m 2699,432 0,40 0,-40 z" /><path
         id="path14634"
         style="fill:none;stroke:#000000;stroke-opacity:1;stroke-width:5;stroke-linecap:butt;stroke-linejoin:miter;stroke-miterlimit:10;stroke-dasharray:none"
         d="m 2699,3848 0,40 0,-40 z" /><g
         transform="scale(10,10)"
         id="g14636"><text
   id="text14638"
   transform="matrix(1,0,0,-1,267.564,30.45)"><tspan
     id="tspan14640"
     y="0"
     x="0"
     style="font-size:12;font-weight:normal;writing-mode:lr;fill-rule:nonzero;fill-opacity:1;stroke:none;-inkscape-font-specification:Serif;font-variant:normal;font-family:Serif;fill:#000000">5</tspan></text>

</g><path
         id="path14642"
         style="fill:none;stroke:#000000;stroke-opacity:1;stroke-width:5;stroke-linecap:butt;stroke-linejoin:miter;stroke-miterlimit:10;stroke-dasharray:none"
         d="m 3195,432 0,40 0,-40 z" /><path
         id="path14644"
         style="fill:none;stroke:#000000;stroke-opacity:1;stroke-width:5;stroke-linecap:butt;stroke-linejoin:miter;stroke-miterlimit:10;stroke-dasharray:none"
         d="m 3195,3848 0,40 0,-40 z" /><g
         transform="scale(10,10)"
         id="g14646"><text
   id="text14648"
   transform="matrix(1,0,0,-1,316.984,30.2941)"><tspan
     id="tspan14650"
     y="0"
     x="0"
     style="font-size:12;font-weight:normal;writing-mode:lr;fill-rule:nonzero;fill-opacity:1;stroke:none;-inkscape-font-specification:Serif;font-variant:normal;font-family:Serif;fill:#000000">6</tspan></text>

</g><path
         id="path14652"
         style="fill:none;stroke:#000000;stroke-opacity:1;stroke-width:5;stroke-linecap:butt;stroke-linejoin:miter;stroke-miterlimit:10;stroke-dasharray:none"
         d="m 3691,432 0,40 0,-40 z" /><path
         id="path14654"
         style="fill:none;stroke:#000000;stroke-opacity:1;stroke-width:5;stroke-linecap:butt;stroke-linejoin:miter;stroke-miterlimit:10;stroke-dasharray:none"
         d="m 3691,3848 0,40 0,-40 z" /><g
         transform="scale(10,10)"
         id="g14656"><text
   id="text14658"
   transform="matrix(1,0,0,-1,366.787,30.45)"><tspan
     id="tspan14660"
     y="0"
     x="0"
     style="font-size:12;font-weight:normal;writing-mode:lr;fill-rule:nonzero;fill-opacity:1;stroke:none;-inkscape-font-specification:Serif;font-variant:normal;font-family:Serif;fill:#000000">7</tspan></text>

</g><path
         id="path14662"
         style="fill:none;stroke:#000000;stroke-opacity:1;stroke-width:5;stroke-linecap:butt;stroke-linejoin:miter;stroke-miterlimit:10;stroke-dasharray:none"
         d="m 4187,432 0,40 0,-40 z" /><path
         id="path14664"
         style="fill:none;stroke:#000000;stroke-opacity:1;stroke-width:5;stroke-linecap:butt;stroke-linejoin:miter;stroke-miterlimit:10;stroke-dasharray:none"
         d="m 4187,3848 0,40 0,-40 z" /><g
         transform="scale(10,10)"
         id="g14666"><text
   id="text14668"
   transform="matrix(1,0,0,-1,416.2,30.2941)"><tspan
     id="tspan14670"
     y="0"
     x="0"
     style="font-size:12;font-weight:normal;writing-mode:lr;fill-rule:nonzero;fill-opacity:1;stroke:none;-inkscape-font-specification:Serif;font-variant:normal;font-family:Serif;fill:#000000">8</tspan></text>

</g><path
         id="path14672"
         style="fill:none;stroke:#000000;stroke-opacity:1;stroke-width:5;stroke-linecap:butt;stroke-linejoin:miter;stroke-miterlimit:10;stroke-dasharray:none"
         d="m 4683,432 0,40 0,-40 z" /><path
         id="path14674"
         style="fill:none;stroke:#000000;stroke-opacity:1;stroke-width:5;stroke-linecap:butt;stroke-linejoin:miter;stroke-miterlimit:10;stroke-dasharray:none"
         d="m 4683,3848 0,40 0,-40 z" /><g
         transform="scale(10,10)"
         id="g14676"><text
   id="text14678"
   transform="matrix(1,0,0,-1,465.777,30.2941)"><tspan
     id="tspan14680"
     sodipodi:role="line"
     y="0"
     x="0 46.03716 53.66916"
     style="font-size:12;font-weight:normal;writing-mode:lr;fill-rule:nonzero;fill-opacity:1;stroke:none;-inkscape-font-specification:Serif;font-variant:normal;font-family:Serif;fill:#000000">910</tspan><tspan
     id="tspan14682"
     sodipodi:role="line"
     y="14.2973"
     x="-212.999 -204.623 -197.519 -190.919 -187.583 -180.203 -176.387 -167.411 -159.803 -148.115 -140.495 -133.115"
     style="font-size:12;font-weight:normal;writing-mode:lr;fill-rule:nonzero;fill-opacity:1;stroke:none;-inkscape-font-specification:Serif;font-variant:normal;font-family:Serif;fill:#000000">Cycle Number</tspan><tspan
     id="tspan14684"
     sodipodi:role="line"
     y="-8.5386"
     x="-422.871 -415.239 -411.423 -403.791"
     style="font-size:12;font-weight:normal;writing-mode:lr;fill-rule:nonzero;fill-opacity:1;stroke:none;-inkscape-font-specification:Serif;font-variant:normal;font-family:Serif;fill:#000000">0.09</tspan></text>

</g><path
         id="path14686"
         style="fill:none;stroke:#000000;stroke-opacity:1;stroke-width:5;stroke-linecap:butt;stroke-linejoin:miter;stroke-miterlimit:10;stroke-dasharray:none"
         d="m 720,1013 40,0 -40,0 z" /><path
         id="path14688"
         style="fill:none;stroke:#000000;stroke-opacity:1;stroke-width:5;stroke-linecap:butt;stroke-linejoin:miter;stroke-miterlimit:10;stroke-dasharray:none"
         d="m 5144,1013 40,0 -40,0 z" /><g
         transform="scale(10,10)"
         id="g14690"><text
   id="text14692"
   transform="matrix(1,0,0,-1,42.859,96.4328)"><tspan
     id="tspan14694"
     sodipodi:role="line"
     y="0"
     x="0 7.632 11.448 19.08"
     style="font-size:12;font-weight:normal;writing-mode:lr;fill-rule:nonzero;fill-opacity:1;stroke:none;-inkscape-font-specification:Serif;font-variant:normal;font-family:Serif;fill:#000000">0.10</tspan></text>

</g><path
         id="path14696"
         style="fill:none;stroke:#000000;stroke-opacity:1;stroke-width:5;stroke-linecap:butt;stroke-linejoin:miter;stroke-miterlimit:10;stroke-dasharray:none"
         d="m 720,1589 40,0 -40,0 z" /><path
         id="path14698"
         style="fill:none;stroke:#000000;stroke-opacity:1;stroke-width:5;stroke-linecap:butt;stroke-linejoin:miter;stroke-miterlimit:10;stroke-dasharray:none"
         d="m 5144,1589 40,0 -40,0 z" /><g
         transform="scale(10,10)"
         id="g14700"><text
   id="text14702"
   transform="matrix(1,0,0,-1,43.1719,154.033)"><tspan
     id="tspan14704"
     sodipodi:role="line"
     y="0"
     x="0 7.632 11.448 19.08"
     style="font-size:12;font-weight:normal;writing-mode:lr;fill-rule:nonzero;fill-opacity:1;stroke:none;-inkscape-font-specification:Serif;font-variant:normal;font-family:Serif;fill:#000000">0.11</tspan></text>

</g><path
         id="path14706"
         style="fill:none;stroke:#000000;stroke-opacity:1;stroke-width:5;stroke-linecap:butt;stroke-linejoin:miter;stroke-miterlimit:10;stroke-dasharray:none"
         d="m 720,2165 40,0 -40,0 z" /><path
         id="path14708"
         style="fill:none;stroke:#000000;stroke-opacity:1;stroke-width:5;stroke-linecap:butt;stroke-linejoin:miter;stroke-miterlimit:10;stroke-dasharray:none"
         d="m 5144,2165 40,0 -40,0 z" /><g
         transform="scale(10,10)"
         id="g14710"><text
   id="text14712"
   transform="matrix(1,0,0,-1,43.266,211.633)"><tspan
     id="tspan14714"
     sodipodi:role="line"
     y="0"
     x="0 7.632 11.448 19.08"
     style="font-size:12;font-weight:normal;writing-mode:lr;fill-rule:nonzero;fill-opacity:1;stroke:none;-inkscape-font-specification:Serif;font-variant:normal;font-family:Serif;fill:#000000">0.12</tspan></text>

</g><path
         id="path14716"
         style="fill:none;stroke:#000000;stroke-opacity:1;stroke-width:5;stroke-linecap:butt;stroke-linejoin:miter;stroke-miterlimit:10;stroke-dasharray:none"
         d="m 720,2741 40,0 -40,0 z" /><path
         id="path14718"
         style="fill:none;stroke:#000000;stroke-opacity:1;stroke-width:5;stroke-linecap:butt;stroke-linejoin:miter;stroke-miterlimit:10;stroke-dasharray:none"
         d="m 5144,2741 40,0 -40,0 z" /><g
         transform="scale(10,10)"
         id="g14720"><text
   id="text14722"
   transform="matrix(1,0,0,-1,43.0309,269.233)"><tspan
     id="tspan14724"
     sodipodi:role="line"
     y="0"
     x="0 7.632 11.448 19.08"
     style="font-size:12;font-weight:normal;writing-mode:lr;fill-rule:nonzero;fill-opacity:1;stroke:none;-inkscape-font-specification:Serif;font-variant:normal;font-family:Serif;fill:#000000">0.13</tspan></text>

</g><path
         id="path14726"
         style="fill:none;stroke:#000000;stroke-opacity:1;stroke-width:5;stroke-linecap:butt;stroke-linejoin:miter;stroke-miterlimit:10;stroke-dasharray:none"
         d="m 720,3317 40,0 -40,0 z" /><path
         id="path14728"
         style="fill:none;stroke:#000000;stroke-opacity:1;stroke-width:5;stroke-linecap:butt;stroke-linejoin:miter;stroke-miterlimit:10;stroke-dasharray:none"
         d="m 5144,3317 40,0 -40,0 z" /><g
         transform="scale(10,10)"
         id="g14730"><text
   id="text14732"
   transform="matrix(1,0,0,-1,42.734,326.833)"><tspan
     id="tspan14734"
     sodipodi:role="line"
     y="0"
     x="0 7.632 11.448 19.08"
     style="font-size:12;font-weight:normal;writing-mode:lr;fill-rule:nonzero;fill-opacity:1;stroke:none;-inkscape-font-specification:Serif;font-variant:normal;font-family:Serif;fill:#000000">0.14</tspan></text>

<text
   id="text14736"
   transform="matrix(0,1,1,0,35.234,187.523)"><tspan
     id="tspan14738"
     sodipodi:role="line"
     y="0"
     x="0 10.356 17.712 23.964 30.216 34.032 38.712 45.66 53.28"
     style="font-size:12;font-weight:normal;writing-mode:lr;fill-rule:nonzero;fill-opacity:1;stroke:none;-inkscape-font-specification:Serif;font-variant:normal;font-family:Serif;fill:#000000">Mass [kg]</tspan></text>

</g><path
         id="path14740"
         style="fill:none;stroke:#000000;stroke-opacity:1;stroke-width:10;stroke-linecap:square;stroke-linejoin:miter;stroke-miterlimit:10;stroke-dasharray:none"
         d="m 720,432 4464,0 0,3456 -4464,0 0,-3456" /><path
         id="path14742"
         style="fill:#ffffff;fill-opacity:1;fill-rule:nonzero;stroke:none"
         d="m 2111.62,1735.84 2983.1,0 0,848.32 -2983.1,0 0,-848.32 z" /><path
         id="path14744"
         style="fill:none;stroke:#000000;stroke-opacity:1;stroke-width:10;stroke-linecap:square;stroke-linejoin:miter;stroke-miterlimit:10;stroke-dasharray:none"
         d="m 2111.62,1735.84 2983.1,0 0,848.32 -2983.1,0 0,-848.32 z" /><path
         id="path14746"
         style="fill:none;stroke:#000000;stroke-opacity:1;stroke-width:10;stroke-linecap:square;stroke-linejoin:miter;stroke-miterlimit:10;stroke-dasharray:none"
         d="m 2390.21,2445.73 223.2,0" /><path
         id="path14748"
         style="fill:none;stroke:#ff0000;stroke-opacity:1;stroke-width:10;stroke-linecap:butt;stroke-linejoin:miter;stroke-miterlimit:10;stroke-dasharray:60,60;stroke-dashoffset:0"
         d="m 2390.21,2255.24 223.2,0" /><path
         id="path14750"
         style="fill:none;stroke:#0000ff;stroke-opacity:1;stroke-width:10;stroke-linecap:square;stroke-linejoin:miter;stroke-miterlimit:10;stroke-dasharray:none"
         d="m 2390.21,2064.76 223.2,0" /><path
         id="path14752"
         style="fill:#0000ff;fill-opacity:1;fill-rule:nonzero;stroke:none"
         d="m 2420.21,2064.76 -0.24,3.76 -0.7,3.7 -1.17,3.58 -1.6,3.41 -2.02,3.18 -2.4,2.91 -2.75,2.58 -3.04,2.21 -3.31,1.82 -3.5,1.38 -3.65,0.94 -3.74,0.47 -3.76,0 -3.74,-0.47 -3.65,-0.94 -3.5,-1.38 -3.3,-1.82 -3.05,-2.21 -2.75,-2.58 -2.4,-2.91 -2.02,-3.18 -1.6,-3.41 -1.17,-3.58 -0.7,-3.7 -0.24,-3.76 0.24,-3.76 0.7,-3.7 1.17,-3.59 1.6,-3.4 2.02,-3.19 2.4,-2.9 2.75,-2.58 3.05,-2.21 3.3,-1.81 3.5,-1.39 3.65,-0.94 3.74,-0.47 3.76,0 3.74,0.47 3.65,0.94 3.5,1.39 3.31,1.81 3.04,2.21 2.75,2.58 2.4,2.9 2.02,3.19 1.6,3.4 1.17,3.59 0.7,3.7" /><path
         id="path14754"
         style="fill:none;stroke:#000000;stroke-opacity:1;stroke-width:5;stroke-linecap:butt;stroke-linejoin:miter;stroke-miterlimit:10;stroke-dasharray:none"
         d="m 2420.21,2064.76 -0.24,3.76 -0.7,3.7 -1.17,3.58 -1.6,3.41 -2.02,3.18 -2.4,2.91 -2.75,2.58 -3.04,2.21 -3.31,1.82 -3.5,1.38 -3.65,0.94 -3.74,0.47 -3.76,0 -3.74,-0.47 -3.65,-0.94 -3.5,-1.38 -3.3,-1.82 -3.05,-2.21 -2.75,-2.58 -2.4,-2.91 -2.02,-3.18 -1.6,-3.41 -1.17,-3.58 -0.7,-3.7 -0.24,-3.76 0.24,-3.76 0.7,-3.7 1.17,-3.59 1.6,-3.4 2.02,-3.19 2.4,-2.9 2.75,-2.58 3.05,-2.21 3.3,-1.81 3.5,-1.39 3.65,-0.94 3.74,-0.47 3.76,0 3.74,0.47 3.65,0.94 3.5,1.39 3.31,1.81 3.04,2.21 2.75,2.58 2.4,2.9 2.02,3.19 1.6,3.4 1.17,3.59 0.7,3.7 0.24,3.76 z" /><path
         id="path14756"
         style="fill:#0000ff;fill-opacity:1;fill-rule:nonzero;stroke:none"
         d="m 2643.41,2064.76 -0.24,3.76 -0.7,3.7 -1.17,3.58 -1.6,3.41 -2.02,3.18 -2.4,2.91 -2.75,2.58 -3.05,2.21 -3.3,1.82 -3.5,1.38 -3.65,0.94 -3.74,0.47 -3.76,0 -3.74,-0.47 -3.65,-0.94 -3.5,-1.38 -3.3,-1.82 -3.05,-2.21 -2.75,-2.58 -2.4,-2.91 -2.02,-3.18 -1.6,-3.41 -1.17,-3.58 -0.7,-3.7 -0.24,-3.76 0.24,-3.76 0.7,-3.7 1.17,-3.59 1.6,-3.4 2.02,-3.19 2.4,-2.9 2.75,-2.58 3.05,-2.21 3.3,-1.81 3.5,-1.39 3.65,-0.94 3.74,-0.47 3.76,0 3.74,0.47 3.65,0.94 3.5,1.39 3.3,1.81 3.05,2.21 2.75,2.58 2.4,2.9 2.02,3.19 1.6,3.4 1.17,3.59 0.7,3.7" /><path
         id="path14758"
         style="fill:none;stroke:#000000;stroke-opacity:1;stroke-width:5;stroke-linecap:butt;stroke-linejoin:miter;stroke-miterlimit:10;stroke-dasharray:none"
         d="m 2643.41,2064.76 -0.24,3.76 -0.7,3.7 -1.17,3.58 -1.6,3.41 -2.02,3.18 -2.4,2.91 -2.75,2.58 -3.05,2.21 -3.3,1.82 -3.5,1.38 -3.65,0.94 -3.74,0.47 -3.76,0 -3.74,-0.47 -3.65,-0.94 -3.5,-1.38 -3.3,-1.82 -3.05,-2.21 -2.75,-2.58 -2.4,-2.91 -2.02,-3.18 -1.6,-3.41 -1.17,-3.58 -0.7,-3.7 -0.24,-3.76 0.24,-3.76 0.7,-3.7 1.17,-3.59 1.6,-3.4 2.02,-3.19 2.4,-2.9 2.75,-2.58 3.05,-2.21 3.3,-1.81 3.5,-1.39 3.65,-0.94 3.74,-0.47 3.76,0 3.74,0.47 3.65,0.94 3.5,1.39 3.3,1.81 3.05,2.21 2.75,2.58 2.4,2.9 2.02,3.19 1.6,3.4 1.17,3.59 0.7,3.7 0.24,3.76 z" /><path
         id="path14760"
         style="fill:none;stroke:#008000;stroke-opacity:1;stroke-width:10;stroke-linecap:square;stroke-linejoin:miter;stroke-miterlimit:10;stroke-dasharray:none"
         d="m 2390.21,1874.27 223.2,0" /><path
         id="path14762"
         style="fill:#008000;fill-opacity:1;fill-rule:nonzero;stroke:none"
         d="m 2360.21,1844.27 60,0 0,60 -60,0 0,-60 z" /><path
         id="path14764"
         style="fill:none;stroke:#000000;stroke-opacity:1;stroke-width:5;stroke-linecap:butt;stroke-linejoin:miter;stroke-miterlimit:10;stroke-dasharray:none"
         d="m 2360.21,1844.27 60,0 0,60 -60,0 0,-60 z" /><path
         id="path14766"
         style="fill:#008000;fill-opacity:1;fill-rule:nonzero;stroke:none"
         d="m 2583.41,1844.27 60,0 0,60 -60,0 0,-60 z" /><path
         id="path14768"
         style="fill:none;stroke:#000000;stroke-opacity:1;stroke-width:5;stroke-linecap:butt;stroke-linejoin:miter;stroke-miterlimit:10;stroke-dasharray:none"
         d="m 2583.41,1844.27 60,0 0,60 -60,0 0,-60 z" /><g
         transform="scale(10,10)"
         id="g14770"><text
   id="text14772"
   transform="matrix(1,0,0,-1,270.269,240.706)"><tspan
     id="tspan14774"
     sodipodi:role="line"
     y="0"
     x="0 8.442 18.69 27.594 36.498 45.402 49.854 53.984 62.86 71.75 80.626 86.114 90.566 102.648 111.23 118.524 125.818 130.27 135.198 143.766 149.52 153.972 162.876 167.328"
     style="font-size:14;font-weight:normal;writing-mode:lr;fill-rule:nonzero;fill-opacity:1;stroke:none;-inkscape-font-specification:Serif;font-variant:normal;font-family:Serif;fill:#000000">PU239 Input Mass for 0.9</tspan><tspan
     id="tspan14776"
     sodipodi:role="line"
     y="19.0488"
     x="0 8.442 18.69 27.594 36.498 45.402 49.854 60.872 69.748 75.236 84.126 93.002 98.49 102.942 115.024 123.606 130.9 138.194 142.646 147.574 156.142 161.896 166.348 175.252 179.704"
     style="font-size:14;font-weight:normal;writing-mode:lr;fill-rule:nonzero;fill-opacity:1;stroke:none;-inkscape-font-specification:Serif;font-variant:normal;font-family:Serif;fill:#000000">PU239 Output Mass for 0.9</tspan><tspan
     id="tspan14778"
     sodipodi:role="line"
     y="38.0976"
     x="0 8.442 18.69 27.594 36.498 45.402 49.854 53.984 62.86 71.75 80.626 86.114 90.566 102.648 111.23 118.524 125.818 130.27 135.198 143.766 149.52 153.972 162.876 167.328 176.232 185.136 194.04"
     style="font-size:14;font-weight:normal;writing-mode:lr;fill-rule:nonzero;fill-opacity:1;stroke:none;-inkscape-font-specification:Serif;font-variant:normal;font-family:Serif;fill:#000000">PU239 Input Mass for 0.9999</tspan><tspan
     id="tspan14780"
     sodipodi:role="line"
     y="57.1464"
     x="0 8.442 18.69 27.594 36.498 45.402 49.854 60.872 69.748 75.236 84.126 93.002 98.49 102.942 115.024 123.606 130.9 138.194 142.646 147.574 156.142 161.896 166.348 175.252 179.704 188.608 197.512 206.416"
     style="font-size:14;font-weight:normal;writing-mode:lr;fill-rule:nonzero;fill-opacity:1;stroke:none;-inkscape-font-specification:Serif;font-variant:normal;font-family:Serif;fill:#000000">PU239 Output Mass for 0.9999</tspan></text>

</g></g></g></svg>