<?xml version="1.0" encoding="UTF-8" standalone="no"?>
<!-- Created with Inkscape (http://www.inkscape.org/) -->

<svg
   xmlns:dc="http://purl.org/dc/elements/1.1/"
   xmlns:cc="http://creativecommons.org/ns#"
   xmlns:rdf="http://www.w3.org/1999/02/22-rdf-syntax-ns#"
   xmlns:svg="http://www.w3.org/2000/svg"
   xmlns="http://www.w3.org/2000/svg"
   xmlns:sodipodi="http://sodipodi.sourceforge.net/DTD/sodipodi-0.dtd"
   xmlns:inkscape="http://www.inkscape.org/namespaces/inkscape"
   id="svg5394"
   version="1.1"
   inkscape:version="0.48.2 r9819"
   width="720"
   height="540"
   xml:space="preserve"
   sodipodi:docname="rmg_k.eps"><metadata
     id="metadata5400"><rdf:RDF><cc:Work
         rdf:about=""><dc:format>image/svg+xml</dc:format><dc:type
           rdf:resource="http://purl.org/dc/dcmitype/StillImage" /><dc:title></dc:title></cc:Work></rdf:RDF></metadata><defs
     id="defs5398"><clipPath
       clipPathUnits="userSpaceOnUse"
       id="clipPath5416"><path
         d="m 720,432 4464,0 0,3456 -4464,0 0,-3456 z"
         id="path5418" /></clipPath><clipPath
       clipPathUnits="userSpaceOnUse"
       id="clipPath5556"><path
         d="M 0,0 0,0 0,0 0,0 z"
         id="path5558" /></clipPath></defs><sodipodi:namedview
     pagecolor="#ffffff"
     bordercolor="#666666"
     borderopacity="1"
     objecttolerance="10"
     gridtolerance="10"
     guidetolerance="10"
     inkscape:pageopacity="0"
     inkscape:pageshadow="2"
     inkscape:window-width="1438"
     inkscape:window-height="868"
     id="namedview5396"
     showgrid="false"
     inkscape:zoom="0.87407407"
     inkscape:cx="574.74904"
     inkscape:cy="265.31931"
     inkscape:window-x="0"
     inkscape:window-y="30"
     inkscape:window-maximized="0"
     inkscape:current-layer="g5402" /><g
     id="g5402"
     inkscape:groupmode="layer"
     inkscape:label="ink_ext_XXXXXX"
     transform="matrix(1.25,0,0,-1.25,0,540)"><g
       id="g5404"
       transform="scale(0.1,0.1)"><path
         d="m 0,0 5760,0 0,4320 L 0,4320 0,0 z"
         style="fill:#ffffff;fill-opacity:1;fill-rule:nonzero;stroke:none"
         id="path5406" /><path
         d="m 0,0 5760,0 0,4320 L 0,4320 0,0 z"
         style="fill:none;stroke:#ffffff;stroke-opacity:1;stroke-width:10;stroke-linecap:square;stroke-linejoin:round;stroke-miterlimit:10;stroke-dasharray:none"
         id="path5408" /><path
         d="m 720,432 4464,0 0,3456 -4464,0 0,-3456 z"
         style="fill:#ffffff;fill-opacity:1;fill-rule:nonzero;stroke:none"
         id="path5410" /><g
         id="g5412"><g
           id="g5414"
           clip-path="url(#clipPath5416)"><path
             d="m 720,3816.38 0,32.64"
             style="fill:none;stroke:#000000;stroke-opacity:1;stroke-width:10;stroke-linecap:butt;stroke-linejoin:round;stroke-miterlimit:10;stroke-dasharray:none"
             id="path5420" /><path
             d="m 1172.6,3369.98 0,28.43"
             style="fill:none;stroke:#000000;stroke-opacity:1;stroke-width:10;stroke-linecap:butt;stroke-linejoin:round;stroke-miterlimit:10;stroke-dasharray:none"
             id="path5422" /><path
             d="m 1625.2,3048 0,26.88"
             style="fill:none;stroke:#000000;stroke-opacity:1;stroke-width:10;stroke-linecap:butt;stroke-linejoin:round;stroke-miterlimit:10;stroke-dasharray:none"
             id="path5424" /><path
             d="m 2077.8,2669.76 0,33.02"
             style="fill:none;stroke:#000000;stroke-opacity:1;stroke-width:10;stroke-linecap:butt;stroke-linejoin:round;stroke-miterlimit:10;stroke-dasharray:none"
             id="path5426" /><path
             d="m 2530.4,2296.89 0,32.25"
             style="fill:none;stroke:#000000;stroke-opacity:1;stroke-width:10;stroke-linecap:butt;stroke-linejoin:round;stroke-miterlimit:10;stroke-dasharray:none"
             id="path5428" /><path
             d="m 2983,1917.7 0,33.79"
             style="fill:none;stroke:#000000;stroke-opacity:1;stroke-width:10;stroke-linecap:butt;stroke-linejoin:round;stroke-miterlimit:10;stroke-dasharray:none"
             id="path5430" /><path
             d="m 3435.6,1556.16 0,33.02"
             style="fill:none;stroke:#000000;stroke-opacity:1;stroke-width:10;stroke-linecap:butt;stroke-linejoin:round;stroke-miterlimit:10;stroke-dasharray:none"
             id="path5432" /><path
             d="m 3888.2,1238.21 0,35.71"
             style="fill:none;stroke:#000000;stroke-opacity:1;stroke-width:10;stroke-linecap:butt;stroke-linejoin:round;stroke-miterlimit:10;stroke-dasharray:none"
             id="path5434" /><path
             d="m 4340.8,950.977 0,38.785"
             style="fill:none;stroke:#000000;stroke-opacity:1;stroke-width:10;stroke-linecap:butt;stroke-linejoin:round;stroke-miterlimit:10;stroke-dasharray:none"
             id="path5436" /><path
             d="m 4793.4,633.793 0,37.633"
             style="fill:none;stroke:#000000;stroke-opacity:1;stroke-width:10;stroke-linecap:butt;stroke-linejoin:round;stroke-miterlimit:10;stroke-dasharray:none"
             id="path5438" /><path
             d="m 750,3816.38 -60,0"
             style="fill:none;stroke:#000000;stroke-opacity:1;stroke-width:5;stroke-linecap:butt;stroke-linejoin:round;stroke-miterlimit:10;stroke-dasharray:none"
             id="path5440" /><path
             d="m 1202.61,3369.98 -60,0"
             style="fill:none;stroke:#000000;stroke-opacity:1;stroke-width:5;stroke-linecap:butt;stroke-linejoin:round;stroke-miterlimit:10;stroke-dasharray:none"
             id="path5442" /><path
             d="m 1655.2,3048 -60,0"
             style="fill:none;stroke:#000000;stroke-opacity:1;stroke-width:5;stroke-linecap:butt;stroke-linejoin:round;stroke-miterlimit:10;stroke-dasharray:none"
             id="path5444" /><path
             d="m 2107.8,2669.76 -60,0"
             style="fill:none;stroke:#000000;stroke-opacity:1;stroke-width:5;stroke-linecap:butt;stroke-linejoin:round;stroke-miterlimit:10;stroke-dasharray:none"
             id="path5446" /><path
             d="m 2560.4,2296.89 -60,0"
             style="fill:none;stroke:#000000;stroke-opacity:1;stroke-width:5;stroke-linecap:butt;stroke-linejoin:round;stroke-miterlimit:10;stroke-dasharray:none"
             id="path5448" /><path
             d="m 3013,1917.7 -60,0"
             style="fill:none;stroke:#000000;stroke-opacity:1;stroke-width:5;stroke-linecap:butt;stroke-linejoin:round;stroke-miterlimit:10;stroke-dasharray:none"
             id="path5450" /><path
             d="m 3465.6,1556.16 -60,0"
             style="fill:none;stroke:#000000;stroke-opacity:1;stroke-width:5;stroke-linecap:butt;stroke-linejoin:round;stroke-miterlimit:10;stroke-dasharray:none"
             id="path5452" /><path
             d="m 3918.2,1238.21 -60,0"
             style="fill:none;stroke:#000000;stroke-opacity:1;stroke-width:5;stroke-linecap:butt;stroke-linejoin:round;stroke-miterlimit:10;stroke-dasharray:none"
             id="path5454" /><path
             d="m 4370.8,950.977 -60,0"
             style="fill:none;stroke:#000000;stroke-opacity:1;stroke-width:5;stroke-linecap:butt;stroke-linejoin:round;stroke-miterlimit:10;stroke-dasharray:none"
             id="path5456" /><path
             d="m 4823.4,633.793 -60,0"
             style="fill:none;stroke:#000000;stroke-opacity:1;stroke-width:5;stroke-linecap:butt;stroke-linejoin:round;stroke-miterlimit:10;stroke-dasharray:none"
             id="path5458" /><path
             d="m 750,3849.02 -60,0"
             style="fill:none;stroke:#000000;stroke-opacity:1;stroke-width:5;stroke-linecap:butt;stroke-linejoin:round;stroke-miterlimit:10;stroke-dasharray:none"
             id="path5460" /><path
             d="m 1202.61,3398.4 -60,0"
             style="fill:none;stroke:#000000;stroke-opacity:1;stroke-width:5;stroke-linecap:butt;stroke-linejoin:round;stroke-miterlimit:10;stroke-dasharray:none"
             id="path5462" /><path
             d="m 1655.2,3074.88 -60,0"
             style="fill:none;stroke:#000000;stroke-opacity:1;stroke-width:5;stroke-linecap:butt;stroke-linejoin:round;stroke-miterlimit:10;stroke-dasharray:none"
             id="path5464" /><path
             d="m 2107.8,2702.79 -60,0"
             style="fill:none;stroke:#000000;stroke-opacity:1;stroke-width:5;stroke-linecap:butt;stroke-linejoin:round;stroke-miterlimit:10;stroke-dasharray:none"
             id="path5466" /><path
             d="m 2560.4,2329.15 -60,0"
             style="fill:none;stroke:#000000;stroke-opacity:1;stroke-width:5;stroke-linecap:butt;stroke-linejoin:round;stroke-miterlimit:10;stroke-dasharray:none"
             id="path5468" /><path
             d="m 3013,1951.49 -60,0"
             style="fill:none;stroke:#000000;stroke-opacity:1;stroke-width:5;stroke-linecap:butt;stroke-linejoin:round;stroke-miterlimit:10;stroke-dasharray:none"
             id="path5470" /><path
             d="m 3465.6,1589.18 -60,0"
             style="fill:none;stroke:#000000;stroke-opacity:1;stroke-width:5;stroke-linecap:butt;stroke-linejoin:round;stroke-miterlimit:10;stroke-dasharray:none"
             id="path5472" /><path
             d="m 3918.2,1273.92 -60,0"
             style="fill:none;stroke:#000000;stroke-opacity:1;stroke-width:5;stroke-linecap:butt;stroke-linejoin:round;stroke-miterlimit:10;stroke-dasharray:none"
             id="path5474" /><path
             d="m 4370.8,989.762 -60,0"
             style="fill:none;stroke:#000000;stroke-opacity:1;stroke-width:5;stroke-linecap:butt;stroke-linejoin:round;stroke-miterlimit:10;stroke-dasharray:none"
             id="path5476" /><path
             d="m 4823.4,671.426 -60,0"
             style="fill:none;stroke:#000000;stroke-opacity:1;stroke-width:5;stroke-linecap:butt;stroke-linejoin:round;stroke-miterlimit:10;stroke-dasharray:none"
             id="path5478" /><path
             d="m 720,3832.7 452.6,-448.5 452.6,-322.75 452.6,-375.17 452.6,-373.26 452.6,-378.43 452.6,-361.91 452.6,-316.61 452.6,-285.699 452.6,-317.758"
             style="fill:none;stroke:#000000;stroke-opacity:1;stroke-width:10;stroke-linecap:square;stroke-linejoin:round;stroke-miterlimit:10;stroke-dasharray:none"
             id="path5480" /><path
             d="m 720,3651.11 452.6,-327.46 452.6,-375.25 452.6,-350.25 452.6,-324.82 452.6,-336.25 452.6,-328.07 452.6,-225.43 452.6,-306.59 452.6,-241.142"
             style="fill:none;stroke:#ff0000;stroke-opacity:1;stroke-width:10;stroke-linecap:square;stroke-linejoin:round;stroke-miterlimit:10;stroke-dasharray:none"
             id="path5482" /></g></g><path
         d="m 720,432 0,40"
         style="fill:none;stroke:#000000;stroke-opacity:1;stroke-width:5;stroke-linecap:butt;stroke-linejoin:round;stroke-miterlimit:10;stroke-dasharray:none"
         id="path5484" /><path
         d="m 720,3888 0,-40"
         style="fill:none;stroke:#000000;stroke-opacity:1;stroke-width:5;stroke-linecap:butt;stroke-linejoin:round;stroke-miterlimit:10;stroke-dasharray:none"
         id="path5486" /><path
         d="m 1278,432 0,40"
         style="fill:none;stroke:#000000;stroke-opacity:1;stroke-width:5;stroke-linecap:butt;stroke-linejoin:round;stroke-miterlimit:10;stroke-dasharray:none"
         id="path5488" /><path
         d="m 1278,3888 0,-40"
         style="fill:none;stroke:#000000;stroke-opacity:1;stroke-width:5;stroke-linecap:butt;stroke-linejoin:round;stroke-miterlimit:10;stroke-dasharray:none"
         id="path5490" /><path
         d="m 1836,432 0,40"
         style="fill:none;stroke:#000000;stroke-opacity:1;stroke-width:5;stroke-linecap:butt;stroke-linejoin:round;stroke-miterlimit:10;stroke-dasharray:none"
         id="path5492" /><path
         d="m 1836,3888 0,-40"
         style="fill:none;stroke:#000000;stroke-opacity:1;stroke-width:5;stroke-linecap:butt;stroke-linejoin:round;stroke-miterlimit:10;stroke-dasharray:none"
         id="path5494" /><path
         d="m 2394,432 0,40"
         style="fill:none;stroke:#000000;stroke-opacity:1;stroke-width:5;stroke-linecap:butt;stroke-linejoin:round;stroke-miterlimit:10;stroke-dasharray:none"
         id="path5496" /><path
         d="m 2394,3888 0,-40"
         style="fill:none;stroke:#000000;stroke-opacity:1;stroke-width:5;stroke-linecap:butt;stroke-linejoin:round;stroke-miterlimit:10;stroke-dasharray:none"
         id="path5498" /><path
         d="m 2952,432 0,40"
         style="fill:none;stroke:#000000;stroke-opacity:1;stroke-width:5;stroke-linecap:butt;stroke-linejoin:round;stroke-miterlimit:10;stroke-dasharray:none"
         id="path5500" /><path
         d="m 2952,3888 0,-40"
         style="fill:none;stroke:#000000;stroke-opacity:1;stroke-width:5;stroke-linecap:butt;stroke-linejoin:round;stroke-miterlimit:10;stroke-dasharray:none"
         id="path5502" /><path
         d="m 3510,432 0,40"
         style="fill:none;stroke:#000000;stroke-opacity:1;stroke-width:5;stroke-linecap:butt;stroke-linejoin:round;stroke-miterlimit:10;stroke-dasharray:none"
         id="path5504" /><path
         d="m 3510,3888 0,-40"
         style="fill:none;stroke:#000000;stroke-opacity:1;stroke-width:5;stroke-linecap:butt;stroke-linejoin:round;stroke-miterlimit:10;stroke-dasharray:none"
         id="path5506" /><path
         d="m 4068,432 0,40"
         style="fill:none;stroke:#000000;stroke-opacity:1;stroke-width:5;stroke-linecap:butt;stroke-linejoin:round;stroke-miterlimit:10;stroke-dasharray:none"
         id="path5508" /><path
         d="m 4068,3888 0,-40"
         style="fill:none;stroke:#000000;stroke-opacity:1;stroke-width:5;stroke-linecap:butt;stroke-linejoin:round;stroke-miterlimit:10;stroke-dasharray:none"
         id="path5510" /><path
         d="m 4626,432 0,40"
         style="fill:none;stroke:#000000;stroke-opacity:1;stroke-width:5;stroke-linecap:butt;stroke-linejoin:round;stroke-miterlimit:10;stroke-dasharray:none"
         id="path5512" /><path
         d="m 4626,3888 0,-40"
         style="fill:none;stroke:#000000;stroke-opacity:1;stroke-width:5;stroke-linecap:butt;stroke-linejoin:round;stroke-miterlimit:10;stroke-dasharray:none"
         id="path5514" /><path
         d="m 5184,432 0,40"
         style="fill:none;stroke:#000000;stroke-opacity:1;stroke-width:5;stroke-linecap:butt;stroke-linejoin:round;stroke-miterlimit:10;stroke-dasharray:none"
         id="path5516" /><path
         d="m 5184,3888 0,-40"
         style="fill:none;stroke:#000000;stroke-opacity:1;stroke-width:5;stroke-linecap:butt;stroke-linejoin:round;stroke-miterlimit:10;stroke-dasharray:none"
         id="path5518" /><path
         d="m 720,816 40,0"
         style="fill:none;stroke:#000000;stroke-opacity:1;stroke-width:5;stroke-linecap:butt;stroke-linejoin:round;stroke-miterlimit:10;stroke-dasharray:none"
         id="path5520" /><path
         d="m 5184,816 -40,0"
         style="fill:none;stroke:#000000;stroke-opacity:1;stroke-width:5;stroke-linecap:butt;stroke-linejoin:round;stroke-miterlimit:10;stroke-dasharray:none"
         id="path5522" /><path
         d="m 720,1776 40,0"
         style="fill:none;stroke:#000000;stroke-opacity:1;stroke-width:5;stroke-linecap:butt;stroke-linejoin:round;stroke-miterlimit:10;stroke-dasharray:none"
         id="path5524" /><path
         d="m 5184,1776 -40,0"
         style="fill:none;stroke:#000000;stroke-opacity:1;stroke-width:5;stroke-linecap:butt;stroke-linejoin:round;stroke-miterlimit:10;stroke-dasharray:none"
         id="path5526" /><path
         d="m 720,2736 40,0"
         style="fill:none;stroke:#000000;stroke-opacity:1;stroke-width:5;stroke-linecap:butt;stroke-linejoin:round;stroke-miterlimit:10;stroke-dasharray:none"
         id="path5528" /><path
         d="m 5184,2736 -40,0"
         style="fill:none;stroke:#000000;stroke-opacity:1;stroke-width:5;stroke-linecap:butt;stroke-linejoin:round;stroke-miterlimit:10;stroke-dasharray:none"
         id="path5530" /><path
         d="m 720,3696 40,0"
         style="fill:none;stroke:#000000;stroke-opacity:1;stroke-width:5;stroke-linecap:butt;stroke-linejoin:round;stroke-miterlimit:10;stroke-dasharray:none"
         id="path5532" /><path
         d="m 5184,3696 -40,0"
         style="fill:none;stroke:#000000;stroke-opacity:1;stroke-width:5;stroke-linecap:butt;stroke-linejoin:round;stroke-miterlimit:10;stroke-dasharray:none"
         id="path5534" /><path
         d="m 720,3888 4464,0"
         style="fill:none;stroke:#000000;stroke-opacity:1;stroke-width:10;stroke-linecap:square;stroke-linejoin:round;stroke-miterlimit:10;stroke-dasharray:none"
         id="path5536" /><path
         d="m 5184,432 0,3456"
         style="fill:none;stroke:#000000;stroke-opacity:1;stroke-width:10;stroke-linecap:square;stroke-linejoin:round;stroke-miterlimit:10;stroke-dasharray:none"
         id="path5538" /><path
         d="m 720,432 4464,0"
         style="fill:none;stroke:#000000;stroke-opacity:1;stroke-width:10;stroke-linecap:square;stroke-linejoin:round;stroke-miterlimit:10;stroke-dasharray:none"
         id="path5540" /><path
         d="m 720,432 0,3456"
         style="fill:none;stroke:#000000;stroke-opacity:1;stroke-width:10;stroke-linecap:square;stroke-linejoin:round;stroke-miterlimit:10;stroke-dasharray:none"
         id="path5542" /><path
         d="m 4070.25,3385.99 1041.75,0 0,430.012 -1041.75,0 0,-430.012 z"
         style="fill:#ffffff;fill-opacity:1;fill-rule:nonzero;stroke:none"
         id="path5544" /><path
         d="m 4070.25,3385.99 1041.75,0 0,430.012 -1041.75,0 0,-430.012 z"
         style="fill:none;stroke:#000000;stroke-opacity:1;stroke-width:10;stroke-linecap:square;stroke-linejoin:round;stroke-miterlimit:10;stroke-dasharray:none"
         id="path5546" /><path
         d="m 4171.05,3702.35 201.61,0"
         style="fill:none;stroke:#000000;stroke-opacity:1;stroke-width:10;stroke-linecap:square;stroke-linejoin:round;stroke-miterlimit:10;stroke-dasharray:none"
         id="path5548" /><path
         d="m 4171.05,3496.66 201.61,0"
         style="fill:none;stroke:#ff0000;stroke-opacity:1;stroke-width:10;stroke-linecap:square;stroke-linejoin:round;stroke-miterlimit:10;stroke-dasharray:none"
         id="path5550" /><g
         id="g5552"><g
           id="g5554"
           clip-path="url(#clipPath5556)"><g
             id="g5560"
             transform="matrix(960,0,0,-4.8,-958.92,2067.48)"><rect
               x="0"
               y="0"
               width="1"
               height="1"
               transform="matrix(1,0,0,-1,0,1)"
               style="fill:#000000;fill-opacity:1;fill-rule:nonzero"
               id="rect5562" /></g></g></g><path
         d="m 744.242,353.277 c 0,9.93 -0.605,19.621 -4.902,28.715 -4.899,9.93 -13.492,12.57 -19.344,12.57 -6.926,0 -15.402,-3.476 -19.824,-13.406 -3.34,-7.539 -4.535,-14.953 -4.535,-27.875 0,-11.605 0.836,-20.34 5.133,-28.836 4.656,-9.09 12.898,-11.965 19.105,-11.965 10.391,0 16.359,6.223 19.824,13.165 4.297,8.968 4.543,20.695 4.543,27.632 z m -24.363,-38.394 c -3.813,0 -11.551,2.152 -13.813,15.187 -1.308,7.18 -1.308,16.27 -1.308,24.641 0,9.809 0,18.66 1.902,25.715 2.024,8.015 8.098,11.734 13.219,11.734 4.523,0 11.426,-2.762 13.691,-13.051 1.551,-6.816 1.551,-16.265 1.551,-24.398 0,-8.016 0,-17.106 -1.316,-24.402 -2.262,-13.157 -9.762,-15.43 -13.926,-15.43"
         style="fill:#000000;fill-opacity:1;fill-rule:nonzero;stroke:none"
         id="path5564" /><path
         d="m 1234.8,383.504 c 5.13,-1.664 9.31,-1.785 10.62,-1.785 13.48,0 22.08,9.961 22.08,11.644 0,0.481 -0.25,1.078 -0.96,1.078 -0.24,0 -0.48,0 -1.56,-0.48 -6.68,-2.879 -12.41,-3.238 -15.52,-3.238 -7.87,0 -13.48,2.398 -15.75,3.359 -0.84,0.359 -1.08,0.359 -1.19,0.359 -0.96,0 -0.96,-0.726 -0.96,-2.64 l 0,-35.551 c 0,-2.156 0,-2.871 1.39,-2.871 0.58,0 0.69,0.117 1.85,1.543 3.36,4.867 9,7.719 14.99,7.719 6.36,0 9.48,-5.852 10.44,-7.883 2.04,-4.656 2.16,-10.504 2.16,-15.043 0,-4.535 0,-11.34 -3.35,-16.711 -2.63,-4.297 -7.3,-7.281 -12.56,-7.281 -7.9,0 -15.68,5.379 -17.83,14.101 0.6,-0.285 1.31,-0.429 1.91,-0.429 2.04,0 5.27,1.199 5.27,5.281 0,3.359 -2.28,5.281 -5.27,5.281 -2.15,0 -5.26,-1.082 -5.26,-5.738 0,-10.153 8.14,-21.735 21.43,-21.735 13.53,0 25.39,11.344 25.39,26.512 0,14.215 -9.58,26.043 -22.14,26.043 -6.81,0 -12.07,-2.965 -15.18,-6.285"
         style="fill:#000000;fill-opacity:1;fill-rule:nonzero;stroke:none"
         id="path5566" /><path
         d="m 1331.76,353.277 c 0,9.93 -0.6,19.621 -4.9,28.715 -4.9,9.93 -13.5,12.57 -19.35,12.57 -6.92,0 -15.4,-3.476 -19.82,-13.406 -3.34,-7.539 -4.54,-14.953 -4.54,-27.875 0,-11.605 0.84,-20.34 5.14,-28.836 4.66,-9.09 12.89,-11.965 19.1,-11.965 10.39,0 16.36,6.223 19.82,13.165 4.31,8.968 4.55,20.695 4.55,27.632 z m -24.36,-38.394 c -3.81,0 -11.55,2.152 -13.81,15.187 -1.31,7.18 -1.31,16.27 -1.31,24.641 0,9.809 0,18.66 1.9,25.715 2.03,8.015 8.1,11.734 13.22,11.734 4.53,0 11.43,-2.762 13.69,-13.051 1.55,-6.816 1.55,-16.265 1.55,-24.398 0,-8.016 0,-17.106 -1.31,-24.402 -2.26,-13.157 -9.76,-15.43 -13.93,-15.43"
         style="fill:#000000;fill-opacity:1;fill-rule:nonzero;stroke:none"
         id="path5568" /><path
         d="m 1782.6,391.68 c 0,2.754 0,2.882 -2.39,2.882 -2.87,-3.242 -8.85,-7.683 -21.17,-7.683 l 0,-3.481 c 2.75,0 8.71,0 15.28,3.094 l 0,-62.273 c 0,-4.305 -0.36,-5.739 -10.86,-5.739 l -3.7,0 0,-3.48 c 3.23,0.238 14.83,0.238 18.77,0.238 3.94,0 15.42,0 18.65,-0.238 l 0,3.48 -3.71,0 c -10.51,0 -10.87,1.438 -10.87,5.743"
         style="fill:#000000;fill-opacity:1;fill-rule:nonzero;stroke:none"
         id="path5570" /><path
         d="m 1860.48,353.277 c 0,9.93 -0.6,19.621 -4.9,28.715 -4.9,9.93 -13.49,12.57 -19.35,12.57 -6.92,0 -15.4,-3.476 -19.82,-13.406 -3.34,-7.539 -4.53,-14.953 -4.53,-27.875 0,-11.605 0.83,-20.34 5.13,-28.836 4.65,-9.09 12.89,-11.965 19.1,-11.965 10.39,0 16.36,6.223 19.83,13.165 4.29,8.968 4.54,20.695 4.54,27.632 z m -24.36,-38.394 c -3.81,0 -11.55,2.152 -13.81,15.187 -1.31,7.18 -1.31,16.27 -1.31,24.641 0,9.809 0,18.66 1.91,25.715 2.02,8.015 8.09,11.734 13.21,11.734 4.52,0 11.43,-2.762 13.69,-13.051 1.55,-6.816 1.55,-16.265 1.55,-24.398 0,-8.016 0,-17.106 -1.31,-24.402 -2.26,-13.157 -9.76,-15.43 -13.93,-15.43"
         style="fill:#000000;fill-opacity:1;fill-rule:nonzero;stroke:none"
         id="path5572" /><path
         d="m 1919.28,353.277 c 0,9.93 -0.6,19.621 -4.9,28.715 -4.9,9.93 -13.5,12.57 -19.35,12.57 -6.92,0 -15.4,-3.476 -19.82,-13.406 -3.34,-7.539 -4.53,-14.953 -4.53,-27.875 0,-11.605 0.83,-20.34 5.13,-28.836 4.65,-9.09 12.89,-11.965 19.1,-11.965 10.39,0 16.36,6.223 19.82,13.165 4.31,8.968 4.55,20.695 4.55,27.632 z m -24.36,-38.394 c -3.81,0 -11.55,2.152 -13.81,15.187 -1.31,7.18 -1.31,16.27 -1.31,24.641 0,9.809 0,18.66 1.9,25.715 2.03,8.015 8.1,11.734 13.22,11.734 4.53,0 11.43,-2.762 13.69,-13.051 1.55,-6.816 1.55,-16.265 1.55,-24.398 0,-8.016 0,-17.106 -1.31,-24.402 -2.26,-13.157 -9.76,-15.43 -13.93,-15.43"
         style="fill:#000000;fill-opacity:1;fill-rule:nonzero;stroke:none"
         id="path5574" /><path
         d="m 2340.6,391.68 c 0,2.754 0,2.882 -2.39,2.882 -2.87,-3.242 -8.85,-7.683 -21.17,-7.683 l 0,-3.481 c 2.75,0 8.71,0 15.28,3.094 l 0,-62.273 c 0,-4.305 -0.36,-5.739 -10.86,-5.739 l -3.7,0 0,-3.48 c 3.23,0.238 14.83,0.238 18.77,0.238 3.94,0 15.42,0 18.65,-0.238 l 0,3.48 -3.71,0 c -10.51,0 -10.87,1.438 -10.87,5.743"
         style="fill:#000000;fill-opacity:1;fill-rule:nonzero;stroke:none"
         id="path5576" /><path
         d="m 2380.32,383.504 c 5.13,-1.664 9.31,-1.785 10.62,-1.785 13.48,0 22.08,9.961 22.08,11.644 0,0.481 -0.25,1.078 -0.97,1.078 -0.23,0 -0.47,0 -1.55,-0.48 -6.68,-2.879 -12.41,-3.238 -15.52,-3.238 -7.87,0 -13.48,2.398 -15.75,3.359 -0.84,0.359 -1.08,0.359 -1.19,0.359 -0.96,0 -0.96,-0.726 -0.96,-2.64 l 0,-35.551 c 0,-2.156 0,-2.871 1.39,-2.871 0.58,0 0.69,0.117 1.85,1.543 3.36,4.867 9,7.719 14.99,7.719 6.36,0 9.48,-5.852 10.44,-7.883 2.04,-4.656 2.16,-10.504 2.16,-15.043 0,-4.535 0,-11.34 -3.35,-16.711 -2.63,-4.297 -7.29,-7.281 -12.56,-7.281 -7.9,0 -15.68,5.379 -17.83,14.101 0.6,-0.285 1.31,-0.429 1.91,-0.429 2.04,0 5.27,1.199 5.27,5.281 0,3.359 -2.28,5.281 -5.27,5.281 -2.15,0 -5.26,-1.082 -5.26,-5.738 0,-10.153 8.14,-21.735 21.43,-21.735 13.53,0 25.39,11.344 25.39,26.512 0,14.215 -9.58,26.043 -22.14,26.043 -6.81,0 -12.07,-2.965 -15.18,-6.285"
         style="fill:#000000;fill-opacity:1;fill-rule:nonzero;stroke:none"
         id="path5578" /><path
         d="m 2477.28,353.277 c 0,9.93 -0.6,19.621 -4.9,28.715 -4.9,9.93 -13.5,12.57 -19.35,12.57 -6.92,0 -15.4,-3.476 -19.82,-13.406 -3.34,-7.539 -4.53,-14.953 -4.53,-27.875 0,-11.605 0.83,-20.34 5.13,-28.836 4.65,-9.09 12.89,-11.965 19.1,-11.965 10.39,0 16.36,6.223 19.82,13.165 4.31,8.968 4.55,20.695 4.55,27.632 z m -24.36,-38.394 c -3.81,0 -11.55,2.152 -13.81,15.187 -1.31,7.18 -1.31,16.27 -1.31,24.641 0,9.809 0,18.66 1.9,25.715 2.03,8.015 8.1,11.734 13.22,11.734 4.53,0 11.43,-2.762 13.69,-13.051 1.55,-6.816 1.55,-16.265 1.55,-24.398 0,-8.016 0,-17.106 -1.31,-24.402 -2.26,-13.157 -9.76,-15.43 -13.93,-15.43"
         style="fill:#000000;fill-opacity:1;fill-rule:nonzero;stroke:none"
         id="path5580" /><path
         d="m 2916.84,335.086 -2.64,0 c -0.36,-2.027 -1.31,-8.586 -2.51,-10.492 -0.84,-1.074 -7.67,-1.074 -11.26,-1.074 l -22.16,0 c 3.23,2.753 10.54,10.406 13.66,13.273 18.2,16.742 24.91,22.961 24.91,34.801 0,13.75 -10.9,22.968 -24.78,22.968 -13.88,0 -22.02,-11.882 -22.02,-22.207 0,-6.121 5.28,-6.121 5.64,-6.121 2.52,0 5.64,1.801 5.64,5.641 0,3.363 -2.29,5.645 -5.66,5.645 -1.09,0 -1.33,0 -1.7,0 2.28,8.085 8.74,13.558 16.52,13.558 10.17,0 16.4,-8.5 16.4,-19.504 0,-10.168 -5.86,-19.019 -12.68,-26.672 l -24.16,-27.031 0,-2.871 43.68,0"
         style="fill:#000000;fill-opacity:1;fill-rule:nonzero;stroke:none"
         id="path5582" /><path
         d="m 2976.48,353.277 c 0,9.93 -0.6,19.621 -4.9,28.715 -4.9,9.93 -13.49,12.57 -19.35,12.57 -6.92,0 -15.4,-3.476 -19.82,-13.406 -3.34,-7.539 -4.53,-14.953 -4.53,-27.875 0,-11.605 0.83,-20.34 5.13,-28.836 4.65,-9.09 12.89,-11.965 19.1,-11.965 10.39,0 16.36,6.223 19.83,13.165 4.29,8.968 4.54,20.695 4.54,27.632 z m -24.36,-38.394 c -3.81,0 -11.55,2.152 -13.81,15.187 -1.31,7.18 -1.31,16.27 -1.31,24.641 0,9.809 0,18.66 1.91,25.715 2.02,8.015 8.09,11.734 13.21,11.734 4.52,0 11.43,-2.762 13.69,-13.051 1.55,-6.816 1.55,-16.265 1.55,-24.398 0,-8.016 0,-17.106 -1.31,-24.402 -2.26,-13.157 -9.76,-15.43 -13.93,-15.43"
         style="fill:#000000;fill-opacity:1;fill-rule:nonzero;stroke:none"
         id="path5584" /><path
         d="m 3035.28,353.277 c 0,9.93 -0.6,19.621 -4.9,28.715 -4.9,9.93 -13.5,12.57 -19.35,12.57 -6.92,0 -15.4,-3.476 -19.82,-13.406 -3.34,-7.539 -4.53,-14.953 -4.53,-27.875 0,-11.605 0.83,-20.34 5.13,-28.836 4.65,-9.09 12.89,-11.965 19.1,-11.965 10.39,0 16.36,6.223 19.82,13.165 4.31,8.968 4.55,20.695 4.55,27.632 z m -24.36,-38.394 c -3.81,0 -11.55,2.152 -13.81,15.187 -1.31,7.18 -1.31,16.27 -1.31,24.641 0,9.809 0,18.66 1.9,25.715 2.03,8.015 8.1,11.734 13.22,11.734 4.53,0 11.43,-2.762 13.69,-13.051 1.55,-6.816 1.55,-16.265 1.55,-24.398 0,-8.016 0,-17.106 -1.31,-24.402 -2.26,-13.157 -9.76,-15.43 -13.93,-15.43"
         style="fill:#000000;fill-opacity:1;fill-rule:nonzero;stroke:none"
         id="path5586" /><path
         d="m 3474.84,335.086 -2.64,0 c -0.36,-2.027 -1.31,-8.586 -2.51,-10.492 -0.84,-1.074 -7.67,-1.074 -11.26,-1.074 l -22.16,0 c 3.23,2.753 10.54,10.406 13.66,13.273 18.2,16.742 24.91,22.961 24.91,34.801 0,13.75 -10.9,22.968 -24.78,22.968 -13.88,0 -22.02,-11.882 -22.02,-22.207 0,-6.121 5.28,-6.121 5.64,-6.121 2.52,0 5.64,1.801 5.64,5.641 0,3.363 -2.29,5.645 -5.66,5.645 -1.09,0 -1.33,0 -1.7,0 2.28,8.085 8.74,13.558 16.52,13.558 10.17,0 16.4,-8.5 16.4,-19.504 0,-10.168 -5.86,-19.019 -12.68,-26.672 l -24.16,-27.031 0,-2.871 43.68,0"
         style="fill:#000000;fill-opacity:1;fill-rule:nonzero;stroke:none"
         id="path5588" /><path
         d="m 3496.32,383.504 c 5.13,-1.664 9.31,-1.785 10.62,-1.785 13.48,0 22.08,9.961 22.08,11.644 0,0.481 -0.25,1.078 -0.97,1.078 -0.23,0 -0.47,0 -1.55,-0.48 -6.68,-2.879 -12.41,-3.238 -15.52,-3.238 -7.87,0 -13.48,2.398 -15.75,3.359 -0.84,0.359 -1.08,0.359 -1.19,0.359 -0.96,0 -0.96,-0.726 -0.96,-2.64 l 0,-35.551 c 0,-2.156 0,-2.871 1.39,-2.871 0.58,0 0.69,0.117 1.85,1.543 3.36,4.867 9,7.719 14.99,7.719 6.36,0 9.48,-5.852 10.44,-7.883 2.04,-4.656 2.16,-10.504 2.16,-15.043 0,-4.535 0,-11.34 -3.35,-16.711 -2.63,-4.297 -7.29,-7.281 -12.56,-7.281 -7.9,0 -15.68,5.379 -17.83,14.101 0.6,-0.285 1.31,-0.429 1.91,-0.429 2.04,0 5.27,1.199 5.27,5.281 0,3.359 -2.28,5.281 -5.27,5.281 -2.15,0 -5.26,-1.082 -5.26,-5.738 0,-10.153 8.14,-21.735 21.43,-21.735 13.53,0 25.39,11.344 25.39,26.512 0,14.215 -9.58,26.043 -22.14,26.043 -6.81,0 -12.07,-2.965 -15.18,-6.285"
         style="fill:#000000;fill-opacity:1;fill-rule:nonzero;stroke:none"
         id="path5590" /><path
         d="m 3593.28,353.277 c 0,9.93 -0.6,19.621 -4.9,28.715 -4.9,9.93 -13.5,12.57 -19.35,12.57 -6.92,0 -15.4,-3.476 -19.82,-13.406 -3.34,-7.539 -4.53,-14.953 -4.53,-27.875 0,-11.605 0.83,-20.34 5.13,-28.836 4.65,-9.09 12.89,-11.965 19.1,-11.965 10.39,0 16.36,6.223 19.82,13.165 4.31,8.968 4.55,20.695 4.55,27.632 z m -24.36,-38.394 c -3.81,0 -11.55,2.152 -13.81,15.187 -1.31,7.18 -1.31,16.27 -1.31,24.641 0,9.809 0,18.66 1.9,25.715 2.03,8.015 8.1,11.734 13.22,11.734 4.53,0 11.43,-2.762 13.69,-13.051 1.55,-6.816 1.55,-16.265 1.55,-24.398 0,-8.016 0,-17.106 -1.31,-24.402 -2.26,-13.157 -9.76,-15.43 -13.93,-15.43"
         style="fill:#000000;fill-opacity:1;fill-rule:nonzero;stroke:none"
         id="path5592" /><path
         d="m 4002.13,357.957 c -2.02,-0.117 -2.5,-0.238 -2.5,-1.316 0,-1.203 0.59,-1.203 2.74,-1.203 l 5.49,0 c 10.13,0 14.66,-8.379 14.66,-19.86 0,-15.668 -8.11,-19.855 -13.96,-19.855 -5.72,0 -15.51,2.726 -18.96,10.55 3.81,-0.515 7.27,1.633 7.27,5.922 0,3.457 -2.5,5.84 -5.84,5.84 -2.87,0 -5.97,-1.672 -5.97,-6.211 0,-10.625 10.63,-19.344 23.89,-19.344 14.21,0 24.73,10.887 24.73,22.973 0,11.004 -8.84,19.617 -20.3,21.652 10.39,2.993 17.07,11.727 17.07,21.055 0,9.453 -9.79,16.399 -21.36,16.399 -11.94,0 -20.77,-7.321 -20.77,-16.079 0,-4.8 3.72,-5.757 5.52,-5.757 2.52,0 5.4,1.797 5.4,5.398 0,3.84 -2.9,5.524 -5.56,5.524 -0.72,0 -0.96,0 -1.32,0 4.53,8.035 15.73,8.035 16.33,8.035 3.93,0 11.69,-1.801 11.69,-13.52 0,-2.269 -0.36,-8.965 -3.82,-14.105 -3.58,-5.258 -7.63,-5.617 -10.85,-5.739"
         style="fill:#000000;fill-opacity:1;fill-rule:nonzero;stroke:none"
         id="path5594" /><path
         d="m 4092.48,353.277 c 0,9.93 -0.6,19.621 -4.9,28.715 -4.9,9.93 -13.49,12.57 -19.35,12.57 -6.92,0 -15.4,-3.476 -19.82,-13.406 -3.34,-7.539 -4.53,-14.953 -4.53,-27.875 0,-11.605 0.83,-20.34 5.13,-28.836 4.65,-9.09 12.89,-11.965 19.1,-11.965 10.39,0 16.36,6.223 19.83,13.165 4.29,8.968 4.54,20.695 4.54,27.632 z m -24.36,-38.394 c -3.81,0 -11.55,2.152 -13.81,15.187 -1.31,7.18 -1.31,16.27 -1.31,24.641 0,9.809 0,18.66 1.91,25.715 2.02,8.015 8.09,11.734 13.21,11.734 4.52,0 11.43,-2.762 13.69,-13.051 1.55,-6.816 1.55,-16.265 1.55,-24.398 0,-8.016 0,-17.106 -1.31,-24.402 -2.26,-13.157 -9.76,-15.43 -13.93,-15.43"
         style="fill:#000000;fill-opacity:1;fill-rule:nonzero;stroke:none"
         id="path5596" /><path
         d="m 4151.28,353.277 c 0,9.93 -0.6,19.621 -4.9,28.715 -4.9,9.93 -13.5,12.57 -19.35,12.57 -6.92,0 -15.4,-3.476 -19.82,-13.406 -3.34,-7.539 -4.53,-14.953 -4.53,-27.875 0,-11.605 0.83,-20.34 5.13,-28.836 4.65,-9.09 12.89,-11.965 19.1,-11.965 10.39,0 16.36,6.223 19.82,13.165 4.31,8.968 4.55,20.695 4.55,27.632 z m -24.36,-38.394 c -3.81,0 -11.55,2.152 -13.81,15.187 -1.31,7.18 -1.31,16.27 -1.31,24.641 0,9.809 0,18.66 1.9,25.715 2.03,8.015 8.1,11.734 13.22,11.734 4.53,0 11.43,-2.762 13.69,-13.051 1.55,-6.816 1.55,-16.265 1.55,-24.398 0,-8.016 0,-17.106 -1.31,-24.402 -2.26,-13.157 -9.76,-15.43 -13.93,-15.43"
         style="fill:#000000;fill-opacity:1;fill-rule:nonzero;stroke:none"
         id="path5598" /><path
         d="m 4560.13,357.957 c -2.02,-0.117 -2.5,-0.238 -2.5,-1.316 0,-1.203 0.59,-1.203 2.74,-1.203 l 5.49,0 c 10.13,0 14.66,-8.379 14.66,-19.86 0,-15.668 -8.11,-19.855 -13.96,-19.855 -5.72,0 -15.51,2.726 -18.96,10.55 3.81,-0.515 7.27,1.633 7.27,5.922 0,3.457 -2.5,5.84 -5.84,5.84 -2.87,0 -5.97,-1.672 -5.97,-6.211 0,-10.625 10.63,-19.344 23.89,-19.344 14.21,0 24.73,10.887 24.73,22.973 0,11.004 -8.84,19.617 -20.3,21.652 10.39,2.993 17.07,11.727 17.07,21.055 0,9.453 -9.79,16.399 -21.36,16.399 -11.94,0 -20.77,-7.321 -20.77,-16.079 0,-4.8 3.72,-5.757 5.52,-5.757 2.52,0 5.4,1.797 5.4,5.398 0,3.84 -2.9,5.524 -5.56,5.524 -0.72,0 -0.96,0 -1.32,0 4.53,8.035 15.73,8.035 16.33,8.035 3.93,0 11.69,-1.801 11.69,-13.52 0,-2.269 -0.36,-8.965 -3.82,-14.105 -3.58,-5.258 -7.63,-5.617 -10.85,-5.739"
         style="fill:#000000;fill-opacity:1;fill-rule:nonzero;stroke:none"
         id="path5600" /><path
         d="m 4612.32,383.504 c 5.13,-1.664 9.31,-1.785 10.62,-1.785 13.48,0 22.08,9.961 22.08,11.644 0,0.481 -0.25,1.078 -0.96,1.078 -0.24,0 -0.48,0 -1.56,-0.48 -6.68,-2.879 -12.41,-3.238 -15.52,-3.238 -7.87,0 -13.48,2.398 -15.75,3.359 -0.84,0.359 -1.08,0.359 -1.19,0.359 -0.96,0 -0.96,-0.726 -0.96,-2.64 l 0,-35.551 c 0,-2.156 0,-2.871 1.39,-2.871 0.58,0 0.69,0.117 1.85,1.543 3.36,4.867 9,7.719 14.99,7.719 6.36,0 9.48,-5.852 10.44,-7.883 2.04,-4.656 2.16,-10.504 2.16,-15.043 0,-4.535 0,-11.34 -3.35,-16.711 -2.63,-4.297 -7.29,-7.281 -12.56,-7.281 -7.9,0 -15.68,5.379 -17.83,14.101 0.6,-0.285 1.31,-0.429 1.91,-0.429 2.04,0 5.27,1.199 5.27,5.281 0,3.359 -2.28,5.281 -5.27,5.281 -2.15,0 -5.26,-1.082 -5.26,-5.738 0,-10.153 8.14,-21.735 21.43,-21.735 13.53,0 25.39,11.344 25.39,26.512 0,14.215 -9.58,26.043 -22.14,26.043 -6.81,0 -12.07,-2.965 -15.18,-6.285"
         style="fill:#000000;fill-opacity:1;fill-rule:nonzero;stroke:none"
         id="path5602" /><path
         d="m 4709.28,353.277 c 0,9.93 -0.6,19.621 -4.9,28.715 -4.9,9.93 -13.5,12.57 -19.35,12.57 -6.92,0 -15.4,-3.476 -19.82,-13.406 -3.34,-7.539 -4.53,-14.953 -4.53,-27.875 0,-11.605 0.83,-20.34 5.13,-28.836 4.65,-9.09 12.89,-11.965 19.1,-11.965 10.39,0 16.36,6.223 19.82,13.165 4.31,8.968 4.55,20.695 4.55,27.632 z m -24.36,-38.394 c -3.81,0 -11.55,2.152 -13.81,15.187 -1.31,7.18 -1.31,16.27 -1.31,24.641 0,9.809 0,18.66 1.9,25.715 2.03,8.015 8.1,11.734 13.22,11.734 4.53,0 11.43,-2.762 13.69,-13.051 1.55,-6.816 1.55,-16.265 1.55,-24.398 0,-8.016 0,-17.106 -1.31,-24.402 -2.26,-13.157 -9.76,-15.43 -13.93,-15.43"
         style="fill:#000000;fill-opacity:1;fill-rule:nonzero;stroke:none"
         id="path5604" /><path
         d="m 5139.36,392.758 c 0,2.269 0,2.879 -1.68,2.879 -0.96,0 -1.32,0 -2.28,-1.446 l -36.01,-55.789 0,-3.48 31.45,0 0,-10.844 c 0,-4.406 -0.25,-5.598 -8.97,-5.598 l -2.39,0 0,-3.48 c 2.75,0.238 12.19,0.238 15.54,0.238 3.35,0 12.91,0 15.66,-0.238 l 0,3.48 -2.38,0 c -8.58,0 -8.94,1.192 -8.94,5.598 l 0,10.844 12.04,0 0,3.48 -12.04,0 0,54.356 z m -7.92,-9.254 0,-45.102 -29.06,0"
         style="fill:#000000;fill-opacity:1;fill-rule:nonzero;stroke:none"
         id="path5606" /><path
         d="m 5208.48,353.277 c 0,9.93 -0.6,19.621 -4.9,28.715 -4.9,9.93 -13.5,12.57 -19.35,12.57 -6.92,0 -15.4,-3.476 -19.82,-13.406 -3.34,-7.539 -4.53,-14.953 -4.53,-27.875 0,-11.605 0.83,-20.34 5.13,-28.836 4.65,-9.09 12.89,-11.965 19.1,-11.965 10.39,0 16.36,6.223 19.83,13.165 4.29,8.968 4.54,20.695 4.54,27.632 z m -24.36,-38.394 c -3.81,0 -11.55,2.152 -13.81,15.187 -1.31,7.18 -1.31,16.27 -1.31,24.641 0,9.809 0,18.66 1.91,25.715 2.02,8.015 8.09,11.734 13.21,11.734 4.52,0 11.43,-2.762 13.69,-13.051 1.55,-6.816 1.55,-16.265 1.55,-24.398 0,-8.016 0,-17.106 -1.31,-24.402 -2.26,-13.157 -9.76,-15.43 -13.93,-15.43"
         style="fill:#000000;fill-opacity:1;fill-rule:nonzero;stroke:none"
         id="path5608" /><path
         d="m 5267.28,353.277 c 0,9.93 -0.6,19.621 -4.9,28.715 -4.9,9.93 -13.5,12.57 -19.35,12.57 -6.92,0 -15.4,-3.476 -19.82,-13.406 -3.34,-7.539 -4.53,-14.953 -4.53,-27.875 0,-11.605 0.83,-20.34 5.13,-28.836 4.65,-9.09 12.89,-11.965 19.1,-11.965 10.39,0 16.36,6.223 19.82,13.165 4.31,8.968 4.55,20.695 4.55,27.632 z m -24.36,-38.394 c -3.81,0 -11.55,2.152 -13.81,15.187 -1.31,7.18 -1.31,16.27 -1.31,24.641 0,9.809 0,18.66 1.9,25.715 2.03,8.015 8.1,11.734 13.22,11.734 4.53,0 11.43,-2.762 13.69,-13.051 1.55,-6.816 1.55,-16.265 1.55,-24.398 0,-8.016 0,-17.106 -1.31,-24.402 -2.26,-13.157 -9.76,-15.43 -13.93,-15.43"
         style="fill:#000000;fill-opacity:1;fill-rule:nonzero;stroke:none"
         id="path5610" /><path
         d="m 2515.92,266.762 -20.65,-1.324 0,-5.161 4.21,0 c 4.44,0 5.16,-0.847 5.16,-5.984 l 0,-46.473 c 0,-16.008 -0.61,-23.773 -2.19,-30.82 l 4.54,0 5.86,9.332 c 4.9,-6.379 10.51,-9.332 17.92,-9.332 14.71,0 25.71,12.758 25.71,29.934 0,17.171 -10.02,29.226 -24.34,29.226 -7.27,0 -11.69,-2.504 -16.22,-9.301 l 0,39.903 z m 13.99,-36.719 c 8.95,0 13.97,-8.703 13.97,-24.305 0,-15.004 -4.9,-23.578 -13.61,-23.578 -9.42,0 -15.03,8.695 -15.03,23.34 0,15.84 5.13,24.543 14.67,24.543"
         style="fill:#000000;fill-opacity:1;fill-rule:nonzero;stroke:none"
         id="path5612" /><path
         d="m 2609.52,177.844 21.82,0.836 0,5.16 -3,0 c -6.58,0 -7.54,1.074 -7.54,8.719 l 0,41.8 -22.46,-1.32 0,-5.16 6.07,0 c 4.39,0 5.11,-0.844 5.11,-5.973 l 0,-14.676 c 0,-6.804 -0.72,-10.738 -2.51,-14.675 -2.51,-5.25 -7.28,-8.352 -13.13,-8.352 -3.71,0 -6.81,1.313 -8.36,3.699 -1.56,2.27 -1.79,3.461 -1.79,10.032 l 0,36.425 -20.89,-1.32 0,-5.16 4.5,0 c 4.39,0 5.11,-0.852 5.11,-5.984 l 0,-25.793 c 0,-6.09 0.47,-8.836 2.26,-11.582 3.23,-4.895 8.97,-7.641 16.15,-7.641 7.89,0 13.39,3.23 18.66,10.887"
         style="fill:#000000;fill-opacity:1;fill-rule:nonzero;stroke:none"
         id="path5614" /><path
         d="m 2657.2,234.359 -21.16,-1.32 0,-5.16 4.9,0 c 4.42,0 5.14,-0.84 5.14,-5.973 l 0,-33.297 c 0,-4.773 -1.32,-5.609 -9.09,-5.609 l -0.47,0 0,-4.32 31.91,0 0,4.32 -2.27,0 c -7.65,0 -8.96,0.836 -8.96,5.613 l 0,5.973 c 0,8.957 1.67,18.035 4.66,24.84 2.87,6.687 6.93,10.39 11.95,10.988 -1.67,-1.91 -2.15,-3.102 -2.15,-5.375 0,-3.82 2.75,-6.566 6.58,-6.566 4.3,0 7.29,3.226 7.29,8.121 0,5.73 -4.07,9.566 -10.4,9.566 -7.54,0 -14.11,-6.09 -17.93,-16.594"
         style="fill:#000000;fill-opacity:1;fill-rule:nonzero;stroke:none"
         id="path5616" /><path
         d="m 2710.2,234.359 -20.65,-1.32 0,-5.16 4.27,0 c 4.39,0 5.1,-0.84 5.1,-5.973 l 0,-33.297 c 0,-4.773 -1.31,-5.609 -8.9,-5.609 l -0.47,0 0,-4.32 30.24,0 0,4.32 -0.48,0 c -7.79,0 -9.11,0.836 -9.11,5.609 l 0,17.188 c 0,5.848 0.84,11.219 2.15,13.961 2.51,5.371 7.88,9.082 13.02,9.082 3.1,0 6.68,-1.801 8.48,-4.188 1.79,-2.507 2.63,-6.207 2.63,-11.933 l 0,-24.11 c 0,-4.773 -1.31,-5.609 -9.04,-5.609 l -0.48,0 0,-4.32 30.25,0 0,4.32 -0.48,0 c -7.66,0 -8.97,0.836 -8.97,5.613 l 0,23.528 c 0,8.601 -0.37,10.75 -2.52,14.812 -2.99,5.731 -9.09,9.207 -16.14,9.207 -7.66,0 -13.64,-3.578 -18.9,-11.453"
         style="fill:#000000;fill-opacity:1;fill-rule:nonzero;stroke:none"
         id="path5618" /><path
         d="m 2816.28,234.359 0,23.703 -4.9,0 c -1.19,-15.57 -6.44,-23.472 -16.11,-24.191 l 0,-4.672 9.73,0 0,-30.465 c 0,-8.359 0.24,-11.343 1.43,-14.093 1.92,-5.016 6.71,-7.762 13.66,-7.762 4.68,0 8.75,1.433 11.5,4.066 3.96,3.825 6.24,10.164 6.24,16.743 0,0.714 0,1.55 -0.13,2.75 l -5.02,0 c -0.36,-10.747 -3.47,-16.239 -9.34,-16.239 -2.75,0 -5.14,1.434 -5.98,3.461 -0.72,1.672 -1.08,4.656 -1.08,8.953 l 0,32.586 17.61,0 0,5.16"
         style="fill:#000000;fill-opacity:1;fill-rule:nonzero;stroke:none"
         id="path5620" /><path
         d="m 2864.52,234.359 -22.45,-1.32 0,-5.16 6.06,0 c 4.39,0 5.11,-0.84 5.11,-5.973 l 0,-33.297 c 0,-4.773 -1.31,-5.609 -8.9,-5.609 l -0.83,0 0,-4.32 30.96,0 0,4.32 -0.84,0 c -7.79,0 -9.11,0.836 -9.11,5.613 l 0,4.778 0,40.968 z m -5.64,29.883 c -3.84,0 -6.96,-3.121 -6.96,-6.961 0,-3.722 3.12,-6.961 6.84,-6.961 3.96,0 7.08,3.118 7.08,6.961 0,3.84 -3.12,6.961 -6.96,6.961"
         style="fill:#000000;fill-opacity:1;fill-rule:nonzero;stroke:none"
         id="path5622" /><path
         d="m 2901.12,234.359 -21.25,-1.32 0,-5.16 4.86,0 c 4.39,0 5.11,-0.84 5.11,-5.973 l 0,-33.176 c 0,-4.894 -1.3,-5.73 -8.9,-5.73 l -0.47,0 0,-4.32 30.12,0 0,4.32 -0.48,0 c -7.67,0 -8.99,0.836 -8.99,5.73 l 0,21.602 c 0,10.621 5.85,18.508 13.61,18.508 3.11,0 6.45,-1.68 7.88,-3.949 1.68,-2.266 2.39,-5.727 2.39,-10.621 l 0,-25.661 c 0,-4.773 -1.31,-5.609 -9.03,-5.609 l -0.47,0 0,-4.32 30.24,0 0,4.32 -0.48,0 c -7.66,0 -8.98,0.836 -8.98,5.609 l 0,20.649 c 0,11.933 5.37,19.582 13.73,19.582 3.94,0 7.16,-2.278 8.71,-5.977 1.07,-2.625 1.44,-5.25 1.44,-9.906 l 0,-24.348 c 0,-4.773 -1.31,-5.609 -9.04,-5.609 l -0.48,0 0,-4.32 30.25,0 0,4.32 -0.48,0 c -7.66,0 -8.97,0.836 -8.97,5.734 l 0,26.633 c 0,7.406 -0.73,9.914 -3.83,13.973 -3.47,4.422 -8.38,6.824 -14.11,6.824 -7.78,0 -13.52,-3.703 -18.66,-11.934 -2.03,7.161 -8.49,11.934 -16.5,11.934 -7.18,0 -12.56,-3.461 -17.22,-10.976"
         style="fill:#000000;fill-opacity:1;fill-rule:nonzero;stroke:none"
         id="path5624" /><path
         d="m 3039.52,205.559 c 0.12,17.929 -10.05,30.601 -24.63,30.601 -15.3,0 -26.78,-13.277 -26.78,-31.203 0,-16.727 10.88,-28.078 27.02,-28.078 11.35,0 19.48,5.617 24.39,16.98 l -4.19,2.274 c -4.9,-9.192 -9.92,-12.774 -17.93,-12.774 -6.1,0 -10.52,2.625 -13.63,7.875 -2.15,3.582 -3.11,7.758 -2.99,14.325 l 38.74,0 z m -38.62,5.16 c 0,3.699 0.48,6.324 1.67,9.664 2.52,7.156 6.34,10.617 12.08,10.617 7.29,0 12.07,-6.324 12.07,-15.867 0,-3.457 -1.07,-4.414 -4.9,-4.414"
         style="fill:#000000;fill-opacity:1;fill-rule:nonzero;stroke:none"
         id="path5626" /><path
         d="m 3095.04,170.035 0,90.485 16.78,0 0,4.437 -27.58,0 0,-99.242 27.58,0 0,4.32"
         style="fill:#000000;fill-opacity:1;fill-rule:nonzero;stroke:none"
         id="path5628" /><path
         d="m 3161.28,177.844 20.88,0.836 0,5.16 -2.16,0 c -6.48,0 -7.44,1.195 -7.44,8.722 l 0,74.2 -23.4,-1.324 0,-5.161 7.01,0 c 4.28,0 5.11,-0.843 5.11,-5.972 l 0,-26.965 c -4.42,6.078 -9.54,8.824 -16.46,8.824 -13.48,0 -23.73,-13.039 -23.73,-30.246 0,-16.969 9.89,-29.035 23.73,-29.035 7.51,0 12.64,3.226 16.46,10.406 l 0,-9.445 z m -13.98,51.836 c 4.9,0 9.56,-3.582 11.7,-9.075 1.44,-3.582 2.27,-8.593 2.27,-14.324 0,-13.847 -5.49,-22.922 -14.09,-22.922 -8.36,0 -13.5,7.883 -13.5,21.129 0,7.047 0.72,12.418 2.27,16.477 2.03,5.254 6.45,8.715 11.35,8.715"
         style="fill:#000000;fill-opacity:1;fill-rule:nonzero;stroke:none"
         id="path5630" /><path
         d="m 3238.32,217.172 c 0,7.523 -1.32,11.344 -4.78,14.211 -3.94,3.105 -9.79,4.781 -17.43,4.781 -13.36,0 -23.27,-6.336 -23.27,-14.934 0,-4.535 2.74,-7.402 6.91,-7.402 3.7,0 6.45,2.504 6.45,6.082 0,1.551 -0.58,3.219 -1.75,4.887 -0.7,0.836 -0.81,1.191 -0.81,1.551 0,2.504 4.87,4.656 10.57,4.656 3.68,0 7.84,-1.203 9.74,-2.992 2.25,-1.914 3.09,-4.782 3.09,-10.157 l 0,-4.656 c -12.52,-2.152 -16.34,-3.109 -22.18,-5.379 -10.25,-3.82 -15.26,-9.437 -15.26,-16.961 0,-8.484 6.83,-13.976 17.36,-13.976 8.25,0 15.68,3.347 20.83,9.449 1.91,-6.094 4.9,-8.484 10.53,-8.484 5.34,0 10.92,3.539 10.92,7.078 0,0.719 -0.6,1.316 -1.2,1.316 -0.49,0 -0.96,-0.121 -1.8,-0.48 -1.92,-0.715 -2.4,-0.836 -3.36,-0.836 -3.36,0 -4.56,2.269 -4.56,8.242 l 0,24.004 z m -11.28,-14.578 c 0,-7.168 -0.36,-8.84 -2.38,-11.946 -2.97,-4.421 -8.44,-7.406 -13.55,-7.406 -5.34,0 -9.38,3.942 -9.38,9.317 0,5.019 2.49,8.601 7.72,11.109 3.68,1.672 8.32,2.867 17.59,4.422"
         style="fill:#000000;fill-opacity:1;fill-rule:nonzero;stroke:none"
         id="path5632" /><path
         d="m 3284.99,193.863 -13.15,30.696 c -0.48,1.074 -0.72,1.91 -0.72,2.507 0,2.153 1.43,2.985 5.5,2.985 l 2.51,0 0,4.308 -28.45,0 0,-4.304 1.31,0 c 3.83,0 5.98,-1.672 8.13,-6.45 l 19.49,-44.058 -2.03,-4.18 c -4.29,-9.074 -9.9,-15.402 -13.71,-15.402 -1.07,0 -1.91,0.473 -1.91,1.187 0,0.239 0.12,0.594 0.23,1.071 0.34,1.07 0.56,2.14 0.56,3.093 0,3.094 -2.63,5.356 -6.09,5.356 -4.19,0 -7.18,-3.106 -7.18,-7.399 0,-5.25 4.66,-9.187 10.88,-9.187 6.34,0 11.72,3.105 16.5,9.555 3.71,5.015 6.1,9.793 11.35,23.05 l 13.63,33.68 c 2.99,7.285 5.5,9.672 10.05,9.672 l 0.72,0 0,4.32 -23.91,0 0,-4.308 1.91,0 c 4.54,0 6.45,-1.317 6.45,-4.422 0,-1.192 -0.35,-2.746 -1.19,-4.778"
         style="fill:#000000;fill-opacity:1;fill-rule:nonzero;stroke:none"
         id="path5634" /><path
         d="m 3359.34,235.676 -4.19,0 -3.46,-4.274 c -4.3,3.332 -8.6,4.758 -14.58,4.758 -10.51,0 -17.44,-6.933 -17.44,-17.324 0,-4.66 1.56,-8.602 4.19,-10.992 2.75,-2.508 5.5,-3.703 12.67,-5.375 l 6.34,-1.434 c 9.45,-2.273 12.8,-4.66 12.8,-9.437 0,-5.618 -4.9,-9.559 -11.96,-9.559 -10.06,0 -17.24,6.453 -20.11,18.399 l -4.79,0 0,-22.602 4.19,0 4.2,4.902 c 4.91,-3.945 10.41,-5.859 16.4,-5.859 11.73,0 19.51,7.289 19.51,18.398 0,5.254 -1.68,9.317 -5.03,12.067 -2.87,2.508 -5.26,3.461 -12.55,5.015 l -5.98,1.313 c -6.58,1.433 -6.58,1.433 -8.73,2.629 -2.63,1.195 -4.18,3.703 -4.18,6.332 0,4.777 4.53,8.246 11.09,8.246 4.54,0 8.24,-1.547 11.58,-4.766 2.63,-2.621 3.94,-5.004 5.85,-10.48 l 4.18,0"
         style="fill:#000000;fill-opacity:1;fill-rule:nonzero;stroke:none"
         id="path5636" /><path
         d="m 3388.92,260.637 0,-90.481 -16.69,0 0,-4.441 27.49,0 0,99.242 -27.49,0 0,-4.32"
         style="fill:#000000;fill-opacity:1;fill-rule:nonzero;stroke:none"
         id="path5638" /><path
         d="m 506.277,854.16 c 0,2.754 0,2.883 -2.39,2.883 -2.871,-3.242 -8.852,-7.684 -21.168,-7.684 l 0,-3.48 c 2.746,0 8.711,0 15.277,3.094 l 0,-62.274 c 0,-4.304 -0.355,-5.738 -10.859,-5.738 l -3.699,0 0,-3.481 c 3.226,0.239 14.824,0.239 18.769,0.239 3.945,0 15.422,0 18.648,-0.239 l 0,3.481 -3.707,0 c -10.511,0 -10.871,1.434 -10.871,5.742"
         style="fill:#000000;fill-opacity:1;fill-rule:nonzero;stroke:none"
         id="path5640" /><path
         d="m 552.602,783.242 c 0,3.481 -2.883,5.879 -5.762,5.879 -3.481,0 -5.883,-2.879 -5.883,-5.762 0,-3.476 2.879,-5.879 5.762,-5.879 3.48,0 5.883,2.879 5.883,5.762"
         style="fill:#000000;fill-opacity:1;fill-rule:nonzero;stroke:none"
         id="path5642" /><path
         d="m 615.719,797.566 -2.637,0 c -0.359,-2.027 -1.316,-8.586 -2.516,-10.492 C 609.727,786 602.902,786 599.309,786 l -22.161,0 c 3.235,2.75 10.54,10.406 13.657,13.273 18.207,16.743 24.914,22.961 24.914,34.797 0,13.754 -10.899,22.973 -24.778,22.973 -13.882,0 -22.019,-11.883 -22.019,-22.207 0,-6.121 5.281,-6.121 5.64,-6.121 2.52,0 5.641,1.801 5.641,5.64 0,3.36 -2.293,5.641 -5.668,5.641 -1.086,0 -1.328,0 -1.691,0 2.273,8.09 8.738,13.563 16.515,13.563 10.172,0 16.399,-8.5 16.399,-19.504 0,-10.168 -5.863,-19.02 -12.68,-26.672 l -24.156,-27.035 0,-2.868 43.68,0"
         style="fill:#000000;fill-opacity:1;fill-rule:nonzero;stroke:none"
         id="path5644" /><path
         d="m 675.363,815.758 c 0,9.93 -0.605,19.621 -4.902,28.715 -4.899,9.929 -13.496,12.57 -19.348,12.57 -6.922,0 -15.402,-3.477 -19.82,-13.406 -3.344,-7.539 -4.535,-14.953 -4.535,-27.875 0,-11.606 0.832,-20.34 5.133,-28.836 4.656,-9.09 12.894,-11.965 19.105,-11.965 10.391,0 16.359,6.223 19.82,13.16 4.301,8.973 4.547,20.699 4.547,27.637 z m -24.367,-38.395 c -3.808,0 -11.547,2.153 -13.808,15.188 -1.309,7.179 -1.309,16.269 -1.309,24.64 0,9.809 0,18.661 1.902,25.715 2.024,8.016 8.098,11.735 13.215,11.735 4.527,0 11.43,-2.762 13.692,-13.051 1.55,-6.817 1.55,-16.266 1.55,-24.399 0,-8.015 0,-17.105 -1.312,-24.402 -2.262,-13.156 -9.762,-15.43 -13.93,-15.43"
         style="fill:#000000;fill-opacity:1;fill-rule:nonzero;stroke:none"
         id="path5646" /><path
         d="m 506.277,1814.16 c 0,2.75 0,2.88 -2.39,2.88 -2.871,-3.24 -8.852,-7.68 -21.168,-7.68 l 0,-3.48 c 2.746,0 8.711,0 15.277,3.09 l 0,-62.27 c 0,-4.31 -0.355,-5.74 -10.859,-5.74 l -3.699,0 0,-3.48 c 3.226,0.24 14.824,0.24 18.769,0.24 3.945,0 15.422,0 18.648,-0.24 l 0,3.48 -3.707,0 c -10.511,0 -10.871,1.43 -10.871,5.74"
         style="fill:#000000;fill-opacity:1;fill-rule:nonzero;stroke:none"
         id="path5648" /><path
         d="m 552.602,1743.24 c 0,3.48 -2.883,5.88 -5.762,5.88 -3.481,0 -5.883,-2.88 -5.883,-5.76 0,-3.48 2.879,-5.88 5.762,-5.88 3.48,0 5.883,2.88 5.883,5.76"
         style="fill:#000000;fill-opacity:1;fill-rule:nonzero;stroke:none"
         id="path5650" /><path
         d="m 615.719,1757.57 -2.637,0 c -0.359,-2.03 -1.316,-8.59 -2.516,-10.49 -0.839,-1.08 -7.664,-1.08 -11.257,-1.08 l -22.161,0 c 3.235,2.75 10.54,10.41 13.657,13.28 18.207,16.74 24.914,22.96 24.914,34.79 0,13.76 -10.899,22.97 -24.778,22.97 -13.882,0 -22.019,-11.88 -22.019,-22.2 0,-6.12 5.281,-6.12 5.64,-6.12 2.52,0 5.641,1.8 5.641,5.64 0,3.36 -2.293,5.64 -5.668,5.64 -1.086,0 -1.328,0 -1.691,0 2.273,8.09 8.738,13.56 16.515,13.56 10.172,0 16.399,-8.5 16.399,-19.5 0,-10.17 -5.863,-19.02 -12.68,-26.67 l -24.156,-27.04 0,-2.87 43.68,0"
         style="fill:#000000;fill-opacity:1;fill-rule:nonzero;stroke:none"
         id="path5652" /><path
         d="m 637.199,1805.99 c 5.129,-1.67 9.309,-1.79 10.621,-1.79 13.481,0 22.078,9.97 22.078,11.65 0,0.48 -0.246,1.08 -0.96,1.08 -0.239,0 -0.481,0 -1.551,-0.48 -6.688,-2.88 -12.418,-3.24 -15.524,-3.24 -7.879,0 -13.488,2.4 -15.754,3.36 -0.836,0.36 -1.078,0.36 -1.195,0.36 -0.957,0 -0.957,-0.73 -0.957,-2.64 l 0,-35.56 c 0,-2.15 0,-2.87 1.391,-2.87 0.578,0 0.695,0.12 1.851,1.55 3.36,4.86 8.996,7.71 14.996,7.71 6.356,0 9.477,-5.85 10.434,-7.88 2.039,-4.65 2.168,-10.5 2.168,-15.04 0,-4.54 0,-11.34 -3.352,-16.71 -2.633,-4.3 -7.3,-7.28 -12.566,-7.28 -7.899,0 -15.676,5.38 -17.832,14.1 0.598,-0.29 1.316,-0.43 1.914,-0.43 2.035,0 5.266,1.2 5.266,5.28 0,3.36 -2.274,5.28 -5.266,5.28 -2.152,0 -5.266,-1.08 -5.266,-5.74 0,-10.15 8.145,-21.73 21.434,-21.73 13.527,0 25.387,11.34 25.387,26.51 0,14.22 -9.575,26.04 -22.129,26.04 -6.817,0 -12.078,-2.96 -15.188,-6.28"
         style="fill:#000000;fill-opacity:1;fill-rule:nonzero;stroke:none"
         id="path5654" /><path
         d="m 506.277,2774.16 c 0,2.75 0,2.88 -2.39,2.88 -2.871,-3.24 -8.852,-7.68 -21.168,-7.68 l 0,-3.48 c 2.746,0 8.711,0 15.277,3.09 l 0,-62.27 c 0,-4.31 -0.355,-5.74 -10.859,-5.74 l -3.699,0 0,-3.48 c 3.226,0.24 14.824,0.24 18.769,0.24 3.945,0 15.422,0 18.648,-0.24 l 0,3.48 -3.707,0 c -10.511,0 -10.871,1.43 -10.871,5.74"
         style="fill:#000000;fill-opacity:1;fill-rule:nonzero;stroke:none"
         id="path5656" /><path
         d="m 552.602,2703.24 c 0,3.48 -2.883,5.88 -5.762,5.88 -3.481,0 -5.883,-2.88 -5.883,-5.76 0,-3.48 2.879,-5.88 5.762,-5.88 3.48,0 5.883,2.88 5.883,5.76"
         style="fill:#000000;fill-opacity:1;fill-rule:nonzero;stroke:none"
         id="path5658" /><path
         d="m 585.012,2740.44 c -2.028,-0.12 -2.504,-0.24 -2.504,-1.32 0,-1.2 0.594,-1.2 2.742,-1.2 l 5.484,0 c 10.133,0 14.664,-8.38 14.664,-19.86 0,-15.67 -8.113,-19.86 -13.957,-19.86 -5.726,0 -15.507,2.73 -18.968,10.55 3.82,-0.51 7.277,1.64 7.277,5.93 0,3.45 -2.504,5.84 -5.844,5.84 -2.863,0 -5.965,-1.68 -5.965,-6.22 0,-10.62 10.629,-19.34 23.887,-19.34 14.215,0 24.734,10.89 24.734,22.97 0,11.01 -8.839,19.62 -20.3,21.66 10.386,2.99 17.066,11.72 17.066,21.05 0,9.45 -9.785,16.4 -21.363,16.4 -11.934,0 -20.766,-7.32 -20.766,-16.08 0,-4.8 3.723,-5.76 5.524,-5.76 2.519,0 5.398,1.8 5.398,5.41 0,3.84 -2.898,5.51 -5.559,5.51 -0.722,0 -0.964,0 -1.328,0 4.532,8.04 15.739,8.04 16.336,8.04 3.934,0 11.684,-1.8 11.684,-13.52 0,-2.27 -0.359,-8.96 -3.816,-14.1 -3.579,-5.26 -7.629,-5.62 -10.848,-5.74"
         style="fill:#000000;fill-opacity:1;fill-rule:nonzero;stroke:none"
         id="path5660" /><path
         d="m 675.363,2735.76 c 0,9.93 -0.605,19.62 -4.902,28.71 -4.899,9.93 -13.496,12.57 -19.348,12.57 -6.922,0 -15.402,-3.47 -19.82,-13.4 -3.344,-7.54 -4.535,-14.96 -4.535,-27.88 0,-11.6 0.832,-20.34 5.133,-28.83 4.656,-9.09 12.894,-11.97 19.105,-11.97 10.391,0 16.359,6.22 19.82,13.16 4.301,8.98 4.547,20.7 4.547,27.64 z m -24.367,-38.4 c -3.808,0 -11.547,2.15 -13.808,15.19 -1.309,7.18 -1.309,16.27 -1.309,24.64 0,9.81 0,18.66 1.902,25.72 2.024,8.01 8.098,11.73 13.215,11.73 4.527,0 11.43,-2.76 13.692,-13.05 1.55,-6.82 1.55,-16.27 1.55,-24.4 0,-8.01 0,-17.11 -1.312,-24.4 -2.262,-13.16 -9.762,-15.43 -13.93,-15.43"
         style="fill:#000000;fill-opacity:1;fill-rule:nonzero;stroke:none"
         id="path5662" /><path
         d="m 506.277,3734.16 c 0,2.75 0,2.88 -2.39,2.88 -2.871,-3.24 -8.852,-7.68 -21.168,-7.68 l 0,-3.48 c 2.746,0 8.711,0 15.277,3.09 l 0,-62.27 c 0,-4.31 -0.355,-5.74 -10.859,-5.74 l -3.699,0 0,-3.48 c 3.226,0.24 14.824,0.24 18.769,0.24 3.945,0 15.422,0 18.648,-0.24 l 0,3.48 -3.707,0 c -10.511,0 -10.871,1.43 -10.871,5.74"
         style="fill:#000000;fill-opacity:1;fill-rule:nonzero;stroke:none"
         id="path5664" /><path
         d="m 552.602,3663.24 c 0,3.48 -2.883,5.88 -5.762,5.88 -3.481,0 -5.883,-2.88 -5.883,-5.76 0,-3.48 2.879,-5.88 5.762,-5.88 3.48,0 5.883,2.88 5.883,5.76"
         style="fill:#000000;fill-opacity:1;fill-rule:nonzero;stroke:none"
         id="path5666" /><path
         d="m 585.012,3700.44 c -2.028,-0.12 -2.504,-0.24 -2.504,-1.32 0,-1.2 0.594,-1.2 2.742,-1.2 l 5.484,0 c 10.133,0 14.664,-8.38 14.664,-19.86 0,-15.67 -8.113,-19.86 -13.957,-19.86 -5.726,0 -15.507,2.73 -18.968,10.55 3.82,-0.51 7.277,1.64 7.277,5.93 0,3.45 -2.504,5.84 -5.844,5.84 -2.863,0 -5.965,-1.68 -5.965,-6.22 0,-10.62 10.629,-19.34 23.887,-19.34 14.215,0 24.734,10.89 24.734,22.97 0,11.01 -8.839,19.62 -20.3,21.66 10.386,2.99 17.066,11.72 17.066,21.05 0,9.45 -9.785,16.4 -21.363,16.4 -11.934,0 -20.766,-7.32 -20.766,-16.08 0,-4.8 3.723,-5.76 5.524,-5.76 2.519,0 5.398,1.8 5.398,5.41 0,3.84 -2.898,5.51 -5.559,5.51 -0.722,0 -0.964,0 -1.328,0 4.532,8.04 15.739,8.04 16.336,8.04 3.934,0 11.684,-1.8 11.684,-13.52 0,-2.27 -0.359,-8.96 -3.816,-14.1 -3.579,-5.26 -7.629,-5.62 -10.848,-5.74"
         style="fill:#000000;fill-opacity:1;fill-rule:nonzero;stroke:none"
         id="path5668" /><path
         d="m 637.199,3725.99 c 5.129,-1.67 9.309,-1.78 10.621,-1.78 13.481,0 22.078,9.96 22.078,11.64 0,0.48 -0.246,1.08 -0.96,1.08 -0.239,0 -0.481,0 -1.551,-0.48 -6.688,-2.88 -12.418,-3.24 -15.524,-3.24 -7.879,0 -13.488,2.4 -15.754,3.36 -0.836,0.36 -1.078,0.36 -1.195,0.36 -0.957,0 -0.957,-0.73 -0.957,-2.64 l 0,-35.56 c 0,-2.15 0,-2.87 1.391,-2.87 0.578,0 0.695,0.12 1.851,1.55 3.36,4.86 8.996,7.71 14.996,7.71 6.356,0 9.477,-5.85 10.434,-7.88 2.039,-4.65 2.168,-10.5 2.168,-15.04 0,-4.54 0,-11.34 -3.352,-16.71 -2.633,-4.3 -7.3,-7.28 -12.566,-7.28 -7.899,0 -15.676,5.38 -17.832,14.1 0.598,-0.29 1.316,-0.43 1.914,-0.43 2.035,0 5.266,1.2 5.266,5.28 0,3.36 -2.274,5.28 -5.266,5.28 -2.152,0 -5.266,-1.08 -5.266,-5.74 0,-10.15 8.145,-21.73 21.434,-21.73 13.527,0 25.387,11.34 25.387,26.51 0,14.22 -9.575,26.04 -22.129,26.04 -6.817,0 -12.078,-2.96 -15.188,-6.28"
         style="fill:#000000;fill-opacity:1;fill-rule:nonzero;stroke:none"
         id="path5670" /><path
         d="m 392.988,2148.36 -59.148,0 1.324,-22.09 5.16,0 0,5.7 c 0,4.39 0.836,5.11 5.973,5.11 l 65.691,0 c 4.774,0 5.614,-1.31 5.614,-8.9 l 0,-0.47 4.32,0 0,30.24 -4.32,0 0,-0.48 c 0,-7.79 -0.84,-9.11 -5.618,-9.11 l -11.586,0 -6.933,7.3 19.953,14.23 c 0.836,0.48 1.555,0.84 2.152,0.84 1.551,0 2.028,-1.32 2.028,-5.27 l 0,-2.27 4.32,0 0,31.58 -4.32,0 c -0.598,-6.7 -2.028,-9.09 -8.235,-14 l -23.16,-16.98 -5.254,5.38 c -6.804,6.94 -9.429,12.08 -10.39,20.21 l -4.321,0 0,-31.45 4.321,0 0,3.71 c 0,3.82 0.718,5.62 2.269,5.62 1.313,0 2.742,-0.84 4.652,-2.75"
         style="fill:#000000;fill-opacity:1;fill-rule:nonzero;stroke:none"
         id="path5672" /><path
         d="m 4609.41,3757.96 -5.32,0 -5.74,-8.61 c -6.74,6.45 -15.93,9.9 -26.12,9.9 -18.8,0 -31.43,-12.05 -31.43,-29.99 0,-15.64 7.75,-23.38 28.84,-28.83 l 13.63,-3.45 c 10.62,-2.72 11.62,-3.01 14.64,-5.3 4.3,-3.3 6.61,-8.04 6.61,-13.63 0,-5.74 -2.16,-10.48 -6.46,-14.35 -4.73,-4.16 -9.47,-5.74 -17.35,-5.74 -10.62,0 -18.22,3.3 -24.96,10.76 -6.02,6.75 -9.04,13.49 -11.19,24.55 l -6.17,0 0.58,-40.9 5.59,0 6.45,9.75 c 9.61,-7.88 17.63,-10.75 30.11,-10.75 21.07,0 34.56,12.34 34.56,31.58 0,8.89 -3.03,16.5 -8.63,21.96 -3.87,3.73 -9.46,6.16 -20.94,9.04 l -15.36,3.87 c -12.77,3.3 -18.8,8.9 -18.8,17.66 0,10.04 8.19,16.93 20.4,16.93 10.06,0 18.24,-4.31 23.99,-12.5 4.16,-5.88 6.75,-11.92 8.61,-19.24 l 6.18,0"
         style="fill:#000000;fill-opacity:1;fill-rule:nonzero;stroke:none"
         id="path5674" /><path
         d="m 4687.79,3685.81 c 0.14,21.51 -12.05,36.71 -29.56,36.71 -18.36,0 -32.13,-15.92 -32.13,-37.44 0,-20.09 13.05,-33.72 32.42,-33.72 13.63,0 23.39,6.75 29.27,20.38 l -5.02,2.73 c -5.88,-11.02 -11.91,-15.31 -21.52,-15.31 -7.32,0 -12.63,3.15 -16.36,9.45 -2.58,4.3 -3.73,9.32 -3.59,17.2 l 46.49,0 z m -46.33,6.11 c 0,4.46 0.57,7.63 2,11.66 3.02,8.64 7.61,12.81 14.49,12.81 8.76,0 14.5,-7.63 14.5,-19.14 0,-4.18 -1.3,-5.33 -5.89,-5.33"
         style="fill:#000000;fill-opacity:1;fill-rule:nonzero;stroke:none"
         id="path5676" /><path
         d="m 4721.48,3720.36 -25.39,-1.56 0,-6.12 5.88,0 c 5.31,0 6.17,-1.01 6.17,-7.18 l 0,-40.07 c 0,-5.74 -1.58,-6.75 -10.9,-6.75 l -0.58,0 0,-5.15 38.31,0 0,5.15 -2.73,0 c -9.18,0 -10.76,1.01 -10.76,6.75 l 0,7.16 c 0,10.76 2.01,21.66 5.6,29.84 3.44,8.03 8.32,12.48 14.35,13.19 -2.01,-2.29 -2.59,-3.73 -2.59,-6.45 0,-4.59 3.3,-7.89 7.89,-7.89 5.17,0 8.75,3.87 8.75,9.76 0,6.88 -4.87,11.48 -12.48,11.48 -9.04,0 -16.93,-7.31 -21.52,-19.93"
         style="fill:#000000;fill-opacity:1;fill-rule:nonzero;stroke:none"
         id="path5678" /><path
         d="m 4785.48,3720.36 -24.78,-1.56 0,-6.12 5.17,0 c 5.31,0 6.18,-1.02 6.18,-7.18 l 0,-69 c 0,-5.73 -1.59,-6.73 -10.78,-6.73 l -0.57,0 0,-5.16 37.3,0 0,5.16 -1.59,0 c -9.35,0 -10.93,1 -10.93,6.73 l 0,26.49 c 4.74,-8.33 10.2,-11.63 18.97,-11.63 16.66,0 29.02,15.35 29.02,35.87 0,19.8 -12.36,35.29 -28.17,35.29 -8.9,0 -14.79,-3.73 -19.82,-12.33 l 0,10.17 z m 17.29,-5.64 c 9.87,0 15.59,-9.89 15.59,-26.65 0,-18.46 -5.87,-28.92 -16.02,-28.92 -10.14,0 -16.86,10.6 -16.86,27.06 0,17.76 6.43,28.51 17.29,28.51"
         style="fill:#000000;fill-opacity:1;fill-rule:nonzero;stroke:none"
         id="path5680" /><path
         d="m 4906.19,3685.81 c 0.14,21.51 -12.05,36.71 -29.56,36.71 -18.36,0 -32.13,-15.92 -32.13,-37.44 0,-20.09 13.05,-33.72 32.42,-33.72 13.63,0 23.38,6.75 29.27,20.38 l -5.02,2.73 c -5.88,-11.02 -11.91,-15.31 -21.52,-15.31 -7.32,0 -12.63,3.15 -16.36,9.45 -2.58,4.3 -3.73,9.32 -3.58,17.2 l 46.48,0 z m -46.33,6.11 c 0,4.46 0.57,7.63 2.01,11.66 3.01,8.64 7.6,12.81 14.49,12.81 8.75,0 14.48,-7.63 14.48,-19.14 0,-4.18 -1.29,-5.33 -5.88,-5.33"
         style="fill:#000000;fill-opacity:1;fill-rule:nonzero;stroke:none"
         id="path5682" /><path
         d="m 4940.15,3720.36 -24.8,-1.56 0,-6.12 5.18,0 c 5.32,0 6.18,-1.01 6.18,-7.18 l 0,-40.07 c 0,-5.74 -1.58,-6.75 -10.79,-6.75 l -0.57,0 0,-5.15 36.29,0 0,5.15 -0.57,0 c -9.34,0 -10.92,1.01 -10.92,6.75 l 0,20.65 c 0,7.03 1,13.48 2.58,16.78 3.01,6.45 9.47,10.91 15.64,10.91 3.73,0 8.04,-2.16 10.19,-5.03 2.15,-3.01 3.16,-7.46 3.16,-14.35 l 0,-28.96 c 0,-5.74 -1.58,-6.75 -10.9,-6.75 l -0.57,0 0,-5.15 36.3,0 0,5.15 -0.58,0 c -9.23,0 -10.82,1.01 -10.82,6.75 l 0,28.25 c 0,10.33 -0.44,12.91 -3.02,17.78 -3.58,6.89 -10.89,11.06 -19.34,11.06 -9.17,0 -16.34,-4.3 -22.64,-13.76"
         style="fill:#000000;fill-opacity:1;fill-rule:nonzero;stroke:none"
         id="path5684" /><path
         d="m 5026.91,3720.36 0,28.43 -5.88,0 c -1.44,-18.64 -7.75,-28.1 -19.37,-28.96 l 0,-5.59 11.82,0 0,-36.61 c 0,-10.05 0.28,-13.64 1.72,-16.94 2.29,-6.03 8.02,-9.33 16.33,-9.33 5.58,0 10.45,1.72 13.75,4.88 4.72,4.59 7.45,12.2 7.45,20.09 0,0.86 0,1.87 -0.14,3.3 l -6.03,0 c -0.43,-12.92 -4.16,-19.51 -11.19,-19.51 -3.3,0 -6.17,1.72 -7.17,4.16 -0.86,2.01 -1.29,5.6 -1.29,10.77 l 0,39.19 21.09,0 0,6.12"
         style="fill:#000000;fill-opacity:1;fill-rule:nonzero;stroke:none"
         id="path5686" /><path
         d="m 4566.36,3496.32 8.32,0 c 5.6,0 11.34,-1.73 14.49,-4.31 4.16,-3.31 6.31,-8.48 7.32,-17.96 l 0.72,-7.33 c 1.72,-16.24 7.02,-22.84 18.36,-22.84 11.76,0 17.36,7.89 17.8,25.11 l -6.03,0 c -0.57,-9.9 -2.29,-14.2 -6.17,-14.2 -3.3,0 -4.73,2.44 -7.17,12.33 l -2.3,9.04 c -3.15,13.2 -8.75,19.22 -19.94,22.09 20.63,2.87 30.52,11.19 30.52,25.67 0,16.35 -13.79,25.68 -37.87,25.68 l -49.6,0 0,-6.71 2.58,0 c 11.61,0 12.9,-0.74 12.9,-6.77 l 0,-76.62 c 0,-6.03 -1.29,-6.75 -12.9,-6.75 l -2.58,0 0,-6.71 47.05,0 0,6.71 -2.58,0 c -11.63,0 -12.92,0.72 -12.92,6.76 l 0,4.03 0,32.78 z m 0,6.72 0,31.53 c 0,5.73 0.14,6.16 1.58,7.31 1.15,0.86 2.15,1.01 8.31,1.01 l 7.75,0 c 14.19,0 20.64,-6.03 20.64,-19.07 0,-7.31 -1.86,-12.9 -5.59,-15.91 -3.58,-3.01 -10.03,-4.87 -16.92,-4.87"
         style="fill:#000000;fill-opacity:1;fill-rule:nonzero;stroke:none"
         id="path5688" /><path
         d="m 4675.45,3549.6 -37.01,0 0,-6.71 2.72,0 c 11.63,0 12.91,-0.74 12.91,-6.77 l 0,-59.12 c 0,-19.51 -2.86,-23.67 -16.64,-24.25 l 0,-6.71 40.89,0 0,6.71 c -13.59,0.58 -16.45,4.74 -16.45,24.25 l 0,63.44 34.09,-94.4 5.74,0 31.95,94.4 0,-80.94 c 0,-6.17 -1.29,-6.75 -12.87,-6.75 l -2.58,0 0,-6.71 47.06,0 0,6.71 -2.6,0 c -11.64,0 -12.94,0.58 -12.94,6.75 l 0,76.62 c 0,6.03 1.3,6.77 12.94,6.77 l 2.6,0 0,6.71 -36.01,0 -26.25,-76.45"
         style="fill:#000000;fill-opacity:1;fill-rule:nonzero;stroke:none"
         id="path5690" /><path
         d="m 4863.12,3550.62 -5.45,0 -5.6,-8.75 c -9.32,7.46 -15.63,9.9 -26.11,9.9 -11.33,0 -20.23,-3.16 -29.26,-10.47 -14.2,-11.48 -20.81,-25.97 -20.81,-45.34 0,-14.63 4.31,-26.83 12.63,-36.15 8.89,-10.04 22.09,-15.92 35.87,-15.92 12.05,0 20.51,3.73 29.84,13.06 l 5.31,-13.06 6.02,0 0,31.65 c 0,7.77 0,7.91 0.86,8.92 1.29,1.44 4.3,2.02 12.05,2.02 l 2.17,0 0,6.77 -45.62,0 0,-6.76 2.72,0 c 12.05,0 13.05,-0.71 13.05,-8.61 0,-6.17 -1.15,-11.92 -2.86,-15.36 -3.59,-7.04 -12.77,-11.92 -22.1,-11.92 -9.18,0 -18.51,4.74 -23.38,11.92 -5.31,7.89 -7.61,18.08 -7.61,33.44 0,32 10.62,49.09 30.56,49.09 16.35,0 27.69,-11.76 33.57,-34.73 l 6.17,0"
         style="fill:#000000;fill-opacity:1;fill-rule:nonzero;stroke:none"
         id="path5692" /></g></g></svg>