<?xml version="1.0" encoding="UTF-8" standalone="no"?>
<!-- Created with Inkscape (http://www.inkscape.org/) -->

<svg
   xmlns:dc="http://purl.org/dc/elements/1.1/"
   xmlns:cc="http://creativecommons.org/ns#"
   xmlns:rdf="http://www.w3.org/1999/02/22-rdf-syntax-ns#"
   xmlns:svg="http://www.w3.org/2000/svg"
   xmlns="http://www.w3.org/2000/svg"
   xmlns:sodipodi="http://sodipodi.sourceforge.net/DTD/sodipodi-0.dtd"
   xmlns:inkscape="http://www.inkscape.org/namespaces/inkscape"
   id="svg12621"
   version="1.1"
   inkscape:version="0.48.2 r9819"
   width="630"
   height="630"
   xml:space="preserve"
   sodipodi:docname="sme_solver_exec_times.eps"><sodipodi:namedview
     pagecolor="#ffffff"
     bordercolor="#666666"
     borderopacity="1"
     objecttolerance="10"
     gridtolerance="10"
     guidetolerance="10"
     inkscape:pageopacity="0"
     inkscape:pageshadow="2"
     inkscape:window-width="1438"
     inkscape:window-height="868"
     id="namedview12623"
     showgrid="false"
     inkscape:zoom="0.37460317"
     inkscape:cx="315"
     inkscape:cy="315"
     inkscape:window-x="0"
     inkscape:window-y="30"
     inkscape:window-maximized="0"
     inkscape:current-layer="g12629" /><metadata
     id="metadata12627"><rdf:RDF><cc:Work
         rdf:about=""><dc:format>image/svg+xml</dc:format><dc:type
           rdf:resource="http://purl.org/dc/dcmitype/StillImage" /><dc:title></dc:title></cc:Work></rdf:RDF></metadata><defs
     id="defs12625"><clipPath
       id="clipPath12641"
       clipPathUnits="userSpaceOnUse"><path
         id="path12643"
         d="m 630,630 3906,0 0,3906 -3906,0 0,-3906 z" /></clipPath></defs><g
     transform="matrix(1.25,0,0,-1.25,0,630)"
     inkscape:label="ink_ext_XXXXXX"
     inkscape:groupmode="layer"
     id="g12629"><g
       transform="scale(0.1,0.1)"
       id="g12631"><path
         id="path12633"
         style="fill:#ffffff;fill-opacity:1;fill-rule:nonzero;stroke:none"
         d="m 0,0 5040,0 0,5040 L 0,5040 0,0 z" /><path
         id="path12635"
         style="fill:#ffffff;fill-opacity:1;fill-rule:nonzero;stroke:none"
         d="m 630,630 3906,0 0,3906 -3906,0 0,-3906 z" /><g
         id="g12637"><g
           clip-path="url(#clipPath12641)"
           id="g12639"><path
             id="path12645"
             style="fill:none;stroke:#000000;stroke-opacity:1;stroke-width:10;stroke-linecap:square;stroke-linejoin:round;stroke-miterlimit:10;stroke-dasharray:none"
             d="m 1020.6,1241.15 130.2,-32.09 130.2,-43.98 130.2,119.08 130.2,12.46 130.2,405.12 130.2,-17.74 130.2,-159.32 130.2,3.68 130.2,381.7 130.2,-48.28 130.2,-95.54 130.2,-29.87 130.2,269.01 130.2,1.65 130.2,74.64 130.2,2.77 130.2,-15.51 130.2,23.75 130.2,-95.98 130.2,6.81 130.2,3.82 130.2,-16.63 130.2,84.99 130.2,-4.41 130.2,27.68 130.2,-17.54 130.2,37.66" /><path
             id="path12647"
             style="fill:none;stroke:#000000;stroke-opacity:1;stroke-width:10;stroke-linecap:butt;stroke-linejoin:round;stroke-miterlimit:10;stroke-dasharray:60,60;stroke-dashoffset:0"
             d="m 1020.6,3570.92 130.2,54.02 130.2,-19.86 130.2,77.59 130.2,10.35 130.2,64.74 130.2,32.46 130.2,31.42 130.2,-2.19 130.2,52.49 130.2,-1.1 130.2,50.93 130.2,5.81 130.2,52.55 130.2,-8.58 130.2,48.2 130.2,0.26 130.2,31.22 130.2,1.83 130.2,44.32 130.2,0.34 130.2,35.07 130.2,-0.94 130.2,24.71 130.2,2.1 130.2,17.44 130.2,-25.43 130.2,98.74" /></g></g><path
         id="path12649"
         style="fill:#000000;fill-opacity:1;fill-rule:nonzero;stroke:none"
         d="m 630,630 0,40" /><path
         id="path12651"
         style="fill:none;stroke:#000000;stroke-opacity:1;stroke-width:5;stroke-linecap:butt;stroke-linejoin:round;stroke-miterlimit:10;stroke-dasharray:none"
         d="m 630,630 0,40" /><path
         id="path12653"
         style="fill:#000000;fill-opacity:1;fill-rule:nonzero;stroke:none"
         d="m 630,4536 0,-40" /><path
         id="path12655"
         style="fill:none;stroke:#000000;stroke-opacity:1;stroke-width:5;stroke-linecap:butt;stroke-linejoin:round;stroke-miterlimit:10;stroke-dasharray:none"
         d="m 630,4536 0,-40" /><g
         transform="scale(10,10)"
         id="g12657"><text
   id="text12659"
   transform="matrix(1,0,0,-1,58.9688,47.125)"><tspan
     id="tspan12661"
     y="0"
     x="0"
     style="font-size:16;font-weight:normal;writing-mode:lr;fill-rule:nonzero;fill-opacity:1;stroke:none;-inkscape-font-specification:serif;font-variant:normal;font-family:serif;fill:#000000">0</tspan></text>

</g><path
         id="path12663"
         style="fill:#000000;fill-opacity:1;fill-rule:nonzero;stroke:none"
         d="m 1281,630 0,40" /><path
         id="path12665"
         style="fill:none;stroke:#000000;stroke-opacity:1;stroke-width:5;stroke-linecap:butt;stroke-linejoin:round;stroke-miterlimit:10;stroke-dasharray:none"
         d="m 1281,630 0,40" /><path
         id="path12667"
         style="fill:#000000;fill-opacity:1;fill-rule:nonzero;stroke:none"
         d="m 1281,4536 0,-40" /><path
         id="path12669"
         style="fill:none;stroke:#000000;stroke-opacity:1;stroke-width:5;stroke-linecap:butt;stroke-linejoin:round;stroke-miterlimit:10;stroke-dasharray:none"
         d="m 1281,4536 0,-40" /><g
         transform="scale(10,10)"
         id="g12671"><text
   id="text12673"
   transform="matrix(1,0,0,-1,124.303,47.3281)"><tspan
     id="tspan12675"
     y="0"
     x="0"
     style="font-size:16;font-weight:normal;writing-mode:lr;fill-rule:nonzero;fill-opacity:1;stroke:none;-inkscape-font-specification:serif;font-variant:normal;font-family:serif;fill:#000000">5</tspan></text>

</g><path
         id="path12677"
         style="fill:#000000;fill-opacity:1;fill-rule:nonzero;stroke:none"
         d="m 1932,630 0,40" /><path
         id="path12679"
         style="fill:none;stroke:#000000;stroke-opacity:1;stroke-width:5;stroke-linecap:butt;stroke-linejoin:round;stroke-miterlimit:10;stroke-dasharray:none"
         d="m 1932,630 0,40" /><path
         id="path12681"
         style="fill:#000000;fill-opacity:1;fill-rule:nonzero;stroke:none"
         d="m 1932,4536 0,-40" /><path
         id="path12683"
         style="fill:none;stroke:#000000;stroke-opacity:1;stroke-width:5;stroke-linecap:butt;stroke-linejoin:round;stroke-miterlimit:10;stroke-dasharray:none"
         d="m 1932,4536 0,-40" /><g
         transform="scale(10,10)"
         id="g12685"><text
   id="text12687"
   transform="matrix(1,0,0,-1,184.52,47.125)"><tspan
     id="tspan12689"
     sodipodi:role="line"
     y="0"
     x="0 10.17968653"
     style="font-size:16;font-weight:normal;writing-mode:lr;fill-rule:nonzero;fill-opacity:1;stroke:none;-inkscape-font-specification:serif;font-variant:normal;font-family:serif;fill:#000000">10</tspan></text>

</g><path
         id="path12691"
         style="fill:#000000;fill-opacity:1;fill-rule:nonzero;stroke:none"
         d="m 2583,630 0,40" /><path
         id="path12693"
         style="fill:none;stroke:#000000;stroke-opacity:1;stroke-width:5;stroke-linecap:butt;stroke-linejoin:round;stroke-miterlimit:10;stroke-dasharray:none"
         d="m 2583,630 0,40" /><path
         id="path12695"
         style="fill:#000000;fill-opacity:1;fill-rule:nonzero;stroke:none"
         d="m 2583,4536 0,-40" /><path
         id="path12697"
         style="fill:none;stroke:#000000;stroke-opacity:1;stroke-width:5;stroke-linecap:butt;stroke-linejoin:round;stroke-miterlimit:10;stroke-dasharray:none"
         d="m 2583,4536 0,-40" /><g
         transform="scale(10,10)"
         id="g12699"><text
   id="text12701"
   transform="matrix(1,0,0,-1,249.706,47.125)"><tspan
     id="tspan12703"
     sodipodi:role="line"
     y="0"
     x="0 10.17968653"
     style="font-size:16;font-weight:normal;writing-mode:lr;fill-rule:nonzero;fill-opacity:1;stroke:none;-inkscape-font-specification:serif;font-variant:normal;font-family:serif;fill:#000000">15</tspan></text>

</g><path
         id="path12705"
         style="fill:#000000;fill-opacity:1;fill-rule:nonzero;stroke:none"
         d="m 3234,630 0,40" /><path
         id="path12707"
         style="fill:none;stroke:#000000;stroke-opacity:1;stroke-width:5;stroke-linecap:butt;stroke-linejoin:round;stroke-miterlimit:10;stroke-dasharray:none"
         d="m 3234,630 0,40" /><path
         id="path12709"
         style="fill:#000000;fill-opacity:1;fill-rule:nonzero;stroke:none"
         d="m 3234,4536 0,-40" /><path
         id="path12711"
         style="fill:none;stroke:#000000;stroke-opacity:1;stroke-width:5;stroke-linecap:butt;stroke-linejoin:round;stroke-miterlimit:10;stroke-dasharray:none"
         d="m 3234,4536 0,-40" /><g
         transform="scale(10,10)"
         id="g12713"><text
   id="text12715"
   transform="matrix(1,0,0,-1,314.291,47.125)"><tspan
     id="tspan12717"
     sodipodi:role="line"
     y="0"
     x="0 10.17968653"
     style="font-size:16;font-weight:normal;writing-mode:lr;fill-rule:nonzero;fill-opacity:1;stroke:none;-inkscape-font-specification:serif;font-variant:normal;font-family:serif;fill:#000000">20</tspan></text>

</g><path
         id="path12719"
         style="fill:#000000;fill-opacity:1;fill-rule:nonzero;stroke:none"
         d="m 3885,630 0,40" /><path
         id="path12721"
         style="fill:none;stroke:#000000;stroke-opacity:1;stroke-width:5;stroke-linecap:butt;stroke-linejoin:round;stroke-miterlimit:10;stroke-dasharray:none"
         d="m 3885,630 0,40" /><path
         id="path12723"
         style="fill:#000000;fill-opacity:1;fill-rule:nonzero;stroke:none"
         d="m 3885,4536 0,-40" /><path
         id="path12725"
         style="fill:none;stroke:#000000;stroke-opacity:1;stroke-width:5;stroke-linecap:butt;stroke-linejoin:round;stroke-miterlimit:10;stroke-dasharray:none"
         d="m 3885,4536 0,-40" /><g
         transform="scale(10,10)"
         id="g12727"><text
   id="text12729"
   transform="matrix(1,0,0,-1,379.477,47.125)"><tspan
     id="tspan12731"
     sodipodi:role="line"
     y="0"
     x="0 10.17968653"
     style="font-size:16;font-weight:normal;writing-mode:lr;fill-rule:nonzero;fill-opacity:1;stroke:none;-inkscape-font-specification:serif;font-variant:normal;font-family:serif;fill:#000000">25</tspan></text>

</g><path
         id="path12733"
         style="fill:#000000;fill-opacity:1;fill-rule:nonzero;stroke:none"
         d="m 4536,630 0,40" /><path
         id="path12735"
         style="fill:none;stroke:#000000;stroke-opacity:1;stroke-width:5;stroke-linecap:butt;stroke-linejoin:round;stroke-miterlimit:10;stroke-dasharray:none"
         d="m 4536,630 0,40" /><path
         id="path12737"
         style="fill:#000000;fill-opacity:1;fill-rule:nonzero;stroke:none"
         d="m 4536,4536 0,-40" /><path
         id="path12739"
         style="fill:none;stroke:#000000;stroke-opacity:1;stroke-width:5;stroke-linecap:butt;stroke-linejoin:round;stroke-miterlimit:10;stroke-dasharray:none"
         d="m 4536,4536 0,-40" /><g
         transform="scale(10,10)"
         id="g12741"><text
   id="text12743"
   transform="matrix(1,0,0,-1,444.553,47.125)"><tspan
     id="tspan12745"
     sodipodi:role="line"
     y="0"
     x="0 10.17971094"
     style="font-size:16;font-weight:normal;writing-mode:lr;fill-rule:nonzero;fill-opacity:1;stroke:none;-inkscape-font-specification:serif;font-variant:normal;font-family:serif;fill:#000000">30</tspan><tspan
     id="tspan12747"
     sodipodi:role="line"
     y="17.3906"
     x="-279.511 -269.20631641 -258.90163281 -243.72976318 -233.48756592 -224.01881299 -216.37081299 -211.28486377 -201.65205811 -195.73017822 -190.644229 -181.68330127 -172.05049561 -156.87861377 -146.6364165 -137.00361084 -126.69892724 -117.23017432 -106.92549072 -100.49581005"
     style="font-size:16;font-weight:normal;writing-mode:lr;fill-rule:nonzero;fill-opacity:1;stroke:none;-inkscape-font-specification:serif;font-variant:normal;font-family:serif;fill:#000000">number of components</tspan></text>

</g><path
         id="path12749"
         style="fill:#000000;fill-opacity:1;fill-rule:nonzero;stroke:none"
         d="m 630,630 40,0" /><path
         id="path12751"
         style="fill:none;stroke:#000000;stroke-opacity:1;stroke-width:5;stroke-linecap:butt;stroke-linejoin:round;stroke-miterlimit:10;stroke-dasharray:none"
         d="m 630,630 40,0" /><path
         id="path12753"
         style="fill:#000000;fill-opacity:1;fill-rule:nonzero;stroke:none"
         d="m 4536,630 -40,0" /><path
         id="path12755"
         style="fill:none;stroke:#000000;stroke-opacity:1;stroke-width:5;stroke-linecap:butt;stroke-linejoin:round;stroke-miterlimit:10;stroke-dasharray:none"
         d="m 4536,630 -40,0" /><g
         transform="scale(10,10)"
         id="g12757"><text
   id="text12759"
   transform="matrix(1,0,0,-1,24,55.857)"><tspan
     id="tspan12761"
     sodipodi:role="line"
     y="0"
     x="0 10.17968653"
     style="font-size:16;font-weight:normal;writing-mode:lr;fill-rule:nonzero;fill-opacity:1;stroke:none;-inkscape-font-specification:serif;font-variant:normal;font-family:serif;fill:#000000">10</tspan></text>

<text
   id="text12763"
   transform="matrix(1,0,0,-1,44.3594,63.82966)"><tspan
     id="tspan12765"
     sodipodi:role="line"
     y="0"
     x="0 3.78437624"
     style="font-size:11.2;font-weight:normal;writing-mode:lr;fill-rule:nonzero;fill-opacity:1;stroke:none;-inkscape-font-specification:serif;font-variant:normal;font-family:serif;fill:#000000">-5</tspan></text>

</g><path
         id="path12767"
         style="fill:#000000;fill-opacity:1;fill-rule:nonzero;stroke:none"
         d="m 630,1932 40,0" /><path
         id="path12769"
         style="fill:none;stroke:#000000;stroke-opacity:1;stroke-width:5;stroke-linecap:butt;stroke-linejoin:round;stroke-miterlimit:10;stroke-dasharray:none"
         d="m 630,1932 40,0" /><path
         id="path12771"
         style="fill:#000000;fill-opacity:1;fill-rule:nonzero;stroke:none"
         d="m 4536,1932 -40,0" /><path
         id="path12773"
         style="fill:none;stroke:#000000;stroke-opacity:1;stroke-width:5;stroke-linecap:butt;stroke-linejoin:round;stroke-miterlimit:10;stroke-dasharray:none"
         d="m 4536,1932 -40,0" /><g
         transform="scale(10,10)"
         id="g12775"><text
   id="text12777"
   transform="matrix(1,0,0,-1,24,185.915)"><tspan
     id="tspan12779"
     sodipodi:role="line"
     y="0"
     x="0 10.17968653"
     style="font-size:16;font-weight:normal;writing-mode:lr;fill-rule:nonzero;fill-opacity:1;stroke:none;-inkscape-font-specification:serif;font-variant:normal;font-family:serif;fill:#000000">10</tspan></text>

<text
   id="text12781"
   transform="matrix(1,0,0,-1,44.3594,193.88766)"><tspan
     id="tspan12783"
     sodipodi:role="line"
     y="0"
     x="0 3.78437624"
     style="font-size:11.2;font-weight:normal;writing-mode:lr;fill-rule:nonzero;fill-opacity:1;stroke:none;-inkscape-font-specification:serif;font-variant:normal;font-family:serif;fill:#000000">-4</tspan></text>

</g><path
         id="path12785"
         style="fill:#000000;fill-opacity:1;fill-rule:nonzero;stroke:none"
         d="m 630,3234 40,0" /><path
         id="path12787"
         style="fill:none;stroke:#000000;stroke-opacity:1;stroke-width:5;stroke-linecap:butt;stroke-linejoin:round;stroke-miterlimit:10;stroke-dasharray:none"
         d="m 630,3234 40,0" /><path
         id="path12789"
         style="fill:#000000;fill-opacity:1;fill-rule:nonzero;stroke:none"
         d="m 4536,3234 -40,0" /><path
         id="path12791"
         style="fill:none;stroke:#000000;stroke-opacity:1;stroke-width:5;stroke-linecap:butt;stroke-linejoin:round;stroke-miterlimit:10;stroke-dasharray:none"
         d="m 4536,3234 -40,0" /><g
         transform="scale(10,10)"
         id="g12793"><text
   id="text12795"
   transform="matrix(1,0,0,-1,24,316.115)"><tspan
     id="tspan12797"
     sodipodi:role="line"
     y="0"
     x="0 10.17968653"
     style="font-size:16;font-weight:normal;writing-mode:lr;fill-rule:nonzero;fill-opacity:1;stroke:none;-inkscape-font-specification:serif;font-variant:normal;font-family:serif;fill:#000000">10</tspan></text>

<text
   id="text12799"
   transform="matrix(1,0,0,-1,44.3594,324.08766)"><tspan
     id="tspan12801"
     sodipodi:role="line"
     y="0"
     x="0 3.78437624"
     style="font-size:11.2;font-weight:normal;writing-mode:lr;fill-rule:nonzero;fill-opacity:1;stroke:none;-inkscape-font-specification:serif;font-variant:normal;font-family:serif;fill:#000000">-3</tspan></text>

</g><path
         id="path12803"
         style="fill:#000000;fill-opacity:1;fill-rule:nonzero;stroke:none"
         d="m 630,4536 40,0" /><path
         id="path12805"
         style="fill:none;stroke:#000000;stroke-opacity:1;stroke-width:5;stroke-linecap:butt;stroke-linejoin:round;stroke-miterlimit:10;stroke-dasharray:none"
         d="m 630,4536 40,0" /><path
         id="path12807"
         style="fill:#000000;fill-opacity:1;fill-rule:nonzero;stroke:none"
         d="m 4536,4536 -40,0" /><path
         id="path12809"
         style="fill:none;stroke:#000000;stroke-opacity:1;stroke-width:5;stroke-linecap:butt;stroke-linejoin:round;stroke-miterlimit:10;stroke-dasharray:none"
         d="m 4536,4536 -40,0" /><g
         transform="scale(10,10)"
         id="g12811"><text
   id="text12813"
   transform="matrix(1,0,0,-1,24,446.315)"><tspan
     id="tspan12815"
     sodipodi:role="line"
     y="0"
     x="0 10.17968653"
     style="font-size:16;font-weight:normal;writing-mode:lr;fill-rule:nonzero;fill-opacity:1;stroke:none;-inkscape-font-specification:serif;font-variant:normal;font-family:serif;fill:#000000">10</tspan></text>

<text
   id="text12817"
   transform="matrix(1,0,0,-1,44.3594,454.28766)"><tspan
     id="tspan12819"
     sodipodi:role="line"
     y="0"
     x="0 3.78437624"
     style="font-size:11.2;font-weight:normal;writing-mode:lr;fill-rule:nonzero;fill-opacity:1;stroke:none;-inkscape-font-specification:serif;font-variant:normal;font-family:serif;fill:#000000">-2</tspan></text>

</g><path
         id="path12821"
         style="fill:#000000;fill-opacity:1;fill-rule:nonzero;stroke:none"
         d="m 630,1021.94 20,0" /><path
         id="path12823"
         style="fill:none;stroke:#000000;stroke-opacity:1;stroke-width:5;stroke-linecap:butt;stroke-linejoin:round;stroke-miterlimit:10;stroke-dasharray:none"
         d="m 630,1021.94 20,0" /><path
         id="path12825"
         style="fill:#000000;fill-opacity:1;fill-rule:nonzero;stroke:none"
         d="m 4536,1021.94 -20,0" /><path
         id="path12827"
         style="fill:none;stroke:#000000;stroke-opacity:1;stroke-width:5;stroke-linecap:butt;stroke-linejoin:round;stroke-miterlimit:10;stroke-dasharray:none"
         d="m 4536,1021.94 -20,0" /><path
         id="path12829"
         style="fill:#000000;fill-opacity:1;fill-rule:nonzero;stroke:none"
         d="m 630,1251.21 20,0" /><path
         id="path12831"
         style="fill:none;stroke:#000000;stroke-opacity:1;stroke-width:5;stroke-linecap:butt;stroke-linejoin:round;stroke-miterlimit:10;stroke-dasharray:none"
         d="m 630,1251.21 20,0" /><path
         id="path12833"
         style="fill:#000000;fill-opacity:1;fill-rule:nonzero;stroke:none"
         d="m 4536,1251.21 -20,0" /><path
         id="path12835"
         style="fill:none;stroke:#000000;stroke-opacity:1;stroke-width:5;stroke-linecap:butt;stroke-linejoin:round;stroke-miterlimit:10;stroke-dasharray:none"
         d="m 4536,1251.21 -20,0" /><path
         id="path12837"
         style="fill:#000000;fill-opacity:1;fill-rule:nonzero;stroke:none"
         d="m 630,1413.88 20,0" /><path
         id="path12839"
         style="fill:none;stroke:#000000;stroke-opacity:1;stroke-width:5;stroke-linecap:butt;stroke-linejoin:round;stroke-miterlimit:10;stroke-dasharray:none"
         d="m 630,1413.88 20,0" /><path
         id="path12841"
         style="fill:#000000;fill-opacity:1;fill-rule:nonzero;stroke:none"
         d="m 4536,1413.88 -20,0" /><path
         id="path12843"
         style="fill:none;stroke:#000000;stroke-opacity:1;stroke-width:5;stroke-linecap:butt;stroke-linejoin:round;stroke-miterlimit:10;stroke-dasharray:none"
         d="m 4536,1413.88 -20,0" /><path
         id="path12845"
         style="fill:#000000;fill-opacity:1;fill-rule:nonzero;stroke:none"
         d="m 630,1540.06 20,0" /><path
         id="path12847"
         style="fill:none;stroke:#000000;stroke-opacity:1;stroke-width:5;stroke-linecap:butt;stroke-linejoin:round;stroke-miterlimit:10;stroke-dasharray:none"
         d="m 630,1540.06 20,0" /><path
         id="path12849"
         style="fill:#000000;fill-opacity:1;fill-rule:nonzero;stroke:none"
         d="m 4536,1540.06 -20,0" /><path
         id="path12851"
         style="fill:none;stroke:#000000;stroke-opacity:1;stroke-width:5;stroke-linecap:butt;stroke-linejoin:round;stroke-miterlimit:10;stroke-dasharray:none"
         d="m 4536,1540.06 -20,0" /><path
         id="path12853"
         style="fill:#000000;fill-opacity:1;fill-rule:nonzero;stroke:none"
         d="m 630,1643.15 20,0" /><path
         id="path12855"
         style="fill:none;stroke:#000000;stroke-opacity:1;stroke-width:5;stroke-linecap:butt;stroke-linejoin:round;stroke-miterlimit:10;stroke-dasharray:none"
         d="m 630,1643.15 20,0" /><path
         id="path12857"
         style="fill:#000000;fill-opacity:1;fill-rule:nonzero;stroke:none"
         d="m 4536,1643.15 -20,0" /><path
         id="path12859"
         style="fill:none;stroke:#000000;stroke-opacity:1;stroke-width:5;stroke-linecap:butt;stroke-linejoin:round;stroke-miterlimit:10;stroke-dasharray:none"
         d="m 4536,1643.15 -20,0" /><path
         id="path12861"
         style="fill:#000000;fill-opacity:1;fill-rule:nonzero;stroke:none"
         d="m 630,1730.32 20,0" /><path
         id="path12863"
         style="fill:none;stroke:#000000;stroke-opacity:1;stroke-width:5;stroke-linecap:butt;stroke-linejoin:round;stroke-miterlimit:10;stroke-dasharray:none"
         d="m 630,1730.32 20,0" /><path
         id="path12865"
         style="fill:#000000;fill-opacity:1;fill-rule:nonzero;stroke:none"
         d="m 4536,1730.32 -20,0" /><path
         id="path12867"
         style="fill:none;stroke:#000000;stroke-opacity:1;stroke-width:5;stroke-linecap:butt;stroke-linejoin:round;stroke-miterlimit:10;stroke-dasharray:none"
         d="m 4536,1730.32 -20,0" /><path
         id="path12869"
         style="fill:#000000;fill-opacity:1;fill-rule:nonzero;stroke:none"
         d="m 630,1805.82 20,0" /><path
         id="path12871"
         style="fill:none;stroke:#000000;stroke-opacity:1;stroke-width:5;stroke-linecap:butt;stroke-linejoin:round;stroke-miterlimit:10;stroke-dasharray:none"
         d="m 630,1805.82 20,0" /><path
         id="path12873"
         style="fill:#000000;fill-opacity:1;fill-rule:nonzero;stroke:none"
         d="m 4536,1805.82 -20,0" /><path
         id="path12875"
         style="fill:none;stroke:#000000;stroke-opacity:1;stroke-width:5;stroke-linecap:butt;stroke-linejoin:round;stroke-miterlimit:10;stroke-dasharray:none"
         d="m 4536,1805.82 -20,0" /><path
         id="path12877"
         style="fill:#000000;fill-opacity:1;fill-rule:nonzero;stroke:none"
         d="m 630,1872.42 20,0" /><path
         id="path12879"
         style="fill:none;stroke:#000000;stroke-opacity:1;stroke-width:5;stroke-linecap:butt;stroke-linejoin:round;stroke-miterlimit:10;stroke-dasharray:none"
         d="m 630,1872.42 20,0" /><path
         id="path12881"
         style="fill:#000000;fill-opacity:1;fill-rule:nonzero;stroke:none"
         d="m 4536,1872.42 -20,0" /><path
         id="path12883"
         style="fill:none;stroke:#000000;stroke-opacity:1;stroke-width:5;stroke-linecap:butt;stroke-linejoin:round;stroke-miterlimit:10;stroke-dasharray:none"
         d="m 4536,1872.42 -20,0" /><path
         id="path12885"
         style="fill:#000000;fill-opacity:1;fill-rule:nonzero;stroke:none"
         d="m 630,2323.94 20,0" /><path
         id="path12887"
         style="fill:none;stroke:#000000;stroke-opacity:1;stroke-width:5;stroke-linecap:butt;stroke-linejoin:round;stroke-miterlimit:10;stroke-dasharray:none"
         d="m 630,2323.94 20,0" /><path
         id="path12889"
         style="fill:#000000;fill-opacity:1;fill-rule:nonzero;stroke:none"
         d="m 4536,2323.94 -20,0" /><path
         id="path12891"
         style="fill:none;stroke:#000000;stroke-opacity:1;stroke-width:5;stroke-linecap:butt;stroke-linejoin:round;stroke-miterlimit:10;stroke-dasharray:none"
         d="m 4536,2323.94 -20,0" /><path
         id="path12893"
         style="fill:#000000;fill-opacity:1;fill-rule:nonzero;stroke:none"
         d="m 630,2553.21 20,0" /><path
         id="path12895"
         style="fill:none;stroke:#000000;stroke-opacity:1;stroke-width:5;stroke-linecap:butt;stroke-linejoin:round;stroke-miterlimit:10;stroke-dasharray:none"
         d="m 630,2553.21 20,0" /><path
         id="path12897"
         style="fill:#000000;fill-opacity:1;fill-rule:nonzero;stroke:none"
         d="m 4536,2553.21 -20,0" /><path
         id="path12899"
         style="fill:none;stroke:#000000;stroke-opacity:1;stroke-width:5;stroke-linecap:butt;stroke-linejoin:round;stroke-miterlimit:10;stroke-dasharray:none"
         d="m 4536,2553.21 -20,0" /><path
         id="path12901"
         style="fill:#000000;fill-opacity:1;fill-rule:nonzero;stroke:none"
         d="m 630,2715.88 20,0" /><path
         id="path12903"
         style="fill:none;stroke:#000000;stroke-opacity:1;stroke-width:5;stroke-linecap:butt;stroke-linejoin:round;stroke-miterlimit:10;stroke-dasharray:none"
         d="m 630,2715.88 20,0" /><path
         id="path12905"
         style="fill:#000000;fill-opacity:1;fill-rule:nonzero;stroke:none"
         d="m 4536,2715.88 -20,0" /><path
         id="path12907"
         style="fill:none;stroke:#000000;stroke-opacity:1;stroke-width:5;stroke-linecap:butt;stroke-linejoin:round;stroke-miterlimit:10;stroke-dasharray:none"
         d="m 4536,2715.88 -20,0" /><path
         id="path12909"
         style="fill:#000000;fill-opacity:1;fill-rule:nonzero;stroke:none"
         d="m 630,2842.06 20,0" /><path
         id="path12911"
         style="fill:none;stroke:#000000;stroke-opacity:1;stroke-width:5;stroke-linecap:butt;stroke-linejoin:round;stroke-miterlimit:10;stroke-dasharray:none"
         d="m 630,2842.06 20,0" /><path
         id="path12913"
         style="fill:#000000;fill-opacity:1;fill-rule:nonzero;stroke:none"
         d="m 4536,2842.06 -20,0" /><path
         id="path12915"
         style="fill:none;stroke:#000000;stroke-opacity:1;stroke-width:5;stroke-linecap:butt;stroke-linejoin:round;stroke-miterlimit:10;stroke-dasharray:none"
         d="m 4536,2842.06 -20,0" /><path
         id="path12917"
         style="fill:#000000;fill-opacity:1;fill-rule:nonzero;stroke:none"
         d="m 630,2945.15 20,0" /><path
         id="path12919"
         style="fill:none;stroke:#000000;stroke-opacity:1;stroke-width:5;stroke-linecap:butt;stroke-linejoin:round;stroke-miterlimit:10;stroke-dasharray:none"
         d="m 630,2945.15 20,0" /><path
         id="path12921"
         style="fill:#000000;fill-opacity:1;fill-rule:nonzero;stroke:none"
         d="m 4536,2945.15 -20,0" /><path
         id="path12923"
         style="fill:none;stroke:#000000;stroke-opacity:1;stroke-width:5;stroke-linecap:butt;stroke-linejoin:round;stroke-miterlimit:10;stroke-dasharray:none"
         d="m 4536,2945.15 -20,0" /><path
         id="path12925"
         style="fill:#000000;fill-opacity:1;fill-rule:nonzero;stroke:none"
         d="m 630,3032.32 20,0" /><path
         id="path12927"
         style="fill:none;stroke:#000000;stroke-opacity:1;stroke-width:5;stroke-linecap:butt;stroke-linejoin:round;stroke-miterlimit:10;stroke-dasharray:none"
         d="m 630,3032.32 20,0" /><path
         id="path12929"
         style="fill:#000000;fill-opacity:1;fill-rule:nonzero;stroke:none"
         d="m 4536,3032.32 -20,0" /><path
         id="path12931"
         style="fill:none;stroke:#000000;stroke-opacity:1;stroke-width:5;stroke-linecap:butt;stroke-linejoin:round;stroke-miterlimit:10;stroke-dasharray:none"
         d="m 4536,3032.32 -20,0" /><path
         id="path12933"
         style="fill:#000000;fill-opacity:1;fill-rule:nonzero;stroke:none"
         d="m 630,3107.82 20,0" /><path
         id="path12935"
         style="fill:none;stroke:#000000;stroke-opacity:1;stroke-width:5;stroke-linecap:butt;stroke-linejoin:round;stroke-miterlimit:10;stroke-dasharray:none"
         d="m 630,3107.82 20,0" /><path
         id="path12937"
         style="fill:#000000;fill-opacity:1;fill-rule:nonzero;stroke:none"
         d="m 4536,3107.82 -20,0" /><path
         id="path12939"
         style="fill:none;stroke:#000000;stroke-opacity:1;stroke-width:5;stroke-linecap:butt;stroke-linejoin:round;stroke-miterlimit:10;stroke-dasharray:none"
         d="m 4536,3107.82 -20,0" /><path
         id="path12941"
         style="fill:#000000;fill-opacity:1;fill-rule:nonzero;stroke:none"
         d="m 630,3174.42 20,0" /><path
         id="path12943"
         style="fill:none;stroke:#000000;stroke-opacity:1;stroke-width:5;stroke-linecap:butt;stroke-linejoin:round;stroke-miterlimit:10;stroke-dasharray:none"
         d="m 630,3174.42 20,0" /><path
         id="path12945"
         style="fill:#000000;fill-opacity:1;fill-rule:nonzero;stroke:none"
         d="m 4536,3174.42 -20,0" /><path
         id="path12947"
         style="fill:none;stroke:#000000;stroke-opacity:1;stroke-width:5;stroke-linecap:butt;stroke-linejoin:round;stroke-miterlimit:10;stroke-dasharray:none"
         d="m 4536,3174.42 -20,0" /><path
         id="path12949"
         style="fill:#000000;fill-opacity:1;fill-rule:nonzero;stroke:none"
         d="m 630,3625.94 20,0" /><path
         id="path12951"
         style="fill:none;stroke:#000000;stroke-opacity:1;stroke-width:5;stroke-linecap:butt;stroke-linejoin:round;stroke-miterlimit:10;stroke-dasharray:none"
         d="m 630,3625.94 20,0" /><path
         id="path12953"
         style="fill:#000000;fill-opacity:1;fill-rule:nonzero;stroke:none"
         d="m 4536,3625.94 -20,0" /><path
         id="path12955"
         style="fill:none;stroke:#000000;stroke-opacity:1;stroke-width:5;stroke-linecap:butt;stroke-linejoin:round;stroke-miterlimit:10;stroke-dasharray:none"
         d="m 4536,3625.94 -20,0" /><path
         id="path12957"
         style="fill:#000000;fill-opacity:1;fill-rule:nonzero;stroke:none"
         d="m 630,3855.21 20,0" /><path
         id="path12959"
         style="fill:none;stroke:#000000;stroke-opacity:1;stroke-width:5;stroke-linecap:butt;stroke-linejoin:round;stroke-miterlimit:10;stroke-dasharray:none"
         d="m 630,3855.21 20,0" /><path
         id="path12961"
         style="fill:#000000;fill-opacity:1;fill-rule:nonzero;stroke:none"
         d="m 4536,3855.21 -20,0" /><path
         id="path12963"
         style="fill:none;stroke:#000000;stroke-opacity:1;stroke-width:5;stroke-linecap:butt;stroke-linejoin:round;stroke-miterlimit:10;stroke-dasharray:none"
         d="m 4536,3855.21 -20,0" /><path
         id="path12965"
         style="fill:#000000;fill-opacity:1;fill-rule:nonzero;stroke:none"
         d="m 630,4017.88 20,0" /><path
         id="path12967"
         style="fill:none;stroke:#000000;stroke-opacity:1;stroke-width:5;stroke-linecap:butt;stroke-linejoin:round;stroke-miterlimit:10;stroke-dasharray:none"
         d="m 630,4017.88 20,0" /><path
         id="path12969"
         style="fill:#000000;fill-opacity:1;fill-rule:nonzero;stroke:none"
         d="m 4536,4017.88 -20,0" /><path
         id="path12971"
         style="fill:none;stroke:#000000;stroke-opacity:1;stroke-width:5;stroke-linecap:butt;stroke-linejoin:round;stroke-miterlimit:10;stroke-dasharray:none"
         d="m 4536,4017.88 -20,0" /><path
         id="path12973"
         style="fill:#000000;fill-opacity:1;fill-rule:nonzero;stroke:none"
         d="m 630,4144.06 20,0" /><path
         id="path12975"
         style="fill:none;stroke:#000000;stroke-opacity:1;stroke-width:5;stroke-linecap:butt;stroke-linejoin:round;stroke-miterlimit:10;stroke-dasharray:none"
         d="m 630,4144.06 20,0" /><path
         id="path12977"
         style="fill:#000000;fill-opacity:1;fill-rule:nonzero;stroke:none"
         d="m 4536,4144.06 -20,0" /><path
         id="path12979"
         style="fill:none;stroke:#000000;stroke-opacity:1;stroke-width:5;stroke-linecap:butt;stroke-linejoin:round;stroke-miterlimit:10;stroke-dasharray:none"
         d="m 4536,4144.06 -20,0" /><path
         id="path12981"
         style="fill:#000000;fill-opacity:1;fill-rule:nonzero;stroke:none"
         d="m 630,4247.15 20,0" /><path
         id="path12983"
         style="fill:none;stroke:#000000;stroke-opacity:1;stroke-width:5;stroke-linecap:butt;stroke-linejoin:round;stroke-miterlimit:10;stroke-dasharray:none"
         d="m 630,4247.15 20,0" /><path
         id="path12985"
         style="fill:#000000;fill-opacity:1;fill-rule:nonzero;stroke:none"
         d="m 4536,4247.15 -20,0" /><path
         id="path12987"
         style="fill:none;stroke:#000000;stroke-opacity:1;stroke-width:5;stroke-linecap:butt;stroke-linejoin:round;stroke-miterlimit:10;stroke-dasharray:none"
         d="m 4536,4247.15 -20,0" /><path
         id="path12989"
         style="fill:#000000;fill-opacity:1;fill-rule:nonzero;stroke:none"
         d="m 630,4334.32 20,0" /><path
         id="path12991"
         style="fill:none;stroke:#000000;stroke-opacity:1;stroke-width:5;stroke-linecap:butt;stroke-linejoin:round;stroke-miterlimit:10;stroke-dasharray:none"
         d="m 630,4334.32 20,0" /><path
         id="path12993"
         style="fill:#000000;fill-opacity:1;fill-rule:nonzero;stroke:none"
         d="m 4536,4334.32 -20,0" /><path
         id="path12995"
         style="fill:none;stroke:#000000;stroke-opacity:1;stroke-width:5;stroke-linecap:butt;stroke-linejoin:round;stroke-miterlimit:10;stroke-dasharray:none"
         d="m 4536,4334.32 -20,0" /><path
         id="path12997"
         style="fill:#000000;fill-opacity:1;fill-rule:nonzero;stroke:none"
         d="m 630,4409.82 20,0" /><path
         id="path12999"
         style="fill:none;stroke:#000000;stroke-opacity:1;stroke-width:5;stroke-linecap:butt;stroke-linejoin:round;stroke-miterlimit:10;stroke-dasharray:none"
         d="m 630,4409.82 20,0" /><path
         id="path13001"
         style="fill:#000000;fill-opacity:1;fill-rule:nonzero;stroke:none"
         d="m 4536,4409.82 -20,0" /><path
         id="path13003"
         style="fill:none;stroke:#000000;stroke-opacity:1;stroke-width:5;stroke-linecap:butt;stroke-linejoin:round;stroke-miterlimit:10;stroke-dasharray:none"
         d="m 4536,4409.82 -20,0" /><path
         id="path13005"
         style="fill:#000000;fill-opacity:1;fill-rule:nonzero;stroke:none"
         d="m 630,4476.42 20,0" /><path
         id="path13007"
         style="fill:none;stroke:#000000;stroke-opacity:1;stroke-width:5;stroke-linecap:butt;stroke-linejoin:round;stroke-miterlimit:10;stroke-dasharray:none"
         d="m 630,4476.42 20,0" /><path
         id="path13009"
         style="fill:#000000;fill-opacity:1;fill-rule:nonzero;stroke:none"
         d="m 4536,4476.42 -20,0" /><path
         id="path13011"
         style="fill:none;stroke:#000000;stroke-opacity:1;stroke-width:5;stroke-linecap:butt;stroke-linejoin:round;stroke-miterlimit:10;stroke-dasharray:none"
         d="m 4536,4476.42 -20,0" /><g
         transform="scale(10,10)"
         id="g13013"><text
   id="text13015"
   transform="matrix(0,1,1,0,16.8906,186.05)"><tspan
     id="tspan13017"
     sodipodi:role="line"
     y="0"
     x="0 9.46875293 18.4921914 27.96094433 36.92187207 47.22655566 53.65623633 58.77342872 68.40623438 78.71091797 83.79686719 90.22654786 95.34374025 110.51562209 119.98437501 125.07032423 131.31252149 139.52345117"
     style="font-size:16;font-weight:normal;writing-mode:lr;fill-rule:nonzero;fill-opacity:1;stroke:none;-inkscape-font-specification:serif;font-variant:normal;font-family:serif;fill:#000000">execution time [s]</tspan></text>

</g><path
         id="path13019"
         style="fill:none;stroke:#000000;stroke-opacity:1;stroke-width:10;stroke-linecap:square;stroke-linejoin:round;stroke-miterlimit:10;stroke-dasharray:none"
         d="m 630,4536 3906,0" /><path
         id="path13021"
         style="fill:none;stroke:#000000;stroke-opacity:1;stroke-width:10;stroke-linecap:square;stroke-linejoin:round;stroke-miterlimit:10;stroke-dasharray:none"
         d="m 4536,630 0,3906" /><path
         id="path13023"
         style="fill:none;stroke:#000000;stroke-opacity:1;stroke-width:10;stroke-linecap:square;stroke-linejoin:round;stroke-miterlimit:10;stroke-dasharray:none"
         d="m 630,630 3906,0" /><path
         id="path13025"
         style="fill:none;stroke:#000000;stroke-opacity:1;stroke-width:10;stroke-linecap:square;stroke-linejoin:round;stroke-miterlimit:10;stroke-dasharray:none"
         d="m 630,630 0,3906" /><path
         id="path13027"
         style="fill:#ffffff;fill-opacity:1;fill-rule:nonzero;stroke:none"
         d="m 2908.17,726 1531.83,0 0,583.191 -1531.83,0 0,-583.191 z" /><path
         id="path13029"
         style="fill:none;stroke:#000000;stroke-opacity:1;stroke-width:10;stroke-linecap:square;stroke-linejoin:round;stroke-miterlimit:10;stroke-dasharray:none"
         d="m 2908.17,726 1531.83,0 0,583.191 -1531.83,0 0,-583.191 z" /><path
         id="path13031"
         style="fill:none;stroke:#000000;stroke-opacity:1;stroke-width:10;stroke-linecap:square;stroke-linejoin:round;stroke-miterlimit:10;stroke-dasharray:none"
         d="m 3042.57,1155.22 268.8,0" /><g
         transform="scale(10,10)"
         id="g13033"><text
   id="text13035"
   transform="matrix(1,0,0,-1,352.257,108.802)"><tspan
     id="tspan13037"
     sodipodi:role="line"
     y="0"
     x="0 9.84686563 20.68671133 38.88084063 51.16366485 62.71561955 68.85195352 74.98867812"
     style="font-size:19.2;font-weight:normal;writing-mode:lr;fill-rule:nonzero;fill-opacity:1;stroke:none;-inkscape-font-specification:serif;font-variant:normal;font-family:serif;fill:#000000">symbolic</tspan></text>

</g><path
         id="path13039"
         style="fill:none;stroke:#000000;stroke-opacity:1;stroke-width:10;stroke-linecap:butt;stroke-linejoin:round;stroke-miterlimit:10;stroke-dasharray:60,60;stroke-dashoffset:0"
         d="m 3042.57,872.656 268.8,0" /><g
         transform="scale(10,10)"
         id="g13041"><text
   id="text13043"
   transform="matrix(1,0,0,-1,352.257,80.5457)"><tspan
     id="tspan13045"
     sodipodi:role="line"
     y="0"
     x="0 12.35781757 24.71524452 42.90976445 54.26483631 63.43711405 69.57344803"
     style="font-size:19.2;font-weight:normal;writing-mode:lr;fill-rule:nonzero;fill-opacity:1;stroke:none;-inkscape-font-specification:serif;font-variant:normal;font-family:serif;fill:#000000">numeric</tspan></text>

</g></g></g></svg>