<?xml version="1.0" encoding="UTF-8" standalone="no"?>
<!-- Created with Inkscape (http://www.inkscape.org/) -->

<svg
   xmlns:dc="http://purl.org/dc/elements/1.1/"
   xmlns:cc="http://creativecommons.org/ns#"
   xmlns:rdf="http://www.w3.org/1999/02/22-rdf-syntax-ns#"
   xmlns:svg="http://www.w3.org/2000/svg"
   xmlns="http://www.w3.org/2000/svg"
   xmlns:sodipodi="http://sodipodi.sourceforge.net/DTD/sodipodi-0.dtd"
   xmlns:inkscape="http://www.inkscape.org/namespaces/inkscape"
   id="svg10900"
   version="1.1"
   inkscape:version="0.48.2 r9819"
   width="601.25"
   height="561.25"
   xml:space="preserve"
   sodipodi:docname="sme_loverf.eps"><sodipodi:namedview
     pagecolor="#ffffff"
     bordercolor="#666666"
     borderopacity="1"
     objecttolerance="10"
     gridtolerance="10"
     guidetolerance="10"
     inkscape:pageopacity="0"
     inkscape:pageshadow="2"
     inkscape:window-width="1438"
     inkscape:window-height="868"
     id="namedview10902"
     showgrid="false"
     inkscape:zoom="0.42048998"
     inkscape:cx="300.625"
     inkscape:cy="280.625"
     inkscape:window-x="0"
     inkscape:window-y="30"
     inkscape:window-maximized="0"
     inkscape:current-layer="g10908" /><metadata
     id="metadata10906"><rdf:RDF><cc:Work
         rdf:about=""><dc:format>image/svg+xml</dc:format><dc:type
           rdf:resource="http://purl.org/dc/dcmitype/StillImage" /><dc:title></dc:title></cc:Work></rdf:RDF></metadata><defs
     id="defs10904"><clipPath
       id="clipPath10916"
       clipPathUnits="userSpaceOnUse"><path
         id="path10918"
         d="m 1.21094,9.17969 4808.78996,0 0,4480.82001 -4808.78996,0 0,-4480.82001 z" /></clipPath><clipPath
       id="clipPath10928"
       clipPathUnits="userSpaceOnUse"><path
         id="path10930"
         d="m 623.211,452.281 3905.999,0 0,3905.999 -3905.999,0 0,-3905.999 z" /></clipPath><clipPath
       id="clipPath10938"
       clipPathUnits="userSpaceOnUse"><path
         id="path10940"
         d="m 1.21094,9.17969 4808.78996,0 0,4480.82001 -4808.78996,0 0,-4480.82001 z" /></clipPath></defs><g
     transform="matrix(1.25,0,0,-1.25,0,561.25)"
     inkscape:label="ink_ext_XXXXXX"
     inkscape:groupmode="layer"
     id="g10908"><g
       transform="scale(0.1,0.1)"
       id="g10910"><g
         id="g10912"><g
           clip-path="url(#clipPath10916)"
           id="g10914"><path
             id="path10920"
             style="fill:#ffffff;fill-opacity:1;fill-rule:nonzero;stroke:none"
             d="m 1.21094,9.17969 4817.57996,0 0,4481.64001 -4817.57996,0 0,-4481.64001 z" /><path
             id="path10922"
             style="fill:#ffffff;fill-opacity:1;fill-rule:nonzero;stroke:none"
             d="m 623.211,452.273 3906,0 0,3906 -3906,0 0,-3906 z" /></g></g><g
         id="g10924"><g
           clip-path="url(#clipPath10928)"
           id="g10926"><path
             id="path10932"
             style="fill:none;stroke:#000000;stroke-opacity:1;stroke-width:10;stroke-linecap:square;stroke-linejoin:round;stroke-miterlimit:10;stroke-dasharray:none"
             d="m 623.211,4043.36 78.117,-400.73 78.121,-340.38 78.121,-292.52 78.121,-253.86 78.119,-222.05 78.12,-195.53 78.12,-173.08 78.12,-153.88 78.12,-137.26 78.12,-122.74 78.12,-109.92 78.12,-98.51 78.12,-88.27 78.12,-79 78.12,-70.55 78.12,-62.77 78.12,-55.57 78.12,-48.85 78.12,-42.54 78.12,-36.54 78.12,-30.83 78.12,-25.32 78.12,-19.996 78.12,-14.769 78.12,-9.633 78.12,-4.524 78.12,0.59 78.12,5.758 78.12,11.019 78.12,16.415 78.12,22.01 78.12,27.83 78.12,33.98 78.12,40.48 78.12,47.44 78.12,54.94 78.12,63.1 78.12,72.03 78.12,81.91 78.12,92.93 78.12,105.34 78.12,119.46 78.12,135.68 78.12,154.59 78.12,176.96 78.12,203.91 78.12,237.3 78.12,280.44 78.12,341.11 78.12,453.98" /></g></g><g
         id="g10934"><g
           clip-path="url(#clipPath10938)"
           id="g10936"><path
             id="path10942"
             style="fill:#000000;fill-opacity:1;fill-rule:nonzero;stroke:none"
             d="m 623.211,452.273 0,40" /><path
             id="path10944"
             style="fill:none;stroke:#000000;stroke-opacity:1;stroke-width:5;stroke-linecap:butt;stroke-linejoin:round;stroke-miterlimit:10;stroke-dasharray:none"
             d="m 623.211,452.273 0,40" /><path
             id="path10946"
             style="fill:#000000;fill-opacity:1;fill-rule:nonzero;stroke:none"
             d="m 623.211,4358.27 0,-40" /><path
             id="path10948"
             style="fill:none;stroke:#000000;stroke-opacity:1;stroke-width:5;stroke-linecap:butt;stroke-linejoin:round;stroke-miterlimit:10;stroke-dasharray:none"
             d="m 623.211,4358.27 0,-40" /><g
             transform="scale(10,10)"
             id="g10950"><text
   id="text10952"
   transform="matrix(1,0,0,-1,40.5633,29.3523)"><tspan
     id="tspan10954"
     sodipodi:role="line"
     y="0"
     x="0 10.17968653 20.35937306 30.53905958 35.62499659"
     style="font-size:16;font-weight:normal;writing-mode:lr;fill-rule:nonzero;fill-opacity:1;stroke:none;-inkscape-font-specification:serif;font-variant:normal;font-family:serif;fill:#000000">235.5</tspan></text>

</g><path
             id="path10956"
             style="fill:#000000;fill-opacity:1;fill-rule:nonzero;stroke:none"
             d="m 1599.71,452.273 0,40" /><path
             id="path10958"
             style="fill:none;stroke:#000000;stroke-opacity:1;stroke-width:5;stroke-linecap:butt;stroke-linejoin:round;stroke-miterlimit:10;stroke-dasharray:none"
             d="m 1599.71,452.273 0,40" /><path
             id="path10960"
             style="fill:#000000;fill-opacity:1;fill-rule:nonzero;stroke:none"
             d="m 1599.71,4358.27 0,-40" /><path
             id="path10962"
             style="fill:none;stroke:#000000;stroke-opacity:1;stroke-width:5;stroke-linecap:butt;stroke-linejoin:round;stroke-miterlimit:10;stroke-dasharray:none"
             d="m 1599.71,4358.27 0,-40" /><g
             transform="scale(10,10)"
             id="g10964"><text
   id="text10966"
   transform="matrix(1,0,0,-1,138.127,29.3523)"><tspan
     id="tspan10968"
     sodipodi:role="line"
     y="0"
     x="0 10.17968653 20.35937306 30.53905958 35.62499659"
     style="font-size:16;font-weight:normal;writing-mode:lr;fill-rule:nonzero;fill-opacity:1;stroke:none;-inkscape-font-specification:serif;font-variant:normal;font-family:serif;fill:#000000">236.0</tspan></text>

</g><path
             id="path10970"
             style="fill:#000000;fill-opacity:1;fill-rule:nonzero;stroke:none"
             d="m 2576.21,452.273 0,40" /><path
             id="path10972"
             style="fill:none;stroke:#000000;stroke-opacity:1;stroke-width:5;stroke-linecap:butt;stroke-linejoin:round;stroke-miterlimit:10;stroke-dasharray:none"
             d="m 2576.21,452.273 0,40" /><path
             id="path10974"
             style="fill:#000000;fill-opacity:1;fill-rule:nonzero;stroke:none"
             d="m 2576.21,4358.27 0,-40" /><path
             id="path10976"
             style="fill:none;stroke:#000000;stroke-opacity:1;stroke-width:5;stroke-linecap:butt;stroke-linejoin:round;stroke-miterlimit:10;stroke-dasharray:none"
             d="m 2576.21,4358.27 0,-40" /><g
             transform="scale(10,10)"
             id="g10978"><text
   id="text10980"
   transform="matrix(1,0,0,-1,235.863,29.3523)"><tspan
     id="tspan10982"
     sodipodi:role="line"
     y="0"
     x="0 10.17968653 20.35937306 30.53905958 35.6250088"
     style="font-size:16;font-weight:normal;writing-mode:lr;fill-rule:nonzero;fill-opacity:1;stroke:none;-inkscape-font-specification:serif;font-variant:normal;font-family:serif;fill:#000000">236.5</tspan></text>

</g><path
             id="path10984"
             style="fill:#000000;fill-opacity:1;fill-rule:nonzero;stroke:none"
             d="m 3552.71,452.273 0,40" /><path
             id="path10986"
             style="fill:none;stroke:#000000;stroke-opacity:1;stroke-width:5;stroke-linecap:butt;stroke-linejoin:round;stroke-miterlimit:10;stroke-dasharray:none"
             d="m 3552.71,452.273 0,40" /><path
             id="path10988"
             style="fill:#000000;fill-opacity:1;fill-rule:nonzero;stroke:none"
             d="m 3552.71,4358.27 0,-40" /><path
             id="path10990"
             style="fill:none;stroke:#000000;stroke-opacity:1;stroke-width:5;stroke-linecap:butt;stroke-linejoin:round;stroke-miterlimit:10;stroke-dasharray:none"
             d="m 3552.71,4358.27 0,-40" /><g
             transform="scale(10,10)"
             id="g10992"><text
   id="text10994"
   transform="matrix(1,0,0,-1,333.427,29.3523)"><tspan
     id="tspan10996"
     sodipodi:role="line"
     y="0"
     x="0 10.17968653 20.35937306 30.53905958 35.6250088"
     style="font-size:16;font-weight:normal;writing-mode:lr;fill-rule:nonzero;fill-opacity:1;stroke:none;-inkscape-font-specification:serif;font-variant:normal;font-family:serif;fill:#000000">237.0</tspan></text>

</g><path
             id="path10998"
             style="fill:#000000;fill-opacity:1;fill-rule:nonzero;stroke:none"
             d="m 4529.21,452.273 0,40" /><path
             id="path11000"
             style="fill:none;stroke:#000000;stroke-opacity:1;stroke-width:5;stroke-linecap:butt;stroke-linejoin:round;stroke-miterlimit:10;stroke-dasharray:none"
             d="m 4529.21,452.273 0,40" /><path
             id="path11002"
             style="fill:#000000;fill-opacity:1;fill-rule:nonzero;stroke:none"
             d="m 4529.21,4358.27 0,-40" /><path
             id="path11004"
             style="fill:none;stroke:#000000;stroke-opacity:1;stroke-width:5;stroke-linecap:butt;stroke-linejoin:round;stroke-miterlimit:10;stroke-dasharray:none"
             d="m 4529.21,4358.27 0,-40" /><g
             transform="scale(10,10)"
             id="g11006"><text
   id="text11008"
   transform="matrix(1,0,0,-1,431.163,29.3523)"><tspan
     id="tspan11010"
     sodipodi:role="line"
     y="0"
     x="0 10.17971094 20.35942189 30.53913283 35.62508205"
     style="font-size:16;font-weight:normal;writing-mode:lr;fill-rule:nonzero;fill-opacity:1;stroke:none;-inkscape-font-specification:serif;font-variant:normal;font-family:serif;fill:#000000">237.5</tspan></text>

<text
   id="text11012"
   transform="matrix(1,0,0,-1,218.121,11.9617)"><tspan
     id="tspan11014"
     y="0"
     x="0"
     style="font-size:16;font-weight:normal;writing-mode:lr;fill-rule:nonzero;fill-opacity:1;stroke:none;-inkscape-font-specification:serif;font-variant:normal;font-family:serif;fill:#000000">M</tspan></text>

<text
   id="text11016"
   transform="matrix(1,0,0,-1,235.6108,18.81756)"><tspan
     id="tspan11018"
     y="0"
     x="0"
     style="font-size:11.2;font-weight:normal;writing-mode:lr;fill-rule:nonzero;fill-opacity:1;stroke:none;-inkscape-font-specification:serif;font-variant:normal;font-family:serif;fill:#000000">∗</tspan></text>

<text
   id="text11020"
   transform="matrix(1,0,0,-1,249.51863,11.9617)"><tspan
     id="tspan11022"
     sodipodi:role="line"
     y="0"
     x="0 6.24219726 15.78124902 30.95313086 41.25781446"
     style="font-size:16;font-weight:normal;writing-mode:lr;fill-rule:nonzero;fill-opacity:1;stroke:none;-inkscape-font-specification:serif;font-variant:normal;font-family:serif;fill:#000000">[amu]</tspan></text>

</g><path
             id="path11024"
             style="fill:#000000;fill-opacity:1;fill-rule:nonzero;stroke:none"
             d="m 623.211,452.273 40,0" /><path
             id="path11026"
             style="fill:none;stroke:#000000;stroke-opacity:1;stroke-width:5;stroke-linecap:butt;stroke-linejoin:round;stroke-miterlimit:10;stroke-dasharray:none"
             d="m 623.211,452.273 40,0" /><path
             id="path11028"
             style="fill:#000000;fill-opacity:1;fill-rule:nonzero;stroke:none"
             d="m 4529.21,452.273 -40,0" /><path
             id="path11030"
             style="fill:none;stroke:#000000;stroke-opacity:1;stroke-width:5;stroke-linecap:butt;stroke-linejoin:round;stroke-miterlimit:10;stroke-dasharray:none"
             d="m 4529.21,452.273 -40,0" /><g
             transform="scale(10,10)"
             id="g11032"><text
   id="text11034"
   transform="matrix(1,0,0,-1,29.9148,39.407)"><tspan
     id="tspan11036"
     sodipodi:role="line"
     y="0"
     x="0 10.17968653 20.35937306"
     style="font-size:16;font-weight:normal;writing-mode:lr;fill-rule:nonzero;fill-opacity:1;stroke:none;-inkscape-font-specification:serif;font-variant:normal;font-family:serif;fill:#000000">250</tspan></text>

</g><path
             id="path11038"
             style="fill:#000000;fill-opacity:1;fill-rule:nonzero;stroke:none"
             d="m 623.211,1103.27 40,0" /><path
             id="path11040"
             style="fill:none;stroke:#000000;stroke-opacity:1;stroke-width:5;stroke-linecap:butt;stroke-linejoin:round;stroke-miterlimit:10;stroke-dasharray:none"
             d="m 623.211,1103.27 40,0" /><path
             id="path11042"
             style="fill:#000000;fill-opacity:1;fill-rule:nonzero;stroke:none"
             d="m 4529.21,1103.27 -40,0" /><path
             id="path11044"
             style="fill:none;stroke:#000000;stroke-opacity:1;stroke-width:5;stroke-linecap:butt;stroke-linejoin:round;stroke-miterlimit:10;stroke-dasharray:none"
             d="m 4529.21,1103.27 -40,0" /><g
             transform="scale(10,10)"
             id="g11046"><text
   id="text11048"
   transform="matrix(1,0,0,-1,30.0398,104.507)"><tspan
     id="tspan11050"
     sodipodi:role="line"
     y="0"
     x="0 10.17968653 20.35937306"
     style="font-size:16;font-weight:normal;writing-mode:lr;fill-rule:nonzero;fill-opacity:1;stroke:none;-inkscape-font-specification:serif;font-variant:normal;font-family:serif;fill:#000000">300</tspan></text>

</g><path
             id="path11052"
             style="fill:#000000;fill-opacity:1;fill-rule:nonzero;stroke:none"
             d="m 623.211,1754.27 40,0" /><path
             id="path11054"
             style="fill:none;stroke:#000000;stroke-opacity:1;stroke-width:5;stroke-linecap:butt;stroke-linejoin:round;stroke-miterlimit:10;stroke-dasharray:none"
             d="m 623.211,1754.27 40,0" /><path
             id="path11056"
             style="fill:#000000;fill-opacity:1;fill-rule:nonzero;stroke:none"
             d="m 4529.21,1754.27 -40,0" /><path
             id="path11058"
             style="fill:none;stroke:#000000;stroke-opacity:1;stroke-width:5;stroke-linecap:butt;stroke-linejoin:round;stroke-miterlimit:10;stroke-dasharray:none"
             d="m 4529.21,1754.27 -40,0" /><g
             transform="scale(10,10)"
             id="g11060"><text
   id="text11062"
   transform="matrix(1,0,0,-1,30.0398,169.607)"><tspan
     id="tspan11064"
     sodipodi:role="line"
     y="0"
     x="0 10.17968653 20.35937306"
     style="font-size:16;font-weight:normal;writing-mode:lr;fill-rule:nonzero;fill-opacity:1;stroke:none;-inkscape-font-specification:serif;font-variant:normal;font-family:serif;fill:#000000">350</tspan></text>

</g><path
             id="path11066"
             style="fill:#000000;fill-opacity:1;fill-rule:nonzero;stroke:none"
             d="m 623.211,2405.27 40,0" /><path
             id="path11068"
             style="fill:none;stroke:#000000;stroke-opacity:1;stroke-width:5;stroke-linecap:butt;stroke-linejoin:round;stroke-miterlimit:10;stroke-dasharray:none"
             d="m 623.211,2405.27 40,0" /><path
             id="path11070"
             style="fill:#000000;fill-opacity:1;fill-rule:nonzero;stroke:none"
             d="m 4529.21,2405.27 -40,0" /><path
             id="path11072"
             style="fill:none;stroke:#000000;stroke-opacity:1;stroke-width:5;stroke-linecap:butt;stroke-linejoin:round;stroke-miterlimit:10;stroke-dasharray:none"
             d="m 4529.21,2405.27 -40,0" /><g
             transform="scale(10,10)"
             id="g11074"><text
   id="text11076"
   transform="matrix(1,0,0,-1,29.3211,234.707)"><tspan
     id="tspan11078"
     sodipodi:role="line"
     y="0"
     x="0 10.17968653 20.35937306"
     style="font-size:16;font-weight:normal;writing-mode:lr;fill-rule:nonzero;fill-opacity:1;stroke:none;-inkscape-font-specification:serif;font-variant:normal;font-family:serif;fill:#000000">400</tspan></text>

</g><path
             id="path11080"
             style="fill:#000000;fill-opacity:1;fill-rule:nonzero;stroke:none"
             d="m 623.211,3056.27 40,0" /><path
             id="path11082"
             style="fill:none;stroke:#000000;stroke-opacity:1;stroke-width:5;stroke-linecap:butt;stroke-linejoin:round;stroke-miterlimit:10;stroke-dasharray:none"
             d="m 623.211,3056.27 40,0" /><path
             id="path11084"
             style="fill:#000000;fill-opacity:1;fill-rule:nonzero;stroke:none"
             d="m 4529.21,3056.27 -40,0" /><path
             id="path11086"
             style="fill:none;stroke:#000000;stroke-opacity:1;stroke-width:5;stroke-linecap:butt;stroke-linejoin:round;stroke-miterlimit:10;stroke-dasharray:none"
             d="m 4529.21,3056.27 -40,0" /><g
             transform="scale(10,10)"
             id="g11088"><text
   id="text11090"
   transform="matrix(1,0,0,-1,29.3211,299.807)"><tspan
     id="tspan11092"
     sodipodi:role="line"
     y="0"
     x="0 10.17968653 20.35937306"
     style="font-size:16;font-weight:normal;writing-mode:lr;fill-rule:nonzero;fill-opacity:1;stroke:none;-inkscape-font-specification:serif;font-variant:normal;font-family:serif;fill:#000000">450</tspan></text>

</g><path
             id="path11094"
             style="fill:#000000;fill-opacity:1;fill-rule:nonzero;stroke:none"
             d="m 623.211,3707.27 40,0" /><path
             id="path11096"
             style="fill:none;stroke:#000000;stroke-opacity:1;stroke-width:5;stroke-linecap:butt;stroke-linejoin:round;stroke-miterlimit:10;stroke-dasharray:none"
             d="m 623.211,3707.27 40,0" /><path
             id="path11098"
             style="fill:#000000;fill-opacity:1;fill-rule:nonzero;stroke:none"
             d="m 4529.21,3707.27 -40,0" /><path
             id="path11100"
             style="fill:none;stroke:#000000;stroke-opacity:1;stroke-width:5;stroke-linecap:butt;stroke-linejoin:round;stroke-miterlimit:10;stroke-dasharray:none"
             d="m 4529.21,3707.27 -40,0" /><g
             transform="scale(10,10)"
             id="g11102"><text
   id="text11104"
   transform="matrix(1,0,0,-1,30.1805,364.907)"><tspan
     id="tspan11106"
     sodipodi:role="line"
     y="0"
     x="0 10.17968653 20.35937306"
     style="font-size:16;font-weight:normal;writing-mode:lr;fill-rule:nonzero;fill-opacity:1;stroke:none;-inkscape-font-specification:serif;font-variant:normal;font-family:serif;fill:#000000">500</tspan></text>

</g><path
             id="path11108"
             style="fill:#000000;fill-opacity:1;fill-rule:nonzero;stroke:none"
             d="m 623.211,4358.27 40,0" /><path
             id="path11110"
             style="fill:none;stroke:#000000;stroke-opacity:1;stroke-width:5;stroke-linecap:butt;stroke-linejoin:round;stroke-miterlimit:10;stroke-dasharray:none"
             d="m 623.211,4358.27 40,0" /><path
             id="path11112"
             style="fill:#000000;fill-opacity:1;fill-rule:nonzero;stroke:none"
             d="m 4529.21,4358.27 -40,0" /><path
             id="path11114"
             style="fill:none;stroke:#000000;stroke-opacity:1;stroke-width:5;stroke-linecap:butt;stroke-linejoin:round;stroke-miterlimit:10;stroke-dasharray:none"
             d="m 4529.21,4358.27 -40,0" /><g
             transform="scale(10,10)"
             id="g11116"><text
   id="text11118"
   transform="matrix(1,0,0,-1,30.1805,430.007)"><tspan
     id="tspan11120"
     sodipodi:role="line"
     y="0"
     x="0 10.17968653 20.35937306"
     style="font-size:16;font-weight:normal;writing-mode:lr;fill-rule:nonzero;fill-opacity:1;stroke:none;-inkscape-font-specification:serif;font-variant:normal;font-family:serif;fill:#000000">550</tspan></text>

<text
   id="text11122"
   transform="matrix(0,1,1,0,19.4773,117.527)"><tspan
     id="tspan11124"
     sodipodi:role="line"
     y="0"
     x="0 10.672 20.30481787 26.73451073 36.2735747 41.39076709 46.47670409 56.71888915 66.18764208 73.83564208 78.92157909 90.02313768 99.49189061 108.96064353 119.2028408 124.28879001 135.39034861 140.50754099 150.14034665 163.83566306 168.92161228 180.96848923 190.50754099 196.93722166 206.40597459 211.49192381"
     style="font-size:16;font-weight:normal;writing-mode:lr;fill-rule:nonzero;fill-opacity:1;stroke:none;-inkscape-font-specification:serif;font-variant:normal;font-family:serif;fill:#000000">Total per Feed Flow Rate, </tspan></text>

<text
   id="text11126"
   transform="matrix(0,1,1,0,19.4773,334.105)"><tspan
     id="tspan11128"
     sodipodi:role="line"
     y="0"
     x="0 10.88280762 18.88280762"
     style="font-size:16;font-weight:normal;writing-mode:lr;fill-rule:nonzero;fill-opacity:1;stroke:none;-inkscape-font-specification:serif;font-variant:normal;font-family:serif;fill:#000000">L/F</tspan></text>

</g><path
             id="path11130"
             style="fill:none;stroke:#000000;stroke-opacity:1;stroke-width:10;stroke-linecap:square;stroke-linejoin:round;stroke-miterlimit:10;stroke-dasharray:none"
             d="m 623.211,4358.27 3905.999,0" /><path
             id="path11132"
             style="fill:none;stroke:#000000;stroke-opacity:1;stroke-width:10;stroke-linecap:square;stroke-linejoin:round;stroke-miterlimit:10;stroke-dasharray:none"
             d="m 4529.21,452.273 0,3905.997" /><path
             id="path11134"
             style="fill:none;stroke:#000000;stroke-opacity:1;stroke-width:10;stroke-linecap:square;stroke-linejoin:round;stroke-miterlimit:10;stroke-dasharray:none"
             d="m 623.211,452.273 3905.999,0" /><path
             id="path11136"
             style="fill:none;stroke:#000000;stroke-opacity:1;stroke-width:10;stroke-linecap:square;stroke-linejoin:round;stroke-miterlimit:10;stroke-dasharray:none"
             d="m 623.211,452.273 0,3905.997" /></g></g></g></g></svg>