<?xml version="1.0" encoding="UTF-8" standalone="no"?>
<!-- Created with Inkscape (http://www.inkscape.org/) -->

<svg
   xmlns:dc="http://purl.org/dc/elements/1.1/"
   xmlns:cc="http://creativecommons.org/ns#"
   xmlns:rdf="http://www.w3.org/1999/02/22-rdf-syntax-ns#"
   xmlns:svg="http://www.w3.org/2000/svg"
   xmlns="http://www.w3.org/2000/svg"
   xmlns:sodipodi="http://sodipodi.sourceforge.net/DTD/sodipodi-0.dtd"
   xmlns:inkscape="http://www.inkscape.org/namespaces/inkscape"
   id="svg12949"
   version="1.1"
   inkscape:version="0.48.2 r9819"
   width="720"
   height="540"
   xml:space="preserve"
   sodipodi:docname="tru_cr.eps"><sodipodi:namedview
     pagecolor="#ffffff"
     bordercolor="#666666"
     borderopacity="1"
     objecttolerance="10"
     gridtolerance="10"
     guidetolerance="10"
     inkscape:pageopacity="0"
     inkscape:pageshadow="2"
     inkscape:window-width="1438"
     inkscape:window-height="868"
     id="namedview12951"
     showgrid="false"
     inkscape:zoom="0.43703704"
     inkscape:cx="360"
     inkscape:cy="270"
     inkscape:window-x="0"
     inkscape:window-y="30"
     inkscape:window-maximized="0"
     inkscape:current-layer="g12957" /><metadata
     id="metadata12955"><rdf:RDF><cc:Work
         rdf:about=""><dc:format>image/svg+xml</dc:format><dc:type
           rdf:resource="http://purl.org/dc/dcmitype/StillImage" /><dc:title></dc:title></cc:Work></rdf:RDF></metadata><defs
     id="defs12953"><clipPath
       id="clipPath12973"
       clipPathUnits="userSpaceOnUse"><path
         id="path12975"
         d="m 720,432 4464,0 0,3456 -4464,0 0,-3456 z" /></clipPath></defs><g
     transform="matrix(1.25,0,0,-1.25,0,540)"
     inkscape:label="ink_ext_XXXXXX"
     inkscape:groupmode="layer"
     id="g12957"><g
       transform="scale(0.1,0.1)"
       id="g12959"><path
         id="path12961"
         style="fill:#ffffff;fill-opacity:1;fill-rule:nonzero;stroke:none"
         d="m 0,0 5760,0 0,4320 L 0,4320 0,0 z" /><path
         id="path12963"
         style="fill:none;stroke:#ffffff;stroke-opacity:1;stroke-width:10;stroke-linecap:square;stroke-linejoin:miter;stroke-miterlimit:10;stroke-dasharray:none"
         d="m 0,0 5760,0 0,4320 L 0,4320 0,0 z" /><path
         id="path12965"
         style="fill:#ffffff;fill-opacity:1;fill-rule:nonzero;stroke:none"
         d="m 720,432 4464,0 0,3456 -4464,0 0,-3456 z" /><path
         id="path12967"
         style="fill:none;stroke:#000000;stroke-opacity:1;stroke-width:10;stroke-linecap:square;stroke-linejoin:miter;stroke-miterlimit:10;stroke-dasharray:none"
         d="m 720,432 4464,0 0,3456 -4464,0 0,-3456 z" /><g
         id="g12969"><g
           clip-path="url(#clipPath12973)"
           id="g12971"><path
             id="path12977"
             style="fill:none;stroke:#000000;stroke-opacity:1;stroke-width:10;stroke-linecap:square;stroke-linejoin:miter;stroke-miterlimit:10;stroke-dasharray:none"
             d="m 720,838.691 496,1652.659 496,477.29 496,181.83 496,107.72 496,95.47 496,89.1 496,78.87 496,63.63 496,52.06" /></g></g><g
         transform="scale(10,10)"
         id="g12979"><text
   id="text12981"
   transform="matrix(1,0,0,-1,69.391,30.45)"><tspan
     id="tspan12983"
     y="0"
     x="0"
     style="font-size:12;font-weight:normal;writing-mode:lr;fill-rule:nonzero;fill-opacity:1;stroke:none;-inkscape-font-specification:Serif;font-variant:normal;font-family:Serif;fill:#000000">1</tspan></text>

</g><path
         id="path12985"
         style="fill:none;stroke:#000000;stroke-opacity:1;stroke-width:5;stroke-linecap:butt;stroke-linejoin:miter;stroke-miterlimit:10;stroke-dasharray:none"
         d="m 1211,432 0,40 0,-40 z" /><path
         id="path12987"
         style="fill:none;stroke:#000000;stroke-opacity:1;stroke-width:5;stroke-linecap:butt;stroke-linejoin:miter;stroke-miterlimit:10;stroke-dasharray:none"
         d="m 1211,3848 0,40 0,-40 z" /><g
         transform="scale(10,10)"
         id="g12989"><text
   id="text12991"
   transform="matrix(1,0,0,-1,118.819,30.2941)"><tspan
     id="tspan12993"
     y="0"
     x="0"
     style="font-size:12;font-weight:normal;writing-mode:lr;fill-rule:nonzero;fill-opacity:1;stroke:none;-inkscape-font-specification:Serif;font-variant:normal;font-family:Serif;fill:#000000">2</tspan></text>

</g><path
         id="path12995"
         style="fill:none;stroke:#000000;stroke-opacity:1;stroke-width:5;stroke-linecap:butt;stroke-linejoin:miter;stroke-miterlimit:10;stroke-dasharray:none"
         d="m 1707,432 0,40 0,-40 z" /><path
         id="path12997"
         style="fill:none;stroke:#000000;stroke-opacity:1;stroke-width:5;stroke-linecap:butt;stroke-linejoin:miter;stroke-miterlimit:10;stroke-dasharray:none"
         d="m 1707,3848 0,40 0,-40 z" /><g
         transform="scale(10,10)"
         id="g12999"><text
   id="text13001"
   transform="matrix(1,0,0,-1,168.325,30.2941)"><tspan
     id="tspan13003"
     y="0"
     x="0"
     style="font-size:12;font-weight:normal;writing-mode:lr;fill-rule:nonzero;fill-opacity:1;stroke:none;-inkscape-font-specification:Serif;font-variant:normal;font-family:Serif;fill:#000000">3</tspan></text>

</g><path
         id="path13005"
         style="fill:none;stroke:#000000;stroke-opacity:1;stroke-width:5;stroke-linecap:butt;stroke-linejoin:miter;stroke-miterlimit:10;stroke-dasharray:none"
         d="m 2203,432 0,40 0,-40 z" /><path
         id="path13007"
         style="fill:none;stroke:#000000;stroke-opacity:1;stroke-width:5;stroke-linecap:butt;stroke-linejoin:miter;stroke-miterlimit:10;stroke-dasharray:none"
         d="m 2203,3848 0,40 0,-40 z" /><g
         transform="scale(10,10)"
         id="g13009"><text
   id="text13011"
   transform="matrix(1,0,0,-1,217.612,30.45)"><tspan
     id="tspan13013"
     y="0"
     x="0"
     style="font-size:12;font-weight:normal;writing-mode:lr;fill-rule:nonzero;fill-opacity:1;stroke:none;-inkscape-font-specification:Serif;font-variant:normal;font-family:Serif;fill:#000000">4</tspan></text>

</g><path
         id="path13015"
         style="fill:none;stroke:#000000;stroke-opacity:1;stroke-width:5;stroke-linecap:butt;stroke-linejoin:miter;stroke-miterlimit:10;stroke-dasharray:none"
         d="m 2699,432 0,40 0,-40 z" /><path
         id="path13017"
         style="fill:none;stroke:#000000;stroke-opacity:1;stroke-width:5;stroke-linecap:butt;stroke-linejoin:miter;stroke-miterlimit:10;stroke-dasharray:none"
         d="m 2699,3848 0,40 0,-40 z" /><g
         transform="scale(10,10)"
         id="g13019"><text
   id="text13021"
   transform="matrix(1,0,0,-1,267.564,30.45)"><tspan
     id="tspan13023"
     y="0"
     x="0"
     style="font-size:12;font-weight:normal;writing-mode:lr;fill-rule:nonzero;fill-opacity:1;stroke:none;-inkscape-font-specification:Serif;font-variant:normal;font-family:Serif;fill:#000000">5</tspan></text>

</g><path
         id="path13025"
         style="fill:none;stroke:#000000;stroke-opacity:1;stroke-width:5;stroke-linecap:butt;stroke-linejoin:miter;stroke-miterlimit:10;stroke-dasharray:none"
         d="m 3195,432 0,40 0,-40 z" /><path
         id="path13027"
         style="fill:none;stroke:#000000;stroke-opacity:1;stroke-width:5;stroke-linecap:butt;stroke-linejoin:miter;stroke-miterlimit:10;stroke-dasharray:none"
         d="m 3195,3848 0,40 0,-40 z" /><g
         transform="scale(10,10)"
         id="g13029"><text
   id="text13031"
   transform="matrix(1,0,0,-1,316.984,30.2941)"><tspan
     id="tspan13033"
     y="0"
     x="0"
     style="font-size:12;font-weight:normal;writing-mode:lr;fill-rule:nonzero;fill-opacity:1;stroke:none;-inkscape-font-specification:Serif;font-variant:normal;font-family:Serif;fill:#000000">6</tspan></text>

</g><path
         id="path13035"
         style="fill:none;stroke:#000000;stroke-opacity:1;stroke-width:5;stroke-linecap:butt;stroke-linejoin:miter;stroke-miterlimit:10;stroke-dasharray:none"
         d="m 3691,432 0,40 0,-40 z" /><path
         id="path13037"
         style="fill:none;stroke:#000000;stroke-opacity:1;stroke-width:5;stroke-linecap:butt;stroke-linejoin:miter;stroke-miterlimit:10;stroke-dasharray:none"
         d="m 3691,3848 0,40 0,-40 z" /><g
         transform="scale(10,10)"
         id="g13039"><text
   id="text13041"
   transform="matrix(1,0,0,-1,366.787,30.45)"><tspan
     id="tspan13043"
     y="0"
     x="0"
     style="font-size:12;font-weight:normal;writing-mode:lr;fill-rule:nonzero;fill-opacity:1;stroke:none;-inkscape-font-specification:Serif;font-variant:normal;font-family:Serif;fill:#000000">7</tspan></text>

</g><path
         id="path13045"
         style="fill:none;stroke:#000000;stroke-opacity:1;stroke-width:5;stroke-linecap:butt;stroke-linejoin:miter;stroke-miterlimit:10;stroke-dasharray:none"
         d="m 4187,432 0,40 0,-40 z" /><path
         id="path13047"
         style="fill:none;stroke:#000000;stroke-opacity:1;stroke-width:5;stroke-linecap:butt;stroke-linejoin:miter;stroke-miterlimit:10;stroke-dasharray:none"
         d="m 4187,3848 0,40 0,-40 z" /><g
         transform="scale(10,10)"
         id="g13049"><text
   id="text13051"
   transform="matrix(1,0,0,-1,416.2,30.2941)"><tspan
     id="tspan13053"
     y="0"
     x="0"
     style="font-size:12;font-weight:normal;writing-mode:lr;fill-rule:nonzero;fill-opacity:1;stroke:none;-inkscape-font-specification:Serif;font-variant:normal;font-family:Serif;fill:#000000">8</tspan></text>

</g><path
         id="path13055"
         style="fill:none;stroke:#000000;stroke-opacity:1;stroke-width:5;stroke-linecap:butt;stroke-linejoin:miter;stroke-miterlimit:10;stroke-dasharray:none"
         d="m 4683,432 0,40 0,-40 z" /><path
         id="path13057"
         style="fill:none;stroke:#000000;stroke-opacity:1;stroke-width:5;stroke-linecap:butt;stroke-linejoin:miter;stroke-miterlimit:10;stroke-dasharray:none"
         d="m 4683,3848 0,40 0,-40 z" /><g
         transform="scale(10,10)"
         id="g13059"><text
   id="text13061"
   transform="matrix(1,0,0,-1,465.777,30.2941)"><tspan
     id="tspan13063"
     sodipodi:role="line"
     y="0"
     x="0 46.03716 53.66916"
     style="font-size:12;font-weight:normal;writing-mode:lr;fill-rule:nonzero;fill-opacity:1;stroke:none;-inkscape-font-specification:Serif;font-variant:normal;font-family:Serif;fill:#000000">910</tspan><tspan
     id="tspan13065"
     sodipodi:role="line"
     y="14.2973"
     x="-212.999 -204.623 -197.519 -190.919 -187.583 -180.203 -176.387 -167.411 -159.803 -148.115 -140.495 -133.115"
     style="font-size:12;font-weight:normal;writing-mode:lr;fill-rule:nonzero;fill-opacity:1;stroke:none;-inkscape-font-specification:Serif;font-variant:normal;font-family:Serif;fill:#000000">Cycle Number</tspan><tspan
     id="tspan13067"
     sodipodi:role="line"
     y="-8.5386"
     x="-430.558 -422.926 -419.11 -411.478 -403.846"
     style="font-size:12;font-weight:normal;writing-mode:lr;fill-rule:nonzero;fill-opacity:1;stroke:none;-inkscape-font-specification:Serif;font-variant:normal;font-family:Serif;fill:#000000">0.460</tspan></text>

</g><path
         id="path13069"
         style="fill:none;stroke:#000000;stroke-opacity:1;stroke-width:5;stroke-linecap:butt;stroke-linejoin:miter;stroke-miterlimit:10;stroke-dasharray:none"
         d="m 720,930.715 40,0 -40,0 z" /><path
         id="path13071"
         style="fill:none;stroke:#000000;stroke-opacity:1;stroke-width:5;stroke-linecap:butt;stroke-linejoin:miter;stroke-miterlimit:10;stroke-dasharray:none"
         d="m 5144,930.715 40,0 -40,0 z" /><g
         transform="scale(10,10)"
         id="g13073"><text
   id="text13075"
   transform="matrix(1,0,0,-1,35.4691,88.2039)"><tspan
     id="tspan13077"
     sodipodi:role="line"
     y="0"
     x="0 7.632 11.448 19.08 26.712"
     style="font-size:12;font-weight:normal;writing-mode:lr;fill-rule:nonzero;fill-opacity:1;stroke:none;-inkscape-font-specification:Serif;font-variant:normal;font-family:Serif;fill:#000000">0.465</tspan></text>

</g><path
         id="path13079"
         style="fill:none;stroke:#000000;stroke-opacity:1;stroke-width:5;stroke-linecap:butt;stroke-linejoin:miter;stroke-miterlimit:10;stroke-dasharray:none"
         d="m 720,1424.43 40,0 -40,0 z" /><path
         id="path13081"
         style="fill:none;stroke:#000000;stroke-opacity:1;stroke-width:5;stroke-linecap:butt;stroke-linejoin:miter;stroke-miterlimit:10;stroke-dasharray:none"
         d="m 5144,1424.43 40,0 -40,0 z" /><g
         transform="scale(10,10)"
         id="g13083"><text
   id="text13085"
   transform="matrix(1,0,0,-1,35.2191,137.576)"><tspan
     id="tspan13087"
     sodipodi:role="line"
     y="0"
     x="0 7.632 11.448 19.08 26.712"
     style="font-size:12;font-weight:normal;writing-mode:lr;fill-rule:nonzero;fill-opacity:1;stroke:none;-inkscape-font-specification:Serif;font-variant:normal;font-family:Serif;fill:#000000">0.470</tspan></text>

</g><path
         id="path13089"
         style="fill:none;stroke:#000000;stroke-opacity:1;stroke-width:5;stroke-linecap:butt;stroke-linejoin:miter;stroke-miterlimit:10;stroke-dasharray:none"
         d="m 720,1918.14 40,0 -40,0 z" /><path
         id="path13091"
         style="fill:none;stroke:#000000;stroke-opacity:1;stroke-width:5;stroke-linecap:butt;stroke-linejoin:miter;stroke-miterlimit:10;stroke-dasharray:none"
         d="m 5144,1918.14 40,0 -40,0 z" /><g
         transform="scale(10,10)"
         id="g13093"><text
   id="text13095"
   transform="matrix(1,0,0,-1,35.4691,186.947)"><tspan
     id="tspan13097"
     sodipodi:role="line"
     y="0"
     x="0 7.632 11.448 19.08 26.712"
     style="font-size:12;font-weight:normal;writing-mode:lr;fill-rule:nonzero;fill-opacity:1;stroke:none;-inkscape-font-specification:Serif;font-variant:normal;font-family:Serif;fill:#000000">0.475</tspan></text>

</g><path
         id="path13099"
         style="fill:none;stroke:#000000;stroke-opacity:1;stroke-width:5;stroke-linecap:butt;stroke-linejoin:miter;stroke-miterlimit:10;stroke-dasharray:none"
         d="m 720,2411.86 40,0 -40,0 z" /><path
         id="path13101"
         style="fill:none;stroke:#000000;stroke-opacity:1;stroke-width:5;stroke-linecap:butt;stroke-linejoin:miter;stroke-miterlimit:10;stroke-dasharray:none"
         d="m 5144,2411.86 40,0 -40,0 z" /><g
         transform="scale(10,10)"
         id="g13103"><text
   id="text13105"
   transform="matrix(1,0,0,-1,35.2191,236.319)"><tspan
     id="tspan13107"
     sodipodi:role="line"
     y="0"
     x="0 7.632 11.448 19.08 26.712"
     style="font-size:12;font-weight:normal;writing-mode:lr;fill-rule:nonzero;fill-opacity:1;stroke:none;-inkscape-font-specification:Serif;font-variant:normal;font-family:Serif;fill:#000000">0.480</tspan></text>

</g><path
         id="path13109"
         style="fill:none;stroke:#000000;stroke-opacity:1;stroke-width:5;stroke-linecap:butt;stroke-linejoin:miter;stroke-miterlimit:10;stroke-dasharray:none"
         d="m 720,2905.57 40,0 -40,0 z" /><path
         id="path13111"
         style="fill:none;stroke:#000000;stroke-opacity:1;stroke-width:5;stroke-linecap:butt;stroke-linejoin:miter;stroke-miterlimit:10;stroke-dasharray:none"
         d="m 5144,2905.57 40,0 -40,0 z" /><g
         transform="scale(10,10)"
         id="g13113"><text
   id="text13115"
   transform="matrix(1,0,0,-1,35.4691,285.69)"><tspan
     id="tspan13117"
     sodipodi:role="line"
     y="0"
     x="0 7.632 11.448 19.08 26.712"
     style="font-size:12;font-weight:normal;writing-mode:lr;fill-rule:nonzero;fill-opacity:1;stroke:none;-inkscape-font-specification:Serif;font-variant:normal;font-family:Serif;fill:#000000">0.485</tspan></text>

</g><path
         id="path13119"
         style="fill:none;stroke:#000000;stroke-opacity:1;stroke-width:5;stroke-linecap:butt;stroke-linejoin:miter;stroke-miterlimit:10;stroke-dasharray:none"
         d="m 720,3399.29 40,0 -40,0 z" /><path
         id="path13121"
         style="fill:none;stroke:#000000;stroke-opacity:1;stroke-width:5;stroke-linecap:butt;stroke-linejoin:miter;stroke-miterlimit:10;stroke-dasharray:none"
         d="m 5144,3399.29 40,0 -40,0 z" /><g
         transform="scale(10,10)"
         id="g13123"><text
   id="text13125"
   transform="matrix(1,0,0,-1,35.2191,335.062)"><tspan
     id="tspan13127"
     sodipodi:role="line"
     y="0"
     x="0 7.632 11.448 19.08 26.712"
     style="font-size:12;font-weight:normal;writing-mode:lr;fill-rule:nonzero;fill-opacity:1;stroke:none;-inkscape-font-specification:Serif;font-variant:normal;font-family:Serif;fill:#000000">0.490</tspan><tspan
     id="tspan13129"
     sodipodi:role="line"
     y="-49.3707"
     x="0.25 7.882 11.698 19.33 26.962"
     style="font-size:12;font-weight:normal;writing-mode:lr;fill-rule:nonzero;fill-opacity:1;stroke:none;-inkscape-font-specification:Serif;font-variant:normal;font-family:Serif;fill:#000000">0.495</tspan></text>

</g><path
         id="path13131"
         style="fill:none;stroke:#000000;stroke-opacity:1;stroke-width:10;stroke-linecap:square;stroke-linejoin:miter;stroke-miterlimit:10;stroke-dasharray:none"
         d="m 720,432 4464,0 0,3456 -4464,0 0,-3456" /><path
         id="path13133"
         style="fill:#ffffff;fill-opacity:1;fill-rule:nonzero;stroke:none"
         d="m 2869.31,3688.75 2225.41,0 0,130.129 -2225.41,0 0,-130.129 z" /><path
         id="path13135"
         style="fill:none;stroke:#000000;stroke-opacity:1;stroke-width:10;stroke-linecap:square;stroke-linejoin:miter;stroke-miterlimit:10;stroke-dasharray:none"
         d="m 2869.31,3688.75 2225.41,0 0,130.129 -2225.41,0 0,-130.129 z" /><path
         id="path13137"
         style="fill:none;stroke:#000000;stroke-opacity:1;stroke-width:10;stroke-linecap:square;stroke-linejoin:miter;stroke-miterlimit:10;stroke-dasharray:none"
         d="m 3084.76,3753.82 223.2,0" /><g
         transform="scale(10,10)"
         id="g13139"><text
   id="text13141"
   transform="matrix(1,0,0,-1,339.724,370.163)"><tspan
     id="tspan13143"
     sodipodi:role="line"
     y="0"
     x="0 8.554 18.284 28.532 32.984 42.756 51.324 60.2 68.488 77.098 82.852 90.146 94.038 102.606 111.482 115.934 125.664 134.246 139.734 143.626"
     style="font-size:14;font-weight:normal;writing-mode:lr;fill-rule:nonzero;fill-opacity:1;stroke:none;-inkscape-font-specification:Serif;font-variant:normal;font-family:Serif;fill:#000000">TRU Conversion Ratio</tspan></text>

</g></g></g></svg>