<?xml version="1.0" encoding="UTF-8" standalone="no"?>
<!-- Created with Inkscape (http://www.inkscape.org/) -->

<svg
   xmlns:dc="http://purl.org/dc/elements/1.1/"
   xmlns:cc="http://creativecommons.org/ns#"
   xmlns:rdf="http://www.w3.org/1999/02/22-rdf-syntax-ns#"
   xmlns:svg="http://www.w3.org/2000/svg"
   xmlns="http://www.w3.org/2000/svg"
   xmlns:sodipodi="http://sodipodi.sourceforge.net/DTD/sodipodi-0.dtd"
   xmlns:inkscape="http://www.inkscape.org/namespaces/inkscape"
   id="svg8327"
   version="1.1"
   inkscape:version="0.48.2 r9819"
   width="720"
   height="540"
   xml:space="preserve"
   sodipodi:docname="U235_Mass_Fraction_.eps"><metadata
     id="metadata8333"><rdf:RDF><cc:Work
         rdf:about=""><dc:format>image/svg+xml</dc:format><dc:type
           rdf:resource="http://purl.org/dc/dcmitype/StillImage" /><dc:title></dc:title></cc:Work></rdf:RDF></metadata><defs
     id="defs8331"><clipPath
       clipPathUnits="userSpaceOnUse"
       id="clipPath8349"><path
         d="m 720,432 4464,0 0,3456 -4464,0 0,-3456 z"
         id="path8351" /></clipPath><clipPath
       clipPathUnits="userSpaceOnUse"
       id="clipPath8453"><path
         d="M 0,0 0,0 0,0 0,0 z"
         id="path8455" /></clipPath></defs><sodipodi:namedview
     pagecolor="#ffffff"
     bordercolor="#666666"
     borderopacity="1"
     objecttolerance="10"
     gridtolerance="10"
     guidetolerance="10"
     inkscape:pageopacity="0"
     inkscape:pageshadow="2"
     inkscape:window-width="1438"
     inkscape:window-height="868"
     id="namedview8329"
     showgrid="false"
     inkscape:zoom="0.87407407"
     inkscape:cx="532.17362"
     inkscape:cy="262.13202"
     inkscape:window-x="0"
     inkscape:window-y="30"
     inkscape:window-maximized="0"
     inkscape:current-layer="g8335" /><g
     id="g8335"
     inkscape:groupmode="layer"
     inkscape:label="ink_ext_XXXXXX"
     transform="matrix(1.25,0,0,-1.25,0,540)"><g
       id="g8337"
       transform="scale(0.1,0.1)"><path
         d="m 0,0 5760,0 0,4320 L 0,4320 0,0 z"
         style="fill:#ffffff;fill-opacity:1;fill-rule:nonzero;stroke:none"
         id="path8339" /><path
         d="m 0,0 5760,0 0,4320 L 0,4320 0,0 z"
         style="fill:none;stroke:#ffffff;stroke-opacity:1;stroke-width:10;stroke-linecap:square;stroke-linejoin:round;stroke-miterlimit:10;stroke-dasharray:none"
         id="path8341" /><path
         d="m 720,432 4464,0 0,3456 -4464,0 0,-3456 z"
         style="fill:#ffffff;fill-opacity:1;fill-rule:nonzero;stroke:none"
         id="path8343" /><g
         id="g8345"><g
           id="g8347"
           clip-path="url(#clipPath8349)"><path
             d="m 720,3695.98 452.6,-370.67 452.6,-352.58 452.6,-337.17 452.6,-323.87 452.6,-311.85 452.6,-301.15 452.6,-291.14 452.6,-281.82 452.6,-272.886"
             style="fill:none;stroke:#000000;stroke-opacity:1;stroke-width:10;stroke-linecap:square;stroke-linejoin:round;stroke-miterlimit:10;stroke-dasharray:none"
             id="path8353" /><path
             d="m 720,3696 452.6,-374.4 452.6,-357.12 452.6,-343.68 452.6,-332.16 452.6,-320.64 452.6,-309.12 452.6,-299.52 452.6,-289.92 452.6,-280.319"
             style="fill:none;stroke:#ff0000;stroke-opacity:1;stroke-width:10;stroke-linecap:square;stroke-linejoin:round;stroke-miterlimit:10;stroke-dasharray:none"
             id="path8355" /></g></g><path
         d="m 720,432 0,40"
         style="fill:none;stroke:#000000;stroke-opacity:1;stroke-width:5;stroke-linecap:butt;stroke-linejoin:round;stroke-miterlimit:10;stroke-dasharray:none"
         id="path8357" /><path
         d="m 720,3888 0,-40"
         style="fill:none;stroke:#000000;stroke-opacity:1;stroke-width:5;stroke-linecap:butt;stroke-linejoin:round;stroke-miterlimit:10;stroke-dasharray:none"
         id="path8359" /><path
         d="m 1278,432 0,40"
         style="fill:none;stroke:#000000;stroke-opacity:1;stroke-width:5;stroke-linecap:butt;stroke-linejoin:round;stroke-miterlimit:10;stroke-dasharray:none"
         id="path8361" /><path
         d="m 1278,3888 0,-40"
         style="fill:none;stroke:#000000;stroke-opacity:1;stroke-width:5;stroke-linecap:butt;stroke-linejoin:round;stroke-miterlimit:10;stroke-dasharray:none"
         id="path8363" /><path
         d="m 1836,432 0,40"
         style="fill:none;stroke:#000000;stroke-opacity:1;stroke-width:5;stroke-linecap:butt;stroke-linejoin:round;stroke-miterlimit:10;stroke-dasharray:none"
         id="path8365" /><path
         d="m 1836,3888 0,-40"
         style="fill:none;stroke:#000000;stroke-opacity:1;stroke-width:5;stroke-linecap:butt;stroke-linejoin:round;stroke-miterlimit:10;stroke-dasharray:none"
         id="path8367" /><path
         d="m 2394,432 0,40"
         style="fill:none;stroke:#000000;stroke-opacity:1;stroke-width:5;stroke-linecap:butt;stroke-linejoin:round;stroke-miterlimit:10;stroke-dasharray:none"
         id="path8369" /><path
         d="m 2394,3888 0,-40"
         style="fill:none;stroke:#000000;stroke-opacity:1;stroke-width:5;stroke-linecap:butt;stroke-linejoin:round;stroke-miterlimit:10;stroke-dasharray:none"
         id="path8371" /><path
         d="m 2952,432 0,40"
         style="fill:none;stroke:#000000;stroke-opacity:1;stroke-width:5;stroke-linecap:butt;stroke-linejoin:round;stroke-miterlimit:10;stroke-dasharray:none"
         id="path8373" /><path
         d="m 2952,3888 0,-40"
         style="fill:none;stroke:#000000;stroke-opacity:1;stroke-width:5;stroke-linecap:butt;stroke-linejoin:round;stroke-miterlimit:10;stroke-dasharray:none"
         id="path8375" /><path
         d="m 3510,432 0,40"
         style="fill:none;stroke:#000000;stroke-opacity:1;stroke-width:5;stroke-linecap:butt;stroke-linejoin:round;stroke-miterlimit:10;stroke-dasharray:none"
         id="path8377" /><path
         d="m 3510,3888 0,-40"
         style="fill:none;stroke:#000000;stroke-opacity:1;stroke-width:5;stroke-linecap:butt;stroke-linejoin:round;stroke-miterlimit:10;stroke-dasharray:none"
         id="path8379" /><path
         d="m 4068,432 0,40"
         style="fill:none;stroke:#000000;stroke-opacity:1;stroke-width:5;stroke-linecap:butt;stroke-linejoin:round;stroke-miterlimit:10;stroke-dasharray:none"
         id="path8381" /><path
         d="m 4068,3888 0,-40"
         style="fill:none;stroke:#000000;stroke-opacity:1;stroke-width:5;stroke-linecap:butt;stroke-linejoin:round;stroke-miterlimit:10;stroke-dasharray:none"
         id="path8383" /><path
         d="m 4626,432 0,40"
         style="fill:none;stroke:#000000;stroke-opacity:1;stroke-width:5;stroke-linecap:butt;stroke-linejoin:round;stroke-miterlimit:10;stroke-dasharray:none"
         id="path8385" /><path
         d="m 4626,3888 0,-40"
         style="fill:none;stroke:#000000;stroke-opacity:1;stroke-width:5;stroke-linecap:butt;stroke-linejoin:round;stroke-miterlimit:10;stroke-dasharray:none"
         id="path8387" /><path
         d="m 5184,432 0,40"
         style="fill:none;stroke:#000000;stroke-opacity:1;stroke-width:5;stroke-linecap:butt;stroke-linejoin:round;stroke-miterlimit:10;stroke-dasharray:none"
         id="path8389" /><path
         d="m 5184,3888 0,-40"
         style="fill:none;stroke:#000000;stroke-opacity:1;stroke-width:5;stroke-linecap:butt;stroke-linejoin:round;stroke-miterlimit:10;stroke-dasharray:none"
         id="path8391" /><path
         d="m 720,432 40,0"
         style="fill:none;stroke:#000000;stroke-opacity:1;stroke-width:5;stroke-linecap:butt;stroke-linejoin:round;stroke-miterlimit:10;stroke-dasharray:none"
         id="path8393" /><path
         d="m 5184,432 -40,0"
         style="fill:none;stroke:#000000;stroke-opacity:1;stroke-width:5;stroke-linecap:butt;stroke-linejoin:round;stroke-miterlimit:10;stroke-dasharray:none"
         id="path8395" /><path
         d="m 720,816 40,0"
         style="fill:none;stroke:#000000;stroke-opacity:1;stroke-width:5;stroke-linecap:butt;stroke-linejoin:round;stroke-miterlimit:10;stroke-dasharray:none"
         id="path8397" /><path
         d="m 5184,816 -40,0"
         style="fill:none;stroke:#000000;stroke-opacity:1;stroke-width:5;stroke-linecap:butt;stroke-linejoin:round;stroke-miterlimit:10;stroke-dasharray:none"
         id="path8399" /><path
         d="m 720,1200 40,0"
         style="fill:none;stroke:#000000;stroke-opacity:1;stroke-width:5;stroke-linecap:butt;stroke-linejoin:round;stroke-miterlimit:10;stroke-dasharray:none"
         id="path8401" /><path
         d="m 5184,1200 -40,0"
         style="fill:none;stroke:#000000;stroke-opacity:1;stroke-width:5;stroke-linecap:butt;stroke-linejoin:round;stroke-miterlimit:10;stroke-dasharray:none"
         id="path8403" /><path
         d="m 720,1584 40,0"
         style="fill:none;stroke:#000000;stroke-opacity:1;stroke-width:5;stroke-linecap:butt;stroke-linejoin:round;stroke-miterlimit:10;stroke-dasharray:none"
         id="path8405" /><path
         d="m 5184,1584 -40,0"
         style="fill:none;stroke:#000000;stroke-opacity:1;stroke-width:5;stroke-linecap:butt;stroke-linejoin:round;stroke-miterlimit:10;stroke-dasharray:none"
         id="path8407" /><path
         d="m 720,1968 40,0"
         style="fill:none;stroke:#000000;stroke-opacity:1;stroke-width:5;stroke-linecap:butt;stroke-linejoin:round;stroke-miterlimit:10;stroke-dasharray:none"
         id="path8409" /><path
         d="m 5184,1968 -40,0"
         style="fill:none;stroke:#000000;stroke-opacity:1;stroke-width:5;stroke-linecap:butt;stroke-linejoin:round;stroke-miterlimit:10;stroke-dasharray:none"
         id="path8411" /><path
         d="m 720,2352 40,0"
         style="fill:none;stroke:#000000;stroke-opacity:1;stroke-width:5;stroke-linecap:butt;stroke-linejoin:round;stroke-miterlimit:10;stroke-dasharray:none"
         id="path8413" /><path
         d="m 5184,2352 -40,0"
         style="fill:none;stroke:#000000;stroke-opacity:1;stroke-width:5;stroke-linecap:butt;stroke-linejoin:round;stroke-miterlimit:10;stroke-dasharray:none"
         id="path8415" /><path
         d="m 720,2736 40,0"
         style="fill:none;stroke:#000000;stroke-opacity:1;stroke-width:5;stroke-linecap:butt;stroke-linejoin:round;stroke-miterlimit:10;stroke-dasharray:none"
         id="path8417" /><path
         d="m 5184,2736 -40,0"
         style="fill:none;stroke:#000000;stroke-opacity:1;stroke-width:5;stroke-linecap:butt;stroke-linejoin:round;stroke-miterlimit:10;stroke-dasharray:none"
         id="path8419" /><path
         d="m 720,3120 40,0"
         style="fill:none;stroke:#000000;stroke-opacity:1;stroke-width:5;stroke-linecap:butt;stroke-linejoin:round;stroke-miterlimit:10;stroke-dasharray:none"
         id="path8421" /><path
         d="m 5184,3120 -40,0"
         style="fill:none;stroke:#000000;stroke-opacity:1;stroke-width:5;stroke-linecap:butt;stroke-linejoin:round;stroke-miterlimit:10;stroke-dasharray:none"
         id="path8423" /><path
         d="m 720,3504 40,0"
         style="fill:none;stroke:#000000;stroke-opacity:1;stroke-width:5;stroke-linecap:butt;stroke-linejoin:round;stroke-miterlimit:10;stroke-dasharray:none"
         id="path8425" /><path
         d="m 5184,3504 -40,0"
         style="fill:none;stroke:#000000;stroke-opacity:1;stroke-width:5;stroke-linecap:butt;stroke-linejoin:round;stroke-miterlimit:10;stroke-dasharray:none"
         id="path8427" /><path
         d="m 720,3888 40,0"
         style="fill:none;stroke:#000000;stroke-opacity:1;stroke-width:5;stroke-linecap:butt;stroke-linejoin:round;stroke-miterlimit:10;stroke-dasharray:none"
         id="path8429" /><path
         d="m 5184,3888 -40,0"
         style="fill:none;stroke:#000000;stroke-opacity:1;stroke-width:5;stroke-linecap:butt;stroke-linejoin:round;stroke-miterlimit:10;stroke-dasharray:none"
         id="path8431" /><path
         d="m 720,3888 4464,0"
         style="fill:none;stroke:#000000;stroke-opacity:1;stroke-width:10;stroke-linecap:square;stroke-linejoin:round;stroke-miterlimit:10;stroke-dasharray:none"
         id="path8433" /><path
         d="m 5184,432 0,3456"
         style="fill:none;stroke:#000000;stroke-opacity:1;stroke-width:10;stroke-linecap:square;stroke-linejoin:round;stroke-miterlimit:10;stroke-dasharray:none"
         id="path8435" /><path
         d="m 720,432 4464,0"
         style="fill:none;stroke:#000000;stroke-opacity:1;stroke-width:10;stroke-linecap:square;stroke-linejoin:round;stroke-miterlimit:10;stroke-dasharray:none"
         id="path8437" /><path
         d="m 720,432 0,3456"
         style="fill:none;stroke:#000000;stroke-opacity:1;stroke-width:10;stroke-linecap:square;stroke-linejoin:round;stroke-miterlimit:10;stroke-dasharray:none"
         id="path8439" /><path
         d="m 4070.25,3385.99 1041.75,0 0,430.012 -1041.75,0 0,-430.012 z"
         style="fill:#ffffff;fill-opacity:1;fill-rule:nonzero;stroke:none"
         id="path8441" /><path
         d="m 4070.25,3385.99 1041.75,0 0,430.012 -1041.75,0 0,-430.012 z"
         style="fill:none;stroke:#000000;stroke-opacity:1;stroke-width:10;stroke-linecap:square;stroke-linejoin:round;stroke-miterlimit:10;stroke-dasharray:none"
         id="path8443" /><path
         d="m 4171.05,3702.35 201.61,0"
         style="fill:none;stroke:#000000;stroke-opacity:1;stroke-width:10;stroke-linecap:square;stroke-linejoin:round;stroke-miterlimit:10;stroke-dasharray:none"
         id="path8445" /><path
         d="m 4171.05,3496.66 201.61,0"
         style="fill:none;stroke:#ff0000;stroke-opacity:1;stroke-width:10;stroke-linecap:square;stroke-linejoin:round;stroke-miterlimit:10;stroke-dasharray:none"
         id="path8447" /><g
         id="g8449"><g
           id="g8451"
           clip-path="url(#clipPath8453)"><g
             id="g8457"
             transform="matrix(960,0,0,-4.8,-958.92,2783.88)"><rect
               x="0"
               y="0"
               width="1"
               height="1"
               transform="matrix(1,0,0,-1,0,1)"
               style="fill:#000000;fill-opacity:1;fill-rule:nonzero"
               id="rect8459" /></g></g></g><path
         d="m 744.242,353.277 c 0,9.93 -0.605,19.621 -4.902,28.715 -4.899,9.93 -13.492,12.57 -19.344,12.57 -6.926,0 -15.402,-3.476 -19.824,-13.406 -3.34,-7.539 -4.535,-14.953 -4.535,-27.875 0,-11.605 0.836,-20.34 5.133,-28.836 4.656,-9.09 12.898,-11.965 19.105,-11.965 10.391,0 16.359,6.223 19.824,13.165 4.297,8.968 4.543,20.695 4.543,27.632 z m -24.363,-38.394 c -3.813,0 -11.551,2.152 -13.813,15.187 -1.308,7.18 -1.308,16.27 -1.308,24.641 0,9.809 0,18.66 1.902,25.715 2.024,8.015 8.098,11.734 13.219,11.734 4.523,0 11.426,-2.762 13.691,-13.051 1.551,-6.816 1.551,-16.265 1.551,-24.398 0,-8.016 0,-17.106 -1.316,-24.402 -2.262,-13.157 -9.762,-15.43 -13.926,-15.43"
         style="fill:#000000;fill-opacity:1;fill-rule:nonzero;stroke:none"
         id="path8461" /><path
         d="m 1234.8,383.504 c 5.13,-1.664 9.31,-1.785 10.62,-1.785 13.48,0 22.08,9.961 22.08,11.644 0,0.481 -0.25,1.078 -0.96,1.078 -0.24,0 -0.48,0 -1.56,-0.48 -6.68,-2.879 -12.41,-3.238 -15.52,-3.238 -7.87,0 -13.48,2.398 -15.75,3.359 -0.84,0.359 -1.08,0.359 -1.19,0.359 -0.96,0 -0.96,-0.726 -0.96,-2.64 l 0,-35.551 c 0,-2.156 0,-2.871 1.39,-2.871 0.58,0 0.69,0.117 1.85,1.543 3.36,4.867 9,7.719 14.99,7.719 6.36,0 9.48,-5.852 10.44,-7.883 2.04,-4.656 2.16,-10.504 2.16,-15.043 0,-4.535 0,-11.34 -3.35,-16.711 -2.63,-4.297 -7.3,-7.281 -12.56,-7.281 -7.9,0 -15.68,5.379 -17.83,14.101 0.6,-0.285 1.31,-0.429 1.91,-0.429 2.04,0 5.27,1.199 5.27,5.281 0,3.359 -2.28,5.281 -5.27,5.281 -2.15,0 -5.26,-1.082 -5.26,-5.738 0,-10.153 8.14,-21.735 21.43,-21.735 13.53,0 25.39,11.344 25.39,26.512 0,14.215 -9.58,26.043 -22.14,26.043 -6.81,0 -12.07,-2.965 -15.18,-6.285"
         style="fill:#000000;fill-opacity:1;fill-rule:nonzero;stroke:none"
         id="path8463" /><path
         d="m 1331.76,353.277 c 0,9.93 -0.6,19.621 -4.9,28.715 -4.9,9.93 -13.5,12.57 -19.35,12.57 -6.92,0 -15.4,-3.476 -19.82,-13.406 -3.34,-7.539 -4.54,-14.953 -4.54,-27.875 0,-11.605 0.84,-20.34 5.14,-28.836 4.66,-9.09 12.89,-11.965 19.1,-11.965 10.39,0 16.36,6.223 19.82,13.165 4.31,8.968 4.55,20.695 4.55,27.632 z m -24.36,-38.394 c -3.81,0 -11.55,2.152 -13.81,15.187 -1.31,7.18 -1.31,16.27 -1.31,24.641 0,9.809 0,18.66 1.9,25.715 2.03,8.015 8.1,11.734 13.22,11.734 4.53,0 11.43,-2.762 13.69,-13.051 1.55,-6.816 1.55,-16.265 1.55,-24.398 0,-8.016 0,-17.106 -1.31,-24.402 -2.26,-13.157 -9.76,-15.43 -13.93,-15.43"
         style="fill:#000000;fill-opacity:1;fill-rule:nonzero;stroke:none"
         id="path8465" /><path
         d="m 1782.6,391.68 c 0,2.754 0,2.882 -2.39,2.882 -2.87,-3.242 -8.85,-7.683 -21.17,-7.683 l 0,-3.481 c 2.75,0 8.71,0 15.28,3.094 l 0,-62.273 c 0,-4.305 -0.36,-5.739 -10.86,-5.739 l -3.7,0 0,-3.48 c 3.23,0.238 14.83,0.238 18.77,0.238 3.94,0 15.42,0 18.65,-0.238 l 0,3.48 -3.71,0 c -10.51,0 -10.87,1.438 -10.87,5.743"
         style="fill:#000000;fill-opacity:1;fill-rule:nonzero;stroke:none"
         id="path8467" /><path
         d="m 1860.48,353.277 c 0,9.93 -0.6,19.621 -4.9,28.715 -4.9,9.93 -13.49,12.57 -19.35,12.57 -6.92,0 -15.4,-3.476 -19.82,-13.406 -3.34,-7.539 -4.53,-14.953 -4.53,-27.875 0,-11.605 0.83,-20.34 5.13,-28.836 4.65,-9.09 12.89,-11.965 19.1,-11.965 10.39,0 16.36,6.223 19.83,13.165 4.29,8.968 4.54,20.695 4.54,27.632 z m -24.36,-38.394 c -3.81,0 -11.55,2.152 -13.81,15.187 -1.31,7.18 -1.31,16.27 -1.31,24.641 0,9.809 0,18.66 1.91,25.715 2.02,8.015 8.09,11.734 13.21,11.734 4.52,0 11.43,-2.762 13.69,-13.051 1.55,-6.816 1.55,-16.265 1.55,-24.398 0,-8.016 0,-17.106 -1.31,-24.402 -2.26,-13.157 -9.76,-15.43 -13.93,-15.43"
         style="fill:#000000;fill-opacity:1;fill-rule:nonzero;stroke:none"
         id="path8469" /><path
         d="m 1919.28,353.277 c 0,9.93 -0.6,19.621 -4.9,28.715 -4.9,9.93 -13.5,12.57 -19.35,12.57 -6.92,0 -15.4,-3.476 -19.82,-13.406 -3.34,-7.539 -4.53,-14.953 -4.53,-27.875 0,-11.605 0.83,-20.34 5.13,-28.836 4.65,-9.09 12.89,-11.965 19.1,-11.965 10.39,0 16.36,6.223 19.82,13.165 4.31,8.968 4.55,20.695 4.55,27.632 z m -24.36,-38.394 c -3.81,0 -11.55,2.152 -13.81,15.187 -1.31,7.18 -1.31,16.27 -1.31,24.641 0,9.809 0,18.66 1.9,25.715 2.03,8.015 8.1,11.734 13.22,11.734 4.53,0 11.43,-2.762 13.69,-13.051 1.55,-6.816 1.55,-16.265 1.55,-24.398 0,-8.016 0,-17.106 -1.31,-24.402 -2.26,-13.157 -9.76,-15.43 -13.93,-15.43"
         style="fill:#000000;fill-opacity:1;fill-rule:nonzero;stroke:none"
         id="path8471" /><path
         d="m 2340.6,391.68 c 0,2.754 0,2.882 -2.39,2.882 -2.87,-3.242 -8.85,-7.683 -21.17,-7.683 l 0,-3.481 c 2.75,0 8.71,0 15.28,3.094 l 0,-62.273 c 0,-4.305 -0.36,-5.739 -10.86,-5.739 l -3.7,0 0,-3.48 c 3.23,0.238 14.83,0.238 18.77,0.238 3.94,0 15.42,0 18.65,-0.238 l 0,3.48 -3.71,0 c -10.51,0 -10.87,1.438 -10.87,5.743"
         style="fill:#000000;fill-opacity:1;fill-rule:nonzero;stroke:none"
         id="path8473" /><path
         d="m 2380.32,383.504 c 5.13,-1.664 9.31,-1.785 10.62,-1.785 13.48,0 22.08,9.961 22.08,11.644 0,0.481 -0.25,1.078 -0.97,1.078 -0.23,0 -0.47,0 -1.55,-0.48 -6.68,-2.879 -12.41,-3.238 -15.52,-3.238 -7.87,0 -13.48,2.398 -15.75,3.359 -0.84,0.359 -1.08,0.359 -1.19,0.359 -0.96,0 -0.96,-0.726 -0.96,-2.64 l 0,-35.551 c 0,-2.156 0,-2.871 1.39,-2.871 0.58,0 0.69,0.117 1.85,1.543 3.36,4.867 9,7.719 14.99,7.719 6.36,0 9.48,-5.852 10.44,-7.883 2.04,-4.656 2.16,-10.504 2.16,-15.043 0,-4.535 0,-11.34 -3.35,-16.711 -2.63,-4.297 -7.29,-7.281 -12.56,-7.281 -7.9,0 -15.68,5.379 -17.83,14.101 0.6,-0.285 1.31,-0.429 1.91,-0.429 2.04,0 5.27,1.199 5.27,5.281 0,3.359 -2.28,5.281 -5.27,5.281 -2.15,0 -5.26,-1.082 -5.26,-5.738 0,-10.153 8.14,-21.735 21.43,-21.735 13.53,0 25.39,11.344 25.39,26.512 0,14.215 -9.58,26.043 -22.14,26.043 -6.81,0 -12.07,-2.965 -15.18,-6.285"
         style="fill:#000000;fill-opacity:1;fill-rule:nonzero;stroke:none"
         id="path8475" /><path
         d="m 2477.28,353.277 c 0,9.93 -0.6,19.621 -4.9,28.715 -4.9,9.93 -13.5,12.57 -19.35,12.57 -6.92,0 -15.4,-3.476 -19.82,-13.406 -3.34,-7.539 -4.53,-14.953 -4.53,-27.875 0,-11.605 0.83,-20.34 5.13,-28.836 4.65,-9.09 12.89,-11.965 19.1,-11.965 10.39,0 16.36,6.223 19.82,13.165 4.31,8.968 4.55,20.695 4.55,27.632 z m -24.36,-38.394 c -3.81,0 -11.55,2.152 -13.81,15.187 -1.31,7.18 -1.31,16.27 -1.31,24.641 0,9.809 0,18.66 1.9,25.715 2.03,8.015 8.1,11.734 13.22,11.734 4.53,0 11.43,-2.762 13.69,-13.051 1.55,-6.816 1.55,-16.265 1.55,-24.398 0,-8.016 0,-17.106 -1.31,-24.402 -2.26,-13.157 -9.76,-15.43 -13.93,-15.43"
         style="fill:#000000;fill-opacity:1;fill-rule:nonzero;stroke:none"
         id="path8477" /><path
         d="m 2916.84,335.086 -2.64,0 c -0.36,-2.027 -1.31,-8.586 -2.51,-10.492 -0.84,-1.074 -7.67,-1.074 -11.26,-1.074 l -22.16,0 c 3.23,2.753 10.54,10.406 13.66,13.273 18.2,16.742 24.91,22.961 24.91,34.801 0,13.75 -10.9,22.968 -24.78,22.968 -13.88,0 -22.02,-11.882 -22.02,-22.207 0,-6.121 5.28,-6.121 5.64,-6.121 2.52,0 5.64,1.801 5.64,5.641 0,3.363 -2.29,5.645 -5.66,5.645 -1.09,0 -1.33,0 -1.7,0 2.28,8.085 8.74,13.558 16.52,13.558 10.17,0 16.4,-8.5 16.4,-19.504 0,-10.168 -5.86,-19.019 -12.68,-26.672 l -24.16,-27.031 0,-2.871 43.68,0"
         style="fill:#000000;fill-opacity:1;fill-rule:nonzero;stroke:none"
         id="path8479" /><path
         d="m 2976.48,353.277 c 0,9.93 -0.6,19.621 -4.9,28.715 -4.9,9.93 -13.49,12.57 -19.35,12.57 -6.92,0 -15.4,-3.476 -19.82,-13.406 -3.34,-7.539 -4.53,-14.953 -4.53,-27.875 0,-11.605 0.83,-20.34 5.13,-28.836 4.65,-9.09 12.89,-11.965 19.1,-11.965 10.39,0 16.36,6.223 19.83,13.165 4.29,8.968 4.54,20.695 4.54,27.632 z m -24.36,-38.394 c -3.81,0 -11.55,2.152 -13.81,15.187 -1.31,7.18 -1.31,16.27 -1.31,24.641 0,9.809 0,18.66 1.91,25.715 2.02,8.015 8.09,11.734 13.21,11.734 4.52,0 11.43,-2.762 13.69,-13.051 1.55,-6.816 1.55,-16.265 1.55,-24.398 0,-8.016 0,-17.106 -1.31,-24.402 -2.26,-13.157 -9.76,-15.43 -13.93,-15.43"
         style="fill:#000000;fill-opacity:1;fill-rule:nonzero;stroke:none"
         id="path8481" /><path
         d="m 3035.28,353.277 c 0,9.93 -0.6,19.621 -4.9,28.715 -4.9,9.93 -13.5,12.57 -19.35,12.57 -6.92,0 -15.4,-3.476 -19.82,-13.406 -3.34,-7.539 -4.53,-14.953 -4.53,-27.875 0,-11.605 0.83,-20.34 5.13,-28.836 4.65,-9.09 12.89,-11.965 19.1,-11.965 10.39,0 16.36,6.223 19.82,13.165 4.31,8.968 4.55,20.695 4.55,27.632 z m -24.36,-38.394 c -3.81,0 -11.55,2.152 -13.81,15.187 -1.31,7.18 -1.31,16.27 -1.31,24.641 0,9.809 0,18.66 1.9,25.715 2.03,8.015 8.1,11.734 13.22,11.734 4.53,0 11.43,-2.762 13.69,-13.051 1.55,-6.816 1.55,-16.265 1.55,-24.398 0,-8.016 0,-17.106 -1.31,-24.402 -2.26,-13.157 -9.76,-15.43 -13.93,-15.43"
         style="fill:#000000;fill-opacity:1;fill-rule:nonzero;stroke:none"
         id="path8483" /><path
         d="m 3474.84,335.086 -2.64,0 c -0.36,-2.027 -1.31,-8.586 -2.51,-10.492 -0.84,-1.074 -7.67,-1.074 -11.26,-1.074 l -22.16,0 c 3.23,2.753 10.54,10.406 13.66,13.273 18.2,16.742 24.91,22.961 24.91,34.801 0,13.75 -10.9,22.968 -24.78,22.968 -13.88,0 -22.02,-11.882 -22.02,-22.207 0,-6.121 5.28,-6.121 5.64,-6.121 2.52,0 5.64,1.801 5.64,5.641 0,3.363 -2.29,5.645 -5.66,5.645 -1.09,0 -1.33,0 -1.7,0 2.28,8.085 8.74,13.558 16.52,13.558 10.17,0 16.4,-8.5 16.4,-19.504 0,-10.168 -5.86,-19.019 -12.68,-26.672 l -24.16,-27.031 0,-2.871 43.68,0"
         style="fill:#000000;fill-opacity:1;fill-rule:nonzero;stroke:none"
         id="path8485" /><path
         d="m 3496.32,383.504 c 5.13,-1.664 9.31,-1.785 10.62,-1.785 13.48,0 22.08,9.961 22.08,11.644 0,0.481 -0.25,1.078 -0.97,1.078 -0.23,0 -0.47,0 -1.55,-0.48 -6.68,-2.879 -12.41,-3.238 -15.52,-3.238 -7.87,0 -13.48,2.398 -15.75,3.359 -0.84,0.359 -1.08,0.359 -1.19,0.359 -0.96,0 -0.96,-0.726 -0.96,-2.64 l 0,-35.551 c 0,-2.156 0,-2.871 1.39,-2.871 0.58,0 0.69,0.117 1.85,1.543 3.36,4.867 9,7.719 14.99,7.719 6.36,0 9.48,-5.852 10.44,-7.883 2.04,-4.656 2.16,-10.504 2.16,-15.043 0,-4.535 0,-11.34 -3.35,-16.711 -2.63,-4.297 -7.29,-7.281 -12.56,-7.281 -7.9,0 -15.68,5.379 -17.83,14.101 0.6,-0.285 1.31,-0.429 1.91,-0.429 2.04,0 5.27,1.199 5.27,5.281 0,3.359 -2.28,5.281 -5.27,5.281 -2.15,0 -5.26,-1.082 -5.26,-5.738 0,-10.153 8.14,-21.735 21.43,-21.735 13.53,0 25.39,11.344 25.39,26.512 0,14.215 -9.58,26.043 -22.14,26.043 -6.81,0 -12.07,-2.965 -15.18,-6.285"
         style="fill:#000000;fill-opacity:1;fill-rule:nonzero;stroke:none"
         id="path8487" /><path
         d="m 3593.28,353.277 c 0,9.93 -0.6,19.621 -4.9,28.715 -4.9,9.93 -13.5,12.57 -19.35,12.57 -6.92,0 -15.4,-3.476 -19.82,-13.406 -3.34,-7.539 -4.53,-14.953 -4.53,-27.875 0,-11.605 0.83,-20.34 5.13,-28.836 4.65,-9.09 12.89,-11.965 19.1,-11.965 10.39,0 16.36,6.223 19.82,13.165 4.31,8.968 4.55,20.695 4.55,27.632 z m -24.36,-38.394 c -3.81,0 -11.55,2.152 -13.81,15.187 -1.31,7.18 -1.31,16.27 -1.31,24.641 0,9.809 0,18.66 1.9,25.715 2.03,8.015 8.1,11.734 13.22,11.734 4.53,0 11.43,-2.762 13.69,-13.051 1.55,-6.816 1.55,-16.265 1.55,-24.398 0,-8.016 0,-17.106 -1.31,-24.402 -2.26,-13.157 -9.76,-15.43 -13.93,-15.43"
         style="fill:#000000;fill-opacity:1;fill-rule:nonzero;stroke:none"
         id="path8489" /><path
         d="m 4002.13,357.957 c -2.02,-0.117 -2.5,-0.238 -2.5,-1.316 0,-1.203 0.59,-1.203 2.74,-1.203 l 5.49,0 c 10.13,0 14.66,-8.379 14.66,-19.86 0,-15.668 -8.11,-19.855 -13.96,-19.855 -5.72,0 -15.51,2.726 -18.96,10.55 3.81,-0.515 7.27,1.633 7.27,5.922 0,3.457 -2.5,5.84 -5.84,5.84 -2.87,0 -5.97,-1.672 -5.97,-6.211 0,-10.625 10.63,-19.344 23.89,-19.344 14.21,0 24.73,10.887 24.73,22.973 0,11.004 -8.84,19.617 -20.3,21.652 10.39,2.993 17.07,11.727 17.07,21.055 0,9.453 -9.79,16.399 -21.36,16.399 -11.94,0 -20.77,-7.321 -20.77,-16.079 0,-4.8 3.72,-5.757 5.52,-5.757 2.52,0 5.4,1.797 5.4,5.398 0,3.84 -2.9,5.524 -5.56,5.524 -0.72,0 -0.96,0 -1.32,0 4.53,8.035 15.73,8.035 16.33,8.035 3.93,0 11.69,-1.801 11.69,-13.52 0,-2.269 -0.36,-8.965 -3.82,-14.105 -3.58,-5.258 -7.63,-5.617 -10.85,-5.739"
         style="fill:#000000;fill-opacity:1;fill-rule:nonzero;stroke:none"
         id="path8491" /><path
         d="m 4092.48,353.277 c 0,9.93 -0.6,19.621 -4.9,28.715 -4.9,9.93 -13.49,12.57 -19.35,12.57 -6.92,0 -15.4,-3.476 -19.82,-13.406 -3.34,-7.539 -4.53,-14.953 -4.53,-27.875 0,-11.605 0.83,-20.34 5.13,-28.836 4.65,-9.09 12.89,-11.965 19.1,-11.965 10.39,0 16.36,6.223 19.83,13.165 4.29,8.968 4.54,20.695 4.54,27.632 z m -24.36,-38.394 c -3.81,0 -11.55,2.152 -13.81,15.187 -1.31,7.18 -1.31,16.27 -1.31,24.641 0,9.809 0,18.66 1.91,25.715 2.02,8.015 8.09,11.734 13.21,11.734 4.52,0 11.43,-2.762 13.69,-13.051 1.55,-6.816 1.55,-16.265 1.55,-24.398 0,-8.016 0,-17.106 -1.31,-24.402 -2.26,-13.157 -9.76,-15.43 -13.93,-15.43"
         style="fill:#000000;fill-opacity:1;fill-rule:nonzero;stroke:none"
         id="path8493" /><path
         d="m 4151.28,353.277 c 0,9.93 -0.6,19.621 -4.9,28.715 -4.9,9.93 -13.5,12.57 -19.35,12.57 -6.92,0 -15.4,-3.476 -19.82,-13.406 -3.34,-7.539 -4.53,-14.953 -4.53,-27.875 0,-11.605 0.83,-20.34 5.13,-28.836 4.65,-9.09 12.89,-11.965 19.1,-11.965 10.39,0 16.36,6.223 19.82,13.165 4.31,8.968 4.55,20.695 4.55,27.632 z m -24.36,-38.394 c -3.81,0 -11.55,2.152 -13.81,15.187 -1.31,7.18 -1.31,16.27 -1.31,24.641 0,9.809 0,18.66 1.9,25.715 2.03,8.015 8.1,11.734 13.22,11.734 4.53,0 11.43,-2.762 13.69,-13.051 1.55,-6.816 1.55,-16.265 1.55,-24.398 0,-8.016 0,-17.106 -1.31,-24.402 -2.26,-13.157 -9.76,-15.43 -13.93,-15.43"
         style="fill:#000000;fill-opacity:1;fill-rule:nonzero;stroke:none"
         id="path8495" /><path
         d="m 4560.13,357.957 c -2.02,-0.117 -2.5,-0.238 -2.5,-1.316 0,-1.203 0.59,-1.203 2.74,-1.203 l 5.49,0 c 10.13,0 14.66,-8.379 14.66,-19.86 0,-15.668 -8.11,-19.855 -13.96,-19.855 -5.72,0 -15.51,2.726 -18.96,10.55 3.81,-0.515 7.27,1.633 7.27,5.922 0,3.457 -2.5,5.84 -5.84,5.84 -2.87,0 -5.97,-1.672 -5.97,-6.211 0,-10.625 10.63,-19.344 23.89,-19.344 14.21,0 24.73,10.887 24.73,22.973 0,11.004 -8.84,19.617 -20.3,21.652 10.39,2.993 17.07,11.727 17.07,21.055 0,9.453 -9.79,16.399 -21.36,16.399 -11.94,0 -20.77,-7.321 -20.77,-16.079 0,-4.8 3.72,-5.757 5.52,-5.757 2.52,0 5.4,1.797 5.4,5.398 0,3.84 -2.9,5.524 -5.56,5.524 -0.72,0 -0.96,0 -1.32,0 4.53,8.035 15.73,8.035 16.33,8.035 3.93,0 11.69,-1.801 11.69,-13.52 0,-2.269 -0.36,-8.965 -3.82,-14.105 -3.58,-5.258 -7.63,-5.617 -10.85,-5.739"
         style="fill:#000000;fill-opacity:1;fill-rule:nonzero;stroke:none"
         id="path8497" /><path
         d="m 4612.32,383.504 c 5.13,-1.664 9.31,-1.785 10.62,-1.785 13.48,0 22.08,9.961 22.08,11.644 0,0.481 -0.25,1.078 -0.96,1.078 -0.24,0 -0.48,0 -1.56,-0.48 -6.68,-2.879 -12.41,-3.238 -15.52,-3.238 -7.87,0 -13.48,2.398 -15.75,3.359 -0.84,0.359 -1.08,0.359 -1.19,0.359 -0.96,0 -0.96,-0.726 -0.96,-2.64 l 0,-35.551 c 0,-2.156 0,-2.871 1.39,-2.871 0.58,0 0.69,0.117 1.85,1.543 3.36,4.867 9,7.719 14.99,7.719 6.36,0 9.48,-5.852 10.44,-7.883 2.04,-4.656 2.16,-10.504 2.16,-15.043 0,-4.535 0,-11.34 -3.35,-16.711 -2.63,-4.297 -7.29,-7.281 -12.56,-7.281 -7.9,0 -15.68,5.379 -17.83,14.101 0.6,-0.285 1.31,-0.429 1.91,-0.429 2.04,0 5.27,1.199 5.27,5.281 0,3.359 -2.28,5.281 -5.27,5.281 -2.15,0 -5.26,-1.082 -5.26,-5.738 0,-10.153 8.14,-21.735 21.43,-21.735 13.53,0 25.39,11.344 25.39,26.512 0,14.215 -9.58,26.043 -22.14,26.043 -6.81,0 -12.07,-2.965 -15.18,-6.285"
         style="fill:#000000;fill-opacity:1;fill-rule:nonzero;stroke:none"
         id="path8499" /><path
         d="m 4709.28,353.277 c 0,9.93 -0.6,19.621 -4.9,28.715 -4.9,9.93 -13.5,12.57 -19.35,12.57 -6.92,0 -15.4,-3.476 -19.82,-13.406 -3.34,-7.539 -4.53,-14.953 -4.53,-27.875 0,-11.605 0.83,-20.34 5.13,-28.836 4.65,-9.09 12.89,-11.965 19.1,-11.965 10.39,0 16.36,6.223 19.82,13.165 4.31,8.968 4.55,20.695 4.55,27.632 z m -24.36,-38.394 c -3.81,0 -11.55,2.152 -13.81,15.187 -1.31,7.18 -1.31,16.27 -1.31,24.641 0,9.809 0,18.66 1.9,25.715 2.03,8.015 8.1,11.734 13.22,11.734 4.53,0 11.43,-2.762 13.69,-13.051 1.55,-6.816 1.55,-16.265 1.55,-24.398 0,-8.016 0,-17.106 -1.31,-24.402 -2.26,-13.157 -9.76,-15.43 -13.93,-15.43"
         style="fill:#000000;fill-opacity:1;fill-rule:nonzero;stroke:none"
         id="path8501" /><path
         d="m 5139.36,392.758 c 0,2.269 0,2.879 -1.68,2.879 -0.96,0 -1.32,0 -2.28,-1.446 l -36.01,-55.789 0,-3.48 31.45,0 0,-10.844 c 0,-4.406 -0.25,-5.598 -8.97,-5.598 l -2.39,0 0,-3.48 c 2.75,0.238 12.19,0.238 15.54,0.238 3.35,0 12.91,0 15.66,-0.238 l 0,3.48 -2.38,0 c -8.58,0 -8.94,1.192 -8.94,5.598 l 0,10.844 12.04,0 0,3.48 -12.04,0 0,54.356 z m -7.92,-9.254 0,-45.102 -29.06,0"
         style="fill:#000000;fill-opacity:1;fill-rule:nonzero;stroke:none"
         id="path8503" /><path
         d="m 5208.48,353.277 c 0,9.93 -0.6,19.621 -4.9,28.715 -4.9,9.93 -13.5,12.57 -19.35,12.57 -6.92,0 -15.4,-3.476 -19.82,-13.406 -3.34,-7.539 -4.53,-14.953 -4.53,-27.875 0,-11.605 0.83,-20.34 5.13,-28.836 4.65,-9.09 12.89,-11.965 19.1,-11.965 10.39,0 16.36,6.223 19.83,13.165 4.29,8.968 4.54,20.695 4.54,27.632 z m -24.36,-38.394 c -3.81,0 -11.55,2.152 -13.81,15.187 -1.31,7.18 -1.31,16.27 -1.31,24.641 0,9.809 0,18.66 1.91,25.715 2.02,8.015 8.09,11.734 13.21,11.734 4.52,0 11.43,-2.762 13.69,-13.051 1.55,-6.816 1.55,-16.265 1.55,-24.398 0,-8.016 0,-17.106 -1.31,-24.402 -2.26,-13.157 -9.76,-15.43 -13.93,-15.43"
         style="fill:#000000;fill-opacity:1;fill-rule:nonzero;stroke:none"
         id="path8505" /><path
         d="m 5267.28,353.277 c 0,9.93 -0.6,19.621 -4.9,28.715 -4.9,9.93 -13.5,12.57 -19.35,12.57 -6.92,0 -15.4,-3.476 -19.82,-13.406 -3.34,-7.539 -4.53,-14.953 -4.53,-27.875 0,-11.605 0.83,-20.34 5.13,-28.836 4.65,-9.09 12.89,-11.965 19.1,-11.965 10.39,0 16.36,6.223 19.82,13.165 4.31,8.968 4.55,20.695 4.55,27.632 z m -24.36,-38.394 c -3.81,0 -11.55,2.152 -13.81,15.187 -1.31,7.18 -1.31,16.27 -1.31,24.641 0,9.809 0,18.66 1.9,25.715 2.03,8.015 8.1,11.734 13.22,11.734 4.53,0 11.43,-2.762 13.69,-13.051 1.55,-6.816 1.55,-16.265 1.55,-24.398 0,-8.016 0,-17.106 -1.31,-24.402 -2.26,-13.157 -9.76,-15.43 -13.93,-15.43"
         style="fill:#000000;fill-opacity:1;fill-rule:nonzero;stroke:none"
         id="path8507" /><path
         d="m 2515.92,265.559 -20.65,-1.321 0,-5.16 4.21,0 c 4.44,0 5.16,-0.848 5.16,-5.984 l 0,-46.473 c 0,-16.008 -0.61,-23.773 -2.19,-30.824 l 4.54,0 5.86,9.336 c 4.9,-6.379 10.51,-9.336 17.92,-9.336 14.71,0 25.71,12.762 25.71,29.937 0,17.172 -10.02,29.227 -24.34,29.227 -7.27,0 -11.69,-2.504 -16.22,-9.301 l 0,39.899 z m 13.99,-36.719 c 8.95,0 13.97,-8.699 13.97,-24.301 0,-15.004 -4.9,-23.578 -13.61,-23.578 -9.42,0 -15.03,8.691 -15.03,23.34 0,15.84 5.13,24.539 14.67,24.539"
         style="fill:#000000;fill-opacity:1;fill-rule:nonzero;stroke:none"
         id="path8509" /><path
         d="m 2609.52,176.645 21.82,0.835 0,5.161 -3,0 c -6.58,0 -7.54,1.074 -7.54,8.718 l 0,41.801 -22.46,-1.32 0,-5.164 6.07,0 c 4.39,0 5.11,-0.84 5.11,-5.969 l 0,-14.68 c 0,-6.8 -0.72,-10.738 -2.51,-14.675 -2.51,-5.25 -7.28,-8.352 -13.13,-8.352 -3.71,0 -6.81,1.312 -8.36,3.703 -1.56,2.27 -1.79,3.461 -1.79,10.031 l 0,36.426 -20.89,-1.32 0,-5.164 4.5,0 c 4.39,0 5.11,-0.848 5.11,-5.981 l 0,-25.793 c 0,-6.09 0.47,-8.836 2.26,-11.582 3.23,-4.894 8.97,-7.64 16.15,-7.64 7.89,0 13.39,3.226 18.66,10.886"
         style="fill:#000000;fill-opacity:1;fill-rule:nonzero;stroke:none"
         id="path8511" /><path
         d="m 2657.2,233.16 -21.16,-1.32 0,-5.164 4.9,0 c 4.42,0 5.14,-0.836 5.14,-5.969 l 0,-33.297 c 0,-4.773 -1.32,-5.609 -9.09,-5.609 l -0.47,0 0,-4.321 31.91,0 0,4.321 -2.27,0 c -7.65,0 -8.96,0.836 -8.96,5.613 l 0,5.973 c 0,8.957 1.67,18.031 4.66,24.84 2.87,6.687 6.93,10.39 11.95,10.988 -1.67,-1.91 -2.15,-3.106 -2.15,-5.375 0,-3.82 2.75,-6.567 6.58,-6.567 4.3,0 7.29,3.223 7.29,8.122 0,5.73 -4.07,9.566 -10.4,9.566 -7.54,0 -14.11,-6.09 -17.93,-16.594"
         style="fill:#000000;fill-opacity:1;fill-rule:nonzero;stroke:none"
         id="path8513" /><path
         d="m 2710.2,233.16 -20.65,-1.32 0,-5.164 4.27,0 c 4.39,0 5.1,-0.836 5.1,-5.969 l 0,-33.297 c 0,-4.773 -1.31,-5.609 -8.9,-5.609 l -0.47,0 0,-4.321 30.24,0 0,4.321 -0.48,0 c -7.79,0 -9.11,0.836 -9.11,5.609 l 0,17.184 c 0,5.847 0.84,11.218 2.15,13.965 2.51,5.371 7.88,9.082 13.02,9.082 3.1,0 6.68,-1.801 8.48,-4.188 1.79,-2.508 2.63,-6.207 2.63,-11.933 l 0,-24.11 c 0,-4.773 -1.31,-5.609 -9.04,-5.609 l -0.48,0 0,-4.321 30.25,0 0,4.321 -0.48,0 c -7.66,0 -8.97,0.836 -8.97,5.613 l 0,23.527 c 0,8.602 -0.37,10.75 -2.52,14.813 -2.99,5.73 -9.09,9.207 -16.14,9.207 -7.66,0 -13.64,-3.578 -18.9,-11.453"
         style="fill:#000000;fill-opacity:1;fill-rule:nonzero;stroke:none"
         id="path8515" /><path
         d="m 2816.28,233.16 0,23.703 -4.9,0 c -1.19,-15.57 -6.44,-23.472 -16.11,-24.191 l 0,-4.672 9.73,0 0,-30.465 c 0,-8.359 0.24,-11.344 1.43,-14.094 1.92,-5.015 6.71,-7.761 13.66,-7.761 4.68,0 8.75,1.433 11.5,4.066 3.96,3.824 6.24,10.164 6.24,16.738 0,0.719 0,1.555 -0.13,2.754 l -5.02,0 c -0.36,-10.746 -3.47,-16.238 -9.34,-16.238 -2.75,0 -5.14,1.43 -5.98,3.461 -0.72,1.672 -1.08,4.656 -1.08,8.949 l 0,32.59 17.61,0 0,5.16"
         style="fill:#000000;fill-opacity:1;fill-rule:nonzero;stroke:none"
         id="path8517" /><path
         d="m 2864.52,233.16 -22.45,-1.32 0,-5.164 6.06,0 c 4.39,0 5.11,-0.836 5.11,-5.969 l 0,-33.297 c 0,-4.773 -1.31,-5.609 -8.9,-5.609 l -0.83,0 0,-4.321 30.96,0 0,4.321 -0.84,0 c -7.79,0 -9.11,0.836 -9.11,5.613 l 0,4.777 0,40.969 z m -5.64,29.883 c -3.84,0 -6.96,-3.121 -6.96,-6.965 0,-3.719 3.12,-6.961 6.84,-6.961 3.96,0 7.08,3.121 7.08,6.961 0,3.844 -3.12,6.965 -6.96,6.965"
         style="fill:#000000;fill-opacity:1;fill-rule:nonzero;stroke:none"
         id="path8519" /><path
         d="m 2901.12,233.16 -21.25,-1.32 0,-5.164 4.86,0 c 4.39,0 5.11,-0.836 5.11,-5.969 l 0,-33.176 c 0,-4.894 -1.3,-5.73 -8.9,-5.73 l -0.47,0 0,-4.321 30.12,0 0,4.321 -0.48,0 c -7.67,0 -8.99,0.836 -8.99,5.73 l 0,21.602 c 0,10.621 5.85,18.508 13.61,18.508 3.11,0 6.45,-1.684 7.88,-3.95 1.68,-2.265 2.39,-5.726 2.39,-10.621 l 0,-25.66 c 0,-4.773 -1.31,-5.609 -9.03,-5.609 l -0.47,0 0,-4.321 30.24,0 0,4.321 -0.48,0 c -7.66,0 -8.98,0.836 -8.98,5.609 l 0,20.645 c 0,11.937 5.37,19.586 13.73,19.586 3.94,0 7.16,-2.282 8.71,-5.981 1.07,-2.621 1.44,-5.25 1.44,-9.902 l 0,-24.348 c 0,-4.773 -1.31,-5.609 -9.04,-5.609 l -0.48,0 0,-4.321 30.25,0 0,4.321 -0.48,0 c -7.66,0 -8.97,0.836 -8.97,5.734 l 0,26.633 c 0,7.406 -0.73,9.914 -3.83,13.973 -3.47,4.418 -8.38,6.82 -14.11,6.82 -7.78,0 -13.52,-3.699 -18.66,-11.93 -2.03,7.157 -8.49,11.93 -16.5,11.93 -7.18,0 -12.56,-3.461 -17.22,-10.977"
         style="fill:#000000;fill-opacity:1;fill-rule:nonzero;stroke:none"
         id="path8521" /><path
         d="m 3039.52,204.359 c 0.12,17.926 -10.05,30.602 -24.63,30.602 -15.3,0 -26.78,-13.277 -26.78,-31.203 0,-16.727 10.88,-28.082 27.02,-28.082 11.35,0 19.48,5.621 24.39,16.98 l -4.19,2.278 c -4.9,-9.196 -9.92,-12.774 -17.93,-12.774 -6.1,0 -10.52,2.625 -13.63,7.875 -2.15,3.582 -3.11,7.758 -2.99,14.324 l 38.74,0 z m -38.62,5.161 c 0,3.699 0.48,6.32 1.67,9.664 2.52,7.156 6.34,10.617 12.08,10.617 7.29,0 12.07,-6.324 12.07,-15.867 0,-3.461 -1.07,-4.414 -4.9,-4.414"
         style="fill:#000000;fill-opacity:1;fill-rule:nonzero;stroke:none"
         id="path8523" /><path
         d="m 3095.04,168.836 0,90.48 16.78,0 0,4.442 -27.58,0 0,-99.242 27.58,0 0,4.32"
         style="fill:#000000;fill-opacity:1;fill-rule:nonzero;stroke:none"
         id="path8525" /><path
         d="m 3161.28,176.645 20.88,0.835 0,5.161 -2.16,0 c -6.48,0 -7.44,1.195 -7.44,8.722 l 0,74.196 -23.4,-1.321 0,-5.16 7.01,0 c 4.28,0 5.11,-0.844 5.11,-5.973 l 0,-26.964 c -4.42,6.078 -9.54,8.824 -16.46,8.824 -13.48,0 -23.73,-13.039 -23.73,-30.246 0,-16.969 9.89,-29.039 23.73,-29.039 7.51,0 12.64,3.23 16.46,10.41 l 0,-9.445 z m -13.98,51.835 c 4.9,0 9.56,-3.582 11.7,-9.074 1.44,-3.582 2.27,-8.594 2.27,-14.324 0,-13.848 -5.49,-22.922 -14.09,-22.922 -8.36,0 -13.5,7.879 -13.5,21.129 0,7.043 0.72,12.414 2.27,16.477 2.03,5.25 6.45,8.714 11.35,8.714"
         style="fill:#000000;fill-opacity:1;fill-rule:nonzero;stroke:none"
         id="path8527" /><path
         d="m 3238.32,215.973 c 0,7.523 -1.32,11.343 -4.78,14.211 -3.94,3.105 -9.79,4.777 -17.43,4.777 -13.36,0 -23.27,-6.332 -23.27,-14.93 0,-4.535 2.74,-7.402 6.91,-7.402 3.7,0 6.45,2.504 6.45,6.082 0,1.551 -0.58,3.219 -1.75,4.887 -0.7,0.836 -0.81,1.191 -0.81,1.55 0,2.504 4.87,4.653 10.57,4.653 3.68,0 7.84,-1.199 9.74,-2.989 2.25,-1.914 3.09,-4.781 3.09,-10.156 l 0,-4.66 c -12.52,-2.148 -16.34,-3.105 -22.18,-5.375 -10.25,-3.824 -15.26,-9.437 -15.26,-16.961 0,-8.484 6.83,-13.98 17.36,-13.98 8.25,0 15.68,3.351 20.83,9.453 1.91,-6.098 4.9,-8.488 10.53,-8.488 5.34,0 10.92,3.539 10.92,7.082 0,0.718 -0.6,1.316 -1.2,1.316 -0.49,0 -0.96,-0.121 -1.8,-0.481 -1.92,-0.714 -2.4,-0.835 -3.36,-0.835 -3.36,0 -4.56,2.269 -4.56,8.242 l 0,24.004 z m -11.28,-14.578 c 0,-7.168 -0.36,-8.84 -2.38,-11.946 -2.97,-4.422 -8.44,-7.406 -13.55,-7.406 -5.34,0 -9.38,3.941 -9.38,9.316 0,5.016 2.49,8.602 7.72,11.11 3.68,1.672 8.32,2.867 17.59,4.422"
         style="fill:#000000;fill-opacity:1;fill-rule:nonzero;stroke:none"
         id="path8529" /><path
         d="m 3284.99,192.664 -13.15,30.695 c -0.48,1.075 -0.72,1.911 -0.72,2.508 0,2.149 1.43,2.985 5.5,2.985 l 2.51,0 0,4.308 -28.45,0 0,-4.305 1.31,0 c 3.83,0 5.98,-1.671 8.13,-6.449 l 19.49,-44.062 -2.03,-4.176 c -4.29,-9.074 -9.9,-15.406 -13.71,-15.406 -1.07,0 -1.91,0.476 -1.91,1.191 0,0.238 0.12,0.594 0.23,1.07 0.34,1.071 0.56,2.141 0.56,3.094 0,3.094 -2.63,5.356 -6.09,5.356 -4.19,0 -7.18,-3.106 -7.18,-7.403 0,-5.25 4.66,-9.183 10.88,-9.183 6.34,0 11.72,3.105 16.5,9.551 3.71,5.019 6.1,9.792 11.35,23.05 l 13.63,33.684 c 2.99,7.285 5.5,9.672 10.05,9.672 l 0.72,0 0,4.32 -23.91,0 0,-4.312 1.91,0 c 4.54,0 6.45,-1.313 6.45,-4.418 0,-1.196 -0.35,-2.746 -1.19,-4.778"
         style="fill:#000000;fill-opacity:1;fill-rule:nonzero;stroke:none"
         id="path8531" /><path
         d="m 3359.34,234.477 -4.19,0 -3.46,-4.274 c -4.3,3.332 -8.6,4.758 -14.58,4.758 -10.51,0 -17.44,-6.934 -17.44,-17.328 0,-4.656 1.56,-8.602 4.19,-10.988 2.75,-2.512 5.5,-3.704 12.67,-5.375 l 6.34,-1.438 c 9.45,-2.27 12.8,-4.656 12.8,-9.434 0,-5.617 -4.9,-9.558 -11.96,-9.558 -10.06,0 -17.24,6.453 -20.11,18.398 l -4.79,0 0,-22.601 4.19,0 4.2,4.902 c 4.91,-3.949 10.41,-5.859 16.4,-5.859 11.73,0 19.51,7.285 19.51,18.394 0,5.258 -1.68,9.321 -5.03,12.067 -2.87,2.511 -5.26,3.464 -12.55,5.019 l -5.98,1.313 c -6.58,1.433 -6.58,1.433 -8.73,2.629 -2.63,1.195 -4.18,3.703 -4.18,6.332 0,4.777 4.53,8.246 11.09,8.246 4.54,0 8.24,-1.551 11.58,-4.766 2.63,-2.621 3.94,-5.004 5.85,-10.484 l 4.18,0"
         style="fill:#000000;fill-opacity:1;fill-rule:nonzero;stroke:none"
         id="path8533" /><path
         d="m 3388.92,259.438 0,-90.481 -16.69,0 0,-4.441 27.49,0 0,99.242 -27.49,0 0,-4.32"
         style="fill:#000000;fill-opacity:1;fill-rule:nonzero;stroke:none"
         id="path8535" /><path
         d="m 466.922,431.758 c 0,9.93 -0.606,19.621 -4.902,28.715 -4.895,9.929 -13.493,12.57 -19.344,12.57 -6.926,0 -15.403,-3.477 -19.821,-13.406 -3.343,-7.539 -4.539,-14.957 -4.539,-27.875 0,-11.606 0.836,-20.34 5.137,-28.836 4.652,-9.09 12.895,-11.965 19.102,-11.965 10.39,0 16.359,6.223 19.824,13.16 4.297,8.973 4.543,20.699 4.543,27.637 z m -24.363,-38.395 c -3.813,0 -11.551,2.153 -13.813,15.188 -1.308,7.179 -1.308,16.269 -1.308,24.64 0,9.809 0,18.661 1.906,25.715 2.019,8.016 8.094,11.735 13.215,11.735 4.523,0 11.429,-2.762 13.691,-13.051 1.551,-6.817 1.551,-16.266 1.551,-24.399 0,-8.015 0,-17.105 -1.317,-24.402 -2.261,-13.156 -9.761,-15.43 -13.925,-15.43"
         style="fill:#000000;fill-opacity:1;fill-rule:nonzero;stroke:none"
         id="path8537" /><path
         d="m 494.16,399.242 c 0,3.481 -2.879,5.879 -5.762,5.879 -3.48,0 -5.878,-2.879 -5.878,-5.762 0,-3.476 2.878,-5.879 5.757,-5.879 3.485,0 5.883,2.879 5.883,5.762"
         style="fill:#000000;fill-opacity:1;fill-rule:nonzero;stroke:none"
         id="path8539" /><path
         d="m 558.121,431.758 c 0,9.93 -0.601,19.621 -4.902,28.715 -4.895,9.929 -13.492,12.57 -19.344,12.57 -6.926,0 -15.402,-3.477 -19.82,-13.406 -3.344,-7.539 -4.539,-14.957 -4.539,-27.875 0,-11.606 0.836,-20.34 5.136,-28.836 4.657,-9.09 12.895,-11.965 19.106,-11.965 10.387,0 16.355,6.223 19.82,13.16 4.297,8.973 4.547,20.699 4.547,27.637 l -0.004,0 z m -24.363,-38.395 c -3.809,0 -11.551,2.153 -13.813,15.188 -1.308,7.179 -1.308,16.269 -1.308,24.64 0,9.809 0,18.661 1.906,25.715 2.023,8.016 8.094,11.735 13.215,11.735 4.523,0 11.43,-2.762 13.691,-13.051 C 549,450.773 549,441.324 549,433.191 c 0,-8.015 0,-17.105 -1.312,-24.402 -2.262,-13.156 -9.766,-15.43 -13.93,-15.43"
         style="fill:#000000;fill-opacity:1;fill-rule:nonzero;stroke:none"
         id="path8541" /><path
         d="m 616.078,413.562 -2.637,0 c -0.359,-2.023 -1.316,-8.582 -2.515,-10.488 C 610.09,402 603.262,402 599.668,402 l -22.16,0 c 3.234,2.75 10.539,10.406 13.656,13.273 18.207,16.743 24.914,22.961 24.914,34.797 0,13.754 -10.894,22.973 -24.777,22.973 -13.883,0 -22.02,-11.883 -22.02,-22.207 0,-6.121 5.281,-6.121 5.641,-6.121 2.519,0 5.64,1.801 5.64,5.64 0,3.36 -2.292,5.641 -5.667,5.641 -1.086,0 -1.329,0 -1.688,0 2.27,8.09 8.734,13.563 16.512,13.563 10.172,0 16.398,-8.5 16.398,-19.504 0,-10.168 -5.863,-19.02 -12.679,-26.672 l -24.157,-27.035 0,-2.868 43.68,0"
         style="fill:#000000;fill-opacity:1;fill-rule:nonzero;stroke:none"
         id="path8543" /><path
         d="m 657.828,436.664 c 6.004,3.231 14.777,8.734 14.777,18.781 0,10.41 -10.058,17.598 -21.07,17.598 -11.851,0 -21.187,-8.742 -21.187,-19.629 0,-4.066 1.199,-8.137 4.55,-12.203 1.317,-1.555 1.434,-1.676 9.813,-7.539 -11.609,-5.383 -17.594,-13.399 -17.594,-22.133 0,-12.68 12.071,-20.578 24.258,-20.578 13.262,0 24.383,9.812 24.383,22.375 0,12.203 -8.606,17.586 -17.93,23.328 z m -16.25,10.746 c -1.558,1.078 -6.348,4.192 -6.348,10.059 0,7.781 8.141,12.691 16.165,12.691 8.621,0 16.289,-6.226 16.289,-14.848 0,-7.304 -5.274,-13.171 -12.219,-17 l -13.887,9.098 z m 5.629,-15.433 14.453,-9.446 c 3.106,-2.035 8.598,-5.738 8.598,-13.031 0,-9.082 -9.196,-15.297 -18.75,-15.297 -10.153,0 -18.871,7.41 -18.871,17.328 0,9.324 6.808,16.856 14.57,20.446"
         style="fill:#000000;fill-opacity:1;fill-rule:nonzero;stroke:none"
         id="path8545" /><path
         d="m 466.922,815.758 c 0,9.93 -0.606,19.621 -4.902,28.715 -4.895,9.929 -13.493,12.57 -19.344,12.57 -6.926,0 -15.403,-3.477 -19.821,-13.406 -3.343,-7.539 -4.539,-14.953 -4.539,-27.875 0,-11.606 0.836,-20.34 5.137,-28.836 4.652,-9.09 12.895,-11.965 19.102,-11.965 10.39,0 16.359,6.223 19.824,13.16 4.297,8.973 4.543,20.699 4.543,27.637 z m -24.363,-38.395 c -3.813,0 -11.551,2.153 -13.813,15.188 -1.308,7.179 -1.308,16.269 -1.308,24.64 0,9.809 0,18.661 1.906,25.715 2.019,8.016 8.094,11.735 13.215,11.735 4.523,0 11.429,-2.762 13.691,-13.051 1.551,-6.817 1.551,-16.266 1.551,-24.399 0,-8.015 0,-17.105 -1.317,-24.402 -2.261,-13.156 -9.761,-15.43 -13.925,-15.43"
         style="fill:#000000;fill-opacity:1;fill-rule:nonzero;stroke:none"
         id="path8547" /><path
         d="m 494.16,783.242 c 0,3.481 -2.879,5.879 -5.762,5.879 -3.48,0 -5.878,-2.879 -5.878,-5.762 0,-3.476 2.878,-5.879 5.757,-5.879 3.485,0 5.883,2.879 5.883,5.762"
         style="fill:#000000;fill-opacity:1;fill-rule:nonzero;stroke:none"
         id="path8549" /><path
         d="m 558.121,815.758 c 0,9.93 -0.601,19.621 -4.902,28.715 -4.895,9.929 -13.492,12.57 -19.344,12.57 -6.926,0 -15.402,-3.477 -19.82,-13.406 -3.344,-7.539 -4.539,-14.953 -4.539,-27.875 0,-11.606 0.836,-20.34 5.136,-28.836 4.657,-9.09 12.895,-11.965 19.106,-11.965 10.387,0 16.355,6.223 19.82,13.16 4.297,8.973 4.547,20.699 4.547,27.637 l -0.004,0 z m -24.363,-38.395 c -3.809,0 -11.551,2.153 -13.813,15.188 -1.308,7.179 -1.308,16.269 -1.308,24.64 0,9.809 0,18.661 1.906,25.715 2.023,8.016 8.094,11.735 13.215,11.735 4.523,0 11.43,-2.762 13.691,-13.051 C 549,834.773 549,825.324 549,817.191 c 0,-8.015 0,-17.105 -1.312,-24.402 -2.262,-13.156 -9.766,-15.43 -13.93,-15.43"
         style="fill:#000000;fill-opacity:1;fill-rule:nonzero;stroke:none"
         id="path8551" /><path
         d="m 585.371,820.438 c -2.027,-0.118 -2.504,-0.239 -2.504,-1.321 0,-1.199 0.594,-1.199 2.742,-1.199 l 5.485,0 c 10.136,0 14.668,-8.379 14.668,-19.859 0,-15.668 -8.114,-19.856 -13.961,-19.856 -5.723,0 -15.508,2.727 -18.965,10.551 3.816,-0.516 7.273,1.633 7.273,5.922 0,3.453 -2.504,5.84 -5.843,5.84 -2.864,0 -5.965,-1.672 -5.965,-6.211 0,-10.625 10.629,-19.344 23.887,-19.344 14.214,0 24.734,10.887 24.734,22.973 0,11.004 -8.84,19.617 -20.297,21.652 10.383,2.992 17.066,11.726 17.066,21.055 0,9.453 -9.789,16.398 -21.367,16.398 -11.933,0 -20.765,-7.32 -20.765,-16.078 0,-4.801 3.722,-5.758 5.523,-5.758 2.52,0 5.398,1.797 5.398,5.399 0,3.839 -2.898,5.523 -5.558,5.523 -0.723,0 -0.965,0 -1.328,0 4.531,8.035 15.738,8.035 16.336,8.035 3.933,0 11.683,-1.801 11.683,-13.519 0,-2.27 -0.359,-8.965 -3.816,-14.106 -3.574,-5.262 -7.629,-5.617 -10.848,-5.738"
         style="fill:#000000;fill-opacity:1;fill-rule:nonzero;stroke:none"
         id="path8553" /><path
         d="m 675.723,815.758 c 0,9.93 -0.606,19.621 -4.903,28.715 -4.898,9.929 -13.492,12.57 -19.343,12.57 -6.926,0 -15.407,-3.477 -19.825,-13.406 -3.343,-7.539 -4.535,-14.953 -4.535,-27.875 0,-11.606 0.836,-20.34 5.133,-28.836 4.656,-9.09 12.895,-11.965 19.105,-11.965 10.391,0 16.36,6.223 19.825,13.16 4.297,8.973 4.543,20.699 4.543,27.637 z m -24.364,-38.395 c -3.812,0 -11.55,2.153 -13.812,15.188 -1.309,7.179 -1.309,16.269 -1.309,24.64 0,9.809 0,18.661 1.903,25.715 2.023,8.016 8.097,11.735 13.218,11.735 4.524,0 11.426,-2.762 13.688,-13.051 1.555,-6.817 1.555,-16.266 1.555,-24.399 0,-8.015 0,-17.105 -1.317,-24.402 -2.262,-13.156 -9.762,-15.43 -13.926,-15.43"
         style="fill:#000000;fill-opacity:1;fill-rule:nonzero;stroke:none"
         id="path8555" /><path
         d="m 466.922,1199.76 c 0,9.93 -0.606,19.62 -4.902,28.71 -4.895,9.93 -13.493,12.57 -19.344,12.57 -6.926,0 -15.403,-3.47 -19.821,-13.4 -3.343,-7.54 -4.539,-14.96 -4.539,-27.88 0,-11.6 0.836,-20.34 5.137,-28.83 4.652,-9.09 12.895,-11.97 19.102,-11.97 10.39,0 16.359,6.22 19.824,13.16 4.297,8.97 4.543,20.7 4.543,27.64 z m -24.363,-38.4 c -3.813,0 -11.551,2.16 -13.813,15.19 -1.308,7.18 -1.308,16.27 -1.308,24.64 0,9.81 0,18.66 1.906,25.72 2.019,8.01 8.094,11.73 13.215,11.73 4.523,0 11.429,-2.76 13.691,-13.05 1.551,-6.82 1.551,-16.27 1.551,-24.4 0,-8.01 0,-17.1 -1.317,-24.4 -2.261,-13.16 -9.761,-15.43 -13.925,-15.43"
         style="fill:#000000;fill-opacity:1;fill-rule:nonzero;stroke:none"
         id="path8557" /><path
         d="m 494.16,1167.24 c 0,3.48 -2.879,5.88 -5.762,5.88 -3.48,0 -5.878,-2.88 -5.878,-5.76 0,-3.48 2.878,-5.88 5.757,-5.88 3.485,0 5.883,2.88 5.883,5.76"
         style="fill:#000000;fill-opacity:1;fill-rule:nonzero;stroke:none"
         id="path8559" /><path
         d="m 558.121,1199.76 c 0,9.93 -0.601,19.62 -4.902,28.71 -4.895,9.93 -13.492,12.57 -19.344,12.57 -6.926,0 -15.402,-3.47 -19.82,-13.4 -3.344,-7.54 -4.539,-14.96 -4.539,-27.88 0,-11.6 0.836,-20.34 5.136,-28.83 4.657,-9.09 12.895,-11.97 19.106,-11.97 10.387,0 16.355,6.22 19.82,13.16 4.297,8.97 4.547,20.7 4.547,27.64 l -0.004,0 z m -24.363,-38.4 c -3.809,0 -11.551,2.16 -13.813,15.19 -1.308,7.18 -1.308,16.27 -1.308,24.64 0,9.81 0,18.66 1.906,25.72 2.023,8.01 8.094,11.73 13.215,11.73 4.523,0 11.43,-2.76 13.691,-13.05 1.551,-6.82 1.551,-16.27 1.551,-24.4 0,-8.01 0,-17.1 -1.312,-24.4 -2.262,-13.16 -9.766,-15.43 -13.93,-15.43"
         style="fill:#000000;fill-opacity:1;fill-rule:nonzero;stroke:none"
         id="path8561" /><path
         d="m 585.371,1204.44 c -2.027,-0.12 -2.504,-0.24 -2.504,-1.32 0,-1.2 0.594,-1.2 2.742,-1.2 l 5.485,0 c 10.136,0 14.668,-8.38 14.668,-19.86 0,-15.67 -8.114,-19.86 -13.961,-19.86 -5.723,0 -15.508,2.73 -18.965,10.55 3.816,-0.51 7.273,1.64 7.273,5.93 0,3.45 -2.504,5.84 -5.843,5.84 -2.864,0 -5.965,-1.68 -5.965,-6.22 0,-10.62 10.629,-19.34 23.887,-19.34 14.214,0 24.734,10.89 24.734,22.97 0,11.01 -8.84,19.62 -20.297,21.66 10.383,2.99 17.066,11.72 17.066,21.05 0,9.45 -9.789,16.4 -21.367,16.4 -11.933,0 -20.765,-7.32 -20.765,-16.08 0,-4.8 3.722,-5.76 5.523,-5.76 2.52,0 5.398,1.8 5.398,5.41 0,3.84 -2.898,5.51 -5.558,5.51 -0.723,0 -0.965,0 -1.328,0 4.531,8.04 15.738,8.04 16.336,8.04 3.933,0 11.683,-1.8 11.683,-13.52 0,-2.27 -0.359,-8.96 -3.816,-14.1 -3.574,-5.26 -7.629,-5.62 -10.848,-5.74"
         style="fill:#000000;fill-opacity:1;fill-rule:nonzero;stroke:none"
         id="path8563" /><path
         d="m 674.879,1181.57 -2.637,0 c -0.359,-2.03 -1.316,-8.59 -2.515,-10.5 -0.84,-1.07 -7.668,-1.07 -11.258,-1.07 l -22.16,0 c 3.234,2.75 10.539,10.41 13.656,13.27 18.207,16.75 24.914,22.96 24.914,34.8 0,13.75 -10.899,22.97 -24.777,22.97 -13.883,0 -22.02,-11.88 -22.02,-22.2 0,-6.13 5.281,-6.13 5.641,-6.13 2.519,0 5.64,1.81 5.64,5.65 0,3.35 -2.293,5.64 -5.668,5.64 -1.086,0 -1.328,0 -1.691,0 2.273,8.09 8.738,13.56 16.516,13.56 10.171,0 16.398,-8.5 16.398,-19.51 0,-10.16 -5.863,-19.01 -12.68,-26.67 l -24.156,-27.03 0,-2.87 43.68,0"
         style="fill:#000000;fill-opacity:1;fill-rule:nonzero;stroke:none"
         id="path8565" /><path
         d="m 466.922,1583.76 c 0,9.93 -0.606,19.62 -4.902,28.71 -4.895,9.93 -13.493,12.57 -19.344,12.57 -6.926,0 -15.403,-3.47 -19.821,-13.4 -3.343,-7.54 -4.539,-14.96 -4.539,-27.88 0,-11.6 0.836,-20.34 5.137,-28.83 4.652,-9.09 12.895,-11.97 19.102,-11.97 10.39,0 16.359,6.22 19.824,13.16 4.297,8.98 4.543,20.7 4.543,27.64 z m -24.363,-38.4 c -3.813,0 -11.551,2.15 -13.813,15.19 -1.308,7.18 -1.308,16.27 -1.308,24.64 0,9.81 0,18.66 1.906,25.72 2.019,8.01 8.094,11.73 13.215,11.73 4.523,0 11.429,-2.76 13.691,-13.05 1.551,-6.82 1.551,-16.27 1.551,-24.4 0,-8.01 0,-17.11 -1.317,-24.4 -2.261,-13.16 -9.761,-15.43 -13.925,-15.43"
         style="fill:#000000;fill-opacity:1;fill-rule:nonzero;stroke:none"
         id="path8567" /><path
         d="m 494.16,1551.24 c 0,3.48 -2.879,5.88 -5.762,5.88 -3.48,0 -5.878,-2.88 -5.878,-5.76 0,-3.48 2.878,-5.88 5.757,-5.88 3.485,0 5.883,2.88 5.883,5.76"
         style="fill:#000000;fill-opacity:1;fill-rule:nonzero;stroke:none"
         id="path8569" /><path
         d="m 558.121,1583.76 c 0,9.93 -0.601,19.62 -4.902,28.71 -4.895,9.93 -13.492,12.57 -19.344,12.57 -6.926,0 -15.402,-3.47 -19.82,-13.4 -3.344,-7.54 -4.539,-14.96 -4.539,-27.88 0,-11.6 0.836,-20.34 5.136,-28.83 4.657,-9.09 12.895,-11.97 19.106,-11.97 10.387,0 16.355,6.22 19.82,13.16 4.297,8.98 4.547,20.7 4.547,27.64 l -0.004,0 z m -24.363,-38.4 c -3.809,0 -11.551,2.15 -13.813,15.19 -1.308,7.18 -1.308,16.27 -1.308,24.64 0,9.81 0,18.66 1.906,25.72 2.023,8.01 8.094,11.73 13.215,11.73 4.523,0 11.43,-2.76 13.691,-13.05 1.551,-6.82 1.551,-16.27 1.551,-24.4 0,-8.01 0,-17.11 -1.312,-24.4 -2.262,-13.16 -9.766,-15.43 -13.93,-15.43"
         style="fill:#000000;fill-opacity:1;fill-rule:nonzero;stroke:none"
         id="path8571" /><path
         d="m 585.371,1588.44 c -2.027,-0.12 -2.504,-0.24 -2.504,-1.32 0,-1.2 0.594,-1.2 2.742,-1.2 l 5.485,0 c 10.136,0 14.668,-8.38 14.668,-19.86 0,-15.67 -8.114,-19.86 -13.961,-19.86 -5.723,0 -15.508,2.73 -18.965,10.55 3.816,-0.51 7.273,1.64 7.273,5.93 0,3.45 -2.504,5.84 -5.843,5.84 -2.864,0 -5.965,-1.68 -5.965,-6.22 0,-10.62 10.629,-19.34 23.887,-19.34 14.214,0 24.734,10.89 24.734,22.97 0,11.01 -8.84,19.62 -20.297,21.66 10.383,2.99 17.066,11.72 17.066,21.05 0,9.45 -9.789,16.4 -21.367,16.4 -11.933,0 -20.765,-7.32 -20.765,-16.08 0,-4.8 3.722,-5.76 5.523,-5.76 2.52,0 5.398,1.8 5.398,5.41 0,3.84 -2.898,5.51 -5.558,5.51 -0.723,0 -0.965,0 -1.328,0 4.531,8.04 15.738,8.04 16.336,8.04 3.933,0 11.683,-1.8 11.683,-13.52 0,-2.27 -0.359,-8.96 -3.816,-14.1 -3.574,-5.26 -7.629,-5.62 -10.848,-5.74"
         style="fill:#000000;fill-opacity:1;fill-rule:nonzero;stroke:none"
         id="path8573" /><path
         d="m 665.395,1623.24 c 0,2.27 0,2.88 -1.684,2.88 -0.957,0 -1.316,0 -2.273,-1.44 l -36.008,-55.79 0,-3.48 31.441,0 0,-10.85 c 0,-4.4 -0.238,-5.6 -8.969,-5.6 l -2.39,0 0,-3.48 c 2.75,0.24 12.195,0.24 15.543,0.24 3.347,0 12.914,0 15.66,-0.24 l 0,3.48 -2.383,0 c -8.578,0 -8.934,1.2 -8.934,5.6 l 0,10.85 12.036,0 0,3.48 -12.036,0 -0.003,54.35 z m -7.918,-9.25 0,-45.1 -29.059,0"
         style="fill:#000000;fill-opacity:1;fill-rule:nonzero;stroke:none"
         id="path8575" /><path
         d="m 466.922,1967.76 c 0,9.93 -0.606,19.62 -4.902,28.71 -4.895,9.93 -13.493,12.57 -19.344,12.57 -6.926,0 -15.403,-3.47 -19.821,-13.4 -3.343,-7.54 -4.539,-14.96 -4.539,-27.88 0,-11.6 0.836,-20.34 5.137,-28.83 4.652,-9.09 12.895,-11.97 19.102,-11.97 10.39,0 16.359,6.22 19.824,13.16 4.297,8.98 4.543,20.7 4.543,27.64 z m -24.363,-38.4 c -3.813,0 -11.551,2.15 -13.813,15.19 -1.308,7.18 -1.308,16.27 -1.308,24.64 0,9.81 0,18.66 1.906,25.72 2.019,8.01 8.094,11.73 13.215,11.73 4.523,0 11.429,-2.76 13.691,-13.05 1.551,-6.82 1.551,-16.27 1.551,-24.4 0,-8.01 0,-17.11 -1.317,-24.4 -2.261,-13.16 -9.761,-15.43 -13.925,-15.43"
         style="fill:#000000;fill-opacity:1;fill-rule:nonzero;stroke:none"
         id="path8577" /><path
         d="m 494.16,1935.24 c 0,3.48 -2.879,5.88 -5.762,5.88 -3.48,0 -5.878,-2.88 -5.878,-5.76 0,-3.48 2.878,-5.88 5.757,-5.88 3.485,0 5.883,2.88 5.883,5.76"
         style="fill:#000000;fill-opacity:1;fill-rule:nonzero;stroke:none"
         id="path8579" /><path
         d="m 558.121,1967.76 c 0,9.93 -0.601,19.62 -4.902,28.71 -4.895,9.93 -13.492,12.57 -19.344,12.57 -6.926,0 -15.402,-3.47 -19.82,-13.4 -3.344,-7.54 -4.539,-14.96 -4.539,-27.88 0,-11.6 0.836,-20.34 5.136,-28.83 4.657,-9.09 12.895,-11.97 19.106,-11.97 10.387,0 16.355,6.22 19.82,13.16 4.297,8.98 4.547,20.7 4.547,27.64 l -0.004,0 z m -24.363,-38.4 c -3.809,0 -11.551,2.15 -13.813,15.19 -1.308,7.18 -1.308,16.27 -1.308,24.64 0,9.81 0,18.66 1.906,25.72 2.023,8.01 8.094,11.73 13.215,11.73 4.523,0 11.43,-2.76 13.691,-13.05 1.551,-6.82 1.551,-16.27 1.551,-24.4 0,-8.01 0,-17.11 -1.312,-24.4 -2.262,-13.16 -9.766,-15.43 -13.93,-15.43"
         style="fill:#000000;fill-opacity:1;fill-rule:nonzero;stroke:none"
         id="path8581" /><path
         d="m 585.371,1972.44 c -2.027,-0.12 -2.504,-0.24 -2.504,-1.32 0,-1.2 0.594,-1.2 2.742,-1.2 l 5.485,0 c 10.136,0 14.668,-8.38 14.668,-19.86 0,-15.67 -8.114,-19.86 -13.961,-19.86 -5.723,0 -15.508,2.73 -18.965,10.55 3.816,-0.51 7.273,1.64 7.273,5.93 0,3.45 -2.504,5.84 -5.843,5.84 -2.864,0 -5.965,-1.68 -5.965,-6.22 0,-10.62 10.629,-19.34 23.887,-19.34 14.214,0 24.734,10.89 24.734,22.97 0,11.01 -8.84,19.62 -20.297,21.66 10.383,2.99 17.066,11.72 17.066,21.05 0,9.45 -9.789,16.4 -21.367,16.4 -11.933,0 -20.765,-7.32 -20.765,-16.08 0,-4.8 3.722,-5.76 5.523,-5.76 2.52,0 5.398,1.8 5.398,5.41 0,3.84 -2.898,5.51 -5.558,5.51 -0.723,0 -0.965,0 -1.328,0 4.531,8.04 15.738,8.04 16.336,8.04 3.933,0 11.683,-1.8 11.683,-13.52 0,-2.27 -0.359,-8.96 -3.816,-14.1 -3.574,-5.26 -7.629,-5.62 -10.848,-5.74"
         style="fill:#000000;fill-opacity:1;fill-rule:nonzero;stroke:none"
         id="path8583" /><path
         d="m 636.957,1971.09 c 0,30.28 14.68,35.07 21.125,35.07 4.297,0 8.594,-1.32 10.859,-4.92 -1.429,0 -5.964,0 -5.964,-4.92 0,-2.64 1.789,-4.93 4.89,-4.93 2.985,0 5.024,1.81 5.024,5.29 0,6.23 -4.551,12.36 -14.946,12.36 -15.058,0 -30.828,-15.44 -30.828,-41.76 0,-32.9 14.324,-40.32 24.477,-40.32 13.015,0 24.125,11.34 24.125,26.87 0,15.88 -11.094,26.52 -23.02,26.52 -10.613,0 -14.551,-9.17 -15.742,-12.5 l 0,3.24 z m 14.613,-40.89 c -7.511,0 -11.09,6.69 -12.164,9.19 -1.07,3.11 -2.261,8.95 -2.261,17.31 0,9.43 4.293,21.25 15.023,21.25 6.555,0 10.012,-4.41 11.805,-8.47 1.906,-4.42 1.906,-10.39 1.906,-15.52 0,-6.09 0,-11.46 -2.266,-16 -2.98,-5.73 -7.273,-7.76 -12.043,-7.76"
         style="fill:#000000;fill-opacity:1;fill-rule:nonzero;stroke:none"
         id="path8585" /><path
         d="m 466.922,2351.76 c 0,9.93 -0.606,19.62 -4.902,28.71 -4.895,9.93 -13.493,12.57 -19.344,12.57 -6.926,0 -15.403,-3.47 -19.821,-13.4 -3.343,-7.54 -4.539,-14.96 -4.539,-27.88 0,-11.6 0.836,-20.34 5.137,-28.83 4.652,-9.09 12.895,-11.97 19.102,-11.97 10.39,0 16.359,6.22 19.824,13.16 4.297,8.98 4.543,20.7 4.543,27.64 z m -24.363,-38.4 c -3.813,0 -11.551,2.15 -13.813,15.19 -1.308,7.18 -1.308,16.27 -1.308,24.64 0,9.81 0,18.66 1.906,25.72 2.019,8.01 8.094,11.73 13.215,11.73 4.523,0 11.429,-2.76 13.691,-13.05 1.551,-6.82 1.551,-16.27 1.551,-24.4 0,-8.01 0,-17.11 -1.317,-24.4 -2.261,-13.16 -9.761,-15.43 -13.925,-15.43"
         style="fill:#000000;fill-opacity:1;fill-rule:nonzero;stroke:none"
         id="path8587" /><path
         d="m 494.16,2319.24 c 0,3.48 -2.879,5.88 -5.762,5.88 -3.48,0 -5.878,-2.88 -5.878,-5.76 0,-3.48 2.878,-5.88 5.757,-5.88 3.485,0 5.883,2.88 5.883,5.76"
         style="fill:#000000;fill-opacity:1;fill-rule:nonzero;stroke:none"
         id="path8589" /><path
         d="m 558.121,2351.76 c 0,9.93 -0.601,19.62 -4.902,28.71 -4.895,9.93 -13.492,12.57 -19.344,12.57 -6.926,0 -15.402,-3.47 -19.82,-13.4 -3.344,-7.54 -4.539,-14.96 -4.539,-27.88 0,-11.6 0.836,-20.34 5.136,-28.83 4.657,-9.09 12.895,-11.97 19.106,-11.97 10.387,0 16.355,6.22 19.82,13.16 4.297,8.98 4.547,20.7 4.547,27.64 l -0.004,0 z m -24.363,-38.4 c -3.809,0 -11.551,2.15 -13.813,15.19 -1.308,7.18 -1.308,16.27 -1.308,24.64 0,9.81 0,18.66 1.906,25.72 2.023,8.01 8.094,11.73 13.215,11.73 4.523,0 11.43,-2.76 13.691,-13.05 1.551,-6.82 1.551,-16.27 1.551,-24.4 0,-8.01 0,-17.11 -1.312,-24.4 -2.262,-13.16 -9.766,-15.43 -13.93,-15.43"
         style="fill:#000000;fill-opacity:1;fill-rule:nonzero;stroke:none"
         id="path8591" /><path
         d="m 585.371,2356.44 c -2.027,-0.12 -2.504,-0.24 -2.504,-1.32 0,-1.2 0.594,-1.2 2.742,-1.2 l 5.485,0 c 10.136,0 14.668,-8.38 14.668,-19.86 0,-15.67 -8.114,-19.86 -13.961,-19.86 -5.723,0 -15.508,2.73 -18.965,10.55 3.816,-0.51 7.273,1.64 7.273,5.93 0,3.45 -2.504,5.84 -5.843,5.84 -2.864,0 -5.965,-1.68 -5.965,-6.22 0,-10.62 10.629,-19.34 23.887,-19.34 14.214,0 24.734,10.89 24.734,22.97 0,11.01 -8.84,19.62 -20.297,21.66 10.383,2.99 17.066,11.72 17.066,21.05 0,9.45 -9.789,16.4 -21.367,16.4 -11.933,0 -20.765,-7.32 -20.765,-16.08 0,-4.8 3.722,-5.76 5.523,-5.76 2.52,0 5.398,1.8 5.398,5.41 0,3.84 -2.898,5.51 -5.558,5.51 -0.723,0 -0.965,0 -1.328,0 4.531,8.04 15.738,8.04 16.336,8.04 3.933,0 11.683,-1.8 11.683,-13.52 0,-2.27 -0.359,-8.96 -3.816,-14.1 -3.574,-5.26 -7.629,-5.62 -10.848,-5.74"
         style="fill:#000000;fill-opacity:1;fill-rule:nonzero;stroke:none"
         id="path8593" /><path
         d="m 657.828,2356.67 c 6.004,3.23 14.777,8.73 14.777,18.78 0,10.41 -10.058,17.6 -21.07,17.6 -11.851,0 -21.187,-8.75 -21.187,-19.63 0,-4.07 1.199,-8.14 4.55,-12.21 1.317,-1.55 1.434,-1.67 9.813,-7.53 -11.609,-5.39 -17.594,-13.4 -17.594,-22.13 0,-12.69 12.071,-20.58 24.258,-20.58 13.262,0 24.383,9.81 24.383,22.37 0,12.2 -8.606,17.59 -17.93,23.33 z m -16.25,10.74 c -1.558,1.07 -6.348,4.19 -6.348,10.05 0,7.79 8.141,12.7 16.165,12.7 8.621,0 16.289,-6.23 16.289,-14.85 0,-7.3 -5.274,-13.17 -12.219,-17 l -13.887,9.1 z m 5.629,-15.43 14.453,-9.45 c 3.106,-2.03 8.598,-5.74 8.598,-13.03 0,-9.08 -9.196,-15.3 -18.75,-15.3 -10.153,0 -18.871,7.41 -18.871,17.33 0,9.33 6.808,16.86 14.57,20.45"
         style="fill:#000000;fill-opacity:1;fill-rule:nonzero;stroke:none"
         id="path8595" /><path
         d="m 466.922,2735.76 c 0,9.93 -0.606,19.62 -4.902,28.71 -4.895,9.93 -13.493,12.57 -19.344,12.57 -6.926,0 -15.403,-3.47 -19.821,-13.4 -3.343,-7.54 -4.539,-14.96 -4.539,-27.88 0,-11.6 0.836,-20.34 5.137,-28.83 4.652,-9.09 12.895,-11.97 19.102,-11.97 10.39,0 16.359,6.22 19.824,13.16 4.297,8.98 4.543,20.7 4.543,27.64 z m -24.363,-38.4 c -3.813,0 -11.551,2.15 -13.813,15.19 -1.308,7.18 -1.308,16.27 -1.308,24.64 0,9.81 0,18.66 1.906,25.72 2.019,8.01 8.094,11.73 13.215,11.73 4.523,0 11.429,-2.76 13.691,-13.05 1.551,-6.82 1.551,-16.27 1.551,-24.4 0,-8.01 0,-17.11 -1.317,-24.4 -2.261,-13.16 -9.761,-15.43 -13.925,-15.43"
         style="fill:#000000;fill-opacity:1;fill-rule:nonzero;stroke:none"
         id="path8597" /><path
         d="m 494.16,2703.24 c 0,3.48 -2.879,5.88 -5.762,5.88 -3.48,0 -5.878,-2.88 -5.878,-5.76 0,-3.48 2.878,-5.88 5.757,-5.88 3.485,0 5.883,2.88 5.883,5.76"
         style="fill:#000000;fill-opacity:1;fill-rule:nonzero;stroke:none"
         id="path8599" /><path
         d="m 558.121,2735.76 c 0,9.93 -0.601,19.62 -4.902,28.71 -4.895,9.93 -13.492,12.57 -19.344,12.57 -6.926,0 -15.402,-3.47 -19.82,-13.4 -3.344,-7.54 -4.539,-14.96 -4.539,-27.88 0,-11.6 0.836,-20.34 5.136,-28.83 4.657,-9.09 12.895,-11.97 19.106,-11.97 10.387,0 16.355,6.22 19.82,13.16 4.297,8.98 4.547,20.7 4.547,27.64 l -0.004,0 z m -24.363,-38.4 c -3.809,0 -11.551,2.15 -13.813,15.19 -1.308,7.18 -1.308,16.27 -1.308,24.64 0,9.81 0,18.66 1.906,25.72 2.023,8.01 8.094,11.73 13.215,11.73 4.523,0 11.43,-2.76 13.691,-13.05 1.551,-6.82 1.551,-16.27 1.551,-24.4 0,-8.01 0,-17.11 -1.312,-24.4 -2.262,-13.16 -9.766,-15.43 -13.93,-15.43"
         style="fill:#000000;fill-opacity:1;fill-rule:nonzero;stroke:none"
         id="path8601" /><path
         d="m 606.598,2775.24 c 0,2.27 0,2.88 -1.684,2.88 -0.957,0 -1.316,0 -2.273,-1.44 l -36.012,-55.79 0,-3.48 31.441,0 0,-10.85 c 0,-4.4 -0.238,-5.6 -8.965,-5.6 l -2.394,0 0,-3.48 c 2.75,0.24 12.195,0.24 15.543,0.24 3.348,0 12.914,0 15.664,-0.24 l 0,3.48 -2.387,0 c -8.574,0 -8.933,1.2 -8.933,5.6 l 0,10.85 12.035,0 0,3.48 -12.035,0 0,54.35 z m -7.922,-9.25 0,-45.1 -29.059,0"
         style="fill:#000000;fill-opacity:1;fill-rule:nonzero;stroke:none"
         id="path8603" /><path
         d="m 675.723,2735.76 c 0,9.93 -0.606,19.62 -4.903,28.71 -4.898,9.93 -13.492,12.57 -19.343,12.57 -6.926,0 -15.407,-3.47 -19.825,-13.4 -3.343,-7.54 -4.535,-14.96 -4.535,-27.88 0,-11.6 0.836,-20.34 5.133,-28.83 4.656,-9.09 12.895,-11.97 19.105,-11.97 10.391,0 16.36,6.22 19.825,13.16 4.297,8.98 4.543,20.7 4.543,27.64 z m -24.364,-38.4 c -3.812,0 -11.55,2.15 -13.812,15.19 -1.309,7.18 -1.309,16.27 -1.309,24.64 0,9.81 0,18.66 1.903,25.72 2.023,8.01 8.097,11.73 13.218,11.73 4.524,0 11.426,-2.76 13.688,-13.05 1.555,-6.82 1.555,-16.27 1.555,-24.4 0,-8.01 0,-17.11 -1.317,-24.4 -2.262,-13.16 -9.762,-15.43 -13.926,-15.43"
         style="fill:#000000;fill-opacity:1;fill-rule:nonzero;stroke:none"
         id="path8605" /><path
         d="m 466.922,3119.76 c 0,9.93 -0.606,19.62 -4.902,28.71 -4.895,9.93 -13.493,12.57 -19.344,12.57 -6.926,0 -15.403,-3.47 -19.821,-13.4 -3.343,-7.54 -4.539,-14.96 -4.539,-27.88 0,-11.6 0.836,-20.34 5.137,-28.83 4.652,-9.09 12.895,-11.97 19.102,-11.97 10.39,0 16.359,6.22 19.824,13.16 4.297,8.98 4.543,20.7 4.543,27.64 z m -24.363,-38.4 c -3.813,0 -11.551,2.15 -13.813,15.19 -1.308,7.18 -1.308,16.27 -1.308,24.64 0,9.81 0,18.66 1.906,25.72 2.019,8.01 8.094,11.73 13.215,11.73 4.523,0 11.429,-2.76 13.691,-13.05 1.551,-6.82 1.551,-16.27 1.551,-24.4 0,-8.01 0,-17.11 -1.317,-24.4 -2.261,-13.16 -9.761,-15.43 -13.925,-15.43"
         style="fill:#000000;fill-opacity:1;fill-rule:nonzero;stroke:none"
         id="path8607" /><path
         d="m 494.16,3087.24 c 0,3.48 -2.879,5.88 -5.762,5.88 -3.48,0 -5.878,-2.88 -5.878,-5.76 0,-3.48 2.878,-5.88 5.757,-5.88 3.485,0 5.883,2.88 5.883,5.76"
         style="fill:#000000;fill-opacity:1;fill-rule:nonzero;stroke:none"
         id="path8609" /><path
         d="m 558.121,3119.76 c 0,9.93 -0.601,19.62 -4.902,28.71 -4.895,9.93 -13.492,12.57 -19.344,12.57 -6.926,0 -15.402,-3.47 -19.82,-13.4 -3.344,-7.54 -4.539,-14.96 -4.539,-27.88 0,-11.6 0.836,-20.34 5.136,-28.83 4.657,-9.09 12.895,-11.97 19.106,-11.97 10.387,0 16.355,6.22 19.82,13.16 4.297,8.98 4.547,20.7 4.547,27.64 l -0.004,0 z m -24.363,-38.4 c -3.809,0 -11.551,2.15 -13.813,15.19 -1.308,7.18 -1.308,16.27 -1.308,24.64 0,9.81 0,18.66 1.906,25.72 2.023,8.01 8.094,11.73 13.215,11.73 4.523,0 11.43,-2.76 13.691,-13.05 1.551,-6.82 1.551,-16.27 1.551,-24.4 0,-8.01 0,-17.11 -1.312,-24.4 -2.262,-13.16 -9.766,-15.43 -13.93,-15.43"
         style="fill:#000000;fill-opacity:1;fill-rule:nonzero;stroke:none"
         id="path8611" /><path
         d="m 606.598,3159.24 c 0,2.27 0,2.88 -1.684,2.88 -0.957,0 -1.316,0 -2.273,-1.44 l -36.012,-55.79 0,-3.48 31.441,0 0,-10.85 c 0,-4.4 -0.238,-5.6 -8.965,-5.6 l -2.394,0 0,-3.48 c 2.75,0.24 12.195,0.24 15.543,0.24 3.348,0 12.914,0 15.664,-0.24 l 0,3.48 -2.387,0 c -8.574,0 -8.933,1.2 -8.933,5.6 l 0,10.85 12.035,0 0,3.48 -12.035,0 0,54.35 z m -7.922,-9.25 0,-45.1 -29.059,0"
         style="fill:#000000;fill-opacity:1;fill-rule:nonzero;stroke:none"
         id="path8613" /><path
         d="m 674.879,3101.57 -2.637,0 c -0.359,-2.03 -1.316,-8.59 -2.515,-10.49 -0.84,-1.08 -7.668,-1.08 -11.258,-1.08 l -22.16,0 c 3.234,2.75 10.539,10.41 13.656,13.28 18.207,16.74 24.914,22.96 24.914,34.79 0,13.76 -10.899,22.97 -24.777,22.97 -13.883,0 -22.02,-11.88 -22.02,-22.2 0,-6.12 5.281,-6.12 5.641,-6.12 2.519,0 5.64,1.8 5.64,5.64 0,3.36 -2.293,5.64 -5.668,5.64 -1.086,0 -1.328,0 -1.691,0 2.273,8.09 8.738,13.56 16.516,13.56 10.171,0 16.398,-8.5 16.398,-19.5 0,-10.17 -5.863,-19.02 -12.68,-26.67 l -24.156,-27.04 0,-2.87 43.68,0"
         style="fill:#000000;fill-opacity:1;fill-rule:nonzero;stroke:none"
         id="path8615" /><path
         d="m 466.922,3503.76 c 0,9.93 -0.606,19.62 -4.902,28.71 -4.895,9.93 -13.493,12.57 -19.344,12.57 -6.926,0 -15.403,-3.47 -19.821,-13.4 -3.343,-7.54 -4.539,-14.96 -4.539,-27.88 0,-11.6 0.836,-20.34 5.137,-28.83 4.652,-9.09 12.895,-11.97 19.102,-11.97 10.39,0 16.359,6.22 19.824,13.16 4.297,8.98 4.543,20.7 4.543,27.64 z m -24.363,-38.4 c -3.813,0 -11.551,2.15 -13.813,15.19 -1.308,7.18 -1.308,16.27 -1.308,24.64 0,9.81 0,18.66 1.906,25.72 2.019,8.01 8.094,11.73 13.215,11.73 4.523,0 11.429,-2.76 13.691,-13.05 1.551,-6.82 1.551,-16.27 1.551,-24.4 0,-8.01 0,-17.11 -1.317,-24.4 -2.261,-13.16 -9.761,-15.43 -13.925,-15.43"
         style="fill:#000000;fill-opacity:1;fill-rule:nonzero;stroke:none"
         id="path8617" /><path
         d="m 494.16,3471.24 c 0,3.48 -2.879,5.88 -5.762,5.88 -3.48,0 -5.878,-2.88 -5.878,-5.76 0,-3.48 2.878,-5.88 5.757,-5.88 3.485,0 5.883,2.88 5.883,5.76"
         style="fill:#000000;fill-opacity:1;fill-rule:nonzero;stroke:none"
         id="path8619" /><path
         d="m 558.121,3503.76 c 0,9.93 -0.601,19.62 -4.902,28.71 -4.895,9.93 -13.492,12.57 -19.344,12.57 -6.926,0 -15.402,-3.47 -19.82,-13.4 -3.344,-7.54 -4.539,-14.96 -4.539,-27.88 0,-11.6 0.836,-20.34 5.136,-28.83 4.657,-9.09 12.895,-11.97 19.106,-11.97 10.387,0 16.355,6.22 19.82,13.16 4.297,8.98 4.547,20.7 4.547,27.64 l -0.004,0 z m -24.363,-38.4 c -3.809,0 -11.551,2.15 -13.813,15.19 -1.308,7.18 -1.308,16.27 -1.308,24.64 0,9.81 0,18.66 1.906,25.72 2.023,8.01 8.094,11.73 13.215,11.73 4.523,0 11.43,-2.76 13.691,-13.05 1.551,-6.82 1.551,-16.27 1.551,-24.4 0,-8.01 0,-17.11 -1.312,-24.4 -2.262,-13.16 -9.766,-15.43 -13.93,-15.43"
         style="fill:#000000;fill-opacity:1;fill-rule:nonzero;stroke:none"
         id="path8621" /><path
         d="m 606.598,3543.24 c 0,2.27 0,2.88 -1.684,2.88 -0.957,0 -1.316,0 -2.273,-1.44 l -36.012,-55.79 0,-3.48 31.441,0 0,-10.85 c 0,-4.4 -0.238,-5.6 -8.965,-5.6 l -2.394,0 0,-3.48 c 2.75,0.24 12.195,0.24 15.543,0.24 3.348,0 12.914,0 15.664,-0.24 l 0,3.48 -2.387,0 c -8.574,0 -8.933,1.2 -8.933,5.6 l 0,10.85 12.035,0 0,3.48 -12.035,0 0,54.35 z m -7.922,-9.25 0,-45.1 -29.059,0"
         style="fill:#000000;fill-opacity:1;fill-rule:nonzero;stroke:none"
         id="path8623" /><path
         d="m 665.395,3543.24 c 0,2.27 0,2.88 -1.684,2.88 -0.957,0 -1.316,0 -2.273,-1.44 l -36.008,-55.79 0,-3.48 31.441,0 0,-10.85 c 0,-4.4 -0.238,-5.6 -8.969,-5.6 l -2.39,0 0,-3.48 c 2.75,0.24 12.195,0.24 15.543,0.24 3.347,0 12.914,0 15.66,-0.24 l 0,3.48 -2.383,0 c -8.578,0 -8.934,1.2 -8.934,5.6 l 0,10.85 12.036,0 0,3.48 -12.036,0 -0.003,54.35 z m -7.918,-9.25 0,-45.1 -29.059,0"
         style="fill:#000000;fill-opacity:1;fill-rule:nonzero;stroke:none"
         id="path8625" /><path
         d="m 466.922,3887.76 c 0,9.93 -0.606,19.62 -4.902,28.71 -4.895,9.93 -13.493,12.57 -19.344,12.57 -6.926,0 -15.403,-3.47 -19.821,-13.4 -3.343,-7.54 -4.539,-14.96 -4.539,-27.88 0,-11.6 0.836,-20.34 5.137,-28.83 4.652,-9.09 12.895,-11.97 19.102,-11.97 10.39,0 16.359,6.22 19.824,13.16 4.297,8.98 4.543,20.7 4.543,27.64 z m -24.363,-38.4 c -3.813,0 -11.551,2.15 -13.813,15.19 -1.308,7.18 -1.308,16.27 -1.308,24.64 0,9.81 0,18.66 1.906,25.72 2.019,8.01 8.094,11.73 13.215,11.73 4.523,0 11.429,-2.76 13.691,-13.05 1.551,-6.82 1.551,-16.27 1.551,-24.4 0,-8.01 0,-17.11 -1.317,-24.4 -2.261,-13.16 -9.761,-15.43 -13.925,-15.43"
         style="fill:#000000;fill-opacity:1;fill-rule:nonzero;stroke:none"
         id="path8627" /><path
         d="m 494.16,3855.24 c 0,3.48 -2.879,5.88 -5.762,5.88 -3.48,0 -5.878,-2.88 -5.878,-5.76 0,-3.48 2.878,-5.88 5.757,-5.88 3.485,0 5.883,2.88 5.883,5.76"
         style="fill:#000000;fill-opacity:1;fill-rule:nonzero;stroke:none"
         id="path8629" /><path
         d="m 558.121,3887.76 c 0,9.93 -0.601,19.62 -4.902,28.71 -4.895,9.93 -13.492,12.57 -19.344,12.57 -6.926,0 -15.402,-3.47 -19.82,-13.4 -3.344,-7.54 -4.539,-14.96 -4.539,-27.88 0,-11.6 0.836,-20.34 5.136,-28.83 4.657,-9.09 12.895,-11.97 19.106,-11.97 10.387,0 16.355,6.22 19.82,13.16 4.297,8.98 4.547,20.7 4.547,27.64 l -0.004,0 z m -24.363,-38.4 c -3.809,0 -11.551,2.15 -13.813,15.19 -1.308,7.18 -1.308,16.27 -1.308,24.64 0,9.81 0,18.66 1.906,25.72 2.023,8.01 8.094,11.73 13.215,11.73 4.523,0 11.43,-2.76 13.691,-13.05 1.551,-6.82 1.551,-16.27 1.551,-24.4 0,-8.01 0,-17.11 -1.312,-24.4 -2.262,-13.16 -9.766,-15.43 -13.93,-15.43"
         style="fill:#000000;fill-opacity:1;fill-rule:nonzero;stroke:none"
         id="path8631" /><path
         d="m 606.598,3927.24 c 0,2.27 0,2.88 -1.684,2.88 -0.957,0 -1.316,0 -2.273,-1.44 l -36.012,-55.79 0,-3.48 31.441,0 0,-10.85 c 0,-4.4 -0.238,-5.6 -8.965,-5.6 l -2.394,0 0,-3.48 c 2.75,0.24 12.195,0.24 15.543,0.24 3.348,0 12.914,0 15.664,-0.24 l 0,3.48 -2.387,0 c -8.574,0 -8.933,1.2 -8.933,5.6 l 0,10.85 12.035,0 0,3.48 -12.035,0 0,54.35 z m -7.922,-9.25 0,-45.1 -29.059,0"
         style="fill:#000000;fill-opacity:1;fill-rule:nonzero;stroke:none"
         id="path8633" /><path
         d="m 636.957,3891.09 c 0,30.28 14.68,35.07 21.125,35.07 4.297,0 8.594,-1.32 10.859,-4.92 -1.429,0 -5.964,0 -5.964,-4.92 0,-2.64 1.789,-4.93 4.89,-4.93 2.985,0 5.024,1.81 5.024,5.29 0,6.23 -4.551,12.36 -14.946,12.36 -15.058,0 -30.828,-15.44 -30.828,-41.76 0,-32.9 14.324,-40.32 24.477,-40.32 13.015,0 24.125,11.34 24.125,26.87 0,15.88 -11.094,26.52 -23.02,26.52 -10.613,0 -14.551,-9.17 -15.742,-12.5 l 0,3.24 z m 14.613,-40.89 c -7.511,0 -11.09,6.69 -12.164,9.19 -1.07,3.11 -2.261,8.95 -2.261,17.31 0,9.43 4.293,21.25 15.023,21.25 6.555,0 10.012,-4.41 11.805,-8.47 1.906,-4.42 1.906,-10.39 1.906,-15.52 0,-6.09 0,-11.46 -2.266,-16 -2.98,-5.73 -7.273,-7.76 -12.043,-7.76"
         style="fill:#000000;fill-opacity:1;fill-rule:nonzero;stroke:none"
         id="path8635" /><path
         d="m 279.039,1342.32 c -16.367,0 -19.832,2.38 -20.316,13.8 l -5.641,0 0,-34.08 5.641,0 c 0.492,11.4 3.957,13.8 20.316,13.8 l 26.387,0 c 9.551,0 13.375,-0.6 17.554,-2.88 7.403,-3.83 11.7,-11.6 11.7,-21.3 0,-8.14 -3.106,-15.2 -8.477,-19.15 -4.418,-3.24 -7.285,-3.83 -18.387,-3.83 l -43.464,0 c -5.016,0 -5.629,1.07 -5.629,10.77 l 0,2.27 -5.641,0 0,-39.09 5.641,0 0,2.02 c 0,9.51 0.605,10.58 5.625,10.58 l 51.011,0 c 6.329,0.36 10.153,1.32 13.5,3.6 7.883,5.51 12.305,16.05 12.305,29.58 0,13.54 -4.062,22.88 -12.547,28.63 -5.492,3.84 -11.824,5.28 -22.457,5.28"
         style="fill:#000000;fill-opacity:1;fill-rule:nonzero;stroke:none"
         id="path8637" /><path
         d="m 313.539,1418.17 0,-5.26 6.078,-1.2 c 7.629,-1.55 8.461,-2.5 8.461,-9.92 l 0,-26.77 c -8.598,8.24 -11.105,10.99 -17.074,18.64 -8.359,10.87 -12.539,15.53 -16.121,18.28 -5.254,3.82 -10.625,5.74 -16.356,5.74 -13.492,0 -23.285,-11.35 -23.285,-26.88 0,-15.18 9.793,-26.88 22.449,-26.88 7.52,0 12.653,3.82 12.653,9.55 0,4.42 -2.981,7.41 -7.274,7.41 -2.984,0 -5.726,-1.67 -6.8,-4.29 -1.911,-4.39 -2.028,-4.63 -3.579,-4.63 -1.789,0 -4.535,1.19 -6.562,2.86 -3.578,2.98 -5.727,7.98 -5.727,13.57 0,9.77 6.102,15.73 16.137,15.73 8.836,0 16.84,-4.18 27.352,-14.09 l 7.402,-7.04 10.035,-9.31 c 5.016,-4.29 7.762,-6.44 14.688,-11.69 l 3.343,0 0,53.91"
         style="fill:#000000;fill-opacity:1;fill-rule:nonzero;stroke:none"
         id="path8639" /><path
         d="m 295.395,1465.16 c -0.598,1.68 -0.598,1.91 -0.954,2.75 -3.464,8.36 -10.156,13.13 -18.64,13.13 -12.43,0 -20.559,-9.56 -20.559,-24.36 0,-13.97 8.246,-24.6 19.117,-24.6 4.899,0 8.364,3.34 8.364,7.87 0,4.17 -2.864,7.04 -7.161,7.04 -2.507,0 -4.175,-0.94 -6.089,-3.65 -0.832,-1.18 -1.43,-1.54 -2.145,-1.54 -3.344,0 -6.926,7.02 -6.926,13.68 0,8.56 5.364,13.08 15.485,13.08 11.078,0 16.914,-4.53 16.914,-13.11 0,-1.07 -0.102,-2.98 -0.203,-4.77 -0.102,-0.95 -0.102,-1.91 -0.102,-2.62 0,-2.51 1.074,-3.81 3.227,-3.81 2.035,0 2.988,1.3 2.988,3.69 0,0.36 0,1.31 -0.266,2.86 0,4.53 0,4.65 0,5.61 0,8.82 6.344,13.59 18.184,13.59 12.316,0 19.371,-6.07 19.371,-16.68 0,-7.5 -4.062,-15.6 -7.766,-15.6 -1.074,0 -1.312,0.24 -2.629,2.61 -2.031,3.33 -4.062,4.63 -7.046,4.63 -4.301,0 -7.532,-3.22 -7.532,-7.64 0,-5.02 4.305,-8.48 10.524,-8.48 11.597,0 19.613,10.63 19.613,25.92 0,17.2 -9.562,28.56 -24.258,28.56 -11.234,0 -18.043,-5.85 -21.508,-18.15"
         style="fill:#000000;fill-opacity:1;fill-rule:nonzero;stroke:none"
         id="path8641" /><path
         d="m 268.707,1509.39 c 1.633,6.46 2.137,9.81 2.137,14.47 0,10.15 -3.61,17.56 -10.231,21.5 -2.289,1.32 -3.371,1.8 -4.336,1.8 -0.718,0 -1.082,-0.36 -1.082,-0.96 0,-0.36 0.121,-0.95 0.485,-1.55 2.554,-5.86 3.16,-9.08 3.16,-15.9 0,-7.64 -0.606,-12.06 -3.645,-24.61 10.039,-0.48 22.832,-1.55 37.657,-3.23 2.632,-2.51 4.187,-3.34 6.097,-3.34 2.391,0 4.067,1.55 4.067,3.82 0,2.98 -2.496,4.89 -7.254,5.36 -2.973,4.18 -4.282,8.12 -4.282,12.89 0,10.63 8.239,17.07 21.844,17.07 7.992,0 14.797,-2.03 18.496,-5.6 2.508,-2.38 4.18,-7.26 4.18,-12.15 0,-7.14 -3.703,-14.52 -7.406,-14.52 -0.836,0 -1.793,0.71 -2.629,2.13 -2.27,3.68 -3.824,4.74 -7.047,4.74 -4.184,0 -7.414,-3.22 -7.414,-7.52 0,-4.77 4.426,-8.59 10.047,-8.59 5.976,0 11.957,3.46 15.664,8.84 2.633,4.06 3.945,8.96 3.945,15.17 0,18.75 -10.988,30.59 -28.551,30.59 -16.246,0 -27.129,-10.89 -27.129,-27.02 0,-5.02 0.829,-8.84 3.551,-15.42"
         style="fill:#000000;fill-opacity:1;fill-rule:nonzero;stroke:none"
         id="path8643" /><path
         d="m 253.082,1624.91 0,-30.85 5.641,0 0,2.26 c 0,9.64 0.605,10.71 5.621,10.71 l 49.195,0 c 16.242,0 19.703,-2.38 20.18,-13.8 l 5.64,0 0,34.07 -5.64,0 c -0.477,-11.39 -3.942,-13.79 -20.192,-13.79 l -52.832,0 78.664,28.44 0,4.78 -78.664,26.66 67.41,0 c 5.137,0 5.614,-1.07 5.614,-10.71 l 0,-2.15 5.64,0 0,39.22 -5.64,0 0,-2.16 c 0,-9.68 -0.477,-10.75 -5.61,-10.75 l -63.765,0 c -5.012,0 -5.621,1.07 -5.621,10.75 l 0,2.16 -5.641,0 0,-30.01 63.684,-21.88"
         style="fill:#000000;fill-opacity:1;fill-rule:nonzero;stroke:none"
         id="path8645" /><path
         d="m 300.867,1757.4 c -7.523,0 -11.344,-1.32 -14.211,-4.78 -3.105,-3.94 -4.777,-9.79 -4.777,-17.43 0,-13.37 6.332,-23.27 14.93,-23.27 4.539,0 7.402,2.74 7.402,6.92 0,3.69 -2.504,6.44 -6.078,6.44 -1.551,0 -3.223,-0.58 -4.891,-1.74 -0.832,-0.7 -1.191,-0.82 -1.547,-0.82 -2.507,0 -4.656,4.87 -4.656,10.57 0,3.68 1.199,7.83 2.992,9.74 1.91,2.26 4.778,3.09 10.153,3.09 l 4.66,0 c 2.148,-12.53 3.105,-16.34 5.375,-22.18 3.824,-10.25 9.437,-15.26 16.965,-15.26 8.48,0 13.976,6.82 13.976,17.36 0,8.26 -3.351,15.68 -9.453,20.82 6.098,1.92 8.488,4.91 8.488,10.54 0,5.34 -3.539,10.92 -7.082,10.92 -0.718,0 -1.316,-0.61 -1.316,-1.2 0,-0.48 0.121,-0.96 0.48,-1.8 0.715,-1.92 0.836,-2.4 0.836,-3.36 0,-3.36 -2.269,-4.56 -8.242,-4.56 l -24.004,0 z m 14.578,-11.28 c 7.168,0 8.84,-0.36 11.946,-2.38 4.421,-2.97 7.406,-8.44 7.406,-13.54 0,-5.35 -3.942,-9.39 -9.317,-9.39 -5.015,0 -8.601,2.49 -11.109,7.72 -1.672,3.68 -2.867,8.32 -4.422,17.59"
         style="fill:#000000;fill-opacity:1;fill-rule:nonzero;stroke:none"
         id="path8647" /><path
         d="m 282.363,1816.02 0,-4.19 4.274,-3.46 c -3.328,-4.3 -4.758,-8.6 -4.758,-14.58 0,-10.51 6.933,-17.44 17.328,-17.44 4.656,0 8.602,1.56 10.988,4.19 2.512,2.75 3.703,5.5 5.379,12.67 l 1.434,6.34 c 2.269,9.45 4.66,12.8 9.433,12.8 5.618,0 9.559,-4.9 9.559,-11.96 0,-10.06 -6.449,-17.24 -18.398,-20.11 l 0,-4.79 22.601,0 0,4.19 -4.902,4.2 c 3.949,4.91 5.859,10.41 5.859,16.4 0,11.73 -7.285,19.51 -18.394,19.51 -5.258,0 -9.321,-1.68 -12.067,-5.03 -2.508,-2.87 -3.465,-5.26 -5.019,-12.55 l -1.313,-5.98 c -1.433,-6.58 -1.433,-6.58 -2.629,-8.73 -1.195,-2.63 -3.703,-4.18 -6.332,-4.18 -4.777,0 -8.246,4.53 -8.246,11.09 0,4.54 1.551,8.24 4.766,11.58 2.621,2.63 5.004,3.94 10.484,5.85 l 0,4.18"
         style="fill:#000000;fill-opacity:1;fill-rule:nonzero;stroke:none"
         id="path8649" /><path
         d="m 282.363,1871.22 0,-4.19 4.274,-3.46 c -3.328,-4.3 -4.758,-8.61 -4.758,-14.58 0,-10.51 6.933,-17.44 17.328,-17.44 4.656,0 8.602,1.56 10.988,4.19 2.512,2.75 3.703,5.5 5.379,12.67 l 1.434,6.34 c 2.269,9.45 4.66,12.8 9.433,12.8 5.618,0 9.559,-4.91 9.559,-11.96 0,-10.06 -6.449,-17.24 -18.398,-20.11 l 0,-4.78 22.601,0 0,4.18 -4.902,4.19 c 3.949,4.91 5.859,10.42 5.859,16.41 0,11.73 -7.285,19.51 -18.394,19.51 -5.258,0 -9.321,-1.68 -12.067,-5.03 -2.508,-2.87 -3.465,-5.26 -5.019,-12.55 l -1.313,-5.98 c -1.433,-6.58 -1.433,-6.58 -2.629,-8.73 -1.195,-2.63 -3.703,-4.18 -6.332,-4.18 -4.777,0 -8.246,4.53 -8.246,11.09 0,4.54 1.551,8.24 4.766,11.58 2.621,2.63 5.004,3.94 10.484,5.85 l 0,4.18"
         style="fill:#000000;fill-opacity:1;fill-rule:nonzero;stroke:none"
         id="path8651" /><path
         d="m 253.082,1988 0,-71.13 5.641,0 0,2.14 c 0,9.64 0.605,10.71 5.621,10.71 l 63.765,0 c 5.012,0 5.61,-1.07 5.61,-10.71 l 0,-2.14 5.64,0 0,41.01 -5.64,0 0,-3.95 c 0,-9.69 -0.598,-10.77 -5.617,-10.77 l -30.622,0 0,2.39 c 0,7.42 0.723,10.29 3.239,12.8 3.113,2.99 6.949,4.19 14.015,4.43 l 0,5.62 -39.214,0 0,-5.62 c 11.675,-0.6 16.32,-5.39 16.32,-16.74 l 0,-2.87 -27.156,0 c -5.122,0 -5.961,1.07 -5.961,7.53 l 0,5.5 c 0,19.72 4.535,24.86 24.925,28.21 l 0,5.27"
         style="fill:#000000;fill-opacity:1;fill-rule:nonzero;stroke:none"
         id="path8653" /><path
         d="m 283.68,2015.08 1.32,-21.17 5.164,0 0,4.91 c 0,4.42 0.836,5.14 5.969,5.14 l 33.297,0 c 4.773,0 5.609,-1.32 5.609,-9.09 l 0,-0.48 4.32,0 0,31.92 -4.32,0 0,-2.27 c 0,-7.65 -0.836,-8.97 -5.613,-8.97 l -5.973,0 c -8.957,0 -18.035,1.68 -24.84,4.67 -6.687,2.87 -10.39,6.93 -10.988,11.96 1.91,-1.68 3.105,-2.16 5.371,-2.16 3.824,0 6.57,2.75 6.57,6.58 0,4.3 -3.222,7.29 -8.121,7.29 -5.734,0 -9.566,-4.07 -9.566,-10.4 0,-7.53 6.09,-14.11 16.594,-17.94"
         style="fill:#000000;fill-opacity:1;fill-rule:nonzero;stroke:none"
         id="path8655" /><path
         d="m 300.867,2098.2 c -7.523,0 -11.344,-1.32 -14.211,-4.79 -3.105,-3.93 -4.777,-9.78 -4.777,-17.42 0,-13.37 6.332,-23.27 14.93,-23.27 4.539,0 7.402,2.74 7.402,6.92 0,3.69 -2.504,6.44 -6.078,6.44 -1.551,0 -3.223,-0.58 -4.891,-1.75 -0.832,-0.69 -1.191,-0.81 -1.547,-0.81 -2.507,0 -4.656,4.87 -4.656,10.57 0,3.68 1.199,7.84 2.992,9.74 1.91,2.25 4.778,3.09 10.153,3.09 l 4.66,0 c 2.148,-12.53 3.105,-16.34 5.375,-22.18 3.824,-10.25 9.437,-15.26 16.965,-15.26 8.48,0 13.976,6.82 13.976,17.36 0,8.26 -3.351,15.68 -9.453,20.82 6.098,1.92 8.488,4.91 8.488,10.54 0,5.34 -3.539,10.92 -7.082,10.92 -0.718,0 -1.316,-0.6 -1.316,-1.2 0,-0.48 0.121,-0.96 0.48,-1.8 0.715,-1.92 0.836,-2.4 0.836,-3.36 0,-3.36 -2.269,-4.56 -8.242,-4.56 l -24.004,0 z m 14.578,-11.28 c 7.168,0 8.84,-0.36 11.946,-2.38 4.421,-2.97 7.406,-8.44 7.406,-13.55 0,-5.34 -3.942,-9.38 -9.317,-9.38 -5.015,0 -8.601,2.49 -11.109,7.72 -1.672,3.69 -2.867,8.32 -4.422,17.59"
         style="fill:#000000;fill-opacity:1;fill-rule:nonzero;stroke:none"
         id="path8657" /><path
         d="m 321.785,2156.47 c 8.594,-3.82 12.055,-7.87 12.055,-14.08 0,-9.54 -8.715,-15.51 -22.68,-15.51 -14.445,0 -24.121,5.85 -24.121,14.68 0,3.58 1.672,6.68 3.582,6.68 0.356,0 0.715,-0.24 1.43,-0.72 2.265,-1.93 3.457,-2.41 5.484,-2.41 3.934,0 6.676,3 6.676,7.2 0,4.21 -3.344,7.33 -8.117,7.33 -8,0 -14.215,-8.02 -14.215,-18.68 0,-15.55 12.801,-26.68 30.605,-26.68 16.969,0 28.68,10.16 28.68,24.97 0,10.64 -4.906,16.73 -17.582,21.88"
         style="fill:#000000;fill-opacity:1;fill-rule:nonzero;stroke:none"
         id="path8659" /><path
         d="m 283.68,2186.16 -23.703,0 0,-4.89 c 15.57,-1.2 23.472,-6.45 24.191,-16.12 l 4.672,0 0,9.73 30.465,0 c 8.359,0 11.347,0.24 14.093,1.44 5.016,1.91 7.766,6.71 7.766,13.65 0,4.68 -1.437,8.75 -4.066,11.51 -3.828,3.95 -10.164,6.23 -16.743,6.23 -0.718,0 -1.554,0 -2.753,-0.12 l 0,-5.03 c 10.75,-0.36 16.238,-3.47 16.238,-9.34 0,-2.75 -1.43,-5.15 -3.461,-5.98 -1.672,-0.72 -4.652,-1.08 -8.949,-1.08 l -32.59,0 0,17.61 -5.16,0"
         style="fill:#000000;fill-opacity:1;fill-rule:nonzero;stroke:none"
         id="path8661" /><path
         d="m 283.68,2234.4 1.32,-22.45 5.164,0 0,6.06 c 0,4.4 0.836,5.11 5.969,5.11 l 33.297,0 c 4.773,0 5.609,-1.31 5.609,-8.9 l 0,-0.83 4.32,0 0,30.96 -4.32,0 0,-0.84 c 0,-7.79 -0.836,-9.11 -5.613,-9.11 l -4.778,0 -40.968,0 z m -29.762,-5.64 c 0,-3.84 3.121,-6.96 6.961,-6.96 3.719,0 6.961,3.12 6.961,6.84 0,3.96 -3.121,7.08 -6.961,7.08 -3.84,0 -6.961,-3.12 -6.961,-6.96"
         style="fill:#000000;fill-opacity:1;fill-rule:nonzero;stroke:none"
         id="path8663" /><path
         d="m 281.879,2277.12 c 0,-14.57 13.039,-26.04 29.766,-26.04 16.371,0 29.515,11.47 29.515,25.8 0,14.33 -13.144,25.8 -29.633,25.8 -16.371,0 -29.648,-11.47 -29.648,-25.56 z m 5.16,0 c 0,8.32 8.723,12.97 24.484,12.97 15.879,0 24.477,-4.65 24.477,-13.21 0,-8.56 -8.598,-13.19 -24.359,-13.19 -16.239,0 -24.602,4.51 -24.602,13.43"
         style="fill:#000000;fill-opacity:1;fill-rule:nonzero;stroke:none"
         id="path8665" /><path
         d="m 283.68,2330.88 1.32,-20.65 5.164,0 0,4.27 c 0,4.39 0.836,5.1 5.969,5.1 l 33.297,0 c 4.773,0 5.609,-1.31 5.609,-8.9 l 0,-0.47 4.32,0 0,30.24 -4.32,0 0,-0.48 c 0,-7.79 -0.836,-9.11 -5.609,-9.11 l -17.184,0 c -5.848,0 -11.219,0.83 -13.965,2.15 -5.371,2.51 -9.082,7.88 -9.082,13.02 0,3.1 1.801,6.68 4.188,8.48 2.508,1.79 6.207,2.63 11.933,2.63 l 24.11,0 c 4.773,0 5.609,-1.31 5.609,-9.04 l 0,-0.48 4.32,0 0,30.25 -4.32,0 0,-0.48 c 0,-7.66 -0.836,-8.97 -5.613,-8.97 l -23.528,0 c -8.601,0 -10.75,-0.37 -14.812,-2.52 -5.731,-2.99 -9.207,-9.09 -9.207,-16.14 0,-7.66 3.578,-13.64 11.453,-18.9"
         style="fill:#000000;fill-opacity:1;fill-rule:nonzero;stroke:none"
         id="path8667" /><path
         d="m 348.004,2433.72 -90.481,0 0,16.78 -4.441,0 0,-27.58 99.242,0 0,27.58 -4.32,0"
         style="fill:#000000;fill-opacity:1;fill-rule:nonzero;stroke:none"
         id="path8669" /><path
         d="m 310.43,2478.36 -59.149,0 1.324,-22.09 5.157,0 0,5.7 c 0,4.39 0.84,5.11 5.976,5.11 l 65.688,0 c 4.777,0 5.613,-1.31 5.613,-8.9 l 0,-0.47 4.32,0 0,30.24 -4.32,0 0,-0.48 c 0,-7.79 -0.836,-9.11 -5.613,-9.11 l -11.59,0 -6.93,7.3 19.953,14.23 c 0.836,0.48 1.551,0.84 2.149,0.84 1.554,0 2.031,-1.32 2.031,-5.27 l 0,-2.27 4.32,0 0,31.58 -4.32,0 c -0.598,-6.7 -2.031,-9.09 -8.238,-14 l -23.156,-16.98 -5.254,5.38 c -6.805,6.94 -9.43,12.08 -10.391,20.21 l -4.32,0 0,-31.45 4.32,0 0,3.71 c 0,3.82 0.719,5.62 2.27,5.62 1.308,0 2.742,-0.84 4.652,-2.75"
         style="fill:#000000;fill-opacity:1;fill-rule:nonzero;stroke:none"
         id="path8671" /><path
         d="m 330.48,2548.87 c -0.121,-6.56 -0.238,-6.92 -1.074,-8.35 -0.476,-0.84 -1.789,-1.43 -3.101,-1.43 -3.582,0 -5.133,3.21 -5.375,11.21 -0.239,11.32 -0.477,13.11 -2.266,17.05 -3.223,7.15 -9.426,11.22 -17.305,11.22 -4.773,0 -7.757,-1.07 -11.695,-4.39 -2.148,2.03 -2.867,3.11 -2.867,4.07 0,0.59 0.359,0.95 1.664,1.19 2.851,0.48 4.394,2.39 4.394,5.38 0,2.99 -2.507,5.38 -5.73,5.38 -4.063,0 -6.926,-3.24 -6.926,-7.9 0,-3.82 1.199,-5.97 6.223,-11.46 -3.344,-5.02 -4.543,-8.85 -4.543,-14.82 0,-14.22 7.894,-23.54 19.84,-23.54 7.047,0 13.14,3.82 16.008,10.02 1.793,-8 5.375,-11.34 11.945,-11.34 5.258,0 8.363,2.37 10.273,7.93 2.629,-7.37 6.453,-10.93 11.352,-10.93 7.883,0 12.305,9.2 12.305,25.21 0,19.95 -6.336,29.99 -18.891,29.99 -5.977,0 -10.758,-2.74 -12.555,-7.16 -1.195,-3.1 -1.676,-6.92 -1.676,-15.16 l 0,-12.17 z m -43.441,7.01 c 0,7.48 5.254,11.64 14.445,11.64 9.313,0 14.922,-4.51 14.922,-12.11 0,-7.37 -5.609,-12 -14.562,-12 -9.434,0 -14.805,4.51 -14.805,12.47 z m 53.762,-1.07 c 0,9.9 0,10.61 0.242,12.4 0.477,4.77 3.098,7.75 6.91,7.75 6.793,0 10.727,-7.75 10.727,-21.1 0,-10.02 -2.977,-15.74 -8.344,-15.74 -3.93,0 -6.551,2.15 -9.531,7.87"
         style="fill:#000000;fill-opacity:1;fill-rule:nonzero;stroke:none"
         id="path8673" /><path
         d="m 251.398,2618.17 89.645,-31.92 0,6.94 -89.645,31.92"
         style="fill:#000000;fill-opacity:1;fill-rule:nonzero;stroke:none"
         id="path8675" /><path
         d="m 310.43,2646.36 -59.149,0 1.324,-22.09 5.157,0 0,5.7 c 0,4.39 0.84,5.11 5.976,5.11 l 65.688,0 c 4.777,0 5.613,-1.31 5.613,-8.9 l 0,-0.47 4.32,0 0,30.24 -4.32,0 0,-0.48 c 0,-7.79 -0.836,-9.11 -5.613,-9.11 l -11.59,0 -6.93,7.3 19.953,14.23 c 0.836,0.48 1.551,0.84 2.149,0.84 1.554,0 2.031,-1.32 2.031,-5.27 l 0,-2.27 4.32,0 0,31.58 -4.32,0 c -0.598,-6.7 -2.031,-9.09 -8.238,-14 l -23.156,-16.98 -5.254,5.38 c -6.805,6.94 -9.43,12.08 -10.391,20.21 l -4.32,0 0,-31.45 4.32,0 0,3.71 c 0,3.82 0.719,5.62 2.27,5.62 1.308,0 2.742,-0.84 4.652,-2.75"
         style="fill:#000000;fill-opacity:1;fill-rule:nonzero;stroke:none"
         id="path8677" /><path
         d="m 330.48,2716.87 c -0.121,-6.56 -0.238,-6.92 -1.074,-8.35 -0.476,-0.84 -1.789,-1.43 -3.101,-1.43 -3.582,0 -5.133,3.21 -5.375,11.21 -0.239,11.32 -0.477,13.11 -2.266,17.05 -3.223,7.15 -9.426,11.22 -17.305,11.22 -4.773,0 -7.757,-1.07 -11.695,-4.39 -2.148,2.03 -2.867,3.11 -2.867,4.07 0,0.59 0.359,0.95 1.664,1.19 2.851,0.48 4.394,2.39 4.394,5.38 0,2.99 -2.507,5.38 -5.73,5.38 -4.063,0 -6.926,-3.24 -6.926,-7.9 0,-3.82 1.199,-5.97 6.223,-11.46 -3.344,-5.02 -4.543,-8.85 -4.543,-14.82 0,-14.22 7.894,-23.54 19.84,-23.54 7.047,0 13.14,3.82 16.008,10.02 1.793,-8 5.375,-11.34 11.945,-11.34 5.258,0 8.363,2.37 10.273,7.93 2.629,-7.37 6.453,-10.93 11.352,-10.93 7.883,0 12.305,9.2 12.305,25.21 0,19.95 -6.336,29.99 -18.891,29.99 -5.977,0 -10.758,-2.74 -12.555,-7.16 -1.195,-3.1 -1.676,-6.92 -1.676,-15.16 l 0,-12.17 z m -43.441,7.01 c 0,7.48 5.254,11.64 14.445,11.64 9.313,0 14.922,-4.51 14.922,-12.11 0,-7.37 -5.609,-12 -14.562,-12 -9.434,0 -14.805,4.51 -14.805,12.47 z m 53.762,-1.07 c 0,9.9 0,10.61 0.242,12.4 0.477,4.77 3.098,7.75 6.91,7.75 6.793,0 10.727,-7.75 10.727,-21.1 0,-10.02 -2.977,-15.74 -8.344,-15.74 -3.93,0 -6.551,2.15 -9.531,7.87"
         style="fill:#000000;fill-opacity:1;fill-rule:nonzero;stroke:none"
         id="path8679" /><path
         d="m 267.809,2788.08 -3.465,0 c -5.016,0 -5.621,1.08 -5.621,10.64 l 0,2.39 -5.645,0 0,-39.57 5.645,0 0,2.38 c 0,9.65 0.605,10.72 5.621,10.72 l 63.761,0 c 5.016,0 5.614,-1.07 5.614,-10.72 l 0,-2.38 5.64,0 0,39.57 -5.64,0 0,-2.39 c 0,-9.56 -0.598,-10.64 -5.614,-10.64 l -3.46,0"
         style="fill:#000000;fill-opacity:1;fill-rule:nonzero;stroke:none"
         id="path8681" /><path
         d="m 297.836,2876.04 30.262,0 c 5.023,0 5.621,-1.08 5.621,-10.78 l 0,-2.15 5.64,0 0,39.21 -5.64,0 0,-2.14 c 0,-9.63 -0.598,-10.7 -5.614,-10.7 l -63.761,0 c -5.016,0 -5.621,1.07 -5.621,10.7 l 0,2.14 -5.645,0 0,-38.73 5.645,0 0,1.67 c 0,9.7 0.601,10.78 5.601,10.78 l 27.031,0 0,-40.08 -27.031,0 c -5,0 -5.601,1.08 -5.601,10.77 l 0,2.27 -5.645,0 0,-39.33 5.645,0 0,2.14 c 0,9.64 0.605,10.71 5.621,10.71 l 63.761,0 c 5.016,0 5.614,-1.07 5.614,-10.71 l 0,-2.14 5.64,0 0,39.33 -5.64,0 0,-2.27 c 0,-9.69 -0.598,-10.77 -5.621,-10.77 l -30.262,0"
         style="fill:#000000;fill-opacity:1;fill-rule:nonzero;stroke:none"
         id="path8683" /><path
         d="m 253.082,2940.11 0,-30.85 5.641,0 0,2.26 c 0,9.64 0.605,10.71 5.621,10.71 l 49.195,0 c 16.242,0 19.703,-2.38 20.18,-13.8 l 5.64,0 0,34.07 -5.64,0 c -0.477,-11.39 -3.942,-13.79 -20.192,-13.79 l -52.832,0 78.664,28.44 0,4.78 -78.664,26.66 67.41,0 c 5.137,0 5.614,-1.07 5.614,-10.71 l 0,-2.15 5.64,0 0,39.22 -5.64,0 0,-2.16 c 0,-9.68 -0.477,-10.75 -5.61,-10.75 l -63.765,0 c -5.012,0 -5.621,1.07 -5.621,10.75 l 0,2.16 -5.641,0 0,-30.01 63.684,-21.88"
         style="fill:#000000;fill-opacity:1;fill-rule:nonzero;stroke:none"
         id="path8685" /><path
         d="m 257.402,3039.6 90.481,0 0,-16.69 4.441,0 0,27.49 -99.242,0 0,-27.49 4.32,0"
         style="fill:#000000;fill-opacity:1;fill-rule:nonzero;stroke:none"
         id="path8687" /><path
         d="m 4609.41,3757.96 -5.32,0 -5.74,-8.61 c -6.74,6.45 -15.93,9.9 -26.12,9.9 -18.8,0 -31.43,-12.05 -31.43,-29.99 0,-15.64 7.75,-23.38 28.84,-28.83 l 13.63,-3.45 c 10.62,-2.72 11.62,-3.01 14.64,-5.3 4.3,-3.3 6.61,-8.04 6.61,-13.63 0,-5.74 -2.16,-10.48 -6.46,-14.35 -4.73,-4.16 -9.47,-5.74 -17.35,-5.74 -10.62,0 -18.22,3.3 -24.96,10.76 -6.02,6.75 -9.04,13.49 -11.19,24.55 l -6.17,0 0.58,-40.9 5.59,0 6.45,9.75 c 9.61,-7.88 17.63,-10.75 30.11,-10.75 21.07,0 34.56,12.34 34.56,31.58 0,8.89 -3.03,16.5 -8.63,21.96 -3.87,3.73 -9.46,6.16 -20.94,9.04 l -15.36,3.87 c -12.77,3.3 -18.8,8.9 -18.8,17.66 0,10.04 8.19,16.93 20.4,16.93 10.06,0 18.24,-4.31 23.99,-12.5 4.16,-5.88 6.75,-11.92 8.61,-19.24 l 6.18,0"
         style="fill:#000000;fill-opacity:1;fill-rule:nonzero;stroke:none"
         id="path8689" /><path
         d="m 4687.79,3685.81 c 0.14,21.51 -12.05,36.71 -29.56,36.71 -18.36,0 -32.13,-15.92 -32.13,-37.44 0,-20.09 13.05,-33.72 32.42,-33.72 13.63,0 23.39,6.75 29.27,20.38 l -5.02,2.73 c -5.88,-11.02 -11.91,-15.31 -21.52,-15.31 -7.32,0 -12.63,3.15 -16.36,9.45 -2.58,4.3 -3.73,9.32 -3.59,17.2 l 46.49,0 z m -46.33,6.11 c 0,4.46 0.57,7.63 2,11.66 3.02,8.64 7.61,12.81 14.49,12.81 8.76,0 14.5,-7.63 14.5,-19.14 0,-4.18 -1.3,-5.33 -5.89,-5.33"
         style="fill:#000000;fill-opacity:1;fill-rule:nonzero;stroke:none"
         id="path8691" /><path
         d="m 4721.48,3720.36 -25.39,-1.56 0,-6.12 5.88,0 c 5.31,0 6.17,-1.01 6.17,-7.18 l 0,-40.07 c 0,-5.74 -1.58,-6.75 -10.9,-6.75 l -0.58,0 0,-5.15 38.31,0 0,5.15 -2.73,0 c -9.18,0 -10.76,1.01 -10.76,6.75 l 0,7.16 c 0,10.76 2.01,21.66 5.6,29.84 3.44,8.03 8.32,12.48 14.35,13.19 -2.01,-2.29 -2.59,-3.73 -2.59,-6.45 0,-4.59 3.3,-7.89 7.89,-7.89 5.17,0 8.75,3.87 8.75,9.76 0,6.88 -4.87,11.48 -12.48,11.48 -9.04,0 -16.93,-7.31 -21.52,-19.93"
         style="fill:#000000;fill-opacity:1;fill-rule:nonzero;stroke:none"
         id="path8693" /><path
         d="m 4785.48,3720.36 -24.78,-1.56 0,-6.12 5.17,0 c 5.31,0 6.18,-1.02 6.18,-7.18 l 0,-69 c 0,-5.73 -1.59,-6.73 -10.78,-6.73 l -0.57,0 0,-5.16 37.3,0 0,5.16 -1.59,0 c -9.35,0 -10.93,1 -10.93,6.73 l 0,26.49 c 4.74,-8.33 10.2,-11.63 18.97,-11.63 16.66,0 29.02,15.35 29.02,35.87 0,19.8 -12.36,35.29 -28.17,35.29 -8.9,0 -14.79,-3.73 -19.82,-12.33 l 0,10.17 z m 17.29,-5.64 c 9.87,0 15.59,-9.89 15.59,-26.65 0,-18.46 -5.87,-28.92 -16.02,-28.92 -10.14,0 -16.86,10.6 -16.86,27.06 0,17.76 6.43,28.51 17.29,28.51"
         style="fill:#000000;fill-opacity:1;fill-rule:nonzero;stroke:none"
         id="path8695" /><path
         d="m 4906.19,3685.81 c 0.14,21.51 -12.05,36.71 -29.56,36.71 -18.36,0 -32.13,-15.92 -32.13,-37.44 0,-20.09 13.05,-33.72 32.42,-33.72 13.63,0 23.38,6.75 29.27,20.38 l -5.02,2.73 c -5.88,-11.02 -11.91,-15.31 -21.52,-15.31 -7.32,0 -12.63,3.15 -16.36,9.45 -2.58,4.3 -3.73,9.32 -3.58,17.2 l 46.48,0 z m -46.33,6.11 c 0,4.46 0.57,7.63 2.01,11.66 3.01,8.64 7.6,12.81 14.49,12.81 8.75,0 14.48,-7.63 14.48,-19.14 0,-4.18 -1.29,-5.33 -5.88,-5.33"
         style="fill:#000000;fill-opacity:1;fill-rule:nonzero;stroke:none"
         id="path8697" /><path
         d="m 4940.15,3720.36 -24.8,-1.56 0,-6.12 5.18,0 c 5.32,0 6.18,-1.01 6.18,-7.18 l 0,-40.07 c 0,-5.74 -1.58,-6.75 -10.79,-6.75 l -0.57,0 0,-5.15 36.29,0 0,5.15 -0.57,0 c -9.34,0 -10.92,1.01 -10.92,6.75 l 0,20.65 c 0,7.03 1,13.48 2.58,16.78 3.01,6.45 9.47,10.91 15.64,10.91 3.73,0 8.04,-2.16 10.19,-5.03 2.15,-3.01 3.16,-7.46 3.16,-14.35 l 0,-28.96 c 0,-5.74 -1.58,-6.75 -10.9,-6.75 l -0.57,0 0,-5.15 36.3,0 0,5.15 -0.58,0 c -9.23,0 -10.82,1.01 -10.82,6.75 l 0,28.25 c 0,10.33 -0.44,12.91 -3.02,17.78 -3.58,6.89 -10.89,11.06 -19.34,11.06 -9.17,0 -16.34,-4.3 -22.64,-13.76"
         style="fill:#000000;fill-opacity:1;fill-rule:nonzero;stroke:none"
         id="path8699" /><path
         d="m 5026.91,3720.36 0,28.43 -5.88,0 c -1.44,-18.64 -7.75,-28.1 -19.37,-28.96 l 0,-5.59 11.82,0 0,-36.61 c 0,-10.05 0.28,-13.64 1.72,-16.94 2.29,-6.03 8.02,-9.33 16.33,-9.33 5.58,0 10.45,1.72 13.75,4.88 4.72,4.59 7.45,12.2 7.45,20.09 0,0.86 0,1.87 -0.14,3.3 l -6.03,0 c -0.43,-12.92 -4.16,-19.51 -11.19,-19.51 -3.3,0 -6.17,1.72 -7.17,4.16 -0.86,2.01 -1.29,5.6 -1.29,10.77 l 0,39.19 21.09,0 0,6.12"
         style="fill:#000000;fill-opacity:1;fill-rule:nonzero;stroke:none"
         id="path8701" /><path
         d="m 4566.36,3496.32 8.32,0 c 5.6,0 11.34,-1.73 14.49,-4.31 4.16,-3.31 6.31,-8.48 7.32,-17.96 l 0.72,-7.33 c 1.72,-16.24 7.02,-22.84 18.36,-22.84 11.76,0 17.36,7.89 17.8,25.11 l -6.03,0 c -0.57,-9.9 -2.29,-14.2 -6.17,-14.2 -3.3,0 -4.73,2.44 -7.17,12.33 l -2.3,9.04 c -3.15,13.2 -8.75,19.22 -19.94,22.09 20.63,2.87 30.52,11.19 30.52,25.67 0,16.35 -13.79,25.68 -37.87,25.68 l -49.6,0 0,-6.71 2.58,0 c 11.61,0 12.9,-0.74 12.9,-6.77 l 0,-76.62 c 0,-6.03 -1.29,-6.75 -12.9,-6.75 l -2.58,0 0,-6.71 47.05,0 0,6.71 -2.58,0 c -11.63,0 -12.92,0.72 -12.92,6.76 l 0,4.03 0,32.78 z m 0,6.72 0,31.53 c 0,5.73 0.14,6.16 1.58,7.31 1.15,0.86 2.15,1.01 8.31,1.01 l 7.75,0 c 14.19,0 20.64,-6.03 20.64,-19.07 0,-7.31 -1.86,-12.9 -5.59,-15.91 -3.58,-3.01 -10.03,-4.87 -16.92,-4.87"
         style="fill:#000000;fill-opacity:1;fill-rule:nonzero;stroke:none"
         id="path8703" /><path
         d="m 4675.45,3549.6 -37.01,0 0,-6.71 2.72,0 c 11.63,0 12.91,-0.74 12.91,-6.77 l 0,-59.12 c 0,-19.51 -2.86,-23.67 -16.64,-24.25 l 0,-6.71 40.89,0 0,6.71 c -13.59,0.58 -16.45,4.74 -16.45,24.25 l 0,63.44 34.09,-94.4 5.74,0 31.95,94.4 0,-80.94 c 0,-6.17 -1.29,-6.75 -12.87,-6.75 l -2.58,0 0,-6.71 47.06,0 0,6.71 -2.6,0 c -11.64,0 -12.94,0.58 -12.94,6.75 l 0,76.62 c 0,6.03 1.3,6.77 12.94,6.77 l 2.6,0 0,6.71 -36.01,0 -26.25,-76.45"
         style="fill:#000000;fill-opacity:1;fill-rule:nonzero;stroke:none"
         id="path8705" /><path
         d="m 4863.12,3550.62 -5.45,0 -5.6,-8.75 c -9.32,7.46 -15.63,9.9 -26.11,9.9 -11.33,0 -20.23,-3.16 -29.26,-10.47 -14.2,-11.48 -20.81,-25.97 -20.81,-45.34 0,-14.63 4.31,-26.83 12.63,-36.15 8.89,-10.04 22.09,-15.92 35.87,-15.92 12.05,0 20.51,3.73 29.84,13.06 l 5.31,-13.06 6.02,0 0,31.65 c 0,7.77 0,7.91 0.86,8.92 1.29,1.44 4.3,2.02 12.05,2.02 l 2.17,0 0,6.77 -45.62,0 0,-6.76 2.72,0 c 12.05,0 13.05,-0.71 13.05,-8.61 0,-6.17 -1.15,-11.92 -2.86,-15.36 -3.59,-7.04 -12.77,-11.92 -22.1,-11.92 -9.18,0 -18.51,4.74 -23.38,11.92 -5.31,7.89 -7.61,18.08 -7.61,33.44 0,32 10.62,49.09 30.56,49.09 16.35,0 27.69,-11.76 33.57,-34.73 l 6.17,0"
         style="fill:#000000;fill-opacity:1;fill-rule:nonzero;stroke:none"
         id="path8707" /></g></g></svg>